ISO-10303-21;
HEADER;
FILE_DESCRIPTION (( 'STEP AP214' ),
    '1' );
FILE_NAME ('C4_component_override_2__vis_app1.step',
    '2026-08-06T17:03:15',
    ( 'info@peak-design.co.uk' ),
    ( '' ),
    'SwSTEP 2.0',
    'SolidWorks 2026',
    '' );
FILE_SCHEMA (( 'AUTOMOTIVE_DESIGN' ));
ENDSEC;

DATA;
#1 =( NAMED_UNIT ( * ) SI_UNIT ( $, .STERADIAN. ) SOLID_ANGLE_UNIT ( ) );
#2 = DIRECTION ( 'NONE',  ( 1.000000000000000000, 0.000000000000000000, 0.000000000000000000 ) ) ;
#3 = DIRECTION ( 'NONE',  ( -0.000000000000000000, -1.000000000000000000, -0.000000000000000000 ) ) ;
#4 = PRESENTATION_STYLE_ASSIGNMENT (( #26 ) ) ;
#5 = DIRECTION ( 'NONE',  ( 0.000000000000000000, 0.000000000000000000, -1.000000000000000000 ) ) ;
#6 = MECHANICAL_DESIGN_GEOMETRIC_PRESENTATION_REPRESENTATION (  '', ( #115 ), #129 ) ;
#7 =( LENGTH_UNIT ( ) NAMED_UNIT ( * ) SI_UNIT ( .MILLI., .METRE. ) );
#8 = COLOUR_RGB ( '',0.9098039215686274384, 0.4431372549019607643, 0.03137254901960784270 ) ;
#9 = STYLED_ITEM ( 'NONE', ( #4 ), #82 ) ;
#10 = CARTESIAN_POINT ( 'NONE',  ( 0.000000000000000000, 100.0000000000000000, 50.00000000000000000 ) ) ;
#11 = PRODUCT_CONTEXT ( 'NONE', #63, 'mechanical' ) ;
#12 = COLOUR_RGB ( '',1.000000000000000000, 0.000000000000000000, 0.000000000000000000 ) ;
#13 = DIRECTION ( 'NONE',  ( 0.000000000000000000, 0.000000000000000000, 1.000000000000000000 ) ) ;
#14 =( REPRESENTATION_RELATIONSHIP ('NONE','NONE', #72, #65 ) REPRESENTATION_RELATIONSHIP_WITH_TRANSFORMATION ( #80 )SHAPE_REPRESENTATION_RELATIONSHIP( ) );
#15 = DIRECTION ( 'NONE',  ( 0.000000000000000000, 0.000000000000000000, 1.000000000000000000 ) ) ;
#16 = CYLINDRICAL_SURFACE ( 'NONE', #122, 50.00000000000000000 ) ;
#17 = PRODUCT ( 'C4_part_1', 'C4_part_1', '', ( #66 ) ) ;
#18 = APPLICATION_CONTEXT ( 'automotive_design' ) ;
#19 = PRODUCT_DEFINITION_CONTEXT ( 'detailed design', #112, 'design' ) ;
#20 = SURFACE_SIDE_STYLE ('',( #131 ) ) ;
#21 = AXIS2_PLACEMENT_3D ( 'NONE', #124, #100, #53 ) ;
#22 = CARTESIAN_POINT ( 'NONE',  ( 129.8588026547804475, -29.07840402331203578, -68.52472038008272648 ) ) ;
#23 = CLOSED_SHELL ( 'NONE', ( #55, #121, #61 ) ) ;
#24 = EDGE_LOOP ( 'NONE', ( #81 ) ) ;
#25 = APPLICATION_PROTOCOL_DEFINITION ( 'draft international standard', 'automotive_design', 1998, #63 ) ;
#26 = SURFACE_STYLE_USAGE ( .BOTH. , #71 ) ;
#27 = UNCERTAINTY_MEASURE_WITH_UNIT (LENGTH_MEASURE( 1.000000000000000082E-05 ), #45, 'distance_accuracy_value', 'NONE');
#28 = DIRECTION ( 'NONE',  ( 0.000000000000000000, 1.000000000000000000, 0.000000000000000000 ) ) ;
#29 = CARTESIAN_POINT ( 'NONE',  ( 0.000000000000000000, 0.000000000000000000, 50.00000000000000000 ) ) ;
#30 = DIRECTION ( 'NONE',  ( 0.000000000000000000, 1.000000000000000000, 0.000000000000000000 ) ) ;
#31 =( NAMED_UNIT ( * ) PLANE_ANGLE_UNIT ( ) SI_UNIT ( $, .RADIAN. ) );
#32 = AXIS2_PLACEMENT_3D ( 'NONE', #95, #47, #93 ) ;
#33 = PRODUCT_RELATED_PRODUCT_CATEGORY ( 'part', '', ( #85 ) ) ;
#34 = SHAPE_DEFINITION_REPRESENTATION ( #140, #65 ) ;
#35 = CONTEXT_DEPENDENT_SHAPE_REPRESENTATION ( #94, #70 ) ;
#36 = EDGE_LOOP ( 'NONE', ( #83 ) ) ;
#37 = DIRECTION ( 'NONE',  ( 1.000000000000000000, 0.000000000000000000, 0.000000000000000000 ) ) ;
#38 = PRODUCT_DEFINITION_SHAPE ( 'NONE', 'NONE',  #52 ) ;
#39 = PRESENTATION_LAYER_ASSIGNMENT (  '', '', ( #9 ) ) ;
#40 = PRODUCT_DEFINITION_FORMATION_WITH_SPECIFIED_SOURCE ( 'ANY', '', #17, .NOT_KNOWN. ) ;
#41 = PRESENTATION_STYLE_ASSIGNMENT (( #50 ) ) ;
#42 =( NAMED_UNIT ( * ) SI_UNIT ( $, .STERADIAN. ) SOLID_ANGLE_UNIT ( ) );
#43 = EDGE_CURVE ( 'NONE', #108, #108, #102, .T. ) ;
#44 = APPLICATION_CONTEXT ( 'automotive_design' ) ;
#45 =( LENGTH_UNIT ( ) NAMED_UNIT ( * ) SI_UNIT ( .MILLI., .METRE. ) );
#46 = SHAPE_DEFINITION_REPRESENTATION ( #38, #72 ) ;
#47 = DIRECTION ( 'NONE',  ( 0.000000000000000000, 1.000000000000000000, 0.000000000000000000 ) ) ;
#48 = PLANE ( 'NONE',  #32 ) ;
#49 = PRODUCT_RELATED_PRODUCT_CATEGORY ( 'part', '', ( #17 ) ) ;
#50 = SURFACE_STYLE_USAGE ( .BOTH. , #20 ) ;
#51 = DIRECTION ( 'NONE',  ( 0.000000000000000000, 0.000000000000000000, 1.000000000000000000 ) ) ;
#52 = PRODUCT_DEFINITION ( 'UNKNOWN', '', #79, #19 ) ;
#53 = DIRECTION ( 'NONE',  ( 1.000000000000000000, 0.000000000000000000, 0.000000000000000000 ) ) ;
#54 = CONTEXT_DEPENDENT_SHAPE_REPRESENTATION ( #14, #118 ) ;
#55 = ADVANCED_FACE ( 'NONE', ( #107, #56 ), #16, .T. ) ;
#56 = FACE_OUTER_BOUND ( 'NONE', #24, .T. ) ;
#57 = UNCERTAINTY_MEASURE_WITH_UNIT (LENGTH_MEASURE( 1.000000000000000082E-05 ), #76, 'distance_accuracy_value', 'NONE');
#58 = DIRECTION ( 'NONE',  ( 1.000000000000000000, 0.000000000000000000, 0.000000000000000000 ) ) ;
#59 = FACE_OUTER_BOUND ( 'NONE', #36, .T. ) ;
#60 = AXIS2_PLACEMENT_3D ( 'NONE', #64, #91, #37 ) ;
#61 = ADVANCED_FACE ( 'NONE', ( #106 ), #48, .F. ) ;
#62 = CARTESIAN_POINT ( 'NONE',  ( 0.000000000000000000, 0.000000000000000000, 0.000000000000000000 ) ) ;
#63 = APPLICATION_CONTEXT ( 'automotive_design' ) ;
#64 = CARTESIAN_POINT ( 'NONE',  ( 0.000000000000000000, 0.000000000000000000, 0.000000000000000000 ) ) ;
#65 = SHAPE_REPRESENTATION ( 'C4_part_1', ( #142 ), #109 ) ;
#66 = PRODUCT_CONTEXT ( 'NONE', #44, 'mechanical' ) ;
#67 = CARTESIAN_POINT ( 'NONE',  ( 0.000000000000000000, 100.0000000000000000, 0.000000000000000000 ) ) ;
#68 = CIRCLE ( 'NONE', #120, 50.00000000000000000 ) ;
#69 = PRODUCT_DEFINITION_CONTEXT ( 'detailed design', #18, 'design' ) ;
#70 = PRODUCT_DEFINITION_SHAPE ( 'NONE', 'NONE',  #146 ) ;
#71 = SURFACE_SIDE_STYLE ('',( #141 ) ) ;
#72 = SHAPE_REPRESENTATION ( 'C4_component_override_2__vis_app1', ( #21, #113, #97 ), #105 ) ;
#73 = MECHANICAL_DESIGN_GEOMETRIC_PRESENTATION_REPRESENTATION (  '', ( #9 ), #88 ) ;
#74 = CARTESIAN_POINT ( 'NONE',  ( 0.000000000000000000, 0.000000000000000000, 0.000000000000000000 ) ) ;
#75 = UNCERTAINTY_MEASURE_WITH_UNIT (LENGTH_MEASURE( 1.000000000000000082E-05 ), #7, 'distance_accuracy_value', 'NONE');
#76 =( LENGTH_UNIT ( ) NAMED_UNIT ( * ) SI_UNIT ( .MILLI., .METRE. ) );
#77 =( NAMED_UNIT ( * ) PLANE_ANGLE_UNIT ( ) SI_UNIT ( $, .RADIAN. ) );
#78 = FILL_AREA_STYLE ('',( #143 ) ) ;
#79 = PRODUCT_DEFINITION_FORMATION_WITH_SPECIFIED_SOURCE ( 'ANY', '', #85, .NOT_KNOWN. ) ;
#80 = ITEM_DEFINED_TRANSFORMATION ( 'NONE', 'NONE', #113,  #142 ) ;
#81 = ORIENTED_EDGE ( 'NONE', *, *, #96, .T. ) ;
#82 = MANIFOLD_SOLID_BREP ( 'Boss-Extrude1', #23 ) ;
#83 = ORIENTED_EDGE ( 'NONE', *, *, #43, .T. ) ;
#84 = ORIENTED_EDGE ( 'NONE', *, *, #96, .F. ) ;
#85 = PRODUCT ( 'C4_component_override_2__vis_app1', 'C4_component_override_2__vis_app1', '', ( #11 ) ) ;
#86 = ORIENTED_EDGE ( 'NONE', *, *, #43, .F. ) ;
#87 = DIRECTION ( 'NONE',  ( 0.000000000000000000, 1.000000000000000000, 0.000000000000000000 ) ) ;
#88 =( GEOMETRIC_REPRESENTATION_CONTEXT ( 3 ) GLOBAL_UNCERTAINTY_ASSIGNED_CONTEXT ( ( #127 ) ) GLOBAL_UNIT_ASSIGNED_CONTEXT ( ( #144, #98, #42 ) ) REPRESENTATION_CONTEXT ( 'NONE', 'WORKASPACE' ) );
#89 = CARTESIAN_POINT ( 'NONE',  ( 0.000000000000000000, 100.0000000000000000, 0.000000000000000000 ) ) ;
#90 = APPLICATION_PROTOCOL_DEFINITION ( 'draft international standard', 'automotive_design', 1998, #44 ) ;
#91 = DIRECTION ( 'NONE',  ( 0.000000000000000000, 0.000000000000000000, 1.000000000000000000 ) ) ;
#92 = ITEM_DEFINED_TRANSFORMATION ( 'NONE', 'NONE', #97,  #142 ) ;
#93 = DIRECTION ( 'NONE',  ( 0.000000000000000000, -0.000000000000000000, 1.000000000000000000 ) ) ;
#94 =( REPRESENTATION_RELATIONSHIP ('NONE','NONE', #72, #65 ) REPRESENTATION_RELATIONSHIP_WITH_TRANSFORMATION ( #92 )SHAPE_REPRESENTATION_RELATIONSHIP( ) );
#95 = CARTESIAN_POINT ( 'NONE',  ( 0.000000000000000000, 0.000000000000000000, 0.000000000000000000 ) ) ;
#96 = EDGE_CURVE ( 'NONE', #130, #130, #68, .T. ) ;
#97 = AXIS2_PLACEMENT_3D ( 'NONE', #22, #114, #135 ) ;
#98 =( NAMED_UNIT ( * ) PLANE_ANGLE_UNIT ( ) SI_UNIT ( $, .RADIAN. ) );
#99 = DIRECTION ( 'NONE',  ( 0.000000000000000000, -0.000000000000000000, 1.000000000000000000 ) ) ;
#100 = DIRECTION ( 'NONE',  ( 0.000000000000000000, 0.000000000000000000, 1.000000000000000000 ) ) ;
#101 = APPLICATION_PROTOCOL_DEFINITION ( 'draft international standard', 'automotive_design', 1998, #112 ) ;
#102 = CIRCLE ( 'NONE', #117, 50.00000000000000000 ) ;
#103 = CARTESIAN_POINT ( 'NONE',  ( 0.000000000000000000, 100.0000000000000000, 0.000000000000000000 ) ) ;
#104 = FILL_AREA_STYLE ('',( #125 ) ) ;
#105 =( GEOMETRIC_REPRESENTATION_CONTEXT ( 3 ) GLOBAL_UNCERTAINTY_ASSIGNED_CONTEXT ( ( #27 ) ) GLOBAL_UNIT_ASSIGNED_CONTEXT ( ( #45, #31, #137 ) ) REPRESENTATION_CONTEXT ( 'NONE', 'WORKASPACE' ) );
#106 = FACE_OUTER_BOUND ( 'NONE', #123, .T. ) ;
#107 = FACE_OUTER_BOUND ( 'NONE', #116, .T. ) ;
#108 = VERTEX_POINT ( 'NONE', #10 ) ;
#109 =( GEOMETRIC_REPRESENTATION_CONTEXT ( 3 ) GLOBAL_UNCERTAINTY_ASSIGNED_CONTEXT ( ( #75 ) ) GLOBAL_UNIT_ASSIGNED_CONTEXT ( ( #7, #77, #1 ) ) REPRESENTATION_CONTEXT ( 'NONE', 'WORKASPACE' ) );
#110 = ADVANCED_BREP_SHAPE_REPRESENTATION ( '', ( #82, #142 ), #109 ) ;
#111 =( NAMED_UNIT ( * ) SI_UNIT ( $, .STERADIAN. ) SOLID_ANGLE_UNIT ( ) );
#112 = APPLICATION_CONTEXT ( 'automotive_design' ) ;
#113 = AXIS2_PLACEMENT_3D ( 'NONE', #74, #13, #2 ) ;
#114 = DIRECTION ( 'NONE',  ( 0.000000000000000000, 0.000000000000000000, 1.000000000000000000 ) ) ;
#115 = STYLED_ITEM ( 'NONE', ( #41 ), #110 ) ;
#116 = EDGE_LOOP ( 'NONE', ( #86 ) ) ;
#117 = AXIS2_PLACEMENT_3D ( 'NONE', #67, #28, #15 ) ;
#118 = PRODUCT_DEFINITION_SHAPE ( 'NONE', 'NONE',  #145 ) ;
#119 =( NAMED_UNIT ( * ) PLANE_ANGLE_UNIT ( ) SI_UNIT ( $, .RADIAN. ) );
#120 = AXIS2_PLACEMENT_3D ( 'NONE', #139, #87, #132 ) ;
#121 = ADVANCED_FACE ( 'NONE', ( #59 ), #133, .T. ) ;
#122 = AXIS2_PLACEMENT_3D ( 'NONE', #103, #3, #5 ) ;
#123 = EDGE_LOOP ( 'NONE', ( #84 ) ) ;
#124 = CARTESIAN_POINT ( 'NONE',  ( 0.000000000000000000, 0.000000000000000000, 0.000000000000000000 ) ) ;
#125 = FILL_AREA_STYLE_COLOUR ( '', #12 ) ;
#126 = AXIS2_PLACEMENT_3D ( 'NONE', #89, #30, #99 ) ;
#127 = UNCERTAINTY_MEASURE_WITH_UNIT (LENGTH_MEASURE( 1.000000000000000082E-05 ), #144, 'distance_accuracy_value', 'NONE');
#128 = PRODUCT_DEFINITION ( 'UNKNOWN', '', #40, #69 ) ;
#129 =( GEOMETRIC_REPRESENTATION_CONTEXT ( 3 ) GLOBAL_UNCERTAINTY_ASSIGNED_CONTEXT ( ( #57 ) ) GLOBAL_UNIT_ASSIGNED_CONTEXT ( ( #76, #119, #111 ) ) REPRESENTATION_CONTEXT ( 'NONE', 'WORKASPACE' ) );
#130 = VERTEX_POINT ( 'NONE', #29 ) ;
#131 = SURFACE_STYLE_FILL_AREA ( #78 ) ;
#132 = DIRECTION ( 'NONE',  ( 0.000000000000000000, 0.000000000000000000, 1.000000000000000000 ) ) ;
#133 = PLANE ( 'NONE',  #126 ) ;
#134 = SHAPE_REPRESENTATION_RELATIONSHIP ( 'NONE' , 'NONE' ,  #65, #110 ) ;
#135 = DIRECTION ( 'NONE',  ( 1.000000000000000000, 0.000000000000000000, 0.000000000000000000 ) ) ;
#136 = APPLICATION_PROTOCOL_DEFINITION ( 'draft international standard', 'automotive_design', 1998, #18 ) ;
#137 =( NAMED_UNIT ( * ) SI_UNIT ( $, .STERADIAN. ) SOLID_ANGLE_UNIT ( ) );
#138 = PRESENTATION_LAYER_ASSIGNMENT (  '', '', ( #115 ) ) ;
#139 = CARTESIAN_POINT ( 'NONE',  ( 0.000000000000000000, 0.000000000000000000, 0.000000000000000000 ) ) ;
#140 = PRODUCT_DEFINITION_SHAPE ( 'NONE', 'NONE',  #128 ) ;
#141 = SURFACE_STYLE_FILL_AREA ( #104 ) ;
#142 = AXIS2_PLACEMENT_3D ( 'NONE', #62, #51, #58 ) ;
#143 = FILL_AREA_STYLE_COLOUR ( '', #8 ) ;
#144 =( LENGTH_UNIT ( ) NAMED_UNIT ( * ) SI_UNIT ( .MILLI., .METRE. ) );
#145 = NEXT_ASSEMBLY_USAGE_OCCURRENCE ( 'NAUO1', ' ', ' ', #52, #128, $ ) ;
#146 = NEXT_ASSEMBLY_USAGE_OCCURRENCE ( 'NAUO2', ' ', ' ', #52, #128, $ ) ;
ENDSEC;
END-ISO-10303-21;
