ISO-10303-21;
HEADER;
FILE_DESCRIPTION (( 'STEP AP214' ),
    '1' );
FILE_NAME ('C4_component_override_1__hid_included.step',
    '2026-08-06T17:07:58',
    ( 'info@peak-design.co.uk' ),
    ( '' ),
    'SwSTEP 2.0',
    'SolidWorks 2026',
    '' );
FILE_SCHEMA (( 'AUTOMOTIVE_DESIGN' ));
ENDSEC;

DATA;
#1 = AXIS2_PLACEMENT_3D ( 'NONE', #64, #123, #30 ) ;
#2 = FACE_OUTER_BOUND ( 'NONE', #116, .T. ) ;
#3 = APPLICATION_CONTEXT ( 'automotive_design' ) ;
#4 = ITEM_DEFINED_TRANSFORMATION ( 'NONE', 'NONE', #36,  #26 ) ;
#5 = EDGE_CURVE ( 'NONE', #79, #79, #85, .T. ) ;
#6 = APPLICATION_CONTEXT ( 'automotive_design' ) ;
#7 = PRODUCT_DEFINITION ( 'UNKNOWN', '', #84, #131 ) ;
#8 = SURFACE_STYLE_USAGE ( .BOTH. , #46 ) ;
#9 =( NAMED_UNIT ( * ) PLANE_ANGLE_UNIT ( ) SI_UNIT ( $, .RADIAN. ) );
#10 = DIRECTION ( 'NONE',  ( 0.000000000000000000, 0.000000000000000000, -1.000000000000000000 ) ) ;
#11 =( NAMED_UNIT ( * ) SI_UNIT ( $, .STERADIAN. ) SOLID_ANGLE_UNIT ( ) );
#12 =( NAMED_UNIT ( * ) SI_UNIT ( $, .STERADIAN. ) SOLID_ANGLE_UNIT ( ) );
#13 = PRODUCT_CONTEXT ( 'NONE', #3, 'mechanical' ) ;
#14 =( LENGTH_UNIT ( ) NAMED_UNIT ( * ) SI_UNIT ( .MILLI., .METRE. ) );
#15 = AXIS2_PLACEMENT_3D ( 'NONE', #108, #136, #10 ) ;
#16 = DIRECTION ( 'NONE',  ( 0.000000000000000000, 0.000000000000000000, 1.000000000000000000 ) ) ;
#17 = DIRECTION ( 'NONE',  ( 0.000000000000000000, 0.000000000000000000, 1.000000000000000000 ) ) ;
#18 = EDGE_CURVE ( 'NONE', #89, #89, #78, .T. ) ;
#19 = CARTESIAN_POINT ( 'NONE',  ( 0.000000000000000000, 0.000000000000000000, 0.000000000000000000 ) ) ;
#20 = AXIS2_PLACEMENT_3D ( 'NONE', #133, #32, #95 ) ;
#21 = FILL_AREA_STYLE ('',( #71 ) ) ;
#22 = AXIS2_PLACEMENT_3D ( 'NONE', #19, #102, #16 ) ;
#23 = DIRECTION ( 'NONE',  ( 1.000000000000000000, 0.000000000000000000, 0.000000000000000000 ) ) ;
#24 = SURFACE_STYLE_FILL_AREA ( #143 ) ;
#25 = CARTESIAN_POINT ( 'NONE',  ( 0.000000000000000000, 0.000000000000000000, 0.000000000000000000 ) ) ;
#26 = AXIS2_PLACEMENT_3D ( 'NONE', #105, #120, #27 ) ;
#27 = DIRECTION ( 'NONE',  ( 1.000000000000000000, 0.000000000000000000, 0.000000000000000000 ) ) ;
#28 = SURFACE_STYLE_USAGE ( .BOTH. , #137 ) ;
#29 = DIRECTION ( 'NONE',  ( 0.000000000000000000, 1.000000000000000000, 0.000000000000000000 ) ) ;
#30 = DIRECTION ( 'NONE',  ( 1.000000000000000000, 0.000000000000000000, 0.000000000000000000 ) ) ;
#31 = MANIFOLD_SOLID_BREP ( 'Boss-Extrude1', #70 ) ;
#32 = DIRECTION ( 'NONE',  ( 0.000000000000000000, 0.000000000000000000, 1.000000000000000000 ) ) ;
#33 = PRODUCT_CONTEXT ( 'NONE', #91, 'mechanical' ) ;
#34 = CONTEXT_DEPENDENT_SHAPE_REPRESENTATION ( #130, #63 ) ;
#35 = DIRECTION ( 'NONE',  ( 0.000000000000000000, 1.000000000000000000, 0.000000000000000000 ) ) ;
#36 = AXIS2_PLACEMENT_3D ( 'NONE', #96, #122, #23 ) ;
#37 = PRESENTATION_STYLE_ASSIGNMENT (( #8 ) ) ;
#38 =( LENGTH_UNIT ( ) NAMED_UNIT ( * ) SI_UNIT ( .MILLI., .METRE. ) );
#39 = PRESENTATION_LAYER_ASSIGNMENT (  '', '', ( #65 ) ) ;
#40 = CARTESIAN_POINT ( 'NONE',  ( 0.000000000000000000, 100.0000000000000000, 0.000000000000000000 ) ) ;
#41 =( NAMED_UNIT ( * ) PLANE_ANGLE_UNIT ( ) SI_UNIT ( $, .RADIAN. ) );
#42 = PRODUCT_DEFINITION_SHAPE ( 'NONE', 'NONE',  #146 ) ;
#43 = PRESENTATION_LAYER_ASSIGNMENT (  '', '', ( #118 ) ) ;
#44 = ADVANCED_BREP_SHAPE_REPRESENTATION ( '', ( #31, #26 ), #87 ) ;
#45 = PRODUCT_DEFINITION_CONTEXT ( 'detailed design', #126, 'design' ) ;
#46 = SURFACE_SIDE_STYLE ('',( #24 ) ) ;
#47 = FILL_AREA_STYLE_COLOUR ( '', #111 ) ;
#48 = FACE_OUTER_BOUND ( 'NONE', #100, .T. ) ;
#49 = CYLINDRICAL_SURFACE ( 'NONE', #15, 50.00000000000000000 ) ;
#50 = PRODUCT_DEFINITION_SHAPE ( 'NONE', 'NONE',  #7 ) ;
#51 =( NAMED_UNIT ( * ) PLANE_ANGLE_UNIT ( ) SI_UNIT ( $, .RADIAN. ) );
#52 = APPLICATION_PROTOCOL_DEFINITION ( 'draft international standard', 'automotive_design', 1998, #126 ) ;
#53 = APPLICATION_PROTOCOL_DEFINITION ( 'draft international standard', 'automotive_design', 1998, #91 ) ;
#54 = PRODUCT ( 'C4_component_override_1__hid_included', 'C4_component_override_1__hid_included', '', ( #13 ) ) ;
#55 = UNCERTAINTY_MEASURE_WITH_UNIT (LENGTH_MEASURE( 1.000000000000000082E-05 ), #62, 'distance_accuracy_value', 'NONE');
#56 = ADVANCED_FACE ( 'NONE', ( #2 ), #98, .T. ) ;
#57 = AXIS2_PLACEMENT_3D ( 'NONE', #75, #35, #17 ) ;
#58 = DIRECTION ( 'NONE',  ( 0.000000000000000000, -0.000000000000000000, 1.000000000000000000 ) ) ;
#59 = AXIS2_PLACEMENT_3D ( 'NONE', #40, #29, #58 ) ;
#60 = SHAPE_REPRESENTATION ( 'C4_part_1', ( #26 ), #87 ) ;
#61 = SURFACE_STYLE_FILL_AREA ( #21 ) ;
#62 =( LENGTH_UNIT ( ) NAMED_UNIT ( * ) SI_UNIT ( .MILLI., .METRE. ) );
#63 = PRODUCT_DEFINITION_SHAPE ( 'NONE', 'NONE',  #145 ) ;
#64 = CARTESIAN_POINT ( 'NONE',  ( 0.000000000000000000, 0.000000000000000000, 0.000000000000000000 ) ) ;
#65 = STYLED_ITEM ( 'NONE', ( #76 ), #44 ) ;
#66 = UNCERTAINTY_MEASURE_WITH_UNIT (LENGTH_MEASURE( 1.000000000000000082E-05 ), #14, 'distance_accuracy_value', 'NONE');
#67 =( NAMED_UNIT ( * ) SI_UNIT ( $, .STERADIAN. ) SOLID_ANGLE_UNIT ( ) );
#68 = ADVANCED_FACE ( 'NONE', ( #104, #48 ), #49, .T. ) ;
#69 = CARTESIAN_POINT ( 'NONE',  ( 0.000000000000000000, 100.0000000000000000, 50.00000000000000000 ) ) ;
#70 = CLOSED_SHELL ( 'NONE', ( #68, #56, #142 ) ) ;
#71 = FILL_AREA_STYLE_COLOUR ( '', #73 ) ;
#72 =( LENGTH_UNIT ( ) NAMED_UNIT ( * ) SI_UNIT ( .MILLI., .METRE. ) );
#73 = COLOUR_RGB ( '',0.9098039215686274384, 0.4431372549019607643, 0.03137254901960784270 ) ;
#74 =( GEOMETRIC_REPRESENTATION_CONTEXT ( 3 ) GLOBAL_UNCERTAINTY_ASSIGNED_CONTEXT ( ( #55 ) ) GLOBAL_UNIT_ASSIGNED_CONTEXT ( ( #62, #41, #11 ) ) REPRESENTATION_CONTEXT ( 'NONE', 'WORKASPACE' ) );
#75 = CARTESIAN_POINT ( 'NONE',  ( 0.000000000000000000, 100.0000000000000000, 0.000000000000000000 ) ) ;
#76 = PRESENTATION_STYLE_ASSIGNMENT (( #28 ) ) ;
#77 =( GEOMETRIC_REPRESENTATION_CONTEXT ( 3 ) GLOBAL_UNCERTAINTY_ASSIGNED_CONTEXT ( ( #66 ) ) GLOBAL_UNIT_ASSIGNED_CONTEXT ( ( #14, #51, #12 ) ) REPRESENTATION_CONTEXT ( 'NONE', 'WORKASPACE' ) );
#78 = CIRCLE ( 'NONE', #22, 50.00000000000000000 ) ;
#79 = VERTEX_POINT ( 'NONE', #69 ) ;
#80 = SHAPE_REPRESENTATION_RELATIONSHIP ( 'NONE' , 'NONE' ,  #60, #44 ) ;
#81 = PRODUCT_DEFINITION_SHAPE ( 'NONE', 'NONE',  #125 ) ;
#82 = MECHANICAL_DESIGN_GEOMETRIC_PRESENTATION_REPRESENTATION (  '', ( #65 ), #74 ) ;
#83 = DIRECTION ( 'NONE',  ( 0.000000000000000000, 0.000000000000000000, 1.000000000000000000 ) ) ;
#84 = PRODUCT_DEFINITION_FORMATION_WITH_SPECIFIED_SOURCE ( 'ANY', '', #54, .NOT_KNOWN. ) ;
#85 = CIRCLE ( 'NONE', #57, 50.00000000000000000 ) ;
#86 = EDGE_LOOP ( 'NONE', ( #115 ) ) ;
#87 =( GEOMETRIC_REPRESENTATION_CONTEXT ( 3 ) GLOBAL_UNCERTAINTY_ASSIGNED_CONTEXT ( ( #113 ) ) GLOBAL_UNIT_ASSIGNED_CONTEXT ( ( #72, #9, #117 ) ) REPRESENTATION_CONTEXT ( 'NONE', 'WORKASPACE' ) );
#88 = DIRECTION ( 'NONE',  ( 0.000000000000000000, 1.000000000000000000, 0.000000000000000000 ) ) ;
#89 = VERTEX_POINT ( 'NONE', #135 ) ;
#90 = DIRECTION ( 'NONE',  ( 0.000000000000000000, -0.000000000000000000, 1.000000000000000000 ) ) ;
#91 = APPLICATION_CONTEXT ( 'automotive_design' ) ;
#92 = APPLICATION_PROTOCOL_DEFINITION ( 'draft international standard', 'automotive_design', 1998, #6 ) ;
#93 = AXIS2_PLACEMENT_3D ( 'NONE', #138, #83, #112 ) ;
#94 = CONTEXT_DEPENDENT_SHAPE_REPRESENTATION ( #106, #42 ) ;
#95 = DIRECTION ( 'NONE',  ( 1.000000000000000000, 0.000000000000000000, 0.000000000000000000 ) ) ;
#96 = CARTESIAN_POINT ( 'NONE',  ( 129.8588026547804475, -29.07840402331203578, -68.52472038008272648 ) ) ;
#97 = SHAPE_REPRESENTATION ( 'C4_component_override_1__hid_included', ( #1, #93, #36 ), #77 ) ;
#98 = PLANE ( 'NONE',  #59 ) ;
#99 = PRODUCT_RELATED_PRODUCT_CATEGORY ( 'part', '', ( #54 ) ) ;
#100 = EDGE_LOOP ( 'NONE', ( #141 ) ) ;
#101 = UNCERTAINTY_MEASURE_WITH_UNIT (LENGTH_MEASURE( 1.000000000000000082E-05 ), #38, 'distance_accuracy_value', 'NONE');
#102 = DIRECTION ( 'NONE',  ( 0.000000000000000000, 1.000000000000000000, 0.000000000000000000 ) ) ;
#103 = PLANE ( 'NONE',  #121 ) ;
#104 = FACE_OUTER_BOUND ( 'NONE', #86, .T. ) ;
#105 = CARTESIAN_POINT ( 'NONE',  ( 0.000000000000000000, 0.000000000000000000, 0.000000000000000000 ) ) ;
#106 =( REPRESENTATION_RELATIONSHIP ('NONE','NONE', #97, #60 ) REPRESENTATION_RELATIONSHIP_WITH_TRANSFORMATION ( #4 )SHAPE_REPRESENTATION_RELATIONSHIP( ) );
#107 = PRODUCT ( 'C4_part_1', 'C4_part_1', '', ( #33 ) ) ;
#108 = CARTESIAN_POINT ( 'NONE',  ( 0.000000000000000000, 100.0000000000000000, 0.000000000000000000 ) ) ;
#109 = SHAPE_DEFINITION_REPRESENTATION ( #81, #60 ) ;
#110 = ITEM_DEFINED_TRANSFORMATION ( 'NONE', 'NONE', #93,  #26 ) ;
#111 = COLOUR_RGB ( '',1.000000000000000000, 0.000000000000000000, 0.000000000000000000 ) ;
#112 = DIRECTION ( 'NONE',  ( 1.000000000000000000, 0.000000000000000000, 0.000000000000000000 ) ) ;
#113 = UNCERTAINTY_MEASURE_WITH_UNIT (LENGTH_MEASURE( 1.000000000000000082E-05 ), #72, 'distance_accuracy_value', 'NONE');
#114 =( GEOMETRIC_REPRESENTATION_CONTEXT ( 3 ) GLOBAL_UNCERTAINTY_ASSIGNED_CONTEXT ( ( #101 ) ) GLOBAL_UNIT_ASSIGNED_CONTEXT ( ( #38, #129, #67 ) ) REPRESENTATION_CONTEXT ( 'NONE', 'WORKASPACE' ) );
#115 = ORIENTED_EDGE ( 'NONE', *, *, #5, .F. ) ;
#116 = EDGE_LOOP ( 'NONE', ( #132 ) ) ;
#117 =( NAMED_UNIT ( * ) SI_UNIT ( $, .STERADIAN. ) SOLID_ANGLE_UNIT ( ) );
#118 = STYLED_ITEM ( 'NONE', ( #37 ), #31 ) ;
#119 = FACE_OUTER_BOUND ( 'NONE', #128, .T. ) ;
#120 = DIRECTION ( 'NONE',  ( 0.000000000000000000, 0.000000000000000000, 1.000000000000000000 ) ) ;
#121 = AXIS2_PLACEMENT_3D ( 'NONE', #25, #88, #90 ) ;
#122 = DIRECTION ( 'NONE',  ( 0.000000000000000000, 0.000000000000000000, 1.000000000000000000 ) ) ;
#123 = DIRECTION ( 'NONE',  ( 0.000000000000000000, 0.000000000000000000, 1.000000000000000000 ) ) ;
#124 = SHAPE_DEFINITION_REPRESENTATION ( #50, #97 ) ;
#125 = PRODUCT_DEFINITION ( 'UNKNOWN', '', #134, #45 ) ;
#126 = APPLICATION_CONTEXT ( 'automotive_design' ) ;
#127 = MECHANICAL_DESIGN_GEOMETRIC_PRESENTATION_REPRESENTATION (  '', ( #118 ), #114 ) ;
#128 = EDGE_LOOP ( 'NONE', ( #144 ) ) ;
#129 =( NAMED_UNIT ( * ) PLANE_ANGLE_UNIT ( ) SI_UNIT ( $, .RADIAN. ) );
#130 =( REPRESENTATION_RELATIONSHIP ('NONE','NONE', #97, #60 ) REPRESENTATION_RELATIONSHIP_WITH_TRANSFORMATION ( #110 )SHAPE_REPRESENTATION_RELATIONSHIP( ) );
#131 = PRODUCT_DEFINITION_CONTEXT ( 'detailed design', #6, 'design' ) ;
#132 = ORIENTED_EDGE ( 'NONE', *, *, #5, .T. ) ;
#133 = CARTESIAN_POINT ( 'NONE',  ( 0.000000000000000000, 0.000000000000000000, 0.000000000000000000 ) ) ;
#134 = PRODUCT_DEFINITION_FORMATION_WITH_SPECIFIED_SOURCE ( 'ANY', '', #107, .NOT_KNOWN. ) ;
#135 = CARTESIAN_POINT ( 'NONE',  ( 0.000000000000000000, 0.000000000000000000, 50.00000000000000000 ) ) ;
#136 = DIRECTION ( 'NONE',  ( -0.000000000000000000, -1.000000000000000000, -0.000000000000000000 ) ) ;
#137 = SURFACE_SIDE_STYLE ('',( #61 ) ) ;
#138 = CARTESIAN_POINT ( 'NONE',  ( 0.000000000000000000, 0.000000000000000000, 0.000000000000000000 ) ) ;
#139 = PRODUCT_RELATED_PRODUCT_CATEGORY ( 'part', '', ( #107 ) ) ;
#140 = APPLICATION_PROTOCOL_DEFINITION ( 'draft international standard', 'automotive_design', 1998, #3 ) ;
#141 = ORIENTED_EDGE ( 'NONE', *, *, #18, .T. ) ;
#142 = ADVANCED_FACE ( 'NONE', ( #119 ), #103, .F. ) ;
#143 = FILL_AREA_STYLE ('',( #47 ) ) ;
#144 = ORIENTED_EDGE ( 'NONE', *, *, #18, .F. ) ;
#145 = NEXT_ASSEMBLY_USAGE_OCCURRENCE ( 'NAUO1', ' ', ' ', #7, #125, $ ) ;
#146 = NEXT_ASSEMBLY_USAGE_OCCURRENCE ( 'NAUO2', ' ', ' ', #7, #125, $ ) ;
ENDSEC;
END-ISO-10303-21;
