ISO-10303-21;
HEADER;
FILE_DESCRIPTION (( 'STEP AP214' ),
    '1' );
FILE_NAME ('C4_component_override_1__one_hidden.step',
    '2026-08-06T17:02:19',
    ( 'info@peak-design.co.uk' ),
    ( '' ),
    'SwSTEP 2.0',
    'SolidWorks 2026',
    '' );
FILE_SCHEMA (( 'AUTOMOTIVE_DESIGN' ));
ENDSEC;

DATA;
#1 = CLOSED_SHELL ( 'NONE', ( #118, #97, #135 ) ) ;
#2 = EDGE_CURVE ( 'NONE', #53, #53, #28, .T. ) ;
#3 =( GEOMETRIC_REPRESENTATION_CONTEXT ( 3 ) GLOBAL_UNCERTAINTY_ASSIGNED_CONTEXT ( ( #134 ) ) GLOBAL_UNIT_ASSIGNED_CONTEXT ( ( #112, #60, #102 ) ) REPRESENTATION_CONTEXT ( 'NONE', 'WORKASPACE' ) );
#4 = DIRECTION ( 'NONE',  ( 0.000000000000000000, 1.000000000000000000, 0.000000000000000000 ) ) ;
#5 = CARTESIAN_POINT ( 'NONE',  ( 0.000000000000000000, 100.0000000000000000, 0.000000000000000000 ) ) ;
#6 = DIRECTION ( 'NONE',  ( 0.000000000000000000, 0.000000000000000000, 1.000000000000000000 ) ) ;
#7 = DIRECTION ( 'NONE',  ( 1.000000000000000000, 0.000000000000000000, 0.000000000000000000 ) ) ;
#8 = VERTEX_POINT ( 'NONE', #93 ) ;
#9 = STYLED_ITEM ( 'NONE', ( #131 ), #40 ) ;
#10 = DIRECTION ( 'NONE',  ( 1.000000000000000000, 0.000000000000000000, 0.000000000000000000 ) ) ;
#11 = AXIS2_PLACEMENT_3D ( 'NONE', #96, #114, #10 ) ;
#12 = PRESENTATION_LAYER_ASSIGNMENT (  '', '', ( #26 ) ) ;
#13 = SHAPE_REPRESENTATION ( 'C4_component_override_1__one_hidden', ( #11, #81 ), #128 ) ;
#14 = CARTESIAN_POINT ( 'NONE',  ( 0.000000000000000000, 0.000000000000000000, 0.000000000000000000 ) ) ;
#15 = SHAPE_REPRESENTATION_RELATIONSHIP ( 'NONE' , 'NONE' ,  #25, #40 ) ;
#16 = AXIS2_PLACEMENT_3D ( 'NONE', #14, #78, #113 ) ;
#17 = PRODUCT_DEFINITION_CONTEXT ( 'detailed design', #50, 'design' ) ;
#18 = FACE_OUTER_BOUND ( 'NONE', #130, .T. ) ;
#19 = SURFACE_SIDE_STYLE ('',( #54 ) ) ;
#20 = PRESENTATION_LAYER_ASSIGNMENT (  '', '', ( #9 ) ) ;
#21 = SHAPE_DEFINITION_REPRESENTATION ( #56, #25 ) ;
#22 = SHAPE_DEFINITION_REPRESENTATION ( #105, #13 ) ;
#23 = PRODUCT ( 'C4_component_override_1__one_hidden', 'C4_component_override_1__one_hidden', '', ( #82 ) ) ;
#24 = CIRCLE ( 'NONE', #51, 50.00000000000000000 ) ;
#25 = SHAPE_REPRESENTATION ( 'C4_part_1', ( #75 ), #3 ) ;
#26 = STYLED_ITEM ( 'NONE', ( #126 ), #84 ) ;
#27 = FILL_AREA_STYLE ('',( #59 ) ) ;
#28 = CIRCLE ( 'NONE', #72, 50.00000000000000000 ) ;
#29 = DIRECTION ( 'NONE',  ( 0.000000000000000000, 0.000000000000000000, 1.000000000000000000 ) ) ;
#30 = CARTESIAN_POINT ( 'NONE',  ( 0.000000000000000000, 100.0000000000000000, 0.000000000000000000 ) ) ;
#31 = DIRECTION ( 'NONE',  ( -0.000000000000000000, -1.000000000000000000, -0.000000000000000000 ) ) ;
#32 = AXIS2_PLACEMENT_3D ( 'NONE', #122, #29, #66 ) ;
#33 = FACE_OUTER_BOUND ( 'NONE', #39, .T. ) ;
#34 = UNCERTAINTY_MEASURE_WITH_UNIT (LENGTH_MEASURE( 1.000000000000000082E-05 ), #91, 'distance_accuracy_value', 'NONE');
#35 =( NAMED_UNIT ( * ) SI_UNIT ( $, .STERADIAN. ) SOLID_ANGLE_UNIT ( ) );
#36 = COLOUR_RGB ( '',0.9098039215686274384, 0.4431372549019607643, 0.03137254901960784270 ) ;
#37 = FACE_OUTER_BOUND ( 'NONE', #58, .T. ) ;
#38 = MECHANICAL_DESIGN_GEOMETRIC_PRESENTATION_REPRESENTATION (  '', ( #9 ), #90 ) ;
#39 = EDGE_LOOP ( 'NONE', ( #98 ) ) ;
#40 = ADVANCED_BREP_SHAPE_REPRESENTATION ( '', ( #84, #75 ), #3 ) ;
#41 = UNCERTAINTY_MEASURE_WITH_UNIT (LENGTH_MEASURE( 1.000000000000000082E-05 ), #80, 'distance_accuracy_value', 'NONE');
#42 = PRODUCT_CONTEXT ( 'NONE', #116, 'mechanical' ) ;
#43 = COLOUR_RGB ( '',1.000000000000000000, 0.000000000000000000, 0.000000000000000000 ) ;
#44 = APPLICATION_PROTOCOL_DEFINITION ( 'draft international standard', 'automotive_design', 1998, #116 ) ;
#45 =( GEOMETRIC_REPRESENTATION_CONTEXT ( 3 ) GLOBAL_UNCERTAINTY_ASSIGNED_CONTEXT ( ( #104 ) ) GLOBAL_UNIT_ASSIGNED_CONTEXT ( ( #86, #73, #129 ) ) REPRESENTATION_CONTEXT ( 'NONE', 'WORKASPACE' ) );
#46 = SURFACE_STYLE_USAGE ( .BOTH. , #107 ) ;
#47 = DIRECTION ( 'NONE',  ( 0.000000000000000000, -0.000000000000000000, 1.000000000000000000 ) ) ;
#48 = PRODUCT_DEFINITION ( 'UNKNOWN', '', #133, #17 ) ;
#49 = ORIENTED_EDGE ( 'NONE', *, *, #2, .T. ) ;
#50 = APPLICATION_CONTEXT ( 'automotive_design' ) ;
#51 = AXIS2_PLACEMENT_3D ( 'NONE', #74, #119, #6 ) ;
#52 = FILL_AREA_STYLE ('',( #69 ) ) ;
#53 = VERTEX_POINT ( 'NONE', #121 ) ;
#54 = SURFACE_STYLE_FILL_AREA ( #52 ) ;
#55 = CONTEXT_DEPENDENT_SHAPE_REPRESENTATION ( #61, #64 ) ;
#56 = PRODUCT_DEFINITION_SHAPE ( 'NONE', 'NONE',  #48 ) ;
#57 = EDGE_LOOP ( 'NONE', ( #89 ) ) ;
#58 = EDGE_LOOP ( 'NONE', ( #49 ) ) ;
#59 = FILL_AREA_STYLE_COLOUR ( '', #43 ) ;
#60 =( NAMED_UNIT ( * ) PLANE_ANGLE_UNIT ( ) SI_UNIT ( $, .RADIAN. ) );
#61 =( REPRESENTATION_RELATIONSHIP ('NONE','NONE', #13, #25 ) REPRESENTATION_RELATIONSHIP_WITH_TRANSFORMATION ( #95 )SHAPE_REPRESENTATION_RELATIONSHIP( ) );
#62 = APPLICATION_PROTOCOL_DEFINITION ( 'draft international standard', 'automotive_design', 1998, #125 ) ;
#63 = PRODUCT_DEFINITION_FORMATION_WITH_SPECIFIED_SOURCE ( 'ANY', '', #23, .NOT_KNOWN. ) ;
#64 = PRODUCT_DEFINITION_SHAPE ( 'NONE', 'NONE',  #137 ) ;
#65 = CARTESIAN_POINT ( 'NONE',  ( 0.000000000000000000, 100.0000000000000000, 0.000000000000000000 ) ) ;
#66 = DIRECTION ( 'NONE',  ( 1.000000000000000000, 0.000000000000000000, 0.000000000000000000 ) ) ;
#67 = DIRECTION ( 'NONE',  ( 1.000000000000000000, 0.000000000000000000, 0.000000000000000000 ) ) ;
#68 = PRODUCT_RELATED_PRODUCT_CATEGORY ( 'part', '', ( #23 ) ) ;
#69 = FILL_AREA_STYLE_COLOUR ( '', #36 ) ;
#70 = CYLINDRICAL_SURFACE ( 'NONE', #120, 50.00000000000000000 ) ;
#71 =( NAMED_UNIT ( * ) PLANE_ANGLE_UNIT ( ) SI_UNIT ( $, .RADIAN. ) );
#72 = AXIS2_PLACEMENT_3D ( 'NONE', #65, #88, #108 ) ;
#73 =( NAMED_UNIT ( * ) PLANE_ANGLE_UNIT ( ) SI_UNIT ( $, .RADIAN. ) );
#74 = CARTESIAN_POINT ( 'NONE',  ( 0.000000000000000000, 0.000000000000000000, 0.000000000000000000 ) ) ;
#75 = AXIS2_PLACEMENT_3D ( 'NONE', #103, #92, #67 ) ;
#76 =( NAMED_UNIT ( * ) SI_UNIT ( $, .STERADIAN. ) SOLID_ANGLE_UNIT ( ) );
#77 = PLANE ( 'NONE',  #16 ) ;
#78 = DIRECTION ( 'NONE',  ( 0.000000000000000000, 1.000000000000000000, 0.000000000000000000 ) ) ;
#79 = CARTESIAN_POINT ( 'NONE',  ( 0.000000000000000000, 0.000000000000000000, 0.000000000000000000 ) ) ;
#80 =( LENGTH_UNIT ( ) NAMED_UNIT ( * ) SI_UNIT ( .MILLI., .METRE. ) );
#81 = AXIS2_PLACEMENT_3D ( 'NONE', #79, #101, #7 ) ;
#82 = PRODUCT_CONTEXT ( 'NONE', #125, 'mechanical' ) ;
#83 = PRODUCT_RELATED_PRODUCT_CATEGORY ( 'part', '', ( #85 ) ) ;
#84 = MANIFOLD_SOLID_BREP ( 'Boss-Extrude1', #1 ) ;
#85 = PRODUCT ( 'C4_part_1', 'C4_part_1', '', ( #42 ) ) ;
#86 =( LENGTH_UNIT ( ) NAMED_UNIT ( * ) SI_UNIT ( .MILLI., .METRE. ) );
#87 = SURFACE_STYLE_FILL_AREA ( #27 ) ;
#88 = DIRECTION ( 'NONE',  ( 0.000000000000000000, 1.000000000000000000, 0.000000000000000000 ) ) ;
#89 = ORIENTED_EDGE ( 'NONE', *, *, #2, .F. ) ;
#90 =( GEOMETRIC_REPRESENTATION_CONTEXT ( 3 ) GLOBAL_UNCERTAINTY_ASSIGNED_CONTEXT ( ( #34 ) ) GLOBAL_UNIT_ASSIGNED_CONTEXT ( ( #91, #111, #76 ) ) REPRESENTATION_CONTEXT ( 'NONE', 'WORKASPACE' ) );
#91 =( LENGTH_UNIT ( ) NAMED_UNIT ( * ) SI_UNIT ( .MILLI., .METRE. ) );
#92 = DIRECTION ( 'NONE',  ( 0.000000000000000000, 0.000000000000000000, 1.000000000000000000 ) ) ;
#93 = CARTESIAN_POINT ( 'NONE',  ( 0.000000000000000000, 0.000000000000000000, 50.00000000000000000 ) ) ;
#94 = APPLICATION_CONTEXT ( 'automotive_design' ) ;
#95 = ITEM_DEFINED_TRANSFORMATION ( 'NONE', 'NONE', #81,  #75 ) ;
#96 = CARTESIAN_POINT ( 'NONE',  ( 0.000000000000000000, 0.000000000000000000, 0.000000000000000000 ) ) ;
#97 = ADVANCED_FACE ( 'NONE', ( #37 ), #100, .T. ) ;
#98 = ORIENTED_EDGE ( 'NONE', *, *, #115, .T. ) ;
#99 = ORIENTED_EDGE ( 'NONE', *, *, #115, .F. ) ;
#100 = PLANE ( 'NONE',  #109 ) ;
#101 = DIRECTION ( 'NONE',  ( 0.000000000000000000, 0.000000000000000000, 1.000000000000000000 ) ) ;
#102 =( NAMED_UNIT ( * ) SI_UNIT ( $, .STERADIAN. ) SOLID_ANGLE_UNIT ( ) );
#103 = CARTESIAN_POINT ( 'NONE',  ( 0.000000000000000000, 0.000000000000000000, 0.000000000000000000 ) ) ;
#104 = UNCERTAINTY_MEASURE_WITH_UNIT (LENGTH_MEASURE( 1.000000000000000082E-05 ), #86, 'distance_accuracy_value', 'NONE');
#105 = PRODUCT_DEFINITION_SHAPE ( 'NONE', 'NONE',  #132 ) ;
#106 = APPLICATION_PROTOCOL_DEFINITION ( 'draft international standard', 'automotive_design', 1998, #50 ) ;
#107 = SURFACE_SIDE_STYLE ('',( #87 ) ) ;
#108 = DIRECTION ( 'NONE',  ( 0.000000000000000000, 0.000000000000000000, 1.000000000000000000 ) ) ;
#109 = AXIS2_PLACEMENT_3D ( 'NONE', #5, #4, #47 ) ;
#110 = DIRECTION ( 'NONE',  ( 0.000000000000000000, 0.000000000000000000, -1.000000000000000000 ) ) ;
#111 =( NAMED_UNIT ( * ) PLANE_ANGLE_UNIT ( ) SI_UNIT ( $, .RADIAN. ) );
#112 =( LENGTH_UNIT ( ) NAMED_UNIT ( * ) SI_UNIT ( .MILLI., .METRE. ) );
#113 = DIRECTION ( 'NONE',  ( 0.000000000000000000, -0.000000000000000000, 1.000000000000000000 ) ) ;
#114 = DIRECTION ( 'NONE',  ( 0.000000000000000000, 0.000000000000000000, 1.000000000000000000 ) ) ;
#115 = EDGE_CURVE ( 'NONE', #8, #8, #24, .T. ) ;
#116 = APPLICATION_CONTEXT ( 'automotive_design' ) ;
#117 = MECHANICAL_DESIGN_GEOMETRIC_PRESENTATION_REPRESENTATION (  '', ( #26 ), #45 ) ;
#118 = ADVANCED_FACE ( 'NONE', ( #127, #33 ), #70, .T. ) ;
#119 = DIRECTION ( 'NONE',  ( 0.000000000000000000, 1.000000000000000000, 0.000000000000000000 ) ) ;
#120 = AXIS2_PLACEMENT_3D ( 'NONE', #30, #31, #110 ) ;
#121 = CARTESIAN_POINT ( 'NONE',  ( 0.000000000000000000, 100.0000000000000000, 50.00000000000000000 ) ) ;
#122 = CARTESIAN_POINT ( 'NONE',  ( 0.000000000000000000, 0.000000000000000000, 0.000000000000000000 ) ) ;
#123 = SURFACE_STYLE_USAGE ( .BOTH. , #19 ) ;
#124 = PRODUCT_DEFINITION_CONTEXT ( 'detailed design', #94, 'design' ) ;
#125 = APPLICATION_CONTEXT ( 'automotive_design' ) ;
#126 = PRESENTATION_STYLE_ASSIGNMENT (( #46 ) ) ;
#127 = FACE_OUTER_BOUND ( 'NONE', #57, .T. ) ;
#128 =( GEOMETRIC_REPRESENTATION_CONTEXT ( 3 ) GLOBAL_UNCERTAINTY_ASSIGNED_CONTEXT ( ( #41 ) ) GLOBAL_UNIT_ASSIGNED_CONTEXT ( ( #80, #71, #35 ) ) REPRESENTATION_CONTEXT ( 'NONE', 'WORKASPACE' ) );
#129 =( NAMED_UNIT ( * ) SI_UNIT ( $, .STERADIAN. ) SOLID_ANGLE_UNIT ( ) );
#130 = EDGE_LOOP ( 'NONE', ( #99 ) ) ;
#131 = PRESENTATION_STYLE_ASSIGNMENT (( #123 ) ) ;
#132 = PRODUCT_DEFINITION ( 'UNKNOWN', '', #63, #124 ) ;
#133 = PRODUCT_DEFINITION_FORMATION_WITH_SPECIFIED_SOURCE ( 'ANY', '', #85, .NOT_KNOWN. ) ;
#134 = UNCERTAINTY_MEASURE_WITH_UNIT (LENGTH_MEASURE( 1.000000000000000082E-05 ), #112, 'distance_accuracy_value', 'NONE');
#135 = ADVANCED_FACE ( 'NONE', ( #18 ), #77, .F. ) ;
#136 = APPLICATION_PROTOCOL_DEFINITION ( 'draft international standard', 'automotive_design', 1998, #94 ) ;
#137 = NEXT_ASSEMBLY_USAGE_OCCURRENCE ( 'NAUO1', ' ', ' ', #132, #48, $ ) ;
ENDSEC;
END-ISO-10303-21;
