ISO-10303-21;
HEADER;
FILE_DESCRIPTION (( 'STEP AP214' ),
    '1' );
FILE_NAME ('C4_component_override_2__vis_app0.step',
    '2026-08-06T17:03:15',
    ( 'info@peak-design.co.uk' ),
    ( '' ),
    'SwSTEP 2.0',
    'SolidWorks 2026',
    '' );
FILE_SCHEMA (( 'AUTOMOTIVE_DESIGN' ));
ENDSEC;

DATA;
#1 = AXIS2_PLACEMENT_3D ( 'NONE', #78, #35, #57 ) ;
#2 =( NAMED_UNIT ( * ) SI_UNIT ( $, .STERADIAN. ) SOLID_ANGLE_UNIT ( ) );
#3 =( LENGTH_UNIT ( ) NAMED_UNIT ( * ) SI_UNIT ( .MILLI., .METRE. ) );
#4 = DIRECTION ( 'NONE',  ( 0.000000000000000000, 0.000000000000000000, 1.000000000000000000 ) ) ;
#5 = CARTESIAN_POINT ( 'NONE',  ( 0.000000000000000000, 0.000000000000000000, 0.000000000000000000 ) ) ;
#6 = DIRECTION ( 'NONE',  ( 0.000000000000000000, 1.000000000000000000, 0.000000000000000000 ) ) ;
#7 = FACE_OUTER_BOUND ( 'NONE', #119, .T. ) ;
#8 = FACE_OUTER_BOUND ( 'NONE', #108, .T. ) ;
#9 = DIRECTION ( 'NONE',  ( 0.000000000000000000, -0.000000000000000000, 1.000000000000000000 ) ) ;
#10 = CARTESIAN_POINT ( 'NONE',  ( 0.000000000000000000, 0.000000000000000000, 50.00000000000000000 ) ) ;
#11 = APPLICATION_CONTEXT ( 'automotive_design' ) ;
#12 = PRESENTATION_LAYER_ASSIGNMENT (  '', '', ( #40 ) ) ;
#13 = APPLICATION_PROTOCOL_DEFINITION ( 'draft international standard', 'automotive_design', 1998, #124 ) ;
#14 = PRODUCT_DEFINITION_SHAPE ( 'NONE', 'NONE',  #130 ) ;
#15 = EDGE_LOOP ( 'NONE', ( #51 ) ) ;
#16 = FACE_OUTER_BOUND ( 'NONE', #60, .T. ) ;
#17 =( GEOMETRIC_REPRESENTATION_CONTEXT ( 3 ) GLOBAL_UNCERTAINTY_ASSIGNED_CONTEXT ( ( #70 ) ) GLOBAL_UNIT_ASSIGNED_CONTEXT ( ( #3, #122, #96 ) ) REPRESENTATION_CONTEXT ( 'NONE', 'WORKASPACE' ) );
#18 = FILL_AREA_STYLE_COLOUR ( '', #74 ) ;
#19 = DIRECTION ( 'NONE',  ( 0.000000000000000000, 0.000000000000000000, 1.000000000000000000 ) ) ;
#20 =( GEOMETRIC_REPRESENTATION_CONTEXT ( 3 ) GLOBAL_UNCERTAINTY_ASSIGNED_CONTEXT ( ( #47 ) ) GLOBAL_UNIT_ASSIGNED_CONTEXT ( ( #111, #83, #2 ) ) REPRESENTATION_CONTEXT ( 'NONE', 'WORKASPACE' ) );
#21 = APPLICATION_PROTOCOL_DEFINITION ( 'draft international standard', 'automotive_design', 1998, #94 ) ;
#22 = AXIS2_PLACEMENT_3D ( 'NONE', #128, #39, #26 ) ;
#23 = DIRECTION ( 'NONE',  ( -0.000000000000000000, -1.000000000000000000, -0.000000000000000000 ) ) ;
#24 = ADVANCED_FACE ( 'NONE', ( #7 ), #80, .T. ) ;
#25 = CARTESIAN_POINT ( 'NONE',  ( 0.000000000000000000, 0.000000000000000000, 0.000000000000000000 ) ) ;
#26 = DIRECTION ( 'NONE',  ( 0.000000000000000000, -0.000000000000000000, 1.000000000000000000 ) ) ;
#27 = PRESENTATION_STYLE_ASSIGNMENT (( #121 ) ) ;
#28 = DIRECTION ( 'NONE',  ( 1.000000000000000000, 0.000000000000000000, 0.000000000000000000 ) ) ;
#29 = AXIS2_PLACEMENT_3D ( 'NONE', #97, #79, #113 ) ;
#30 = PRODUCT_DEFINITION_SHAPE ( 'NONE', 'NONE',  #131 ) ;
#31 = CONTEXT_DEPENDENT_SHAPE_REPRESENTATION ( #61, #14 ) ;
#32 = AXIS2_PLACEMENT_3D ( 'NONE', #58, #87, #45 ) ;
#33 = PRODUCT_CONTEXT ( 'NONE', #11, 'mechanical' ) ;
#34 = PRODUCT ( 'C4_part_1', 'C4_part_1', '', ( #33 ) ) ;
#35 = DIRECTION ( 'NONE',  ( 0.000000000000000000, 0.000000000000000000, 1.000000000000000000 ) ) ;
#36 = AXIS2_PLACEMENT_3D ( 'NONE', #86, #76, #28 ) ;
#37 = ORIENTED_EDGE ( 'NONE', *, *, #56, .T. ) ;
#38 = ADVANCED_FACE ( 'NONE', ( #16, #8 ), #52, .T. ) ;
#39 = DIRECTION ( 'NONE',  ( 0.000000000000000000, 1.000000000000000000, 0.000000000000000000 ) ) ;
#40 = STYLED_ITEM ( 'NONE', ( #27 ), #120 ) ;
#41 = AXIS2_PLACEMENT_3D ( 'NONE', #118, #6, #9 ) ;
#42 = PRODUCT ( 'C4_component_override_2__vis_app0', 'C4_component_override_2__vis_app0', '', ( #49 ) ) ;
#43 = ITEM_DEFINED_TRANSFORMATION ( 'NONE', 'NONE', #93,  #36 ) ;
#44 = PRODUCT_DEFINITION_FORMATION_WITH_SPECIFIED_SOURCE ( 'ANY', '', #42, .NOT_KNOWN. ) ;
#45 = DIRECTION ( 'NONE',  ( 1.000000000000000000, 0.000000000000000000, 0.000000000000000000 ) ) ;
#46 = SHAPE_DEFINITION_REPRESENTATION ( #54, #102 ) ;
#47 = UNCERTAINTY_MEASURE_WITH_UNIT (LENGTH_MEASURE( 1.000000000000000082E-05 ), #111, 'distance_accuracy_value', 'NONE');
#48 = ADVANCED_BREP_SHAPE_REPRESENTATION ( '', ( #120, #36 ), #20 ) ;
#49 = PRODUCT_CONTEXT ( 'NONE', #123, 'mechanical' ) ;
#50 = UNCERTAINTY_MEASURE_WITH_UNIT (LENGTH_MEASURE( 1.000000000000000082E-05 ), #115, 'distance_accuracy_value', 'NONE');
#51 = ORIENTED_EDGE ( 'NONE', *, *, #56, .F. ) ;
#52 = CYLINDRICAL_SURFACE ( 'NONE', #126, 50.00000000000000000 ) ;
#53 = PRODUCT_DEFINITION ( 'UNKNOWN', '', #44, #67 ) ;
#54 = PRODUCT_DEFINITION_SHAPE ( 'NONE', 'NONE',  #53 ) ;
#55 = CLOSED_SHELL ( 'NONE', ( #38, #24, #89 ) ) ;
#56 = EDGE_CURVE ( 'NONE', #95, #95, #99, .T. ) ;
#57 = DIRECTION ( 'NONE',  ( 1.000000000000000000, 0.000000000000000000, 0.000000000000000000 ) ) ;
#58 = CARTESIAN_POINT ( 'NONE',  ( 0.000000000000000000, 0.000000000000000000, 0.000000000000000000 ) ) ;
#59 = ITEM_DEFINED_TRANSFORMATION ( 'NONE', 'NONE', #1,  #36 ) ;
#60 = EDGE_LOOP ( 'NONE', ( #107 ) ) ;
#61 =( REPRESENTATION_RELATIONSHIP ('NONE','NONE', #102, #103 ) REPRESENTATION_RELATIONSHIP_WITH_TRANSFORMATION ( #43 )SHAPE_REPRESENTATION_RELATIONSHIP( ) );
#62 = PLANE ( 'NONE',  #22 ) ;
#63 = MECHANICAL_DESIGN_GEOMETRIC_PRESENTATION_REPRESENTATION (  '', ( #40 ), #17 ) ;
#64 = FILL_AREA_STYLE ('',( #18 ) ) ;
#65 = EDGE_CURVE ( 'NONE', #73, #73, #117, .T. ) ;
#66 = SHAPE_DEFINITION_REPRESENTATION ( #77, #103 ) ;
#67 = PRODUCT_DEFINITION_CONTEXT ( 'detailed design', #94, 'design' ) ;
#68 = APPLICATION_PROTOCOL_DEFINITION ( 'draft international standard', 'automotive_design', 1998, #123 ) ;
#69 = DIRECTION ( 'NONE',  ( 0.000000000000000000, 0.000000000000000000, -1.000000000000000000 ) ) ;
#70 = UNCERTAINTY_MEASURE_WITH_UNIT (LENGTH_MEASURE( 1.000000000000000082E-05 ), #3, 'distance_accuracy_value', 'NONE');
#71 = DIRECTION ( 'NONE',  ( 0.000000000000000000, 1.000000000000000000, 0.000000000000000000 ) ) ;
#72 = PRODUCT_RELATED_PRODUCT_CATEGORY ( 'part', '', ( #34 ) ) ;
#73 = VERTEX_POINT ( 'NONE', #129 ) ;
#74 = COLOUR_RGB ( '',0.7921568627450980005, 0.8196078431372548767, 0.9333333333333333481 ) ;
#75 = CARTESIAN_POINT ( 'NONE',  ( 0.000000000000000000, 100.0000000000000000, 0.000000000000000000 ) ) ;
#76 = DIRECTION ( 'NONE',  ( 0.000000000000000000, 0.000000000000000000, 1.000000000000000000 ) ) ;
#77 = PRODUCT_DEFINITION_SHAPE ( 'NONE', 'NONE',  #114 ) ;
#78 = CARTESIAN_POINT ( 'NONE',  ( 129.8588026547804475, -29.07840402331203578, -68.52472038008272648 ) ) ;
#79 = DIRECTION ( 'NONE',  ( 0.000000000000000000, 0.000000000000000000, 1.000000000000000000 ) ) ;
#80 = PLANE ( 'NONE',  #41 ) ;
#81 = DIRECTION ( 'NONE',  ( 0.000000000000000000, 0.000000000000000000, 1.000000000000000000 ) ) ;
#82 = SURFACE_STYLE_FILL_AREA ( #64 ) ;
#83 =( NAMED_UNIT ( * ) PLANE_ANGLE_UNIT ( ) SI_UNIT ( $, .RADIAN. ) );
#84 = PRODUCT_RELATED_PRODUCT_CATEGORY ( 'part', '', ( #42 ) ) ;
#85 = AXIS2_PLACEMENT_3D ( 'NONE', #25, #91, #81 ) ;
#86 = CARTESIAN_POINT ( 'NONE',  ( 0.000000000000000000, 0.000000000000000000, 0.000000000000000000 ) ) ;
#87 = DIRECTION ( 'NONE',  ( 0.000000000000000000, 0.000000000000000000, 1.000000000000000000 ) ) ;
#88 = CONTEXT_DEPENDENT_SHAPE_REPRESENTATION ( #90, #30 ) ;
#89 = ADVANCED_FACE ( 'NONE', ( #109 ), #62, .F. ) ;
#90 =( REPRESENTATION_RELATIONSHIP ('NONE','NONE', #102, #103 ) REPRESENTATION_RELATIONSHIP_WITH_TRANSFORMATION ( #59 )SHAPE_REPRESENTATION_RELATIONSHIP( ) );
#91 = DIRECTION ( 'NONE',  ( 0.000000000000000000, 1.000000000000000000, 0.000000000000000000 ) ) ;
#92 = CARTESIAN_POINT ( 'NONE',  ( 0.000000000000000000, 100.0000000000000000, 0.000000000000000000 ) ) ;
#93 = AXIS2_PLACEMENT_3D ( 'NONE', #5, #4, #106 ) ;
#94 = APPLICATION_CONTEXT ( 'automotive_design' ) ;
#95 = VERTEX_POINT ( 'NONE', #10 ) ;
#96 =( NAMED_UNIT ( * ) SI_UNIT ( $, .STERADIAN. ) SOLID_ANGLE_UNIT ( ) );
#97 = CARTESIAN_POINT ( 'NONE',  ( 0.000000000000000000, 0.000000000000000000, 0.000000000000000000 ) ) ;
#98 =( NAMED_UNIT ( * ) PLANE_ANGLE_UNIT ( ) SI_UNIT ( $, .RADIAN. ) );
#99 = CIRCLE ( 'NONE', #85, 50.00000000000000000 ) ;
#100 = SURFACE_SIDE_STYLE ('',( #82 ) ) ;
#101 = ORIENTED_EDGE ( 'NONE', *, *, #65, .T. ) ;
#102 = SHAPE_REPRESENTATION ( 'C4_component_override_2__vis_app0', ( #29, #93, #1 ), #112 ) ;
#103 = SHAPE_REPRESENTATION ( 'C4_part_1', ( #36 ), #20 ) ;
#104 = APPLICATION_PROTOCOL_DEFINITION ( 'draft international standard', 'automotive_design', 1998, #11 ) ;
#105 = PRODUCT_DEFINITION_FORMATION_WITH_SPECIFIED_SOURCE ( 'ANY', '', #34, .NOT_KNOWN. ) ;
#106 = DIRECTION ( 'NONE',  ( 1.000000000000000000, 0.000000000000000000, 0.000000000000000000 ) ) ;
#107 = ORIENTED_EDGE ( 'NONE', *, *, #65, .F. ) ;
#108 = EDGE_LOOP ( 'NONE', ( #37 ) ) ;
#109 = FACE_OUTER_BOUND ( 'NONE', #15, .T. ) ;
#110 = SHAPE_REPRESENTATION_RELATIONSHIP ( 'NONE' , 'NONE' ,  #103, #48 ) ;
#111 =( LENGTH_UNIT ( ) NAMED_UNIT ( * ) SI_UNIT ( .MILLI., .METRE. ) );
#112 =( GEOMETRIC_REPRESENTATION_CONTEXT ( 3 ) GLOBAL_UNCERTAINTY_ASSIGNED_CONTEXT ( ( #50 ) ) GLOBAL_UNIT_ASSIGNED_CONTEXT ( ( #115, #98, #125 ) ) REPRESENTATION_CONTEXT ( 'NONE', 'WORKASPACE' ) );
#113 = DIRECTION ( 'NONE',  ( 1.000000000000000000, 0.000000000000000000, 0.000000000000000000 ) ) ;
#114 = PRODUCT_DEFINITION ( 'UNKNOWN', '', #105, #127 ) ;
#115 =( LENGTH_UNIT ( ) NAMED_UNIT ( * ) SI_UNIT ( .MILLI., .METRE. ) );
#116 = AXIS2_PLACEMENT_3D ( 'NONE', #75, #71, #19 ) ;
#117 = CIRCLE ( 'NONE', #116, 50.00000000000000000 ) ;
#118 = CARTESIAN_POINT ( 'NONE',  ( 0.000000000000000000, 100.0000000000000000, 0.000000000000000000 ) ) ;
#119 = EDGE_LOOP ( 'NONE', ( #101 ) ) ;
#120 = MANIFOLD_SOLID_BREP ( 'Boss-Extrude1', #55 ) ;
#121 = SURFACE_STYLE_USAGE ( .BOTH. , #100 ) ;
#122 =( NAMED_UNIT ( * ) PLANE_ANGLE_UNIT ( ) SI_UNIT ( $, .RADIAN. ) );
#123 = APPLICATION_CONTEXT ( 'automotive_design' ) ;
#124 = APPLICATION_CONTEXT ( 'automotive_design' ) ;
#125 =( NAMED_UNIT ( * ) SI_UNIT ( $, .STERADIAN. ) SOLID_ANGLE_UNIT ( ) );
#126 = AXIS2_PLACEMENT_3D ( 'NONE', #92, #23, #69 ) ;
#127 = PRODUCT_DEFINITION_CONTEXT ( 'detailed design', #124, 'design' ) ;
#128 = CARTESIAN_POINT ( 'NONE',  ( 0.000000000000000000, 0.000000000000000000, 0.000000000000000000 ) ) ;
#129 = CARTESIAN_POINT ( 'NONE',  ( 0.000000000000000000, 100.0000000000000000, 50.00000000000000000 ) ) ;
#130 = NEXT_ASSEMBLY_USAGE_OCCURRENCE ( 'NAUO1', ' ', ' ', #53, #114, $ ) ;
#131 = NEXT_ASSEMBLY_USAGE_OCCURRENCE ( 'NAUO2', ' ', ' ', #53, #114, $ ) ;
ENDSEC;
END-ISO-10303-21;
