ISO-10303-21;
HEADER;
FILE_DESCRIPTION (( 'STEP AP214' ),
    '1' );
FILE_NAME ('C4_component_override_1__hid_app0.step',
    '2026-08-06T17:07:58',
    ( 'info@peak-design.co.uk' ),
    ( '' ),
    'SwSTEP 2.0',
    'SolidWorks 2026',
    '' );
FILE_SCHEMA (( 'AUTOMOTIVE_DESIGN' ));
ENDSEC;

DATA;
#1 = CARTESIAN_POINT ( 'NONE',  ( 0.000000000000000000, 0.000000000000000000, 50.00000000000000000 ) ) ;
#2 = AXIS2_PLACEMENT_3D ( 'NONE', #116, #11, #86 ) ;
#3 = PRODUCT_RELATED_PRODUCT_CATEGORY ( 'part', '', ( #51 ) ) ;
#4 = UNCERTAINTY_MEASURE_WITH_UNIT (LENGTH_MEASURE( 1.000000000000000082E-05 ), #37, 'distance_accuracy_value', 'NONE');
#5 = EDGE_CURVE ( 'NONE', #78, #78, #105, .T. ) ;
#6 = FACE_OUTER_BOUND ( 'NONE', #15, .T. ) ;
#7 = ORIENTED_EDGE ( 'NONE', *, *, #5, .T. ) ;
#8 = PLANE ( 'NONE',  #109 ) ;
#9 = DIRECTION ( 'NONE',  ( 0.000000000000000000, -0.000000000000000000, 1.000000000000000000 ) ) ;
#10 = APPLICATION_CONTEXT ( 'automotive_design' ) ;
#11 = DIRECTION ( 'NONE',  ( 0.000000000000000000, 1.000000000000000000, 0.000000000000000000 ) ) ;
#12 = SHAPE_REPRESENTATION_RELATIONSHIP ( 'NONE' , 'NONE' ,  #79, #39 ) ;
#13 = PRODUCT_DEFINITION_FORMATION_WITH_SPECIFIED_SOURCE ( 'ANY', '', #51, .NOT_KNOWN. ) ;
#14 = DIRECTION ( 'NONE',  ( -0.000000000000000000, -1.000000000000000000, -0.000000000000000000 ) ) ;
#15 = EDGE_LOOP ( 'NONE', ( #7 ) ) ;
#16 = APPLICATION_PROTOCOL_DEFINITION ( 'draft international standard', 'automotive_design', 1998, #74 ) ;
#17 = DIRECTION ( 'NONE',  ( 0.000000000000000000, 0.000000000000000000, 1.000000000000000000 ) ) ;
#18 = DIRECTION ( 'NONE',  ( 1.000000000000000000, 0.000000000000000000, 0.000000000000000000 ) ) ;
#19 = CARTESIAN_POINT ( 'NONE',  ( 0.000000000000000000, 100.0000000000000000, 50.00000000000000000 ) ) ;
#20 = DIRECTION ( 'NONE',  ( 1.000000000000000000, 0.000000000000000000, 0.000000000000000000 ) ) ;
#21 = PRODUCT_DEFINITION_SHAPE ( 'NONE', 'NONE',  #27 ) ;
#22 = APPLICATION_CONTEXT ( 'automotive_design' ) ;
#23 = MECHANICAL_DESIGN_GEOMETRIC_PRESENTATION_REPRESENTATION (  '', ( #38 ), #93 ) ;
#24 = PRESENTATION_LAYER_ASSIGNMENT (  '', '', ( #38 ) ) ;
#25 = CARTESIAN_POINT ( 'NONE',  ( 0.000000000000000000, 0.000000000000000000, 0.000000000000000000 ) ) ;
#26 = EDGE_LOOP ( 'NONE', ( #43 ) ) ;
#27 = PRODUCT_DEFINITION ( 'UNKNOWN', '', #13, #50 ) ;
#28 = DIRECTION ( 'NONE',  ( 0.000000000000000000, 0.000000000000000000, -1.000000000000000000 ) ) ;
#29 = CARTESIAN_POINT ( 'NONE',  ( 0.000000000000000000, 0.000000000000000000, 0.000000000000000000 ) ) ;
#30 = DIRECTION ( 'NONE',  ( 0.000000000000000000, 0.000000000000000000, 1.000000000000000000 ) ) ;
#31 = MANIFOLD_SOLID_BREP ( 'Boss-Extrude1', #33 ) ;
#32 = AXIS2_PLACEMENT_3D ( 'NONE', #106, #120, #20 ) ;
#33 = CLOSED_SHELL ( 'NONE', ( #65, #95, #55 ) ) ;
#34 = SURFACE_SIDE_STYLE ('',( #92 ) ) ;
#35 = AXIS2_PLACEMENT_3D ( 'NONE', #98, #46, #18 ) ;
#36 = PLANE ( 'NONE',  #108 ) ;
#37 =( LENGTH_UNIT ( ) NAMED_UNIT ( * ) SI_UNIT ( .MILLI., .METRE. ) );
#38 = STYLED_ITEM ( 'NONE', ( #83 ), #31 ) ;
#39 = ADVANCED_BREP_SHAPE_REPRESENTATION ( '', ( #31, #69 ), #53 ) ;
#40 = CYLINDRICAL_SURFACE ( 'NONE', #41, 50.00000000000000000 ) ;
#41 = AXIS2_PLACEMENT_3D ( 'NONE', #117, #14, #28 ) ;
#42 = ORIENTED_EDGE ( 'NONE', *, *, #89, .F. ) ;
#43 = ORIENTED_EDGE ( 'NONE', *, *, #89, .T. ) ;
#44 = SHAPE_DEFINITION_REPRESENTATION ( #21, #72 ) ;
#45 = DIRECTION ( 'NONE',  ( 0.000000000000000000, 1.000000000000000000, 0.000000000000000000 ) ) ;
#46 = DIRECTION ( 'NONE',  ( 0.000000000000000000, 0.000000000000000000, 1.000000000000000000 ) ) ;
#47 = PRODUCT ( 'C4_part_1', 'C4_part_1', '', ( #113 ) ) ;
#48 =( NAMED_UNIT ( * ) SI_UNIT ( $, .STERADIAN. ) SOLID_ANGLE_UNIT ( ) );
#49 = AXIS2_PLACEMENT_3D ( 'NONE', #71, #110, #82 ) ;
#50 = PRODUCT_DEFINITION_CONTEXT ( 'detailed design', #22, 'design' ) ;
#51 = PRODUCT ( 'C4_component_override_1__hid_app0', 'C4_component_override_1__hid_app0', '', ( #66 ) ) ;
#52 = FACE_OUTER_BOUND ( 'NONE', #88, .T. ) ;
#53 =( GEOMETRIC_REPRESENTATION_CONTEXT ( 3 ) GLOBAL_UNCERTAINTY_ASSIGNED_CONTEXT ( ( #90 ) ) GLOBAL_UNIT_ASSIGNED_CONTEXT ( ( #121, #77, #48 ) ) REPRESENTATION_CONTEXT ( 'NONE', 'WORKASPACE' ) );
#54 = APPLICATION_CONTEXT ( 'automotive_design' ) ;
#55 = ADVANCED_FACE ( 'NONE', ( #57 ), #8, .F. ) ;
#56 =( NAMED_UNIT ( * ) SI_UNIT ( $, .STERADIAN. ) SOLID_ANGLE_UNIT ( ) );
#57 = FACE_OUTER_BOUND ( 'NONE', #118, .T. ) ;
#58 = VERTEX_POINT ( 'NONE', #19 ) ;
#59 = CARTESIAN_POINT ( 'NONE',  ( 0.000000000000000000, 0.000000000000000000, 0.000000000000000000 ) ) ;
#60 = SHAPE_DEFINITION_REPRESENTATION ( #99, #79 ) ;
#61 = PRODUCT_RELATED_PRODUCT_CATEGORY ( 'part', '', ( #47 ) ) ;
#62 = PRODUCT_DEFINITION_CONTEXT ( 'detailed design', #10, 'design' ) ;
#63 =( NAMED_UNIT ( * ) PLANE_ANGLE_UNIT ( ) SI_UNIT ( $, .RADIAN. ) );
#64 =( LENGTH_UNIT ( ) NAMED_UNIT ( * ) SI_UNIT ( .MILLI., .METRE. ) );
#65 = ADVANCED_FACE ( 'NONE', ( #52, #6 ), #40, .T. ) ;
#66 = PRODUCT_CONTEXT ( 'NONE', #54, 'mechanical' ) ;
#67 = APPLICATION_PROTOCOL_DEFINITION ( 'draft international standard', 'automotive_design', 1998, #22 ) ;
#68 = DIRECTION ( 'NONE',  ( 1.000000000000000000, 0.000000000000000000, 0.000000000000000000 ) ) ;
#69 = AXIS2_PLACEMENT_3D ( 'NONE', #59, #30, #68 ) ;
#70 = APPLICATION_PROTOCOL_DEFINITION ( 'draft international standard', 'automotive_design', 1998, #10 ) ;
#71 = CARTESIAN_POINT ( 'NONE',  ( 0.000000000000000000, 0.000000000000000000, 0.000000000000000000 ) ) ;
#72 = SHAPE_REPRESENTATION ( 'C4_component_override_1__hid_app0', ( #35, #32 ), #114 ) ;
#73 = APPLICATION_PROTOCOL_DEFINITION ( 'draft international standard', 'automotive_design', 1998, #54 ) ;
#74 = APPLICATION_CONTEXT ( 'automotive_design' ) ;
#75 =( NAMED_UNIT ( * ) PLANE_ANGLE_UNIT ( ) SI_UNIT ( $, .RADIAN. ) );
#76 = PRODUCT_DEFINITION_FORMATION_WITH_SPECIFIED_SOURCE ( 'ANY', '', #47, .NOT_KNOWN. ) ;
#77 =( NAMED_UNIT ( * ) PLANE_ANGLE_UNIT ( ) SI_UNIT ( $, .RADIAN. ) );
#78 = VERTEX_POINT ( 'NONE', #1 ) ;
#79 = SHAPE_REPRESENTATION ( 'C4_part_1', ( #69 ), #53 ) ;
#80 = PRODUCT_DEFINITION_SHAPE ( 'NONE', 'NONE',  #122 ) ;
#81 = SURFACE_STYLE_USAGE ( .BOTH. , #34 ) ;
#82 = DIRECTION ( 'NONE',  ( 0.000000000000000000, 0.000000000000000000, 1.000000000000000000 ) ) ;
#83 = PRESENTATION_STYLE_ASSIGNMENT (( #81 ) ) ;
#84 = DIRECTION ( 'NONE',  ( 0.000000000000000000, 1.000000000000000000, 0.000000000000000000 ) ) ;
#85 = FACE_OUTER_BOUND ( 'NONE', #26, .T. ) ;
#86 = DIRECTION ( 'NONE',  ( 0.000000000000000000, 0.000000000000000000, 1.000000000000000000 ) ) ;
#87 = CONTEXT_DEPENDENT_SHAPE_REPRESENTATION ( #119, #80 ) ;
#88 = EDGE_LOOP ( 'NONE', ( #42 ) ) ;
#89 = EDGE_CURVE ( 'NONE', #58, #58, #102, .T. ) ;
#90 = UNCERTAINTY_MEASURE_WITH_UNIT (LENGTH_MEASURE( 1.000000000000000082E-05 ), #121, 'distance_accuracy_value', 'NONE');
#91 = FILL_AREA_STYLE_COLOUR ( '', #115 ) ;
#92 = SURFACE_STYLE_FILL_AREA ( #111 ) ;
#93 =( GEOMETRIC_REPRESENTATION_CONTEXT ( 3 ) GLOBAL_UNCERTAINTY_ASSIGNED_CONTEXT ( ( #112 ) ) GLOBAL_UNIT_ASSIGNED_CONTEXT ( ( #64, #63, #56 ) ) REPRESENTATION_CONTEXT ( 'NONE', 'WORKASPACE' ) );
#94 = CARTESIAN_POINT ( 'NONE',  ( 0.000000000000000000, 100.0000000000000000, 0.000000000000000000 ) ) ;
#95 = ADVANCED_FACE ( 'NONE', ( #85 ), #36, .T. ) ;
#96 = DIRECTION ( 'NONE',  ( 1.000000000000000000, 0.000000000000000000, 0.000000000000000000 ) ) ;
#97 = AXIS2_PLACEMENT_3D ( 'NONE', #29, #17, #96 ) ;
#98 = CARTESIAN_POINT ( 'NONE',  ( 0.000000000000000000, 0.000000000000000000, 0.000000000000000000 ) ) ;
#99 = PRODUCT_DEFINITION_SHAPE ( 'NONE', 'NONE',  #101 ) ;
#100 =( NAMED_UNIT ( * ) SI_UNIT ( $, .STERADIAN. ) SOLID_ANGLE_UNIT ( ) );
#101 = PRODUCT_DEFINITION ( 'UNKNOWN', '', #76, #62 ) ;
#102 = CIRCLE ( 'NONE', #2, 50.00000000000000000 ) ;
#103 = DIRECTION ( 'NONE',  ( 0.000000000000000000, -0.000000000000000000, 1.000000000000000000 ) ) ;
#104 = ORIENTED_EDGE ( 'NONE', *, *, #5, .F. ) ;
#105 = CIRCLE ( 'NONE', #49, 50.00000000000000000 ) ;
#106 = CARTESIAN_POINT ( 'NONE',  ( 0.000000000000000000, 0.000000000000000000, 0.000000000000000000 ) ) ;
#107 = ITEM_DEFINED_TRANSFORMATION ( 'NONE', 'NONE', #32,  #69 ) ;
#108 = AXIS2_PLACEMENT_3D ( 'NONE', #94, #45, #9 ) ;
#109 = AXIS2_PLACEMENT_3D ( 'NONE', #25, #84, #103 ) ;
#110 = DIRECTION ( 'NONE',  ( 0.000000000000000000, 1.000000000000000000, 0.000000000000000000 ) ) ;
#111 = FILL_AREA_STYLE ('',( #91 ) ) ;
#112 = UNCERTAINTY_MEASURE_WITH_UNIT (LENGTH_MEASURE( 1.000000000000000082E-05 ), #64, 'distance_accuracy_value', 'NONE');
#113 = PRODUCT_CONTEXT ( 'NONE', #74, 'mechanical' ) ;
#114 =( GEOMETRIC_REPRESENTATION_CONTEXT ( 3 ) GLOBAL_UNCERTAINTY_ASSIGNED_CONTEXT ( ( #4 ) ) GLOBAL_UNIT_ASSIGNED_CONTEXT ( ( #37, #75, #100 ) ) REPRESENTATION_CONTEXT ( 'NONE', 'WORKASPACE' ) );
#115 = COLOUR_RGB ( '',0.7921568627450980005, 0.8196078431372548767, 0.9333333333333333481 ) ;
#116 = CARTESIAN_POINT ( 'NONE',  ( 0.000000000000000000, 100.0000000000000000, 0.000000000000000000 ) ) ;
#117 = CARTESIAN_POINT ( 'NONE',  ( 0.000000000000000000, 100.0000000000000000, 0.000000000000000000 ) ) ;
#118 = EDGE_LOOP ( 'NONE', ( #104 ) ) ;
#119 =( REPRESENTATION_RELATIONSHIP ('NONE','NONE', #72, #79 ) REPRESENTATION_RELATIONSHIP_WITH_TRANSFORMATION ( #107 )SHAPE_REPRESENTATION_RELATIONSHIP( ) );
#120 = DIRECTION ( 'NONE',  ( 0.000000000000000000, 0.000000000000000000, 1.000000000000000000 ) ) ;
#121 =( LENGTH_UNIT ( ) NAMED_UNIT ( * ) SI_UNIT ( .MILLI., .METRE. ) );
#122 = NEXT_ASSEMBLY_USAGE_OCCURRENCE ( 'NAUO1', ' ', ' ', #27, #101, $ ) ;
ENDSEC;
END-ISO-10303-21;
