ISO-10303-21;
HEADER;
FILE_DESCRIPTION (( 'STEP AP214' ),
    '1' );
FILE_NAME ('C4_component_override_1__hid_app1.step',
    '2026-08-06T17:07:58',
    ( 'info@peak-design.co.uk' ),
    ( '' ),
    'SwSTEP 2.0',
    'SolidWorks 2026',
    '' );
FILE_SCHEMA (( 'AUTOMOTIVE_DESIGN' ));
ENDSEC;

DATA;
#1 = CARTESIAN_POINT ( 'NONE',  ( 0.000000000000000000, 0.000000000000000000, 50.00000000000000000 ) ) ;
#2 = STYLED_ITEM ( 'NONE', ( #47 ), #78 ) ;
#3 = DIRECTION ( 'NONE',  ( 0.000000000000000000, 0.000000000000000000, 1.000000000000000000 ) ) ;
#4 = ADVANCED_FACE ( 'NONE', ( #126 ), #99, .T. ) ;
#5 = CARTESIAN_POINT ( 'NONE',  ( 0.000000000000000000, 100.0000000000000000, 0.000000000000000000 ) ) ;
#6 = PLANE ( 'NONE',  #124 ) ;
#7 = SURFACE_STYLE_USAGE ( .BOTH. , #118 ) ;
#8 = FILL_AREA_STYLE_COLOUR ( '', #107 ) ;
#9 = DIRECTION ( 'NONE',  ( 0.000000000000000000, 1.000000000000000000, 0.000000000000000000 ) ) ;
#10 = DIRECTION ( 'NONE',  ( 0.000000000000000000, 0.000000000000000000, 1.000000000000000000 ) ) ;
#11 = SURFACE_SIDE_STYLE ('',( #119 ) ) ;
#12 = AXIS2_PLACEMENT_3D ( 'NONE', #5, #55, #16 ) ;
#13 = CONTEXT_DEPENDENT_SHAPE_REPRESENTATION ( #18, #87 ) ;
#14 = ORIENTED_EDGE ( 'NONE', *, *, #84, .F. ) ;
#15 = DIRECTION ( 'NONE',  ( -0.000000000000000000, -1.000000000000000000, -0.000000000000000000 ) ) ;
#16 = DIRECTION ( 'NONE',  ( 0.000000000000000000, -0.000000000000000000, 1.000000000000000000 ) ) ;
#17 =( NAMED_UNIT ( * ) PLANE_ANGLE_UNIT ( ) SI_UNIT ( $, .RADIAN. ) );
#18 =( REPRESENTATION_RELATIONSHIP ('NONE','NONE', #28, #104 ) REPRESENTATION_RELATIONSHIP_WITH_TRANSFORMATION ( #77 )SHAPE_REPRESENTATION_RELATIONSHIP( ) );
#19 = PRESENTATION_STYLE_ASSIGNMENT (( #40 ) ) ;
#20 = MECHANICAL_DESIGN_GEOMETRIC_PRESENTATION_REPRESENTATION (  '', ( #2 ), #89 ) ;
#21 = PRODUCT ( 'C4_part_1', 'C4_part_1', '', ( #110 ) ) ;
#22 = AXIS2_PLACEMENT_3D ( 'NONE', #31, #9, #72 ) ;
#23 = CARTESIAN_POINT ( 'NONE',  ( 0.000000000000000000, 0.000000000000000000, 0.000000000000000000 ) ) ;
#24 = EDGE_LOOP ( 'NONE', ( #25 ) ) ;
#25 = ORIENTED_EDGE ( 'NONE', *, *, #134, .F. ) ;
#26 = PRODUCT_DEFINITION_FORMATION_WITH_SPECIFIED_SOURCE ( 'ANY', '', #54, .NOT_KNOWN. ) ;
#27 = DIRECTION ( 'NONE',  ( 0.000000000000000000, 1.000000000000000000, 0.000000000000000000 ) ) ;
#28 = SHAPE_REPRESENTATION ( 'C4_component_override_1__hid_app1', ( #116, #44 ), #85 ) ;
#29 = PRODUCT_DEFINITION ( 'UNKNOWN', '', #26, #96 ) ;
#30 = CARTESIAN_POINT ( 'NONE',  ( 0.000000000000000000, 100.0000000000000000, 50.00000000000000000 ) ) ;
#31 = CARTESIAN_POINT ( 'NONE',  ( 0.000000000000000000, 100.0000000000000000, 0.000000000000000000 ) ) ;
#32 = SHAPE_REPRESENTATION_RELATIONSHIP ( 'NONE' , 'NONE' ,  #104, #114 ) ;
#33 = CARTESIAN_POINT ( 'NONE',  ( 0.000000000000000000, 0.000000000000000000, 0.000000000000000000 ) ) ;
#34 = APPLICATION_PROTOCOL_DEFINITION ( 'draft international standard', 'automotive_design', 1998, #128 ) ;
#35 = PRODUCT_CONTEXT ( 'NONE', #92, 'mechanical' ) ;
#36 = FACE_OUTER_BOUND ( 'NONE', #24, .T. ) ;
#37 = ORIENTED_EDGE ( 'NONE', *, *, #84, .T. ) ;
#38 =( LENGTH_UNIT ( ) NAMED_UNIT ( * ) SI_UNIT ( .MILLI., .METRE. ) );
#39 = APPLICATION_CONTEXT ( 'automotive_design' ) ;
#40 = SURFACE_STYLE_USAGE ( .BOTH. , #11 ) ;
#41 = MECHANICAL_DESIGN_GEOMETRIC_PRESENTATION_REPRESENTATION (  '', ( #75 ), #123 ) ;
#42 = DIRECTION ( 'NONE',  ( 0.000000000000000000, 0.000000000000000000, 1.000000000000000000 ) ) ;
#43 =( NAMED_UNIT ( * ) SI_UNIT ( $, .STERADIAN. ) SOLID_ANGLE_UNIT ( ) );
#44 = AXIS2_PLACEMENT_3D ( 'NONE', #33, #73, #122 ) ;
#45 = EDGE_LOOP ( 'NONE', ( #37 ) ) ;
#46 = FILL_AREA_STYLE_COLOUR ( '', #129 ) ;
#47 = PRESENTATION_STYLE_ASSIGNMENT (( #7 ) ) ;
#48 = VERTEX_POINT ( 'NONE', #30 ) ;
#49 = AXIS2_PLACEMENT_3D ( 'NONE', #93, #86, #61 ) ;
#50 = PRODUCT_DEFINITION_SHAPE ( 'NONE', 'NONE',  #29 ) ;
#51 = SHAPE_DEFINITION_REPRESENTATION ( #50, #28 ) ;
#52 = CIRCLE ( 'NONE', #22, 50.00000000000000000 ) ;
#53 = PRODUCT_DEFINITION ( 'UNKNOWN', '', #68, #79 ) ;
#54 = PRODUCT ( 'C4_component_override_1__hid_app1', 'C4_component_override_1__hid_app1', '', ( #35 ) ) ;
#55 = DIRECTION ( 'NONE',  ( 0.000000000000000000, 1.000000000000000000, 0.000000000000000000 ) ) ;
#56 = EDGE_LOOP ( 'NONE', ( #70 ) ) ;
#57 =( GEOMETRIC_REPRESENTATION_CONTEXT ( 3 ) GLOBAL_UNCERTAINTY_ASSIGNED_CONTEXT ( ( #67 ) ) GLOBAL_UNIT_ASSIGNED_CONTEXT ( ( #94, #136, #130 ) ) REPRESENTATION_CONTEXT ( 'NONE', 'WORKASPACE' ) );
#58 = ADVANCED_FACE ( 'NONE', ( #102 ), #6, .F. ) ;
#59 = DIRECTION ( 'NONE',  ( 0.000000000000000000, 0.000000000000000000, -1.000000000000000000 ) ) ;
#60 = DIRECTION ( 'NONE',  ( 0.000000000000000000, -0.000000000000000000, 1.000000000000000000 ) ) ;
#61 = DIRECTION ( 'NONE',  ( 1.000000000000000000, 0.000000000000000000, 0.000000000000000000 ) ) ;
#62 = DIRECTION ( 'NONE',  ( 0.000000000000000000, 1.000000000000000000, 0.000000000000000000 ) ) ;
#63 =( LENGTH_UNIT ( ) NAMED_UNIT ( * ) SI_UNIT ( .MILLI., .METRE. ) );
#64 = AXIS2_PLACEMENT_3D ( 'NONE', #106, #10, #83 ) ;
#65 = AXIS2_PLACEMENT_3D ( 'NONE', #117, #15, #59 ) ;
#66 =( LENGTH_UNIT ( ) NAMED_UNIT ( * ) SI_UNIT ( .MILLI., .METRE. ) );
#67 = UNCERTAINTY_MEASURE_WITH_UNIT (LENGTH_MEASURE( 1.000000000000000082E-05 ), #94, 'distance_accuracy_value', 'NONE');
#68 = PRODUCT_DEFINITION_FORMATION_WITH_SPECIFIED_SOURCE ( 'ANY', '', #21, .NOT_KNOWN. ) ;
#69 = SURFACE_STYLE_FILL_AREA ( #91 ) ;
#70 = ORIENTED_EDGE ( 'NONE', *, *, #134, .T. ) ;
#71 = ADVANCED_FACE ( 'NONE', ( #36, #88 ), #82, .T. ) ;
#72 = DIRECTION ( 'NONE',  ( 0.000000000000000000, 0.000000000000000000, 1.000000000000000000 ) ) ;
#73 = DIRECTION ( 'NONE',  ( 0.000000000000000000, 0.000000000000000000, 1.000000000000000000 ) ) ;
#74 = DIRECTION ( 'NONE',  ( 1.000000000000000000, 0.000000000000000000, 0.000000000000000000 ) ) ;
#75 = STYLED_ITEM ( 'NONE', ( #19 ), #114 ) ;
#76 = SHAPE_DEFINITION_REPRESENTATION ( #109, #104 ) ;
#77 = ITEM_DEFINED_TRANSFORMATION ( 'NONE', 'NONE', #44,  #49 ) ;
#78 = MANIFOLD_SOLID_BREP ( 'Boss-Extrude1', #103 ) ;
#79 = PRODUCT_DEFINITION_CONTEXT ( 'detailed design', #39, 'design' ) ;
#80 = PRESENTATION_LAYER_ASSIGNMENT (  '', '', ( #2 ) ) ;
#81 = UNCERTAINTY_MEASURE_WITH_UNIT (LENGTH_MEASURE( 1.000000000000000082E-05 ), #66, 'distance_accuracy_value', 'NONE');
#82 = CYLINDRICAL_SURFACE ( 'NONE', #65, 50.00000000000000000 ) ;
#83 = DIRECTION ( 'NONE',  ( 1.000000000000000000, 0.000000000000000000, 0.000000000000000000 ) ) ;
#84 = EDGE_CURVE ( 'NONE', #105, #105, #111, .T. ) ;
#85 =( GEOMETRIC_REPRESENTATION_CONTEXT ( 3 ) GLOBAL_UNCERTAINTY_ASSIGNED_CONTEXT ( ( #81 ) ) GLOBAL_UNIT_ASSIGNED_CONTEXT ( ( #66, #112, #43 ) ) REPRESENTATION_CONTEXT ( 'NONE', 'WORKASPACE' ) );
#86 = DIRECTION ( 'NONE',  ( 0.000000000000000000, 0.000000000000000000, 1.000000000000000000 ) ) ;
#87 = PRODUCT_DEFINITION_SHAPE ( 'NONE', 'NONE',  #137 ) ;
#88 = FACE_OUTER_BOUND ( 'NONE', #45, .T. ) ;
#89 =( GEOMETRIC_REPRESENTATION_CONTEXT ( 3 ) GLOBAL_UNCERTAINTY_ASSIGNED_CONTEXT ( ( #133 ) ) GLOBAL_UNIT_ASSIGNED_CONTEXT ( ( #38, #17, #127 ) ) REPRESENTATION_CONTEXT ( 'NONE', 'WORKASPACE' ) );
#90 = EDGE_LOOP ( 'NONE', ( #14 ) ) ;
#91 = FILL_AREA_STYLE ('',( #46 ) ) ;
#92 = APPLICATION_CONTEXT ( 'automotive_design' ) ;
#93 = CARTESIAN_POINT ( 'NONE',  ( 0.000000000000000000, 0.000000000000000000, 0.000000000000000000 ) ) ;
#94 =( LENGTH_UNIT ( ) NAMED_UNIT ( * ) SI_UNIT ( .MILLI., .METRE. ) );
#95 = APPLICATION_PROTOCOL_DEFINITION ( 'draft international standard', 'automotive_design', 1998, #135 ) ;
#96 = PRODUCT_DEFINITION_CONTEXT ( 'detailed design', #135, 'design' ) ;
#97 = CARTESIAN_POINT ( 'NONE',  ( 0.000000000000000000, 0.000000000000000000, 0.000000000000000000 ) ) ;
#98 = PRESENTATION_LAYER_ASSIGNMENT (  '', '', ( #75 ) ) ;
#99 = PLANE ( 'NONE',  #12 ) ;
#100 = PRODUCT_RELATED_PRODUCT_CATEGORY ( 'part', '', ( #21 ) ) ;
#101 = CARTESIAN_POINT ( 'NONE',  ( 0.000000000000000000, 0.000000000000000000, 0.000000000000000000 ) ) ;
#102 = FACE_OUTER_BOUND ( 'NONE', #90, .T. ) ;
#103 = CLOSED_SHELL ( 'NONE', ( #71, #4, #58 ) ) ;
#104 = SHAPE_REPRESENTATION ( 'C4_part_1', ( #49 ), #57 ) ;
#105 = VERTEX_POINT ( 'NONE', #1 ) ;
#106 = CARTESIAN_POINT ( 'NONE',  ( 0.000000000000000000, 0.000000000000000000, 0.000000000000000000 ) ) ;
#107=COLOUR_RGB('',0.909803921568627,0.443137254901961,0.0313725490196078);
#108 =( NAMED_UNIT ( * ) PLANE_ANGLE_UNIT ( ) SI_UNIT ( $, .RADIAN. ) );
#109 = PRODUCT_DEFINITION_SHAPE ( 'NONE', 'NONE',  #53 ) ;
#110 = PRODUCT_CONTEXT ( 'NONE', #128, 'mechanical' ) ;
#111 = CIRCLE ( 'NONE', #120, 50.00000000000000000 ) ;
#112 =( NAMED_UNIT ( * ) PLANE_ANGLE_UNIT ( ) SI_UNIT ( $, .RADIAN. ) );
#113 = APPLICATION_PROTOCOL_DEFINITION ( 'draft international standard', 'automotive_design', 1998, #92 ) ;
#114 = ADVANCED_BREP_SHAPE_REPRESENTATION ( '', ( #78, #49 ), #57 ) ;
#115 = APPLICATION_PROTOCOL_DEFINITION ( 'draft international standard', 'automotive_design', 1998, #39 ) ;
#116 = AXIS2_PLACEMENT_3D ( 'NONE', #23, #3, #74 ) ;
#117 = CARTESIAN_POINT ( 'NONE',  ( 0.000000000000000000, 100.0000000000000000, 0.000000000000000000 ) ) ;
#118 = SURFACE_SIDE_STYLE ('',( #69 ) ) ;
#119 = SURFACE_STYLE_FILL_AREA ( #131 ) ;
#120 = AXIS2_PLACEMENT_3D ( 'NONE', #101, #62, #42 ) ;
#121 =( NAMED_UNIT ( * ) SI_UNIT ( $, .STERADIAN. ) SOLID_ANGLE_UNIT ( ) );
#122 = DIRECTION ( 'NONE',  ( 1.000000000000000000, 0.000000000000000000, 0.000000000000000000 ) ) ;
#123 =( GEOMETRIC_REPRESENTATION_CONTEXT ( 3 ) GLOBAL_UNCERTAINTY_ASSIGNED_CONTEXT ( ( #125 ) ) GLOBAL_UNIT_ASSIGNED_CONTEXT ( ( #63, #108, #121 ) ) REPRESENTATION_CONTEXT ( 'NONE', 'WORKASPACE' ) );
#124 = AXIS2_PLACEMENT_3D ( 'NONE', #97, #27, #60 ) ;
#125 = UNCERTAINTY_MEASURE_WITH_UNIT (LENGTH_MEASURE( 1.000000000000000082E-05 ), #63, 'distance_accuracy_value', 'NONE');
#126 = FACE_OUTER_BOUND ( 'NONE', #56, .T. ) ;
#127 =( NAMED_UNIT ( * ) SI_UNIT ( $, .STERADIAN. ) SOLID_ANGLE_UNIT ( ) );
#128 = APPLICATION_CONTEXT ( 'automotive_design' ) ;
#129=COLOUR_RGB('',0.909803921568627,0.443137254901961,0.0313725490196078);
#130 =( NAMED_UNIT ( * ) SI_UNIT ( $, .STERADIAN. ) SOLID_ANGLE_UNIT ( ) );
#131 = FILL_AREA_STYLE ('',( #8 ) ) ;
#132 = PRODUCT_RELATED_PRODUCT_CATEGORY ( 'part', '', ( #54 ) ) ;
#133 = UNCERTAINTY_MEASURE_WITH_UNIT (LENGTH_MEASURE( 1.000000000000000082E-05 ), #38, 'distance_accuracy_value', 'NONE');
#134 = EDGE_CURVE ( 'NONE', #48, #48, #52, .T. ) ;
#135 = APPLICATION_CONTEXT ( 'automotive_design' ) ;
#136 =( NAMED_UNIT ( * ) PLANE_ANGLE_UNIT ( ) SI_UNIT ( $, .RADIAN. ) );
#137 = NEXT_ASSEMBLY_USAGE_OCCURRENCE ( 'NAUO1', ' ', ' ', #29, #53, $ ) ;
ENDSEC;
END-ISO-10303-21;
