ISO-10303-21;
HEADER;
FILE_DESCRIPTION (( 'STEP AP214' ),
    '1' );
FILE_NAME ('C4_component_override_1__all_visible.step',
    '2026-08-06T17:02:19',
    ( 'info@peak-design.co.uk' ),
    ( '' ),
    'SwSTEP 2.0',
    'SolidWorks 2026',
    '' );
FILE_SCHEMA (( 'AUTOMOTIVE_DESIGN' ));
ENDSEC;

DATA;
#1 = VERTEX_POINT ( 'NONE', #58 ) ;
#2 = PRODUCT_DEFINITION_FORMATION_WITH_SPECIFIED_SOURCE ( 'ANY', '', #37, .NOT_KNOWN. ) ;
#3 =( LENGTH_UNIT ( ) NAMED_UNIT ( * ) SI_UNIT ( .MILLI., .METRE. ) );
#4 = PRODUCT ( 'C4_part_1', 'C4_part_1', '', ( #40 ) ) ;
#5 = PRODUCT_DEFINITION_FORMATION_WITH_SPECIFIED_SOURCE ( 'ANY', '', #4, .NOT_KNOWN. ) ;
#6 = ORIENTED_EDGE ( 'NONE', *, *, #11, .T. ) ;
#7 = EDGE_LOOP ( 'NONE', ( #67 ) ) ;
#8 = CARTESIAN_POINT ( 'NONE',  ( 0.000000000000000000, 100.0000000000000000, 0.000000000000000000 ) ) ;
#9 = APPLICATION_CONTEXT ( 'automotive_design' ) ;
#10 = DIRECTION ( 'NONE',  ( 0.000000000000000000, 0.000000000000000000, 1.000000000000000000 ) ) ;
#11 = EDGE_CURVE ( 'NONE', #1, #1, #18, .T. ) ;
#12 = SURFACE_STYLE_USAGE ( .BOTH. , #53 ) ;
#13 = PRODUCT_DEFINITION_SHAPE ( 'NONE', 'NONE',  #120 ) ;
#14 = PRODUCT_RELATED_PRODUCT_CATEGORY ( 'part', '', ( #4 ) ) ;
#15 = SURFACE_STYLE_FILL_AREA ( #47 ) ;
#16 = CARTESIAN_POINT ( 'NONE',  ( 0.000000000000000000, 0.000000000000000000, 0.000000000000000000 ) ) ;
#17 = ADVANCED_FACE ( 'NONE', ( #55 ), #142, .F. ) ;
#18 = CIRCLE ( 'NONE', #128, 50.00000000000000000 ) ;
#19 = APPLICATION_PROTOCOL_DEFINITION ( 'draft international standard', 'automotive_design', 1998, #92 ) ;
#20 = DIRECTION ( 'NONE',  ( 0.000000000000000000, 0.000000000000000000, -1.000000000000000000 ) ) ;
#21 =( NAMED_UNIT ( * ) SI_UNIT ( $, .STERADIAN. ) SOLID_ANGLE_UNIT ( ) );
#22 = AXIS2_PLACEMENT_3D ( 'NONE', #97, #113, #76 ) ;
#23 = CARTESIAN_POINT ( 'NONE',  ( 0.000000000000000000, 100.0000000000000000, 0.000000000000000000 ) ) ;
#24 = PRESENTATION_STYLE_ASSIGNMENT (( #12 ) ) ;
#25 = STYLED_ITEM ( 'NONE', ( #24 ), #38 ) ;
#26 = FILL_AREA_STYLE_COLOUR ( '', #117 ) ;
#27 = DIRECTION ( 'NONE',  ( 0.000000000000000000, 0.000000000000000000, 1.000000000000000000 ) ) ;
#28 = PRODUCT_DEFINITION_CONTEXT ( 'detailed design', #92, 'design' ) ;
#29 = ITEM_DEFINED_TRANSFORMATION ( 'NONE', 'NONE', #22,  #52 ) ;
#30 = CONTEXT_DEPENDENT_SHAPE_REPRESENTATION ( #100, #135 ) ;
#31 = AXIS2_PLACEMENT_3D ( 'NONE', #141, #87, #20 ) ;
#32 = UNCERTAINTY_MEASURE_WITH_UNIT (LENGTH_MEASURE( 1.000000000000000082E-05 ), #75, 'distance_accuracy_value', 'NONE');
#33 = CARTESIAN_POINT ( 'NONE',  ( 0.000000000000000000, 0.000000000000000000, 0.000000000000000000 ) ) ;
#34 = FACE_OUTER_BOUND ( 'NONE', #7, .T. ) ;
#35 = PRODUCT_DEFINITION_CONTEXT ( 'detailed design', #105, 'design' ) ;
#36 =( NAMED_UNIT ( * ) PLANE_ANGLE_UNIT ( ) SI_UNIT ( $, .RADIAN. ) );
#37 = PRODUCT ( 'C4_component_override_1__all_visible', 'C4_component_override_1__all_visible', '', ( #139 ) ) ;
#38 = MANIFOLD_SOLID_BREP ( 'Boss-Extrude1', #114 ) ;
#39 = DIRECTION ( 'NONE',  ( 1.000000000000000000, 0.000000000000000000, 0.000000000000000000 ) ) ;
#40 = PRODUCT_CONTEXT ( 'NONE', #56, 'mechanical' ) ;
#41 = PLANE ( 'NONE',  #46 ) ;
#42 = DIRECTION ( 'NONE',  ( 0.000000000000000000, 1.000000000000000000, 0.000000000000000000 ) ) ;
#43 = FILL_AREA_STYLE ('',( #143 ) ) ;
#44 = EDGE_LOOP ( 'NONE', ( #6 ) ) ;
#45 = DIRECTION ( 'NONE',  ( 0.000000000000000000, -0.000000000000000000, 1.000000000000000000 ) ) ;
#46 = AXIS2_PLACEMENT_3D ( 'NONE', #8, #89, #131 ) ;
#47 = FILL_AREA_STYLE ('',( #26 ) ) ;
#48 = AXIS2_PLACEMENT_3D ( 'NONE', #68, #27, #112 ) ;
#49 = CARTESIAN_POINT ( 'NONE',  ( 0.000000000000000000, 0.000000000000000000, 0.000000000000000000 ) ) ;
#50 = PRODUCT_RELATED_PRODUCT_CATEGORY ( 'part', '', ( #37 ) ) ;
#51 = MECHANICAL_DESIGN_GEOMETRIC_PRESENTATION_REPRESENTATION (  '', ( #25 ), #86 ) ;
#52 = AXIS2_PLACEMENT_3D ( 'NONE', #16, #96, #133 ) ;
#53 = SURFACE_SIDE_STYLE ('',( #130 ) ) ;
#54 = EDGE_LOOP ( 'NONE', ( #65 ) ) ;
#55 = FACE_OUTER_BOUND ( 'NONE', #54, .T. ) ;
#56 = APPLICATION_CONTEXT ( 'automotive_design' ) ;
#57 = AXIS2_PLACEMENT_3D ( 'NONE', #123, #132, #126 ) ;
#58 = CARTESIAN_POINT ( 'NONE',  ( 0.000000000000000000, 100.0000000000000000, 50.00000000000000000 ) ) ;
#59 = SURFACE_STYLE_USAGE ( .BOTH. , #93 ) ;
#60 = PRESENTATION_STYLE_ASSIGNMENT (( #59 ) ) ;
#61 =( NAMED_UNIT ( * ) PLANE_ANGLE_UNIT ( ) SI_UNIT ( $, .RADIAN. ) );
#62 = ADVANCED_FACE ( 'NONE', ( #144, #34 ), #119, .T. ) ;
#63 = MECHANICAL_DESIGN_GEOMETRIC_PRESENTATION_REPRESENTATION (  '', ( #83 ), #70 ) ;
#64 = FACE_OUTER_BOUND ( 'NONE', #44, .T. ) ;
#65 = ORIENTED_EDGE ( 'NONE', *, *, #125, .F. ) ;
#66 = DIRECTION ( 'NONE',  ( 0.000000000000000000, 1.000000000000000000, 0.000000000000000000 ) ) ;
#67 = ORIENTED_EDGE ( 'NONE', *, *, #125, .T. ) ;
#68 = CARTESIAN_POINT ( 'NONE',  ( 129.8588026547804475, -29.07840402331203578, -68.52472038008272648 ) ) ;
#69 = UNCERTAINTY_MEASURE_WITH_UNIT (LENGTH_MEASURE( 1.000000000000000082E-05 ), #104, 'distance_accuracy_value', 'NONE');
#70 =( GEOMETRIC_REPRESENTATION_CONTEXT ( 3 ) GLOBAL_UNCERTAINTY_ASSIGNED_CONTEXT ( ( #90 ) ) GLOBAL_UNIT_ASSIGNED_CONTEXT ( ( #3, #36, #78 ) ) REPRESENTATION_CONTEXT ( 'NONE', 'WORKASPACE' ) );
#71 = DIRECTION ( 'NONE',  ( 0.000000000000000000, 0.000000000000000000, 1.000000000000000000 ) ) ;
#72 = AXIS2_PLACEMENT_3D ( 'NONE', #49, #71, #39 ) ;
#73 = CONTEXT_DEPENDENT_SHAPE_REPRESENTATION ( #137, #127 ) ;
#74 = DIRECTION ( 'NONE',  ( 0.000000000000000000, 1.000000000000000000, 0.000000000000000000 ) ) ;
#75 =( LENGTH_UNIT ( ) NAMED_UNIT ( * ) SI_UNIT ( .MILLI., .METRE. ) );
#76 = DIRECTION ( 'NONE',  ( 1.000000000000000000, 0.000000000000000000, 0.000000000000000000 ) ) ;
#77 =( NAMED_UNIT ( * ) PLANE_ANGLE_UNIT ( ) SI_UNIT ( $, .RADIAN. ) );
#78 =( NAMED_UNIT ( * ) SI_UNIT ( $, .STERADIAN. ) SOLID_ANGLE_UNIT ( ) );
#79 =( LENGTH_UNIT ( ) NAMED_UNIT ( * ) SI_UNIT ( .MILLI., .METRE. ) );
#80 = PRESENTATION_LAYER_ASSIGNMENT (  '', '', ( #25 ) ) ;
#81 = SHAPE_REPRESENTATION_RELATIONSHIP ( 'NONE' , 'NONE' ,  #109, #115 ) ;
#82 = APPLICATION_PROTOCOL_DEFINITION ( 'draft international standard', 'automotive_design', 1998, #56 ) ;
#83 = STYLED_ITEM ( 'NONE', ( #60 ), #115 ) ;
#84 = PRODUCT_DEFINITION ( 'UNKNOWN', '', #5, #35 ) ;
#85 = APPLICATION_PROTOCOL_DEFINITION ( 'draft international standard', 'automotive_design', 1998, #105 ) ;
#86 =( GEOMETRIC_REPRESENTATION_CONTEXT ( 3 ) GLOBAL_UNCERTAINTY_ASSIGNED_CONTEXT ( ( #32 ) ) GLOBAL_UNIT_ASSIGNED_CONTEXT ( ( #75, #91, #21 ) ) REPRESENTATION_CONTEXT ( 'NONE', 'WORKASPACE' ) );
#87 = DIRECTION ( 'NONE',  ( -0.000000000000000000, -1.000000000000000000, -0.000000000000000000 ) ) ;
#88 = COLOUR_RGB ( '',1.000000000000000000, 0.000000000000000000, 0.000000000000000000 ) ;
#89 = DIRECTION ( 'NONE',  ( 0.000000000000000000, 1.000000000000000000, 0.000000000000000000 ) ) ;
#90 = UNCERTAINTY_MEASURE_WITH_UNIT (LENGTH_MEASURE( 1.000000000000000082E-05 ), #3, 'distance_accuracy_value', 'NONE');
#91 =( NAMED_UNIT ( * ) PLANE_ANGLE_UNIT ( ) SI_UNIT ( $, .RADIAN. ) );
#92 = APPLICATION_CONTEXT ( 'automotive_design' ) ;
#93 = SURFACE_SIDE_STYLE ('',( #15 ) ) ;
#94 = SHAPE_REPRESENTATION ( 'C4_component_override_1__all_visible', ( #72, #22, #48 ), #99 ) ;
#95 = CARTESIAN_POINT ( 'NONE',  ( 0.000000000000000000, 0.000000000000000000, 50.00000000000000000 ) ) ;
#96 = DIRECTION ( 'NONE',  ( 0.000000000000000000, 0.000000000000000000, 1.000000000000000000 ) ) ;
#97 = CARTESIAN_POINT ( 'NONE',  ( 0.000000000000000000, 0.000000000000000000, 0.000000000000000000 ) ) ;
#98 = APPLICATION_PROTOCOL_DEFINITION ( 'draft international standard', 'automotive_design', 1998, #9 ) ;
#99 =( GEOMETRIC_REPRESENTATION_CONTEXT ( 3 ) GLOBAL_UNCERTAINTY_ASSIGNED_CONTEXT ( ( #134 ) ) GLOBAL_UNIT_ASSIGNED_CONTEXT ( ( #79, #77, #122 ) ) REPRESENTATION_CONTEXT ( 'NONE', 'WORKASPACE' ) );
#100 =( REPRESENTATION_RELATIONSHIP ('NONE','NONE', #94, #109 ) REPRESENTATION_RELATIONSHIP_WITH_TRANSFORMATION ( #29 )SHAPE_REPRESENTATION_RELATIONSHIP( ) );
#101 = AXIS2_PLACEMENT_3D ( 'NONE', #107, #42, #45 ) ;
#102 = EDGE_LOOP ( 'NONE', ( #111 ) ) ;
#103 = PRESENTATION_LAYER_ASSIGNMENT (  '', '', ( #83 ) ) ;
#104 =( LENGTH_UNIT ( ) NAMED_UNIT ( * ) SI_UNIT ( .MILLI., .METRE. ) );
#105 = APPLICATION_CONTEXT ( 'automotive_design' ) ;
#106 = AXIS2_PLACEMENT_3D ( 'NONE', #33, #74, #121 ) ;
#107 = CARTESIAN_POINT ( 'NONE',  ( 0.000000000000000000, 0.000000000000000000, 0.000000000000000000 ) ) ;
#108 = ADVANCED_FACE ( 'NONE', ( #64 ), #41, .T. ) ;
#109 = SHAPE_REPRESENTATION ( 'C4_part_1', ( #52 ), #124 ) ;
#110 = VERTEX_POINT ( 'NONE', #95 ) ;
#111 = ORIENTED_EDGE ( 'NONE', *, *, #11, .F. ) ;
#112 = DIRECTION ( 'NONE',  ( 1.000000000000000000, 0.000000000000000000, 0.000000000000000000 ) ) ;
#113 = DIRECTION ( 'NONE',  ( 0.000000000000000000, 0.000000000000000000, 1.000000000000000000 ) ) ;
#114 = CLOSED_SHELL ( 'NONE', ( #62, #108, #17 ) ) ;
#115 = ADVANCED_BREP_SHAPE_REPRESENTATION ( '', ( #38, #52 ), #124 ) ;
#116 =( NAMED_UNIT ( * ) SI_UNIT ( $, .STERADIAN. ) SOLID_ANGLE_UNIT ( ) );
#117 = COLOUR_RGB ( '',0.9098039215686274384, 0.4431372549019607643, 0.03137254901960784270 ) ;
#118 = SHAPE_DEFINITION_REPRESENTATION ( #13, #94 ) ;
#119 = CYLINDRICAL_SURFACE ( 'NONE', #31, 50.00000000000000000 ) ;
#120 = PRODUCT_DEFINITION ( 'UNKNOWN', '', #2, #28 ) ;
#121 = DIRECTION ( 'NONE',  ( 0.000000000000000000, 0.000000000000000000, 1.000000000000000000 ) ) ;
#122 =( NAMED_UNIT ( * ) SI_UNIT ( $, .STERADIAN. ) SOLID_ANGLE_UNIT ( ) );
#123 = CARTESIAN_POINT ( 'NONE',  ( 0.000000000000000000, 0.000000000000000000, 0.000000000000000000 ) ) ;
#124 =( GEOMETRIC_REPRESENTATION_CONTEXT ( 3 ) GLOBAL_UNCERTAINTY_ASSIGNED_CONTEXT ( ( #69 ) ) GLOBAL_UNIT_ASSIGNED_CONTEXT ( ( #104, #61, #116 ) ) REPRESENTATION_CONTEXT ( 'NONE', 'WORKASPACE' ) );
#125 = EDGE_CURVE ( 'NONE', #110, #110, #136, .T. ) ;
#126 = DIRECTION ( 'NONE',  ( 1.000000000000000000, 0.000000000000000000, 0.000000000000000000 ) ) ;
#127 = PRODUCT_DEFINITION_SHAPE ( 'NONE', 'NONE',  #146 ) ;
#128 = AXIS2_PLACEMENT_3D ( 'NONE', #23, #66, #10 ) ;
#129 = SHAPE_DEFINITION_REPRESENTATION ( #138, #109 ) ;
#130 = SURFACE_STYLE_FILL_AREA ( #43 ) ;
#131 = DIRECTION ( 'NONE',  ( 0.000000000000000000, -0.000000000000000000, 1.000000000000000000 ) ) ;
#132 = DIRECTION ( 'NONE',  ( 0.000000000000000000, 0.000000000000000000, 1.000000000000000000 ) ) ;
#133 = DIRECTION ( 'NONE',  ( 1.000000000000000000, 0.000000000000000000, 0.000000000000000000 ) ) ;
#134 = UNCERTAINTY_MEASURE_WITH_UNIT (LENGTH_MEASURE( 1.000000000000000082E-05 ), #79, 'distance_accuracy_value', 'NONE');
#135 = PRODUCT_DEFINITION_SHAPE ( 'NONE', 'NONE',  #145 ) ;
#136 = CIRCLE ( 'NONE', #106, 50.00000000000000000 ) ;
#137 =( REPRESENTATION_RELATIONSHIP ('NONE','NONE', #94, #109 ) REPRESENTATION_RELATIONSHIP_WITH_TRANSFORMATION ( #140 )SHAPE_REPRESENTATION_RELATIONSHIP( ) );
#138 = PRODUCT_DEFINITION_SHAPE ( 'NONE', 'NONE',  #84 ) ;
#139 = PRODUCT_CONTEXT ( 'NONE', #9, 'mechanical' ) ;
#140 = ITEM_DEFINED_TRANSFORMATION ( 'NONE', 'NONE', #48,  #52 ) ;
#141 = CARTESIAN_POINT ( 'NONE',  ( 0.000000000000000000, 100.0000000000000000, 0.000000000000000000 ) ) ;
#142 = PLANE ( 'NONE',  #101 ) ;
#143 = FILL_AREA_STYLE_COLOUR ( '', #88 ) ;
#144 = FACE_OUTER_BOUND ( 'NONE', #102, .T. ) ;
#145 = NEXT_ASSEMBLY_USAGE_OCCURRENCE ( 'NAUO1', ' ', ' ', #120, #84, $ ) ;
#146 = NEXT_ASSEMBLY_USAGE_OCCURRENCE ( 'NAUO2', ' ', ' ', #120, #84, $ ) ;
ENDSEC;
END-ISO-10303-21;
