ISO-10303-21;
HEADER;
FILE_DESCRIPTION (( 'STEP AP214' ),
    '1' );
FILE_NAME ('C4_component_override_2__hid_app0.step',
    '2026-08-06T17:03:15',
    ( 'info@peak-design.co.uk' ),
    ( '' ),
    'SwSTEP 2.0',
    'SolidWorks 2026',
    '' );
FILE_SCHEMA (( 'AUTOMOTIVE_DESIGN' ));
ENDSEC;

DATA;
#1 = PRODUCT_RELATED_PRODUCT_CATEGORY ( 'part', '', ( #49 ) ) ;
#2 = PRODUCT ( 'C4_component_override_2__hid_app0', 'C4_component_override_2__hid_app0', '', ( #11 ) ) ;
#3 =( GEOMETRIC_REPRESENTATION_CONTEXT ( 3 ) GLOBAL_UNCERTAINTY_ASSIGNED_CONTEXT ( ( #63 ) ) GLOBAL_UNIT_ASSIGNED_CONTEXT ( ( #78, #7, #95 ) ) REPRESENTATION_CONTEXT ( 'NONE', 'WORKASPACE' ) );
#4 = EDGE_LOOP ( 'NONE', ( #20 ) ) ;
#5 = MECHANICAL_DESIGN_GEOMETRIC_PRESENTATION_REPRESENTATION (  '', ( #119 ), #88 ) ;
#6 = AXIS2_PLACEMENT_3D ( 'NONE', #71, #24, #109 ) ;
#7 =( NAMED_UNIT ( * ) PLANE_ANGLE_UNIT ( ) SI_UNIT ( $, .RADIAN. ) );
#8 = DIRECTION ( 'NONE',  ( 0.000000000000000000, 1.000000000000000000, 0.000000000000000000 ) ) ;
#9 = SHAPE_DEFINITION_REPRESENTATION ( #28, #111 ) ;
#10 = PRODUCT_DEFINITION_SHAPE ( 'NONE', 'NONE',  #122 ) ;
#11 = PRODUCT_CONTEXT ( 'NONE', #112, 'mechanical' ) ;
#12 =( NAMED_UNIT ( * ) PLANE_ANGLE_UNIT ( ) SI_UNIT ( $, .RADIAN. ) );
#13 = UNCERTAINTY_MEASURE_WITH_UNIT (LENGTH_MEASURE( 1.000000000000000082E-05 ), #84, 'distance_accuracy_value', 'NONE');
#14 = DIRECTION ( 'NONE',  ( 0.000000000000000000, 0.000000000000000000, 1.000000000000000000 ) ) ;
#15 = DIRECTION ( 'NONE',  ( 0.000000000000000000, -0.000000000000000000, 1.000000000000000000 ) ) ;
#16 = VERTEX_POINT ( 'NONE', #57 ) ;
#17 = DIRECTION ( 'NONE',  ( 0.000000000000000000, 1.000000000000000000, 0.000000000000000000 ) ) ;
#18 = SURFACE_SIDE_STYLE ('',( #104 ) ) ;
#19 = APPLICATION_PROTOCOL_DEFINITION ( 'draft international standard', 'automotive_design', 1998, #97 ) ;
#20 = ORIENTED_EDGE ( 'NONE', *, *, #83, .F. ) ;
#21 =( NAMED_UNIT ( * ) SI_UNIT ( $, .STERADIAN. ) SOLID_ANGLE_UNIT ( ) );
#22 = ORIENTED_EDGE ( 'NONE', *, *, #83, .T. ) ;
#23 = UNCERTAINTY_MEASURE_WITH_UNIT (LENGTH_MEASURE( 1.000000000000000082E-05 ), #51, 'distance_accuracy_value', 'NONE');
#24 = DIRECTION ( 'NONE',  ( 0.000000000000000000, 0.000000000000000000, 1.000000000000000000 ) ) ;
#25 = CARTESIAN_POINT ( 'NONE',  ( 0.000000000000000000, 100.0000000000000000, 0.000000000000000000 ) ) ;
#26 = CARTESIAN_POINT ( 'NONE',  ( 0.000000000000000000, 0.000000000000000000, 0.000000000000000000 ) ) ;
#27 = MANIFOLD_SOLID_BREP ( 'Boss-Extrude1', #107 ) ;
#28 = PRODUCT_DEFINITION_SHAPE ( 'NONE', 'NONE',  #43 ) ;
#29 = FACE_OUTER_BOUND ( 'NONE', #4, .T. ) ;
#30 = ORIENTED_EDGE ( 'NONE', *, *, #56, .F. ) ;
#31 = PRODUCT_RELATED_PRODUCT_CATEGORY ( 'part', '', ( #2 ) ) ;
#32 = AXIS2_PLACEMENT_3D ( 'NONE', #25, #79, #59 ) ;
#33 = APPLICATION_CONTEXT ( 'automotive_design' ) ;
#34 =( NAMED_UNIT ( * ) SI_UNIT ( $, .STERADIAN. ) SOLID_ANGLE_UNIT ( ) );
#35 = DIRECTION ( 'NONE',  ( 0.000000000000000000, 0.000000000000000000, 1.000000000000000000 ) ) ;
#36 = ADVANCED_FACE ( 'NONE', ( #81, #115 ), #41, .T. ) ;
#37 = AXIS2_PLACEMENT_3D ( 'NONE', #26, #58, #69 ) ;
#38 = APPLICATION_PROTOCOL_DEFINITION ( 'draft international standard', 'automotive_design', 1998, #33 ) ;
#39 = SHAPE_DEFINITION_REPRESENTATION ( #75, #67 ) ;
#40 = PRODUCT_CONTEXT ( 'NONE', #33, 'mechanical' ) ;
#41 = CYLINDRICAL_SURFACE ( 'NONE', #62, 50.00000000000000000 ) ;
#42 = EDGE_LOOP ( 'NONE', ( #65 ) ) ;
#43 = PRODUCT_DEFINITION ( 'UNKNOWN', '', #74, #106 ) ;
#44 = CARTESIAN_POINT ( 'NONE',  ( 0.000000000000000000, 0.000000000000000000, 0.000000000000000000 ) ) ;
#45 = AXIS2_PLACEMENT_3D ( 'NONE', #100, #55, #77 ) ;
#46 = VERTEX_POINT ( 'NONE', #118 ) ;
#47 = ITEM_DEFINED_TRANSFORMATION ( 'NONE', 'NONE', #6,  #103 ) ;
#48 = PRODUCT_DEFINITION ( 'UNKNOWN', '', #70, #92 ) ;
#49 = PRODUCT ( 'C4_part_1', 'C4_part_1', '', ( #40 ) ) ;
#50 = ADVANCED_FACE ( 'NONE', ( #29 ), #86, .F. ) ;
#51 =( LENGTH_UNIT ( ) NAMED_UNIT ( * ) SI_UNIT ( .MILLI., .METRE. ) );
#52 = AXIS2_PLACEMENT_3D ( 'NONE', #94, #87, #120 ) ;
#53 = PLANE ( 'NONE',  #117 ) ;
#54 = PRESENTATION_LAYER_ASSIGNMENT (  '', '', ( #119 ) ) ;
#55 = DIRECTION ( 'NONE',  ( 0.000000000000000000, 0.000000000000000000, 1.000000000000000000 ) ) ;
#56 = EDGE_CURVE ( 'NONE', #16, #16, #99, .T. ) ;
#57 = CARTESIAN_POINT ( 'NONE',  ( 0.000000000000000000, 100.0000000000000000, 50.00000000000000000 ) ) ;
#58 = DIRECTION ( 'NONE',  ( 0.000000000000000000, 1.000000000000000000, 0.000000000000000000 ) ) ;
#59 = DIRECTION ( 'NONE',  ( 0.000000000000000000, 0.000000000000000000, 1.000000000000000000 ) ) ;
#60 = PRESENTATION_STYLE_ASSIGNMENT (( #61 ) ) ;
#61 = SURFACE_STYLE_USAGE ( .BOTH. , #18 ) ;
#62 = AXIS2_PLACEMENT_3D ( 'NONE', #82, #116, #76 ) ;
#63 = UNCERTAINTY_MEASURE_WITH_UNIT (LENGTH_MEASURE( 1.000000000000000082E-05 ), #78, 'distance_accuracy_value', 'NONE');
#64 = FILL_AREA_STYLE ('',( #73 ) ) ;
#65 = ORIENTED_EDGE ( 'NONE', *, *, #56, .T. ) ;
#66 = COLOUR_RGB ( '',0.7921568627450980005, 0.8196078431372548767, 0.9333333333333333481 ) ;
#67 = SHAPE_REPRESENTATION ( 'C4_component_override_2__hid_app0', ( #45, #6 ), #121 ) ;
#68 =( NAMED_UNIT ( * ) PLANE_ANGLE_UNIT ( ) SI_UNIT ( $, .RADIAN. ) );
#69 = DIRECTION ( 'NONE',  ( 0.000000000000000000, -0.000000000000000000, 1.000000000000000000 ) ) ;
#70 = PRODUCT_DEFINITION_FORMATION_WITH_SPECIFIED_SOURCE ( 'ANY', '', #2, .NOT_KNOWN. ) ;
#71 = CARTESIAN_POINT ( 'NONE',  ( 0.000000000000000000, 0.000000000000000000, 0.000000000000000000 ) ) ;
#72 = AXIS2_PLACEMENT_3D ( 'NONE', #108, #8, #35 ) ;
#73 = FILL_AREA_STYLE_COLOUR ( '', #66 ) ;
#74 = PRODUCT_DEFINITION_FORMATION_WITH_SPECIFIED_SOURCE ( 'ANY', '', #49, .NOT_KNOWN. ) ;
#75 = PRODUCT_DEFINITION_SHAPE ( 'NONE', 'NONE',  #48 ) ;
#76 = DIRECTION ( 'NONE',  ( 0.000000000000000000, 0.000000000000000000, -1.000000000000000000 ) ) ;
#77 = DIRECTION ( 'NONE',  ( 1.000000000000000000, 0.000000000000000000, 0.000000000000000000 ) ) ;
#78 =( LENGTH_UNIT ( ) NAMED_UNIT ( * ) SI_UNIT ( .MILLI., .METRE. ) );
#79 = DIRECTION ( 'NONE',  ( 0.000000000000000000, 1.000000000000000000, 0.000000000000000000 ) ) ;
#80 = CONTEXT_DEPENDENT_SHAPE_REPRESENTATION ( #113, #10 ) ;
#81 = FACE_OUTER_BOUND ( 'NONE', #114, .T. ) ;
#82 = CARTESIAN_POINT ( 'NONE',  ( 0.000000000000000000, 100.0000000000000000, 0.000000000000000000 ) ) ;
#83 = EDGE_CURVE ( 'NONE', #46, #46, #110, .T. ) ;
#84 =( LENGTH_UNIT ( ) NAMED_UNIT ( * ) SI_UNIT ( .MILLI., .METRE. ) );
#85 = SHAPE_REPRESENTATION_RELATIONSHIP ( 'NONE' , 'NONE' ,  #111, #89 ) ;
#86 = PLANE ( 'NONE',  #37 ) ;
#87 = DIRECTION ( 'NONE',  ( 0.000000000000000000, 0.000000000000000000, 1.000000000000000000 ) ) ;
#88 =( GEOMETRIC_REPRESENTATION_CONTEXT ( 3 ) GLOBAL_UNCERTAINTY_ASSIGNED_CONTEXT ( ( #23 ) ) GLOBAL_UNIT_ASSIGNED_CONTEXT ( ( #51, #12, #21 ) ) REPRESENTATION_CONTEXT ( 'NONE', 'WORKASPACE' ) );
#89 = ADVANCED_BREP_SHAPE_REPRESENTATION ( '', ( #27, #103 ), #3 ) ;
#90 = EDGE_LOOP ( 'NONE', ( #22 ) ) ;
#91 = DIRECTION ( 'NONE',  ( 1.000000000000000000, 0.000000000000000000, 0.000000000000000000 ) ) ;
#92 = PRODUCT_DEFINITION_CONTEXT ( 'detailed design', #105, 'design' ) ;
#93 = FACE_OUTER_BOUND ( 'NONE', #42, .T. ) ;
#94 = CARTESIAN_POINT ( 'NONE',  ( 0.000000000000000000, 0.000000000000000000, 0.000000000000000000 ) ) ;
#95 =( NAMED_UNIT ( * ) SI_UNIT ( $, .STERADIAN. ) SOLID_ANGLE_UNIT ( ) );
#96 = APPLICATION_PROTOCOL_DEFINITION ( 'draft international standard', 'automotive_design', 1998, #105 ) ;
#97 = APPLICATION_CONTEXT ( 'automotive_design' ) ;
#98 = APPLICATION_PROTOCOL_DEFINITION ( 'draft international standard', 'automotive_design', 1998, #112 ) ;
#99 = CIRCLE ( 'NONE', #32, 50.00000000000000000 ) ;
#100 = CARTESIAN_POINT ( 'NONE',  ( 0.000000000000000000, 0.000000000000000000, 0.000000000000000000 ) ) ;
#101 = ADVANCED_FACE ( 'NONE', ( #93 ), #53, .T. ) ;
#102 = CARTESIAN_POINT ( 'NONE',  ( 0.000000000000000000, 100.0000000000000000, 0.000000000000000000 ) ) ;
#103 = AXIS2_PLACEMENT_3D ( 'NONE', #44, #14, #91 ) ;
#104 = SURFACE_STYLE_FILL_AREA ( #64 ) ;
#105 = APPLICATION_CONTEXT ( 'automotive_design' ) ;
#106 = PRODUCT_DEFINITION_CONTEXT ( 'detailed design', #97, 'design' ) ;
#107 = CLOSED_SHELL ( 'NONE', ( #36, #101, #50 ) ) ;
#108 = CARTESIAN_POINT ( 'NONE',  ( 0.000000000000000000, 0.000000000000000000, 0.000000000000000000 ) ) ;
#109 = DIRECTION ( 'NONE',  ( 1.000000000000000000, 0.000000000000000000, 0.000000000000000000 ) ) ;
#110 = CIRCLE ( 'NONE', #72, 50.00000000000000000 ) ;
#111 = SHAPE_REPRESENTATION ( 'C4_part_1', ( #103 ), #3 ) ;
#112 = APPLICATION_CONTEXT ( 'automotive_design' ) ;
#113 =( REPRESENTATION_RELATIONSHIP ('NONE','NONE', #67, #111 ) REPRESENTATION_RELATIONSHIP_WITH_TRANSFORMATION ( #47 )SHAPE_REPRESENTATION_RELATIONSHIP( ) );
#114 = EDGE_LOOP ( 'NONE', ( #30 ) ) ;
#115 = FACE_OUTER_BOUND ( 'NONE', #90, .T. ) ;
#116 = DIRECTION ( 'NONE',  ( -0.000000000000000000, -1.000000000000000000, -0.000000000000000000 ) ) ;
#117 = AXIS2_PLACEMENT_3D ( 'NONE', #102, #17, #15 ) ;
#118 = CARTESIAN_POINT ( 'NONE',  ( 0.000000000000000000, 0.000000000000000000, 50.00000000000000000 ) ) ;
#119 = STYLED_ITEM ( 'NONE', ( #60 ), #27 ) ;
#120 = DIRECTION ( 'NONE',  ( 1.000000000000000000, 0.000000000000000000, 0.000000000000000000 ) ) ;
#121 =( GEOMETRIC_REPRESENTATION_CONTEXT ( 3 ) GLOBAL_UNCERTAINTY_ASSIGNED_CONTEXT ( ( #13 ) ) GLOBAL_UNIT_ASSIGNED_CONTEXT ( ( #84, #68, #34 ) ) REPRESENTATION_CONTEXT ( 'NONE', 'WORKASPACE' ) );
#122 = NEXT_ASSEMBLY_USAGE_OCCURRENCE ( 'NAUO1', ' ', ' ', #48, #43, $ ) ;
ENDSEC;
END-ISO-10303-21;
