ISO-10303-21;
HEADER;
FILE_DESCRIPTION (( 'STEP AP214' ),
    '1' );
FILE_NAME ('C4_component_override_1__vis_app1.step',
    '2026-08-06T17:07:58',
    ( 'info@peak-design.co.uk' ),
    ( '' ),
    'SwSTEP 2.0',
    'SolidWorks 2026',
    '' );
FILE_SCHEMA (( 'AUTOMOTIVE_DESIGN' ));
ENDSEC;

DATA;
#1 = PRESENTATION_STYLE_ASSIGNMENT (( #120 ) ) ;
#2 = COLOUR_RGB ( '',1.000000000000000000, 0.000000000000000000, 0.000000000000000000 ) ;
#3 = ITEM_DEFINED_TRANSFORMATION ( 'NONE', 'NONE', #144,  #73 ) ;
#4 = EDGE_CURVE ( 'NONE', #56, #56, #95, .T. ) ;
#5 = SURFACE_STYLE_USAGE ( .BOTH. , #143 ) ;
#6 = DIRECTION ( 'NONE',  ( 0.000000000000000000, 0.000000000000000000, -1.000000000000000000 ) ) ;
#7 = PRODUCT_DEFINITION ( 'UNKNOWN', '', #38, #134 ) ;
#8 = EDGE_LOOP ( 'NONE', ( #18 ) ) ;
#9 = SHAPE_REPRESENTATION ( 'C4_component_override_1__vis_app1', ( #135, #99, #144 ), #138 ) ;
#10 = DIRECTION ( 'NONE',  ( 1.000000000000000000, 0.000000000000000000, 0.000000000000000000 ) ) ;
#11 = COLOUR_RGB ( '',0.9098039215686274384, 0.4431372549019607643, 0.03137254901960784270 ) ;
#12 = DIRECTION ( 'NONE',  ( 1.000000000000000000, 0.000000000000000000, 0.000000000000000000 ) ) ;
#13 = SURFACE_STYLE_FILL_AREA ( #106 ) ;
#14 = PRESENTATION_LAYER_ASSIGNMENT (  '', '', ( #84 ) ) ;
#15 = CARTESIAN_POINT ( 'NONE',  ( 0.000000000000000000, 0.000000000000000000, 0.000000000000000000 ) ) ;
#16 = SHAPE_REPRESENTATION ( 'C4_part_1', ( #73 ), #53 ) ;
#17 = CARTESIAN_POINT ( 'NONE',  ( 0.000000000000000000, 0.000000000000000000, 0.000000000000000000 ) ) ;
#18 = ORIENTED_EDGE ( 'NONE', *, *, #4, .F. ) ;
#19 = FILL_AREA_STYLE ('',( #112 ) ) ;
#20 =( NAMED_UNIT ( * ) PLANE_ANGLE_UNIT ( ) SI_UNIT ( $, .RADIAN. ) );
#21 =( GEOMETRIC_REPRESENTATION_CONTEXT ( 3 ) GLOBAL_UNCERTAINTY_ASSIGNED_CONTEXT ( ( #49 ) ) GLOBAL_UNIT_ASSIGNED_CONTEXT ( ( #91, #33, #128 ) ) REPRESENTATION_CONTEXT ( 'NONE', 'WORKASPACE' ) );
#22 =( LENGTH_UNIT ( ) NAMED_UNIT ( * ) SI_UNIT ( .MILLI., .METRE. ) );
#23 =( NAMED_UNIT ( * ) SI_UNIT ( $, .STERADIAN. ) SOLID_ANGLE_UNIT ( ) );
#24 = AXIS2_PLACEMENT_3D ( 'NONE', #17, #107, #127 ) ;
#25 = AXIS2_PLACEMENT_3D ( 'NONE', #102, #82, #81 ) ;
#26 = SHAPE_DEFINITION_REPRESENTATION ( #96, #16 ) ;
#27 = DIRECTION ( 'NONE',  ( 0.000000000000000000, 0.000000000000000000, 1.000000000000000000 ) ) ;
#28 = PRODUCT_DEFINITION_CONTEXT ( 'detailed design', #118, 'design' ) ;
#29 =( REPRESENTATION_RELATIONSHIP ('NONE','NONE', #9, #16 ) REPRESENTATION_RELATIONSHIP_WITH_TRANSFORMATION ( #3 )SHAPE_REPRESENTATION_RELATIONSHIP( ) );
#30 = FACE_OUTER_BOUND ( 'NONE', #8, .T. ) ;
#31 = EDGE_LOOP ( 'NONE', ( #89 ) ) ;
#32 = SHAPE_REPRESENTATION_RELATIONSHIP ( 'NONE' , 'NONE' ,  #16, #90 ) ;
#33 =( NAMED_UNIT ( * ) PLANE_ANGLE_UNIT ( ) SI_UNIT ( $, .RADIAN. ) );
#34 =( NAMED_UNIT ( * ) PLANE_ANGLE_UNIT ( ) SI_UNIT ( $, .RADIAN. ) );
#35 = APPLICATION_CONTEXT ( 'automotive_design' ) ;
#36 =( NAMED_UNIT ( * ) PLANE_ANGLE_UNIT ( ) SI_UNIT ( $, .RADIAN. ) );
#37 = CONTEXT_DEPENDENT_SHAPE_REPRESENTATION ( #29, #43 ) ;
#38 = PRODUCT_DEFINITION_FORMATION_WITH_SPECIFIED_SOURCE ( 'ANY', '', #62, .NOT_KNOWN. ) ;
#39 = PLANE ( 'NONE',  #25 ) ;
#40 = FACE_OUTER_BOUND ( 'NONE', #142, .T. ) ;
#41 = MECHANICAL_DESIGN_GEOMETRIC_PRESENTATION_REPRESENTATION (  '', ( #94 ), #46 ) ;
#42 = DIRECTION ( 'NONE',  ( 0.000000000000000000, 0.000000000000000000, 1.000000000000000000 ) ) ;
#43 = PRODUCT_DEFINITION_SHAPE ( 'NONE', 'NONE',  #146 ) ;
#44 = SHAPE_DEFINITION_REPRESENTATION ( #55, #9 ) ;
#45 = DIRECTION ( 'NONE',  ( 1.000000000000000000, 0.000000000000000000, 0.000000000000000000 ) ) ;
#46 =( GEOMETRIC_REPRESENTATION_CONTEXT ( 3 ) GLOBAL_UNCERTAINTY_ASSIGNED_CONTEXT ( ( #61 ) ) GLOBAL_UNIT_ASSIGNED_CONTEXT ( ( #54, #20, #129 ) ) REPRESENTATION_CONTEXT ( 'NONE', 'WORKASPACE' ) );
#47 = ITEM_DEFINED_TRANSFORMATION ( 'NONE', 'NONE', #99,  #73 ) ;
#48 = DIRECTION ( 'NONE',  ( 0.000000000000000000, 1.000000000000000000, 0.000000000000000000 ) ) ;
#49 = UNCERTAINTY_MEASURE_WITH_UNIT (LENGTH_MEASURE( 1.000000000000000082E-05 ), #91, 'distance_accuracy_value', 'NONE');
#50 = FACE_OUTER_BOUND ( 'NONE', #31, .T. ) ;
#51 = CARTESIAN_POINT ( 'NONE',  ( 0.000000000000000000, 100.0000000000000000, 50.00000000000000000 ) ) ;
#52 = APPLICATION_CONTEXT ( 'automotive_design' ) ;
#53 =( GEOMETRIC_REPRESENTATION_CONTEXT ( 3 ) GLOBAL_UNCERTAINTY_ASSIGNED_CONTEXT ( ( #109 ) ) GLOBAL_UNIT_ASSIGNED_CONTEXT ( ( #22, #34, #23 ) ) REPRESENTATION_CONTEXT ( 'NONE', 'WORKASPACE' ) );
#54 =( LENGTH_UNIT ( ) NAMED_UNIT ( * ) SI_UNIT ( .MILLI., .METRE. ) );
#55 = PRODUCT_DEFINITION_SHAPE ( 'NONE', 'NONE',  #7 ) ;
#56 = VERTEX_POINT ( 'NONE', #51 ) ;
#57 = PRODUCT_CONTEXT ( 'NONE', #52, 'mechanical' ) ;
#58 = AXIS2_PLACEMENT_3D ( 'NONE', #125, #110, #6 ) ;
#59 = PRODUCT_CONTEXT ( 'NONE', #35, 'mechanical' ) ;
#60 = APPLICATION_PROTOCOL_DEFINITION ( 'draft international standard', 'automotive_design', 1998, #52 ) ;
#61 = UNCERTAINTY_MEASURE_WITH_UNIT (LENGTH_MEASURE( 1.000000000000000082E-05 ), #54, 'distance_accuracy_value', 'NONE');
#62 = PRODUCT ( 'C4_component_override_1__vis_app1', 'C4_component_override_1__vis_app1', '', ( #57 ) ) ;
#63 = DIRECTION ( 'NONE',  ( 0.000000000000000000, 1.000000000000000000, 0.000000000000000000 ) ) ;
#64 = CARTESIAN_POINT ( 'NONE',  ( 0.000000000000000000, 0.000000000000000000, 0.000000000000000000 ) ) ;
#65 = AXIS2_PLACEMENT_3D ( 'NONE', #116, #42, #10 ) ;
#66 = ADVANCED_FACE ( 'NONE', ( #140 ), #39, .T. ) ;
#67 = ORIENTED_EDGE ( 'NONE', *, *, #4, .T. ) ;
#68 = AXIS2_PLACEMENT_3D ( 'NONE', #64, #48, #124 ) ;
#69 = DIRECTION ( 'NONE',  ( 1.000000000000000000, 0.000000000000000000, 0.000000000000000000 ) ) ;
#70 = CARTESIAN_POINT ( 'NONE',  ( 0.000000000000000000, 0.000000000000000000, 0.000000000000000000 ) ) ;
#71 = DIRECTION ( 'NONE',  ( 0.000000000000000000, 0.000000000000000000, 1.000000000000000000 ) ) ;
#72 = PRODUCT_DEFINITION_SHAPE ( 'NONE', 'NONE',  #145 ) ;
#73 = AXIS2_PLACEMENT_3D ( 'NONE', #70, #71, #12 ) ;
#74 = CLOSED_SHELL ( 'NONE', ( #83, #66, #101 ) ) ;
#75 = APPLICATION_PROTOCOL_DEFINITION ( 'draft international standard', 'automotive_design', 1998, #98 ) ;
#76 = CONTEXT_DEPENDENT_SHAPE_REPRESENTATION ( #103, #72 ) ;
#77 = DIRECTION ( 'NONE',  ( 1.000000000000000000, 0.000000000000000000, 0.000000000000000000 ) ) ;
#78 = CARTESIAN_POINT ( 'NONE',  ( 0.000000000000000000, 100.0000000000000000, 0.000000000000000000 ) ) ;
#79 = PLANE ( 'NONE',  #68 ) ;
#80 = SURFACE_STYLE_FILL_AREA ( #19 ) ;
#81 = DIRECTION ( 'NONE',  ( 0.000000000000000000, -0.000000000000000000, 1.000000000000000000 ) ) ;
#82 = DIRECTION ( 'NONE',  ( 0.000000000000000000, 1.000000000000000000, 0.000000000000000000 ) ) ;
#83 = ADVANCED_FACE ( 'NONE', ( #30, #50 ), #104, .T. ) ;
#84 = STYLED_ITEM ( 'NONE', ( #113 ), #131 ) ;
#85 = CARTESIAN_POINT ( 'NONE',  ( 0.000000000000000000, 0.000000000000000000, 50.00000000000000000 ) ) ;
#86 = DIRECTION ( 'NONE',  ( 0.000000000000000000, 0.000000000000000000, 1.000000000000000000 ) ) ;
#87 = UNCERTAINTY_MEASURE_WITH_UNIT (LENGTH_MEASURE( 1.000000000000000082E-05 ), #121, 'distance_accuracy_value', 'NONE');
#88 = MECHANICAL_DESIGN_GEOMETRIC_PRESENTATION_REPRESENTATION (  '', ( #84 ), #21 ) ;
#89 = ORIENTED_EDGE ( 'NONE', *, *, #141, .T. ) ;
#90 = ADVANCED_BREP_SHAPE_REPRESENTATION ( '', ( #131, #73 ), #53 ) ;
#91 =( LENGTH_UNIT ( ) NAMED_UNIT ( * ) SI_UNIT ( .MILLI., .METRE. ) );
#92 = VERTEX_POINT ( 'NONE', #85 ) ;
#93 = PRODUCT_RELATED_PRODUCT_CATEGORY ( 'part', '', ( #119 ) ) ;
#94 = STYLED_ITEM ( 'NONE', ( #1 ), #90 ) ;
#95 = CIRCLE ( 'NONE', #126, 50.00000000000000000 ) ;
#96 = PRODUCT_DEFINITION_SHAPE ( 'NONE', 'NONE',  #139 ) ;
#97 = APPLICATION_PROTOCOL_DEFINITION ( 'draft international standard', 'automotive_design', 1998, #118 ) ;
#98 = APPLICATION_CONTEXT ( 'automotive_design' ) ;
#99 = AXIS2_PLACEMENT_3D ( 'NONE', #137, #86, #69 ) ;
#100 = DIRECTION ( 'NONE',  ( 0.000000000000000000, 0.000000000000000000, 1.000000000000000000 ) ) ;
#101 = ADVANCED_FACE ( 'NONE', ( #40 ), #79, .F. ) ;
#102 = CARTESIAN_POINT ( 'NONE',  ( 0.000000000000000000, 100.0000000000000000, 0.000000000000000000 ) ) ;
#103 =( REPRESENTATION_RELATIONSHIP ('NONE','NONE', #9, #16 ) REPRESENTATION_RELATIONSHIP_WITH_TRANSFORMATION ( #47 )SHAPE_REPRESENTATION_RELATIONSHIP( ) );
#104 = CYLINDRICAL_SURFACE ( 'NONE', #58, 50.00000000000000000 ) ;
#105 = EDGE_LOOP ( 'NONE', ( #67 ) ) ;
#106 = FILL_AREA_STYLE ('',( #108 ) ) ;
#107 = DIRECTION ( 'NONE',  ( 0.000000000000000000, 1.000000000000000000, 0.000000000000000000 ) ) ;
#108 = FILL_AREA_STYLE_COLOUR ( '', #11 ) ;
#109 = UNCERTAINTY_MEASURE_WITH_UNIT (LENGTH_MEASURE( 1.000000000000000082E-05 ), #22, 'distance_accuracy_value', 'NONE');
#110 = DIRECTION ( 'NONE',  ( -0.000000000000000000, -1.000000000000000000, -0.000000000000000000 ) ) ;
#111 = PRESENTATION_LAYER_ASSIGNMENT (  '', '', ( #94 ) ) ;
#112 = FILL_AREA_STYLE_COLOUR ( '', #2 ) ;
#113 = PRESENTATION_STYLE_ASSIGNMENT (( #5 ) ) ;
#114 = CARTESIAN_POINT ( 'NONE',  ( 129.8588026547804475, -29.07840402331203578, -68.52472038008272648 ) ) ;
#115 = SURFACE_SIDE_STYLE ('',( #13 ) ) ;
#116 = CARTESIAN_POINT ( 'NONE',  ( 0.000000000000000000, 0.000000000000000000, 0.000000000000000000 ) ) ;
#117 = PRODUCT_DEFINITION_FORMATION_WITH_SPECIFIED_SOURCE ( 'ANY', '', #119, .NOT_KNOWN. ) ;
#118 = APPLICATION_CONTEXT ( 'automotive_design' ) ;
#119 = PRODUCT ( 'C4_part_1', 'C4_part_1', '', ( #59 ) ) ;
#120 = SURFACE_STYLE_USAGE ( .BOTH. , #115 ) ;
#121 =( LENGTH_UNIT ( ) NAMED_UNIT ( * ) SI_UNIT ( .MILLI., .METRE. ) );
#122 = PRODUCT_RELATED_PRODUCT_CATEGORY ( 'part', '', ( #62 ) ) ;
#123 =( NAMED_UNIT ( * ) SI_UNIT ( $, .STERADIAN. ) SOLID_ANGLE_UNIT ( ) );
#124 = DIRECTION ( 'NONE',  ( 0.000000000000000000, -0.000000000000000000, 1.000000000000000000 ) ) ;
#125 = CARTESIAN_POINT ( 'NONE',  ( 0.000000000000000000, 100.0000000000000000, 0.000000000000000000 ) ) ;
#126 = AXIS2_PLACEMENT_3D ( 'NONE', #78, #63, #132 ) ;
#127 = DIRECTION ( 'NONE',  ( 0.000000000000000000, 0.000000000000000000, 1.000000000000000000 ) ) ;
#128 =( NAMED_UNIT ( * ) SI_UNIT ( $, .STERADIAN. ) SOLID_ANGLE_UNIT ( ) );
#129 =( NAMED_UNIT ( * ) SI_UNIT ( $, .STERADIAN. ) SOLID_ANGLE_UNIT ( ) );
#130 = APPLICATION_PROTOCOL_DEFINITION ( 'draft international standard', 'automotive_design', 1998, #35 ) ;
#131 = MANIFOLD_SOLID_BREP ( 'Boss-Extrude1', #74 ) ;
#132 = DIRECTION ( 'NONE',  ( 0.000000000000000000, 0.000000000000000000, 1.000000000000000000 ) ) ;
#133 = ORIENTED_EDGE ( 'NONE', *, *, #141, .F. ) ;
#134 = PRODUCT_DEFINITION_CONTEXT ( 'detailed design', #98, 'design' ) ;
#135 = AXIS2_PLACEMENT_3D ( 'NONE', #15, #100, #45 ) ;
#136 = CIRCLE ( 'NONE', #24, 50.00000000000000000 ) ;
#137 = CARTESIAN_POINT ( 'NONE',  ( 0.000000000000000000, 0.000000000000000000, 0.000000000000000000 ) ) ;
#138 =( GEOMETRIC_REPRESENTATION_CONTEXT ( 3 ) GLOBAL_UNCERTAINTY_ASSIGNED_CONTEXT ( ( #87 ) ) GLOBAL_UNIT_ASSIGNED_CONTEXT ( ( #121, #36, #123 ) ) REPRESENTATION_CONTEXT ( 'NONE', 'WORKASPACE' ) );
#139 = PRODUCT_DEFINITION ( 'UNKNOWN', '', #117, #28 ) ;
#140 = FACE_OUTER_BOUND ( 'NONE', #105, .T. ) ;
#141 = EDGE_CURVE ( 'NONE', #92, #92, #136, .T. ) ;
#142 = EDGE_LOOP ( 'NONE', ( #133 ) ) ;
#143 = SURFACE_SIDE_STYLE ('',( #80 ) ) ;
#144 = AXIS2_PLACEMENT_3D ( 'NONE', #114, #27, #77 ) ;
#145 = NEXT_ASSEMBLY_USAGE_OCCURRENCE ( 'NAUO1', ' ', ' ', #7, #139, $ ) ;
#146 = NEXT_ASSEMBLY_USAGE_OCCURRENCE ( 'NAUO2', ' ', ' ', #7, #139, $ ) ;
ENDSEC;
END-ISO-10303-21;
