ISO-10303-21;
HEADER;
FILE_DESCRIPTION (( 'STEP AP214' ),
    '1' );
FILE_NAME ('C4_component_override_1__vis_app0.step',
    '2026-08-06T17:07:58',
    ( 'info@peak-design.co.uk' ),
    ( '' ),
    'SwSTEP 2.0',
    'SolidWorks 2026',
    '' );
FILE_SCHEMA (( 'AUTOMOTIVE_DESIGN' ));
ENDSEC;

DATA;
#1 = PRODUCT_DEFINITION_SHAPE ( 'NONE', 'NONE',  #21 ) ;
#2 = CIRCLE ( 'NONE', #25, 50.00000000000000000 ) ;
#3 = EDGE_LOOP ( 'NONE', ( #29 ) ) ;
#4 = DIRECTION ( 'NONE',  ( 0.000000000000000000, 1.000000000000000000, 0.000000000000000000 ) ) ;
#5 = PRODUCT_DEFINITION ( 'UNKNOWN', '', #52, #118 ) ;
#6 =( NAMED_UNIT ( * ) PLANE_ANGLE_UNIT ( ) SI_UNIT ( $, .RADIAN. ) );
#7 = ORIENTED_EDGE ( 'NONE', *, *, #127, .T. ) ;
#8 = ADVANCED_FACE ( 'NONE', ( #40 ), #76, .T. ) ;
#9 = ORIENTED_EDGE ( 'NONE', *, *, #127, .F. ) ;
#10 = DIRECTION ( 'NONE',  ( 0.000000000000000000, 0.000000000000000000, 1.000000000000000000 ) ) ;
#11 = CARTESIAN_POINT ( 'NONE',  ( 0.000000000000000000, 0.000000000000000000, 0.000000000000000000 ) ) ;
#12 =( NAMED_UNIT ( * ) SI_UNIT ( $, .STERADIAN. ) SOLID_ANGLE_UNIT ( ) );
#13 = CARTESIAN_POINT ( 'NONE',  ( 0.000000000000000000, 100.0000000000000000, 0.000000000000000000 ) ) ;
#14 = AXIS2_PLACEMENT_3D ( 'NONE', #49, #4, #124 ) ;
#15 = CARTESIAN_POINT ( 'NONE',  ( 0.000000000000000000, 100.0000000000000000, 0.000000000000000000 ) ) ;
#16 = CARTESIAN_POINT ( 'NONE',  ( 0.000000000000000000, 0.000000000000000000, 0.000000000000000000 ) ) ;
#17 = CARTESIAN_POINT ( 'NONE',  ( 0.000000000000000000, 100.0000000000000000, 0.000000000000000000 ) ) ;
#18 = SURFACE_STYLE_USAGE ( .BOTH. , #80 ) ;
#19 = DIRECTION ( 'NONE',  ( 1.000000000000000000, 0.000000000000000000, 0.000000000000000000 ) ) ;
#20 = APPLICATION_PROTOCOL_DEFINITION ( 'draft international standard', 'automotive_design', 1998, #93 ) ;
#21 = PRODUCT_DEFINITION ( 'UNKNOWN', '', #37, #39 ) ;
#22 = CARTESIAN_POINT ( 'NONE',  ( 129.8588026547804475, -29.07840402331203578, -68.52472038008272648 ) ) ;
#23 = AXIS2_PLACEMENT_3D ( 'NONE', #15, #48, #77 ) ;
#24 =( LENGTH_UNIT ( ) NAMED_UNIT ( * ) SI_UNIT ( .MILLI., .METRE. ) );
#25 = AXIS2_PLACEMENT_3D ( 'NONE', #16, #67, #56 ) ;
#26 = DIRECTION ( 'NONE',  ( 0.000000000000000000, 1.000000000000000000, 0.000000000000000000 ) ) ;
#27 = CIRCLE ( 'NONE', #73, 50.00000000000000000 ) ;
#28 = EDGE_LOOP ( 'NONE', ( #125 ) ) ;
#29 = ORIENTED_EDGE ( 'NONE', *, *, #60, .F. ) ;
#30 = FILL_AREA_STYLE ('',( #113 ) ) ;
#31 = DIRECTION ( 'NONE',  ( 1.000000000000000000, 0.000000000000000000, 0.000000000000000000 ) ) ;
#32 = CARTESIAN_POINT ( 'NONE',  ( 0.000000000000000000, 0.000000000000000000, 0.000000000000000000 ) ) ;
#33 = AXIS2_PLACEMENT_3D ( 'NONE', #11, #44, #106 ) ;
#34 = APPLICATION_PROTOCOL_DEFINITION ( 'draft international standard', 'automotive_design', 1998, #114 ) ;
#35 = CONTEXT_DEPENDENT_SHAPE_REPRESENTATION ( #78, #86 ) ;
#36 = MANIFOLD_SOLID_BREP ( 'Boss-Extrude1', #100 ) ;
#37 = PRODUCT_DEFINITION_FORMATION_WITH_SPECIFIED_SOURCE ( 'ANY', '', #53, .NOT_KNOWN. ) ;
#38 = SURFACE_STYLE_FILL_AREA ( #30 ) ;
#39 = PRODUCT_DEFINITION_CONTEXT ( 'detailed design', #103, 'design' ) ;
#40 = FACE_OUTER_BOUND ( 'NONE', #28, .T. ) ;
#41 = VERTEX_POINT ( 'NONE', #116 ) ;
#42 = CARTESIAN_POINT ( 'NONE',  ( 0.000000000000000000, 100.0000000000000000, 50.00000000000000000 ) ) ;
#43 = ITEM_DEFINED_TRANSFORMATION ( 'NONE', 'NONE', #120,  #33 ) ;
#44 = DIRECTION ( 'NONE',  ( 0.000000000000000000, 0.000000000000000000, 1.000000000000000000 ) ) ;
#45 = AXIS2_PLACEMENT_3D ( 'NONE', #22, #99, #83 ) ;
#46 = STYLED_ITEM ( 'NONE', ( #123 ), #36 ) ;
#47 =( NAMED_UNIT ( * ) SI_UNIT ( $, .STERADIAN. ) SOLID_ANGLE_UNIT ( ) );
#48 = DIRECTION ( 'NONE',  ( -0.000000000000000000, -1.000000000000000000, -0.000000000000000000 ) ) ;
#49 = CARTESIAN_POINT ( 'NONE',  ( 0.000000000000000000, 0.000000000000000000, 0.000000000000000000 ) ) ;
#50 = UNCERTAINTY_MEASURE_WITH_UNIT (LENGTH_MEASURE( 1.000000000000000082E-05 ), #24, 'distance_accuracy_value', 'NONE');
#51 = DIRECTION ( 'NONE',  ( 0.000000000000000000, 0.000000000000000000, 1.000000000000000000 ) ) ;
#52 = PRODUCT_DEFINITION_FORMATION_WITH_SPECIFIED_SOURCE ( 'ANY', '', #101, .NOT_KNOWN. ) ;
#53 = PRODUCT ( 'C4_part_1', 'C4_part_1', '', ( #89 ) ) ;
#54 = FACE_OUTER_BOUND ( 'NONE', #3, .T. ) ;
#55 = AXIS2_PLACEMENT_3D ( 'NONE', #17, #57, #111 ) ;
#56 = DIRECTION ( 'NONE',  ( 0.000000000000000000, 0.000000000000000000, 1.000000000000000000 ) ) ;
#57 = DIRECTION ( 'NONE',  ( 0.000000000000000000, 1.000000000000000000, 0.000000000000000000 ) ) ;
#58 = PRODUCT_DEFINITION_SHAPE ( 'NONE', 'NONE',  #5 ) ;
#59 = UNCERTAINTY_MEASURE_WITH_UNIT (LENGTH_MEASURE( 1.000000000000000082E-05 ), #71, 'distance_accuracy_value', 'NONE');
#60 = EDGE_CURVE ( 'NONE', #62, #62, #27, .T. ) ;
#61 =( LENGTH_UNIT ( ) NAMED_UNIT ( * ) SI_UNIT ( .MILLI., .METRE. ) );
#62 = VERTEX_POINT ( 'NONE', #42 ) ;
#63 = APPLICATION_CONTEXT ( 'automotive_design' ) ;
#64 = PRODUCT_DEFINITION_SHAPE ( 'NONE', 'NONE',  #131 ) ;
#65 =( GEOMETRIC_REPRESENTATION_CONTEXT ( 3 ) GLOBAL_UNCERTAINTY_ASSIGNED_CONTEXT ( ( #69 ) ) GLOBAL_UNIT_ASSIGNED_CONTEXT ( ( #61, #95, #82 ) ) REPRESENTATION_CONTEXT ( 'NONE', 'WORKASPACE' ) );
#66 = FACE_OUTER_BOUND ( 'NONE', #121, .T. ) ;
#67 = DIRECTION ( 'NONE',  ( 0.000000000000000000, 1.000000000000000000, 0.000000000000000000 ) ) ;
#68 = PRODUCT_RELATED_PRODUCT_CATEGORY ( 'part', '', ( #101 ) ) ;
#69 = UNCERTAINTY_MEASURE_WITH_UNIT (LENGTH_MEASURE( 1.000000000000000082E-05 ), #61, 'distance_accuracy_value', 'NONE');
#70 = APPLICATION_PROTOCOL_DEFINITION ( 'draft international standard', 'automotive_design', 1998, #63 ) ;
#71 =( LENGTH_UNIT ( ) NAMED_UNIT ( * ) SI_UNIT ( .MILLI., .METRE. ) );
#72 = ADVANCED_FACE ( 'NONE', ( #105 ), #104, .F. ) ;
#73 = AXIS2_PLACEMENT_3D ( 'NONE', #13, #26, #112 ) ;
#74 = ITEM_DEFINED_TRANSFORMATION ( 'NONE', 'NONE', #45,  #33 ) ;
#75 = SHAPE_REPRESENTATION ( 'C4_part_1', ( #33 ), #96 ) ;
#76 = PLANE ( 'NONE',  #55 ) ;
#77 = DIRECTION ( 'NONE',  ( 0.000000000000000000, 0.000000000000000000, -1.000000000000000000 ) ) ;
#78 =( REPRESENTATION_RELATIONSHIP ('NONE','NONE', #94, #75 ) REPRESENTATION_RELATIONSHIP_WITH_TRANSFORMATION ( #43 )SHAPE_REPRESENTATION_RELATIONSHIP( ) );
#79 = EDGE_LOOP ( 'NONE', ( #9 ) ) ;
#80 = SURFACE_SIDE_STYLE ('',( #38 ) ) ;
#81 = MECHANICAL_DESIGN_GEOMETRIC_PRESENTATION_REPRESENTATION (  '', ( #46 ), #85 ) ;
#82 =( NAMED_UNIT ( * ) SI_UNIT ( $, .STERADIAN. ) SOLID_ANGLE_UNIT ( ) );
#83 = DIRECTION ( 'NONE',  ( 1.000000000000000000, 0.000000000000000000, 0.000000000000000000 ) ) ;
#84 = ADVANCED_BREP_SHAPE_REPRESENTATION ( '', ( #36, #33 ), #96 ) ;
#85 =( GEOMETRIC_REPRESENTATION_CONTEXT ( 3 ) GLOBAL_UNCERTAINTY_ASSIGNED_CONTEXT ( ( #50 ) ) GLOBAL_UNIT_ASSIGNED_CONTEXT ( ( #24, #6, #47 ) ) REPRESENTATION_CONTEXT ( 'NONE', 'WORKASPACE' ) );
#86 = PRODUCT_DEFINITION_SHAPE ( 'NONE', 'NONE',  #130 ) ;
#87 = COLOUR_RGB ( '',0.7921568627450980005, 0.8196078431372548767, 0.9333333333333333481 ) ;
#88 = DIRECTION ( 'NONE',  ( 0.000000000000000000, 0.000000000000000000, 1.000000000000000000 ) ) ;
#89 = PRODUCT_CONTEXT ( 'NONE', #114, 'mechanical' ) ;
#90 = APPLICATION_PROTOCOL_DEFINITION ( 'draft international standard', 'automotive_design', 1998, #103 ) ;
#91 = CARTESIAN_POINT ( 'NONE',  ( 0.000000000000000000, 0.000000000000000000, 0.000000000000000000 ) ) ;
#92 = SHAPE_DEFINITION_REPRESENTATION ( #1, #75 ) ;
#93 = APPLICATION_CONTEXT ( 'automotive_design' ) ;
#94 = SHAPE_REPRESENTATION ( 'C4_component_override_1__vis_app0', ( #129, #120, #45 ), #65 ) ;
#95 =( NAMED_UNIT ( * ) PLANE_ANGLE_UNIT ( ) SI_UNIT ( $, .RADIAN. ) );
#96 =( GEOMETRIC_REPRESENTATION_CONTEXT ( 3 ) GLOBAL_UNCERTAINTY_ASSIGNED_CONTEXT ( ( #59 ) ) GLOBAL_UNIT_ASSIGNED_CONTEXT ( ( #71, #108, #12 ) ) REPRESENTATION_CONTEXT ( 'NONE', 'WORKASPACE' ) );
#97 = CARTESIAN_POINT ( 'NONE',  ( 0.000000000000000000, 0.000000000000000000, 0.000000000000000000 ) ) ;
#98 = ADVANCED_FACE ( 'NONE', ( #54, #66 ), #102, .T. ) ;
#99 = DIRECTION ( 'NONE',  ( 0.000000000000000000, 0.000000000000000000, 1.000000000000000000 ) ) ;
#100 = CLOSED_SHELL ( 'NONE', ( #98, #8, #72 ) ) ;
#101 = PRODUCT ( 'C4_component_override_1__vis_app0', 'C4_component_override_1__vis_app0', '', ( #117 ) ) ;
#102 = CYLINDRICAL_SURFACE ( 'NONE', #23, 50.00000000000000000 ) ;
#103 = APPLICATION_CONTEXT ( 'automotive_design' ) ;
#104 = PLANE ( 'NONE',  #14 ) ;
#105 = FACE_OUTER_BOUND ( 'NONE', #79, .T. ) ;
#106 = DIRECTION ( 'NONE',  ( 1.000000000000000000, 0.000000000000000000, 0.000000000000000000 ) ) ;
#107 = SHAPE_DEFINITION_REPRESENTATION ( #58, #94 ) ;
#108 =( NAMED_UNIT ( * ) PLANE_ANGLE_UNIT ( ) SI_UNIT ( $, .RADIAN. ) );
#109 = CONTEXT_DEPENDENT_SHAPE_REPRESENTATION ( #110, #64 ) ;
#110 =( REPRESENTATION_RELATIONSHIP ('NONE','NONE', #94, #75 ) REPRESENTATION_RELATIONSHIP_WITH_TRANSFORMATION ( #74 )SHAPE_REPRESENTATION_RELATIONSHIP( ) );
#111 = DIRECTION ( 'NONE',  ( 0.000000000000000000, -0.000000000000000000, 1.000000000000000000 ) ) ;
#112 = DIRECTION ( 'NONE',  ( 0.000000000000000000, 0.000000000000000000, 1.000000000000000000 ) ) ;
#113 = FILL_AREA_STYLE_COLOUR ( '', #87 ) ;
#114 = APPLICATION_CONTEXT ( 'automotive_design' ) ;
#115 = PRESENTATION_LAYER_ASSIGNMENT (  '', '', ( #46 ) ) ;
#116 = CARTESIAN_POINT ( 'NONE',  ( 0.000000000000000000, 0.000000000000000000, 50.00000000000000000 ) ) ;
#117 = PRODUCT_CONTEXT ( 'NONE', #93, 'mechanical' ) ;
#118 = PRODUCT_DEFINITION_CONTEXT ( 'detailed design', #63, 'design' ) ;
#119 = AXIS2_PLACEMENT_3D ( 'NONE', #32, #51, #19 ) ;
#120 = AXIS2_PLACEMENT_3D ( 'NONE', #91, #10, #31 ) ;
#121 = EDGE_LOOP ( 'NONE', ( #7 ) ) ;
#122 = PRODUCT_RELATED_PRODUCT_CATEGORY ( 'part', '', ( #53 ) ) ;
#123 = PRESENTATION_STYLE_ASSIGNMENT (( #18 ) ) ;
#124 = DIRECTION ( 'NONE',  ( 0.000000000000000000, -0.000000000000000000, 1.000000000000000000 ) ) ;
#125 = ORIENTED_EDGE ( 'NONE', *, *, #60, .T. ) ;
#126 = DIRECTION ( 'NONE',  ( 1.000000000000000000, 0.000000000000000000, 0.000000000000000000 ) ) ;
#127 = EDGE_CURVE ( 'NONE', #41, #41, #2, .T. ) ;
#128 = SHAPE_REPRESENTATION_RELATIONSHIP ( 'NONE' , 'NONE' ,  #75, #84 ) ;
#129 = AXIS2_PLACEMENT_3D ( 'NONE', #97, #88, #126 ) ;
#130 = NEXT_ASSEMBLY_USAGE_OCCURRENCE ( 'NAUO1', ' ', ' ', #5, #21, $ ) ;
#131 = NEXT_ASSEMBLY_USAGE_OCCURRENCE ( 'NAUO2', ' ', ' ', #5, #21, $ ) ;
ENDSEC;
END-ISO-10303-21;
