ISO-10303-21;
HEADER;
FILE_DESCRIPTION (( 'STEP AP214' ),
    '1' );
FILE_NAME ('C4_component_override_2__hid_app1.step',
    '2026-08-06T17:03:15',
    ( 'info@peak-design.co.uk' ),
    ( '' ),
    'SwSTEP 2.0',
    'SolidWorks 2026',
    '' );
FILE_SCHEMA (( 'AUTOMOTIVE_DESIGN' ));
ENDSEC;

DATA;
#1 = APPLICATION_CONTEXT ( 'automotive_design' ) ;
#2 = FACE_OUTER_BOUND ( 'NONE', #111, .T. ) ;
#3 = SHAPE_REPRESENTATION ( 'C4_part_1', ( #126 ), #11 ) ;
#4 =( GEOMETRIC_REPRESENTATION_CONTEXT ( 3 ) GLOBAL_UNCERTAINTY_ASSIGNED_CONTEXT ( ( #14 ) ) GLOBAL_UNIT_ASSIGNED_CONTEXT ( ( #39, #67, #133 ) ) REPRESENTATION_CONTEXT ( 'NONE', 'WORKASPACE' ) );
#5 = PRODUCT_DEFINITION_CONTEXT ( 'detailed design', #1, 'design' ) ;
#6 = PLANE ( 'NONE',  #20 ) ;
#7 = STYLED_ITEM ( 'NONE', ( #122 ), #123 ) ;
#8 = SURFACE_STYLE_FILL_AREA ( #135 ) ;
#9 =( NAMED_UNIT ( * ) PLANE_ANGLE_UNIT ( ) SI_UNIT ( $, .RADIAN. ) );
#10 = DIRECTION ( 'NONE',  ( 0.000000000000000000, 0.000000000000000000, 1.000000000000000000 ) ) ;
#11 =( GEOMETRIC_REPRESENTATION_CONTEXT ( 3 ) GLOBAL_UNCERTAINTY_ASSIGNED_CONTEXT ( ( #77 ) ) GLOBAL_UNIT_ASSIGNED_CONTEXT ( ( #124, #9, #18 ) ) REPRESENTATION_CONTEXT ( 'NONE', 'WORKASPACE' ) );
#12 = APPLICATION_PROTOCOL_DEFINITION ( 'draft international standard', 'automotive_design', 1998, #1 ) ;
#13 = CARTESIAN_POINT ( 'NONE',  ( 0.000000000000000000, 0.000000000000000000, 0.000000000000000000 ) ) ;
#14 = UNCERTAINTY_MEASURE_WITH_UNIT (LENGTH_MEASURE( 1.000000000000000082E-05 ), #39, 'distance_accuracy_value', 'NONE');
#15 = PRODUCT_DEFINITION ( 'UNKNOWN', '', #128, #120 ) ;
#16 = SURFACE_SIDE_STYLE ('',( #98 ) ) ;
#17 =( NAMED_UNIT ( * ) SI_UNIT ( $, .STERADIAN. ) SOLID_ANGLE_UNIT ( ) );
#18 =( NAMED_UNIT ( * ) SI_UNIT ( $, .STERADIAN. ) SOLID_ANGLE_UNIT ( ) );
#19 =( GEOMETRIC_REPRESENTATION_CONTEXT ( 3 ) GLOBAL_UNCERTAINTY_ASSIGNED_CONTEXT ( ( #47 ) ) GLOBAL_UNIT_ASSIGNED_CONTEXT ( ( #90, #36, #17 ) ) REPRESENTATION_CONTEXT ( 'NONE', 'WORKASPACE' ) );
#20 = AXIS2_PLACEMENT_3D ( 'NONE', #71, #131, #86 ) ;
#21 = CARTESIAN_POINT ( 'NONE',  ( 0.000000000000000000, 100.0000000000000000, 0.000000000000000000 ) ) ;
#22 = AXIS2_PLACEMENT_3D ( 'NONE', #58, #44, #93 ) ;
#23 = ADVANCED_FACE ( 'NONE', ( #2 ), #6, .T. ) ;
#24 = CARTESIAN_POINT ( 'NONE',  ( 0.000000000000000000, 0.000000000000000000, 50.00000000000000000 ) ) ;
#25 = SHAPE_DEFINITION_REPRESENTATION ( #85, #3 ) ;
#26 = APPLICATION_CONTEXT ( 'automotive_design' ) ;
#27 = MECHANICAL_DESIGN_GEOMETRIC_PRESENTATION_REPRESENTATION (  '', ( #7 ), #19 ) ;
#28 = PRODUCT ( 'C4_component_override_2__hid_app1', 'C4_component_override_2__hid_app1', '', ( #127 ) ) ;
#29 = APPLICATION_PROTOCOL_DEFINITION ( 'draft international standard', 'automotive_design', 1998, #51 ) ;
#30 = FACE_OUTER_BOUND ( 'NONE', #103, .T. ) ;
#31 = CARTESIAN_POINT ( 'NONE',  ( 0.000000000000000000, 0.000000000000000000, 0.000000000000000000 ) ) ;
#32 = PRODUCT ( 'C4_part_1', 'C4_part_1', '', ( #50 ) ) ;
#33 = DIRECTION ( 'NONE',  ( 0.000000000000000000, -0.000000000000000000, 1.000000000000000000 ) ) ;
#34 = VERTEX_POINT ( 'NONE', #24 ) ;
#35 = AXIS2_PLACEMENT_3D ( 'NONE', #108, #136, #100 ) ;
#36 =( NAMED_UNIT ( * ) PLANE_ANGLE_UNIT ( ) SI_UNIT ( $, .RADIAN. ) );
#37 = ADVANCED_FACE ( 'NONE', ( #94 ), #132, .F. ) ;
#38 = PRESENTATION_LAYER_ASSIGNMENT (  '', '', ( #7 ) ) ;
#39 =( LENGTH_UNIT ( ) NAMED_UNIT ( * ) SI_UNIT ( .MILLI., .METRE. ) );
#40 = CARTESIAN_POINT ( 'NONE',  ( 0.000000000000000000, 0.000000000000000000, 0.000000000000000000 ) ) ;
#41 =( NAMED_UNIT ( * ) PLANE_ANGLE_UNIT ( ) SI_UNIT ( $, .RADIAN. ) );
#42 = PRODUCT_DEFINITION_SHAPE ( 'NONE', 'NONE',  #137 ) ;
#43 =( NAMED_UNIT ( * ) SI_UNIT ( $, .STERADIAN. ) SOLID_ANGLE_UNIT ( ) );
#44 = DIRECTION ( 'NONE',  ( -0.000000000000000000, -1.000000000000000000, -0.000000000000000000 ) ) ;
#45 = ORIENTED_EDGE ( 'NONE', *, *, #84, .F. ) ;
#46 = FACE_OUTER_BOUND ( 'NONE', #60, .T. ) ;
#47 = UNCERTAINTY_MEASURE_WITH_UNIT (LENGTH_MEASURE( 1.000000000000000082E-05 ), #90, 'distance_accuracy_value', 'NONE');
#48 = AXIS2_PLACEMENT_3D ( 'NONE', #134, #10, #130 ) ;
#49 = DIRECTION ( 'NONE',  ( 0.000000000000000000, 0.000000000000000000, 1.000000000000000000 ) ) ;
#50 = PRODUCT_CONTEXT ( 'NONE', #51, 'mechanical' ) ;
#51 = APPLICATION_CONTEXT ( 'automotive_design' ) ;
#52 = PRODUCT_DEFINITION ( 'UNKNOWN', '', #116, #5 ) ;
#53 = PRODUCT_DEFINITION_SHAPE ( 'NONE', 'NONE',  #52 ) ;
#54 = CLOSED_SHELL ( 'NONE', ( #65, #23, #37 ) ) ;
#55 = DIRECTION ( 'NONE',  ( 0.000000000000000000, 0.000000000000000000, 1.000000000000000000 ) ) ;
#56 = EDGE_CURVE ( 'NONE', #97, #97, #117, .T. ) ;
#57 =( LENGTH_UNIT ( ) NAMED_UNIT ( * ) SI_UNIT ( .MILLI., .METRE. ) );
#58 = CARTESIAN_POINT ( 'NONE',  ( 0.000000000000000000, 100.0000000000000000, 0.000000000000000000 ) ) ;
#59 = UNCERTAINTY_MEASURE_WITH_UNIT (LENGTH_MEASURE( 1.000000000000000082E-05 ), #57, 'distance_accuracy_value', 'NONE');
#60 = EDGE_LOOP ( 'NONE', ( #73 ) ) ;
#61 = EDGE_LOOP ( 'NONE', ( #45 ) ) ;
#62 = AXIS2_PLACEMENT_3D ( 'NONE', #40, #55, #99 ) ;
#63 = APPLICATION_CONTEXT ( 'automotive_design' ) ;
#64 = CARTESIAN_POINT ( 'NONE',  ( 0.000000000000000000, 0.000000000000000000, 0.000000000000000000 ) ) ;
#65 = ADVANCED_FACE ( 'NONE', ( #46, #30 ), #81, .T. ) ;
#66 = CARTESIAN_POINT ( 'NONE',  ( 0.000000000000000000, 100.0000000000000000, 50.00000000000000000 ) ) ;
#67 =( NAMED_UNIT ( * ) PLANE_ANGLE_UNIT ( ) SI_UNIT ( $, .RADIAN. ) );
#68 = SHAPE_REPRESENTATION ( 'C4_component_override_2__hid_app1', ( #35, #62 ), #101 ) ;
#69 = PRODUCT_RELATED_PRODUCT_CATEGORY ( 'part', '', ( #28 ) ) ;
#70 = APPLICATION_PROTOCOL_DEFINITION ( 'draft international standard', 'automotive_design', 1998, #63 ) ;
#71 = CARTESIAN_POINT ( 'NONE',  ( 0.000000000000000000, 100.0000000000000000, 0.000000000000000000 ) ) ;
#72 = DIRECTION ( 'NONE',  ( 0.000000000000000000, 0.000000000000000000, 1.000000000000000000 ) ) ;
#73 = ORIENTED_EDGE ( 'NONE', *, *, #56, .F. ) ;
#74 = AXIS2_PLACEMENT_3D ( 'NONE', #21, #76, #118 ) ;
#75 = STYLED_ITEM ( 'NONE', ( #105 ), #80 ) ;
#76 = DIRECTION ( 'NONE',  ( 0.000000000000000000, 1.000000000000000000, 0.000000000000000000 ) ) ;
#77 = UNCERTAINTY_MEASURE_WITH_UNIT (LENGTH_MEASURE( 1.000000000000000082E-05 ), #124, 'distance_accuracy_value', 'NONE');
#78 = SURFACE_STYLE_USAGE ( .BOTH. , #88 ) ;
#79 = AXIS2_PLACEMENT_3D ( 'NONE', #31, #83, #72 ) ;
#80 = ADVANCED_BREP_SHAPE_REPRESENTATION ( '', ( #123, #126 ), #11 ) ;
#81 = CYLINDRICAL_SURFACE ( 'NONE', #22, 50.00000000000000000 ) ;
#82 = ITEM_DEFINED_TRANSFORMATION ( 'NONE', 'NONE', #62,  #126 ) ;
#83 = DIRECTION ( 'NONE',  ( 0.000000000000000000, 1.000000000000000000, 0.000000000000000000 ) ) ;
#84 = EDGE_CURVE ( 'NONE', #34, #34, #96, .T. ) ;
#85 = PRODUCT_DEFINITION_SHAPE ( 'NONE', 'NONE',  #15 ) ;
#86 = DIRECTION ( 'NONE',  ( 0.000000000000000000, -0.000000000000000000, 1.000000000000000000 ) ) ;
#87 = MECHANICAL_DESIGN_GEOMETRIC_PRESENTATION_REPRESENTATION (  '', ( #75 ), #4 ) ;
#88 = SURFACE_SIDE_STYLE ('',( #8 ) ) ;
#89 = FILL_AREA_STYLE ('',( #113 ) ) ;
#90 =( LENGTH_UNIT ( ) NAMED_UNIT ( * ) SI_UNIT ( .MILLI., .METRE. ) );
#91 = APPLICATION_PROTOCOL_DEFINITION ( 'draft international standard', 'automotive_design', 1998, #26 ) ;
#92 = CONTEXT_DEPENDENT_SHAPE_REPRESENTATION ( #119, #42 ) ;
#93 = DIRECTION ( 'NONE',  ( 0.000000000000000000, 0.000000000000000000, -1.000000000000000000 ) ) ;
#94 = FACE_OUTER_BOUND ( 'NONE', #61, .T. ) ;
#95 = AXIS2_PLACEMENT_3D ( 'NONE', #13, #109, #33 ) ;
#96 = CIRCLE ( 'NONE', #79, 50.00000000000000000 ) ;
#97 = VERTEX_POINT ( 'NONE', #66 ) ;
#98 = SURFACE_STYLE_FILL_AREA ( #89 ) ;
#99 = DIRECTION ( 'NONE',  ( 1.000000000000000000, 0.000000000000000000, 0.000000000000000000 ) ) ;
#100 = DIRECTION ( 'NONE',  ( 1.000000000000000000, 0.000000000000000000, 0.000000000000000000 ) ) ;
#101 =( GEOMETRIC_REPRESENTATION_CONTEXT ( 3 ) GLOBAL_UNCERTAINTY_ASSIGNED_CONTEXT ( ( #59 ) ) GLOBAL_UNIT_ASSIGNED_CONTEXT ( ( #57, #41, #43 ) ) REPRESENTATION_CONTEXT ( 'NONE', 'WORKASPACE' ) );
#102 = ORIENTED_EDGE ( 'NONE', *, *, #56, .T. ) ;
#103 = EDGE_LOOP ( 'NONE', ( #110 ) ) ;
#104 = DIRECTION ( 'NONE',  ( 1.000000000000000000, 0.000000000000000000, 0.000000000000000000 ) ) ;
#105 = PRESENTATION_STYLE_ASSIGNMENT (( #78 ) ) ;
#106 = COLOUR_RGB ( '',1.000000000000000000, 0.000000000000000000, 0.000000000000000000 ) ;
#107 = SHAPE_DEFINITION_REPRESENTATION ( #53, #68 ) ;
#108 = CARTESIAN_POINT ( 'NONE',  ( 0.000000000000000000, 0.000000000000000000, 0.000000000000000000 ) ) ;
#109 = DIRECTION ( 'NONE',  ( 0.000000000000000000, 1.000000000000000000, 0.000000000000000000 ) ) ;
#110 = ORIENTED_EDGE ( 'NONE', *, *, #84, .T. ) ;
#111 = EDGE_LOOP ( 'NONE', ( #102 ) ) ;
#112 = SHAPE_REPRESENTATION_RELATIONSHIP ( 'NONE' , 'NONE' ,  #3, #80 ) ;
#113 = FILL_AREA_STYLE_COLOUR ( '', #106 ) ;
#114 = COLOUR_RGB ( '',0.9098039215686274384, 0.4431372549019607643, 0.03137254901960784270 ) ;
#115 = FILL_AREA_STYLE_COLOUR ( '', #114 ) ;
#116 = PRODUCT_DEFINITION_FORMATION_WITH_SPECIFIED_SOURCE ( 'ANY', '', #28, .NOT_KNOWN. ) ;
#117 = CIRCLE ( 'NONE', #74, 50.00000000000000000 ) ;
#118 = DIRECTION ( 'NONE',  ( 0.000000000000000000, 0.000000000000000000, 1.000000000000000000 ) ) ;
#119 =( REPRESENTATION_RELATIONSHIP ('NONE','NONE', #68, #3 ) REPRESENTATION_RELATIONSHIP_WITH_TRANSFORMATION ( #82 )SHAPE_REPRESENTATION_RELATIONSHIP( ) );
#120 = PRODUCT_DEFINITION_CONTEXT ( 'detailed design', #63, 'design' ) ;
#121 = PRESENTATION_LAYER_ASSIGNMENT (  '', '', ( #75 ) ) ;
#122 = PRESENTATION_STYLE_ASSIGNMENT (( #125 ) ) ;
#123 = MANIFOLD_SOLID_BREP ( 'Boss-Extrude1', #54 ) ;
#124 =( LENGTH_UNIT ( ) NAMED_UNIT ( * ) SI_UNIT ( .MILLI., .METRE. ) );
#125 = SURFACE_STYLE_USAGE ( .BOTH. , #16 ) ;
#126 = AXIS2_PLACEMENT_3D ( 'NONE', #64, #49, #104 ) ;
#127 = PRODUCT_CONTEXT ( 'NONE', #26, 'mechanical' ) ;
#128 = PRODUCT_DEFINITION_FORMATION_WITH_SPECIFIED_SOURCE ( 'ANY', '', #32, .NOT_KNOWN. ) ;
#129 = PRODUCT_RELATED_PRODUCT_CATEGORY ( 'part', '', ( #32 ) ) ;
#130 = DIRECTION ( 'NONE',  ( 1.000000000000000000, 0.000000000000000000, 0.000000000000000000 ) ) ;
#131 = DIRECTION ( 'NONE',  ( 0.000000000000000000, 1.000000000000000000, 0.000000000000000000 ) ) ;
#132 = PLANE ( 'NONE',  #95 ) ;
#133 =( NAMED_UNIT ( * ) SI_UNIT ( $, .STERADIAN. ) SOLID_ANGLE_UNIT ( ) );
#134 = CARTESIAN_POINT ( 'NONE',  ( 0.000000000000000000, 0.000000000000000000, 0.000000000000000000 ) ) ;
#135 = FILL_AREA_STYLE ('',( #115 ) ) ;
#136 = DIRECTION ( 'NONE',  ( 0.000000000000000000, 0.000000000000000000, 1.000000000000000000 ) ) ;
#137 = NEXT_ASSEMBLY_USAGE_OCCURRENCE ( 'NAUO1', ' ', ' ', #52, #15, $ ) ;
ENDSEC;
END-ISO-10303-21;
