ISO-10303-21;
HEADER;
FILE_DESCRIPTION (( 'STEP AP214' ),
    '1' );
FILE_NAME ('C5_display_states__vis_app1.step',
    '2026-08-06T17:03:21',
    ( 'info@peak-design.co.uk' ),
    ( '' ),
    'SwSTEP 2.0',
    'SolidWorks 2026',
    '' );
FILE_SCHEMA (( 'AUTOMOTIVE_DESIGN' ));
ENDSEC;

DATA;
#1 = CARTESIAN_POINT ( 'NONE',  ( 0.000000000000000000, 0.000000000000000000, 0.000000000000000000 ) ) ;
#2 = COLOUR_RGB ( '',0.9098039215686274384, 0.4431372549019607643, 0.03137254901960784270 ) ;
#3 = ADVANCED_BREP_SHAPE_REPRESENTATION ( '', ( #31, #46 ), #89 ) ;
#4 = CARTESIAN_POINT ( 'NONE',  ( 0.000000000000000000, 0.000000000000000000, 0.000000000000000000 ) ) ;
#5 = SHAPE_REPRESENTATION_RELATIONSHIP ( 'NONE' , 'NONE' ,  #20, #3 ) ;
#6 = PRODUCT_RELATED_PRODUCT_CATEGORY ( 'part', '', ( #105 ) ) ;
#7 = PLANE ( 'NONE',  #119 ) ;
#8 = DIRECTION ( 'NONE',  ( 0.000000000000000000, 0.000000000000000000, 1.000000000000000000 ) ) ;
#9 = CARTESIAN_POINT ( 'NONE',  ( 0.000000000000000000, 0.000000000000000000, 0.000000000000000000 ) ) ;
#10 = MECHANICAL_DESIGN_GEOMETRIC_PRESENTATION_REPRESENTATION (  '', ( #109 ), #131 ) ;
#11 = DIRECTION ( 'NONE',  ( 1.000000000000000000, 0.000000000000000000, 0.000000000000000000 ) ) ;
#12 = CONTEXT_DEPENDENT_SHAPE_REPRESENTATION ( #92, #142 ) ;
#13 = SHAPE_DEFINITION_REPRESENTATION ( #82, #118 ) ;
#14 = SURFACE_STYLE_USAGE ( .BOTH. , #121 ) ;
#15 =( NAMED_UNIT ( * ) SI_UNIT ( $, .STERADIAN. ) SOLID_ANGLE_UNIT ( ) );
#16 = FILL_AREA_STYLE_COLOUR ( '', #2 ) ;
#17 = MECHANICAL_DESIGN_GEOMETRIC_PRESENTATION_REPRESENTATION (  '', ( #101 ), #106 ) ;
#18 = CARTESIAN_POINT ( 'NONE',  ( 0.000000000000000000, 0.000000000000000000, 50.00000000000000000 ) ) ;
#19 = ITEM_DEFINED_TRANSFORMATION ( 'NONE', 'NONE', #60,  #46 ) ;
#20 = SHAPE_REPRESENTATION ( 'C4_part_1', ( #46 ), #89 ) ;
#21 = APPLICATION_CONTEXT ( 'automotive_design' ) ;
#22 = EDGE_LOOP ( 'NONE', ( #36 ) ) ;
#23 = UNCERTAINTY_MEASURE_WITH_UNIT (LENGTH_MEASURE( 1.000000000000000082E-05 ), #52, 'distance_accuracy_value', 'NONE');
#24 = FACE_OUTER_BOUND ( 'NONE', #108, .T. ) ;
#25 = ADVANCED_FACE ( 'NONE', ( #24 ), #96, .F. ) ;
#26 = CYLINDRICAL_SURFACE ( 'NONE', #72, 50.00000000000000000 ) ;
#27 = PRODUCT_DEFINITION ( 'UNKNOWN', '', #67, #73 ) ;
#28 = DIRECTION ( 'NONE',  ( 0.000000000000000000, -0.000000000000000000, 1.000000000000000000 ) ) ;
#29 = DIRECTION ( 'NONE',  ( 0.000000000000000000, 0.000000000000000000, 1.000000000000000000 ) ) ;
#30 = SURFACE_SIDE_STYLE ('',( #69 ) ) ;
#31 = MANIFOLD_SOLID_BREP ( 'Boss-Extrude1', #115 ) ;
#32 = AXIS2_PLACEMENT_3D ( 'NONE', #141, #70, #143 ) ;
#33 = APPLICATION_PROTOCOL_DEFINITION ( 'draft international standard', 'automotive_design', 1998, #140 ) ;
#34 = PRODUCT_DEFINITION_SHAPE ( 'NONE', 'NONE',  #145 ) ;
#35 = CIRCLE ( 'NONE', #64, 50.00000000000000000 ) ;
#36 = ORIENTED_EDGE ( 'NONE', *, *, #104, .T. ) ;
#37 = AXIS2_PLACEMENT_3D ( 'NONE', #114, #102, #103 ) ;
#38 = PRESENTATION_STYLE_ASSIGNMENT (( #14 ) ) ;
#39 = FACE_OUTER_BOUND ( 'NONE', #129, .T. ) ;
#40 = APPLICATION_CONTEXT ( 'automotive_design' ) ;
#41 = FACE_OUTER_BOUND ( 'NONE', #74, .T. ) ;
#42 = PRODUCT_DEFINITION ( 'UNKNOWN', '', #48, #53 ) ;
#43 = SURFACE_STYLE_USAGE ( .BOTH. , #30 ) ;
#44 = CARTESIAN_POINT ( 'NONE',  ( 0.000000000000000000, 100.0000000000000000, 0.000000000000000000 ) ) ;
#45 = ITEM_DEFINED_TRANSFORMATION ( 'NONE', 'NONE', #123,  #46 ) ;
#46 = AXIS2_PLACEMENT_3D ( 'NONE', #9, #77, #133 ) ;
#47 =( NAMED_UNIT ( * ) SI_UNIT ( $, .STERADIAN. ) SOLID_ANGLE_UNIT ( ) );
#48 = PRODUCT_DEFINITION_FORMATION_WITH_SPECIFIED_SOURCE ( 'ANY', '', #71, .NOT_KNOWN. ) ;
#49 = FILL_AREA_STYLE_COLOUR ( '', #94 ) ;
#50 = AXIS2_PLACEMENT_3D ( 'NONE', #1, #139, #59 ) ;
#51 = DIRECTION ( 'NONE',  ( 0.000000000000000000, 0.000000000000000000, -1.000000000000000000 ) ) ;
#52 =( LENGTH_UNIT ( ) NAMED_UNIT ( * ) SI_UNIT ( .MILLI., .METRE. ) );
#53 = PRODUCT_DEFINITION_CONTEXT ( 'detailed design', #140, 'design' ) ;
#54 = CIRCLE ( 'NONE', #126, 50.00000000000000000 ) ;
#55 =( NAMED_UNIT ( * ) PLANE_ANGLE_UNIT ( ) SI_UNIT ( $, .RADIAN. ) );
#56 = DIRECTION ( 'NONE',  ( 0.000000000000000000, 0.000000000000000000, 1.000000000000000000 ) ) ;
#57 =( NAMED_UNIT ( * ) SI_UNIT ( $, .STERADIAN. ) SOLID_ANGLE_UNIT ( ) );
#58 = PRODUCT_RELATED_PRODUCT_CATEGORY ( 'part', '', ( #71 ) ) ;
#59 = DIRECTION ( 'NONE',  ( 1.000000000000000000, 0.000000000000000000, 0.000000000000000000 ) ) ;
#60 = AXIS2_PLACEMENT_3D ( 'NONE', #88, #68, #11 ) ;
#61 = APPLICATION_PROTOCOL_DEFINITION ( 'draft international standard', 'automotive_design', 1998, #40 ) ;
#62 = UNCERTAINTY_MEASURE_WITH_UNIT (LENGTH_MEASURE( 1.000000000000000082E-05 ), #65, 'distance_accuracy_value', 'NONE');
#63 = PRODUCT_DEFINITION_SHAPE ( 'NONE', 'NONE',  #27 ) ;
#64 = AXIS2_PLACEMENT_3D ( 'NONE', #112, #111, #8 ) ;
#65 =( LENGTH_UNIT ( ) NAMED_UNIT ( * ) SI_UNIT ( .MILLI., .METRE. ) );
#66 = DIRECTION ( 'NONE',  ( 0.000000000000000000, 1.000000000000000000, 0.000000000000000000 ) ) ;
#67 = PRODUCT_DEFINITION_FORMATION_WITH_SPECIFIED_SOURCE ( 'ANY', '', #105, .NOT_KNOWN. ) ;
#68 = DIRECTION ( 'NONE',  ( 0.000000000000000000, 0.000000000000000000, 1.000000000000000000 ) ) ;
#69 = SURFACE_STYLE_FILL_AREA ( #135 ) ;
#70 = DIRECTION ( 'NONE',  ( 0.000000000000000000, 1.000000000000000000, 0.000000000000000000 ) ) ;
#71 = PRODUCT ( 'C5_display_states__vis_app1', 'C5_display_states__vis_app1', '', ( #117 ) ) ;
#72 = AXIS2_PLACEMENT_3D ( 'NONE', #97, #76, #51 ) ;
#73 = PRODUCT_DEFINITION_CONTEXT ( 'detailed design', #40, 'design' ) ;
#74 = EDGE_LOOP ( 'NONE', ( #91 ) ) ;
#75 = PRESENTATION_LAYER_ASSIGNMENT (  '', '', ( #109 ) ) ;
#76 = DIRECTION ( 'NONE',  ( -0.000000000000000000, -1.000000000000000000, -0.000000000000000000 ) ) ;
#77 = DIRECTION ( 'NONE',  ( 0.000000000000000000, 0.000000000000000000, 1.000000000000000000 ) ) ;
#78 =( GEOMETRIC_REPRESENTATION_CONTEXT ( 3 ) GLOBAL_UNCERTAINTY_ASSIGNED_CONTEXT ( ( #95 ) ) GLOBAL_UNIT_ASSIGNED_CONTEXT ( ( #144, #128, #47 ) ) REPRESENTATION_CONTEXT ( 'NONE', 'WORKASPACE' ) );
#79 =( LENGTH_UNIT ( ) NAMED_UNIT ( * ) SI_UNIT ( .MILLI., .METRE. ) );
#80 = CARTESIAN_POINT ( 'NONE',  ( 0.000000000000000000, 100.0000000000000000, 0.000000000000000000 ) ) ;
#81 = ADVANCED_FACE ( 'NONE', ( #39 ), #7, .T. ) ;
#82 = PRODUCT_DEFINITION_SHAPE ( 'NONE', 'NONE',  #42 ) ;
#83 = ORIENTED_EDGE ( 'NONE', *, *, #122, .T. ) ;
#84 = PRESENTATION_LAYER_ASSIGNMENT (  '', '', ( #101 ) ) ;
#85 = FILL_AREA_STYLE ('',( #49 ) ) ;
#86 = VERTEX_POINT ( 'NONE', #18 ) ;
#87 = DIRECTION ( 'NONE',  ( 1.000000000000000000, 0.000000000000000000, 0.000000000000000000 ) ) ;
#88 = CARTESIAN_POINT ( 'NONE',  ( 129.8588026547804475, -29.07840402331203578, -68.52472038008272648 ) ) ;
#89 =( GEOMETRIC_REPRESENTATION_CONTEXT ( 3 ) GLOBAL_UNCERTAINTY_ASSIGNED_CONTEXT ( ( #110 ) ) GLOBAL_UNIT_ASSIGNED_CONTEXT ( ( #79, #55, #15 ) ) REPRESENTATION_CONTEXT ( 'NONE', 'WORKASPACE' ) );
#90 = APPLICATION_CONTEXT ( 'automotive_design' ) ;
#91 = ORIENTED_EDGE ( 'NONE', *, *, #122, .F. ) ;
#92 =( REPRESENTATION_RELATIONSHIP ('NONE','NONE', #118, #20 ) REPRESENTATION_RELATIONSHIP_WITH_TRANSFORMATION ( #19 )SHAPE_REPRESENTATION_RELATIONSHIP( ) );
#93 = SURFACE_STYLE_FILL_AREA ( #85 ) ;
#94 = COLOUR_RGB ( '',1.000000000000000000, 0.000000000000000000, 0.000000000000000000 ) ;
#95 = UNCERTAINTY_MEASURE_WITH_UNIT (LENGTH_MEASURE( 1.000000000000000082E-05 ), #144, 'distance_accuracy_value', 'NONE');
#96 = PLANE ( 'NONE',  #32 ) ;
#97 = CARTESIAN_POINT ( 'NONE',  ( 0.000000000000000000, 100.0000000000000000, 0.000000000000000000 ) ) ;
#98 =( NAMED_UNIT ( * ) PLANE_ANGLE_UNIT ( ) SI_UNIT ( $, .RADIAN. ) );
#99 = CARTESIAN_POINT ( 'NONE',  ( 0.000000000000000000, 100.0000000000000000, 50.00000000000000000 ) ) ;
#100 =( NAMED_UNIT ( * ) PLANE_ANGLE_UNIT ( ) SI_UNIT ( $, .RADIAN. ) );
#101 = STYLED_ITEM ( 'NONE', ( #134 ), #3 ) ;
#102 = DIRECTION ( 'NONE',  ( 0.000000000000000000, 0.000000000000000000, 1.000000000000000000 ) ) ;
#103 = DIRECTION ( 'NONE',  ( 1.000000000000000000, 0.000000000000000000, 0.000000000000000000 ) ) ;
#104 = EDGE_CURVE ( 'NONE', #86, #86, #35, .T. ) ;
#105 = PRODUCT ( 'C4_part_1', 'C4_part_1', '', ( #136 ) ) ;
#106 =( GEOMETRIC_REPRESENTATION_CONTEXT ( 3 ) GLOBAL_UNCERTAINTY_ASSIGNED_CONTEXT ( ( #62 ) ) GLOBAL_UNIT_ASSIGNED_CONTEXT ( ( #65, #100, #57 ) ) REPRESENTATION_CONTEXT ( 'NONE', 'WORKASPACE' ) );
#107 = SHAPE_DEFINITION_REPRESENTATION ( #63, #20 ) ;
#108 = EDGE_LOOP ( 'NONE', ( #120 ) ) ;
#109 = STYLED_ITEM ( 'NONE', ( #38 ), #31 ) ;
#110 = UNCERTAINTY_MEASURE_WITH_UNIT (LENGTH_MEASURE( 1.000000000000000082E-05 ), #79, 'distance_accuracy_value', 'NONE');
#111 = DIRECTION ( 'NONE',  ( 0.000000000000000000, 1.000000000000000000, 0.000000000000000000 ) ) ;
#112 = CARTESIAN_POINT ( 'NONE',  ( 0.000000000000000000, 0.000000000000000000, 0.000000000000000000 ) ) ;
#113 = VERTEX_POINT ( 'NONE', #99 ) ;
#114 = CARTESIAN_POINT ( 'NONE',  ( 0.000000000000000000, 0.000000000000000000, 0.000000000000000000 ) ) ;
#115 = CLOSED_SHELL ( 'NONE', ( #125, #81, #25 ) ) ;
#116 =( REPRESENTATION_RELATIONSHIP ('NONE','NONE', #118, #20 ) REPRESENTATION_RELATIONSHIP_WITH_TRANSFORMATION ( #45 )SHAPE_REPRESENTATION_RELATIONSHIP( ) );
#117 = PRODUCT_CONTEXT ( 'NONE', #21, 'mechanical' ) ;
#118 = SHAPE_REPRESENTATION ( 'C5_display_states__vis_app1', ( #50, #123, #60 ), #78 ) ;
#119 = AXIS2_PLACEMENT_3D ( 'NONE', #80, #66, #28 ) ;
#120 = ORIENTED_EDGE ( 'NONE', *, *, #104, .F. ) ;
#121 = SURFACE_SIDE_STYLE ('',( #93 ) ) ;
#122 = EDGE_CURVE ( 'NONE', #113, #113, #54, .T. ) ;
#123 = AXIS2_PLACEMENT_3D ( 'NONE', #4, #56, #87 ) ;
#124 = DIRECTION ( 'NONE',  ( 0.000000000000000000, 1.000000000000000000, 0.000000000000000000 ) ) ;
#125 = ADVANCED_FACE ( 'NONE', ( #41, #132 ), #26, .T. ) ;
#126 = AXIS2_PLACEMENT_3D ( 'NONE', #44, #124, #29 ) ;
#127 = CONTEXT_DEPENDENT_SHAPE_REPRESENTATION ( #116, #34 ) ;
#128 =( NAMED_UNIT ( * ) PLANE_ANGLE_UNIT ( ) SI_UNIT ( $, .RADIAN. ) );
#129 = EDGE_LOOP ( 'NONE', ( #83 ) ) ;
#130 =( NAMED_UNIT ( * ) SI_UNIT ( $, .STERADIAN. ) SOLID_ANGLE_UNIT ( ) );
#131 =( GEOMETRIC_REPRESENTATION_CONTEXT ( 3 ) GLOBAL_UNCERTAINTY_ASSIGNED_CONTEXT ( ( #23 ) ) GLOBAL_UNIT_ASSIGNED_CONTEXT ( ( #52, #98, #130 ) ) REPRESENTATION_CONTEXT ( 'NONE', 'WORKASPACE' ) );
#132 = FACE_OUTER_BOUND ( 'NONE', #22, .T. ) ;
#133 = DIRECTION ( 'NONE',  ( 1.000000000000000000, 0.000000000000000000, 0.000000000000000000 ) ) ;
#134 = PRESENTATION_STYLE_ASSIGNMENT (( #43 ) ) ;
#135 = FILL_AREA_STYLE ('',( #16 ) ) ;
#136 = PRODUCT_CONTEXT ( 'NONE', #90, 'mechanical' ) ;
#137 = APPLICATION_PROTOCOL_DEFINITION ( 'draft international standard', 'automotive_design', 1998, #21 ) ;
#138 = APPLICATION_PROTOCOL_DEFINITION ( 'draft international standard', 'automotive_design', 1998, #90 ) ;
#139 = DIRECTION ( 'NONE',  ( 0.000000000000000000, 0.000000000000000000, 1.000000000000000000 ) ) ;
#140 = APPLICATION_CONTEXT ( 'automotive_design' ) ;
#141 = CARTESIAN_POINT ( 'NONE',  ( 0.000000000000000000, 0.000000000000000000, 0.000000000000000000 ) ) ;
#142 = PRODUCT_DEFINITION_SHAPE ( 'NONE', 'NONE',  #146 ) ;
#143 = DIRECTION ( 'NONE',  ( 0.000000000000000000, -0.000000000000000000, 1.000000000000000000 ) ) ;
#144 =( LENGTH_UNIT ( ) NAMED_UNIT ( * ) SI_UNIT ( .MILLI., .METRE. ) );
#145 = NEXT_ASSEMBLY_USAGE_OCCURRENCE ( 'NAUO1', ' ', ' ', #42, #27, $ ) ;
#146 = NEXT_ASSEMBLY_USAGE_OCCURRENCE ( 'NAUO2', ' ', ' ', #42, #27, $ ) ;
ENDSEC;
END-ISO-10303-21;
