ISO-10303-21;
HEADER;
FILE_DESCRIPTION (( 'STEP AP214' ),
    '1' );
FILE_NAME ('C5_display_states__hid_app0.step',
    '2026-08-06T17:03:18',
    ( 'info@peak-design.co.uk' ),
    ( '' ),
    'SwSTEP 2.0',
    'SolidWorks 2026',
    '' );
FILE_SCHEMA (( 'AUTOMOTIVE_DESIGN' ));
ENDSEC;

DATA;
#1 = APPLICATION_CONTEXT ( 'automotive_design' ) ;
#2 = AXIS2_PLACEMENT_3D ( 'NONE', #81, #91, #46 ) ;
#3 = DIRECTION ( 'NONE',  ( 1.000000000000000000, 0.000000000000000000, 0.000000000000000000 ) ) ;
#4 = CARTESIAN_POINT ( 'NONE',  ( 0.000000000000000000, 0.000000000000000000, 0.000000000000000000 ) ) ;
#5 =( LENGTH_UNIT ( ) NAMED_UNIT ( * ) SI_UNIT ( .MILLI., .METRE. ) );
#6 = PRODUCT_DEFINITION_FORMATION_WITH_SPECIFIED_SOURCE ( 'ANY', '', #61, .NOT_KNOWN. ) ;
#7 = DIRECTION ( 'NONE',  ( 0.000000000000000000, 1.000000000000000000, 0.000000000000000000 ) ) ;
#8 = DIRECTION ( 'NONE',  ( 0.000000000000000000, 0.000000000000000000, -1.000000000000000000 ) ) ;
#9 =( NAMED_UNIT ( * ) SI_UNIT ( $, .STERADIAN. ) SOLID_ANGLE_UNIT ( ) );
#10 = AXIS2_PLACEMENT_3D ( 'NONE', #111, #101, #3 ) ;
#11 = PRODUCT_CONTEXT ( 'NONE', #1, 'mechanical' ) ;
#12 = APPLICATION_PROTOCOL_DEFINITION ( 'draft international standard', 'automotive_design', 1998, #1 ) ;
#13 = PRODUCT_DEFINITION_CONTEXT ( 'detailed design', #60, 'design' ) ;
#14 = EDGE_LOOP ( 'NONE', ( #117 ) ) ;
#15 = VERTEX_POINT ( 'NONE', #51 ) ;
#16 = DIRECTION ( 'NONE',  ( 0.000000000000000000, 0.000000000000000000, 1.000000000000000000 ) ) ;
#17 =( GEOMETRIC_REPRESENTATION_CONTEXT ( 3 ) GLOBAL_UNCERTAINTY_ASSIGNED_CONTEXT ( ( #96 ) ) GLOBAL_UNIT_ASSIGNED_CONTEXT ( ( #43, #63, #50 ) ) REPRESENTATION_CONTEXT ( 'NONE', 'WORKASPACE' ) );
#18 = DIRECTION ( 'NONE',  ( 0.000000000000000000, 1.000000000000000000, 0.000000000000000000 ) ) ;
#19 = PRODUCT_DEFINITION_FORMATION_WITH_SPECIFIED_SOURCE ( 'ANY', '', #106, .NOT_KNOWN. ) ;
#20 = FILL_AREA_STYLE ('',( #75 ) ) ;
#21 = ORIENTED_EDGE ( 'NONE', *, *, #52, .F. ) ;
#22 = DIRECTION ( 'NONE',  ( 0.000000000000000000, 1.000000000000000000, 0.000000000000000000 ) ) ;
#23 = MANIFOLD_SOLID_BREP ( 'Boss-Extrude1', #93 ) ;
#24 = PRODUCT_DEFINITION ( 'UNKNOWN', '', #19, #85 ) ;
#25 = DIRECTION ( 'NONE',  ( 1.000000000000000000, 0.000000000000000000, 0.000000000000000000 ) ) ;
#26 =( GEOMETRIC_REPRESENTATION_CONTEXT ( 3 ) GLOBAL_UNCERTAINTY_ASSIGNED_CONTEXT ( ( #78 ) ) GLOBAL_UNIT_ASSIGNED_CONTEXT ( ( #70, #118, #53 ) ) REPRESENTATION_CONTEXT ( 'NONE', 'WORKASPACE' ) );
#27 = PLANE ( 'NONE',  #2 ) ;
#28 = ADVANCED_FACE ( 'NONE', ( #71 ), #42, .F. ) ;
#29 = DIRECTION ( 'NONE',  ( 0.000000000000000000, 0.000000000000000000, 1.000000000000000000 ) ) ;
#30 = APPLICATION_PROTOCOL_DEFINITION ( 'draft international standard', 'automotive_design', 1998, #97 ) ;
#31 = EDGE_LOOP ( 'NONE', ( #40 ) ) ;
#32 = SURFACE_SIDE_STYLE ('',( #115 ) ) ;
#33 = PRESENTATION_STYLE_ASSIGNMENT (( #56 ) ) ;
#34 = UNCERTAINTY_MEASURE_WITH_UNIT (LENGTH_MEASURE( 1.000000000000000082E-05 ), #5, 'distance_accuracy_value', 'NONE');
#35 = DIRECTION ( 'NONE',  ( 0.000000000000000000, 0.000000000000000000, 1.000000000000000000 ) ) ;
#36 = PRODUCT_DEFINITION ( 'UNKNOWN', '', #6, #13 ) ;
#37 = CARTESIAN_POINT ( 'NONE',  ( 0.000000000000000000, 0.000000000000000000, 0.000000000000000000 ) ) ;
#38 = DIRECTION ( 'NONE',  ( 0.000000000000000000, -0.000000000000000000, 1.000000000000000000 ) ) ;
#39 = CIRCLE ( 'NONE', #87, 50.00000000000000000 ) ;
#40 = ORIENTED_EDGE ( 'NONE', *, *, #52, .T. ) ;
#41 = EDGE_CURVE ( 'NONE', #80, #80, #49, .T. ) ;
#42 = PLANE ( 'NONE',  #105 ) ;
#43 =( LENGTH_UNIT ( ) NAMED_UNIT ( * ) SI_UNIT ( .MILLI., .METRE. ) );
#44 = ADVANCED_BREP_SHAPE_REPRESENTATION ( '', ( #23, #10 ), #26 ) ;
#45 = SHAPE_REPRESENTATION ( 'C4_part_1', ( #10 ), #26 ) ;
#46 = DIRECTION ( 'NONE',  ( 0.000000000000000000, -0.000000000000000000, 1.000000000000000000 ) ) ;
#47 = DIRECTION ( 'NONE',  ( -0.000000000000000000, -1.000000000000000000, -0.000000000000000000 ) ) ;
#48 = DIRECTION ( 'NONE',  ( 1.000000000000000000, 0.000000000000000000, 0.000000000000000000 ) ) ;
#49 = CIRCLE ( 'NONE', #69, 50.00000000000000000 ) ;
#50 =( NAMED_UNIT ( * ) SI_UNIT ( $, .STERADIAN. ) SOLID_ANGLE_UNIT ( ) );
#51 = CARTESIAN_POINT ( 'NONE',  ( 0.000000000000000000, 0.000000000000000000, 50.00000000000000000 ) ) ;
#52 = EDGE_CURVE ( 'NONE', #15, #15, #39, .T. ) ;
#53 =( NAMED_UNIT ( * ) SI_UNIT ( $, .STERADIAN. ) SOLID_ANGLE_UNIT ( ) );
#54 = PRODUCT_RELATED_PRODUCT_CATEGORY ( 'part', '', ( #61 ) ) ;
#55 = PRODUCT_CONTEXT ( 'NONE', #120, 'mechanical' ) ;
#56 = SURFACE_STYLE_USAGE ( .BOTH. , #32 ) ;
#57 =( NAMED_UNIT ( * ) PLANE_ANGLE_UNIT ( ) SI_UNIT ( $, .RADIAN. ) );
#58 = FACE_OUTER_BOUND ( 'NONE', #14, .T. ) ;
#59 = SHAPE_DEFINITION_REPRESENTATION ( #68, #121 ) ;
#60 = APPLICATION_CONTEXT ( 'automotive_design' ) ;
#61 = PRODUCT ( 'C5_display_states__hid_app0', 'C5_display_states__hid_app0', '', ( #55 ) ) ;
#62 = MECHANICAL_DESIGN_GEOMETRIC_PRESENTATION_REPRESENTATION (  '', ( #114 ), #17 ) ;
#63 =( NAMED_UNIT ( * ) PLANE_ANGLE_UNIT ( ) SI_UNIT ( $, .RADIAN. ) );
#64 = CARTESIAN_POINT ( 'NONE',  ( 0.000000000000000000, 100.0000000000000000, 0.000000000000000000 ) ) ;
#65 = CYLINDRICAL_SURFACE ( 'NONE', #73, 50.00000000000000000 ) ;
#66 = ADVANCED_FACE ( 'NONE', ( #58, #119 ), #65, .T. ) ;
#67 = COLOUR_RGB ( '',0.7921568627450980005, 0.8196078431372548767, 0.9333333333333333481 ) ;
#68 = PRODUCT_DEFINITION_SHAPE ( 'NONE', 'NONE',  #36 ) ;
#69 = AXIS2_PLACEMENT_3D ( 'NONE', #108, #18, #100 ) ;
#70 =( LENGTH_UNIT ( ) NAMED_UNIT ( * ) SI_UNIT ( .MILLI., .METRE. ) );
#71 = FACE_OUTER_BOUND ( 'NONE', #86, .T. ) ;
#72 = CARTESIAN_POINT ( 'NONE',  ( 0.000000000000000000, 0.000000000000000000, 0.000000000000000000 ) ) ;
#73 = AXIS2_PLACEMENT_3D ( 'NONE', #64, #47, #8 ) ;
#74 = DIRECTION ( 'NONE',  ( 1.000000000000000000, 0.000000000000000000, 0.000000000000000000 ) ) ;
#75 = FILL_AREA_STYLE_COLOUR ( '', #67 ) ;
#76 = AXIS2_PLACEMENT_3D ( 'NONE', #4, #79, #48 ) ;
#77 = EDGE_LOOP ( 'NONE', ( #94 ) ) ;
#78 = UNCERTAINTY_MEASURE_WITH_UNIT (LENGTH_MEASURE( 1.000000000000000082E-05 ), #70, 'distance_accuracy_value', 'NONE');
#79 = DIRECTION ( 'NONE',  ( 0.000000000000000000, 0.000000000000000000, 1.000000000000000000 ) ) ;
#80 = VERTEX_POINT ( 'NONE', #99 ) ;
#81 = CARTESIAN_POINT ( 'NONE',  ( 0.000000000000000000, 100.0000000000000000, 0.000000000000000000 ) ) ;
#82 = AXIS2_PLACEMENT_3D ( 'NONE', #37, #16, #25 ) ;
#83 = SHAPE_DEFINITION_REPRESENTATION ( #116, #45 ) ;
#84 = PRODUCT_DEFINITION_SHAPE ( 'NONE', 'NONE',  #122 ) ;
#85 = PRODUCT_DEFINITION_CONTEXT ( 'detailed design', #97, 'design' ) ;
#86 = EDGE_LOOP ( 'NONE', ( #21 ) ) ;
#87 = AXIS2_PLACEMENT_3D ( 'NONE', #90, #22, #35 ) ;
#88 = FACE_OUTER_BOUND ( 'NONE', #77, .T. ) ;
#89 =( REPRESENTATION_RELATIONSHIP ('NONE','NONE', #121, #45 ) REPRESENTATION_RELATIONSHIP_WITH_TRANSFORMATION ( #92 )SHAPE_REPRESENTATION_RELATIONSHIP( ) );
#90 = CARTESIAN_POINT ( 'NONE',  ( 0.000000000000000000, 0.000000000000000000, 0.000000000000000000 ) ) ;
#91 = DIRECTION ( 'NONE',  ( 0.000000000000000000, 1.000000000000000000, 0.000000000000000000 ) ) ;
#92 = ITEM_DEFINED_TRANSFORMATION ( 'NONE', 'NONE', #76,  #10 ) ;
#93 = CLOSED_SHELL ( 'NONE', ( #66, #98, #28 ) ) ;
#94 = ORIENTED_EDGE ( 'NONE', *, *, #41, .T. ) ;
#95 =( GEOMETRIC_REPRESENTATION_CONTEXT ( 3 ) GLOBAL_UNCERTAINTY_ASSIGNED_CONTEXT ( ( #34 ) ) GLOBAL_UNIT_ASSIGNED_CONTEXT ( ( #5, #57, #9 ) ) REPRESENTATION_CONTEXT ( 'NONE', 'WORKASPACE' ) );
#96 = UNCERTAINTY_MEASURE_WITH_UNIT (LENGTH_MEASURE( 1.000000000000000082E-05 ), #43, 'distance_accuracy_value', 'NONE');
#97 = APPLICATION_CONTEXT ( 'automotive_design' ) ;
#98 = ADVANCED_FACE ( 'NONE', ( #88 ), #27, .T. ) ;
#99 = CARTESIAN_POINT ( 'NONE',  ( 0.000000000000000000, 100.0000000000000000, 50.00000000000000000 ) ) ;
#100 = DIRECTION ( 'NONE',  ( 0.000000000000000000, 0.000000000000000000, 1.000000000000000000 ) ) ;
#101 = DIRECTION ( 'NONE',  ( 0.000000000000000000, 0.000000000000000000, 1.000000000000000000 ) ) ;
#102 = PRESENTATION_LAYER_ASSIGNMENT (  '', '', ( #114 ) ) ;
#103 = PRODUCT_RELATED_PRODUCT_CATEGORY ( 'part', '', ( #106 ) ) ;
#104 = CONTEXT_DEPENDENT_SHAPE_REPRESENTATION ( #89, #84 ) ;
#105 = AXIS2_PLACEMENT_3D ( 'NONE', #107, #7, #38 ) ;
#106 = PRODUCT ( 'C4_part_1', 'C4_part_1', '', ( #11 ) ) ;
#107 = CARTESIAN_POINT ( 'NONE',  ( 0.000000000000000000, 0.000000000000000000, 0.000000000000000000 ) ) ;
#108 = CARTESIAN_POINT ( 'NONE',  ( 0.000000000000000000, 100.0000000000000000, 0.000000000000000000 ) ) ;
#109 = SHAPE_REPRESENTATION_RELATIONSHIP ( 'NONE' , 'NONE' ,  #45, #44 ) ;
#110 = AXIS2_PLACEMENT_3D ( 'NONE', #72, #29, #74 ) ;
#111 = CARTESIAN_POINT ( 'NONE',  ( 0.000000000000000000, 0.000000000000000000, 0.000000000000000000 ) ) ;
#112 = APPLICATION_PROTOCOL_DEFINITION ( 'draft international standard', 'automotive_design', 1998, #120 ) ;
#113 = APPLICATION_PROTOCOL_DEFINITION ( 'draft international standard', 'automotive_design', 1998, #60 ) ;
#114 = STYLED_ITEM ( 'NONE', ( #33 ), #23 ) ;
#115 = SURFACE_STYLE_FILL_AREA ( #20 ) ;
#116 = PRODUCT_DEFINITION_SHAPE ( 'NONE', 'NONE',  #24 ) ;
#117 = ORIENTED_EDGE ( 'NONE', *, *, #41, .F. ) ;
#118 =( NAMED_UNIT ( * ) PLANE_ANGLE_UNIT ( ) SI_UNIT ( $, .RADIAN. ) );
#119 = FACE_OUTER_BOUND ( 'NONE', #31, .T. ) ;
#120 = APPLICATION_CONTEXT ( 'automotive_design' ) ;
#121 = SHAPE_REPRESENTATION ( 'C5_display_states__hid_app0', ( #110, #76 ), #95 ) ;
#122 = NEXT_ASSEMBLY_USAGE_OCCURRENCE ( 'NAUO1', ' ', ' ', #36, #24, $ ) ;
ENDSEC;
END-ISO-10303-21;
