ISO-10303-21;
HEADER;
FILE_DESCRIPTION (( 'STEP AP214' ),
    '1' );
FILE_NAME ('C5_display_states__vis_app0.step',
    '2026-08-06T17:03:16',
    ( 'info@peak-design.co.uk' ),
    ( '' ),
    'SwSTEP 2.0',
    'SolidWorks 2026',
    '' );
FILE_SCHEMA (( 'AUTOMOTIVE_DESIGN' ));
ENDSEC;

DATA;
#1 =( REPRESENTATION_RELATIONSHIP ('NONE','NONE', #20, #103 ) REPRESENTATION_RELATIONSHIP_WITH_TRANSFORMATION ( #50 )SHAPE_REPRESENTATION_RELATIONSHIP( ) );
#2 = PRODUCT_DEFINITION_FORMATION_WITH_SPECIFIED_SOURCE ( 'ANY', '', #53, .NOT_KNOWN. ) ;
#3 = SHAPE_DEFINITION_REPRESENTATION ( #118, #20 ) ;
#4 = SHAPE_DEFINITION_REPRESENTATION ( #127, #103 ) ;
#5 = PRODUCT_DEFINITION ( 'UNKNOWN', '', #2, #63 ) ;
#6 = ORIENTED_EDGE ( 'NONE', *, *, #59, .F. ) ;
#7 =( GEOMETRIC_REPRESENTATION_CONTEXT ( 3 ) GLOBAL_UNCERTAINTY_ASSIGNED_CONTEXT ( ( #119 ) ) GLOBAL_UNIT_ASSIGNED_CONTEXT ( ( #129, #64, #89 ) ) REPRESENTATION_CONTEXT ( 'NONE', 'WORKASPACE' ) );
#8 = CARTESIAN_POINT ( 'NONE',  ( 0.000000000000000000, 0.000000000000000000, 0.000000000000000000 ) ) ;
#9 = DIRECTION ( 'NONE',  ( 0.000000000000000000, -0.000000000000000000, 1.000000000000000000 ) ) ;
#10 = PRODUCT_DEFINITION_FORMATION_WITH_SPECIFIED_SOURCE ( 'ANY', '', #95, .NOT_KNOWN. ) ;
#11 = DIRECTION ( 'NONE',  ( 1.000000000000000000, 0.000000000000000000, 0.000000000000000000 ) ) ;
#12 = APPLICATION_CONTEXT ( 'automotive_design' ) ;
#13 = PRODUCT_CONTEXT ( 'NONE', #25, 'mechanical' ) ;
#14 = AXIS2_PLACEMENT_3D ( 'NONE', #121, #111, #9 ) ;
#15 = FILL_AREA_STYLE ('',( #107 ) ) ;
#16 = APPLICATION_CONTEXT ( 'automotive_design' ) ;
#17 = DIRECTION ( 'NONE',  ( 1.000000000000000000, 0.000000000000000000, 0.000000000000000000 ) ) ;
#18 = DIRECTION ( 'NONE',  ( 1.000000000000000000, 0.000000000000000000, 0.000000000000000000 ) ) ;
#19 = AXIS2_PLACEMENT_3D ( 'NONE', #8, #85, #122 ) ;
#20 = SHAPE_REPRESENTATION ( 'C5_display_states__vis_app0', ( #126, #71, #120 ), #70 ) ;
#21 = CARTESIAN_POINT ( 'NONE',  ( 0.000000000000000000, 100.0000000000000000, 0.000000000000000000 ) ) ;
#22 = DIRECTION ( 'NONE',  ( 0.000000000000000000, 0.000000000000000000, 1.000000000000000000 ) ) ;
#23 = CLOSED_SHELL ( 'NONE', ( #79, #52, #44 ) ) ;
#24 = ADVANCED_BREP_SHAPE_REPRESENTATION ( '', ( #28, #19 ), #7 ) ;
#25 = APPLICATION_CONTEXT ( 'automotive_design' ) ;
#26 = SURFACE_STYLE_USAGE ( .BOTH. , #35 ) ;
#27 = PRODUCT_DEFINITION_SHAPE ( 'NONE', 'NONE',  #130 ) ;
#28 = MANIFOLD_SOLID_BREP ( 'Boss-Extrude1', #23 ) ;
#29 = PRODUCT_DEFINITION ( 'UNKNOWN', '', #10, #109 ) ;
#30 = DIRECTION ( 'NONE',  ( 0.000000000000000000, 0.000000000000000000, 1.000000000000000000 ) ) ;
#31 = PRODUCT_RELATED_PRODUCT_CATEGORY ( 'part', '', ( #95 ) ) ;
#32 = CARTESIAN_POINT ( 'NONE',  ( 0.000000000000000000, 0.000000000000000000, 0.000000000000000000 ) ) ;
#33 = CYLINDRICAL_SURFACE ( 'NONE', #100, 50.00000000000000000 ) ;
#34 = PRESENTATION_LAYER_ASSIGNMENT (  '', '', ( #92 ) ) ;
#35 = SURFACE_SIDE_STYLE ('',( #40 ) ) ;
#36 = UNCERTAINTY_MEASURE_WITH_UNIT (LENGTH_MEASURE( 1.000000000000000082E-05 ), #106, 'distance_accuracy_value', 'NONE');
#37 = APPLICATION_CONTEXT ( 'automotive_design' ) ;
#38 = EDGE_LOOP ( 'NONE', ( #83 ) ) ;
#39 =( LENGTH_UNIT ( ) NAMED_UNIT ( * ) SI_UNIT ( .MILLI., .METRE. ) );
#40 = SURFACE_STYLE_FILL_AREA ( #15 ) ;
#41 =( NAMED_UNIT ( * ) PLANE_ANGLE_UNIT ( ) SI_UNIT ( $, .RADIAN. ) );
#42 = CARTESIAN_POINT ( 'NONE',  ( 0.000000000000000000, 100.0000000000000000, 0.000000000000000000 ) ) ;
#43 = DIRECTION ( 'NONE',  ( 0.000000000000000000, 1.000000000000000000, 0.000000000000000000 ) ) ;
#44 = ADVANCED_FACE ( 'NONE', ( #112 ), #82, .F. ) ;
#45 = CARTESIAN_POINT ( 'NONE',  ( 0.000000000000000000, 0.000000000000000000, 0.000000000000000000 ) ) ;
#46 = CARTESIAN_POINT ( 'NONE',  ( 0.000000000000000000, 0.000000000000000000, 50.00000000000000000 ) ) ;
#47 =( NAMED_UNIT ( * ) PLANE_ANGLE_UNIT ( ) SI_UNIT ( $, .RADIAN. ) );
#48 = DIRECTION ( 'NONE',  ( 0.000000000000000000, 1.000000000000000000, 0.000000000000000000 ) ) ;
#49 = APPLICATION_PROTOCOL_DEFINITION ( 'draft international standard', 'automotive_design', 1998, #25 ) ;
#50 = ITEM_DEFINED_TRANSFORMATION ( 'NONE', 'NONE', #71,  #19 ) ;
#51 = ORIENTED_EDGE ( 'NONE', *, *, #59, .T. ) ;
#52 = ADVANCED_FACE ( 'NONE', ( #128 ), #113, .T. ) ;
#53 = PRODUCT ( 'C4_part_1', 'C4_part_1', '', ( #13 ) ) ;
#54 = ORIENTED_EDGE ( 'NONE', *, *, #96, .F. ) ;
#55 = CARTESIAN_POINT ( 'NONE',  ( 0.000000000000000000, 0.000000000000000000, 0.000000000000000000 ) ) ;
#56 = CARTESIAN_POINT ( 'NONE',  ( 0.000000000000000000, 100.0000000000000000, 50.00000000000000000 ) ) ;
#57 = DIRECTION ( 'NONE',  ( 0.000000000000000000, 0.000000000000000000, -1.000000000000000000 ) ) ;
#58 = CIRCLE ( 'NONE', #73, 50.00000000000000000 ) ;
#59 = EDGE_CURVE ( 'NONE', #110, #110, #58, .T. ) ;
#60 = APPLICATION_PROTOCOL_DEFINITION ( 'draft international standard', 'automotive_design', 1998, #37 ) ;
#61 =( REPRESENTATION_RELATIONSHIP ('NONE','NONE', #20, #103 ) REPRESENTATION_RELATIONSHIP_WITH_TRANSFORMATION ( #114 )SHAPE_REPRESENTATION_RELATIONSHIP( ) );
#62 = EDGE_LOOP ( 'NONE', ( #6 ) ) ;
#63 = PRODUCT_DEFINITION_CONTEXT ( 'detailed design', #37, 'design' ) ;
#64 =( NAMED_UNIT ( * ) PLANE_ANGLE_UNIT ( ) SI_UNIT ( $, .RADIAN. ) );
#65 = SHAPE_REPRESENTATION_RELATIONSHIP ( 'NONE' , 'NONE' ,  #103, #24 ) ;
#66 = CARTESIAN_POINT ( 'NONE',  ( 129.8588026547804475, -29.07840402331203578, -68.52472038008272648 ) ) ;
#67 = CARTESIAN_POINT ( 'NONE',  ( 0.000000000000000000, 100.0000000000000000, 0.000000000000000000 ) ) ;
#68 = CONTEXT_DEPENDENT_SHAPE_REPRESENTATION ( #1, #27 ) ;
#69 = AXIS2_PLACEMENT_3D ( 'NONE', #45, #76, #17 ) ;
#70 =( GEOMETRIC_REPRESENTATION_CONTEXT ( 3 ) GLOBAL_UNCERTAINTY_ASSIGNED_CONTEXT ( ( #99 ) ) GLOBAL_UNIT_ASSIGNED_CONTEXT ( ( #39, #47, #77 ) ) REPRESENTATION_CONTEXT ( 'NONE', 'WORKASPACE' ) );
#71 = AXIS2_PLACEMENT_3D ( 'NONE', #32, #75, #18 ) ;
#72 =( NAMED_UNIT ( * ) SI_UNIT ( $, .STERADIAN. ) SOLID_ANGLE_UNIT ( ) );
#73 = AXIS2_PLACEMENT_3D ( 'NONE', #55, #91, #30 ) ;
#74 = FACE_OUTER_BOUND ( 'NONE', #108, .T. ) ;
#75 = DIRECTION ( 'NONE',  ( 0.000000000000000000, 0.000000000000000000, 1.000000000000000000 ) ) ;
#76 = DIRECTION ( 'NONE',  ( 0.000000000000000000, 0.000000000000000000, 1.000000000000000000 ) ) ;
#77 =( NAMED_UNIT ( * ) SI_UNIT ( $, .STERADIAN. ) SOLID_ANGLE_UNIT ( ) );
#78 = PRODUCT_DEFINITION_SHAPE ( 'NONE', 'NONE',  #131 ) ;
#79 = ADVANCED_FACE ( 'NONE', ( #98, #74 ), #33, .T. ) ;
#80 = PRESENTATION_STYLE_ASSIGNMENT (( #26 ) ) ;
#81 = COLOUR_RGB ( '',0.7921568627450980005, 0.8196078431372548767, 0.9333333333333333481 ) ;
#82 = PLANE ( 'NONE',  #14 ) ;
#83 = ORIENTED_EDGE ( 'NONE', *, *, #96, .T. ) ;
#84 = CIRCLE ( 'NONE', #105, 50.00000000000000000 ) ;
#85 = DIRECTION ( 'NONE',  ( 0.000000000000000000, 0.000000000000000000, 1.000000000000000000 ) ) ;
#86 = AXIS2_PLACEMENT_3D ( 'NONE', #21, #48, #123 ) ;
#87 = EDGE_LOOP ( 'NONE', ( #54 ) ) ;
#88 = VERTEX_POINT ( 'NONE', #56 ) ;
#89 =( NAMED_UNIT ( * ) SI_UNIT ( $, .STERADIAN. ) SOLID_ANGLE_UNIT ( ) );
#90 = DIRECTION ( 'NONE',  ( -0.000000000000000000, -1.000000000000000000, -0.000000000000000000 ) ) ;
#91 = DIRECTION ( 'NONE',  ( 0.000000000000000000, 1.000000000000000000, 0.000000000000000000 ) ) ;
#92 = STYLED_ITEM ( 'NONE', ( #80 ), #28 ) ;
#93 = CONTEXT_DEPENDENT_SHAPE_REPRESENTATION ( #61, #78 ) ;
#94 = APPLICATION_PROTOCOL_DEFINITION ( 'draft international standard', 'automotive_design', 1998, #16 ) ;
#95 = PRODUCT ( 'C5_display_states__vis_app0', 'C5_display_states__vis_app0', '', ( #116 ) ) ;
#96 = EDGE_CURVE ( 'NONE', #88, #88, #84, .T. ) ;
#97 = APPLICATION_PROTOCOL_DEFINITION ( 'draft international standard', 'automotive_design', 1998, #12 ) ;
#98 = FACE_OUTER_BOUND ( 'NONE', #87, .T. ) ;
#99 = UNCERTAINTY_MEASURE_WITH_UNIT (LENGTH_MEASURE( 1.000000000000000082E-05 ), #39, 'distance_accuracy_value', 'NONE');
#100 = AXIS2_PLACEMENT_3D ( 'NONE', #42, #90, #57 ) ;
#101 = DIRECTION ( 'NONE',  ( 1.000000000000000000, 0.000000000000000000, 0.000000000000000000 ) ) ;
#102 = DIRECTION ( 'NONE',  ( 0.000000000000000000, 0.000000000000000000, 1.000000000000000000 ) ) ;
#103 = SHAPE_REPRESENTATION ( 'C4_part_1', ( #19 ), #7 ) ;
#104 = CARTESIAN_POINT ( 'NONE',  ( 0.000000000000000000, 0.000000000000000000, 0.000000000000000000 ) ) ;
#105 = AXIS2_PLACEMENT_3D ( 'NONE', #67, #43, #102 ) ;
#106 =( LENGTH_UNIT ( ) NAMED_UNIT ( * ) SI_UNIT ( .MILLI., .METRE. ) );
#107 = FILL_AREA_STYLE_COLOUR ( '', #81 ) ;
#108 = EDGE_LOOP ( 'NONE', ( #51 ) ) ;
#109 = PRODUCT_DEFINITION_CONTEXT ( 'detailed design', #12, 'design' ) ;
#110 = VERTEX_POINT ( 'NONE', #46 ) ;
#111 = DIRECTION ( 'NONE',  ( 0.000000000000000000, 1.000000000000000000, 0.000000000000000000 ) ) ;
#112 = FACE_OUTER_BOUND ( 'NONE', #62, .T. ) ;
#113 = PLANE ( 'NONE',  #86 ) ;
#114 = ITEM_DEFINED_TRANSFORMATION ( 'NONE', 'NONE', #120,  #19 ) ;
#115 = MECHANICAL_DESIGN_GEOMETRIC_PRESENTATION_REPRESENTATION (  '', ( #92 ), #125 ) ;
#116 = PRODUCT_CONTEXT ( 'NONE', #16, 'mechanical' ) ;
#117 = PRODUCT_RELATED_PRODUCT_CATEGORY ( 'part', '', ( #53 ) ) ;
#118 = PRODUCT_DEFINITION_SHAPE ( 'NONE', 'NONE',  #29 ) ;
#119 = UNCERTAINTY_MEASURE_WITH_UNIT (LENGTH_MEASURE( 1.000000000000000082E-05 ), #129, 'distance_accuracy_value', 'NONE');
#120 = AXIS2_PLACEMENT_3D ( 'NONE', #66, #22, #101 ) ;
#121 = CARTESIAN_POINT ( 'NONE',  ( 0.000000000000000000, 0.000000000000000000, 0.000000000000000000 ) ) ;
#122 = DIRECTION ( 'NONE',  ( 1.000000000000000000, 0.000000000000000000, 0.000000000000000000 ) ) ;
#123 = DIRECTION ( 'NONE',  ( 0.000000000000000000, -0.000000000000000000, 1.000000000000000000 ) ) ;
#124 = DIRECTION ( 'NONE',  ( 0.000000000000000000, 0.000000000000000000, 1.000000000000000000 ) ) ;
#125 =( GEOMETRIC_REPRESENTATION_CONTEXT ( 3 ) GLOBAL_UNCERTAINTY_ASSIGNED_CONTEXT ( ( #36 ) ) GLOBAL_UNIT_ASSIGNED_CONTEXT ( ( #106, #41, #72 ) ) REPRESENTATION_CONTEXT ( 'NONE', 'WORKASPACE' ) );
#126 = AXIS2_PLACEMENT_3D ( 'NONE', #104, #124, #11 ) ;
#127 = PRODUCT_DEFINITION_SHAPE ( 'NONE', 'NONE',  #5 ) ;
#128 = FACE_OUTER_BOUND ( 'NONE', #38, .T. ) ;
#129 =( LENGTH_UNIT ( ) NAMED_UNIT ( * ) SI_UNIT ( .MILLI., .METRE. ) );
#130 = NEXT_ASSEMBLY_USAGE_OCCURRENCE ( 'NAUO1', ' ', ' ', #29, #5, $ ) ;
#131 = NEXT_ASSEMBLY_USAGE_OCCURRENCE ( 'NAUO2', ' ', ' ', #29, #5, $ ) ;
ENDSEC;
END-ISO-10303-21;
