ISO-10303-21;
HEADER;
FILE_DESCRIPTION (( 'STEP AP214' ),
    '1' );
FILE_NAME ('C5_display_states__hid_app1.step',
    '2026-08-06T17:03:24',
    ( 'info@peak-design.co.uk' ),
    ( '' ),
    'SwSTEP 2.0',
    'SolidWorks 2026',
    '' );
FILE_SCHEMA (( 'AUTOMOTIVE_DESIGN' ));
ENDSEC;

DATA;
#1 = CIRCLE ( 'NONE', #109, 50.00000000000000000 ) ;
#2 = DIRECTION ( 'NONE',  ( 0.000000000000000000, 1.000000000000000000, 0.000000000000000000 ) ) ;
#3 = PRODUCT_DEFINITION ( 'UNKNOWN', '', #16, #57 ) ;
#4 = FILL_AREA_STYLE_COLOUR ( '', #71 ) ;
#5 = SURFACE_SIDE_STYLE ('',( #112 ) ) ;
#6 = DIRECTION ( 'NONE',  ( 0.000000000000000000, 0.000000000000000000, 1.000000000000000000 ) ) ;
#7 = AXIS2_PLACEMENT_3D ( 'NONE', #49, #82, #72 ) ;
#8 = CARTESIAN_POINT ( 'NONE',  ( 0.000000000000000000, 0.000000000000000000, 0.000000000000000000 ) ) ;
#9 = CARTESIAN_POINT ( 'NONE',  ( 0.000000000000000000, 100.0000000000000000, 0.000000000000000000 ) ) ;
#10 = PRESENTATION_LAYER_ASSIGNMENT (  '', '', ( #32 ) ) ;
#11 = ORIENTED_EDGE ( 'NONE', *, *, #74, .F. ) ;
#12 =( NAMED_UNIT ( * ) SI_UNIT ( $, .STERADIAN. ) SOLID_ANGLE_UNIT ( ) );
#13 = SHAPE_DEFINITION_REPRESENTATION ( #73, #97 ) ;
#14 = APPLICATION_CONTEXT ( 'automotive_design' ) ;
#15 = APPLICATION_PROTOCOL_DEFINITION ( 'draft international standard', 'automotive_design', 1998, #106 ) ;
#16 = PRODUCT_DEFINITION_FORMATION_WITH_SPECIFIED_SOURCE ( 'ANY', '', #130, .NOT_KNOWN. ) ;
#17 = EDGE_CURVE ( 'NONE', #87, #87, #1, .T. ) ;
#18 = FACE_OUTER_BOUND ( 'NONE', #55, .T. ) ;
#19 = DIRECTION ( 'NONE',  ( 0.000000000000000000, 1.000000000000000000, 0.000000000000000000 ) ) ;
#20 = ADVANCED_FACE ( 'NONE', ( #30, #75 ), #108, .T. ) ;
#21 = PRESENTATION_STYLE_ASSIGNMENT (( #79 ) ) ;
#22 = MANIFOLD_SOLID_BREP ( 'Boss-Extrude1', #114 ) ;
#23 = DIRECTION ( 'NONE',  ( 0.000000000000000000, 1.000000000000000000, 0.000000000000000000 ) ) ;
#24 = CARTESIAN_POINT ( 'NONE',  ( 0.000000000000000000, 100.0000000000000000, 50.00000000000000000 ) ) ;
#25 =( NAMED_UNIT ( * ) SI_UNIT ( $, .STERADIAN. ) SOLID_ANGLE_UNIT ( ) );
#26 = MECHANICAL_DESIGN_GEOMETRIC_PRESENTATION_REPRESENTATION (  '', ( #32 ), #98 ) ;
#27 = CONTEXT_DEPENDENT_SHAPE_REPRESENTATION ( #31, #53 ) ;
#28 = PRODUCT ( 'C4_part_1', 'C4_part_1', '', ( #38 ) ) ;
#29 = DIRECTION ( 'NONE',  ( 0.000000000000000000, 0.000000000000000000, 1.000000000000000000 ) ) ;
#30 = FACE_OUTER_BOUND ( 'NONE', #63, .T. ) ;
#31 =( REPRESENTATION_RELATIONSHIP ('NONE','NONE', #77, #97 ) REPRESENTATION_RELATIONSHIP_WITH_TRANSFORMATION ( #50 )SHAPE_REPRESENTATION_RELATIONSHIP( ) );
#32 = STYLED_ITEM ( 'NONE', ( #21 ), #121 ) ;
#33 = CARTESIAN_POINT ( 'NONE',  ( 0.000000000000000000, 100.0000000000000000, 0.000000000000000000 ) ) ;
#34 = FACE_OUTER_BOUND ( 'NONE', #64, .T. ) ;
#35 =( LENGTH_UNIT ( ) NAMED_UNIT ( * ) SI_UNIT ( .MILLI., .METRE. ) );
#36 =( LENGTH_UNIT ( ) NAMED_UNIT ( * ) SI_UNIT ( .MILLI., .METRE. ) );
#37 = CARTESIAN_POINT ( 'NONE',  ( 0.000000000000000000, 100.0000000000000000, 0.000000000000000000 ) ) ;
#38 = PRODUCT_CONTEXT ( 'NONE', #106, 'mechanical' ) ;
#39 = CARTESIAN_POINT ( 'NONE',  ( 0.000000000000000000, 0.000000000000000000, 0.000000000000000000 ) ) ;
#40 = PRESENTATION_LAYER_ASSIGNMENT (  '', '', ( #116 ) ) ;
#41 = EDGE_LOOP ( 'NONE', ( #43 ) ) ;
#42 = FILL_AREA_STYLE ('',( #4 ) ) ;
#43 = ORIENTED_EDGE ( 'NONE', *, *, #74, .T. ) ;
#44 =( NAMED_UNIT ( * ) PLANE_ANGLE_UNIT ( ) SI_UNIT ( $, .RADIAN. ) );
#45 = UNCERTAINTY_MEASURE_WITH_UNIT (LENGTH_MEASURE( 1.000000000000000082E-05 ), #113, 'distance_accuracy_value', 'NONE');
#46 = DIRECTION ( 'NONE',  ( 1.000000000000000000, 0.000000000000000000, 0.000000000000000000 ) ) ;
#47 = DIRECTION ( 'NONE',  ( 0.000000000000000000, 0.000000000000000000, 1.000000000000000000 ) ) ;
#48 = AXIS2_PLACEMENT_3D ( 'NONE', #39, #29, #83 ) ;
#49 = CARTESIAN_POINT ( 'NONE',  ( 0.000000000000000000, 0.000000000000000000, 0.000000000000000000 ) ) ;
#50 = ITEM_DEFINED_TRANSFORMATION ( 'NONE', 'NONE', #48,  #76 ) ;
#51 = AXIS2_PLACEMENT_3D ( 'NONE', #9, #54, #85 ) ;
#52 =( LENGTH_UNIT ( ) NAMED_UNIT ( * ) SI_UNIT ( .MILLI., .METRE. ) );
#53 = PRODUCT_DEFINITION_SHAPE ( 'NONE', 'NONE',  #137 ) ;
#54 = DIRECTION ( 'NONE',  ( -0.000000000000000000, -1.000000000000000000, -0.000000000000000000 ) ) ;
#55 = EDGE_LOOP ( 'NONE', ( #11 ) ) ;
#56 = PLANE ( 'NONE',  #66 ) ;
#57 = PRODUCT_DEFINITION_CONTEXT ( 'detailed design', #60, 'design' ) ;
#58 = PRODUCT_CONTEXT ( 'NONE', #62, 'mechanical' ) ;
#59 = MECHANICAL_DESIGN_GEOMETRIC_PRESENTATION_REPRESENTATION (  '', ( #116 ), #131 ) ;
#60 = APPLICATION_CONTEXT ( 'automotive_design' ) ;
#61 = PRODUCT_DEFINITION_SHAPE ( 'NONE', 'NONE',  #3 ) ;
#62 = APPLICATION_CONTEXT ( 'automotive_design' ) ;
#63 = EDGE_LOOP ( 'NONE', ( #110 ) ) ;
#64 = EDGE_LOOP ( 'NONE', ( #95 ) ) ;
#65 = SURFACE_STYLE_USAGE ( .BOTH. , #5 ) ;
#66 = AXIS2_PLACEMENT_3D ( 'NONE', #37, #23, #122 ) ;
#67 = CARTESIAN_POINT ( 'NONE',  ( 0.000000000000000000, 0.000000000000000000, 50.00000000000000000 ) ) ;
#68 = PRODUCT_RELATED_PRODUCT_CATEGORY ( 'part', '', ( #28 ) ) ;
#69 = FILL_AREA_STYLE ('',( #78 ) ) ;
#70 = ADVANCED_FACE ( 'NONE', ( #34 ), #56, .T. ) ;
#71 = COLOUR_RGB ( '',1.000000000000000000, 0.000000000000000000, 0.000000000000000000 ) ;
#72 = DIRECTION ( 'NONE',  ( 1.000000000000000000, 0.000000000000000000, 0.000000000000000000 ) ) ;
#73 = PRODUCT_DEFINITION_SHAPE ( 'NONE', 'NONE',  #89 ) ;
#74 = EDGE_CURVE ( 'NONE', #99, #99, #128, .T. ) ;
#75 = FACE_OUTER_BOUND ( 'NONE', #41, .T. ) ;
#76 = AXIS2_PLACEMENT_3D ( 'NONE', #133, #6, #46 ) ;
#77 = SHAPE_REPRESENTATION ( 'C5_display_states__hid_app1', ( #7, #48 ), #107 ) ;
#78 = FILL_AREA_STYLE_COLOUR ( '', #134 ) ;
#79 = SURFACE_STYLE_USAGE ( .BOTH. , #132 ) ;
#80 = PRODUCT_DEFINITION_FORMATION_WITH_SPECIFIED_SOURCE ( 'ANY', '', #28, .NOT_KNOWN. ) ;
#81 = PRESENTATION_STYLE_ASSIGNMENT (( #65 ) ) ;
#82 = DIRECTION ( 'NONE',  ( 0.000000000000000000, 0.000000000000000000, 1.000000000000000000 ) ) ;
#83 = DIRECTION ( 'NONE',  ( 1.000000000000000000, 0.000000000000000000, 0.000000000000000000 ) ) ;
#84 = PRODUCT_DEFINITION_CONTEXT ( 'detailed design', #14, 'design' ) ;
#85 = DIRECTION ( 'NONE',  ( 0.000000000000000000, 0.000000000000000000, -1.000000000000000000 ) ) ;
#86 = AXIS2_PLACEMENT_3D ( 'NONE', #8, #19, #100 ) ;
#87 = VERTEX_POINT ( 'NONE', #24 ) ;
#88 = DIRECTION ( 'NONE',  ( 0.000000000000000000, 1.000000000000000000, 0.000000000000000000 ) ) ;
#89 = PRODUCT_DEFINITION ( 'UNKNOWN', '', #80, #84 ) ;
#90 = PLANE ( 'NONE',  #86 ) ;
#91 = APPLICATION_PROTOCOL_DEFINITION ( 'draft international standard', 'automotive_design', 1998, #60 ) ;
#92 =( NAMED_UNIT ( * ) SI_UNIT ( $, .STERADIAN. ) SOLID_ANGLE_UNIT ( ) );
#93 = AXIS2_PLACEMENT_3D ( 'NONE', #125, #88, #47 ) ;
#94 = DIRECTION ( 'NONE',  ( 0.000000000000000000, 0.000000000000000000, 1.000000000000000000 ) ) ;
#95 = ORIENTED_EDGE ( 'NONE', *, *, #17, .T. ) ;
#96 = UNCERTAINTY_MEASURE_WITH_UNIT (LENGTH_MEASURE( 1.000000000000000082E-05 ), #52, 'distance_accuracy_value', 'NONE');
#97 = SHAPE_REPRESENTATION ( 'C4_part_1', ( #76 ), #103 ) ;
#98 =( GEOMETRIC_REPRESENTATION_CONTEXT ( 3 ) GLOBAL_UNCERTAINTY_ASSIGNED_CONTEXT ( ( #111 ) ) GLOBAL_UNIT_ASSIGNED_CONTEXT ( ( #36, #135, #25 ) ) REPRESENTATION_CONTEXT ( 'NONE', 'WORKASPACE' ) );
#99 = VERTEX_POINT ( 'NONE', #67 ) ;
#100 = DIRECTION ( 'NONE',  ( 0.000000000000000000, -0.000000000000000000, 1.000000000000000000 ) ) ;
#101 = UNCERTAINTY_MEASURE_WITH_UNIT (LENGTH_MEASURE( 1.000000000000000082E-05 ), #35, 'distance_accuracy_value', 'NONE');
#102 =( NAMED_UNIT ( * ) SI_UNIT ( $, .STERADIAN. ) SOLID_ANGLE_UNIT ( ) );
#103 =( GEOMETRIC_REPRESENTATION_CONTEXT ( 3 ) GLOBAL_UNCERTAINTY_ASSIGNED_CONTEXT ( ( #45 ) ) GLOBAL_UNIT_ASSIGNED_CONTEXT ( ( #113, #44, #102 ) ) REPRESENTATION_CONTEXT ( 'NONE', 'WORKASPACE' ) );
#104 = ADVANCED_FACE ( 'NONE', ( #18 ), #90, .F. ) ;
#105 =( NAMED_UNIT ( * ) PLANE_ANGLE_UNIT ( ) SI_UNIT ( $, .RADIAN. ) );
#106 = APPLICATION_CONTEXT ( 'automotive_design' ) ;
#107 =( GEOMETRIC_REPRESENTATION_CONTEXT ( 3 ) GLOBAL_UNCERTAINTY_ASSIGNED_CONTEXT ( ( #96 ) ) GLOBAL_UNIT_ASSIGNED_CONTEXT ( ( #52, #105, #92 ) ) REPRESENTATION_CONTEXT ( 'NONE', 'WORKASPACE' ) );
#108 = CYLINDRICAL_SURFACE ( 'NONE', #51, 50.00000000000000000 ) ;
#109 = AXIS2_PLACEMENT_3D ( 'NONE', #33, #2, #129 ) ;
#110 = ORIENTED_EDGE ( 'NONE', *, *, #17, .F. ) ;
#111 = UNCERTAINTY_MEASURE_WITH_UNIT (LENGTH_MEASURE( 1.000000000000000082E-05 ), #36, 'distance_accuracy_value', 'NONE');
#112 = SURFACE_STYLE_FILL_AREA ( #42 ) ;
#113 =( LENGTH_UNIT ( ) NAMED_UNIT ( * ) SI_UNIT ( .MILLI., .METRE. ) );
#114 = CLOSED_SHELL ( 'NONE', ( #20, #70, #104 ) ) ;
#115 = APPLICATION_PROTOCOL_DEFINITION ( 'draft international standard', 'automotive_design', 1998, #62 ) ;
#116 = STYLED_ITEM ( 'NONE', ( #81 ), #22 ) ;
#117 = APPLICATION_PROTOCOL_DEFINITION ( 'draft international standard', 'automotive_design', 1998, #14 ) ;
#118 = PRODUCT_RELATED_PRODUCT_CATEGORY ( 'part', '', ( #130 ) ) ;
#119 = SHAPE_REPRESENTATION_RELATIONSHIP ( 'NONE' , 'NONE' ,  #97, #121 ) ;
#120 = AXIS2_PLACEMENT_3D ( 'NONE', #127, #94, #136 ) ;
#121 = ADVANCED_BREP_SHAPE_REPRESENTATION ( '', ( #22, #76 ), #103 ) ;
#122 = DIRECTION ( 'NONE',  ( 0.000000000000000000, -0.000000000000000000, 1.000000000000000000 ) ) ;
#123 = SURFACE_STYLE_FILL_AREA ( #69 ) ;
#124 =( NAMED_UNIT ( * ) PLANE_ANGLE_UNIT ( ) SI_UNIT ( $, .RADIAN. ) );
#125 = CARTESIAN_POINT ( 'NONE',  ( 0.000000000000000000, 0.000000000000000000, 0.000000000000000000 ) ) ;
#126 = SHAPE_DEFINITION_REPRESENTATION ( #61, #77 ) ;
#127 = CARTESIAN_POINT ( 'NONE',  ( 0.000000000000000000, 0.000000000000000000, 0.000000000000000000 ) ) ;
#128 = CIRCLE ( 'NONE', #93, 50.00000000000000000 ) ;
#129 = DIRECTION ( 'NONE',  ( 0.000000000000000000, 0.000000000000000000, 1.000000000000000000 ) ) ;
#130 = PRODUCT ( 'C5_display_states__hid_app1', 'C5_display_states__hid_app1', '', ( #58 ) ) ;
#131 =( GEOMETRIC_REPRESENTATION_CONTEXT ( 3 ) GLOBAL_UNCERTAINTY_ASSIGNED_CONTEXT ( ( #101 ) ) GLOBAL_UNIT_ASSIGNED_CONTEXT ( ( #35, #124, #12 ) ) REPRESENTATION_CONTEXT ( 'NONE', 'WORKASPACE' ) );
#132 = SURFACE_SIDE_STYLE ('',( #123 ) ) ;
#133 = CARTESIAN_POINT ( 'NONE',  ( 0.000000000000000000, 0.000000000000000000, 0.000000000000000000 ) ) ;
#134 = COLOUR_RGB ( '',0.9098039215686274384, 0.4431372549019607643, 0.03137254901960784270 ) ;
#135 =( NAMED_UNIT ( * ) PLANE_ANGLE_UNIT ( ) SI_UNIT ( $, .RADIAN. ) );
#136 = DIRECTION ( 'NONE',  ( 1.000000000000000000, 0.000000000000000000, 0.000000000000000000 ) ) ;
#137 = NEXT_ASSEMBLY_USAGE_OCCURRENCE ( 'NAUO1', ' ', ' ', #3, #89, $ ) ;
ENDSEC;
END-ISO-10303-21;
