ISO-10303-21;
HEADER;
FILE_DESCRIPTION (( 'STEP AP214' ),
    '1' );
FILE_NAME ('C4_component_override_2__native.step',
    '2026-08-06T15:50:39',
    ( 'info@peak-design.co.uk' ),
    ( '' ),
    'SwSTEP 2.0',
    'SolidWorks 2026',
    '' );
FILE_SCHEMA (( 'AUTOMOTIVE_DESIGN' ));
ENDSEC;

DATA;
#1 =( NAMED_UNIT ( * ) PLANE_ANGLE_UNIT ( ) SI_UNIT ( $, .RADIAN. ) );
#2 = DIRECTION ( 'NONE',  ( 1.000000000000000000, 0.000000000000000000, 0.000000000000000000 ) ) ;
#3 = CARTESIAN_POINT ( 'NONE',  ( 0.000000000000000000, 0.000000000000000000, 0.000000000000000000 ) ) ;
#4 = ORIENTED_EDGE ( 'NONE', *, *, #111, .F. ) ;
#5 = EDGE_LOOP ( 'NONE', ( #93 ) ) ;
#6 = DIRECTION ( 'NONE',  ( 1.000000000000000000, 0.000000000000000000, 0.000000000000000000 ) ) ;
#7 = ADVANCED_FACE ( 'NONE', ( #28 ), #58, .F. ) ;
#8 = DIRECTION ( 'NONE',  ( 0.000000000000000000, 0.000000000000000000, 1.000000000000000000 ) ) ;
#9 =( REPRESENTATION_RELATIONSHIP ('NONE','NONE', #125, #77 ) REPRESENTATION_RELATIONSHIP_WITH_TRANSFORMATION ( #65 )SHAPE_REPRESENTATION_RELATIONSHIP( ) );
#10 =( NAMED_UNIT ( * ) SI_UNIT ( $, .STERADIAN. ) SOLID_ANGLE_UNIT ( ) );
#11 = AXIS2_PLACEMENT_3D ( 'NONE', #59, #85, #123 ) ;
#12 = APPLICATION_PROTOCOL_DEFINITION ( 'draft international standard', 'automotive_design', 1998, #50 ) ;
#13 = CLOSED_SHELL ( 'NONE', ( #97, #75, #7 ) ) ;
#14 = SHAPE_DEFINITION_REPRESENTATION ( #23, #125 ) ;
#15 =( LENGTH_UNIT ( ) NAMED_UNIT ( * ) SI_UNIT ( .MILLI., .METRE. ) );
#16 = PRODUCT_DEFINITION_FORMATION_WITH_SPECIFIED_SOURCE ( 'ANY', '', #144, .NOT_KNOWN. ) ;
#17 = MANIFOLD_SOLID_BREP ( 'Boss-Extrude1', #13 ) ;
#18 = SURFACE_SIDE_STYLE ('',( #22 ) ) ;
#19 = PRESENTATION_STYLE_ASSIGNMENT (( #134 ) ) ;
#20 = COLOUR_RGB ( '',0.9098039215686274384, 0.4431372549019607643, 0.03137254901960784270 ) ;
#21 = DIRECTION ( 'NONE',  ( 0.000000000000000000, 1.000000000000000000, 0.000000000000000000 ) ) ;
#22 = SURFACE_STYLE_FILL_AREA ( #86 ) ;
#23 = PRODUCT_DEFINITION_SHAPE ( 'NONE', 'NONE',  #24 ) ;
#24 = PRODUCT_DEFINITION ( 'UNKNOWN', '', #66, #54 ) ;
#25 = CARTESIAN_POINT ( 'NONE',  ( 0.000000000000000000, 0.000000000000000000, 0.000000000000000000 ) ) ;
#26 =( GEOMETRIC_REPRESENTATION_CONTEXT ( 3 ) GLOBAL_UNCERTAINTY_ASSIGNED_CONTEXT ( ( #40 ) ) GLOBAL_UNIT_ASSIGNED_CONTEXT ( ( #71, #46, #10 ) ) REPRESENTATION_CONTEXT ( 'NONE', 'WORKASPACE' ) );
#27 = CARTESIAN_POINT ( 'NONE',  ( 0.000000000000000000, 0.000000000000000000, 0.000000000000000000 ) ) ;
#28 = FACE_OUTER_BOUND ( 'NONE', #103, .T. ) ;
#29 = FILL_AREA_STYLE_COLOUR ( '', #53 ) ;
#30 = AXIS2_PLACEMENT_3D ( 'NONE', #3, #96, #56 ) ;
#31 = AXIS2_PLACEMENT_3D ( 'NONE', #116, #102, #127 ) ;
#32 = APPLICATION_CONTEXT ( 'automotive_design' ) ;
#33 = PRESENTATION_STYLE_ASSIGNMENT (( #141 ) ) ;
#34 = STYLED_ITEM ( 'NONE', ( #33 ), #17 ) ;
#35 = CARTESIAN_POINT ( 'NONE',  ( 0.000000000000000000, 100.0000000000000000, 50.00000000000000000 ) ) ;
#36 = FILL_AREA_STYLE_COLOUR ( '', #20 ) ;
#37 =( NAMED_UNIT ( * ) PLANE_ANGLE_UNIT ( ) SI_UNIT ( $, .RADIAN. ) );
#38 = ITEM_DEFINED_TRANSFORMATION ( 'NONE', 'NONE', #124,  #60 ) ;
#39 = EDGE_CURVE ( 'NONE', #117, #117, #132, .T. ) ;
#40 = UNCERTAINTY_MEASURE_WITH_UNIT (LENGTH_MEASURE( 1.000000000000000082E-05 ), #71, 'distance_accuracy_value', 'NONE');
#41 =( LENGTH_UNIT ( ) NAMED_UNIT ( * ) SI_UNIT ( .MILLI., .METRE. ) );
#42 = ORIENTED_EDGE ( 'NONE', *, *, #39, .F. ) ;
#43 = PRODUCT_DEFINITION_CONTEXT ( 'detailed design', #92, 'design' ) ;
#44 = CIRCLE ( 'NONE', #81, 50.00000000000000000 ) ;
#45 =( LENGTH_UNIT ( ) NAMED_UNIT ( * ) SI_UNIT ( .MILLI., .METRE. ) );
#46 =( NAMED_UNIT ( * ) PLANE_ANGLE_UNIT ( ) SI_UNIT ( $, .RADIAN. ) );
#47 = PRODUCT_RELATED_PRODUCT_CATEGORY ( 'part', '', ( #144 ) ) ;
#48 =( NAMED_UNIT ( * ) SI_UNIT ( $, .STERADIAN. ) SOLID_ANGLE_UNIT ( ) );
#49 = CARTESIAN_POINT ( 'NONE',  ( 0.000000000000000000, 0.000000000000000000, 0.000000000000000000 ) ) ;
#50 = APPLICATION_CONTEXT ( 'automotive_design' ) ;
#51 = APPLICATION_PROTOCOL_DEFINITION ( 'draft international standard', 'automotive_design', 1998, #92 ) ;
#52 = DIRECTION ( 'NONE',  ( 1.000000000000000000, 0.000000000000000000, 0.000000000000000000 ) ) ;
#53 = COLOUR_RGB ( '',1.000000000000000000, 0.000000000000000000, 0.000000000000000000 ) ;
#54 = PRODUCT_DEFINITION_CONTEXT ( 'detailed design', #50, 'design' ) ;
#55 = DIRECTION ( 'NONE',  ( 1.000000000000000000, 0.000000000000000000, 0.000000000000000000 ) ) ;
#56 = DIRECTION ( 'NONE',  ( 0.000000000000000000, -0.000000000000000000, 1.000000000000000000 ) ) ;
#57 = SURFACE_STYLE_FILL_AREA ( #118 ) ;
#58 = PLANE ( 'NONE',  #30 ) ;
#59 = CARTESIAN_POINT ( 'NONE',  ( 0.000000000000000000, 100.0000000000000000, 0.000000000000000000 ) ) ;
#60 = AXIS2_PLACEMENT_3D ( 'NONE', #49, #8, #6 ) ;
#61 = CARTESIAN_POINT ( 'NONE',  ( 0.000000000000000000, 100.0000000000000000, 0.000000000000000000 ) ) ;
#62 = APPLICATION_PROTOCOL_DEFINITION ( 'draft international standard', 'automotive_design', 1998, #67 ) ;
#63 = ADVANCED_BREP_SHAPE_REPRESENTATION ( '', ( #17, #60 ), #26 ) ;
#64 = AXIS2_PLACEMENT_3D ( 'NONE', #25, #73, #2 ) ;
#65 = ITEM_DEFINED_TRANSFORMATION ( 'NONE', 'NONE', #31,  #60 ) ;
#66 = PRODUCT_DEFINITION_FORMATION_WITH_SPECIFIED_SOURCE ( 'ANY', '', #91, .NOT_KNOWN. ) ;
#67 = APPLICATION_CONTEXT ( 'automotive_design' ) ;
#68 = UNCERTAINTY_MEASURE_WITH_UNIT (LENGTH_MEASURE( 1.000000000000000082E-05 ), #15, 'distance_accuracy_value', 'NONE');
#69 = PRODUCT_DEFINITION ( 'UNKNOWN', '', #16, #43 ) ;
#70 = FACE_OUTER_BOUND ( 'NONE', #130, .T. ) ;
#71 =( LENGTH_UNIT ( ) NAMED_UNIT ( * ) SI_UNIT ( .MILLI., .METRE. ) );
#72 = DIRECTION ( 'NONE',  ( 0.000000000000000000, 0.000000000000000000, 1.000000000000000000 ) ) ;
#73 = DIRECTION ( 'NONE',  ( 0.000000000000000000, 0.000000000000000000, 1.000000000000000000 ) ) ;
#74 =( NAMED_UNIT ( * ) PLANE_ANGLE_UNIT ( ) SI_UNIT ( $, .RADIAN. ) );
#75 = ADVANCED_FACE ( 'NONE', ( #137 ), #143, .T. ) ;
#76 = STYLED_ITEM ( 'NONE', ( #19 ), #63 ) ;
#77 = SHAPE_REPRESENTATION ( 'C4_part_1', ( #60 ), #26 ) ;
#78 = CONTEXT_DEPENDENT_SHAPE_REPRESENTATION ( #80, #129 ) ;
#79 = PRODUCT_DEFINITION_SHAPE ( 'NONE', 'NONE',  #69 ) ;
#80 =( REPRESENTATION_RELATIONSHIP ('NONE','NONE', #125, #77 ) REPRESENTATION_RELATIONSHIP_WITH_TRANSFORMATION ( #38 )SHAPE_REPRESENTATION_RELATIONSHIP( ) );
#81 = AXIS2_PLACEMENT_3D ( 'NONE', #61, #113, #112 ) ;
#82 =( GEOMETRIC_REPRESENTATION_CONTEXT ( 3 ) GLOBAL_UNCERTAINTY_ASSIGNED_CONTEXT ( ( #106 ) ) GLOBAL_UNIT_ASSIGNED_CONTEXT ( ( #45, #37, #48 ) ) REPRESENTATION_CONTEXT ( 'NONE', 'WORKASPACE' ) );
#83 = SURFACE_SIDE_STYLE ('',( #57 ) ) ;
#84 = DIRECTION ( 'NONE',  ( 0.000000000000000000, 1.000000000000000000, 0.000000000000000000 ) ) ;
#85 = DIRECTION ( 'NONE',  ( -0.000000000000000000, -1.000000000000000000, -0.000000000000000000 ) ) ;
#86 = FILL_AREA_STYLE ('',( #36 ) ) ;
#87 = PRODUCT_CONTEXT ( 'NONE', #32, 'mechanical' ) ;
#88 = AXIS2_PLACEMENT_3D ( 'NONE', #27, #108, #55 ) ;
#89 = CONTEXT_DEPENDENT_SHAPE_REPRESENTATION ( #9, #140 ) ;
#90 =( NAMED_UNIT ( * ) SI_UNIT ( $, .STERADIAN. ) SOLID_ANGLE_UNIT ( ) );
#91 = PRODUCT ( 'C4_component_override_2__native', 'C4_component_override_2__native', '', ( #87 ) ) ;
#92 = APPLICATION_CONTEXT ( 'automotive_design' ) ;
#93 = ORIENTED_EDGE ( 'NONE', *, *, #111, .T. ) ;
#94 = PRESENTATION_LAYER_ASSIGNMENT (  '', '', ( #34 ) ) ;
#95 =( GEOMETRIC_REPRESENTATION_CONTEXT ( 3 ) GLOBAL_UNCERTAINTY_ASSIGNED_CONTEXT ( ( #68 ) ) GLOBAL_UNIT_ASSIGNED_CONTEXT ( ( #15, #1, #115 ) ) REPRESENTATION_CONTEXT ( 'NONE', 'WORKASPACE' ) );
#96 = DIRECTION ( 'NONE',  ( 0.000000000000000000, 1.000000000000000000, 0.000000000000000000 ) ) ;
#97 = ADVANCED_FACE ( 'NONE', ( #120, #70 ), #136, .T. ) ;
#98 = DIRECTION ( 'NONE',  ( 0.000000000000000000, -0.000000000000000000, 1.000000000000000000 ) ) ;
#99 = SHAPE_DEFINITION_REPRESENTATION ( #79, #77 ) ;
#100 = MECHANICAL_DESIGN_GEOMETRIC_PRESENTATION_REPRESENTATION (  '', ( #76 ), #138 ) ;
#101 = CARTESIAN_POINT ( 'NONE',  ( 129.8588026547804475, -29.07840402331203578, -68.52472038008272648 ) ) ;
#102 = DIRECTION ( 'NONE',  ( 0.000000000000000000, 0.000000000000000000, 1.000000000000000000 ) ) ;
#103 = EDGE_LOOP ( 'NONE', ( #42 ) ) ;
#104 = ORIENTED_EDGE ( 'NONE', *, *, #39, .T. ) ;
#105 = CARTESIAN_POINT ( 'NONE',  ( 0.000000000000000000, 0.000000000000000000, 50.00000000000000000 ) ) ;
#106 = UNCERTAINTY_MEASURE_WITH_UNIT (LENGTH_MEASURE( 1.000000000000000082E-05 ), #45, 'distance_accuracy_value', 'NONE');
#107 = PRODUCT_CONTEXT ( 'NONE', #67, 'mechanical' ) ;
#108 = DIRECTION ( 'NONE',  ( 0.000000000000000000, 0.000000000000000000, 1.000000000000000000 ) ) ;
#109 = SHAPE_REPRESENTATION_RELATIONSHIP ( 'NONE' , 'NONE' ,  #77, #63 ) ;
#110 = AXIS2_PLACEMENT_3D ( 'NONE', #122, #21, #98 ) ;
#111 = EDGE_CURVE ( 'NONE', #119, #119, #44, .T. ) ;
#112 = DIRECTION ( 'NONE',  ( 0.000000000000000000, 0.000000000000000000, 1.000000000000000000 ) ) ;
#113 = DIRECTION ( 'NONE',  ( 0.000000000000000000, 1.000000000000000000, 0.000000000000000000 ) ) ;
#114 = APPLICATION_PROTOCOL_DEFINITION ( 'draft international standard', 'automotive_design', 1998, #32 ) ;
#115 =( NAMED_UNIT ( * ) SI_UNIT ( $, .STERADIAN. ) SOLID_ANGLE_UNIT ( ) );
#116 = CARTESIAN_POINT ( 'NONE',  ( 0.000000000000000000, 0.000000000000000000, 0.000000000000000000 ) ) ;
#117 = VERTEX_POINT ( 'NONE', #105 ) ;
#118 = FILL_AREA_STYLE ('',( #29 ) ) ;
#119 = VERTEX_POINT ( 'NONE', #35 ) ;
#120 = FACE_OUTER_BOUND ( 'NONE', #139, .T. ) ;
#121 = AXIS2_PLACEMENT_3D ( 'NONE', #131, #84, #72 ) ;
#122 = CARTESIAN_POINT ( 'NONE',  ( 0.000000000000000000, 100.0000000000000000, 0.000000000000000000 ) ) ;
#123 = DIRECTION ( 'NONE',  ( 0.000000000000000000, 0.000000000000000000, -1.000000000000000000 ) ) ;
#124 = AXIS2_PLACEMENT_3D ( 'NONE', #101, #126, #52 ) ;
#125 = SHAPE_REPRESENTATION ( 'C4_component_override_2__native', ( #64, #31, #124 ), #95 ) ;
#126 = DIRECTION ( 'NONE',  ( 0.000000000000000000, 0.000000000000000000, 1.000000000000000000 ) ) ;
#127 = DIRECTION ( 'NONE',  ( 1.000000000000000000, 0.000000000000000000, 0.000000000000000000 ) ) ;
#128 = MECHANICAL_DESIGN_GEOMETRIC_PRESENTATION_REPRESENTATION (  '', ( #34 ), #82 ) ;
#129 = PRODUCT_DEFINITION_SHAPE ( 'NONE', 'NONE',  #146 ) ;
#130 = EDGE_LOOP ( 'NONE', ( #104 ) ) ;
#131 = CARTESIAN_POINT ( 'NONE',  ( 0.000000000000000000, 0.000000000000000000, 0.000000000000000000 ) ) ;
#132 = CIRCLE ( 'NONE', #121, 50.00000000000000000 ) ;
#133 = UNCERTAINTY_MEASURE_WITH_UNIT (LENGTH_MEASURE( 1.000000000000000082E-05 ), #41, 'distance_accuracy_value', 'NONE');
#134 = SURFACE_STYLE_USAGE ( .BOTH. , #18 ) ;
#135 = PRESENTATION_LAYER_ASSIGNMENT (  '', '', ( #76 ) ) ;
#136 = CYLINDRICAL_SURFACE ( 'NONE', #11, 50.00000000000000000 ) ;
#137 = FACE_OUTER_BOUND ( 'NONE', #5, .T. ) ;
#138 =( GEOMETRIC_REPRESENTATION_CONTEXT ( 3 ) GLOBAL_UNCERTAINTY_ASSIGNED_CONTEXT ( ( #133 ) ) GLOBAL_UNIT_ASSIGNED_CONTEXT ( ( #41, #74, #90 ) ) REPRESENTATION_CONTEXT ( 'NONE', 'WORKASPACE' ) );
#139 = EDGE_LOOP ( 'NONE', ( #4 ) ) ;
#140 = PRODUCT_DEFINITION_SHAPE ( 'NONE', 'NONE',  #145 ) ;
#141 = SURFACE_STYLE_USAGE ( .BOTH. , #83 ) ;
#142 = PRODUCT_RELATED_PRODUCT_CATEGORY ( 'part', '', ( #91 ) ) ;
#143 = PLANE ( 'NONE',  #110 ) ;
#144 = PRODUCT ( 'C4_part_1', 'C4_part_1', '', ( #107 ) ) ;
#145 = NEXT_ASSEMBLY_USAGE_OCCURRENCE ( 'NAUO1', ' ', ' ', #24, #69, $ ) ;
#146 = NEXT_ASSEMBLY_USAGE_OCCURRENCE ( 'NAUO2', ' ', ' ', #24, #69, $ ) ;
ENDSEC;
END-ISO-10303-21;
