ISO-10303-21;
HEADER;
FILE_DESCRIPTION (( 'STEP AP214' ),
    '1' );
FILE_NAME ('C4_component_override_1__native.step',
    '2026-08-06T14:05:56',
    ( '' ),
    ( '' ),
    'SwSTEP 2.0',
    'SolidWorks 2026',
    '' );
FILE_SCHEMA (( 'AUTOMOTIVE_DESIGN' ));
ENDSEC;

DATA;
#1 = UNCERTAINTY_MEASURE_WITH_UNIT (LENGTH_MEASURE( 1.000000000000000082E-05 ), #96, 'distance_accuracy_value', 'NONE');
#2 = DIRECTION ( 'NONE',  ( 0.000000000000000000, 0.000000000000000000, -1.000000000000000000 ) ) ;
#3 = FACE_OUTER_BOUND ( 'NONE', #109, .T. ) ;
#4 = AXIS2_PLACEMENT_3D ( 'NONE', #124, #93, #63 ) ;
#5 = DIRECTION ( 'NONE',  ( 0.000000000000000000, 0.000000000000000000, 1.000000000000000000 ) ) ;
#6 =( REPRESENTATION_RELATIONSHIP ('NONE','NONE', #85, #36 ) REPRESENTATION_RELATIONSHIP_WITH_TRANSFORMATION ( #104 )SHAPE_REPRESENTATION_RELATIONSHIP( ) );
#7 = CARTESIAN_POINT ( 'NONE',  ( 0.000000000000000000, 0.000000000000000000, 50.00000000000000000 ) ) ;
#8 =( REPRESENTATION_RELATIONSHIP ('NONE','NONE', #85, #36 ) REPRESENTATION_RELATIONSHIP_WITH_TRANSFORMATION ( #131 )SHAPE_REPRESENTATION_RELATIONSHIP( ) );
#9 = CARTESIAN_POINT ( 'NONE',  ( 0.000000000000000000, 0.000000000000000000, 0.000000000000000000 ) ) ;
#10 = AXIS2_PLACEMENT_3D ( 'NONE', #84, #129, #34 ) ;
#11 =( NAMED_UNIT ( * ) SI_UNIT ( $, .STERADIAN. ) SOLID_ANGLE_UNIT ( ) );
#12 = SHAPE_DEFINITION_REPRESENTATION ( #136, #36 ) ;
#13 =( GEOMETRIC_REPRESENTATION_CONTEXT ( 3 ) GLOBAL_UNCERTAINTY_ASSIGNED_CONTEXT ( ( #126 ) ) GLOBAL_UNIT_ASSIGNED_CONTEXT ( ( #26, #97, #49 ) ) REPRESENTATION_CONTEXT ( 'NONE', 'WORKASPACE' ) );
#14 = SURFACE_STYLE_USAGE ( .BOTH. , #116 ) ;
#15 = STYLED_ITEM ( 'NONE', ( #112 ), #100 ) ;
#16 = ADVANCED_FACE ( 'NONE', ( #108, #117 ), #78, .T. ) ;
#17 = PRODUCT ( 'C4_component_override_1__native', 'C4_component_override_1__native', '', ( #105 ) ) ;
#18 = DIRECTION ( 'NONE',  ( 1.000000000000000000, 0.000000000000000000, 0.000000000000000000 ) ) ;
#19 = DIRECTION ( 'NONE',  ( 0.000000000000000000, 0.000000000000000000, 1.000000000000000000 ) ) ;
#20 =( LENGTH_UNIT ( ) NAMED_UNIT ( * ) SI_UNIT ( .MILLI., .METRE. ) );
#21 = PRODUCT_RELATED_PRODUCT_CATEGORY ( 'part', '', ( #125 ) ) ;
#22 = APPLICATION_PROTOCOL_DEFINITION ( 'draft international standard', 'automotive_design', 1998, #115 ) ;
#23 = AXIS2_PLACEMENT_3D ( 'NONE', #9, #123, #50 ) ;
#24 = APPLICATION_CONTEXT ( 'automotive_design' ) ;
#25 = AXIS2_PLACEMENT_3D ( 'NONE', #43, #133, #44 ) ;
#26 =( LENGTH_UNIT ( ) NAMED_UNIT ( * ) SI_UNIT ( .MILLI., .METRE. ) );
#27 = CARTESIAN_POINT ( 'NONE',  ( 0.000000000000000000, 100.0000000000000000, 0.000000000000000000 ) ) ;
#28 = ORIENTED_EDGE ( 'NONE', *, *, #74, .F. ) ;
#29 = AXIS2_PLACEMENT_3D ( 'NONE', #31, #5, #111 ) ;
#30 = VERTEX_POINT ( 'NONE', #140 ) ;
#31 = CARTESIAN_POINT ( 'NONE',  ( 0.000000000000000000, 0.000000000000000000, 0.000000000000000000 ) ) ;
#32 = UNCERTAINTY_MEASURE_WITH_UNIT (LENGTH_MEASURE( 1.000000000000000082E-05 ), #142, 'distance_accuracy_value', 'NONE');
#33 = STYLED_ITEM ( 'NONE', ( #77 ), #107 ) ;
#34 = DIRECTION ( 'NONE',  ( 1.000000000000000000, 0.000000000000000000, 0.000000000000000000 ) ) ;
#35 = SURFACE_STYLE_USAGE ( .BOTH. , #113 ) ;
#36 = SHAPE_REPRESENTATION ( 'C4_part_1', ( #29 ), #61 ) ;
#37 = CIRCLE ( 'NONE', #45, 50.00000000000000000 ) ;
#38 = AXIS2_PLACEMENT_3D ( 'NONE', #71, #54, #70 ) ;
#39 = ADVANCED_FACE ( 'NONE', ( #110 ), #64, .T. ) ;
#40 = PRODUCT_DEFINITION_FORMATION_WITH_SPECIFIED_SOURCE ( 'ANY', '', #125, .NOT_KNOWN. ) ;
#41 = SURFACE_STYLE_FILL_AREA ( #72 ) ;
#42 = ORIENTED_EDGE ( 'NONE', *, *, #67, .F. ) ;
#43 = CARTESIAN_POINT ( 'NONE',  ( 0.000000000000000000, 0.000000000000000000, 0.000000000000000000 ) ) ;
#44 = DIRECTION ( 'NONE',  ( 0.000000000000000000, 0.000000000000000000, 1.000000000000000000 ) ) ;
#45 = AXIS2_PLACEMENT_3D ( 'NONE', #27, #91, #139 ) ;
#46 = CARTESIAN_POINT ( 'NONE',  ( 0.000000000000000000, 0.000000000000000000, 0.000000000000000000 ) ) ;
#47 = COLOUR_RGB ( '',1.000000000000000000, 0.000000000000000000, 0.000000000000000000 ) ;
#48 = DIRECTION ( 'NONE',  ( 0.000000000000000000, 0.000000000000000000, 1.000000000000000000 ) ) ;
#49 =( NAMED_UNIT ( * ) SI_UNIT ( $, .STERADIAN. ) SOLID_ANGLE_UNIT ( ) );
#50 = DIRECTION ( 'NONE',  ( 1.000000000000000000, 0.000000000000000000, 0.000000000000000000 ) ) ;
#51 = CLOSED_SHELL ( 'NONE', ( #16, #39, #80 ) ) ;
#52 = EDGE_LOOP ( 'NONE', ( #42 ) ) ;
#53 = PRODUCT_DEFINITION ( 'UNKNOWN', '', #103, #82 ) ;
#54 = DIRECTION ( 'NONE',  ( 0.000000000000000000, 1.000000000000000000, 0.000000000000000000 ) ) ;
#55 =( GEOMETRIC_REPRESENTATION_CONTEXT ( 3 ) GLOBAL_UNCERTAINTY_ASSIGNED_CONTEXT ( ( #32 ) ) GLOBAL_UNIT_ASSIGNED_CONTEXT ( ( #142, #59, #11 ) ) REPRESENTATION_CONTEXT ( 'NONE', 'WORKASPACE' ) );
#56 = FILL_AREA_STYLE ('',( #130 ) ) ;
#57 = AXIS2_PLACEMENT_3D ( 'NONE', #46, #19, #18 ) ;
#58 = CONTEXT_DEPENDENT_SHAPE_REPRESENTATION ( #8, #66 ) ;
#59 =( NAMED_UNIT ( * ) PLANE_ANGLE_UNIT ( ) SI_UNIT ( $, .RADIAN. ) );
#60 = CIRCLE ( 'NONE', #25, 50.00000000000000000 ) ;
#61 =( GEOMETRIC_REPRESENTATION_CONTEXT ( 3 ) GLOBAL_UNCERTAINTY_ASSIGNED_CONTEXT ( ( #119 ) ) GLOBAL_UNIT_ASSIGNED_CONTEXT ( ( #20, #86, #128 ) ) REPRESENTATION_CONTEXT ( 'NONE', 'WORKASPACE' ) );
#62 = DIRECTION ( 'NONE',  ( -0.000000000000000000, -1.000000000000000000, -0.000000000000000000 ) ) ;
#63 = DIRECTION ( 'NONE',  ( 0.000000000000000000, -0.000000000000000000, 1.000000000000000000 ) ) ;
#64 = PLANE ( 'NONE',  #4 ) ;
#65 = CARTESIAN_POINT ( 'NONE',  ( 0.000000000000000000, 0.000000000000000000, 0.000000000000000000 ) ) ;
#66 = PRODUCT_DEFINITION_SHAPE ( 'NONE', 'NONE',  #146 ) ;
#67 = EDGE_CURVE ( 'NONE', #30, #30, #37, .T. ) ;
#68 = PRODUCT_DEFINITION_CONTEXT ( 'detailed design', #115, 'design' ) ;
#69 = PRODUCT_CONTEXT ( 'NONE', #24, 'mechanical' ) ;
#70 = DIRECTION ( 'NONE',  ( 0.000000000000000000, -0.000000000000000000, 1.000000000000000000 ) ) ;
#71 = CARTESIAN_POINT ( 'NONE',  ( 0.000000000000000000, 0.000000000000000000, 0.000000000000000000 ) ) ;
#72 = FILL_AREA_STYLE ('',( #95 ) ) ;
#73 =( NAMED_UNIT ( * ) SI_UNIT ( $, .STERADIAN. ) SOLID_ANGLE_UNIT ( ) );
#74 = EDGE_CURVE ( 'NONE', #83, #83, #60, .T. ) ;
#75 = SURFACE_STYLE_FILL_AREA ( #56 ) ;
#76 = MECHANICAL_DESIGN_GEOMETRIC_PRESENTATION_REPRESENTATION (  '', ( #33 ), #13 ) ;
#77 = PRESENTATION_STYLE_ASSIGNMENT (( #14 ) ) ;
#78 = CYLINDRICAL_SURFACE ( 'NONE', #121, 50.00000000000000000 ) ;
#79 = MECHANICAL_DESIGN_GEOMETRIC_PRESENTATION_REPRESENTATION (  '', ( #15 ), #94 ) ;
#80 = ADVANCED_FACE ( 'NONE', ( #3 ), #81, .F. ) ;
#81 = PLANE ( 'NONE',  #38 ) ;
#82 = PRODUCT_DEFINITION_CONTEXT ( 'detailed design', #102, 'design' ) ;
#83 = VERTEX_POINT ( 'NONE', #7 ) ;
#84 = CARTESIAN_POINT ( 'NONE',  ( 129.8588026547804475, -29.07840402331203578, -68.52472038008272648 ) ) ;
#85 = SHAPE_REPRESENTATION ( 'C4_component_override_1__native', ( #23, #143, #10 ), #55 ) ;
#86 =( NAMED_UNIT ( * ) PLANE_ANGLE_UNIT ( ) SI_UNIT ( $, .RADIAN. ) );
#87 = SHAPE_DEFINITION_REPRESENTATION ( #98, #85 ) ;
#88 = APPLICATION_PROTOCOL_DEFINITION ( 'draft international standard', 'automotive_design', 1998, #106 ) ;
#89 = PRODUCT_DEFINITION ( 'UNKNOWN', '', #40, #68 ) ;
#90 = COLOUR_RGB ( '',0.9098039215686274384, 0.4431372549019607643, 0.03137254901960784270 ) ;
#91 = DIRECTION ( 'NONE',  ( 0.000000000000000000, 1.000000000000000000, 0.000000000000000000 ) ) ;
#92 = EDGE_LOOP ( 'NONE', ( #135 ) ) ;
#93 = DIRECTION ( 'NONE',  ( 0.000000000000000000, 1.000000000000000000, 0.000000000000000000 ) ) ;
#94 =( GEOMETRIC_REPRESENTATION_CONTEXT ( 3 ) GLOBAL_UNCERTAINTY_ASSIGNED_CONTEXT ( ( #1 ) ) GLOBAL_UNIT_ASSIGNED_CONTEXT ( ( #96, #99, #73 ) ) REPRESENTATION_CONTEXT ( 'NONE', 'WORKASPACE' ) );
#95 = FILL_AREA_STYLE_COLOUR ( '', #47 ) ;
#96 =( LENGTH_UNIT ( ) NAMED_UNIT ( * ) SI_UNIT ( .MILLI., .METRE. ) );
#97 =( NAMED_UNIT ( * ) PLANE_ANGLE_UNIT ( ) SI_UNIT ( $, .RADIAN. ) );
#98 = PRODUCT_DEFINITION_SHAPE ( 'NONE', 'NONE',  #53 ) ;
#99 =( NAMED_UNIT ( * ) PLANE_ANGLE_UNIT ( ) SI_UNIT ( $, .RADIAN. ) );
#100 = ADVANCED_BREP_SHAPE_REPRESENTATION ( '', ( #107, #29 ), #61 ) ;
#101 = DIRECTION ( 'NONE',  ( 1.000000000000000000, 0.000000000000000000, 0.000000000000000000 ) ) ;
#102 = APPLICATION_CONTEXT ( 'automotive_design' ) ;
#103 = PRODUCT_DEFINITION_FORMATION_WITH_SPECIFIED_SOURCE ( 'ANY', '', #17, .NOT_KNOWN. ) ;
#104 = ITEM_DEFINED_TRANSFORMATION ( 'NONE', 'NONE', #143,  #29 ) ;
#105 = PRODUCT_CONTEXT ( 'NONE', #106, 'mechanical' ) ;
#106 = APPLICATION_CONTEXT ( 'automotive_design' ) ;
#107 = MANIFOLD_SOLID_BREP ( 'Boss-Extrude1', #51 ) ;
#108 = FACE_OUTER_BOUND ( 'NONE', #52, .T. ) ;
#109 = EDGE_LOOP ( 'NONE', ( #28 ) ) ;
#110 = FACE_OUTER_BOUND ( 'NONE', #92, .T. ) ;
#111 = DIRECTION ( 'NONE',  ( 1.000000000000000000, 0.000000000000000000, 0.000000000000000000 ) ) ;
#112 = PRESENTATION_STYLE_ASSIGNMENT (( #35 ) ) ;
#113 = SURFACE_SIDE_STYLE ('',( #75 ) ) ;
#114 = APPLICATION_PROTOCOL_DEFINITION ( 'draft international standard', 'automotive_design', 1998, #102 ) ;
#115 = APPLICATION_CONTEXT ( 'automotive_design' ) ;
#116 = SURFACE_SIDE_STYLE ('',( #41 ) ) ;
#117 = FACE_OUTER_BOUND ( 'NONE', #120, .T. ) ;
#118 = PRODUCT_DEFINITION_SHAPE ( 'NONE', 'NONE',  #145 ) ;
#119 = UNCERTAINTY_MEASURE_WITH_UNIT (LENGTH_MEASURE( 1.000000000000000082E-05 ), #20, 'distance_accuracy_value', 'NONE');
#120 = EDGE_LOOP ( 'NONE', ( #127 ) ) ;
#121 = AXIS2_PLACEMENT_3D ( 'NONE', #137, #62, #2 ) ;
#122 = SHAPE_REPRESENTATION_RELATIONSHIP ( 'NONE' , 'NONE' ,  #36, #100 ) ;
#123 = DIRECTION ( 'NONE',  ( 0.000000000000000000, 0.000000000000000000, 1.000000000000000000 ) ) ;
#124 = CARTESIAN_POINT ( 'NONE',  ( 0.000000000000000000, 100.0000000000000000, 0.000000000000000000 ) ) ;
#125 = PRODUCT ( 'C4_part_1', 'C4_part_1', '', ( #69 ) ) ;
#126 = UNCERTAINTY_MEASURE_WITH_UNIT (LENGTH_MEASURE( 1.000000000000000082E-05 ), #26, 'distance_accuracy_value', 'NONE');
#127 = ORIENTED_EDGE ( 'NONE', *, *, #74, .T. ) ;
#128 =( NAMED_UNIT ( * ) SI_UNIT ( $, .STERADIAN. ) SOLID_ANGLE_UNIT ( ) );
#129 = DIRECTION ( 'NONE',  ( 0.000000000000000000, 0.000000000000000000, 1.000000000000000000 ) ) ;
#130 = FILL_AREA_STYLE_COLOUR ( '', #90 ) ;
#131 = ITEM_DEFINED_TRANSFORMATION ( 'NONE', 'NONE', #10,  #29 ) ;
#132 = APPLICATION_PROTOCOL_DEFINITION ( 'draft international standard', 'automotive_design', 1998, #24 ) ;
#133 = DIRECTION ( 'NONE',  ( 0.000000000000000000, 1.000000000000000000, 0.000000000000000000 ) ) ;
#134 = PRESENTATION_LAYER_ASSIGNMENT (  '', '', ( #15 ) ) ;
#135 = ORIENTED_EDGE ( 'NONE', *, *, #67, .T. ) ;
#136 = PRODUCT_DEFINITION_SHAPE ( 'NONE', 'NONE',  #89 ) ;
#137 = CARTESIAN_POINT ( 'NONE',  ( 0.000000000000000000, 100.0000000000000000, 0.000000000000000000 ) ) ;
#138 = PRESENTATION_LAYER_ASSIGNMENT (  '', '', ( #33 ) ) ;
#139 = DIRECTION ( 'NONE',  ( 0.000000000000000000, 0.000000000000000000, 1.000000000000000000 ) ) ;
#140 = CARTESIAN_POINT ( 'NONE',  ( 0.000000000000000000, 100.0000000000000000, 50.00000000000000000 ) ) ;
#141 = PRODUCT_RELATED_PRODUCT_CATEGORY ( 'part', '', ( #17 ) ) ;
#142 =( LENGTH_UNIT ( ) NAMED_UNIT ( * ) SI_UNIT ( .MILLI., .METRE. ) );
#143 = AXIS2_PLACEMENT_3D ( 'NONE', #65, #48, #101 ) ;
#144 = CONTEXT_DEPENDENT_SHAPE_REPRESENTATION ( #6, #118 ) ;
#145 = NEXT_ASSEMBLY_USAGE_OCCURRENCE ( 'NAUO1', ' ', ' ', #53, #89, $ ) ;
#146 = NEXT_ASSEMBLY_USAGE_OCCURRENCE ( 'NAUO2', ' ', ' ', #53, #89, $ ) ;
#147=COLOUR_RGB('',1,1,0);
#148=FILL_AREA_STYLE_COLOUR('',#147);
#149=FILL_AREA_STYLE('',(#148));
#150=SURFACE_STYLE_FILL_AREA(#149);
#151=SURFACE_SIDE_STYLE('',(#150));
#152=SURFACE_STYLE_USAGE(.BOTH.,#151);
#153=PRESENTATION_STYLE_ASSIGNMENT((#152));
#154=CONTEXT_DEPENDENT_OVER_RIDING_STYLED_ITEM('occurrence colour',(#153),#107,#33,(#146));
#155=COLOUR_RGB('',0.909803921568627,0.443137254901961,0.0313725490196078);
#156=FILL_AREA_STYLE_COLOUR('',#155);
#157=FILL_AREA_STYLE('',(#156));
#158=SURFACE_STYLE_FILL_AREA(#157);
#159=SURFACE_SIDE_STYLE('',(#158));
#160=SURFACE_STYLE_USAGE(.BOTH.,#159);
#161=PRESENTATION_STYLE_ASSIGNMENT((#160));
#162=CONTEXT_DEPENDENT_OVER_RIDING_STYLED_ITEM('occurrence colour',(#161),#107,#33,(#145));
ENDSEC;
END-ISO-10303-21;
