ISO-10303-21;
HEADER;
FILE_DESCRIPTION (( 'STEP AP214' ),
    '1' );
FILE_NAME ('C4_component_override_2__native.step',
    '2026-08-06T14:04:56',
    ( '' ),
    ( '' ),
    'SwSTEP 2.0',
    'SolidWorks 2026',
    '' );
FILE_SCHEMA (( 'AUTOMOTIVE_DESIGN' ));
ENDSEC;

DATA;
#1 = DIRECTION ( 'NONE',  ( 0.000000000000000000, 0.000000000000000000, 1.000000000000000000 ) ) ;
#2 = PRODUCT_CONTEXT ( 'NONE', #125, 'mechanical' ) ;
#3 = STYLED_ITEM ( 'NONE', ( #86 ), #129 ) ;
#4 = CYLINDRICAL_SURFACE ( 'NONE', #96, 50.00000000000000000 ) ;
#5 = FACE_OUTER_BOUND ( 'NONE', #45, .T. ) ;
#6 = AXIS2_PLACEMENT_3D ( 'NONE', #11, #97, #135 ) ;
#7 =( REPRESENTATION_RELATIONSHIP ('NONE','NONE', #47, #116 ) REPRESENTATION_RELATIONSHIP_WITH_TRANSFORMATION ( #117 )SHAPE_REPRESENTATION_RELATIONSHIP( ) );
#8 = CARTESIAN_POINT ( 'NONE',  ( 0.000000000000000000, 100.0000000000000000, 0.000000000000000000 ) ) ;
#9 = ORIENTED_EDGE ( 'NONE', *, *, #88, .T. ) ;
#10 = FACE_OUTER_BOUND ( 'NONE', #108, .T. ) ;
#11 = CARTESIAN_POINT ( 'NONE',  ( 0.000000000000000000, 0.000000000000000000, 0.000000000000000000 ) ) ;
#12 = COLOUR_RGB ( '',1.000000000000000000, 0.000000000000000000, 0.000000000000000000 ) ;
#13 = CARTESIAN_POINT ( 'NONE',  ( 129.8588026547804475, -29.07840402331203578, -68.52472038008272648 ) ) ;
#14 = CARTESIAN_POINT ( 'NONE',  ( 0.000000000000000000, 0.000000000000000000, 0.000000000000000000 ) ) ;
#15 = ADVANCED_FACE ( 'NONE', ( #10 ), #128, .T. ) ;
#16 = SURFACE_STYLE_FILL_AREA ( #111 ) ;
#17 = UNCERTAINTY_MEASURE_WITH_UNIT (LENGTH_MEASURE( 1.000000000000000082E-05 ), #74, 'distance_accuracy_value', 'NONE');
#18 = CARTESIAN_POINT ( 'NONE',  ( 0.000000000000000000, 0.000000000000000000, 0.000000000000000000 ) ) ;
#19 = CARTESIAN_POINT ( 'NONE',  ( 0.000000000000000000, 0.000000000000000000, 50.00000000000000000 ) ) ;
#20 = PRODUCT_RELATED_PRODUCT_CATEGORY ( 'part', '', ( #113 ) ) ;
#21 =( NAMED_UNIT ( * ) SI_UNIT ( $, .STERADIAN. ) SOLID_ANGLE_UNIT ( ) );
#22 = DIRECTION ( 'NONE',  ( 0.000000000000000000, 0.000000000000000000, 1.000000000000000000 ) ) ;
#23 = PRODUCT_DEFINITION_SHAPE ( 'NONE', 'NONE',  #112 ) ;
#24 = SURFACE_STYLE_FILL_AREA ( #62 ) ;
#25 = APPLICATION_PROTOCOL_DEFINITION ( 'draft international standard', 'automotive_design', 1998, #44 ) ;
#26 = ITEM_DEFINED_TRANSFORMATION ( 'NONE', 'NONE', #87,  #6 ) ;
#27 =( NAMED_UNIT ( * ) PLANE_ANGLE_UNIT ( ) SI_UNIT ( $, .RADIAN. ) );
#28 = ADVANCED_FACE ( 'NONE', ( #31 ), #48, .F. ) ;
#29 = CLOSED_SHELL ( 'NONE', ( #139, #15, #28 ) ) ;
#30 = PRODUCT_DEFINITION_CONTEXT ( 'detailed design', #103, 'design' ) ;
#31 = FACE_OUTER_BOUND ( 'NONE', #109, .T. ) ;
#32 = EDGE_LOOP ( 'NONE', ( #9 ) ) ;
#33 =( GEOMETRIC_REPRESENTATION_CONTEXT ( 3 ) GLOBAL_UNCERTAINTY_ASSIGNED_CONTEXT ( ( #71 ) ) GLOBAL_UNIT_ASSIGNED_CONTEXT ( ( #123, #27, #80 ) ) REPRESENTATION_CONTEXT ( 'NONE', 'WORKASPACE' ) );
#34 = ORIENTED_EDGE ( 'NONE', *, *, #94, .T. ) ;
#35 = AXIS2_PLACEMENT_3D ( 'NONE', #134, #37, #77 ) ;
#36 = APPLICATION_CONTEXT ( 'automotive_design' ) ;
#37 = DIRECTION ( 'NONE',  ( 0.000000000000000000, 0.000000000000000000, 1.000000000000000000 ) ) ;
#38 = PRODUCT_DEFINITION_SHAPE ( 'NONE', 'NONE',  #66 ) ;
#39 = PRESENTATION_LAYER_ASSIGNMENT (  '', '', ( #110 ) ) ;
#40 = CARTESIAN_POINT ( 'NONE',  ( 0.000000000000000000, 0.000000000000000000, 0.000000000000000000 ) ) ;
#41 =( NAMED_UNIT ( * ) PLANE_ANGLE_UNIT ( ) SI_UNIT ( $, .RADIAN. ) );
#42 = MANIFOLD_SOLID_BREP ( 'Boss-Extrude1', #29 ) ;
#43 = CIRCLE ( 'NONE', #115, 50.00000000000000000 ) ;
#44 = APPLICATION_CONTEXT ( 'automotive_design' ) ;
#45 = EDGE_LOOP ( 'NONE', ( #132 ) ) ;
#46 = SURFACE_STYLE_USAGE ( .BOTH. , #72 ) ;
#47 = SHAPE_REPRESENTATION ( 'C4_component_override_2__native', ( #35, #79, #87 ), #58 ) ;
#48 = PLANE ( 'NONE',  #63 ) ;
#49 = MECHANICAL_DESIGN_GEOMETRIC_PRESENTATION_REPRESENTATION (  '', ( #3 ), #95 ) ;
#50 =( LENGTH_UNIT ( ) NAMED_UNIT ( * ) SI_UNIT ( .MILLI., .METRE. ) );
#51 = DIRECTION ( 'NONE',  ( 1.000000000000000000, 0.000000000000000000, 0.000000000000000000 ) ) ;
#52 = SURFACE_STYLE_USAGE ( .BOTH. , #126 ) ;
#53 = SHAPE_DEFINITION_REPRESENTATION ( #23, #116 ) ;
#54 = CARTESIAN_POINT ( 'NONE',  ( 0.000000000000000000, 100.0000000000000000, 0.000000000000000000 ) ) ;
#55 = DIRECTION ( 'NONE',  ( 0.000000000000000000, 1.000000000000000000, 0.000000000000000000 ) ) ;
#56 = PRODUCT_CONTEXT ( 'NONE', #36, 'mechanical' ) ;
#57 =( GEOMETRIC_REPRESENTATION_CONTEXT ( 3 ) GLOBAL_UNCERTAINTY_ASSIGNED_CONTEXT ( ( #17 ) ) GLOBAL_UNIT_ASSIGNED_CONTEXT ( ( #74, #144, #21 ) ) REPRESENTATION_CONTEXT ( 'NONE', 'WORKASPACE' ) );
#58 =( GEOMETRIC_REPRESENTATION_CONTEXT ( 3 ) GLOBAL_UNCERTAINTY_ASSIGNED_CONTEXT ( ( #130 ) ) GLOBAL_UNIT_ASSIGNED_CONTEXT ( ( #50, #41, #60 ) ) REPRESENTATION_CONTEXT ( 'NONE', 'WORKASPACE' ) );
#59 = CARTESIAN_POINT ( 'NONE',  ( 0.000000000000000000, 0.000000000000000000, 0.000000000000000000 ) ) ;
#60 =( NAMED_UNIT ( * ) SI_UNIT ( $, .STERADIAN. ) SOLID_ANGLE_UNIT ( ) );
#61 = PRODUCT_DEFINITION_SHAPE ( 'NONE', 'NONE',  #145 ) ;
#62 = FILL_AREA_STYLE ('',( #136 ) ) ;
#63 = AXIS2_PLACEMENT_3D ( 'NONE', #18, #99, #106 ) ;
#64 = DIRECTION ( 'NONE',  ( 0.000000000000000000, 0.000000000000000000, 1.000000000000000000 ) ) ;
#65 =( LENGTH_UNIT ( ) NAMED_UNIT ( * ) SI_UNIT ( .MILLI., .METRE. ) );
#66 = PRODUCT_DEFINITION ( 'UNKNOWN', '', #121, #75 ) ;
#67 = AXIS2_PLACEMENT_3D ( 'NONE', #40, #22, #114 ) ;
#68 = CARTESIAN_POINT ( 'NONE',  ( 0.000000000000000000, 100.0000000000000000, 0.000000000000000000 ) ) ;
#69 = VERTEX_POINT ( 'NONE', #143 ) ;
#70 = AXIS2_PLACEMENT_3D ( 'NONE', #8, #55, #73 ) ;
#71 = UNCERTAINTY_MEASURE_WITH_UNIT (LENGTH_MEASURE( 1.000000000000000082E-05 ), #123, 'distance_accuracy_value', 'NONE');
#72 = SURFACE_SIDE_STYLE ('',( #16 ) ) ;
#73 = DIRECTION ( 'NONE',  ( 0.000000000000000000, -0.000000000000000000, 1.000000000000000000 ) ) ;
#74 =( LENGTH_UNIT ( ) NAMED_UNIT ( * ) SI_UNIT ( .MILLI., .METRE. ) );
#75 = PRODUCT_DEFINITION_CONTEXT ( 'detailed design', #44, 'design' ) ;
#76 = COLOUR_RGB ( '',0.9098039215686274384, 0.4431372549019607643, 0.03137254901960784270 ) ;
#77 = DIRECTION ( 'NONE',  ( 1.000000000000000000, 0.000000000000000000, 0.000000000000000000 ) ) ;
#78 = DIRECTION ( 'NONE',  ( 1.000000000000000000, 0.000000000000000000, 0.000000000000000000 ) ) ;
#79 = AXIS2_PLACEMENT_3D ( 'NONE', #14, #1, #51 ) ;
#80 =( NAMED_UNIT ( * ) SI_UNIT ( $, .STERADIAN. ) SOLID_ANGLE_UNIT ( ) );
#81 = SHAPE_DEFINITION_REPRESENTATION ( #38, #47 ) ;
#82 = UNCERTAINTY_MEASURE_WITH_UNIT (LENGTH_MEASURE( 1.000000000000000082E-05 ), #65, 'distance_accuracy_value', 'NONE');
#83 = PRODUCT_DEFINITION_SHAPE ( 'NONE', 'NONE',  #146 ) ;
#84 = FILL_AREA_STYLE_COLOUR ( '', #12 ) ;
#85 =( NAMED_UNIT ( * ) SI_UNIT ( $, .STERADIAN. ) SOLID_ANGLE_UNIT ( ) );
#86 = PRESENTATION_STYLE_ASSIGNMENT (( #52 ) ) ;
#87 = AXIS2_PLACEMENT_3D ( 'NONE', #13, #64, #78 ) ;
#88 = EDGE_CURVE ( 'NONE', #141, #141, #43, .T. ) ;
#89 = PRODUCT_DEFINITION_FORMATION_WITH_SPECIFIED_SOURCE ( 'ANY', '', #142, .NOT_KNOWN. ) ;
#90 = CONTEXT_DEPENDENT_SHAPE_REPRESENTATION ( #127, #83 ) ;
#91 = APPLICATION_PROTOCOL_DEFINITION ( 'draft international standard', 'automotive_design', 1998, #36 ) ;
#92 = ORIENTED_EDGE ( 'NONE', *, *, #88, .F. ) ;
#93 = DIRECTION ( 'NONE',  ( 0.000000000000000000, 1.000000000000000000, 0.000000000000000000 ) ) ;
#94 = EDGE_CURVE ( 'NONE', #69, #69, #131, .T. ) ;
#95 =( GEOMETRIC_REPRESENTATION_CONTEXT ( 3 ) GLOBAL_UNCERTAINTY_ASSIGNED_CONTEXT ( ( #82 ) ) GLOBAL_UNIT_ASSIGNED_CONTEXT ( ( #65, #124, #85 ) ) REPRESENTATION_CONTEXT ( 'NONE', 'WORKASPACE' ) );
#96 = AXIS2_PLACEMENT_3D ( 'NONE', #54, #122, #98 ) ;
#97 = DIRECTION ( 'NONE',  ( 0.000000000000000000, 0.000000000000000000, 1.000000000000000000 ) ) ;
#98 = DIRECTION ( 'NONE',  ( 0.000000000000000000, 0.000000000000000000, -1.000000000000000000 ) ) ;
#99 = DIRECTION ( 'NONE',  ( 0.000000000000000000, 1.000000000000000000, 0.000000000000000000 ) ) ;
#100 = MECHANICAL_DESIGN_GEOMETRIC_PRESENTATION_REPRESENTATION (  '', ( #110 ), #33 ) ;
#101 = DIRECTION ( 'NONE',  ( 0.000000000000000000, 0.000000000000000000, 1.000000000000000000 ) ) ;
#102 = DIRECTION ( 'NONE',  ( 0.000000000000000000, 0.000000000000000000, 1.000000000000000000 ) ) ;
#103 = APPLICATION_CONTEXT ( 'automotive_design' ) ;
#104 = PRESENTATION_LAYER_ASSIGNMENT (  '', '', ( #3 ) ) ;
#105 = FACE_OUTER_BOUND ( 'NONE', #32, .T. ) ;
#106 = DIRECTION ( 'NONE',  ( 0.000000000000000000, -0.000000000000000000, 1.000000000000000000 ) ) ;
#107 = CONTEXT_DEPENDENT_SHAPE_REPRESENTATION ( #7, #61 ) ;
#108 = EDGE_LOOP ( 'NONE', ( #34 ) ) ;
#109 = EDGE_LOOP ( 'NONE', ( #92 ) ) ;
#110 = STYLED_ITEM ( 'NONE', ( #118 ), #42 ) ;
#111 = FILL_AREA_STYLE ('',( #84 ) ) ;
#112 = PRODUCT_DEFINITION ( 'UNKNOWN', '', #89, #30 ) ;
#113 = PRODUCT ( 'C4_component_override_2__native', 'C4_component_override_2__native', '', ( #2 ) ) ;
#114 = DIRECTION ( 'NONE',  ( 1.000000000000000000, 0.000000000000000000, 0.000000000000000000 ) ) ;
#115 = AXIS2_PLACEMENT_3D ( 'NONE', #59, #93, #102 ) ;
#116 = SHAPE_REPRESENTATION ( 'C4_part_1', ( #6 ), #57 ) ;
#117 = ITEM_DEFINED_TRANSFORMATION ( 'NONE', 'NONE', #79,  #6 ) ;
#118 = PRESENTATION_STYLE_ASSIGNMENT (( #46 ) ) ;
#119 = APPLICATION_PROTOCOL_DEFINITION ( 'draft international standard', 'automotive_design', 1998, #125 ) ;
#120 = DIRECTION ( 'NONE',  ( 0.000000000000000000, 1.000000000000000000, 0.000000000000000000 ) ) ;
#121 = PRODUCT_DEFINITION_FORMATION_WITH_SPECIFIED_SOURCE ( 'ANY', '', #113, .NOT_KNOWN. ) ;
#122 = DIRECTION ( 'NONE',  ( -0.000000000000000000, -1.000000000000000000, -0.000000000000000000 ) ) ;
#123 =( LENGTH_UNIT ( ) NAMED_UNIT ( * ) SI_UNIT ( .MILLI., .METRE. ) );
#124 =( NAMED_UNIT ( * ) PLANE_ANGLE_UNIT ( ) SI_UNIT ( $, .RADIAN. ) );
#125 = APPLICATION_CONTEXT ( 'automotive_design' ) ;
#126 = SURFACE_SIDE_STYLE ('',( #24 ) ) ;
#127 =( REPRESENTATION_RELATIONSHIP ('NONE','NONE', #47, #116 ) REPRESENTATION_RELATIONSHIP_WITH_TRANSFORMATION ( #26 )SHAPE_REPRESENTATION_RELATIONSHIP( ) );
#128 = PLANE ( 'NONE',  #70 ) ;
#129 = ADVANCED_BREP_SHAPE_REPRESENTATION ( '', ( #42, #6 ), #57 ) ;
#130 = UNCERTAINTY_MEASURE_WITH_UNIT (LENGTH_MEASURE( 1.000000000000000082E-05 ), #50, 'distance_accuracy_value', 'NONE');
#131 = CIRCLE ( 'NONE', #138, 50.00000000000000000 ) ;
#132 = ORIENTED_EDGE ( 'NONE', *, *, #94, .F. ) ;
#133 = PRODUCT_RELATED_PRODUCT_CATEGORY ( 'part', '', ( #142 ) ) ;
#134 = CARTESIAN_POINT ( 'NONE',  ( 0.000000000000000000, 0.000000000000000000, 0.000000000000000000 ) ) ;
#135 = DIRECTION ( 'NONE',  ( 1.000000000000000000, 0.000000000000000000, 0.000000000000000000 ) ) ;
#136 = FILL_AREA_STYLE_COLOUR ( '', #76 ) ;
#137 = SHAPE_REPRESENTATION_RELATIONSHIP ( 'NONE' , 'NONE' ,  #116, #129 ) ;
#138 = AXIS2_PLACEMENT_3D ( 'NONE', #68, #120, #101 ) ;
#139 = ADVANCED_FACE ( 'NONE', ( #5, #105 ), #4, .T. ) ;
#140 = APPLICATION_PROTOCOL_DEFINITION ( 'draft international standard', 'automotive_design', 1998, #103 ) ;
#141 = VERTEX_POINT ( 'NONE', #19 ) ;
#142 = PRODUCT ( 'C4_part_1', 'C4_part_1', '', ( #56 ) ) ;
#143 = CARTESIAN_POINT ( 'NONE',  ( 0.000000000000000000, 100.0000000000000000, 50.00000000000000000 ) ) ;
#144 =( NAMED_UNIT ( * ) PLANE_ANGLE_UNIT ( ) SI_UNIT ( $, .RADIAN. ) );
#145 = NEXT_ASSEMBLY_USAGE_OCCURRENCE ( 'NAUO1', ' ', ' ', #66, #112, $ ) ;
#146 = NEXT_ASSEMBLY_USAGE_OCCURRENCE ( 'NAUO2', ' ', ' ', #66, #112, $ ) ;
#147=COLOUR_RGB('',0,1,0);
#148=FILL_AREA_STYLE_COLOUR('',#147);
#149=FILL_AREA_STYLE('',(#148));
#150=SURFACE_STYLE_FILL_AREA(#149);
#151=SURFACE_SIDE_STYLE('',(#150));
#152=SURFACE_STYLE_USAGE(.BOTH.,#151);
#153=PRESENTATION_STYLE_ASSIGNMENT((#152));
#154=CONTEXT_DEPENDENT_OVER_RIDING_STYLED_ITEM('occurrence colour',(#153),#42,#110,(#145));
#155=COLOUR_RGB('',0,1,0);
#156=FILL_AREA_STYLE_COLOUR('',#155);
#157=FILL_AREA_STYLE('',(#156));
#158=SURFACE_STYLE_FILL_AREA(#157);
#159=SURFACE_SIDE_STYLE('',(#158));
#160=SURFACE_STYLE_USAGE(.BOTH.,#159);
#161=PRESENTATION_STYLE_ASSIGNMENT((#160));
#162=CONTEXT_DEPENDENT_OVER_RIDING_STYLED_ITEM('occurrence colour',(#161),#42,#110,(#146));
ENDSEC;
END-ISO-10303-21;
