ISO-10303-21;
HEADER;
FILE_DESCRIPTION (( 'STEP AP214' ),
    '1' );
FILE_NAME ('C4_component_override_1__native.step',
    '2026-08-06T15:50:38',
    ( 'info@peak-design.co.uk' ),
    ( '' ),
    'SwSTEP 2.0',
    'SolidWorks 2026',
    '' );
FILE_SCHEMA (( 'AUTOMOTIVE_DESIGN' ));
ENDSEC;

DATA;
#1 =( GEOMETRIC_REPRESENTATION_CONTEXT ( 3 ) GLOBAL_UNCERTAINTY_ASSIGNED_CONTEXT ( ( #137 ) ) GLOBAL_UNIT_ASSIGNED_CONTEXT ( ( #48, #96, #45 ) ) REPRESENTATION_CONTEXT ( 'NONE', 'WORKASPACE' ) );
#2 =( GEOMETRIC_REPRESENTATION_CONTEXT ( 3 ) GLOBAL_UNCERTAINTY_ASSIGNED_CONTEXT ( ( #13 ) ) GLOBAL_UNIT_ASSIGNED_CONTEXT ( ( #101, #50, #40 ) ) REPRESENTATION_CONTEXT ( 'NONE', 'WORKASPACE' ) );
#3 = CONTEXT_DEPENDENT_SHAPE_REPRESENTATION ( #89, #108 ) ;
#4 = DIRECTION ( 'NONE',  ( 0.000000000000000000, -0.000000000000000000, 1.000000000000000000 ) ) ;
#5 = FACE_OUTER_BOUND ( 'NONE', #36, .T. ) ;
#6 = DIRECTION ( 'NONE',  ( 1.000000000000000000, 0.000000000000000000, 0.000000000000000000 ) ) ;
#7 = ORIENTED_EDGE ( 'NONE', *, *, #98, .T. ) ;
#8 = CARTESIAN_POINT ( 'NONE',  ( 0.000000000000000000, 0.000000000000000000, 50.00000000000000000 ) ) ;
#9 = CLOSED_SHELL ( 'NONE', ( #49, #104, #64 ) ) ;
#10 = PRODUCT_RELATED_PRODUCT_CATEGORY ( 'part', '', ( #79 ) ) ;
#11 = COLOUR_RGB ( '',0.9098039215686274384, 0.4431372549019607643, 0.03137254901960784270 ) ;
#12 = PRESENTATION_LAYER_ASSIGNMENT (  '', '', ( #27 ) ) ;
#13 = UNCERTAINTY_MEASURE_WITH_UNIT (LENGTH_MEASURE( 1.000000000000000082E-05 ), #101, 'distance_accuracy_value', 'NONE');
#14 = CARTESIAN_POINT ( 'NONE',  ( 0.000000000000000000, 100.0000000000000000, 0.000000000000000000 ) ) ;
#15 = CONTEXT_DEPENDENT_SHAPE_REPRESENTATION ( #29, #42 ) ;
#16 = PRODUCT_DEFINITION_FORMATION_WITH_SPECIFIED_SOURCE ( 'ANY', '', #79, .NOT_KNOWN. ) ;
#17 = FACE_OUTER_BOUND ( 'NONE', #73, .T. ) ;
#18 = SHAPE_REPRESENTATION_RELATIONSHIP ( 'NONE' , 'NONE' ,  #55, #92 ) ;
#19 = PRODUCT_DEFINITION_SHAPE ( 'NONE', 'NONE',  #59 ) ;
#20 =( GEOMETRIC_REPRESENTATION_CONTEXT ( 3 ) GLOBAL_UNCERTAINTY_ASSIGNED_CONTEXT ( ( #69 ) ) GLOBAL_UNIT_ASSIGNED_CONTEXT ( ( #62, #67, #68 ) ) REPRESENTATION_CONTEXT ( 'NONE', 'WORKASPACE' ) );
#21 = MECHANICAL_DESIGN_GEOMETRIC_PRESENTATION_REPRESENTATION (  '', ( #82 ), #53 ) ;
#22 = DIRECTION ( 'NONE',  ( 0.000000000000000000, 1.000000000000000000, 0.000000000000000000 ) ) ;
#23 = SURFACE_STYLE_FILL_AREA ( #94 ) ;
#24 = CARTESIAN_POINT ( 'NONE',  ( 0.000000000000000000, 100.0000000000000000, 0.000000000000000000 ) ) ;
#25 = AXIS2_PLACEMENT_3D ( 'NONE', #31, #130, #34 ) ;
#26 = AXIS2_PLACEMENT_3D ( 'NONE', #144, #39, #76 ) ;
#27 = STYLED_ITEM ( 'NONE', ( #141 ), #118 ) ;
#28 = PRODUCT_DEFINITION_CONTEXT ( 'detailed design', #136, 'design' ) ;
#29 =( REPRESENTATION_RELATIONSHIP ('NONE','NONE', #128, #55 ) REPRESENTATION_RELATIONSHIP_WITH_TRANSFORMATION ( #132 )SHAPE_REPRESENTATION_RELATIONSHIP( ) );
#30 = ORIENTED_EDGE ( 'NONE', *, *, #70, .T. ) ;
#31 = CARTESIAN_POINT ( 'NONE',  ( 129.8588026547804475, -29.07840402331203578, -68.52472038008272648 ) ) ;
#32 = EDGE_LOOP ( 'NONE', ( #120 ) ) ;
#33 = ITEM_DEFINED_TRANSFORMATION ( 'NONE', 'NONE', #35,  #100 ) ;
#34 = DIRECTION ( 'NONE',  ( 1.000000000000000000, 0.000000000000000000, 0.000000000000000000 ) ) ;
#35 = AXIS2_PLACEMENT_3D ( 'NONE', #127, #119, #110 ) ;
#36 = EDGE_LOOP ( 'NONE', ( #7 ) ) ;
#37 = VERTEX_POINT ( 'NONE', #8 ) ;
#38 =( NAMED_UNIT ( * ) SI_UNIT ( $, .STERADIAN. ) SOLID_ANGLE_UNIT ( ) );
#39 = DIRECTION ( 'NONE',  ( 0.000000000000000000, 0.000000000000000000, 1.000000000000000000 ) ) ;
#40 =( NAMED_UNIT ( * ) SI_UNIT ( $, .STERADIAN. ) SOLID_ANGLE_UNIT ( ) );
#41 = AXIS2_PLACEMENT_3D ( 'NONE', #81, #131, #71 ) ;
#42 = PRODUCT_DEFINITION_SHAPE ( 'NONE', 'NONE',  #146 ) ;
#43 = PRODUCT_DEFINITION_FORMATION_WITH_SPECIFIED_SOURCE ( 'ANY', '', #56, .NOT_KNOWN. ) ;
#44 = PRODUCT_CONTEXT ( 'NONE', #77, 'mechanical' ) ;
#45 =( NAMED_UNIT ( * ) SI_UNIT ( $, .STERADIAN. ) SOLID_ANGLE_UNIT ( ) );
#46 = DIRECTION ( 'NONE',  ( 0.000000000000000000, 1.000000000000000000, 0.000000000000000000 ) ) ;
#47 = SHAPE_DEFINITION_REPRESENTATION ( #129, #55 ) ;
#48 =( LENGTH_UNIT ( ) NAMED_UNIT ( * ) SI_UNIT ( .MILLI., .METRE. ) );
#49 = ADVANCED_FACE ( 'NONE', ( #17, #87 ), #57, .T. ) ;
#50 =( NAMED_UNIT ( * ) PLANE_ANGLE_UNIT ( ) SI_UNIT ( $, .RADIAN. ) );
#51 = FILL_AREA_STYLE_COLOUR ( '', #11 ) ;
#52 = FILL_AREA_STYLE ('',( #51 ) ) ;
#53 =( GEOMETRIC_REPRESENTATION_CONTEXT ( 3 ) GLOBAL_UNCERTAINTY_ASSIGNED_CONTEXT ( ( #91 ) ) GLOBAL_UNIT_ASSIGNED_CONTEXT ( ( #125, #103, #38 ) ) REPRESENTATION_CONTEXT ( 'NONE', 'WORKASPACE' ) );
#54 = DIRECTION ( 'NONE',  ( -0.000000000000000000, -1.000000000000000000, -0.000000000000000000 ) ) ;
#55 = SHAPE_REPRESENTATION ( 'C4_part_1', ( #100 ), #2 ) ;
#56 = PRODUCT ( 'C4_part_1', 'C4_part_1', '', ( #44 ) ) ;
#57 = CYLINDRICAL_SURFACE ( 'NONE', #88, 50.00000000000000000 ) ;
#58 = APPLICATION_CONTEXT ( 'automotive_design' ) ;
#59 = PRODUCT_DEFINITION ( 'UNKNOWN', '', #16, #28 ) ;
#60 = SHAPE_DEFINITION_REPRESENTATION ( #19, #128 ) ;
#61 = APPLICATION_PROTOCOL_DEFINITION ( 'draft international standard', 'automotive_design', 1998, #136 ) ;
#62 =( LENGTH_UNIT ( ) NAMED_UNIT ( * ) SI_UNIT ( .MILLI., .METRE. ) );
#63 = PRODUCT_DEFINITION_CONTEXT ( 'detailed design', #58, 'design' ) ;
#64 = ADVANCED_FACE ( 'NONE', ( #93 ), #122, .F. ) ;
#65 = DIRECTION ( 'NONE',  ( 1.000000000000000000, 0.000000000000000000, 0.000000000000000000 ) ) ;
#66 = APPLICATION_CONTEXT ( 'automotive_design' ) ;
#67 =( NAMED_UNIT ( * ) PLANE_ANGLE_UNIT ( ) SI_UNIT ( $, .RADIAN. ) );
#68 =( NAMED_UNIT ( * ) SI_UNIT ( $, .STERADIAN. ) SOLID_ANGLE_UNIT ( ) );
#69 = UNCERTAINTY_MEASURE_WITH_UNIT (LENGTH_MEASURE( 1.000000000000000082E-05 ), #62, 'distance_accuracy_value', 'NONE');
#70 = EDGE_CURVE ( 'NONE', #37, #37, #90, .T. ) ;
#71 = DIRECTION ( 'NONE',  ( 0.000000000000000000, 0.000000000000000000, 1.000000000000000000 ) ) ;
#72 = CARTESIAN_POINT ( 'NONE',  ( 0.000000000000000000, 0.000000000000000000, 0.000000000000000000 ) ) ;
#73 = EDGE_LOOP ( 'NONE', ( #142 ) ) ;
#74 = APPLICATION_PROTOCOL_DEFINITION ( 'draft international standard', 'automotive_design', 1998, #66 ) ;
#75 = COLOUR_RGB ( '',1.000000000000000000, 0.000000000000000000, 0.000000000000000000 ) ;
#76 = DIRECTION ( 'NONE',  ( 1.000000000000000000, 0.000000000000000000, 0.000000000000000000 ) ) ;
#77 = APPLICATION_CONTEXT ( 'automotive_design' ) ;
#78 = PRODUCT_RELATED_PRODUCT_CATEGORY ( 'part', '', ( #56 ) ) ;
#79 = PRODUCT ( 'C4_component_override_1__native', 'C4_component_override_1__native', '', ( #115 ) ) ;
#80 = AXIS2_PLACEMENT_3D ( 'NONE', #72, #140, #6 ) ;
#81 = CARTESIAN_POINT ( 'NONE',  ( 0.000000000000000000, 0.000000000000000000, 0.000000000000000000 ) ) ;
#82 = STYLED_ITEM ( 'NONE', ( #85 ), #92 ) ;
#83 = CIRCLE ( 'NONE', #116, 50.00000000000000000 ) ;
#84 = VERTEX_POINT ( 'NONE', #106 ) ;
#85 = PRESENTATION_STYLE_ASSIGNMENT (( #102 ) ) ;
#86 = CARTESIAN_POINT ( 'NONE',  ( 0.000000000000000000, 0.000000000000000000, 0.000000000000000000 ) ) ;
#87 = FACE_OUTER_BOUND ( 'NONE', #113, .T. ) ;
#88 = AXIS2_PLACEMENT_3D ( 'NONE', #105, #54, #126 ) ;
#89 =( REPRESENTATION_RELATIONSHIP ('NONE','NONE', #128, #55 ) REPRESENTATION_RELATIONSHIP_WITH_TRANSFORMATION ( #33 )SHAPE_REPRESENTATION_RELATIONSHIP( ) );
#90 = CIRCLE ( 'NONE', #41, 50.00000000000000000 ) ;
#91 = UNCERTAINTY_MEASURE_WITH_UNIT (LENGTH_MEASURE( 1.000000000000000082E-05 ), #125, 'distance_accuracy_value', 'NONE');
#92 = ADVANCED_BREP_SHAPE_REPRESENTATION ( '', ( #118, #100 ), #2 ) ;
#93 = FACE_OUTER_BOUND ( 'NONE', #32, .T. ) ;
#94 = FILL_AREA_STYLE ('',( #97 ) ) ;
#95 = DIRECTION ( 'NONE',  ( 0.000000000000000000, -0.000000000000000000, 1.000000000000000000 ) ) ;
#96 =( NAMED_UNIT ( * ) PLANE_ANGLE_UNIT ( ) SI_UNIT ( $, .RADIAN. ) );
#97 = FILL_AREA_STYLE_COLOUR ( '', #75 ) ;
#98 = EDGE_CURVE ( 'NONE', #84, #84, #83, .T. ) ;
#99 = PLANE ( 'NONE',  #117 ) ;
#100 = AXIS2_PLACEMENT_3D ( 'NONE', #86, #135, #65 ) ;
#101 =( LENGTH_UNIT ( ) NAMED_UNIT ( * ) SI_UNIT ( .MILLI., .METRE. ) );
#102 = SURFACE_STYLE_USAGE ( .BOTH. , #107 ) ;
#103 =( NAMED_UNIT ( * ) PLANE_ANGLE_UNIT ( ) SI_UNIT ( $, .RADIAN. ) );
#104 = ADVANCED_FACE ( 'NONE', ( #5 ), #99, .T. ) ;
#105 = CARTESIAN_POINT ( 'NONE',  ( 0.000000000000000000, 100.0000000000000000, 0.000000000000000000 ) ) ;
#106 = CARTESIAN_POINT ( 'NONE',  ( 0.000000000000000000, 100.0000000000000000, 50.00000000000000000 ) ) ;
#107 = SURFACE_SIDE_STYLE ('',( #143 ) ) ;
#108 = PRODUCT_DEFINITION_SHAPE ( 'NONE', 'NONE',  #145 ) ;
#109 = AXIS2_PLACEMENT_3D ( 'NONE', #123, #46, #95 ) ;
#110 = DIRECTION ( 'NONE',  ( 1.000000000000000000, 0.000000000000000000, 0.000000000000000000 ) ) ;
#111 = PRESENTATION_LAYER_ASSIGNMENT (  '', '', ( #82 ) ) ;
#112 = SURFACE_STYLE_USAGE ( .BOTH. , #139 ) ;
#113 = EDGE_LOOP ( 'NONE', ( #30 ) ) ;
#114 = DIRECTION ( 'NONE',  ( 0.000000000000000000, 1.000000000000000000, 0.000000000000000000 ) ) ;
#115 = PRODUCT_CONTEXT ( 'NONE', #66, 'mechanical' ) ;
#116 = AXIS2_PLACEMENT_3D ( 'NONE', #14, #22, #121 ) ;
#117 = AXIS2_PLACEMENT_3D ( 'NONE', #24, #114, #4 ) ;
#118 = MANIFOLD_SOLID_BREP ( 'Boss-Extrude1', #9 ) ;
#119 = DIRECTION ( 'NONE',  ( 0.000000000000000000, 0.000000000000000000, 1.000000000000000000 ) ) ;
#120 = ORIENTED_EDGE ( 'NONE', *, *, #70, .F. ) ;
#121 = DIRECTION ( 'NONE',  ( 0.000000000000000000, 0.000000000000000000, 1.000000000000000000 ) ) ;
#122 = PLANE ( 'NONE',  #109 ) ;
#123 = CARTESIAN_POINT ( 'NONE',  ( 0.000000000000000000, 0.000000000000000000, 0.000000000000000000 ) ) ;
#124 = APPLICATION_PROTOCOL_DEFINITION ( 'draft international standard', 'automotive_design', 1998, #58 ) ;
#125 =( LENGTH_UNIT ( ) NAMED_UNIT ( * ) SI_UNIT ( .MILLI., .METRE. ) );
#126 = DIRECTION ( 'NONE',  ( 0.000000000000000000, 0.000000000000000000, -1.000000000000000000 ) ) ;
#127 = CARTESIAN_POINT ( 'NONE',  ( 0.000000000000000000, 0.000000000000000000, 0.000000000000000000 ) ) ;
#128 = SHAPE_REPRESENTATION ( 'C4_component_override_1__native', ( #80, #35, #25 ), #1 ) ;
#129 = PRODUCT_DEFINITION_SHAPE ( 'NONE', 'NONE',  #134 ) ;
#130 = DIRECTION ( 'NONE',  ( 0.000000000000000000, 0.000000000000000000, 1.000000000000000000 ) ) ;
#131 = DIRECTION ( 'NONE',  ( 0.000000000000000000, 1.000000000000000000, 0.000000000000000000 ) ) ;
#132 = ITEM_DEFINED_TRANSFORMATION ( 'NONE', 'NONE', #25,  #100 ) ;
#133 = APPLICATION_PROTOCOL_DEFINITION ( 'draft international standard', 'automotive_design', 1998, #77 ) ;
#134 = PRODUCT_DEFINITION ( 'UNKNOWN', '', #43, #63 ) ;
#135 = DIRECTION ( 'NONE',  ( 0.000000000000000000, 0.000000000000000000, 1.000000000000000000 ) ) ;
#136 = APPLICATION_CONTEXT ( 'automotive_design' ) ;
#137 = UNCERTAINTY_MEASURE_WITH_UNIT (LENGTH_MEASURE( 1.000000000000000082E-05 ), #48, 'distance_accuracy_value', 'NONE');
#138 = MECHANICAL_DESIGN_GEOMETRIC_PRESENTATION_REPRESENTATION (  '', ( #27 ), #20 ) ;
#139 = SURFACE_SIDE_STYLE ('',( #23 ) ) ;
#140 = DIRECTION ( 'NONE',  ( 0.000000000000000000, 0.000000000000000000, 1.000000000000000000 ) ) ;
#141 = PRESENTATION_STYLE_ASSIGNMENT (( #112 ) ) ;
#142 = ORIENTED_EDGE ( 'NONE', *, *, #98, .F. ) ;
#143 = SURFACE_STYLE_FILL_AREA ( #52 ) ;
#144 = CARTESIAN_POINT ( 'NONE',  ( 0.000000000000000000, 0.000000000000000000, 0.000000000000000000 ) ) ;
#145 = NEXT_ASSEMBLY_USAGE_OCCURRENCE ( 'NAUO1', ' ', ' ', #59, #134, $ ) ;
#146 = NEXT_ASSEMBLY_USAGE_OCCURRENCE ( 'NAUO2', ' ', ' ', #59, #134, $ ) ;
ENDSEC;
END-ISO-10303-21;
