ISO-10303-21;
HEADER;
FILE_DESCRIPTION (( 'STEP AP214' ),
    '1' );
FILE_NAME ('C1_single_part__ap214_split.step',
    '2026-08-06T13:09:20',
    ( '' ),
    ( '' ),
    'SwSTEP 2.0',
    'SolidWorks 2026',
    '' );
FILE_SCHEMA (( 'AUTOMOTIVE_DESIGN' ));
ENDSEC;

DATA;
#1 = SURFACE_SIDE_STYLE ('',( #125 ) ) ;
#2 = ADVANCED_FACE ( 'NONE', ( #81 ), #121, .T. ) ;
#3 = AXIS2_PLACEMENT_3D ( 'NONE', #56, #74, #61 ) ;
#4 = ORIENTED_EDGE ( 'NONE', *, *, #52, .F. ) ;
#5 = ORIENTED_EDGE ( 'NONE', *, *, #52, .T. ) ;
#6 = PRODUCT_RELATED_PRODUCT_CATEGORY ( 'part', '', ( #86 ) ) ;
#7 = MECHANICAL_DESIGN_GEOMETRIC_PRESENTATION_REPRESENTATION (  '', ( #88 ), #111 ) ;
#8 = VERTEX_POINT ( 'NONE', #108 ) ;
#9 = LINE ( 'NONE', #96, #54 ) ;
#10 = VERTEX_POINT ( 'NONE', #63 ) ;
#11 = UNCERTAINTY_MEASURE_WITH_UNIT (LENGTH_MEASURE( 1.000000000000000082E-05 ), #51, 'distance_accuracy_value', 'NONE');
#12 = PLANE ( 'NONE',  #94 ) ;
#13 =( NAMED_UNIT ( * ) SI_UNIT ( $, .STERADIAN. ) SOLID_ANGLE_UNIT ( ) );
#14 =( NAMED_UNIT ( * ) SI_UNIT ( $, .STERADIAN. ) SOLID_ANGLE_UNIT ( ) );
#15 = CIRCLE ( 'NONE', #3, 50.00000000000000000 ) ;
#16 = CARTESIAN_POINT ( 'NONE',  ( 0.000000000000000000, 100.0000000000000000, -50.00000000000000000 ) ) ;
#17 = DIRECTION ( 'NONE',  ( 0.000000000000000000, 1.000000000000000000, 0.000000000000000000 ) ) ;
#18 = ORIENTED_EDGE ( 'NONE', *, *, #99, .T. ) ;
#19 = PRESENTATION_LAYER_ASSIGNMENT (  '', '', ( #88 ) ) ;
#20 = ORIENTED_EDGE ( 'NONE', *, *, #99, .F. ) ;
#21 = DIRECTION ( 'NONE',  ( 0.000000000000000000, 0.000000000000000000, -1.000000000000000000 ) ) ;
#22 = CARTESIAN_POINT ( 'NONE',  ( 0.000000000000000000, 0.000000000000000000, 0.000000000000000000 ) ) ;
#23 = FILL_AREA_STYLE_COLOUR ( '', #39 ) ;
#24 = AXIS2_PLACEMENT_3D ( 'NONE', #22, #110, #64 ) ;
#25 = CIRCLE ( 'NONE', #46, 50.00000000000000000 ) ;
#26 = FACE_OUTER_BOUND ( 'NONE', #80, .T. ) ;
#27 = EDGE_LOOP ( 'NONE', ( #78, #18 ) ) ;
#28 = DIRECTION ( 'NONE',  ( 0.000000000000000000, 1.000000000000000000, 0.000000000000000000 ) ) ;
#29 = PRODUCT_DEFINITION ( 'UNKNOWN', '', #31, #59 ) ;
#30 = ORIENTED_EDGE ( 'NONE', *, *, #69, .T. ) ;
#31 = PRODUCT_DEFINITION_FORMATION_WITH_SPECIFIED_SOURCE ( 'ANY', '', #86, .NOT_KNOWN. ) ;
#32 = APPLICATION_CONTEXT ( 'automotive_design' ) ;
#33 = VECTOR ( 'NONE', #55, 1000.000000000000000 ) ;
#34 = PRODUCT_DEFINITION_SHAPE ( 'NONE', 'NONE',  #29 ) ;
#35 = ORIENTED_EDGE ( 'NONE', *, *, #69, .F. ) ;
#36 = DIRECTION ( 'NONE',  ( 0.000000000000000000, 0.000000000000000000, 1.000000000000000000 ) ) ;
#37 = ORIENTED_EDGE ( 'NONE', *, *, #87, .F. ) ;
#38 = CARTESIAN_POINT ( 'NONE',  ( 6.123233995736766085E-15, 0.000000000000000000, 50.00000000000000000 ) ) ;
#39 = COLOUR_RGB ( '',1.000000000000000000, 0.000000000000000000, 0.000000000000000000 ) ;
#40 = CARTESIAN_POINT ( 'NONE',  ( 0.000000000000000000, 100.0000000000000000, 0.000000000000000000 ) ) ;
#41 = DIRECTION ( 'NONE',  ( 0.000000000000000000, -0.000000000000000000, 1.000000000000000000 ) ) ;
#42 = CARTESIAN_POINT ( 'NONE',  ( 0.000000000000000000, 0.000000000000000000, 0.000000000000000000 ) ) ;
#43 = ADVANCED_BREP_SHAPE_REPRESENTATION ( 'C1_single_part__ap214_split', ( #102, #24 ), #104 ) ;
#44 = DIRECTION ( 'NONE',  ( 0.000000000000000000, 1.000000000000000000, 0.000000000000000000 ) ) ;
#45 = ADVANCED_FACE ( 'NONE', ( #95 ), #68, .T. ) ;
#46 = AXIS2_PLACEMENT_3D ( 'NONE', #107, #44, #101 ) ;
#47 = DIRECTION ( 'NONE',  ( -0.000000000000000000, -1.000000000000000000, -0.000000000000000000 ) ) ;
#48 = DIRECTION ( 'NONE',  ( 0.000000000000000000, -0.000000000000000000, 1.000000000000000000 ) ) ;
#49 = DIRECTION ( 'NONE',  ( 0.000000000000000000, 0.000000000000000000, 1.000000000000000000 ) ) ;
#50 =( LENGTH_UNIT ( ) NAMED_UNIT ( * ) SI_UNIT ( .MILLI., .METRE. ) );
#51 =( LENGTH_UNIT ( ) NAMED_UNIT ( * ) SI_UNIT ( .MILLI., .METRE. ) );
#52 = EDGE_CURVE ( 'NONE', #71, #62, #9, .T. ) ;
#53 = FILL_AREA_STYLE ('',( #23 ) ) ;
#54 = VECTOR ( 'NONE', #47, 1000.000000000000000 ) ;
#55 = DIRECTION ( 'NONE',  ( -0.000000000000000000, -1.000000000000000000, -0.000000000000000000 ) ) ;
#56 = CARTESIAN_POINT ( 'NONE',  ( 0.000000000000000000, 0.000000000000000000, 0.000000000000000000 ) ) ;
#57 =( NAMED_UNIT ( * ) PLANE_ANGLE_UNIT ( ) SI_UNIT ( $, .RADIAN. ) );
#58 = PRESENTATION_STYLE_ASSIGNMENT (( #66 ) ) ;
#59 = PRODUCT_DEFINITION_CONTEXT ( 'detailed design', #32, 'design' ) ;
#60 = AXIS2_PLACEMENT_3D ( 'NONE', #85, #67, #49 ) ;
#61 = DIRECTION ( 'NONE',  ( 0.000000000000000000, 0.000000000000000000, 1.000000000000000000 ) ) ;
#62 = VERTEX_POINT ( 'NONE', #38 ) ;
#63 = CARTESIAN_POINT ( 'NONE',  ( 0.000000000000000000, 0.000000000000000000, -50.00000000000000000 ) ) ;
#64 = DIRECTION ( 'NONE',  ( 1.000000000000000000, 0.000000000000000000, 0.000000000000000000 ) ) ;
#65 = ADVANCED_FACE ( 'NONE', ( #26 ), #109, .T. ) ;
#66 = SURFACE_STYLE_USAGE ( .BOTH. , #1 ) ;
#67 = DIRECTION ( 'NONE',  ( 0.000000000000000000, 1.000000000000000000, 0.000000000000000000 ) ) ;
#68 = CYLINDRICAL_SURFACE ( 'NONE', #83, 50.00000000000000000 ) ;
#69 = EDGE_CURVE ( 'NONE', #10, #62, #15, .T. ) ;
#70 = DIRECTION ( 'NONE',  ( 0.000000000000000000, 0.000000000000000000, -1.000000000000000000 ) ) ;
#71 = VERTEX_POINT ( 'NONE', #117 ) ;
#72 = DIRECTION ( 'NONE',  ( -0.000000000000000000, -1.000000000000000000, -0.000000000000000000 ) ) ;
#73 = CIRCLE ( 'NONE', #112, 50.00000000000000000 ) ;
#74 = DIRECTION ( 'NONE',  ( 0.000000000000000000, 1.000000000000000000, 0.000000000000000000 ) ) ;
#75 = DIRECTION ( 'NONE',  ( 0.000000000000000000, 1.000000000000000000, 0.000000000000000000 ) ) ;
#76 = EDGE_CURVE ( 'NONE', #8, #10, #105, .T. ) ;
#77 = EDGE_CURVE ( 'NONE', #8, #71, #73, .T. ) ;
#78 = ORIENTED_EDGE ( 'NONE', *, *, #77, .T. ) ;
#79 = ORIENTED_EDGE ( 'NONE', *, *, #77, .F. ) ;
#80 = EDGE_LOOP ( 'NONE', ( #20, #5, #91, #123 ) ) ;
#81 = FACE_OUTER_BOUND ( 'NONE', #27, .T. ) ;
#82 = FACE_OUTER_BOUND ( 'NONE', #93, .T. ) ;
#83 = AXIS2_PLACEMENT_3D ( 'NONE', #115, #113, #70 ) ;
#84 = SHAPE_DEFINITION_REPRESENTATION ( #34, #43 ) ;
#85 = CARTESIAN_POINT ( 'NONE',  ( 0.000000000000000000, 100.0000000000000000, 0.000000000000000000 ) ) ;
#86 = PRODUCT ( 'C1_single_part__ap214_split', 'C1_single_part__ap214_split', '', ( #118 ) ) ;
#87 = EDGE_CURVE ( 'NONE', #62, #10, #25, .T. ) ;
#88 = STYLED_ITEM ( 'NONE', ( #58 ), #102 ) ;
#89 = APPLICATION_CONTEXT ( 'automotive_design' ) ;
#90 = ADVANCED_FACE ( 'NONE', ( #82 ), #12, .F. ) ;
#91 = ORIENTED_EDGE ( 'NONE', *, *, #87, .T. ) ;
#92 = UNCERTAINTY_MEASURE_WITH_UNIT (LENGTH_MEASURE( 1.000000000000000082E-05 ), #50, 'distance_accuracy_value', 'NONE');
#93 = EDGE_LOOP ( 'NONE', ( #35, #37 ) ) ;
#94 = AXIS2_PLACEMENT_3D ( 'NONE', #42, #75, #41 ) ;
#95 = FACE_OUTER_BOUND ( 'NONE', #122, .T. ) ;
#96 = CARTESIAN_POINT ( 'NONE',  ( 6.123233995736766085E-15, 100.0000000000000000, 50.00000000000000000 ) ) ;
#97 = APPLICATION_PROTOCOL_DEFINITION ( 'draft international standard', 'automotive_design', 1998, #32 ) ;
#98 = AXIS2_PLACEMENT_3D ( 'NONE', #114, #28, #48 ) ;
#99 = EDGE_CURVE ( 'NONE', #71, #8, #119, .T. ) ;
#100 = APPLICATION_PROTOCOL_DEFINITION ( 'draft international standard', 'automotive_design', 1998, #89 ) ;
#101 = DIRECTION ( 'NONE',  ( 0.000000000000000000, 0.000000000000000000, 1.000000000000000000 ) ) ;
#102 = MANIFOLD_SOLID_BREP ( 'Boss-Extrude1', #116 ) ;
#103 = AXIS2_PLACEMENT_3D ( 'NONE', #40, #72, #21 ) ;
#104 =( GEOMETRIC_REPRESENTATION_CONTEXT ( 3 ) GLOBAL_UNCERTAINTY_ASSIGNED_CONTEXT ( ( #11 ) ) GLOBAL_UNIT_ASSIGNED_CONTEXT ( ( #51, #120, #13 ) ) REPRESENTATION_CONTEXT ( 'NONE', 'WORKASPACE' ) );
#105 = LINE ( 'NONE', #16, #33 ) ;
#106 = CARTESIAN_POINT ( 'NONE',  ( 0.000000000000000000, 100.0000000000000000, 0.000000000000000000 ) ) ;
#107 = CARTESIAN_POINT ( 'NONE',  ( 0.000000000000000000, 0.000000000000000000, 0.000000000000000000 ) ) ;
#108 = CARTESIAN_POINT ( 'NONE',  ( 0.000000000000000000, 100.0000000000000000, -50.00000000000000000 ) ) ;
#109 = CYLINDRICAL_SURFACE ( 'NONE', #103, 50.00000000000000000 ) ;
#110 = DIRECTION ( 'NONE',  ( 0.000000000000000000, 0.000000000000000000, 1.000000000000000000 ) ) ;
#111 =( GEOMETRIC_REPRESENTATION_CONTEXT ( 3 ) GLOBAL_UNCERTAINTY_ASSIGNED_CONTEXT ( ( #92 ) ) GLOBAL_UNIT_ASSIGNED_CONTEXT ( ( #50, #57, #14 ) ) REPRESENTATION_CONTEXT ( 'NONE', 'WORKASPACE' ) );
#112 = AXIS2_PLACEMENT_3D ( 'NONE', #106, #17, #36 ) ;
#113 = DIRECTION ( 'NONE',  ( -0.000000000000000000, -1.000000000000000000, -0.000000000000000000 ) ) ;
#114 = CARTESIAN_POINT ( 'NONE',  ( 0.000000000000000000, 100.0000000000000000, 0.000000000000000000 ) ) ;
#115 = CARTESIAN_POINT ( 'NONE',  ( 0.000000000000000000, 100.0000000000000000, 0.000000000000000000 ) ) ;
#116 = CLOSED_SHELL ( 'NONE', ( #65, #45, #2, #90 ) ) ;
#117 = CARTESIAN_POINT ( 'NONE',  ( 6.123233995736766085E-15, 100.0000000000000000, 50.00000000000000000 ) ) ;
#118 = PRODUCT_CONTEXT ( 'NONE', #89, 'mechanical' ) ;
#119 = CIRCLE ( 'NONE', #60, 50.00000000000000000 ) ;
#120 =( NAMED_UNIT ( * ) PLANE_ANGLE_UNIT ( ) SI_UNIT ( $, .RADIAN. ) );
#121 = PLANE ( 'NONE',  #98 ) ;
#122 = EDGE_LOOP ( 'NONE', ( #4, #79, #124, #30 ) ) ;
#123 = ORIENTED_EDGE ( 'NONE', *, *, #76, .F. ) ;
#124 = ORIENTED_EDGE ( 'NONE', *, *, #76, .T. ) ;
#125 = SURFACE_STYLE_FILL_AREA ( #53 ) ;
ENDSEC;
END-ISO-10303-21;
