ISO-10303-21;
HEADER;
FILE_DESCRIPTION (( 'STEP AP214' ),
    '1' );
FILE_NAME ('C1_single_part__ap214_nosplit.step',
    '2026-08-06T13:09:20',
    ( '' ),
    ( '' ),
    'SwSTEP 2.0',
    'SolidWorks 2026',
    '' );
FILE_SCHEMA (( 'AUTOMOTIVE_DESIGN' ));
ENDSEC;

DATA;
#1 = ADVANCED_FACE ( 'NONE', ( #34 ), #52, .T. ) ;
#2 = PRODUCT_DEFINITION_FORMATION_WITH_SPECIFIED_SOURCE ( 'ANY', '', #51, .NOT_KNOWN. ) ;
#3 = EDGE_LOOP ( 'NONE', ( #25 ) ) ;
#4 = CARTESIAN_POINT ( 'NONE',  ( 0.000000000000000000, 0.000000000000000000, 0.000000000000000000 ) ) ;
#5 = VERTEX_POINT ( 'NONE', #30 ) ;
#6 = PRODUCT_DEFINITION_CONTEXT ( 'detailed design', #82, 'design' ) ;
#7 = SURFACE_STYLE_USAGE ( .BOTH. , #22 ) ;
#8 = MANIFOLD_SOLID_BREP ( 'Boss-Extrude1', #49 ) ;
#9 = DIRECTION ( 'NONE',  ( 0.000000000000000000, -0.000000000000000000, 1.000000000000000000 ) ) ;
#10 = DIRECTION ( 'NONE',  ( 0.000000000000000000, 0.000000000000000000, 1.000000000000000000 ) ) ;
#11 = FILL_AREA_STYLE_COLOUR ( '', #42 ) ;
#12 = EDGE_LOOP ( 'NONE', ( #83 ) ) ;
#13 = APPLICATION_PROTOCOL_DEFINITION ( 'draft international standard', 'automotive_design', 1998, #27 ) ;
#14 =( GEOMETRIC_REPRESENTATION_CONTEXT ( 3 ) GLOBAL_UNCERTAINTY_ASSIGNED_CONTEXT ( ( #44 ) ) GLOBAL_UNIT_ASSIGNED_CONTEXT ( ( #48, #50, #72 ) ) REPRESENTATION_CONTEXT ( 'NONE', 'WORKASPACE' ) );
#15 = CARTESIAN_POINT ( 'NONE',  ( 0.000000000000000000, 0.000000000000000000, 0.000000000000000000 ) ) ;
#16 = AXIS2_PLACEMENT_3D ( 'NONE', #4, #60, #84 ) ;
#17 =( NAMED_UNIT ( * ) PLANE_ANGLE_UNIT ( ) SI_UNIT ( $, .RADIAN. ) );
#18 = EDGE_LOOP ( 'NONE', ( #54 ) ) ;
#19 = DIRECTION ( 'NONE',  ( 0.000000000000000000, 1.000000000000000000, 0.000000000000000000 ) ) ;
#20 = EDGE_CURVE ( 'NONE', #46, #46, #28, .T. ) ;
#21 = PRESENTATION_LAYER_ASSIGNMENT (  '', '', ( #65 ) ) ;
#22 = SURFACE_SIDE_STYLE ('',( #67 ) ) ;
#23 = SHAPE_DEFINITION_REPRESENTATION ( #74, #38 ) ;
#24 = DIRECTION ( 'NONE',  ( 0.000000000000000000, 0.000000000000000000, -1.000000000000000000 ) ) ;
#25 = ORIENTED_EDGE ( 'NONE', *, *, #45, .T. ) ;
#26 = FACE_OUTER_BOUND ( 'NONE', #18, .T. ) ;
#27 = APPLICATION_CONTEXT ( 'automotive_design' ) ;
#28 = CIRCLE ( 'NONE', #69, 50.00000000000000000 ) ;
#29 = ADVANCED_FACE ( 'NONE', ( #26 ), #68, .F. ) ;
#30 = CARTESIAN_POINT ( 'NONE',  ( 0.000000000000000000, 100.0000000000000000, 50.00000000000000000 ) ) ;
#31 = DIRECTION ( 'NONE',  ( -0.000000000000000000, -1.000000000000000000, -0.000000000000000000 ) ) ;
#32 = CARTESIAN_POINT ( 'NONE',  ( 0.000000000000000000, 100.0000000000000000, 0.000000000000000000 ) ) ;
#33 = MECHANICAL_DESIGN_GEOMETRIC_PRESENTATION_REPRESENTATION (  '', ( #65 ), #63 ) ;
#34 = FACE_OUTER_BOUND ( 'NONE', #3, .T. ) ;
#35 =( LENGTH_UNIT ( ) NAMED_UNIT ( * ) SI_UNIT ( .MILLI., .METRE. ) );
#36 = FACE_OUTER_BOUND ( 'NONE', #76, .T. ) ;
#37 = UNCERTAINTY_MEASURE_WITH_UNIT (LENGTH_MEASURE( 1.000000000000000082E-05 ), #35, 'distance_accuracy_value', 'NONE');
#38 = ADVANCED_BREP_SHAPE_REPRESENTATION ( 'C1_single_part__ap214_nosplit', ( #8, #77 ), #14 ) ;
#39 = DIRECTION ( 'NONE',  ( 0.000000000000000000, 1.000000000000000000, 0.000000000000000000 ) ) ;
#40 = CARTESIAN_POINT ( 'NONE',  ( 0.000000000000000000, 0.000000000000000000, 50.00000000000000000 ) ) ;
#41 = CARTESIAN_POINT ( 'NONE',  ( 0.000000000000000000, 100.0000000000000000, 0.000000000000000000 ) ) ;
#42 = COLOUR_RGB ( '',1.000000000000000000, 0.000000000000000000, 0.000000000000000000 ) ;
#43 = FILL_AREA_STYLE ('',( #11 ) ) ;
#44 = UNCERTAINTY_MEASURE_WITH_UNIT (LENGTH_MEASURE( 1.000000000000000082E-05 ), #48, 'distance_accuracy_value', 'NONE');
#45 = EDGE_CURVE ( 'NONE', #5, #5, #80, .T. ) ;
#46 = VERTEX_POINT ( 'NONE', #40 ) ;
#47 = CARTESIAN_POINT ( 'NONE',  ( 0.000000000000000000, 100.0000000000000000, 0.000000000000000000 ) ) ;
#48 =( LENGTH_UNIT ( ) NAMED_UNIT ( * ) SI_UNIT ( .MILLI., .METRE. ) );
#49 = CLOSED_SHELL ( 'NONE', ( #64, #1, #29 ) ) ;
#50 =( NAMED_UNIT ( * ) PLANE_ANGLE_UNIT ( ) SI_UNIT ( $, .RADIAN. ) );
#51 = PRODUCT ( 'C1_single_part__ap214_nosplit', 'C1_single_part__ap214_nosplit', '', ( #79 ) ) ;
#52 = PLANE ( 'NONE',  #55 ) ;
#53 =( NAMED_UNIT ( * ) SI_UNIT ( $, .STERADIAN. ) SOLID_ANGLE_UNIT ( ) );
#54 = ORIENTED_EDGE ( 'NONE', *, *, #20, .F. ) ;
#55 = AXIS2_PLACEMENT_3D ( 'NONE', #32, #19, #9 ) ;
#56 = DIRECTION ( 'NONE',  ( 1.000000000000000000, 0.000000000000000000, 0.000000000000000000 ) ) ;
#57 = DIRECTION ( 'NONE',  ( 0.000000000000000000, 0.000000000000000000, 1.000000000000000000 ) ) ;
#58 = DIRECTION ( 'NONE',  ( 0.000000000000000000, 1.000000000000000000, 0.000000000000000000 ) ) ;
#59 = CARTESIAN_POINT ( 'NONE',  ( 0.000000000000000000, 0.000000000000000000, 0.000000000000000000 ) ) ;
#60 = DIRECTION ( 'NONE',  ( 0.000000000000000000, 1.000000000000000000, 0.000000000000000000 ) ) ;
#61 = CYLINDRICAL_SURFACE ( 'NONE', #71, 50.00000000000000000 ) ;
#62 = APPLICATION_PROTOCOL_DEFINITION ( 'draft international standard', 'automotive_design', 1998, #82 ) ;
#63 =( GEOMETRIC_REPRESENTATION_CONTEXT ( 3 ) GLOBAL_UNCERTAINTY_ASSIGNED_CONTEXT ( ( #37 ) ) GLOBAL_UNIT_ASSIGNED_CONTEXT ( ( #35, #17, #53 ) ) REPRESENTATION_CONTEXT ( 'NONE', 'WORKASPACE' ) );
#64 = ADVANCED_FACE ( 'NONE', ( #73, #36 ), #61, .T. ) ;
#65 = STYLED_ITEM ( 'NONE', ( #85 ), #8 ) ;
#66 = ORIENTED_EDGE ( 'NONE', *, *, #20, .T. ) ;
#67 = SURFACE_STYLE_FILL_AREA ( #43 ) ;
#68 = PLANE ( 'NONE',  #16 ) ;
#69 = AXIS2_PLACEMENT_3D ( 'NONE', #59, #39, #10 ) ;
#70 = PRODUCT_RELATED_PRODUCT_CATEGORY ( 'part', '', ( #51 ) ) ;
#71 = AXIS2_PLACEMENT_3D ( 'NONE', #41, #31, #24 ) ;
#72 =( NAMED_UNIT ( * ) SI_UNIT ( $, .STERADIAN. ) SOLID_ANGLE_UNIT ( ) );
#73 = FACE_OUTER_BOUND ( 'NONE', #12, .T. ) ;
#74 = PRODUCT_DEFINITION_SHAPE ( 'NONE', 'NONE',  #81 ) ;
#75 = AXIS2_PLACEMENT_3D ( 'NONE', #47, #58, #57 ) ;
#76 = EDGE_LOOP ( 'NONE', ( #66 ) ) ;
#77 = AXIS2_PLACEMENT_3D ( 'NONE', #15, #78, #56 ) ;
#78 = DIRECTION ( 'NONE',  ( 0.000000000000000000, 0.000000000000000000, 1.000000000000000000 ) ) ;
#79 = PRODUCT_CONTEXT ( 'NONE', #27, 'mechanical' ) ;
#80 = CIRCLE ( 'NONE', #75, 50.00000000000000000 ) ;
#81 = PRODUCT_DEFINITION ( 'UNKNOWN', '', #2, #6 ) ;
#82 = APPLICATION_CONTEXT ( 'automotive_design' ) ;
#83 = ORIENTED_EDGE ( 'NONE', *, *, #45, .F. ) ;
#84 = DIRECTION ( 'NONE',  ( 0.000000000000000000, -0.000000000000000000, 1.000000000000000000 ) ) ;
#85 = PRESENTATION_STYLE_ASSIGNMENT (( #7 ) ) ;
ENDSEC;
END-ISO-10303-21;
