ISO-10303-21;
HEADER;
FILE_DESCRIPTION (( 'STEP AP214' ),
    '1' );
FILE_NAME ('C1_single_part__ap214_noappear.step',
    '2026-08-06T13:09:20',
    ( '' ),
    ( '' ),
    'SwSTEP 2.0',
    'SolidWorks 2026',
    '' );
FILE_SCHEMA (( 'AUTOMOTIVE_DESIGN' ));
ENDSEC;

DATA;
#1 = PRODUCT_DEFINITION ( 'UNKNOWN', '', #57, #56 ) ;
#2 = DIRECTION ( 'NONE',  ( 0.000000000000000000, 1.000000000000000000, 0.000000000000000000 ) ) ;
#3 = DIRECTION ( 'NONE',  ( -0.000000000000000000, -1.000000000000000000, -0.000000000000000000 ) ) ;
#4 = ORIENTED_EDGE ( 'NONE', *, *, #45, .F. ) ;
#5 = DIRECTION ( 'NONE',  ( 1.000000000000000000, 0.000000000000000000, 0.000000000000000000 ) ) ;
#6 = CYLINDRICAL_SURFACE ( 'NONE', #12, 50.00000000000000000 ) ;
#7 = CARTESIAN_POINT ( 'NONE',  ( 0.000000000000000000, 0.000000000000000000, 50.00000000000000000 ) ) ;
#8 =( NAMED_UNIT ( * ) SI_UNIT ( $, .STERADIAN. ) SOLID_ANGLE_UNIT ( ) );
#9 = DIRECTION ( 'NONE',  ( 0.000000000000000000, 1.000000000000000000, 0.000000000000000000 ) ) ;
#10 = PRODUCT_CONTEXT ( 'NONE', #65, 'mechanical' ) ;
#11 = UNCERTAINTY_MEASURE_WITH_UNIT (LENGTH_MEASURE( 1.000000000000000082E-05 ), #20, 'distance_accuracy_value', 'NONE');
#12 = AXIS2_PLACEMENT_3D ( 'NONE', #26, #3, #51 ) ;
#13 = PLANE ( 'NONE',  #33 ) ;
#14 =( NAMED_UNIT ( * ) SI_UNIT ( $, .STERADIAN. ) SOLID_ANGLE_UNIT ( ) );
#15 =( NAMED_UNIT ( * ) PLANE_ANGLE_UNIT ( ) SI_UNIT ( $, .RADIAN. ) );
#16 =( NAMED_UNIT ( * ) PLANE_ANGLE_UNIT ( ) SI_UNIT ( $, .RADIAN. ) );
#17 = CARTESIAN_POINT ( 'NONE',  ( 0.000000000000000000, 100.0000000000000000, 0.000000000000000000 ) ) ;
#18 = SHAPE_DEFINITION_REPRESENTATION ( #78, #40 ) ;
#19 = CLOSED_SHELL ( 'NONE', ( #64, #25, #32 ) ) ;
#20 =( LENGTH_UNIT ( ) NAMED_UNIT ( * ) SI_UNIT ( .MILLI., .METRE. ) );
#21 = CARTESIAN_POINT ( 'NONE',  ( 0.000000000000000000, 100.0000000000000000, 0.000000000000000000 ) ) ;
#22 = ORIENTED_EDGE ( 'NONE', *, *, #45, .T. ) ;
#23 = EDGE_CURVE ( 'NONE', #82, #82, #38, .T. ) ;
#24 = COLOUR_RGB ( '',0.7921568627450980005, 0.8196078431372548767, 0.9333333333333333481 ) ;
#25 = ADVANCED_FACE ( 'NONE', ( #66 ), #79, .T. ) ;
#26 = CARTESIAN_POINT ( 'NONE',  ( 0.000000000000000000, 100.0000000000000000, 0.000000000000000000 ) ) ;
#27 = DIRECTION ( 'NONE',  ( 0.000000000000000000, 1.000000000000000000, 0.000000000000000000 ) ) ;
#28 = PRESENTATION_LAYER_ASSIGNMENT (  '', '', ( #43 ) ) ;
#29 = SURFACE_STYLE_FILL_AREA ( #68 ) ;
#30 = DIRECTION ( 'NONE',  ( 0.000000000000000000, 0.000000000000000000, 1.000000000000000000 ) ) ;
#31 = SURFACE_STYLE_USAGE ( .BOTH. , #39 ) ;
#32 = ADVANCED_FACE ( 'NONE', ( #69 ), #13, .F. ) ;
#33 = AXIS2_PLACEMENT_3D ( 'NONE', #84, #27, #67 ) ;
#34 = DIRECTION ( 'NONE',  ( 0.000000000000000000, 0.000000000000000000, 1.000000000000000000 ) ) ;
#35 = ORIENTED_EDGE ( 'NONE', *, *, #23, .F. ) ;
#36 = FACE_OUTER_BOUND ( 'NONE', #42, .T. ) ;
#37 = MANIFOLD_SOLID_BREP ( 'Boss-Extrude1', #19 ) ;
#38 = CIRCLE ( 'NONE', #75, 50.00000000000000000 ) ;
#39 = SURFACE_SIDE_STYLE ('',( #29 ) ) ;
#40 = ADVANCED_BREP_SHAPE_REPRESENTATION ( 'C1_single_part__ap214_noappear', ( #37, #71 ), #63 ) ;
#41 = CARTESIAN_POINT ( 'NONE',  ( 0.000000000000000000, 0.000000000000000000, 0.000000000000000000 ) ) ;
#42 = EDGE_LOOP ( 'NONE', ( #22 ) ) ;
#43 = STYLED_ITEM ( 'NONE', ( #46 ), #37 ) ;
#44 =( GEOMETRIC_REPRESENTATION_CONTEXT ( 3 ) GLOBAL_UNCERTAINTY_ASSIGNED_CONTEXT ( ( #11 ) ) GLOBAL_UNIT_ASSIGNED_CONTEXT ( ( #20, #16, #14 ) ) REPRESENTATION_CONTEXT ( 'NONE', 'WORKASPACE' ) );
#45 = EDGE_CURVE ( 'NONE', #52, #52, #61, .T. ) ;
#46 = PRESENTATION_STYLE_ASSIGNMENT (( #31 ) ) ;
#47 = AXIS2_PLACEMENT_3D ( 'NONE', #21, #76, #60 ) ;
#48 = EDGE_LOOP ( 'NONE', ( #4 ) ) ;
#49 = PRODUCT ( 'C1_single_part__ap214_noappear', 'C1_single_part__ap214_noappear', '', ( #10 ) ) ;
#50 = APPLICATION_PROTOCOL_DEFINITION ( 'draft international standard', 'automotive_design', 1998, #74 ) ;
#51 = DIRECTION ( 'NONE',  ( 0.000000000000000000, 0.000000000000000000, -1.000000000000000000 ) ) ;
#52 = VERTEX_POINT ( 'NONE', #7 ) ;
#53 = EDGE_LOOP ( 'NONE', ( #81 ) ) ;
#54 = FACE_OUTER_BOUND ( 'NONE', #85, .T. ) ;
#55 = CARTESIAN_POINT ( 'NONE',  ( 0.000000000000000000, 0.000000000000000000, 0.000000000000000000 ) ) ;
#56 = PRODUCT_DEFINITION_CONTEXT ( 'detailed design', #74, 'design' ) ;
#57 = PRODUCT_DEFINITION_FORMATION_WITH_SPECIFIED_SOURCE ( 'ANY', '', #49, .NOT_KNOWN. ) ;
#58 = PRODUCT_RELATED_PRODUCT_CATEGORY ( 'part', '', ( #49 ) ) ;
#59 =( LENGTH_UNIT ( ) NAMED_UNIT ( * ) SI_UNIT ( .MILLI., .METRE. ) );
#60 = DIRECTION ( 'NONE',  ( 0.000000000000000000, -0.000000000000000000, 1.000000000000000000 ) ) ;
#61 = CIRCLE ( 'NONE', #62, 50.00000000000000000 ) ;
#62 = AXIS2_PLACEMENT_3D ( 'NONE', #41, #9, #34 ) ;
#63 =( GEOMETRIC_REPRESENTATION_CONTEXT ( 3 ) GLOBAL_UNCERTAINTY_ASSIGNED_CONTEXT ( ( #73 ) ) GLOBAL_UNIT_ASSIGNED_CONTEXT ( ( #59, #15, #8 ) ) REPRESENTATION_CONTEXT ( 'NONE', 'WORKASPACE' ) );
#64 = ADVANCED_FACE ( 'NONE', ( #54, #36 ), #6, .T. ) ;
#65 = APPLICATION_CONTEXT ( 'automotive_design' ) ;
#66 = FACE_OUTER_BOUND ( 'NONE', #53, .T. ) ;
#67 = DIRECTION ( 'NONE',  ( 0.000000000000000000, -0.000000000000000000, 1.000000000000000000 ) ) ;
#68 = FILL_AREA_STYLE ('',( #77 ) ) ;
#69 = FACE_OUTER_BOUND ( 'NONE', #48, .T. ) ;
#70 = DIRECTION ( 'NONE',  ( 0.000000000000000000, 0.000000000000000000, 1.000000000000000000 ) ) ;
#71 = AXIS2_PLACEMENT_3D ( 'NONE', #55, #70, #5 ) ;
#72 = APPLICATION_PROTOCOL_DEFINITION ( 'draft international standard', 'automotive_design', 1998, #65 ) ;
#73 = UNCERTAINTY_MEASURE_WITH_UNIT (LENGTH_MEASURE( 1.000000000000000082E-05 ), #59, 'distance_accuracy_value', 'NONE');
#74 = APPLICATION_CONTEXT ( 'automotive_design' ) ;
#75 = AXIS2_PLACEMENT_3D ( 'NONE', #17, #2, #30 ) ;
#76 = DIRECTION ( 'NONE',  ( 0.000000000000000000, 1.000000000000000000, 0.000000000000000000 ) ) ;
#77 = FILL_AREA_STYLE_COLOUR ( '', #24 ) ;
#78 = PRODUCT_DEFINITION_SHAPE ( 'NONE', 'NONE',  #1 ) ;
#79 = PLANE ( 'NONE',  #47 ) ;
#80 = MECHANICAL_DESIGN_GEOMETRIC_PRESENTATION_REPRESENTATION (  '', ( #43 ), #44 ) ;
#81 = ORIENTED_EDGE ( 'NONE', *, *, #23, .T. ) ;
#82 = VERTEX_POINT ( 'NONE', #83 ) ;
#83 = CARTESIAN_POINT ( 'NONE',  ( 0.000000000000000000, 100.0000000000000000, 50.00000000000000000 ) ) ;
#84 = CARTESIAN_POINT ( 'NONE',  ( 0.000000000000000000, 0.000000000000000000, 0.000000000000000000 ) ) ;
#85 = EDGE_LOOP ( 'NONE', ( #35 ) ) ;
ENDSEC;
END-ISO-10303-21;
