ISO-10303-21;
HEADER;
FILE_DESCRIPTION (( 'STEP AP214' ),
    '1' );
FILE_NAME ('C1_single_part__ap214_appear_fe.step',
    '2026-08-06T13:09:20',
    ( '' ),
    ( '' ),
    'SwSTEP 2.0',
    'SolidWorks 2026',
    '' );
FILE_SCHEMA (( 'AUTOMOTIVE_DESIGN' ));
ENDSEC;

DATA;
#1 = DIRECTION ( 'NONE',  ( 0.000000000000000000, 1.000000000000000000, 0.000000000000000000 ) ) ;
#2 = CARTESIAN_POINT ( 'NONE',  ( 0.000000000000000000, 0.000000000000000000, 0.000000000000000000 ) ) ;
#3 = APPLICATION_PROTOCOL_DEFINITION ( 'draft international standard', 'automotive_design', 1998, #67 ) ;
#4 = DIRECTION ( 'NONE',  ( 0.000000000000000000, 1.000000000000000000, 0.000000000000000000 ) ) ;
#5 = CARTESIAN_POINT ( 'NONE',  ( 0.000000000000000000, 100.0000000000000000, 0.000000000000000000 ) ) ;
#6 =( LENGTH_UNIT ( ) NAMED_UNIT ( * ) SI_UNIT ( .MILLI., .METRE. ) );
#7 = SHAPE_DEFINITION_REPRESENTATION ( #76, #31 ) ;
#8 = ADVANCED_FACE ( 'NONE', ( #17 ), #70, .F. ) ;
#9 = AXIS2_PLACEMENT_3D ( 'NONE', #15, #4, #40 ) ;
#10 =( NAMED_UNIT ( * ) PLANE_ANGLE_UNIT ( ) SI_UNIT ( $, .RADIAN. ) );
#11 = EDGE_LOOP ( 'NONE', ( #81 ) ) ;
#12 = PRODUCT_RELATED_PRODUCT_CATEGORY ( 'part', '', ( #49 ) ) ;
#13 = CYLINDRICAL_SURFACE ( 'NONE', #64, 50.00000000000000000 ) ;
#14 =( NAMED_UNIT ( * ) SI_UNIT ( $, .STERADIAN. ) SOLID_ANGLE_UNIT ( ) );
#15 = CARTESIAN_POINT ( 'NONE',  ( 0.000000000000000000, 100.0000000000000000, 0.000000000000000000 ) ) ;
#16 = PRESENTATION_LAYER_ASSIGNMENT (  '', '', ( #60 ) ) ;
#17 = FACE_OUTER_BOUND ( 'NONE', #62, .T. ) ;
#18 = FACE_OUTER_BOUND ( 'NONE', #11, .T. ) ;
#19 = FILL_AREA_STYLE_COLOUR ( '', #56 ) ;
#20 =( GEOMETRIC_REPRESENTATION_CONTEXT ( 3 ) GLOBAL_UNCERTAINTY_ASSIGNED_CONTEXT ( ( #71 ) ) GLOBAL_UNIT_ASSIGNED_CONTEXT ( ( #6, #10, #39 ) ) REPRESENTATION_CONTEXT ( 'NONE', 'WORKASPACE' ) );
#21 = DIRECTION ( 'NONE',  ( 0.000000000000000000, 0.000000000000000000, 1.000000000000000000 ) ) ;
#22 = EDGE_LOOP ( 'NONE', ( #30 ) ) ;
#23 =( LENGTH_UNIT ( ) NAMED_UNIT ( * ) SI_UNIT ( .MILLI., .METRE. ) );
#24 = FACE_OUTER_BOUND ( 'NONE', #47, .T. ) ;
#25 = APPLICATION_PROTOCOL_DEFINITION ( 'draft international standard', 'automotive_design', 1998, #36 ) ;
#26 = SURFACE_STYLE_FILL_AREA ( #53 ) ;
#27 = DIRECTION ( 'NONE',  ( 0.000000000000000000, 0.000000000000000000, 1.000000000000000000 ) ) ;
#28 = PRESENTATION_STYLE_ASSIGNMENT (( #74 ) ) ;
#29 = VERTEX_POINT ( 'NONE', #80 ) ;
#30 = ORIENTED_EDGE ( 'NONE', *, *, #68, .T. ) ;
#31 = ADVANCED_BREP_SHAPE_REPRESENTATION ( 'C1_single_part__ap214_appear_fe', ( #65, #85 ), #78 ) ;
#32 = MECHANICAL_DESIGN_GEOMETRIC_PRESENTATION_REPRESENTATION (  '', ( #60 ), #20 ) ;
#33 = CARTESIAN_POINT ( 'NONE',  ( 0.000000000000000000, 0.000000000000000000, 0.000000000000000000 ) ) ;
#34 = DIRECTION ( 'NONE',  ( 0.000000000000000000, 0.000000000000000000, 1.000000000000000000 ) ) ;
#35 = PRODUCT_DEFINITION_FORMATION_WITH_SPECIFIED_SOURCE ( 'ANY', '', #49, .NOT_KNOWN. ) ;
#36 = APPLICATION_CONTEXT ( 'automotive_design' ) ;
#37 = ORIENTED_EDGE ( 'NONE', *, *, #84, .F. ) ;
#38 = PLANE ( 'NONE',  #9 ) ;
#39 =( NAMED_UNIT ( * ) SI_UNIT ( $, .STERADIAN. ) SOLID_ANGLE_UNIT ( ) );
#40 = DIRECTION ( 'NONE',  ( 0.000000000000000000, -0.000000000000000000, 1.000000000000000000 ) ) ;
#41 = ADVANCED_FACE ( 'NONE', ( #18 ), #38, .T. ) ;
#42 = AXIS2_PLACEMENT_3D ( 'NONE', #5, #45, #27 ) ;
#43 = DIRECTION ( 'NONE',  ( -0.000000000000000000, -1.000000000000000000, -0.000000000000000000 ) ) ;
#44 = AXIS2_PLACEMENT_3D ( 'NONE', #82, #1, #77 ) ;
#45 = DIRECTION ( 'NONE',  ( 0.000000000000000000, 1.000000000000000000, 0.000000000000000000 ) ) ;
#46 = DIRECTION ( 'NONE',  ( 0.000000000000000000, 0.000000000000000000, -1.000000000000000000 ) ) ;
#47 = EDGE_LOOP ( 'NONE', ( #37 ) ) ;
#48 =( NAMED_UNIT ( * ) PLANE_ANGLE_UNIT ( ) SI_UNIT ( $, .RADIAN. ) );
#49 = PRODUCT ( 'C1_single_part__ap214_appear_fe', 'C1_single_part__ap214_appear_fe', '', ( #58 ) ) ;
#50 = CLOSED_SHELL ( 'NONE', ( #61, #41, #8 ) ) ;
#51 = PRODUCT_DEFINITION ( 'UNKNOWN', '', #35, #72 ) ;
#52 = SURFACE_SIDE_STYLE ('',( #26 ) ) ;
#53 = FILL_AREA_STYLE ('',( #19 ) ) ;
#54 = ORIENTED_EDGE ( 'NONE', *, *, #68, .F. ) ;
#55 = VERTEX_POINT ( 'NONE', #63 ) ;
#56 = COLOUR_RGB ( '',1.000000000000000000, 0.000000000000000000, 0.000000000000000000 ) ;
#57 = DIRECTION ( 'NONE',  ( 1.000000000000000000, 0.000000000000000000, 0.000000000000000000 ) ) ;
#58 = PRODUCT_CONTEXT ( 'NONE', #67, 'mechanical' ) ;
#59 = UNCERTAINTY_MEASURE_WITH_UNIT (LENGTH_MEASURE( 1.000000000000000082E-05 ), #23, 'distance_accuracy_value', 'NONE');
#60 = STYLED_ITEM ( 'NONE', ( #28 ), #65 ) ;
#61 = ADVANCED_FACE ( 'NONE', ( #24, #83 ), #13, .T. ) ;
#62 = EDGE_LOOP ( 'NONE', ( #54 ) ) ;
#63 = CARTESIAN_POINT ( 'NONE',  ( 0.000000000000000000, 100.0000000000000000, 50.00000000000000000 ) ) ;
#64 = AXIS2_PLACEMENT_3D ( 'NONE', #75, #43, #46 ) ;
#65 = MANIFOLD_SOLID_BREP ( 'Boss-Extrude1', #50 ) ;
#66 = AXIS2_PLACEMENT_3D ( 'NONE', #2, #69, #21 ) ;
#67 = APPLICATION_CONTEXT ( 'automotive_design' ) ;
#68 = EDGE_CURVE ( 'NONE', #29, #29, #79, .T. ) ;
#69 = DIRECTION ( 'NONE',  ( 0.000000000000000000, 1.000000000000000000, 0.000000000000000000 ) ) ;
#70 = PLANE ( 'NONE',  #44 ) ;
#71 = UNCERTAINTY_MEASURE_WITH_UNIT (LENGTH_MEASURE( 1.000000000000000082E-05 ), #6, 'distance_accuracy_value', 'NONE');
#72 = PRODUCT_DEFINITION_CONTEXT ( 'detailed design', #36, 'design' ) ;
#73 = CIRCLE ( 'NONE', #42, 50.00000000000000000 ) ;
#74 = SURFACE_STYLE_USAGE ( .BOTH. , #52 ) ;
#75 = CARTESIAN_POINT ( 'NONE',  ( 0.000000000000000000, 100.0000000000000000, 0.000000000000000000 ) ) ;
#76 = PRODUCT_DEFINITION_SHAPE ( 'NONE', 'NONE',  #51 ) ;
#77 = DIRECTION ( 'NONE',  ( 0.000000000000000000, -0.000000000000000000, 1.000000000000000000 ) ) ;
#78 =( GEOMETRIC_REPRESENTATION_CONTEXT ( 3 ) GLOBAL_UNCERTAINTY_ASSIGNED_CONTEXT ( ( #59 ) ) GLOBAL_UNIT_ASSIGNED_CONTEXT ( ( #23, #48, #14 ) ) REPRESENTATION_CONTEXT ( 'NONE', 'WORKASPACE' ) );
#79 = CIRCLE ( 'NONE', #66, 50.00000000000000000 ) ;
#80 = CARTESIAN_POINT ( 'NONE',  ( 0.000000000000000000, 0.000000000000000000, 50.00000000000000000 ) ) ;
#81 = ORIENTED_EDGE ( 'NONE', *, *, #84, .T. ) ;
#82 = CARTESIAN_POINT ( 'NONE',  ( 0.000000000000000000, 0.000000000000000000, 0.000000000000000000 ) ) ;
#83 = FACE_OUTER_BOUND ( 'NONE', #22, .T. ) ;
#84 = EDGE_CURVE ( 'NONE', #55, #55, #73, .T. ) ;
#85 = AXIS2_PLACEMENT_3D ( 'NONE', #33, #34, #57 ) ;
ENDSEC;
END-ISO-10303-21;
