ISO-10303-21;
HEADER;
FILE_DESCRIPTION (( 'STEP AP214' ),
    '1' );
FILE_NAME ('C1_single_part__ap214_cfg.step',
    '2026-08-06T13:09:20',
    ( '' ),
    ( '' ),
    'SwSTEP 2.0',
    'SolidWorks 2026',
    '' );
FILE_SCHEMA (( 'AUTOMOTIVE_DESIGN' ));
ENDSEC;

DATA;
#1 = APPLICATION_CONTEXT ( 'automotive_design' ) ;
#2 = ORIENTED_EDGE ( 'NONE', *, *, #48, .F. ) ;
#3 = FACE_OUTER_BOUND ( 'NONE', #44, .T. ) ;
#4 = PLANE ( 'NONE',  #82 ) ;
#5 = SURFACE_SIDE_STYLE ('',( #7 ) ) ;
#6 =( NAMED_UNIT ( * ) SI_UNIT ( $, .STERADIAN. ) SOLID_ANGLE_UNIT ( ) );
#7 = SURFACE_STYLE_FILL_AREA ( #17 ) ;
#8 = DIRECTION ( 'NONE',  ( 0.000000000000000000, 0.000000000000000000, 1.000000000000000000 ) ) ;
#9 =( LENGTH_UNIT ( ) NAMED_UNIT ( * ) SI_UNIT ( .MILLI., .METRE. ) );
#10 = MANIFOLD_SOLID_BREP ( 'Boss-Extrude1', #52 ) ;
#11 = PRODUCT_CONTEXT ( 'NONE', #1, 'mechanical' ) ;
#12 = APPLICATION_PROTOCOL_DEFINITION ( 'draft international standard', 'automotive_design', 1998, #75 ) ;
#13 =( GEOMETRIC_REPRESENTATION_CONTEXT ( 3 ) GLOBAL_UNCERTAINTY_ASSIGNED_CONTEXT ( ( #32 ) ) GLOBAL_UNIT_ASSIGNED_CONTEXT ( ( #43, #29, #6 ) ) REPRESENTATION_CONTEXT ( 'NONE', 'WORKASPACE' ) );
#14 = DIRECTION ( 'NONE',  ( -0.000000000000000000, -1.000000000000000000, -0.000000000000000000 ) ) ;
#15 = DIRECTION ( 'NONE',  ( 0.000000000000000000, 1.000000000000000000, 0.000000000000000000 ) ) ;
#16 = DIRECTION ( 'NONE',  ( 0.000000000000000000, 1.000000000000000000, 0.000000000000000000 ) ) ;
#17 = FILL_AREA_STYLE ('',( #71 ) ) ;
#18 = ADVANCED_BREP_SHAPE_REPRESENTATION ( 'C1_single_part__ap214_cfg', ( #10, #35 ), #19 ) ;
#19 =( GEOMETRIC_REPRESENTATION_CONTEXT ( 3 ) GLOBAL_UNCERTAINTY_ASSIGNED_CONTEXT ( ( #83 ) ) GLOBAL_UNIT_ASSIGNED_CONTEXT ( ( #9, #62, #79 ) ) REPRESENTATION_CONTEXT ( 'NONE', 'WORKASPACE' ) );
#20 = STYLED_ITEM ( 'NONE', ( #24 ), #10 ) ;
#21 = DIRECTION ( 'NONE',  ( 0.000000000000000000, -0.000000000000000000, 1.000000000000000000 ) ) ;
#22 = ORIENTED_EDGE ( 'NONE', *, *, #57, .T. ) ;
#23 = FACE_OUTER_BOUND ( 'NONE', #69, .T. ) ;
#24 = PRESENTATION_STYLE_ASSIGNMENT (( #84 ) ) ;
#25 = AXIS2_PLACEMENT_3D ( 'NONE', #76, #15, #21 ) ;
#26 = SHAPE_DEFINITION_REPRESENTATION ( #78, #18 ) ;
#27 = AXIS2_PLACEMENT_3D ( 'NONE', #65, #42, #8 ) ;
#28 = PRODUCT_DEFINITION ( 'UNKNOWN', '', #60, #56 ) ;
#29 =( NAMED_UNIT ( * ) PLANE_ANGLE_UNIT ( ) SI_UNIT ( $, .RADIAN. ) );
#30 = CARTESIAN_POINT ( 'NONE',  ( 0.000000000000000000, 100.0000000000000000, 0.000000000000000000 ) ) ;
#31 = CYLINDRICAL_SURFACE ( 'NONE', #40, 50.00000000000000000 ) ;
#32 = UNCERTAINTY_MEASURE_WITH_UNIT (LENGTH_MEASURE( 1.000000000000000082E-05 ), #43, 'distance_accuracy_value', 'NONE');
#33 = DIRECTION ( 'NONE',  ( 0.000000000000000000, 0.000000000000000000, 1.000000000000000000 ) ) ;
#34 = ADVANCED_FACE ( 'NONE', ( #3 ), #39, .F. ) ;
#35 = AXIS2_PLACEMENT_3D ( 'NONE', #72, #45, #47 ) ;
#36 = DIRECTION ( 'NONE',  ( 0.000000000000000000, 1.000000000000000000, 0.000000000000000000 ) ) ;
#37 = CARTESIAN_POINT ( 'NONE',  ( 0.000000000000000000, 100.0000000000000000, 0.000000000000000000 ) ) ;
#38 = FACE_OUTER_BOUND ( 'NONE', #59, .T. ) ;
#39 = PLANE ( 'NONE',  #25 ) ;
#40 = AXIS2_PLACEMENT_3D ( 'NONE', #80, #14, #41 ) ;
#41 = DIRECTION ( 'NONE',  ( 0.000000000000000000, 0.000000000000000000, -1.000000000000000000 ) ) ;
#42 = DIRECTION ( 'NONE',  ( 0.000000000000000000, 1.000000000000000000, 0.000000000000000000 ) ) ;
#43 =( LENGTH_UNIT ( ) NAMED_UNIT ( * ) SI_UNIT ( .MILLI., .METRE. ) );
#44 = EDGE_LOOP ( 'NONE', ( #64 ) ) ;
#45 = DIRECTION ( 'NONE',  ( 0.000000000000000000, 0.000000000000000000, 1.000000000000000000 ) ) ;
#46 = COLOUR_RGB ( '',1.000000000000000000, 0.000000000000000000, 0.000000000000000000 ) ;
#47 = DIRECTION ( 'NONE',  ( 1.000000000000000000, 0.000000000000000000, 0.000000000000000000 ) ) ;
#48 = EDGE_CURVE ( 'NONE', #61, #61, #73, .T. ) ;
#49 = FACE_OUTER_BOUND ( 'NONE', #66, .T. ) ;
#50 = ADVANCED_FACE ( 'NONE', ( #23 ), #4, .T. ) ;
#51 = VERTEX_POINT ( 'NONE', #77 ) ;
#52 = CLOSED_SHELL ( 'NONE', ( #68, #50, #34 ) ) ;
#53 = PRODUCT ( 'C1_single_part__ap214_cfg', 'C1_single_part__ap214_cfg', '', ( #11 ) ) ;
#54 = CIRCLE ( 'NONE', #27, 50.00000000000000000 ) ;
#55 = APPLICATION_PROTOCOL_DEFINITION ( 'draft international standard', 'automotive_design', 1998, #1 ) ;
#56 = PRODUCT_DEFINITION_CONTEXT ( 'detailed design', #75, 'design' ) ;
#57 = EDGE_CURVE ( 'NONE', #51, #51, #54, .T. ) ;
#58 = DIRECTION ( 'NONE',  ( 0.000000000000000000, -0.000000000000000000, 1.000000000000000000 ) ) ;
#59 = EDGE_LOOP ( 'NONE', ( #22 ) ) ;
#60 = PRODUCT_DEFINITION_FORMATION_WITH_SPECIFIED_SOURCE ( 'ANY', '', #53, .NOT_KNOWN. ) ;
#61 = VERTEX_POINT ( 'NONE', #85 ) ;
#62 =( NAMED_UNIT ( * ) PLANE_ANGLE_UNIT ( ) SI_UNIT ( $, .RADIAN. ) );
#63 = MECHANICAL_DESIGN_GEOMETRIC_PRESENTATION_REPRESENTATION (  '', ( #20 ), #13 ) ;
#64 = ORIENTED_EDGE ( 'NONE', *, *, #57, .F. ) ;
#65 = CARTESIAN_POINT ( 'NONE',  ( 0.000000000000000000, 0.000000000000000000, 0.000000000000000000 ) ) ;
#66 = EDGE_LOOP ( 'NONE', ( #2 ) ) ;
#67 = AXIS2_PLACEMENT_3D ( 'NONE', #30, #36, #33 ) ;
#68 = ADVANCED_FACE ( 'NONE', ( #49, #38 ), #31, .T. ) ;
#69 = EDGE_LOOP ( 'NONE', ( #70 ) ) ;
#70 = ORIENTED_EDGE ( 'NONE', *, *, #48, .T. ) ;
#71 = FILL_AREA_STYLE_COLOUR ( '', #46 ) ;
#72 = CARTESIAN_POINT ( 'NONE',  ( 0.000000000000000000, 0.000000000000000000, 0.000000000000000000 ) ) ;
#73 = CIRCLE ( 'NONE', #67, 50.00000000000000000 ) ;
#74 = PRODUCT_RELATED_PRODUCT_CATEGORY ( 'part', '', ( #53 ) ) ;
#75 = APPLICATION_CONTEXT ( 'automotive_design' ) ;
#76 = CARTESIAN_POINT ( 'NONE',  ( 0.000000000000000000, 0.000000000000000000, 0.000000000000000000 ) ) ;
#77 = CARTESIAN_POINT ( 'NONE',  ( 0.000000000000000000, 0.000000000000000000, 50.00000000000000000 ) ) ;
#78 = PRODUCT_DEFINITION_SHAPE ( 'NONE', 'NONE',  #28 ) ;
#79 =( NAMED_UNIT ( * ) SI_UNIT ( $, .STERADIAN. ) SOLID_ANGLE_UNIT ( ) );
#80 = CARTESIAN_POINT ( 'NONE',  ( 0.000000000000000000, 100.0000000000000000, 0.000000000000000000 ) ) ;
#81 = PRESENTATION_LAYER_ASSIGNMENT (  '', '', ( #20 ) ) ;
#82 = AXIS2_PLACEMENT_3D ( 'NONE', #37, #16, #58 ) ;
#83 = UNCERTAINTY_MEASURE_WITH_UNIT (LENGTH_MEASURE( 1.000000000000000082E-05 ), #9, 'distance_accuracy_value', 'NONE');
#84 = SURFACE_STYLE_USAGE ( .BOTH. , #5 ) ;
#85 = CARTESIAN_POINT ( 'NONE',  ( 0.000000000000000000, 100.0000000000000000, 50.00000000000000000 ) ) ;
ENDSEC;
END-ISO-10303-21;
