ISO-10303-21;
HEADER;
FILE_DESCRIPTION (( 'STEP AP214' ),
    '1' );
FILE_NAME ('C1_single_part__ap214_appear.step',
    '2026-08-06T13:09:20',
    ( '' ),
    ( '' ),
    'SwSTEP 2.0',
    'SolidWorks 2026',
    '' );
FILE_SCHEMA (( 'AUTOMOTIVE_DESIGN' ));
ENDSEC;

DATA;
#1 =( GEOMETRIC_REPRESENTATION_CONTEXT ( 3 ) GLOBAL_UNCERTAINTY_ASSIGNED_CONTEXT ( ( #85 ) ) GLOBAL_UNIT_ASSIGNED_CONTEXT ( ( #12, #24, #57 ) ) REPRESENTATION_CONTEXT ( 'NONE', 'WORKASPACE' ) );
#2 = PRODUCT_RELATED_PRODUCT_CATEGORY ( 'part', '', ( #78 ) ) ;
#3 = CYLINDRICAL_SURFACE ( 'NONE', #15, 50.00000000000000000 ) ;
#4 =( LENGTH_UNIT ( ) NAMED_UNIT ( * ) SI_UNIT ( .MILLI., .METRE. ) );
#5 = SURFACE_STYLE_USAGE ( .BOTH. , #72 ) ;
#6 = DIRECTION ( 'NONE',  ( 0.000000000000000000, 0.000000000000000000, 1.000000000000000000 ) ) ;
#7 = MECHANICAL_DESIGN_GEOMETRIC_PRESENTATION_REPRESENTATION (  '', ( #61 ), #28 ) ;
#8 = ORIENTED_EDGE ( 'NONE', *, *, #49, .F. ) ;
#9 = SURFACE_STYLE_FILL_AREA ( #44 ) ;
#10 = AXIS2_PLACEMENT_3D ( 'NONE', #11, #29, #6 ) ;
#11 = CARTESIAN_POINT ( 'NONE',  ( 0.000000000000000000, 100.0000000000000000, 0.000000000000000000 ) ) ;
#12 =( LENGTH_UNIT ( ) NAMED_UNIT ( * ) SI_UNIT ( .MILLI., .METRE. ) );
#13 = ADVANCED_FACE ( 'NONE', ( #82, #76 ), #3, .T. ) ;
#14 = APPLICATION_CONTEXT ( 'automotive_design' ) ;
#15 = AXIS2_PLACEMENT_3D ( 'NONE', #51, #19, #53 ) ;
#16 = PLANE ( 'NONE',  #84 ) ;
#17 = APPLICATION_CONTEXT ( 'automotive_design' ) ;
#18 = EDGE_LOOP ( 'NONE', ( #45 ) ) ;
#19 = DIRECTION ( 'NONE',  ( -0.000000000000000000, -1.000000000000000000, -0.000000000000000000 ) ) ;
#20 = VERTEX_POINT ( 'NONE', #25 ) ;
#21 = APPLICATION_PROTOCOL_DEFINITION ( 'draft international standard', 'automotive_design', 1998, #14 ) ;
#22 = CARTESIAN_POINT ( 'NONE',  ( 0.000000000000000000, 0.000000000000000000, 0.000000000000000000 ) ) ;
#23 = PRODUCT_DEFINITION_FORMATION_WITH_SPECIFIED_SOURCE ( 'ANY', '', #78, .NOT_KNOWN. ) ;
#24 =( NAMED_UNIT ( * ) PLANE_ANGLE_UNIT ( ) SI_UNIT ( $, .RADIAN. ) );
#25 = CARTESIAN_POINT ( 'NONE',  ( 0.000000000000000000, 0.000000000000000000, 50.00000000000000000 ) ) ;
#26 = DIRECTION ( 'NONE',  ( 0.000000000000000000, -0.000000000000000000, 1.000000000000000000 ) ) ;
#27 =( NAMED_UNIT ( * ) SI_UNIT ( $, .STERADIAN. ) SOLID_ANGLE_UNIT ( ) );
#28 =( GEOMETRIC_REPRESENTATION_CONTEXT ( 3 ) GLOBAL_UNCERTAINTY_ASSIGNED_CONTEXT ( ( #48 ) ) GLOBAL_UNIT_ASSIGNED_CONTEXT ( ( #4, #46, #27 ) ) REPRESENTATION_CONTEXT ( 'NONE', 'WORKASPACE' ) );
#29 = DIRECTION ( 'NONE',  ( 0.000000000000000000, 1.000000000000000000, 0.000000000000000000 ) ) ;
#30 = PRESENTATION_STYLE_ASSIGNMENT (( #5 ) ) ;
#31 = CIRCLE ( 'NONE', #63, 50.00000000000000000 ) ;
#32 = CARTESIAN_POINT ( 'NONE',  ( 0.000000000000000000, 0.000000000000000000, 0.000000000000000000 ) ) ;
#33 = EDGE_LOOP ( 'NONE', ( #65 ) ) ;
#34 = DIRECTION ( 'NONE',  ( 0.000000000000000000, 1.000000000000000000, 0.000000000000000000 ) ) ;
#35 = DIRECTION ( 'NONE',  ( 1.000000000000000000, 0.000000000000000000, 0.000000000000000000 ) ) ;
#36 = ADVANCED_FACE ( 'NONE', ( #71 ), #16, .T. ) ;
#37 = DIRECTION ( 'NONE',  ( 0.000000000000000000, 0.000000000000000000, 1.000000000000000000 ) ) ;
#38 = PRODUCT_DEFINITION_CONTEXT ( 'detailed design', #17, 'design' ) ;
#39 = PRESENTATION_LAYER_ASSIGNMENT (  '', '', ( #61 ) ) ;
#40 = FACE_OUTER_BOUND ( 'NONE', #79, .T. ) ;
#41 = AXIS2_PLACEMENT_3D ( 'NONE', #32, #55, #59 ) ;
#42 = ADVANCED_BREP_SHAPE_REPRESENTATION ( 'C1_single_part__ap214_appear', ( #43, #81 ), #1 ) ;
#43 = MANIFOLD_SOLID_BREP ( 'Boss-Extrude1', #62 ) ;
#44 = FILL_AREA_STYLE ('',( #67 ) ) ;
#45 = ORIENTED_EDGE ( 'NONE', *, *, #49, .T. ) ;
#46 =( NAMED_UNIT ( * ) PLANE_ANGLE_UNIT ( ) SI_UNIT ( $, .RADIAN. ) );
#47 = PRODUCT_CONTEXT ( 'NONE', #14, 'mechanical' ) ;
#48 = UNCERTAINTY_MEASURE_WITH_UNIT (LENGTH_MEASURE( 1.000000000000000082E-05 ), #4, 'distance_accuracy_value', 'NONE');
#49 = EDGE_CURVE ( 'NONE', #20, #20, #31, .T. ) ;
#50 = COLOUR_RGB ( '',1.000000000000000000, 0.000000000000000000, 0.000000000000000000 ) ;
#51 = CARTESIAN_POINT ( 'NONE',  ( 0.000000000000000000, 100.0000000000000000, 0.000000000000000000 ) ) ;
#52 = DIRECTION ( 'NONE',  ( 0.000000000000000000, 1.000000000000000000, 0.000000000000000000 ) ) ;
#53 = DIRECTION ( 'NONE',  ( 0.000000000000000000, 0.000000000000000000, -1.000000000000000000 ) ) ;
#54 = VERTEX_POINT ( 'NONE', #73 ) ;
#55 = DIRECTION ( 'NONE',  ( 0.000000000000000000, 1.000000000000000000, 0.000000000000000000 ) ) ;
#56 = PRODUCT_DEFINITION_SHAPE ( 'NONE', 'NONE',  #80 ) ;
#57 =( NAMED_UNIT ( * ) SI_UNIT ( $, .STERADIAN. ) SOLID_ANGLE_UNIT ( ) );
#58 = DIRECTION ( 'NONE',  ( 0.000000000000000000, 0.000000000000000000, 1.000000000000000000 ) ) ;
#59 = DIRECTION ( 'NONE',  ( 0.000000000000000000, -0.000000000000000000, 1.000000000000000000 ) ) ;
#60 = CARTESIAN_POINT ( 'NONE',  ( 0.000000000000000000, 100.0000000000000000, 0.000000000000000000 ) ) ;
#61 = STYLED_ITEM ( 'NONE', ( #30 ), #43 ) ;
#62 = CLOSED_SHELL ( 'NONE', ( #13, #36, #75 ) ) ;
#63 = AXIS2_PLACEMENT_3D ( 'NONE', #68, #52, #58 ) ;
#64 = EDGE_CURVE ( 'NONE', #54, #54, #69, .T. ) ;
#65 = ORIENTED_EDGE ( 'NONE', *, *, #64, .F. ) ;
#66 = EDGE_LOOP ( 'NONE', ( #77 ) ) ;
#67 = FILL_AREA_STYLE_COLOUR ( '', #50 ) ;
#68 = CARTESIAN_POINT ( 'NONE',  ( 0.000000000000000000, 0.000000000000000000, 0.000000000000000000 ) ) ;
#69 = CIRCLE ( 'NONE', #10, 50.00000000000000000 ) ;
#70 = SHAPE_DEFINITION_REPRESENTATION ( #56, #42 ) ;
#71 = FACE_OUTER_BOUND ( 'NONE', #66, .T. ) ;
#72 = SURFACE_SIDE_STYLE ('',( #9 ) ) ;
#73 = CARTESIAN_POINT ( 'NONE',  ( 0.000000000000000000, 100.0000000000000000, 50.00000000000000000 ) ) ;
#74 = APPLICATION_PROTOCOL_DEFINITION ( 'draft international standard', 'automotive_design', 1998, #17 ) ;
#75 = ADVANCED_FACE ( 'NONE', ( #40 ), #83, .F. ) ;
#76 = FACE_OUTER_BOUND ( 'NONE', #18, .T. ) ;
#77 = ORIENTED_EDGE ( 'NONE', *, *, #64, .T. ) ;
#78 = PRODUCT ( 'C1_single_part__ap214_appear', 'C1_single_part__ap214_appear', '', ( #47 ) ) ;
#79 = EDGE_LOOP ( 'NONE', ( #8 ) ) ;
#80 = PRODUCT_DEFINITION ( 'UNKNOWN', '', #23, #38 ) ;
#81 = AXIS2_PLACEMENT_3D ( 'NONE', #22, #37, #35 ) ;
#82 = FACE_OUTER_BOUND ( 'NONE', #33, .T. ) ;
#83 = PLANE ( 'NONE',  #41 ) ;
#84 = AXIS2_PLACEMENT_3D ( 'NONE', #60, #34, #26 ) ;
#85 = UNCERTAINTY_MEASURE_WITH_UNIT (LENGTH_MEASURE( 1.000000000000000082E-05 ), #12, 'distance_accuracy_value', 'NONE');
ENDSEC;
END-ISO-10303-21;
