ISO-10303-21;
HEADER;
FILE_DESCRIPTION (( 'STEP AP203' ),
    '1' );
FILE_NAME ('C1_single_part__ap203.step',
    '2026-08-06T13:09:19',
    ( '' ),
    ( '' ),
    'SwSTEP 2.0',
    'SolidWorks 2026',
    '' );
FILE_SCHEMA (( 'CONFIG_CONTROL_DESIGN' ));
ENDSEC;

DATA;
#1 = APPROVAL_STATUS ( 'not_yet_approved' ) ;
#2 = DATE_TIME_ROLE ( 'creation_date' ) ;
#3 = PERSON_AND_ORGANIZATION ( #71, #26 ) ;
#4 = AXIS2_PLACEMENT_3D ( 'NONE', #6, #7, #87 ) ;
#5 = CYLINDRICAL_SURFACE ( 'NONE', #36, 50.00000000000000000 ) ;
#6 = CARTESIAN_POINT ( 'NONE',  ( 0.000000000000000000, 100.0000000000000000, 0.000000000000000000 ) ) ;
#7 = DIRECTION ( 'NONE',  ( 0.000000000000000000, 1.000000000000000000, 0.000000000000000000 ) ) ;
#8 = SECURITY_CLASSIFICATION ( '', '', #129 ) ;
#9 = DATE_AND_TIME ( #11, #66 ) ;
#10 = PERSON_AND_ORGANIZATION ( #71, #26 ) ;
#11 = CALENDAR_DATE ( 2026, 6, 8 ) ;
#12 = ADVANCED_FACE ( 'NONE', ( #27 ), #120, .F. ) ;
#13 = CIRCLE ( 'NONE', #85, 50.00000000000000000 ) ;
#14 = CARTESIAN_POINT ( 'NONE',  ( 0.000000000000000000, 0.000000000000000000, 0.000000000000000000 ) ) ;
#15 = CARTESIAN_POINT ( 'NONE',  ( 0.000000000000000000, 0.000000000000000000, 0.000000000000000000 ) ) ;
#16 = PRODUCT_DEFINITION ( 'UNKNOWN', '', #42, #100 ) ;
#17 = APPLICATION_PROTOCOL_DEFINITION ( 'international standard', 'config_control_design', 1994, #88 ) ;
#18 = APPLICATION_PROTOCOL_DEFINITION ( 'international standard', 'config_control_design', 1994, #96 ) ;
#19 = APPROVAL_DATE_TIME ( #90, #25 ) ;
#20 = CLOSED_SHELL ( 'NONE', ( #46, #99, #12 ) ) ;
#21 = PERSON_AND_ORGANIZATION ( #71, #26 ) ;
#22 = LOCAL_TIME ( 14, 9, 18.00000000000000000, #43 ) ;
#23 = CC_DESIGN_SECURITY_CLASSIFICATION ( #8, ( #42 ) ) ;
#24 = CC_DESIGN_DATE_AND_TIME_ASSIGNMENT ( #9, #89, ( #8 ) ) ;
#25 = APPROVAL ( #56, 'UNSPECIFIED' ) ;
#26 = ORGANIZATION ( 'UNSPECIFIED', 'UNSPECIFIED', '' ) ;
#27 = FACE_OUTER_BOUND ( 'NONE', #39, .T. ) ;
#28 = PRODUCT_DEFINITION_SHAPE ( 'NONE', 'NONE',  #16 ) ;
#29 = PLANE ( 'NONE',  #4 ) ;
#30 = CARTESIAN_POINT ( 'NONE',  ( 0.000000000000000000, 100.0000000000000000, 0.000000000000000000 ) ) ;
#31 = APPROVAL_DATE_TIME ( #70, #79 ) ;
#32 = MECHANICAL_CONTEXT ( 'NONE', #88, 'mechanical' ) ;
#33 = PERSON_AND_ORGANIZATION_ROLE ( 'classification_officer' ) ;
#34 = EDGE_LOOP ( 'NONE', ( #44 ) ) ;
#35 = DATE_AND_TIME ( #108, #101 ) ;
#36 = AXIS2_PLACEMENT_3D ( 'NONE', #86, #68, #123 ) ;
#37 = CC_DESIGN_PERSON_AND_ORGANIZATION_ASSIGNMENT ( #115, #106, ( #16 ) ) ;
#38 = CC_DESIGN_PERSON_AND_ORGANIZATION_ASSIGNMENT ( #45, #84, ( #42 ) ) ;
#39 = EDGE_LOOP ( 'NONE', ( #78 ) ) ;
#40 = VERTEX_POINT ( 'NONE', #41 ) ;
#41 = CARTESIAN_POINT ( 'NONE',  ( 0.000000000000000000, 100.0000000000000000, 50.00000000000000000 ) ) ;
#42 = PRODUCT_DEFINITION_FORMATION_WITH_SPECIFIED_SOURCE ( 'ANY', '', #122, .NOT_KNOWN. ) ;
#43 = COORDINATED_UNIVERSAL_TIME_OFFSET ( 0, 0, .AHEAD. ) ;
#44 = ORIENTED_EDGE ( 'NONE', *, *, #128, .F. ) ;
#45 = PERSON_AND_ORGANIZATION ( #71, #26 ) ;
#46 = ADVANCED_FACE ( 'NONE', ( #58, #97 ), #5, .T. ) ;
#47 = CIRCLE ( 'NONE', #74, 50.00000000000000000 ) ;
#48 = EDGE_LOOP ( 'NONE', ( #53 ) ) ;
#49 = DIRECTION ( 'NONE',  ( 0.000000000000000000, 1.000000000000000000, 0.000000000000000000 ) ) ;
#50 = FACE_OUTER_BOUND ( 'NONE', #132, .T. ) ;
#51 = LOCAL_TIME ( 14, 9, 18.00000000000000000, #126 ) ;
#52 = PERSON_AND_ORGANIZATION ( #71, #26 ) ;
#53 = ORIENTED_EDGE ( 'NONE', *, *, #77, .T. ) ;
#54 = DIRECTION ( 'NONE',  ( 1.000000000000000000, 0.000000000000000000, 0.000000000000000000 ) ) ;
#55 = PERSON_AND_ORGANIZATION ( #71, #26 ) ;
#56 = APPROVAL_STATUS ( 'not_yet_approved' ) ;
#57 = CC_DESIGN_PERSON_AND_ORGANIZATION_ASSIGNMENT ( #103, #60, ( #122 ) ) ;
#58 = FACE_OUTER_BOUND ( 'NONE', #34, .T. ) ;
#59 = DIRECTION ( 'NONE',  ( 0.000000000000000000, 0.000000000000000000, 1.000000000000000000 ) ) ;
#60 = PERSON_AND_ORGANIZATION_ROLE ( 'design_owner' ) ;
#61 = UNCERTAINTY_MEASURE_WITH_UNIT (LENGTH_MEASURE( 1.000000000000000082E-05 ), #112, 'distance_accuracy_value', 'NONE');
#62 = COORDINATED_UNIVERSAL_TIME_OFFSET ( 0, 0, .AHEAD. ) ;
#63 = LOCAL_TIME ( 14, 9, 18.00000000000000000, #116 ) ;
#64 = COORDINATED_UNIVERSAL_TIME_OFFSET ( 0, 0, .AHEAD. ) ;
#65 = DATE_AND_TIME ( #109, #63 ) ;
#66 = LOCAL_TIME ( 14, 9, 18.00000000000000000, #64 ) ;
#67 = DIRECTION ( 'NONE',  ( 0.000000000000000000, 1.000000000000000000, 0.000000000000000000 ) ) ;
#68 = DIRECTION ( 'NONE',  ( -0.000000000000000000, -1.000000000000000000, -0.000000000000000000 ) ) ;
#69 = DIRECTION ( 'NONE',  ( 0.000000000000000000, 0.000000000000000000, 1.000000000000000000 ) ) ;
#70 = DATE_AND_TIME ( #125, #51 ) ;
#71 = PERSON ( 'UNSPECIFIED', 'UNSPECIFIED', 'UNSPECIFIED', ('UNSPECIFIED'), ('UNSPECIFIED'), ('UNSPECIFIED') ) ;
#72 = APPROVAL_ROLE ( '' ) ;
#73 = ORIENTED_EDGE ( 'NONE', *, *, #128, .T. ) ;
#74 = AXIS2_PLACEMENT_3D ( 'NONE', #15, #113, #59 ) ;
#75 = CALENDAR_DATE ( 2026, 6, 8 ) ;
#76 = APPROVAL_PERSON_ORGANIZATION ( #55, #94, #72 ) ;
#77 = EDGE_CURVE ( 'NONE', #98, #98, #47, .T. ) ;
#78 = ORIENTED_EDGE ( 'NONE', *, *, #77, .F. ) ;
#79 = APPROVAL ( #1, 'UNSPECIFIED' ) ;
#80 = CC_DESIGN_PERSON_AND_ORGANIZATION_ASSIGNMENT ( #21, #33, ( #8 ) ) ;
#81 = CARTESIAN_POINT ( 'NONE',  ( 0.000000000000000000, 0.000000000000000000, 0.000000000000000000 ) ) ;
#82 = APPROVAL_ROLE ( '' ) ;
#83 = APPROVAL_STATUS ( 'not_yet_approved' ) ;
#84 = PERSON_AND_ORGANIZATION_ROLE ( 'design_supplier' ) ;
#85 = AXIS2_PLACEMENT_3D ( 'NONE', #30, #49, #69 ) ;
#86 = CARTESIAN_POINT ( 'NONE',  ( 0.000000000000000000, 100.0000000000000000, 0.000000000000000000 ) ) ;
#87 = DIRECTION ( 'NONE',  ( 0.000000000000000000, -0.000000000000000000, 1.000000000000000000 ) ) ;
#88 = APPLICATION_CONTEXT ( 'configuration controlled 3d designs of mechanical parts and assemblies' ) ;
#89 = DATE_TIME_ROLE ( 'classification_date' ) ;
#90 = DATE_AND_TIME ( #75, #22 ) ;
#91 = AXIS2_PLACEMENT_3D ( 'NONE', #14, #67, #111 ) ;
#92 = CC_DESIGN_DATE_AND_TIME_ASSIGNMENT ( #35, #2, ( #16 ) ) ;
#93 = APPROVAL_PERSON_ORGANIZATION ( #52, #79, #82 ) ;
#94 = APPROVAL ( #83, 'UNSPECIFIED' ) ;
#95 = APPROVAL_DATE_TIME ( #65, #94 ) ;
#96 = APPLICATION_CONTEXT ( 'configuration controlled 3d designs of mechanical parts and assemblies' ) ;
#97 = FACE_OUTER_BOUND ( 'NONE', #48, .T. ) ;
#98 = VERTEX_POINT ( 'NONE', #134 ) ;
#99 = ADVANCED_FACE ( 'NONE', ( #50 ), #29, .T. ) ;
#100 = DESIGN_CONTEXT ( 'detailed design', #96, 'design' ) ;
#101 = LOCAL_TIME ( 14, 9, 18.00000000000000000, #62 ) ;
#102 = PRODUCT_RELATED_PRODUCT_CATEGORY ( 'detail', '', ( #122 ) ) ;
#103 = PERSON_AND_ORGANIZATION ( #71, #26 ) ;
#104 = DIRECTION ( 'NONE',  ( 0.000000000000000000, 0.000000000000000000, 1.000000000000000000 ) ) ;
#105 = ADVANCED_BREP_SHAPE_REPRESENTATION ( 'C1_single_part__ap203', ( #107, #130 ), #110 ) ;
#106 = PERSON_AND_ORGANIZATION_ROLE ( 'creator' ) ;
#107 = MANIFOLD_SOLID_BREP ( 'Boss-Extrude1', #20 ) ;
#108 = CALENDAR_DATE ( 2026, 6, 8 ) ;
#109 = CALENDAR_DATE ( 2026, 6, 8 ) ;
#110 =( GEOMETRIC_REPRESENTATION_CONTEXT ( 3 ) GLOBAL_UNCERTAINTY_ASSIGNED_CONTEXT ( ( #61 ) ) GLOBAL_UNIT_ASSIGNED_CONTEXT ( ( #112, #133, #121 ) ) REPRESENTATION_CONTEXT ( 'NONE', 'WORKASPACE' ) );
#111 = DIRECTION ( 'NONE',  ( 0.000000000000000000, -0.000000000000000000, 1.000000000000000000 ) ) ;
#112 =( LENGTH_UNIT ( ) NAMED_UNIT ( * ) SI_UNIT ( .MILLI., .METRE. ) );
#113 = DIRECTION ( 'NONE',  ( 0.000000000000000000, 1.000000000000000000, 0.000000000000000000 ) ) ;
#114 = CC_DESIGN_PERSON_AND_ORGANIZATION_ASSIGNMENT ( #3, #118, ( #42 ) ) ;
#115 = PERSON_AND_ORGANIZATION ( #71, #26 ) ;
#116 = COORDINATED_UNIVERSAL_TIME_OFFSET ( 0, 0, .AHEAD. ) ;
#117 = CC_DESIGN_APPROVAL ( #79, ( #16 ) ) ;
#118 = PERSON_AND_ORGANIZATION_ROLE ( 'creator' ) ;
#119 = CC_DESIGN_APPROVAL ( #25, ( #42 ) ) ;
#120 = PLANE ( 'NONE',  #91 ) ;
#121 =( NAMED_UNIT ( * ) SI_UNIT ( $, .STERADIAN. ) SOLID_ANGLE_UNIT ( ) );
#122 = PRODUCT ( 'C1_single_part__ap203', 'C1_single_part__ap203', '', ( #32 ) ) ;
#123 = DIRECTION ( 'NONE',  ( 0.000000000000000000, 0.000000000000000000, -1.000000000000000000 ) ) ;
#124 = CC_DESIGN_APPROVAL ( #94, ( #8 ) ) ;
#125 = CALENDAR_DATE ( 2026, 6, 8 ) ;
#126 = COORDINATED_UNIVERSAL_TIME_OFFSET ( 0, 0, .AHEAD. ) ;
#127 = APPROVAL_ROLE ( '' ) ;
#128 = EDGE_CURVE ( 'NONE', #40, #40, #13, .T. ) ;
#129 = SECURITY_CLASSIFICATION_LEVEL ( 'unclassified' ) ;
#130 = AXIS2_PLACEMENT_3D ( 'NONE', #81, #104, #54 ) ;
#131 = SHAPE_DEFINITION_REPRESENTATION ( #28, #105 ) ;
#132 = EDGE_LOOP ( 'NONE', ( #73 ) ) ;
#133 =( NAMED_UNIT ( * ) PLANE_ANGLE_UNIT ( ) SI_UNIT ( $, .RADIAN. ) );
#134 = CARTESIAN_POINT ( 'NONE',  ( 0.000000000000000000, 0.000000000000000000, 50.00000000000000000 ) ) ;
#135 = APPROVAL_PERSON_ORGANIZATION ( #10, #25, #127 ) ;
ENDSEC;
END-ISO-10303-21;
