ISO-10303-21;
HEADER;
FILE_DESCRIPTION (( 'STEP AP214' ),
    '1' );
FILE_NAME ('C2_stacked_overrides__ap214_appear.step',
    '2026-08-06T13:09:21',
    ( '' ),
    ( '' ),
    'SwSTEP 2.0',
    'SolidWorks 2026',
    '' );
FILE_SCHEMA (( 'AUTOMOTIVE_DESIGN' ));
ENDSEC;

DATA;
#1 = AXIS2_PLACEMENT_3D ( 'NONE', #81, #16, #99 ) ;
#2 = DIRECTION ( 'NONE',  ( 0.000000000000000000, 0.000000000000000000, -1.000000000000000000 ) ) ;
#3 = SURFACE_STYLE_FILL_AREA ( #68 ) ;
#4 = APPLICATION_CONTEXT ( 'automotive_design' ) ;
#5 = EDGE_LOOP ( 'NONE', ( #19 ) ) ;
#6 = PRESENTATION_STYLE_ASSIGNMENT (( #78 ) ) ;
#7 = PRODUCT_DEFINITION_SHAPE ( 'NONE', 'NONE',  #44 ) ;
#8 = PRESENTATION_LAYER_ASSIGNMENT (  '', '', ( #69 ) ) ;
#9 = PRODUCT_DEFINITION_FORMATION_WITH_SPECIFIED_SOURCE ( 'ANY', '', #57, .NOT_KNOWN. ) ;
#10 = CARTESIAN_POINT ( 'NONE',  ( 0.000000000000000000, 100.0000000000000000, 0.000000000000000000 ) ) ;
#11 = SURFACE_SIDE_STYLE ('',( #54 ) ) ;
#12 = MECHANICAL_DESIGN_GEOMETRIC_PRESENTATION_REPRESENTATION (  '', ( #114 ), #55 ) ;
#13 = APPLICATION_PROTOCOL_DEFINITION ( 'draft international standard', 'automotive_design', 1998, #86 ) ;
#14 = SURFACE_STYLE_FILL_AREA ( #18 ) ;
#15 = FILL_AREA_STYLE_COLOUR ( '', #51 ) ;
#16 = DIRECTION ( 'NONE',  ( 0.000000000000000000, 1.000000000000000000, 0.000000000000000000 ) ) ;
#17 = ADVANCED_FACE ( 'NONE', ( #47 ), #108, .F. ) ;
#18 = FILL_AREA_STYLE ('',( #67 ) ) ;
#19 = ORIENTED_EDGE ( 'NONE', *, *, #39, .T. ) ;
#20 = VERTEX_POINT ( 'NONE', #38 ) ;
#21 = AXIS2_PLACEMENT_3D ( 'NONE', #52, #92, #2 ) ;
#22 = DIRECTION ( 'NONE',  ( 1.000000000000000000, 0.000000000000000000, 0.000000000000000000 ) ) ;
#23 = ADVANCED_FACE ( 'NONE', ( #58 ), #36, .T. ) ;
#24 = AXIS2_PLACEMENT_3D ( 'NONE', #105, #73, #22 ) ;
#25 = CARTESIAN_POINT ( 'NONE',  ( 0.000000000000000000, 0.000000000000000000, 0.000000000000000000 ) ) ;
#26 = EDGE_LOOP ( 'NONE', ( #128 ) ) ;
#27 = PRESENTATION_STYLE_ASSIGNMENT (( #109 ) ) ;
#28 = MECHANICAL_DESIGN_GEOMETRIC_PRESENTATION_REPRESENTATION (  '', ( #118 ), #70 ) ;
#29 =( NAMED_UNIT ( * ) SI_UNIT ( $, .STERADIAN. ) SOLID_ANGLE_UNIT ( ) );
#30 = UNCERTAINTY_MEASURE_WITH_UNIT (LENGTH_MEASURE( 1.000000000000000082E-05 ), #75, 'distance_accuracy_value', 'NONE');
#31 = CYLINDRICAL_SURFACE ( 'NONE', #21, 50.00000000000000000 ) ;
#32 = DIRECTION ( 'NONE',  ( 0.000000000000000000, 0.000000000000000000, 1.000000000000000000 ) ) ;
#33 = AXIS2_PLACEMENT_3D ( 'NONE', #88, #127, #115 ) ;
#34 = CIRCLE ( 'NONE', #82, 50.00000000000000000 ) ;
#35 = FILL_AREA_STYLE_COLOUR ( '', #124 ) ;
#36 = PLANE ( 'NONE',  #37 ) ;
#37 = AXIS2_PLACEMENT_3D ( 'NONE', #10, #64, #77 ) ;
#38 = CARTESIAN_POINT ( 'NONE',  ( 0.000000000000000000, 100.0000000000000000, 50.00000000000000000 ) ) ;
#39 = EDGE_CURVE ( 'NONE', #20, #20, #74, .T. ) ;
#40 = ADVANCED_BREP_SHAPE_REPRESENTATION ( 'C2_stacked_overrides__ap214_appear', ( #43, #24 ), #56 ) ;
#41 = DIRECTION ( 'NONE',  ( 0.000000000000000000, 1.000000000000000000, 0.000000000000000000 ) ) ;
#42 =( GEOMETRIC_REPRESENTATION_CONTEXT ( 3 ) GLOBAL_UNCERTAINTY_ASSIGNED_CONTEXT ( ( #30 ) ) GLOBAL_UNIT_ASSIGNED_CONTEXT ( ( #75, #59, #48 ) ) REPRESENTATION_CONTEXT ( 'NONE', 'WORKASPACE' ) );
#43 = MANIFOLD_SOLID_BREP ( 'Boss-Extrude1', #91 ) ;
#44 = PRODUCT_DEFINITION ( 'UNKNOWN', '', #9, #76 ) ;
#45 = COLOUR_RGB ( '',0.000000000000000000, 1.000000000000000000, 0.000000000000000000 ) ;
#46 = FILL_AREA_STYLE ('',( #35 ) ) ;
#47 = FACE_OUTER_BOUND ( 'NONE', #130, .T. ) ;
#48 =( NAMED_UNIT ( * ) SI_UNIT ( $, .STERADIAN. ) SOLID_ANGLE_UNIT ( ) );
#49 =( NAMED_UNIT ( * ) SI_UNIT ( $, .STERADIAN. ) SOLID_ANGLE_UNIT ( ) );
#50 = UNCERTAINTY_MEASURE_WITH_UNIT (LENGTH_MEASURE( 1.000000000000000082E-05 ), #83, 'distance_accuracy_value', 'NONE');
#51 = COLOUR_RGB ( '',0.9098039215686274384, 0.4431372549019607643, 0.03137254901960784270 ) ;
#52 = CARTESIAN_POINT ( 'NONE',  ( 0.000000000000000000, 100.0000000000000000, 0.000000000000000000 ) ) ;
#53 =( NAMED_UNIT ( * ) SI_UNIT ( $, .STERADIAN. ) SOLID_ANGLE_UNIT ( ) );
#54 = SURFACE_STYLE_FILL_AREA ( #120 ) ;
#55 =( GEOMETRIC_REPRESENTATION_CONTEXT ( 3 ) GLOBAL_UNCERTAINTY_ASSIGNED_CONTEXT ( ( #101 ) ) GLOBAL_UNIT_ASSIGNED_CONTEXT ( ( #110, #103, #29 ) ) REPRESENTATION_CONTEXT ( 'NONE', 'WORKASPACE' ) );
#56 =( GEOMETRIC_REPRESENTATION_CONTEXT ( 3 ) GLOBAL_UNCERTAINTY_ASSIGNED_CONTEXT ( ( #50 ) ) GLOBAL_UNIT_ASSIGNED_CONTEXT ( ( #83, #62, #53 ) ) REPRESENTATION_CONTEXT ( 'NONE', 'WORKASPACE' ) );
#57 = PRODUCT ( 'C2_stacked_overrides__ap214_appear', 'C2_stacked_overrides__ap214_appear', '', ( #96 ) ) ;
#58 = FACE_OUTER_BOUND ( 'NONE', #5, .T. ) ;
#59 =( NAMED_UNIT ( * ) PLANE_ANGLE_UNIT ( ) SI_UNIT ( $, .RADIAN. ) );
#60 = UNCERTAINTY_MEASURE_WITH_UNIT (LENGTH_MEASURE( 1.000000000000000082E-05 ), #111, 'distance_accuracy_value', 'NONE');
#61 = SURFACE_SIDE_STYLE ('',( #3 ) ) ;
#62 =( NAMED_UNIT ( * ) PLANE_ANGLE_UNIT ( ) SI_UNIT ( $, .RADIAN. ) );
#63 = VERTEX_POINT ( 'NONE', #93 ) ;
#64 = DIRECTION ( 'NONE',  ( 0.000000000000000000, 1.000000000000000000, 0.000000000000000000 ) ) ;
#65 = PRESENTATION_LAYER_ASSIGNMENT (  '', '', ( #114 ) ) ;
#66 = ORIENTED_EDGE ( 'NONE', *, *, #39, .F. ) ;
#67 = FILL_AREA_STYLE_COLOUR ( '', #129 ) ;
#68 = FILL_AREA_STYLE ('',( #94 ) ) ;
#69 = STYLED_ITEM ( 'NONE', ( #27 ), #17 ) ;
#70 =( GEOMETRIC_REPRESENTATION_CONTEXT ( 3 ) GLOBAL_UNCERTAINTY_ASSIGNED_CONTEXT ( ( #60 ) ) GLOBAL_UNIT_ASSIGNED_CONTEXT ( ( #111, #112, #49 ) ) REPRESENTATION_CONTEXT ( 'NONE', 'WORKASPACE' ) );
#71 = SURFACE_STYLE_USAGE ( .BOTH. , #11 ) ;
#72 = PRESENTATION_LAYER_ASSIGNMENT (  '', '', ( #121 ) ) ;
#73 = DIRECTION ( 'NONE',  ( 0.000000000000000000, 0.000000000000000000, 1.000000000000000000 ) ) ;
#74 = CIRCLE ( 'NONE', #33, 50.00000000000000000 ) ;
#75 =( LENGTH_UNIT ( ) NAMED_UNIT ( * ) SI_UNIT ( .MILLI., .METRE. ) );
#76 = PRODUCT_DEFINITION_CONTEXT ( 'detailed design', #4, 'design' ) ;
#77 = DIRECTION ( 'NONE',  ( 0.000000000000000000, -0.000000000000000000, 1.000000000000000000 ) ) ;
#78 = SURFACE_STYLE_USAGE ( .BOTH. , #90 ) ;
#79 = PRESENTATION_LAYER_ASSIGNMENT (  '', '', ( #118 ) ) ;
#80 =( LENGTH_UNIT ( ) NAMED_UNIT ( * ) SI_UNIT ( .MILLI., .METRE. ) );
#81 = CARTESIAN_POINT ( 'NONE',  ( 0.000000000000000000, 0.000000000000000000, 0.000000000000000000 ) ) ;
#82 = AXIS2_PLACEMENT_3D ( 'NONE', #25, #41, #32 ) ;
#83 =( LENGTH_UNIT ( ) NAMED_UNIT ( * ) SI_UNIT ( .MILLI., .METRE. ) );
#84 = SURFACE_STYLE_USAGE ( .BOTH. , #61 ) ;
#85 = MECHANICAL_DESIGN_GEOMETRIC_PRESENTATION_REPRESENTATION (  '', ( #121 ), #102 ) ;
#86 = APPLICATION_CONTEXT ( 'automotive_design' ) ;
#87 = EDGE_CURVE ( 'NONE', #63, #63, #34, .T. ) ;
#88 = CARTESIAN_POINT ( 'NONE',  ( 0.000000000000000000, 100.0000000000000000, 0.000000000000000000 ) ) ;
#89 = UNCERTAINTY_MEASURE_WITH_UNIT (LENGTH_MEASURE( 1.000000000000000082E-05 ), #80, 'distance_accuracy_value', 'NONE');
#90 = SURFACE_SIDE_STYLE ('',( #107 ) ) ;
#91 = CLOSED_SHELL ( 'NONE', ( #104, #23, #17 ) ) ;
#92 = DIRECTION ( 'NONE',  ( -0.000000000000000000, -1.000000000000000000, -0.000000000000000000 ) ) ;
#93 = CARTESIAN_POINT ( 'NONE',  ( 0.000000000000000000, 0.000000000000000000, 50.00000000000000000 ) ) ;
#94 = FILL_AREA_STYLE_COLOUR ( '', #45 ) ;
#95 = SHAPE_DEFINITION_REPRESENTATION ( #7, #40 ) ;
#96 = PRODUCT_CONTEXT ( 'NONE', #86, 'mechanical' ) ;
#97 = EDGE_LOOP ( 'NONE', ( #66 ) ) ;
#98 = SURFACE_SIDE_STYLE ('',( #14 ) ) ;
#99 = DIRECTION ( 'NONE',  ( 0.000000000000000000, -0.000000000000000000, 1.000000000000000000 ) ) ;
#100 = FACE_OUTER_BOUND ( 'NONE', #26, .T. ) ;
#101 = UNCERTAINTY_MEASURE_WITH_UNIT (LENGTH_MEASURE( 1.000000000000000082E-05 ), #110, 'distance_accuracy_value', 'NONE');
#102 =( GEOMETRIC_REPRESENTATION_CONTEXT ( 3 ) GLOBAL_UNCERTAINTY_ASSIGNED_CONTEXT ( ( #89 ) ) GLOBAL_UNIT_ASSIGNED_CONTEXT ( ( #80, #126, #119 ) ) REPRESENTATION_CONTEXT ( 'NONE', 'WORKASPACE' ) );
#103 =( NAMED_UNIT ( * ) PLANE_ANGLE_UNIT ( ) SI_UNIT ( $, .RADIAN. ) );
#104 = ADVANCED_FACE ( 'NONE', ( #122, #100 ), #31, .T. ) ;
#105 = CARTESIAN_POINT ( 'NONE',  ( 0.000000000000000000, 0.000000000000000000, 0.000000000000000000 ) ) ;
#106 = APPLICATION_PROTOCOL_DEFINITION ( 'draft international standard', 'automotive_design', 1998, #4 ) ;
#107 = SURFACE_STYLE_FILL_AREA ( #46 ) ;
#108 = PLANE ( 'NONE',  #1 ) ;
#109 = SURFACE_STYLE_USAGE ( .BOTH. , #98 ) ;
#110 =( LENGTH_UNIT ( ) NAMED_UNIT ( * ) SI_UNIT ( .MILLI., .METRE. ) );
#111 =( LENGTH_UNIT ( ) NAMED_UNIT ( * ) SI_UNIT ( .MILLI., .METRE. ) );
#112 =( NAMED_UNIT ( * ) PLANE_ANGLE_UNIT ( ) SI_UNIT ( $, .RADIAN. ) );
#113 = PRESENTATION_STYLE_ASSIGNMENT (( #71 ) ) ;
#114 = STYLED_ITEM ( 'NONE', ( #113 ), #43 ) ;
#115 = DIRECTION ( 'NONE',  ( 0.000000000000000000, 0.000000000000000000, 1.000000000000000000 ) ) ;
#116 = PRODUCT_RELATED_PRODUCT_CATEGORY ( 'part', '', ( #57 ) ) ;
#117 = ORIENTED_EDGE ( 'NONE', *, *, #87, .F. ) ;
#118 = STYLED_ITEM ( 'NONE', ( #123 ), #104 ) ;
#119 =( NAMED_UNIT ( * ) SI_UNIT ( $, .STERADIAN. ) SOLID_ANGLE_UNIT ( ) );
#120 = FILL_AREA_STYLE ('',( #15 ) ) ;
#121 = STYLED_ITEM ( 'NONE', ( #6 ), #23 ) ;
#122 = FACE_OUTER_BOUND ( 'NONE', #97, .T. ) ;
#123 = PRESENTATION_STYLE_ASSIGNMENT (( #84 ) ) ;
#124 = COLOUR_RGB ( '',1.000000000000000000, 1.000000000000000000, 0.000000000000000000 ) ;
#125 = MECHANICAL_DESIGN_GEOMETRIC_PRESENTATION_REPRESENTATION (  '', ( #69 ), #42 ) ;
#126 =( NAMED_UNIT ( * ) PLANE_ANGLE_UNIT ( ) SI_UNIT ( $, .RADIAN. ) );
#127 = DIRECTION ( 'NONE',  ( 0.000000000000000000, 1.000000000000000000, 0.000000000000000000 ) ) ;
#128 = ORIENTED_EDGE ( 'NONE', *, *, #87, .T. ) ;
#129 = COLOUR_RGB ( '',1.000000000000000000, 1.000000000000000000, 0.000000000000000000 ) ;
#130 = EDGE_LOOP ( 'NONE', ( #117 ) ) ;
ENDSEC;
END-ISO-10303-21;
