ISO-10303-21;
HEADER;
FILE_DESCRIPTION (( 'STEP AP214' ),
    '1' );
FILE_NAME ('C2_stacked_overrides__ap214_split.step',
    '2026-08-06T13:09:22',
    ( '' ),
    ( '' ),
    'SwSTEP 2.0',
    'SolidWorks 2026',
    '' );
FILE_SCHEMA (( 'AUTOMOTIVE_DESIGN' ));
ENDSEC;

DATA;
#1 = PRODUCT_DEFINITION ( 'UNKNOWN', '', #81, #150 ) ;
#2 = MANIFOLD_SOLID_BREP ( 'Boss-Extrude1', #46 ) ;
#3 = SURFACE_STYLE_USAGE ( .BOTH. , #53 ) ;
#4 = COLOUR_RGB ( '',0.000000000000000000, 1.000000000000000000, 0.000000000000000000 ) ;
#5 = LINE ( 'NONE', #139, #168 ) ;
#6 = EDGE_CURVE ( 'NONE', #37, #64, #74, .T. ) ;
#7 = MECHANICAL_DESIGN_GEOMETRIC_PRESENTATION_REPRESENTATION (  '', ( #43 ), #147 ) ;
#8 = MECHANICAL_DESIGN_GEOMETRIC_PRESENTATION_REPRESENTATION (  '', ( #111 ), #136 ) ;
#9 = CARTESIAN_POINT ( 'NONE',  ( 0.000000000000000000, 0.000000000000000000, 0.000000000000000000 ) ) ;
#10 = EDGE_LOOP ( 'NONE', ( #49, #93 ) ) ;
#11 = ORIENTED_EDGE ( 'NONE', *, *, #166, .F. ) ;
#12 = PRESENTATION_LAYER_ASSIGNMENT (  '', '', ( #130 ) ) ;
#13 = MECHANICAL_DESIGN_GEOMETRIC_PRESENTATION_REPRESENTATION (  '', ( #20 ), #171 ) ;
#14 = CARTESIAN_POINT ( 'NONE',  ( 0.000000000000000000, 100.0000000000000000, -50.00000000000000000 ) ) ;
#15 = AXIS2_PLACEMENT_3D ( 'NONE', #48, #153, #68 ) ;
#16 = ADVANCED_BREP_SHAPE_REPRESENTATION ( 'C2_stacked_overrides__ap214_split', ( #2, #107 ), #163 ) ;
#17 = CARTESIAN_POINT ( 'NONE',  ( 0.000000000000000000, 100.0000000000000000, -50.00000000000000000 ) ) ;
#18 = DIRECTION ( 'NONE',  ( 0.000000000000000000, 0.000000000000000000, 1.000000000000000000 ) ) ;
#19 =( NAMED_UNIT ( * ) SI_UNIT ( $, .STERADIAN. ) SOLID_ANGLE_UNIT ( ) );
#20 = STYLED_ITEM ( 'NONE', ( #119 ), #86 ) ;
#21 =( LENGTH_UNIT ( ) NAMED_UNIT ( * ) SI_UNIT ( .MILLI., .METRE. ) );
#22 = EDGE_LOOP ( 'NONE', ( #11, #66, #185, #140 ) ) ;
#23 = EDGE_CURVE ( 'NONE', #142, #36, #184, .T. ) ;
#24 = FILL_AREA_STYLE_COLOUR ( '', #99 ) ;
#25 = FILL_AREA_STYLE ('',( #155 ) ) ;
#26 = DIRECTION ( 'NONE',  ( -0.000000000000000000, -1.000000000000000000, -0.000000000000000000 ) ) ;
#27 = COLOUR_RGB ( '',0.000000000000000000, 1.000000000000000000, 0.000000000000000000 ) ;
#28 = PRESENTATION_STYLE_ASSIGNMENT (( #41 ) ) ;
#29 = CYLINDRICAL_SURFACE ( 'NONE', #95, 50.00000000000000000 ) ;
#30 = PRESENTATION_LAYER_ASSIGNMENT (  '', '', ( #20 ) ) ;
#31 = EDGE_CURVE ( 'NONE', #36, #142, #103, .T. ) ;
#32 = DIRECTION ( 'NONE',  ( 0.000000000000000000, 1.000000000000000000, 0.000000000000000000 ) ) ;
#33 = SURFACE_SIDE_STYLE ('',( #180 ) ) ;
#34 = PRESENTATION_LAYER_ASSIGNMENT (  '', '', ( #174 ) ) ;
#35 =( NAMED_UNIT ( * ) SI_UNIT ( $, .STERADIAN. ) SOLID_ANGLE_UNIT ( ) );
#36 = VERTEX_POINT ( 'NONE', #167 ) ;
#37 = VERTEX_POINT ( 'NONE', #183 ) ;
#38 = FILL_AREA_STYLE ('',( #54 ) ) ;
#39 = DIRECTION ( 'NONE',  ( 0.000000000000000000, 1.000000000000000000, 0.000000000000000000 ) ) ;
#40 = DIRECTION ( 'NONE',  ( 0.000000000000000000, -0.000000000000000000, 1.000000000000000000 ) ) ;
#41 = SURFACE_STYLE_USAGE ( .BOTH. , #170 ) ;
#42 =( LENGTH_UNIT ( ) NAMED_UNIT ( * ) SI_UNIT ( .MILLI., .METRE. ) );
#43 = STYLED_ITEM ( 'NONE', ( #28 ), #63 ) ;
#44 = PRODUCT_CONTEXT ( 'NONE', #67, 'mechanical' ) ;
#45 = SURFACE_STYLE_USAGE ( .BOTH. , #105 ) ;
#46 = CLOSED_SHELL ( 'NONE', ( #63, #98, #86, #47 ) ) ;
#47 = ADVANCED_FACE ( 'NONE', ( #141 ), #65, .F. ) ;
#48 = CARTESIAN_POINT ( 'NONE',  ( 0.000000000000000000, 100.0000000000000000, 0.000000000000000000 ) ) ;
#49 = ORIENTED_EDGE ( 'NONE', *, *, #125, .T. ) ;
#50 = ORIENTED_EDGE ( 'NONE', *, *, #51, .F. ) ;
#51 = EDGE_CURVE ( 'NONE', #64, #36, #55, .T. ) ;
#52 = PRESENTATION_STYLE_ASSIGNMENT (( #165 ) ) ;
#53 = SURFACE_SIDE_STYLE ('',( #101 ) ) ;
#54 = FILL_AREA_STYLE_COLOUR ( '', #124 ) ;
#55 = LINE ( 'NONE', #17, #78 ) ;
#56 = CARTESIAN_POINT ( 'NONE',  ( 0.000000000000000000, 100.0000000000000000, 0.000000000000000000 ) ) ;
#57 = FILL_AREA_STYLE ('',( #115 ) ) ;
#58 = DIRECTION ( 'NONE',  ( -0.000000000000000000, -1.000000000000000000, -0.000000000000000000 ) ) ;
#59 = CARTESIAN_POINT ( 'NONE',  ( 0.000000000000000000, 0.000000000000000000, 0.000000000000000000 ) ) ;
#60 = DIRECTION ( 'NONE',  ( 1.000000000000000000, 0.000000000000000000, 0.000000000000000000 ) ) ;
#61 = AXIS2_PLACEMENT_3D ( 'NONE', #162, #149, #73 ) ;
#62 = DIRECTION ( 'NONE',  ( -0.000000000000000000, -1.000000000000000000, -0.000000000000000000 ) ) ;
#63 = ADVANCED_FACE ( 'NONE', ( #96 ), #29, .T. ) ;
#64 = VERTEX_POINT ( 'NONE', #14 ) ;
#65 = PLANE ( 'NONE',  #143 ) ;
#66 = ORIENTED_EDGE ( 'NONE', *, *, #125, .F. ) ;
#67 = APPLICATION_CONTEXT ( 'automotive_design' ) ;
#68 = DIRECTION ( 'NONE',  ( 0.000000000000000000, 0.000000000000000000, 1.000000000000000000 ) ) ;
#69 = UNCERTAINTY_MEASURE_WITH_UNIT (LENGTH_MEASURE( 1.000000000000000082E-05 ), #79, 'distance_accuracy_value', 'NONE');
#70 = PRESENTATION_LAYER_ASSIGNMENT (  '', '', ( #43 ) ) ;
#71 = PRESENTATION_STYLE_ASSIGNMENT (( #3 ) ) ;
#72 =( LENGTH_UNIT ( ) NAMED_UNIT ( * ) SI_UNIT ( .MILLI., .METRE. ) );
#73 = DIRECTION ( 'NONE',  ( 0.000000000000000000, 0.000000000000000000, 1.000000000000000000 ) ) ;
#74 = CIRCLE ( 'NONE', #15, 50.00000000000000000 ) ;
#75 = SURFACE_STYLE_FILL_AREA ( #148 ) ;
#76 =( NAMED_UNIT ( * ) SI_UNIT ( $, .STERADIAN. ) SOLID_ANGLE_UNIT ( ) );
#77 = CIRCLE ( 'NONE', #61, 50.00000000000000000 ) ;
#78 = VECTOR ( 'NONE', #134, 1000.000000000000000 ) ;
#79 =( LENGTH_UNIT ( ) NAMED_UNIT ( * ) SI_UNIT ( .MILLI., .METRE. ) );
#80 =( NAMED_UNIT ( * ) PLANE_ANGLE_UNIT ( ) SI_UNIT ( $, .RADIAN. ) );
#81 = PRODUCT_DEFINITION_FORMATION_WITH_SPECIFIED_SOURCE ( 'ANY', '', #182, .NOT_KNOWN. ) ;
#82 =( NAMED_UNIT ( * ) PLANE_ANGLE_UNIT ( ) SI_UNIT ( $, .RADIAN. ) );
#83 = AXIS2_PLACEMENT_3D ( 'NONE', #127, #164, #109 ) ;
#84 =( NAMED_UNIT ( * ) PLANE_ANGLE_UNIT ( ) SI_UNIT ( $, .RADIAN. ) );
#85 = CARTESIAN_POINT ( 'NONE',  ( 0.000000000000000000, 100.0000000000000000, 0.000000000000000000 ) ) ;
#86 = ADVANCED_FACE ( 'NONE', ( #133 ), #135, .T. ) ;
#87 =( GEOMETRIC_REPRESENTATION_CONTEXT ( 3 ) GLOBAL_UNCERTAINTY_ASSIGNED_CONTEXT ( ( #69 ) ) GLOBAL_UNIT_ASSIGNED_CONTEXT ( ( #79, #90, #35 ) ) REPRESENTATION_CONTEXT ( 'NONE', 'WORKASPACE' ) );
#88 = FACE_OUTER_BOUND ( 'NONE', #22, .T. ) ;
#89 = DIRECTION ( 'NONE',  ( 0.000000000000000000, 0.000000000000000000, 1.000000000000000000 ) ) ;
#90 =( NAMED_UNIT ( * ) PLANE_ANGLE_UNIT ( ) SI_UNIT ( $, .RADIAN. ) );
#91 = UNCERTAINTY_MEASURE_WITH_UNIT (LENGTH_MEASURE( 1.000000000000000082E-05 ), #116, 'distance_accuracy_value', 'NONE');
#92 = ORIENTED_EDGE ( 'NONE', *, *, #23, .F. ) ;
#93 = ORIENTED_EDGE ( 'NONE', *, *, #6, .T. ) ;
#94 = ORIENTED_EDGE ( 'NONE', *, *, #6, .F. ) ;
#95 = AXIS2_PLACEMENT_3D ( 'NONE', #56, #26, #146 ) ;
#96 = FACE_OUTER_BOUND ( 'NONE', #169, .T. ) ;
#97 = SURFACE_STYLE_FILL_AREA ( #57 ) ;
#98 = ADVANCED_FACE ( 'NONE', ( #88 ), #176, .T. ) ;
#99 = COLOUR_RGB ( '',0.9098039215686274384, 0.4431372549019607643, 0.03137254901960784270 ) ;
#100 = AXIS2_PLACEMENT_3D ( 'NONE', #9, #108, #89 ) ;
#101 = SURFACE_STYLE_FILL_AREA ( #38 ) ;
#102 =( NAMED_UNIT ( * ) SI_UNIT ( $, .STERADIAN. ) SOLID_ANGLE_UNIT ( ) );
#103 = CIRCLE ( 'NONE', #83, 50.00000000000000000 ) ;
#104 = APPLICATION_PROTOCOL_DEFINITION ( 'draft international standard', 'automotive_design', 1998, #117 ) ;
#105 = SURFACE_SIDE_STYLE ('',( #75 ) ) ;
#106 = DIRECTION ( 'NONE',  ( 0.000000000000000000, 0.000000000000000000, -1.000000000000000000 ) ) ;
#107 = AXIS2_PLACEMENT_3D ( 'NONE', #59, #18, #60 ) ;
#108 = DIRECTION ( 'NONE',  ( 0.000000000000000000, 1.000000000000000000, 0.000000000000000000 ) ) ;
#109 = DIRECTION ( 'NONE',  ( 0.000000000000000000, 0.000000000000000000, 1.000000000000000000 ) ) ;
#110 = UNCERTAINTY_MEASURE_WITH_UNIT (LENGTH_MEASURE( 1.000000000000000082E-05 ), #175, 'distance_accuracy_value', 'NONE');
#111 = STYLED_ITEM ( 'NONE', ( #71 ), #47 ) ;
#112 = ORIENTED_EDGE ( 'NONE', *, *, #166, .T. ) ;
#113 = ORIENTED_EDGE ( 'NONE', *, *, #31, .F. ) ;
#114 = CARTESIAN_POINT ( 'NONE',  ( 0.000000000000000000, 0.000000000000000000, 0.000000000000000000 ) ) ;
#115 = FILL_AREA_STYLE_COLOUR ( '', #122 ) ;
#116 =( LENGTH_UNIT ( ) NAMED_UNIT ( * ) SI_UNIT ( .MILLI., .METRE. ) );
#117 = APPLICATION_CONTEXT ( 'automotive_design' ) ;
#118 =( GEOMETRIC_REPRESENTATION_CONTEXT ( 3 ) GLOBAL_UNCERTAINTY_ASSIGNED_CONTEXT ( ( #152 ) ) GLOBAL_UNIT_ASSIGNED_CONTEXT ( ( #21, #84, #76 ) ) REPRESENTATION_CONTEXT ( 'NONE', 'WORKASPACE' ) );
#119 = PRESENTATION_STYLE_ASSIGNMENT (( #144 ) ) ;
#120 = PRESENTATION_STYLE_ASSIGNMENT (( #45 ) ) ;
#121 = APPLICATION_PROTOCOL_DEFINITION ( 'draft international standard', 'automotive_design', 1998, #67 ) ;
#122 = COLOUR_RGB ( '',1.000000000000000000, 1.000000000000000000, 0.000000000000000000 ) ;
#123 = DIRECTION ( 'NONE',  ( 0.000000000000000000, -0.000000000000000000, 1.000000000000000000 ) ) ;
#124 = COLOUR_RGB ( '',1.000000000000000000, 1.000000000000000000, 0.000000000000000000 ) ;
#125 = EDGE_CURVE ( 'NONE', #64, #37, #77, .T. ) ;
#126 = FILL_AREA_STYLE ('',( #24 ) ) ;
#127 = CARTESIAN_POINT ( 'NONE',  ( 0.000000000000000000, 0.000000000000000000, 0.000000000000000000 ) ) ;
#128 = PRODUCT_DEFINITION_SHAPE ( 'NONE', 'NONE',  #1 ) ;
#129 = UNCERTAINTY_MEASURE_WITH_UNIT (LENGTH_MEASURE( 1.000000000000000082E-05 ), #42, 'distance_accuracy_value', 'NONE');
#130 = STYLED_ITEM ( 'NONE', ( #52 ), #2 ) ;
#131 = AXIS2_PLACEMENT_3D ( 'NONE', #85, #62, #106 ) ;
#132 = EDGE_LOOP ( 'NONE', ( #113, #92 ) ) ;
#133 = FACE_OUTER_BOUND ( 'NONE', #10, .T. ) ;
#134 = DIRECTION ( 'NONE',  ( -0.000000000000000000, -1.000000000000000000, -0.000000000000000000 ) ) ;
#135 = PLANE ( 'NONE',  #179 ) ;
#136 =( GEOMETRIC_REPRESENTATION_CONTEXT ( 3 ) GLOBAL_UNCERTAINTY_ASSIGNED_CONTEXT ( ( #91 ) ) GLOBAL_UNIT_ASSIGNED_CONTEXT ( ( #116, #158, #173 ) ) REPRESENTATION_CONTEXT ( 'NONE', 'WORKASPACE' ) );
#137 = CARTESIAN_POINT ( 'NONE',  ( 6.123233995736766085E-15, 0.000000000000000000, 50.00000000000000000 ) ) ;
#138 =( NAMED_UNIT ( * ) PLANE_ANGLE_UNIT ( ) SI_UNIT ( $, .RADIAN. ) );
#139 = CARTESIAN_POINT ( 'NONE',  ( 6.123233995736766085E-15, 100.0000000000000000, 50.00000000000000000 ) ) ;
#140 = ORIENTED_EDGE ( 'NONE', *, *, #31, .T. ) ;
#141 = FACE_OUTER_BOUND ( 'NONE', #132, .T. ) ;
#142 = VERTEX_POINT ( 'NONE', #137 ) ;
#143 = AXIS2_PLACEMENT_3D ( 'NONE', #114, #39, #40 ) ;
#144 = SURFACE_STYLE_USAGE ( .BOTH. , #172 ) ;
#145 =( NAMED_UNIT ( * ) SI_UNIT ( $, .STERADIAN. ) SOLID_ANGLE_UNIT ( ) );
#146 = DIRECTION ( 'NONE',  ( 0.000000000000000000, 0.000000000000000000, -1.000000000000000000 ) ) ;
#147 =( GEOMETRIC_REPRESENTATION_CONTEXT ( 3 ) GLOBAL_UNCERTAINTY_ASSIGNED_CONTEXT ( ( #181 ) ) GLOBAL_UNIT_ASSIGNED_CONTEXT ( ( #72, #80, #145 ) ) REPRESENTATION_CONTEXT ( 'NONE', 'WORKASPACE' ) );
#148 = FILL_AREA_STYLE ('',( #178 ) ) ;
#149 = DIRECTION ( 'NONE',  ( 0.000000000000000000, 1.000000000000000000, 0.000000000000000000 ) ) ;
#150 = PRODUCT_DEFINITION_CONTEXT ( 'detailed design', #117, 'design' ) ;
#151 = PRESENTATION_LAYER_ASSIGNMENT (  '', '', ( #111 ) ) ;
#152 = UNCERTAINTY_MEASURE_WITH_UNIT (LENGTH_MEASURE( 1.000000000000000082E-05 ), #21, 'distance_accuracy_value', 'NONE');
#153 = DIRECTION ( 'NONE',  ( 0.000000000000000000, 1.000000000000000000, 0.000000000000000000 ) ) ;
#154 = ORIENTED_EDGE ( 'NONE', *, *, #23, .T. ) ;
#155 = FILL_AREA_STYLE_COLOUR ( '', #4 ) ;
#156 = MECHANICAL_DESIGN_GEOMETRIC_PRESENTATION_REPRESENTATION (  '', ( #174 ), #118 ) ;
#157 = SURFACE_STYLE_FILL_AREA ( #25 ) ;
#158 =( NAMED_UNIT ( * ) PLANE_ANGLE_UNIT ( ) SI_UNIT ( $, .RADIAN. ) );
#159 = SHAPE_DEFINITION_REPRESENTATION ( #128, #16 ) ;
#160 = CARTESIAN_POINT ( 'NONE',  ( 0.000000000000000000, 100.0000000000000000, 0.000000000000000000 ) ) ;
#161 = MECHANICAL_DESIGN_GEOMETRIC_PRESENTATION_REPRESENTATION (  '', ( #130 ), #87 ) ;
#162 = CARTESIAN_POINT ( 'NONE',  ( 0.000000000000000000, 100.0000000000000000, 0.000000000000000000 ) ) ;
#163 =( GEOMETRIC_REPRESENTATION_CONTEXT ( 3 ) GLOBAL_UNCERTAINTY_ASSIGNED_CONTEXT ( ( #129 ) ) GLOBAL_UNIT_ASSIGNED_CONTEXT ( ( #42, #138, #19 ) ) REPRESENTATION_CONTEXT ( 'NONE', 'WORKASPACE' ) );
#164 = DIRECTION ( 'NONE',  ( 0.000000000000000000, 1.000000000000000000, 0.000000000000000000 ) ) ;
#165 = SURFACE_STYLE_USAGE ( .BOTH. , #33 ) ;
#166 = EDGE_CURVE ( 'NONE', #37, #142, #5, .T. ) ;
#167 = CARTESIAN_POINT ( 'NONE',  ( 0.000000000000000000, 0.000000000000000000, -50.00000000000000000 ) ) ;
#168 = VECTOR ( 'NONE', #58, 1000.000000000000000 ) ;
#169 = EDGE_LOOP ( 'NONE', ( #94, #112, #154, #50 ) ) ;
#170 = SURFACE_SIDE_STYLE ('',( #157 ) ) ;
#171 =( GEOMETRIC_REPRESENTATION_CONTEXT ( 3 ) GLOBAL_UNCERTAINTY_ASSIGNED_CONTEXT ( ( #110 ) ) GLOBAL_UNIT_ASSIGNED_CONTEXT ( ( #175, #82, #102 ) ) REPRESENTATION_CONTEXT ( 'NONE', 'WORKASPACE' ) );
#172 = SURFACE_SIDE_STYLE ('',( #97 ) ) ;
#173 =( NAMED_UNIT ( * ) SI_UNIT ( $, .STERADIAN. ) SOLID_ANGLE_UNIT ( ) );
#174 = STYLED_ITEM ( 'NONE', ( #120 ), #98 ) ;
#175 =( LENGTH_UNIT ( ) NAMED_UNIT ( * ) SI_UNIT ( .MILLI., .METRE. ) );
#176 = CYLINDRICAL_SURFACE ( 'NONE', #131, 50.00000000000000000 ) ;
#177 = PRODUCT_RELATED_PRODUCT_CATEGORY ( 'part', '', ( #182 ) ) ;
#178 = FILL_AREA_STYLE_COLOUR ( '', #27 ) ;
#179 = AXIS2_PLACEMENT_3D ( 'NONE', #160, #32, #123 ) ;
#180 = SURFACE_STYLE_FILL_AREA ( #126 ) ;
#181 = UNCERTAINTY_MEASURE_WITH_UNIT (LENGTH_MEASURE( 1.000000000000000082E-05 ), #72, 'distance_accuracy_value', 'NONE');
#182 = PRODUCT ( 'C2_stacked_overrides__ap214_split', 'C2_stacked_overrides__ap214_split', '', ( #44 ) ) ;
#183 = CARTESIAN_POINT ( 'NONE',  ( 6.123233995736766085E-15, 100.0000000000000000, 50.00000000000000000 ) ) ;
#184 = CIRCLE ( 'NONE', #100, 50.00000000000000000 ) ;
#185 = ORIENTED_EDGE ( 'NONE', *, *, #51, .T. ) ;
ENDSEC;
END-ISO-10303-21;
