ISO-10303-21;
HEADER;
FILE_DESCRIPTION (( 'STEP AP214' ),
    '1' );
FILE_NAME ('C2_stacked_overrides__ap214_nosplit.step',
    '2026-08-06T13:09:22',
    ( '' ),
    ( '' ),
    'SwSTEP 2.0',
    'SolidWorks 2026',
    '' );
FILE_SCHEMA (( 'AUTOMOTIVE_DESIGN' ));
ENDSEC;

DATA;
#1 = FILL_AREA_STYLE_COLOUR ( '', #28 ) ;
#2 = AXIS2_PLACEMENT_3D ( 'NONE', #5, #76, #106 ) ;
#3 =( NAMED_UNIT ( * ) PLANE_ANGLE_UNIT ( ) SI_UNIT ( $, .RADIAN. ) );
#4 =( NAMED_UNIT ( * ) SI_UNIT ( $, .STERADIAN. ) SOLID_ANGLE_UNIT ( ) );
#5 = CARTESIAN_POINT ( 'NONE',  ( 0.000000000000000000, 0.000000000000000000, 0.000000000000000000 ) ) ;
#6 = PRODUCT_DEFINITION_CONTEXT ( 'detailed design', #71, 'design' ) ;
#7 = FILL_AREA_STYLE ('',( #87 ) ) ;
#8 = PRESENTATION_LAYER_ASSIGNMENT (  '', '', ( #89 ) ) ;
#9 = UNCERTAINTY_MEASURE_WITH_UNIT (LENGTH_MEASURE( 1.000000000000000082E-05 ), #19, 'distance_accuracy_value', 'NONE');
#10 = VERTEX_POINT ( 'NONE', #102 ) ;
#11 = CARTESIAN_POINT ( 'NONE',  ( 0.000000000000000000, 100.0000000000000000, 50.00000000000000000 ) ) ;
#12 = CARTESIAN_POINT ( 'NONE',  ( 0.000000000000000000, 0.000000000000000000, 0.000000000000000000 ) ) ;
#13 = ADVANCED_FACE ( 'NONE', ( #130, #31 ), #17, .T. ) ;
#14 =( GEOMETRIC_REPRESENTATION_CONTEXT ( 3 ) GLOBAL_UNCERTAINTY_ASSIGNED_CONTEXT ( ( #74 ) ) GLOBAL_UNIT_ASSIGNED_CONTEXT ( ( #93, #3, #4 ) ) REPRESENTATION_CONTEXT ( 'NONE', 'WORKASPACE' ) );
#15 = SURFACE_STYLE_USAGE ( .BOTH. , #127 ) ;
#16 = AXIS2_PLACEMENT_3D ( 'NONE', #58, #40, #39 ) ;
#17 = CYLINDRICAL_SURFACE ( 'NONE', #26, 50.00000000000000000 ) ;
#18 = UNCERTAINTY_MEASURE_WITH_UNIT (LENGTH_MEASURE( 1.000000000000000082E-05 ), #22, 'distance_accuracy_value', 'NONE');
#19 =( LENGTH_UNIT ( ) NAMED_UNIT ( * ) SI_UNIT ( .MILLI., .METRE. ) );
#20 = CARTESIAN_POINT ( 'NONE',  ( 0.000000000000000000, 0.000000000000000000, 0.000000000000000000 ) ) ;
#21 = UNCERTAINTY_MEASURE_WITH_UNIT (LENGTH_MEASURE( 1.000000000000000082E-05 ), #125, 'distance_accuracy_value', 'NONE');
#22 =( LENGTH_UNIT ( ) NAMED_UNIT ( * ) SI_UNIT ( .MILLI., .METRE. ) );
#23 = PRODUCT_DEFINITION_FORMATION_WITH_SPECIFIED_SOURCE ( 'ANY', '', #77, .NOT_KNOWN. ) ;
#24 = SURFACE_STYLE_USAGE ( .BOTH. , #113 ) ;
#25 = ADVANCED_BREP_SHAPE_REPRESENTATION ( 'C2_stacked_overrides__ap214_nosplit', ( #84, #73 ), #34 ) ;
#26 = AXIS2_PLACEMENT_3D ( 'NONE', #48, #129, #99 ) ;
#27 = FACE_OUTER_BOUND ( 'NONE', #54, .T. ) ;
#28 = COLOUR_RGB ( '',0.9098039215686274384, 0.4431372549019607643, 0.03137254901960784270 ) ;
#29 = EDGE_LOOP ( 'NONE', ( #78 ) ) ;
#30 = AXIS2_PLACEMENT_3D ( 'NONE', #128, #124, #108 ) ;
#31 = FACE_OUTER_BOUND ( 'NONE', #29, .T. ) ;
#32 =( NAMED_UNIT ( * ) SI_UNIT ( $, .STERADIAN. ) SOLID_ANGLE_UNIT ( ) );
#33 = ADVANCED_FACE ( 'NONE', ( #46 ), #38, .F. ) ;
#34 =( GEOMETRIC_REPRESENTATION_CONTEXT ( 3 ) GLOBAL_UNCERTAINTY_ASSIGNED_CONTEXT ( ( #119 ) ) GLOBAL_UNIT_ASSIGNED_CONTEXT ( ( #67, #109, #41 ) ) REPRESENTATION_CONTEXT ( 'NONE', 'WORKASPACE' ) );
#35 = PRODUCT_CONTEXT ( 'NONE', #44, 'mechanical' ) ;
#36 = CLOSED_SHELL ( 'NONE', ( #13, #120, #33 ) ) ;
#37 = EDGE_CURVE ( 'NONE', #10, #10, #83, .T. ) ;
#38 = PLANE ( 'NONE',  #2 ) ;
#39 = DIRECTION ( 'NONE',  ( 0.000000000000000000, -0.000000000000000000, 1.000000000000000000 ) ) ;
#40 = DIRECTION ( 'NONE',  ( 0.000000000000000000, 1.000000000000000000, 0.000000000000000000 ) ) ;
#41 =( NAMED_UNIT ( * ) SI_UNIT ( $, .STERADIAN. ) SOLID_ANGLE_UNIT ( ) );
#42 =( GEOMETRIC_REPRESENTATION_CONTEXT ( 3 ) GLOBAL_UNCERTAINTY_ASSIGNED_CONTEXT ( ( #18 ) ) GLOBAL_UNIT_ASSIGNED_CONTEXT ( ( #22, #100, #32 ) ) REPRESENTATION_CONTEXT ( 'NONE', 'WORKASPACE' ) );
#43 = PRESENTATION_LAYER_ASSIGNMENT (  '', '', ( #49 ) ) ;
#44 = APPLICATION_CONTEXT ( 'automotive_design' ) ;
#45 = DIRECTION ( 'NONE',  ( 0.000000000000000000, 0.000000000000000000, 1.000000000000000000 ) ) ;
#46 = FACE_OUTER_BOUND ( 'NONE', #86, .T. ) ;
#47 = FILL_AREA_STYLE_COLOUR ( '', #60 ) ;
#48 = CARTESIAN_POINT ( 'NONE',  ( 0.000000000000000000, 100.0000000000000000, 0.000000000000000000 ) ) ;
#49 = STYLED_ITEM ( 'NONE', ( #59 ), #120 ) ;
#50 = SURFACE_STYLE_FILL_AREA ( #122 ) ;
#51 = APPLICATION_PROTOCOL_DEFINITION ( 'draft international standard', 'automotive_design', 1998, #71 ) ;
#52 = CIRCLE ( 'NONE', #30, 50.00000000000000000 ) ;
#53 = STYLED_ITEM ( 'NONE', ( #117 ), #33 ) ;
#54 = EDGE_LOOP ( 'NONE', ( #90 ) ) ;
#55 = PRODUCT_DEFINITION_SHAPE ( 'NONE', 'NONE',  #123 ) ;
#56 = SURFACE_STYLE_FILL_AREA ( #7 ) ;
#57 = SURFACE_SIDE_STYLE ('',( #56 ) ) ;
#58 = CARTESIAN_POINT ( 'NONE',  ( 0.000000000000000000, 100.0000000000000000, 0.000000000000000000 ) ) ;
#59 = PRESENTATION_STYLE_ASSIGNMENT (( #24 ) ) ;
#60 = COLOUR_RGB ( '',1.000000000000000000, 1.000000000000000000, 0.000000000000000000 ) ;
#61 = COLOUR_RGB ( '',1.000000000000000000, 1.000000000000000000, 0.000000000000000000 ) ;
#62 = ORIENTED_EDGE ( 'NONE', *, *, #116, .F. ) ;
#63 = SURFACE_STYLE_USAGE ( .BOTH. , #57 ) ;
#64 = SURFACE_STYLE_FILL_AREA ( #65 ) ;
#65 = FILL_AREA_STYLE ('',( #47 ) ) ;
#66 =( GEOMETRIC_REPRESENTATION_CONTEXT ( 3 ) GLOBAL_UNCERTAINTY_ASSIGNED_CONTEXT ( ( #21 ) ) GLOBAL_UNIT_ASSIGNED_CONTEXT ( ( #125, #112, #110 ) ) REPRESENTATION_CONTEXT ( 'NONE', 'WORKASPACE' ) );
#67 =( LENGTH_UNIT ( ) NAMED_UNIT ( * ) SI_UNIT ( .MILLI., .METRE. ) );
#68 = COLOUR_RGB ( '',0.000000000000000000, 1.000000000000000000, 0.000000000000000000 ) ;
#69 = PRESENTATION_LAYER_ASSIGNMENT (  '', '', ( #53 ) ) ;
#70 = MECHANICAL_DESIGN_GEOMETRIC_PRESENTATION_REPRESENTATION (  '', ( #118 ), #14 ) ;
#71 = APPLICATION_CONTEXT ( 'automotive_design' ) ;
#72 = SHAPE_DEFINITION_REPRESENTATION ( #55, #25 ) ;
#73 = AXIS2_PLACEMENT_3D ( 'NONE', #12, #114, #126 ) ;
#74 = UNCERTAINTY_MEASURE_WITH_UNIT (LENGTH_MEASURE( 1.000000000000000082E-05 ), #93, 'distance_accuracy_value', 'NONE');
#75 = ORIENTED_EDGE ( 'NONE', *, *, #37, .F. ) ;
#76 = DIRECTION ( 'NONE',  ( 0.000000000000000000, 1.000000000000000000, 0.000000000000000000 ) ) ;
#77 = PRODUCT ( 'C2_stacked_overrides__ap214_nosplit', 'C2_stacked_overrides__ap214_nosplit', '', ( #35 ) ) ;
#78 = ORIENTED_EDGE ( 'NONE', *, *, #37, .T. ) ;
#79 = AXIS2_PLACEMENT_3D ( 'NONE', #20, #101, #45 ) ;
#80 = FILL_AREA_STYLE ('',( #82 ) ) ;
#81 = PRESENTATION_STYLE_ASSIGNMENT (( #91 ) ) ;
#82 = FILL_AREA_STYLE_COLOUR ( '', #61 ) ;
#83 = CIRCLE ( 'NONE', #79, 50.00000000000000000 ) ;
#84 = MANIFOLD_SOLID_BREP ( 'Boss-Extrude1', #36 ) ;
#85 = PRODUCT_RELATED_PRODUCT_CATEGORY ( 'part', '', ( #77 ) ) ;
#86 = EDGE_LOOP ( 'NONE', ( #75 ) ) ;
#87 = FILL_AREA_STYLE_COLOUR ( '', #68 ) ;
#88 =( NAMED_UNIT ( * ) PLANE_ANGLE_UNIT ( ) SI_UNIT ( $, .RADIAN. ) );
#89 = STYLED_ITEM ( 'NONE', ( #105 ), #13 ) ;
#90 = ORIENTED_EDGE ( 'NONE', *, *, #116, .T. ) ;
#91 = SURFACE_STYLE_USAGE ( .BOTH. , #95 ) ;
#92 = PLANE ( 'NONE',  #16 ) ;
#93 =( LENGTH_UNIT ( ) NAMED_UNIT ( * ) SI_UNIT ( .MILLI., .METRE. ) );
#94 = APPLICATION_PROTOCOL_DEFINITION ( 'draft international standard', 'automotive_design', 1998, #44 ) ;
#95 = SURFACE_SIDE_STYLE ('',( #50 ) ) ;
#96 =( GEOMETRIC_REPRESENTATION_CONTEXT ( 3 ) GLOBAL_UNCERTAINTY_ASSIGNED_CONTEXT ( ( #9 ) ) GLOBAL_UNIT_ASSIGNED_CONTEXT ( ( #19, #88, #98 ) ) REPRESENTATION_CONTEXT ( 'NONE', 'WORKASPACE' ) );
#97 = PRESENTATION_LAYER_ASSIGNMENT (  '', '', ( #118 ) ) ;
#98 =( NAMED_UNIT ( * ) SI_UNIT ( $, .STERADIAN. ) SOLID_ANGLE_UNIT ( ) );
#99 = DIRECTION ( 'NONE',  ( 0.000000000000000000, 0.000000000000000000, -1.000000000000000000 ) ) ;
#100 =( NAMED_UNIT ( * ) PLANE_ANGLE_UNIT ( ) SI_UNIT ( $, .RADIAN. ) );
#101 = DIRECTION ( 'NONE',  ( 0.000000000000000000, 1.000000000000000000, 0.000000000000000000 ) ) ;
#102 = CARTESIAN_POINT ( 'NONE',  ( 0.000000000000000000, 0.000000000000000000, 50.00000000000000000 ) ) ;
#103 = SURFACE_STYLE_FILL_AREA ( #80 ) ;
#104 = MECHANICAL_DESIGN_GEOMETRIC_PRESENTATION_REPRESENTATION (  '', ( #49 ), #66 ) ;
#105 = PRESENTATION_STYLE_ASSIGNMENT (( #63 ) ) ;
#106 = DIRECTION ( 'NONE',  ( 0.000000000000000000, -0.000000000000000000, 1.000000000000000000 ) ) ;
#107 = EDGE_LOOP ( 'NONE', ( #62 ) ) ;
#108 = DIRECTION ( 'NONE',  ( 0.000000000000000000, 0.000000000000000000, 1.000000000000000000 ) ) ;
#109 =( NAMED_UNIT ( * ) PLANE_ANGLE_UNIT ( ) SI_UNIT ( $, .RADIAN. ) );
#110 =( NAMED_UNIT ( * ) SI_UNIT ( $, .STERADIAN. ) SOLID_ANGLE_UNIT ( ) );
#111 = MECHANICAL_DESIGN_GEOMETRIC_PRESENTATION_REPRESENTATION (  '', ( #53 ), #96 ) ;
#112 =( NAMED_UNIT ( * ) PLANE_ANGLE_UNIT ( ) SI_UNIT ( $, .RADIAN. ) );
#113 = SURFACE_SIDE_STYLE ('',( #103 ) ) ;
#114 = DIRECTION ( 'NONE',  ( 0.000000000000000000, 0.000000000000000000, 1.000000000000000000 ) ) ;
#115 = MECHANICAL_DESIGN_GEOMETRIC_PRESENTATION_REPRESENTATION (  '', ( #89 ), #42 ) ;
#116 = EDGE_CURVE ( 'NONE', #121, #121, #52, .T. ) ;
#117 = PRESENTATION_STYLE_ASSIGNMENT (( #15 ) ) ;
#118 = STYLED_ITEM ( 'NONE', ( #81 ), #84 ) ;
#119 = UNCERTAINTY_MEASURE_WITH_UNIT (LENGTH_MEASURE( 1.000000000000000082E-05 ), #67, 'distance_accuracy_value', 'NONE');
#120 = ADVANCED_FACE ( 'NONE', ( #27 ), #92, .T. ) ;
#121 = VERTEX_POINT ( 'NONE', #11 ) ;
#122 = FILL_AREA_STYLE ('',( #1 ) ) ;
#123 = PRODUCT_DEFINITION ( 'UNKNOWN', '', #23, #6 ) ;
#124 = DIRECTION ( 'NONE',  ( 0.000000000000000000, 1.000000000000000000, 0.000000000000000000 ) ) ;
#125 =( LENGTH_UNIT ( ) NAMED_UNIT ( * ) SI_UNIT ( .MILLI., .METRE. ) );
#126 = DIRECTION ( 'NONE',  ( 1.000000000000000000, 0.000000000000000000, 0.000000000000000000 ) ) ;
#127 = SURFACE_SIDE_STYLE ('',( #64 ) ) ;
#128 = CARTESIAN_POINT ( 'NONE',  ( 0.000000000000000000, 100.0000000000000000, 0.000000000000000000 ) ) ;
#129 = DIRECTION ( 'NONE',  ( -0.000000000000000000, -1.000000000000000000, -0.000000000000000000 ) ) ;
#130 = FACE_OUTER_BOUND ( 'NONE', #107, .T. ) ;
ENDSEC;
END-ISO-10303-21;
