ISO-10303-21;
HEADER;
FILE_DESCRIPTION (( 'STEP AP214' ),
    '1' );
FILE_NAME ('C2_stacked_overrides__ap214_appear_fe.step',
    '2026-08-06T13:09:21',
    ( '' ),
    ( '' ),
    'SwSTEP 2.0',
    'SolidWorks 2026',
    '' );
FILE_SCHEMA (( 'AUTOMOTIVE_DESIGN' ));
ENDSEC;

DATA;
#1 = EDGE_LOOP ( 'NONE', ( #14 ) ) ;
#2 = DIRECTION ( 'NONE',  ( 0.000000000000000000, 1.000000000000000000, 0.000000000000000000 ) ) ;
#3 = FILL_AREA_STYLE ('',( #90 ) ) ;
#4 = STYLED_ITEM ( 'NONE', ( #59 ), #15 ) ;
#5 = EDGE_LOOP ( 'NONE', ( #8 ) ) ;
#6 =( GEOMETRIC_REPRESENTATION_CONTEXT ( 3 ) GLOBAL_UNCERTAINTY_ASSIGNED_CONTEXT ( ( #42 ) ) GLOBAL_UNIT_ASSIGNED_CONTEXT ( ( #10, #30, #29 ) ) REPRESENTATION_CONTEXT ( 'NONE', 'WORKASPACE' ) );
#7 = EDGE_CURVE ( 'NONE', #46, #46, #129, .T. ) ;
#8 = ORIENTED_EDGE ( 'NONE', *, *, #7, .F. ) ;
#9 =( NAMED_UNIT ( * ) SI_UNIT ( $, .STERADIAN. ) SOLID_ANGLE_UNIT ( ) );
#10 =( LENGTH_UNIT ( ) NAMED_UNIT ( * ) SI_UNIT ( .MILLI., .METRE. ) );
#11 = PRESENTATION_STYLE_ASSIGNMENT (( #102 ) ) ;
#12 = DIRECTION ( 'NONE',  ( 1.000000000000000000, 0.000000000000000000, 0.000000000000000000 ) ) ;
#13 = SURFACE_STYLE_FILL_AREA ( #98 ) ;
#14 = ORIENTED_EDGE ( 'NONE', *, *, #125, .F. ) ;
#15 = ADVANCED_FACE ( 'NONE', ( #130 ), #38, .F. ) ;
#16 = DIRECTION ( 'NONE',  ( 0.000000000000000000, 0.000000000000000000, -1.000000000000000000 ) ) ;
#17 =( NAMED_UNIT ( * ) SI_UNIT ( $, .STERADIAN. ) SOLID_ANGLE_UNIT ( ) );
#18 = APPLICATION_CONTEXT ( 'automotive_design' ) ;
#19 = PRODUCT_DEFINITION ( 'UNKNOWN', '', #126, #28 ) ;
#20 = COLOUR_RGB ( '',1.000000000000000000, 1.000000000000000000, 0.000000000000000000 ) ;
#21 = EDGE_LOOP ( 'NONE', ( #22 ) ) ;
#22 = ORIENTED_EDGE ( 'NONE', *, *, #7, .T. ) ;
#23 = MECHANICAL_DESIGN_GEOMETRIC_PRESENTATION_REPRESENTATION (  '', ( #83 ), #6 ) ;
#24 = DIRECTION ( 'NONE',  ( 0.000000000000000000, -0.000000000000000000, 1.000000000000000000 ) ) ;
#25 =( LENGTH_UNIT ( ) NAMED_UNIT ( * ) SI_UNIT ( .MILLI., .METRE. ) );
#26 = PRODUCT_DEFINITION_SHAPE ( 'NONE', 'NONE',  #19 ) ;
#27 = FACE_OUTER_BOUND ( 'NONE', #1, .T. ) ;
#28 = PRODUCT_DEFINITION_CONTEXT ( 'detailed design', #18, 'design' ) ;
#29 =( NAMED_UNIT ( * ) SI_UNIT ( $, .STERADIAN. ) SOLID_ANGLE_UNIT ( ) );
#30 =( NAMED_UNIT ( * ) PLANE_ANGLE_UNIT ( ) SI_UNIT ( $, .RADIAN. ) );
#31 = AXIS2_PLACEMENT_3D ( 'NONE', #69, #68, #108 ) ;
#32 = ADVANCED_FACE ( 'NONE', ( #86 ), #119, .T. ) ;
#33 = CARTESIAN_POINT ( 'NONE',  ( 0.000000000000000000, 0.000000000000000000, 50.00000000000000000 ) ) ;
#34 = APPLICATION_PROTOCOL_DEFINITION ( 'draft international standard', 'automotive_design', 1998, #18 ) ;
#35 = MECHANICAL_DESIGN_GEOMETRIC_PRESENTATION_REPRESENTATION (  '', ( #113 ), #124 ) ;
#36 = MECHANICAL_DESIGN_GEOMETRIC_PRESENTATION_REPRESENTATION (  '', ( #4 ), #48 ) ;
#37 =( LENGTH_UNIT ( ) NAMED_UNIT ( * ) SI_UNIT ( .MILLI., .METRE. ) );
#38 = PLANE ( 'NONE',  #54 ) ;
#39 = APPLICATION_CONTEXT ( 'automotive_design' ) ;
#40 =( NAMED_UNIT ( * ) SI_UNIT ( $, .STERADIAN. ) SOLID_ANGLE_UNIT ( ) );
#41 = ORIENTED_EDGE ( 'NONE', *, *, #125, .T. ) ;
#42 = UNCERTAINTY_MEASURE_WITH_UNIT (LENGTH_MEASURE( 1.000000000000000082E-05 ), #10, 'distance_accuracy_value', 'NONE');
#43 = FILL_AREA_STYLE ('',( #92 ) ) ;
#44 = APPLICATION_PROTOCOL_DEFINITION ( 'draft international standard', 'automotive_design', 1998, #39 ) ;
#45 = ADVANCED_FACE ( 'NONE', ( #27, #67 ), #110, .T. ) ;
#46 = VERTEX_POINT ( 'NONE', #33 ) ;
#47 = COLOUR_RGB ( '',0.000000000000000000, 1.000000000000000000, 0.000000000000000000 ) ;
#48 =( GEOMETRIC_REPRESENTATION_CONTEXT ( 3 ) GLOBAL_UNCERTAINTY_ASSIGNED_CONTEXT ( ( #116 ) ) GLOBAL_UNIT_ASSIGNED_CONTEXT ( ( #37, #49, #118 ) ) REPRESENTATION_CONTEXT ( 'NONE', 'WORKASPACE' ) );
#49 =( NAMED_UNIT ( * ) PLANE_ANGLE_UNIT ( ) SI_UNIT ( $, .RADIAN. ) );
#50 = FILL_AREA_STYLE_COLOUR ( '', #89 ) ;
#51 = DIRECTION ( 'NONE',  ( 0.000000000000000000, -0.000000000000000000, 1.000000000000000000 ) ) ;
#52 = CARTESIAN_POINT ( 'NONE',  ( 0.000000000000000000, 0.000000000000000000, 0.000000000000000000 ) ) ;
#53 = FILL_AREA_STYLE ('',( #62 ) ) ;
#54 = AXIS2_PLACEMENT_3D ( 'NONE', #96, #2, #51 ) ;
#55 = SURFACE_STYLE_FILL_AREA ( #43 ) ;
#56 = PRESENTATION_LAYER_ASSIGNMENT (  '', '', ( #83 ) ) ;
#57 = STYLED_ITEM ( 'NONE', ( #64 ), #32 ) ;
#58 = SURFACE_STYLE_FILL_AREA ( #3 ) ;
#59 = PRESENTATION_STYLE_ASSIGNMENT (( #66 ) ) ;
#60 = PRESENTATION_LAYER_ASSIGNMENT (  '', '', ( #4 ) ) ;
#61 = SURFACE_SIDE_STYLE ('',( #91 ) ) ;
#62 = FILL_AREA_STYLE_COLOUR ( '', #106 ) ;
#63 = MECHANICAL_DESIGN_GEOMETRIC_PRESENTATION_REPRESENTATION (  '', ( #57 ), #72 ) ;
#64 = PRESENTATION_STYLE_ASSIGNMENT (( #78 ) ) ;
#65 = PRODUCT ( 'C2_stacked_overrides__ap214_appear_fe', 'C2_stacked_overrides__ap214_appear_fe', '', ( #114 ) ) ;
#66 = SURFACE_STYLE_USAGE ( .BOTH. , #127 ) ;
#67 = FACE_OUTER_BOUND ( 'NONE', #21, .T. ) ;
#68 = DIRECTION ( 'NONE',  ( 0.000000000000000000, 1.000000000000000000, 0.000000000000000000 ) ) ;
#69 = CARTESIAN_POINT ( 'NONE',  ( 0.000000000000000000, 100.0000000000000000, 0.000000000000000000 ) ) ;
#70 =( LENGTH_UNIT ( ) NAMED_UNIT ( * ) SI_UNIT ( .MILLI., .METRE. ) );
#71 = AXIS2_PLACEMENT_3D ( 'NONE', #52, #75, #107 ) ;
#72 =( GEOMETRIC_REPRESENTATION_CONTEXT ( 3 ) GLOBAL_UNCERTAINTY_ASSIGNED_CONTEXT ( ( #100 ) ) GLOBAL_UNIT_ASSIGNED_CONTEXT ( ( #25, #77, #40 ) ) REPRESENTATION_CONTEXT ( 'NONE', 'WORKASPACE' ) );
#73 = PRESENTATION_LAYER_ASSIGNMENT (  '', '', ( #113 ) ) ;
#74 = UNCERTAINTY_MEASURE_WITH_UNIT (LENGTH_MEASURE( 1.000000000000000082E-05 ), #111, 'distance_accuracy_value', 'NONE');
#75 = DIRECTION ( 'NONE',  ( 0.000000000000000000, 1.000000000000000000, 0.000000000000000000 ) ) ;
#76 = DIRECTION ( 'NONE',  ( 0.000000000000000000, 1.000000000000000000, 0.000000000000000000 ) ) ;
#77 =( NAMED_UNIT ( * ) PLANE_ANGLE_UNIT ( ) SI_UNIT ( $, .RADIAN. ) );
#78 = SURFACE_STYLE_USAGE ( .BOTH. , #87 ) ;
#79 =( NAMED_UNIT ( * ) PLANE_ANGLE_UNIT ( ) SI_UNIT ( $, .RADIAN. ) );
#80 = CIRCLE ( 'NONE', #31, 50.00000000000000000 ) ;
#81 =( NAMED_UNIT ( * ) PLANE_ANGLE_UNIT ( ) SI_UNIT ( $, .RADIAN. ) );
#82 = DIRECTION ( 'NONE',  ( 0.000000000000000000, 0.000000000000000000, 1.000000000000000000 ) ) ;
#83 = STYLED_ITEM ( 'NONE', ( #11 ), #84 ) ;
#84 = MANIFOLD_SOLID_BREP ( 'Boss-Extrude1', #94 ) ;
#85 = AXIS2_PLACEMENT_3D ( 'NONE', #104, #82, #12 ) ;
#86 = FACE_OUTER_BOUND ( 'NONE', #105, .T. ) ;
#87 = SURFACE_SIDE_STYLE ('',( #58 ) ) ;
#88 = UNCERTAINTY_MEASURE_WITH_UNIT (LENGTH_MEASURE( 1.000000000000000082E-05 ), #70, 'distance_accuracy_value', 'NONE');
#89 = COLOUR_RGB ( '',1.000000000000000000, 1.000000000000000000, 0.000000000000000000 ) ;
#90 = FILL_AREA_STYLE_COLOUR ( '', #20 ) ;
#91 = SURFACE_STYLE_FILL_AREA ( #53 ) ;
#92 = FILL_AREA_STYLE_COLOUR ( '', #47 ) ;
#93 = SHAPE_DEFINITION_REPRESENTATION ( #26, #115 ) ;
#94 = CLOSED_SHELL ( 'NONE', ( #45, #32, #15 ) ) ;
#95 =( GEOMETRIC_REPRESENTATION_CONTEXT ( 3 ) GLOBAL_UNCERTAINTY_ASSIGNED_CONTEXT ( ( #74 ) ) GLOBAL_UNIT_ASSIGNED_CONTEXT ( ( #111, #81, #17 ) ) REPRESENTATION_CONTEXT ( 'NONE', 'WORKASPACE' ) );
#96 = CARTESIAN_POINT ( 'NONE',  ( 0.000000000000000000, 0.000000000000000000, 0.000000000000000000 ) ) ;
#97 = PRESENTATION_LAYER_ASSIGNMENT (  '', '', ( #57 ) ) ;
#98 = FILL_AREA_STYLE ('',( #50 ) ) ;
#99 = VERTEX_POINT ( 'NONE', #109 ) ;
#100 = UNCERTAINTY_MEASURE_WITH_UNIT (LENGTH_MEASURE( 1.000000000000000082E-05 ), #25, 'distance_accuracy_value', 'NONE');
#101 = AXIS2_PLACEMENT_3D ( 'NONE', #120, #103, #16 ) ;
#102 = SURFACE_STYLE_USAGE ( .BOTH. , #61 ) ;
#103 = DIRECTION ( 'NONE',  ( -0.000000000000000000, -1.000000000000000000, -0.000000000000000000 ) ) ;
#104 = CARTESIAN_POINT ( 'NONE',  ( 0.000000000000000000, 0.000000000000000000, 0.000000000000000000 ) ) ;
#105 = EDGE_LOOP ( 'NONE', ( #41 ) ) ;
#106 = COLOUR_RGB ( '',0.9098039215686274384, 0.4431372549019607643, 0.03137254901960784270 ) ;
#107 = DIRECTION ( 'NONE',  ( 0.000000000000000000, 0.000000000000000000, 1.000000000000000000 ) ) ;
#108 = DIRECTION ( 'NONE',  ( 0.000000000000000000, 0.000000000000000000, 1.000000000000000000 ) ) ;
#109 = CARTESIAN_POINT ( 'NONE',  ( 0.000000000000000000, 100.0000000000000000, 50.00000000000000000 ) ) ;
#110 = CYLINDRICAL_SURFACE ( 'NONE', #101, 50.00000000000000000 ) ;
#111 =( LENGTH_UNIT ( ) NAMED_UNIT ( * ) SI_UNIT ( .MILLI., .METRE. ) );
#112 = SURFACE_STYLE_USAGE ( .BOTH. , #123 ) ;
#113 = STYLED_ITEM ( 'NONE', ( #122 ), #45 ) ;
#114 = PRODUCT_CONTEXT ( 'NONE', #39, 'mechanical' ) ;
#115 = ADVANCED_BREP_SHAPE_REPRESENTATION ( 'C2_stacked_overrides__ap214_appear_fe', ( #84, #85 ), #95 ) ;
#116 = UNCERTAINTY_MEASURE_WITH_UNIT (LENGTH_MEASURE( 1.000000000000000082E-05 ), #37, 'distance_accuracy_value', 'NONE');
#117 = PRODUCT_RELATED_PRODUCT_CATEGORY ( 'part', '', ( #65 ) ) ;
#118 =( NAMED_UNIT ( * ) SI_UNIT ( $, .STERADIAN. ) SOLID_ANGLE_UNIT ( ) );
#119 = PLANE ( 'NONE',  #121 ) ;
#120 = CARTESIAN_POINT ( 'NONE',  ( 0.000000000000000000, 100.0000000000000000, 0.000000000000000000 ) ) ;
#121 = AXIS2_PLACEMENT_3D ( 'NONE', #128, #76, #24 ) ;
#122 = PRESENTATION_STYLE_ASSIGNMENT (( #112 ) ) ;
#123 = SURFACE_SIDE_STYLE ('',( #55 ) ) ;
#124 =( GEOMETRIC_REPRESENTATION_CONTEXT ( 3 ) GLOBAL_UNCERTAINTY_ASSIGNED_CONTEXT ( ( #88 ) ) GLOBAL_UNIT_ASSIGNED_CONTEXT ( ( #70, #79, #9 ) ) REPRESENTATION_CONTEXT ( 'NONE', 'WORKASPACE' ) );
#125 = EDGE_CURVE ( 'NONE', #99, #99, #80, .T. ) ;
#126 = PRODUCT_DEFINITION_FORMATION_WITH_SPECIFIED_SOURCE ( 'ANY', '', #65, .NOT_KNOWN. ) ;
#127 = SURFACE_SIDE_STYLE ('',( #13 ) ) ;
#128 = CARTESIAN_POINT ( 'NONE',  ( 0.000000000000000000, 100.0000000000000000, 0.000000000000000000 ) ) ;
#129 = CIRCLE ( 'NONE', #71, 50.00000000000000000 ) ;
#130 = FACE_OUTER_BOUND ( 'NONE', #5, .T. ) ;
ENDSEC;
END-ISO-10303-21;
