ISO-10303-21;
HEADER;
FILE_DESCRIPTION (( 'STEP AP214' ),
    '1' );
FILE_NAME ('C2_stacked_overrides__ap214_noappear.step',
    '2026-08-06T13:09:21',
    ( '' ),
    ( '' ),
    'SwSTEP 2.0',
    'SolidWorks 2026',
    '' );
FILE_SCHEMA (( 'AUTOMOTIVE_DESIGN' ));
ENDSEC;

DATA;
#1 = SHAPE_DEFINITION_REPRESENTATION ( #76, #15 ) ;
#2 = FILL_AREA_STYLE ('',( #36 ) ) ;
#3 = SURFACE_SIDE_STYLE ('',( #43 ) ) ;
#4 = STYLED_ITEM ( 'NONE', ( #69 ), #54 ) ;
#5 = DIRECTION ( 'NONE',  ( 0.000000000000000000, 1.000000000000000000, 0.000000000000000000 ) ) ;
#6 = EDGE_LOOP ( 'NONE', ( #23 ) ) ;
#7 = UNCERTAINTY_MEASURE_WITH_UNIT (LENGTH_MEASURE( 1.000000000000000082E-05 ), #73, 'distance_accuracy_value', 'NONE');
#8 = PRESENTATION_LAYER_ASSIGNMENT (  '', '', ( #4 ) ) ;
#9 = EDGE_CURVE ( 'NONE', #19, #19, #38, .T. ) ;
#10 = DIRECTION ( 'NONE',  ( 0.000000000000000000, 1.000000000000000000, 0.000000000000000000 ) ) ;
#11 = CARTESIAN_POINT ( 'NONE',  ( 0.000000000000000000, 0.000000000000000000, 0.000000000000000000 ) ) ;
#12 = CYLINDRICAL_SURFACE ( 'NONE', #25, 50.00000000000000000 ) ;
#13 = FACE_OUTER_BOUND ( 'NONE', #34, .T. ) ;
#14 = EDGE_LOOP ( 'NONE', ( #82 ) ) ;
#15 = ADVANCED_BREP_SHAPE_REPRESENTATION ( 'C2_stacked_overrides__ap214_noappear', ( #54, #46 ), #75 ) ;
#16 = PRODUCT_DEFINITION_CONTEXT ( 'detailed design', #22, 'design' ) ;
#17 = ORIENTED_EDGE ( 'NONE', *, *, #9, .F. ) ;
#18 = ORIENTED_EDGE ( 'NONE', *, *, #24, .F. ) ;
#19 = VERTEX_POINT ( 'NONE', #21 ) ;
#20 = AXIS2_PLACEMENT_3D ( 'NONE', #56, #63, #61 ) ;
#21 = CARTESIAN_POINT ( 'NONE',  ( 0.000000000000000000, 100.0000000000000000, 50.00000000000000000 ) ) ;
#22 = APPLICATION_CONTEXT ( 'automotive_design' ) ;
#23 = ORIENTED_EDGE ( 'NONE', *, *, #9, .T. ) ;
#24 = EDGE_CURVE ( 'NONE', #67, #67, #84, .T. ) ;
#25 = AXIS2_PLACEMENT_3D ( 'NONE', #55, #37, #77 ) ;
#26 = SURFACE_STYLE_USAGE ( .BOTH. , #3 ) ;
#27 = APPLICATION_CONTEXT ( 'automotive_design' ) ;
#28 =( NAMED_UNIT ( * ) PLANE_ANGLE_UNIT ( ) SI_UNIT ( $, .RADIAN. ) );
#29 =( NAMED_UNIT ( * ) SI_UNIT ( $, .STERADIAN. ) SOLID_ANGLE_UNIT ( ) );
#30 = DIRECTION ( 'NONE',  ( 0.000000000000000000, -0.000000000000000000, 1.000000000000000000 ) ) ;
#31 = DIRECTION ( 'NONE',  ( 0.000000000000000000, 0.000000000000000000, 1.000000000000000000 ) ) ;
#32 =( NAMED_UNIT ( * ) SI_UNIT ( $, .STERADIAN. ) SOLID_ANGLE_UNIT ( ) );
#33 = AXIS2_PLACEMENT_3D ( 'NONE', #44, #10, #70 ) ;
#34 = EDGE_LOOP ( 'NONE', ( #18 ) ) ;
#35 = DIRECTION ( 'NONE',  ( 0.000000000000000000, 0.000000000000000000, 1.000000000000000000 ) ) ;
#36 = FILL_AREA_STYLE_COLOUR ( '', #57 ) ;
#37 = DIRECTION ( 'NONE',  ( -0.000000000000000000, -1.000000000000000000, -0.000000000000000000 ) ) ;
#38 = CIRCLE ( 'NONE', #20, 50.00000000000000000 ) ;
#39 = APPLICATION_PROTOCOL_DEFINITION ( 'draft international standard', 'automotive_design', 1998, #27 ) ;
#40 =( GEOMETRIC_REPRESENTATION_CONTEXT ( 3 ) GLOBAL_UNCERTAINTY_ASSIGNED_CONTEXT ( ( #50 ) ) GLOBAL_UNIT_ASSIGNED_CONTEXT ( ( #60, #28, #29 ) ) REPRESENTATION_CONTEXT ( 'NONE', 'WORKASPACE' ) );
#41 = PLANE ( 'NONE',  #49 ) ;
#42 = FACE_OUTER_BOUND ( 'NONE', #83, .T. ) ;
#43 = SURFACE_STYLE_FILL_AREA ( #2 ) ;
#44 = CARTESIAN_POINT ( 'NONE',  ( 0.000000000000000000, 0.000000000000000000, 0.000000000000000000 ) ) ;
#45 = AXIS2_PLACEMENT_3D ( 'NONE', #11, #74, #35 ) ;
#46 = AXIS2_PLACEMENT_3D ( 'NONE', #53, #31, #71 ) ;
#47 = PRODUCT_CONTEXT ( 'NONE', #27, 'mechanical' ) ;
#48 = PRODUCT_DEFINITION_FORMATION_WITH_SPECIFIED_SOURCE ( 'ANY', '', #51, .NOT_KNOWN. ) ;
#49 = AXIS2_PLACEMENT_3D ( 'NONE', #62, #5, #30 ) ;
#50 = UNCERTAINTY_MEASURE_WITH_UNIT (LENGTH_MEASURE( 1.000000000000000082E-05 ), #60, 'distance_accuracy_value', 'NONE');
#51 = PRODUCT ( 'C2_stacked_overrides__ap214_noappear', 'C2_stacked_overrides__ap214_noappear', '', ( #47 ) ) ;
#52 = PLANE ( 'NONE',  #33 ) ;
#53 = CARTESIAN_POINT ( 'NONE',  ( 0.000000000000000000, 0.000000000000000000, 0.000000000000000000 ) ) ;
#54 = MANIFOLD_SOLID_BREP ( 'Boss-Extrude1', #59 ) ;
#55 = CARTESIAN_POINT ( 'NONE',  ( 0.000000000000000000, 100.0000000000000000, 0.000000000000000000 ) ) ;
#56 = CARTESIAN_POINT ( 'NONE',  ( 0.000000000000000000, 100.0000000000000000, 0.000000000000000000 ) ) ;
#57 = COLOUR_RGB ( '',0.7921568627450980005, 0.8196078431372548767, 0.9333333333333333481 ) ;
#58 = ADVANCED_FACE ( 'NONE', ( #13 ), #52, .F. ) ;
#59 = CLOSED_SHELL ( 'NONE', ( #65, #72, #58 ) ) ;
#60 =( LENGTH_UNIT ( ) NAMED_UNIT ( * ) SI_UNIT ( .MILLI., .METRE. ) );
#61 = DIRECTION ( 'NONE',  ( 0.000000000000000000, 0.000000000000000000, 1.000000000000000000 ) ) ;
#62 = CARTESIAN_POINT ( 'NONE',  ( 0.000000000000000000, 100.0000000000000000, 0.000000000000000000 ) ) ;
#63 = DIRECTION ( 'NONE',  ( 0.000000000000000000, 1.000000000000000000, 0.000000000000000000 ) ) ;
#64 = PRODUCT_RELATED_PRODUCT_CATEGORY ( 'part', '', ( #51 ) ) ;
#65 = ADVANCED_FACE ( 'NONE', ( #42, #68 ), #12, .T. ) ;
#66 =( NAMED_UNIT ( * ) PLANE_ANGLE_UNIT ( ) SI_UNIT ( $, .RADIAN. ) );
#67 = VERTEX_POINT ( 'NONE', #85 ) ;
#68 = FACE_OUTER_BOUND ( 'NONE', #14, .T. ) ;
#69 = PRESENTATION_STYLE_ASSIGNMENT (( #26 ) ) ;
#70 = DIRECTION ( 'NONE',  ( 0.000000000000000000, -0.000000000000000000, 1.000000000000000000 ) ) ;
#71 = DIRECTION ( 'NONE',  ( 1.000000000000000000, 0.000000000000000000, 0.000000000000000000 ) ) ;
#72 = ADVANCED_FACE ( 'NONE', ( #81 ), #41, .T. ) ;
#73 =( LENGTH_UNIT ( ) NAMED_UNIT ( * ) SI_UNIT ( .MILLI., .METRE. ) );
#74 = DIRECTION ( 'NONE',  ( 0.000000000000000000, 1.000000000000000000, 0.000000000000000000 ) ) ;
#75 =( GEOMETRIC_REPRESENTATION_CONTEXT ( 3 ) GLOBAL_UNCERTAINTY_ASSIGNED_CONTEXT ( ( #7 ) ) GLOBAL_UNIT_ASSIGNED_CONTEXT ( ( #73, #66, #32 ) ) REPRESENTATION_CONTEXT ( 'NONE', 'WORKASPACE' ) );
#76 = PRODUCT_DEFINITION_SHAPE ( 'NONE', 'NONE',  #79 ) ;
#77 = DIRECTION ( 'NONE',  ( 0.000000000000000000, 0.000000000000000000, -1.000000000000000000 ) ) ;
#78 = APPLICATION_PROTOCOL_DEFINITION ( 'draft international standard', 'automotive_design', 1998, #22 ) ;
#79 = PRODUCT_DEFINITION ( 'UNKNOWN', '', #48, #16 ) ;
#80 = MECHANICAL_DESIGN_GEOMETRIC_PRESENTATION_REPRESENTATION (  '', ( #4 ), #40 ) ;
#81 = FACE_OUTER_BOUND ( 'NONE', #6, .T. ) ;
#82 = ORIENTED_EDGE ( 'NONE', *, *, #24, .T. ) ;
#83 = EDGE_LOOP ( 'NONE', ( #17 ) ) ;
#84 = CIRCLE ( 'NONE', #45, 50.00000000000000000 ) ;
#85 = CARTESIAN_POINT ( 'NONE',  ( 0.000000000000000000, 0.000000000000000000, 50.00000000000000000 ) ) ;
ENDSEC;
END-ISO-10303-21;
