ISO-10303-21;
HEADER;
FILE_DESCRIPTION (( 'STEP AP203' ),
    '1' );
FILE_NAME ('C2_stacked_overrides__ap203.step',
    '2026-08-06T13:09:21',
    ( '' ),
    ( '' ),
    'SwSTEP 2.0',
    'SolidWorks 2026',
    '' );
FILE_SCHEMA (( 'CONFIG_CONTROL_DESIGN' ));
ENDSEC;

DATA;
#1 = PERSON_AND_ORGANIZATION ( #81, #107 ) ;
#2 = APPROVAL_PERSON_ORGANIZATION ( #20, #108, #80 ) ;
#3 = APPROVAL_STATUS ( 'not_yet_approved' ) ;
#4 = COORDINATED_UNIVERSAL_TIME_OFFSET ( 0, 0, .AHEAD. ) ;
#5 = EDGE_LOOP ( 'NONE', ( #71 ) ) ;
#6 = DIRECTION ( 'NONE',  ( 0.000000000000000000, 1.000000000000000000, 0.000000000000000000 ) ) ;
#7 = CARTESIAN_POINT ( 'NONE',  ( 0.000000000000000000, 0.000000000000000000, 50.00000000000000000 ) ) ;
#8 = LOCAL_TIME ( 14, 9, 21.00000000000000000, #79 ) ;
#9 =( LENGTH_UNIT ( ) NAMED_UNIT ( * ) SI_UNIT ( .MILLI., .METRE. ) );
#10 = DESIGN_CONTEXT ( 'detailed design', #25, 'design' ) ;
#11 = APPLICATION_PROTOCOL_DEFINITION ( 'international standard', 'config_control_design', 1994, #25 ) ;
#12 = DATE_TIME_ROLE ( 'creation_date' ) ;
#13 = CC_DESIGN_PERSON_AND_ORGANIZATION_ASSIGNMENT ( #64, #61, ( #131 ) ) ;
#14 = DIRECTION ( 'NONE',  ( 0.000000000000000000, 0.000000000000000000, 1.000000000000000000 ) ) ;
#15 = DIRECTION ( 'NONE',  ( 0.000000000000000000, 1.000000000000000000, 0.000000000000000000 ) ) ;
#16 = VERTEX_POINT ( 'NONE', #7 ) ;
#17 = APPROVAL_PERSON_ORGANIZATION ( #62, #116, #34 ) ;
#18 = APPROVAL_STATUS ( 'not_yet_approved' ) ;
#19 = EDGE_CURVE ( 'NONE', #16, #16, #115, .T. ) ;
#20 = PERSON_AND_ORGANIZATION ( #81, #107 ) ;
#21 = APPROVAL_DATE_TIME ( #45, #108 ) ;
#22 = CIRCLE ( 'NONE', #114, 50.00000000000000000 ) ;
#23 = APPROVAL_STATUS ( 'not_yet_approved' ) ;
#24 = CC_DESIGN_DATE_AND_TIME_ASSIGNMENT ( #125, #12, ( #26 ) ) ;
#25 = APPLICATION_CONTEXT ( 'configuration controlled 3d designs of mechanical parts and assemblies' ) ;
#26 = PRODUCT_DEFINITION ( 'UNKNOWN', '', #131, #10 ) ;
#27 = DIRECTION ( 'NONE',  ( 0.000000000000000000, 1.000000000000000000, 0.000000000000000000 ) ) ;
#28 = CC_DESIGN_APPROVAL ( #128, ( #26 ) ) ;
#29 = PLANE ( 'NONE',  #130 ) ;
#30 = CC_DESIGN_DATE_AND_TIME_ASSIGNMENT ( #77, #98, ( #117 ) ) ;
#31 = CARTESIAN_POINT ( 'NONE',  ( 0.000000000000000000, 0.000000000000000000, 0.000000000000000000 ) ) ;
#32 = PRODUCT ( 'C2_stacked_overrides__ap203', 'C2_stacked_overrides__ap203', '', ( #91 ) ) ;
#33 = ORIENTED_EDGE ( 'NONE', *, *, #19, .F. ) ;
#34 = APPROVAL_ROLE ( '' ) ;
#35 = SECURITY_CLASSIFICATION_LEVEL ( 'unclassified' ) ;
#36 = PERSON_AND_ORGANIZATION_ROLE ( 'classification_officer' ) ;
#37 = APPROVAL_DATE_TIME ( #127, #128 ) ;
#38 = AXIS2_PLACEMENT_3D ( 'NONE', #132, #110, #123 ) ;
#39 = PLANE ( 'NONE',  #38 ) ;
#40 = VERTEX_POINT ( 'NONE', #59 ) ;
#41 = CC_DESIGN_PERSON_AND_ORGANIZATION_ASSIGNMENT ( #105, #111, ( #26 ) ) ;
#42 =( GEOMETRIC_REPRESENTATION_CONTEXT ( 3 ) GLOBAL_UNCERTAINTY_ASSIGNED_CONTEXT ( ( #69 ) ) GLOBAL_UNIT_ASSIGNED_CONTEXT ( ( #9, #51, #44 ) ) REPRESENTATION_CONTEXT ( 'NONE', 'WORKASPACE' ) );
#43 = FACE_OUTER_BOUND ( 'NONE', #102, .T. ) ;
#44 =( NAMED_UNIT ( * ) SI_UNIT ( $, .STERADIAN. ) SOLID_ANGLE_UNIT ( ) );
#45 = DATE_AND_TIME ( #104, #70 ) ;
#46 = PERSON_AND_ORGANIZATION ( #81, #107 ) ;
#47 = CC_DESIGN_PERSON_AND_ORGANIZATION_ASSIGNMENT ( #1, #36, ( #117 ) ) ;
#48 = CC_DESIGN_APPROVAL ( #116, ( #131 ) ) ;
#49 = CARTESIAN_POINT ( 'NONE',  ( 0.000000000000000000, 100.0000000000000000, 0.000000000000000000 ) ) ;
#50 = DIRECTION ( 'NONE',  ( 0.000000000000000000, -0.000000000000000000, 1.000000000000000000 ) ) ;
#51 =( NAMED_UNIT ( * ) PLANE_ANGLE_UNIT ( ) SI_UNIT ( $, .RADIAN. ) );
#52 = ADVANCED_FACE ( 'NONE', ( #96 ), #39, .T. ) ;
#53 = SHAPE_DEFINITION_REPRESENTATION ( #72, #122 ) ;
#54 = PERSON_AND_ORGANIZATION_ROLE ( 'design_owner' ) ;
#55 = COORDINATED_UNIVERSAL_TIME_OFFSET ( 0, 0, .AHEAD. ) ;
#56 = AXIS2_PLACEMENT_3D ( 'NONE', #73, #133, #109 ) ;
#57 = DIRECTION ( 'NONE',  ( 1.000000000000000000, 0.000000000000000000, 0.000000000000000000 ) ) ;
#58 = PERSON_AND_ORGANIZATION ( #81, #107 ) ;
#59 = CARTESIAN_POINT ( 'NONE',  ( 0.000000000000000000, 100.0000000000000000, 50.00000000000000000 ) ) ;
#60 = AXIS2_PLACEMENT_3D ( 'NONE', #94, #6, #118 ) ;
#61 = PERSON_AND_ORGANIZATION_ROLE ( 'design_supplier' ) ;
#62 = PERSON_AND_ORGANIZATION ( #81, #107 ) ;
#63 = CC_DESIGN_SECURITY_CLASSIFICATION ( #117, ( #131 ) ) ;
#64 = PERSON_AND_ORGANIZATION ( #81, #107 ) ;
#65 = APPROVAL_DATE_TIME ( #106, #116 ) ;
#66 = ADVANCED_FACE ( 'NONE', ( #43 ), #29, .F. ) ;
#67 = LOCAL_TIME ( 14, 9, 21.00000000000000000, #126 ) ;
#68 = CARTESIAN_POINT ( 'NONE',  ( 0.000000000000000000, 0.000000000000000000, 0.000000000000000000 ) ) ;
#69 = UNCERTAINTY_MEASURE_WITH_UNIT (LENGTH_MEASURE( 1.000000000000000082E-05 ), #9, 'distance_accuracy_value', 'NONE');
#70 = LOCAL_TIME ( 14, 9, 21.00000000000000000, #55 ) ;
#71 = ORIENTED_EDGE ( 'NONE', *, *, #124, .T. ) ;
#72 = PRODUCT_DEFINITION_SHAPE ( 'NONE', 'NONE',  #26 ) ;
#73 = CARTESIAN_POINT ( 'NONE',  ( 0.000000000000000000, 100.0000000000000000, 0.000000000000000000 ) ) ;
#74 = CYLINDRICAL_SURFACE ( 'NONE', #56, 50.00000000000000000 ) ;
#75 = AXIS2_PLACEMENT_3D ( 'NONE', #68, #14, #57 ) ;
#76 = CALENDAR_DATE ( 2026, 6, 8 ) ;
#77 = DATE_AND_TIME ( #97, #121 ) ;
#78 = LOCAL_TIME ( 14, 9, 21.00000000000000000, #4 ) ;
#79 = COORDINATED_UNIVERSAL_TIME_OFFSET ( 0, 0, .AHEAD. ) ;
#80 = APPROVAL_ROLE ( '' ) ;
#81 = PERSON ( 'UNSPECIFIED', 'UNSPECIFIED', 'UNSPECIFIED', ('UNSPECIFIED'), ('UNSPECIFIED'), ('UNSPECIFIED') ) ;
#82 = APPLICATION_PROTOCOL_DEFINITION ( 'international standard', 'config_control_design', 1994, #87 ) ;
#83 = EDGE_LOOP ( 'NONE', ( #101 ) ) ;
#84 = ORIENTED_EDGE ( 'NONE', *, *, #124, .F. ) ;
#85 = APPROVAL_ROLE ( '' ) ;
#86 = PERSON_AND_ORGANIZATION ( #81, #107 ) ;
#87 = APPLICATION_CONTEXT ( 'configuration controlled 3d designs of mechanical parts and assemblies' ) ;
#88 = CALENDAR_DATE ( 2026, 6, 8 ) ;
#89 = CC_DESIGN_APPROVAL ( #108, ( #117 ) ) ;
#90 = CC_DESIGN_PERSON_AND_ORGANIZATION_ASSIGNMENT ( #58, #54, ( #32 ) ) ;
#91 = MECHANICAL_CONTEXT ( 'NONE', #87, 'mechanical' ) ;
#92 = DIRECTION ( 'NONE',  ( 0.000000000000000000, 0.000000000000000000, 1.000000000000000000 ) ) ;
#93 = MANIFOLD_SOLID_BREP ( 'Boss-Extrude1', #95 ) ;
#94 = CARTESIAN_POINT ( 'NONE',  ( 0.000000000000000000, 0.000000000000000000, 0.000000000000000000 ) ) ;
#95 = CLOSED_SHELL ( 'NONE', ( #129, #52, #66 ) ) ;
#96 = FACE_OUTER_BOUND ( 'NONE', #5, .T. ) ;
#97 = CALENDAR_DATE ( 2026, 6, 8 ) ;
#98 = DATE_TIME_ROLE ( 'classification_date' ) ;
#99 = CALENDAR_DATE ( 2026, 6, 8 ) ;
#100 = PRODUCT_RELATED_PRODUCT_CATEGORY ( 'detail', '', ( #32 ) ) ;
#101 = ORIENTED_EDGE ( 'NONE', *, *, #19, .T. ) ;
#102 = EDGE_LOOP ( 'NONE', ( #33 ) ) ;
#103 = FACE_OUTER_BOUND ( 'NONE', #120, .T. ) ;
#104 = CALENDAR_DATE ( 2026, 6, 8 ) ;
#105 = PERSON_AND_ORGANIZATION ( #81, #107 ) ;
#106 = DATE_AND_TIME ( #99, #78 ) ;
#107 = ORGANIZATION ( 'UNSPECIFIED', 'UNSPECIFIED', '' ) ;
#108 = APPROVAL ( #3, 'UNSPECIFIED' ) ;
#109 = DIRECTION ( 'NONE',  ( 0.000000000000000000, 0.000000000000000000, -1.000000000000000000 ) ) ;
#110 = DIRECTION ( 'NONE',  ( 0.000000000000000000, 1.000000000000000000, 0.000000000000000000 ) ) ;
#111 = PERSON_AND_ORGANIZATION_ROLE ( 'creator' ) ;
#112 = COORDINATED_UNIVERSAL_TIME_OFFSET ( 0, 0, .AHEAD. ) ;
#113 = PERSON_AND_ORGANIZATION_ROLE ( 'creator' ) ;
#114 = AXIS2_PLACEMENT_3D ( 'NONE', #49, #27, #92 ) ;
#115 = CIRCLE ( 'NONE', #60, 50.00000000000000000 ) ;
#116 = APPROVAL ( #23, 'UNSPECIFIED' ) ;
#117 = SECURITY_CLASSIFICATION ( '', '', #35 ) ;
#118 = DIRECTION ( 'NONE',  ( 0.000000000000000000, 0.000000000000000000, 1.000000000000000000 ) ) ;
#119 = CC_DESIGN_PERSON_AND_ORGANIZATION_ASSIGNMENT ( #46, #113, ( #131 ) ) ;
#120 = EDGE_LOOP ( 'NONE', ( #84 ) ) ;
#121 = LOCAL_TIME ( 14, 9, 21.00000000000000000, #112 ) ;
#122 = ADVANCED_BREP_SHAPE_REPRESENTATION ( 'C2_stacked_overrides__ap203', ( #93, #75 ), #42 ) ;
#123 = DIRECTION ( 'NONE',  ( 0.000000000000000000, -0.000000000000000000, 1.000000000000000000 ) ) ;
#124 = EDGE_CURVE ( 'NONE', #40, #40, #22, .T. ) ;
#125 = DATE_AND_TIME ( #88, #8 ) ;
#126 = COORDINATED_UNIVERSAL_TIME_OFFSET ( 0, 0, .AHEAD. ) ;
#127 = DATE_AND_TIME ( #76, #67 ) ;
#128 = APPROVAL ( #18, 'UNSPECIFIED' ) ;
#129 = ADVANCED_FACE ( 'NONE', ( #103, #135 ), #74, .T. ) ;
#130 = AXIS2_PLACEMENT_3D ( 'NONE', #31, #15, #50 ) ;
#131 = PRODUCT_DEFINITION_FORMATION_WITH_SPECIFIED_SOURCE ( 'ANY', '', #32, .NOT_KNOWN. ) ;
#132 = CARTESIAN_POINT ( 'NONE',  ( 0.000000000000000000, 100.0000000000000000, 0.000000000000000000 ) ) ;
#133 = DIRECTION ( 'NONE',  ( -0.000000000000000000, -1.000000000000000000, -0.000000000000000000 ) ) ;
#134 = APPROVAL_PERSON_ORGANIZATION ( #86, #128, #85 ) ;
#135 = FACE_OUTER_BOUND ( 'NONE', #83, .T. ) ;
ENDSEC;
END-ISO-10303-21;
