ISO-10303-21;
HEADER;
FILE_DESCRIPTION (( 'STEP AP214' ),
    '1' );
FILE_NAME ('C2_stacked_overrides__ap214_cfg.step',
    '2026-08-06T13:09:22',
    ( '' ),
    ( '' ),
    'SwSTEP 2.0',
    'SolidWorks 2026',
    '' );
FILE_SCHEMA (( 'AUTOMOTIVE_DESIGN' ));
ENDSEC;

DATA;
#1 = MANIFOLD_SOLID_BREP ( 'Boss-Extrude1', #84 ) ;
#2 = DIRECTION ( 'NONE',  ( 0.000000000000000000, -0.000000000000000000, 1.000000000000000000 ) ) ;
#3 = SURFACE_STYLE_USAGE ( .BOTH. , #126 ) ;
#4 = SHAPE_DEFINITION_REPRESENTATION ( #93, #23 ) ;
#5 = FILL_AREA_STYLE_COLOUR ( '', #21 ) ;
#6 = SURFACE_STYLE_FILL_AREA ( #51 ) ;
#7 = EDGE_LOOP ( 'NONE', ( #101 ) ) ;
#8 = COLOUR_RGB ( '',0.9098039215686274384, 0.4431372549019607643, 0.03137254901960784270 ) ;
#9 = PLANE ( 'NONE',  #123 ) ;
#10 = CIRCLE ( 'NONE', #91, 50.00000000000000000 ) ;
#11 = FACE_OUTER_BOUND ( 'NONE', #82, .T. ) ;
#12 = CARTESIAN_POINT ( 'NONE',  ( 0.000000000000000000, 100.0000000000000000, 0.000000000000000000 ) ) ;
#13 = DIRECTION ( 'NONE',  ( 0.000000000000000000, 0.000000000000000000, 1.000000000000000000 ) ) ;
#14 = STYLED_ITEM ( 'NONE', ( #46 ), #49 ) ;
#15 = AXIS2_PLACEMENT_3D ( 'NONE', #22, #70, #13 ) ;
#16 = FILL_AREA_STYLE_COLOUR ( '', #25 ) ;
#17 = UNCERTAINTY_MEASURE_WITH_UNIT (LENGTH_MEASURE( 1.000000000000000082E-05 ), #77, 'distance_accuracy_value', 'NONE');
#18 = DIRECTION ( 'NONE',  ( 0.000000000000000000, 0.000000000000000000, 1.000000000000000000 ) ) ;
#19 = ORIENTED_EDGE ( 'NONE', *, *, #26, .T. ) ;
#20 = CYLINDRICAL_SURFACE ( 'NONE', #50, 50.00000000000000000 ) ;
#21 = COLOUR_RGB ( '',1.000000000000000000, 1.000000000000000000, 0.000000000000000000 ) ;
#22 = CARTESIAN_POINT ( 'NONE',  ( 0.000000000000000000, 100.0000000000000000, 0.000000000000000000 ) ) ;
#23 = ADVANCED_BREP_SHAPE_REPRESENTATION ( 'C2_stacked_overrides__ap214_cfg', ( #1, #56 ), #110 ) ;
#24 = SURFACE_STYLE_USAGE ( .BOTH. , #118 ) ;
#25 = COLOUR_RGB ( '',0.000000000000000000, 1.000000000000000000, 0.000000000000000000 ) ;
#26 = EDGE_CURVE ( 'NONE', #97, #97, #10, .T. ) ;
#27 = STYLED_ITEM ( 'NONE', ( #33 ), #100 ) ;
#28 =( LENGTH_UNIT ( ) NAMED_UNIT ( * ) SI_UNIT ( .MILLI., .METRE. ) );
#29 = CIRCLE ( 'NONE', #15, 50.00000000000000000 ) ;
#30 =( NAMED_UNIT ( * ) PLANE_ANGLE_UNIT ( ) SI_UNIT ( $, .RADIAN. ) );
#31 = ADVANCED_FACE ( 'NONE', ( #58 ), #9, .F. ) ;
#32 = DIRECTION ( 'NONE',  ( 0.000000000000000000, 1.000000000000000000, 0.000000000000000000 ) ) ;
#33 = PRESENTATION_STYLE_ASSIGNMENT (( #24 ) ) ;
#34 = PRODUCT_RELATED_PRODUCT_CATEGORY ( 'part', '', ( #39 ) ) ;
#35 = PRODUCT_DEFINITION_FORMATION_WITH_SPECIFIED_SOURCE ( 'ANY', '', #39, .NOT_KNOWN. ) ;
#36 = MECHANICAL_DESIGN_GEOMETRIC_PRESENTATION_REPRESENTATION (  '', ( #14 ), #80 ) ;
#37 =( NAMED_UNIT ( * ) SI_UNIT ( $, .STERADIAN. ) SOLID_ANGLE_UNIT ( ) );
#38 = ORIENTED_EDGE ( 'NONE', *, *, #116, .F. ) ;
#39 = PRODUCT ( 'C2_stacked_overrides__ap214_cfg', 'C2_stacked_overrides__ap214_cfg', '', ( #99 ) ) ;
#40 = CARTESIAN_POINT ( 'NONE',  ( 0.000000000000000000, 0.000000000000000000, 0.000000000000000000 ) ) ;
#41 = CARTESIAN_POINT ( 'NONE',  ( 0.000000000000000000, 0.000000000000000000, 0.000000000000000000 ) ) ;
#42 = FACE_OUTER_BOUND ( 'NONE', #7, .T. ) ;
#43 = PRESENTATION_LAYER_ASSIGNMENT (  '', '', ( #27 ) ) ;
#44 = DIRECTION ( 'NONE',  ( 0.000000000000000000, 0.000000000000000000, -1.000000000000000000 ) ) ;
#45 = CARTESIAN_POINT ( 'NONE',  ( 0.000000000000000000, 100.0000000000000000, 50.00000000000000000 ) ) ;
#46 = PRESENTATION_STYLE_ASSIGNMENT (( #3 ) ) ;
#47 = APPLICATION_PROTOCOL_DEFINITION ( 'draft international standard', 'automotive_design', 1998, #59 ) ;
#48 = AXIS2_PLACEMENT_3D ( 'NONE', #96, #86, #2 ) ;
#49 = ADVANCED_FACE ( 'NONE', ( #94, #11 ), #20, .T. ) ;
#50 = AXIS2_PLACEMENT_3D ( 'NONE', #12, #69, #44 ) ;
#51 = FILL_AREA_STYLE ('',( #128 ) ) ;
#52 = PRESENTATION_LAYER_ASSIGNMENT (  '', '', ( #14 ) ) ;
#53 = SURFACE_STYLE_FILL_AREA ( #62 ) ;
#54 =( GEOMETRIC_REPRESENTATION_CONTEXT ( 3 ) GLOBAL_UNCERTAINTY_ASSIGNED_CONTEXT ( ( #129 ) ) GLOBAL_UNIT_ASSIGNED_CONTEXT ( ( #103, #30, #111 ) ) REPRESENTATION_CONTEXT ( 'NONE', 'WORKASPACE' ) );
#55 =( LENGTH_UNIT ( ) NAMED_UNIT ( * ) SI_UNIT ( .MILLI., .METRE. ) );
#56 = AXIS2_PLACEMENT_3D ( 'NONE', #122, #89, #65 ) ;
#57 = STYLED_ITEM ( 'NONE', ( #75 ), #31 ) ;
#58 = FACE_OUTER_BOUND ( 'NONE', #67, .T. ) ;
#59 = APPLICATION_CONTEXT ( 'automotive_design' ) ;
#60 = SURFACE_STYLE_USAGE ( .BOTH. , #113 ) ;
#61 = PRESENTATION_LAYER_ASSIGNMENT (  '', '', ( #109 ) ) ;
#62 = FILL_AREA_STYLE ('',( #16 ) ) ;
#63 =( LENGTH_UNIT ( ) NAMED_UNIT ( * ) SI_UNIT ( .MILLI., .METRE. ) );
#64 = MECHANICAL_DESIGN_GEOMETRIC_PRESENTATION_REPRESENTATION (  '', ( #27 ), #108 ) ;
#65 = DIRECTION ( 'NONE',  ( 1.000000000000000000, 0.000000000000000000, 0.000000000000000000 ) ) ;
#66 = PRODUCT_DEFINITION ( 'UNKNOWN', '', #35, #112 ) ;
#67 = EDGE_LOOP ( 'NONE', ( #74 ) ) ;
#68 = DIRECTION ( 'NONE',  ( 0.000000000000000000, -0.000000000000000000, 1.000000000000000000 ) ) ;
#69 = DIRECTION ( 'NONE',  ( -0.000000000000000000, -1.000000000000000000, -0.000000000000000000 ) ) ;
#70 = DIRECTION ( 'NONE',  ( 0.000000000000000000, 1.000000000000000000, 0.000000000000000000 ) ) ;
#71 =( NAMED_UNIT ( * ) SI_UNIT ( $, .STERADIAN. ) SOLID_ANGLE_UNIT ( ) );
#72 = FILL_AREA_STYLE ('',( #117 ) ) ;
#73 = PRESENTATION_STYLE_ASSIGNMENT (( #60 ) ) ;
#74 = ORIENTED_EDGE ( 'NONE', *, *, #26, .F. ) ;
#75 = PRESENTATION_STYLE_ASSIGNMENT (( #76 ) ) ;
#76 = SURFACE_STYLE_USAGE ( .BOTH. , #81 ) ;
#77 =( LENGTH_UNIT ( ) NAMED_UNIT ( * ) SI_UNIT ( .MILLI., .METRE. ) );
#78 =( NAMED_UNIT ( * ) PLANE_ANGLE_UNIT ( ) SI_UNIT ( $, .RADIAN. ) );
#79 =( GEOMETRIC_REPRESENTATION_CONTEXT ( 3 ) GLOBAL_UNCERTAINTY_ASSIGNED_CONTEXT ( ( #95 ) ) GLOBAL_UNIT_ASSIGNED_CONTEXT ( ( #28, #127, #37 ) ) REPRESENTATION_CONTEXT ( 'NONE', 'WORKASPACE' ) );
#80 =( GEOMETRIC_REPRESENTATION_CONTEXT ( 3 ) GLOBAL_UNCERTAINTY_ASSIGNED_CONTEXT ( ( #106 ) ) GLOBAL_UNIT_ASSIGNED_CONTEXT ( ( #55, #88, #104 ) ) REPRESENTATION_CONTEXT ( 'NONE', 'WORKASPACE' ) );
#81 = SURFACE_SIDE_STYLE ('',( #130 ) ) ;
#82 = EDGE_LOOP ( 'NONE', ( #19 ) ) ;
#83 = FILL_AREA_STYLE ('',( #5 ) ) ;
#84 = CLOSED_SHELL ( 'NONE', ( #49, #100, #31 ) ) ;
#85 = EDGE_LOOP ( 'NONE', ( #38 ) ) ;
#86 = DIRECTION ( 'NONE',  ( 0.000000000000000000, 1.000000000000000000, 0.000000000000000000 ) ) ;
#87 =( NAMED_UNIT ( * ) PLANE_ANGLE_UNIT ( ) SI_UNIT ( $, .RADIAN. ) );
#88 =( NAMED_UNIT ( * ) PLANE_ANGLE_UNIT ( ) SI_UNIT ( $, .RADIAN. ) );
#89 = DIRECTION ( 'NONE',  ( 0.000000000000000000, 0.000000000000000000, 1.000000000000000000 ) ) ;
#90 = APPLICATION_PROTOCOL_DEFINITION ( 'draft international standard', 'automotive_design', 1998, #102 ) ;
#91 = AXIS2_PLACEMENT_3D ( 'NONE', #40, #92, #18 ) ;
#92 = DIRECTION ( 'NONE',  ( 0.000000000000000000, 1.000000000000000000, 0.000000000000000000 ) ) ;
#93 = PRODUCT_DEFINITION_SHAPE ( 'NONE', 'NONE',  #66 ) ;
#94 = FACE_OUTER_BOUND ( 'NONE', #85, .T. ) ;
#95 = UNCERTAINTY_MEASURE_WITH_UNIT (LENGTH_MEASURE( 1.000000000000000082E-05 ), #28, 'distance_accuracy_value', 'NONE');
#96 = CARTESIAN_POINT ( 'NONE',  ( 0.000000000000000000, 100.0000000000000000, 0.000000000000000000 ) ) ;
#97 = VERTEX_POINT ( 'NONE', #107 ) ;
#98 = SURFACE_STYLE_FILL_AREA ( #72 ) ;
#99 = PRODUCT_CONTEXT ( 'NONE', #59, 'mechanical' ) ;
#100 = ADVANCED_FACE ( 'NONE', ( #42 ), #105, .T. ) ;
#101 = ORIENTED_EDGE ( 'NONE', *, *, #116, .T. ) ;
#102 = APPLICATION_CONTEXT ( 'automotive_design' ) ;
#103 =( LENGTH_UNIT ( ) NAMED_UNIT ( * ) SI_UNIT ( .MILLI., .METRE. ) );
#104 =( NAMED_UNIT ( * ) SI_UNIT ( $, .STERADIAN. ) SOLID_ANGLE_UNIT ( ) );
#105 = PLANE ( 'NONE',  #48 ) ;
#106 = UNCERTAINTY_MEASURE_WITH_UNIT (LENGTH_MEASURE( 1.000000000000000082E-05 ), #55, 'distance_accuracy_value', 'NONE');
#107 = CARTESIAN_POINT ( 'NONE',  ( 0.000000000000000000, 0.000000000000000000, 50.00000000000000000 ) ) ;
#108 =( GEOMETRIC_REPRESENTATION_CONTEXT ( 3 ) GLOBAL_UNCERTAINTY_ASSIGNED_CONTEXT ( ( #115 ) ) GLOBAL_UNIT_ASSIGNED_CONTEXT ( ( #63, #87, #71 ) ) REPRESENTATION_CONTEXT ( 'NONE', 'WORKASPACE' ) );
#109 = STYLED_ITEM ( 'NONE', ( #73 ), #1 ) ;
#110 =( GEOMETRIC_REPRESENTATION_CONTEXT ( 3 ) GLOBAL_UNCERTAINTY_ASSIGNED_CONTEXT ( ( #17 ) ) GLOBAL_UNIT_ASSIGNED_CONTEXT ( ( #77, #78, #119 ) ) REPRESENTATION_CONTEXT ( 'NONE', 'WORKASPACE' ) );
#111 =( NAMED_UNIT ( * ) SI_UNIT ( $, .STERADIAN. ) SOLID_ANGLE_UNIT ( ) );
#112 = PRODUCT_DEFINITION_CONTEXT ( 'detailed design', #102, 'design' ) ;
#113 = SURFACE_SIDE_STYLE ('',( #6 ) ) ;
#114 = MECHANICAL_DESIGN_GEOMETRIC_PRESENTATION_REPRESENTATION (  '', ( #57 ), #79 ) ;
#115 = UNCERTAINTY_MEASURE_WITH_UNIT (LENGTH_MEASURE( 1.000000000000000082E-05 ), #63, 'distance_accuracy_value', 'NONE');
#116 = EDGE_CURVE ( 'NONE', #121, #121, #29, .T. ) ;
#117 = FILL_AREA_STYLE_COLOUR ( '', #125 ) ;
#118 = SURFACE_SIDE_STYLE ('',( #98 ) ) ;
#119 =( NAMED_UNIT ( * ) SI_UNIT ( $, .STERADIAN. ) SOLID_ANGLE_UNIT ( ) );
#120 = PRESENTATION_LAYER_ASSIGNMENT (  '', '', ( #57 ) ) ;
#121 = VERTEX_POINT ( 'NONE', #45 ) ;
#122 = CARTESIAN_POINT ( 'NONE',  ( 0.000000000000000000, 0.000000000000000000, 0.000000000000000000 ) ) ;
#123 = AXIS2_PLACEMENT_3D ( 'NONE', #41, #32, #68 ) ;
#124 = MECHANICAL_DESIGN_GEOMETRIC_PRESENTATION_REPRESENTATION (  '', ( #109 ), #54 ) ;
#125 = COLOUR_RGB ( '',1.000000000000000000, 1.000000000000000000, 0.000000000000000000 ) ;
#126 = SURFACE_SIDE_STYLE ('',( #53 ) ) ;
#127 =( NAMED_UNIT ( * ) PLANE_ANGLE_UNIT ( ) SI_UNIT ( $, .RADIAN. ) );
#128 = FILL_AREA_STYLE_COLOUR ( '', #8 ) ;
#129 = UNCERTAINTY_MEASURE_WITH_UNIT (LENGTH_MEASURE( 1.000000000000000082E-05 ), #103, 'distance_accuracy_value', 'NONE');
#130 = SURFACE_STYLE_FILL_AREA ( #83 ) ;
ENDSEC;
END-ISO-10303-21;
