ISO-10303-21;
HEADER;
FILE_DESCRIPTION (( 'STEP AP214' ),
    '1' );
FILE_NAME ('C3_textured__ap214_noappear.step',
    '2026-08-06T13:09:23',
    ( '' ),
    ( '' ),
    'SwSTEP 2.0',
    'SolidWorks 2026',
    '' );
FILE_SCHEMA (( 'AUTOMOTIVE_DESIGN' ));
ENDSEC;

DATA;
#1 = CARTESIAN_POINT ( 'NONE',  ( 0.000000000000000000, 0.000000000000000000, 0.000000000000000000 ) ) ;
#2 = AXIS2_PLACEMENT_3D ( 'NONE', #80, #45, #33 ) ;
#3 = PRESENTATION_STYLE_ASSIGNMENT (( #48 ) ) ;
#4 = EDGE_LOOP ( 'NONE', ( #16 ) ) ;
#5 = COLOUR_RGB ( '',0.7921568627450980005, 0.8196078431372548767, 0.9333333333333333481 ) ;
#6 = CARTESIAN_POINT ( 'NONE',  ( 0.000000000000000000, 0.000000000000000000, 0.000000000000000000 ) ) ;
#7 = MANIFOLD_SOLID_BREP ( 'Boss-Extrude1', #61 ) ;
#8 = DIRECTION ( 'NONE',  ( 0.000000000000000000, 1.000000000000000000, 0.000000000000000000 ) ) ;
#9 =( NAMED_UNIT ( * ) SI_UNIT ( $, .STERADIAN. ) SOLID_ANGLE_UNIT ( ) );
#10 = VERTEX_POINT ( 'NONE', #78 ) ;
#11 = DIRECTION ( 'NONE',  ( 0.000000000000000000, 0.000000000000000000, 1.000000000000000000 ) ) ;
#12 = UNCERTAINTY_MEASURE_WITH_UNIT (LENGTH_MEASURE( 1.000000000000000082E-05 ), #57, 'distance_accuracy_value', 'NONE');
#13 = ADVANCED_FACE ( 'NONE', ( #84, #22 ), #35, .T. ) ;
#14 =( GEOMETRIC_REPRESENTATION_CONTEXT ( 3 ) GLOBAL_UNCERTAINTY_ASSIGNED_CONTEXT ( ( #12 ) ) GLOBAL_UNIT_ASSIGNED_CONTEXT ( ( #57, #81, #9 ) ) REPRESENTATION_CONTEXT ( 'NONE', 'WORKASPACE' ) );
#15 =( NAMED_UNIT ( * ) PLANE_ANGLE_UNIT ( ) SI_UNIT ( $, .RADIAN. ) );
#16 = ORIENTED_EDGE ( 'NONE', *, *, #38, .F. ) ;
#17 = DIRECTION ( 'NONE',  ( 1.000000000000000000, 0.000000000000000000, 0.000000000000000000 ) ) ;
#18 = DIRECTION ( 'NONE',  ( 0.000000000000000000, 0.000000000000000000, 1.000000000000000000 ) ) ;
#19 = AXIS2_PLACEMENT_3D ( 'NONE', #46, #8, #18 ) ;
#20 = PRODUCT ( 'C3_textured__ap214_noappear', 'C3_textured__ap214_noappear', '', ( #39 ) ) ;
#21 = FILL_AREA_STYLE_COLOUR ( '', #5 ) ;
#22 = FACE_OUTER_BOUND ( 'NONE', #29, .T. ) ;
#23 = ORIENTED_EDGE ( 'NONE', *, *, #38, .T. ) ;
#24 = EDGE_LOOP ( 'NONE', ( #44 ) ) ;
#25 = STYLED_ITEM ( 'NONE', ( #3 ), #7 ) ;
#26 = EDGE_LOOP ( 'NONE', ( #62 ) ) ;
#27 = ADVANCED_FACE ( 'NONE', ( #32 ), #70, .T. ) ;
#28 =( GEOMETRIC_REPRESENTATION_CONTEXT ( 3 ) GLOBAL_UNCERTAINTY_ASSIGNED_CONTEXT ( ( #30 ) ) GLOBAL_UNIT_ASSIGNED_CONTEXT ( ( #76, #15, #52 ) ) REPRESENTATION_CONTEXT ( 'NONE', 'WORKASPACE' ) );
#29 = EDGE_LOOP ( 'NONE', ( #23 ) ) ;
#30 = UNCERTAINTY_MEASURE_WITH_UNIT (LENGTH_MEASURE( 1.000000000000000082E-05 ), #76, 'distance_accuracy_value', 'NONE');
#31 = CARTESIAN_POINT ( 'NONE',  ( 0.000000000000000000, 100.0000000000000000, 0.000000000000000000 ) ) ;
#32 = FACE_OUTER_BOUND ( 'NONE', #26, .T. ) ;
#33 = DIRECTION ( 'NONE',  ( 0.000000000000000000, -0.000000000000000000, 1.000000000000000000 ) ) ;
#34 = ADVANCED_BREP_SHAPE_REPRESENTATION ( 'C3_textured__ap214_noappear', ( #7, #43 ), #14 ) ;
#35 = CYLINDRICAL_SURFACE ( 'NONE', #59, 50.00000000000000000 ) ;
#36 = DIRECTION ( 'NONE',  ( -0.000000000000000000, -1.000000000000000000, -0.000000000000000000 ) ) ;
#37 = SURFACE_STYLE_FILL_AREA ( #50 ) ;
#38 = EDGE_CURVE ( 'NONE', #66, #66, #68, .T. ) ;
#39 = PRODUCT_CONTEXT ( 'NONE', #42, 'mechanical' ) ;
#40 = PLANE ( 'NONE',  #2 ) ;
#41 = DIRECTION ( 'NONE',  ( 0.000000000000000000, 0.000000000000000000, 1.000000000000000000 ) ) ;
#42 = APPLICATION_CONTEXT ( 'automotive_design' ) ;
#43 = AXIS2_PLACEMENT_3D ( 'NONE', #1, #11, #17 ) ;
#44 = ORIENTED_EDGE ( 'NONE', *, *, #74, .F. ) ;
#45 = DIRECTION ( 'NONE',  ( 0.000000000000000000, 1.000000000000000000, 0.000000000000000000 ) ) ;
#46 = CARTESIAN_POINT ( 'NONE',  ( 0.000000000000000000, 100.0000000000000000, 0.000000000000000000 ) ) ;
#47 = ADVANCED_FACE ( 'NONE', ( #75 ), #40, .F. ) ;
#48 = SURFACE_STYLE_USAGE ( .BOTH. , #83 ) ;
#49 = APPLICATION_CONTEXT ( 'automotive_design' ) ;
#50 = FILL_AREA_STYLE ('',( #21 ) ) ;
#51 = MECHANICAL_DESIGN_GEOMETRIC_PRESENTATION_REPRESENTATION (  '', ( #25 ), #28 ) ;
#52 =( NAMED_UNIT ( * ) SI_UNIT ( $, .STERADIAN. ) SOLID_ANGLE_UNIT ( ) );
#53 = DIRECTION ( 'NONE',  ( 0.000000000000000000, 1.000000000000000000, 0.000000000000000000 ) ) ;
#54 = AXIS2_PLACEMENT_3D ( 'NONE', #6, #53, #41 ) ;
#55 = APPLICATION_PROTOCOL_DEFINITION ( 'draft international standard', 'automotive_design', 1998, #42 ) ;
#56 = PRESENTATION_LAYER_ASSIGNMENT (  '', '', ( #25 ) ) ;
#57 =( LENGTH_UNIT ( ) NAMED_UNIT ( * ) SI_UNIT ( .MILLI., .METRE. ) );
#58 = PRODUCT_RELATED_PRODUCT_CATEGORY ( 'part', '', ( #20 ) ) ;
#59 = AXIS2_PLACEMENT_3D ( 'NONE', #85, #36, #71 ) ;
#60 = PRODUCT_DEFINITION_SHAPE ( 'NONE', 'NONE',  #79 ) ;
#61 = CLOSED_SHELL ( 'NONE', ( #13, #27, #47 ) ) ;
#62 = ORIENTED_EDGE ( 'NONE', *, *, #74, .T. ) ;
#63 = DIRECTION ( 'NONE',  ( 0.000000000000000000, -0.000000000000000000, 1.000000000000000000 ) ) ;
#64 = PRODUCT_DEFINITION_FORMATION_WITH_SPECIFIED_SOURCE ( 'ANY', '', #20, .NOT_KNOWN. ) ;
#65 = SHAPE_DEFINITION_REPRESENTATION ( #60, #34 ) ;
#66 = VERTEX_POINT ( 'NONE', #73 ) ;
#67 = PRODUCT_DEFINITION_CONTEXT ( 'detailed design', #49, 'design' ) ;
#68 = CIRCLE ( 'NONE', #54, 50.00000000000000000 ) ;
#69 = DIRECTION ( 'NONE',  ( 0.000000000000000000, 1.000000000000000000, 0.000000000000000000 ) ) ;
#70 = PLANE ( 'NONE',  #82 ) ;
#71 = DIRECTION ( 'NONE',  ( 0.000000000000000000, 0.000000000000000000, -1.000000000000000000 ) ) ;
#72 = APPLICATION_PROTOCOL_DEFINITION ( 'draft international standard', 'automotive_design', 1998, #49 ) ;
#73 = CARTESIAN_POINT ( 'NONE',  ( 0.000000000000000000, 0.000000000000000000, 50.00000000000000000 ) ) ;
#74 = EDGE_CURVE ( 'NONE', #10, #10, #77, .T. ) ;
#75 = FACE_OUTER_BOUND ( 'NONE', #4, .T. ) ;
#76 =( LENGTH_UNIT ( ) NAMED_UNIT ( * ) SI_UNIT ( .MILLI., .METRE. ) );
#77 = CIRCLE ( 'NONE', #19, 50.00000000000000000 ) ;
#78 = CARTESIAN_POINT ( 'NONE',  ( 0.000000000000000000, 100.0000000000000000, 50.00000000000000000 ) ) ;
#79 = PRODUCT_DEFINITION ( 'UNKNOWN', '', #64, #67 ) ;
#80 = CARTESIAN_POINT ( 'NONE',  ( 0.000000000000000000, 0.000000000000000000, 0.000000000000000000 ) ) ;
#81 =( NAMED_UNIT ( * ) PLANE_ANGLE_UNIT ( ) SI_UNIT ( $, .RADIAN. ) );
#82 = AXIS2_PLACEMENT_3D ( 'NONE', #31, #69, #63 ) ;
#83 = SURFACE_SIDE_STYLE ('',( #37 ) ) ;
#84 = FACE_OUTER_BOUND ( 'NONE', #24, .T. ) ;
#85 = CARTESIAN_POINT ( 'NONE',  ( 0.000000000000000000, 100.0000000000000000, 0.000000000000000000 ) ) ;
ENDSEC;
END-ISO-10303-21;
