ISO-10303-21;
HEADER;
FILE_DESCRIPTION (( 'STEP AP214' ),
    '1' );
FILE_NAME ('C3_textured__ap214_appear.step',
    '2026-08-06T13:09:23',
    ( '' ),
    ( '' ),
    'SwSTEP 2.0',
    'SolidWorks 2026',
    '' );
FILE_SCHEMA (( 'AUTOMOTIVE_DESIGN' ));
ENDSEC;

DATA;
#1 = CARTESIAN_POINT ( 'NONE',  ( 0.000000000000000000, 100.0000000000000000, 50.00000000000000000 ) ) ;
#2 = SHAPE_DEFINITION_REPRESENTATION ( #12, #20 ) ;
#3 = PRESENTATION_LAYER_ASSIGNMENT (  '', '', ( #61 ) ) ;
#4 = CARTESIAN_POINT ( 'NONE',  ( 0.000000000000000000, 100.0000000000000000, 0.000000000000000000 ) ) ;
#5 = AXIS2_PLACEMENT_3D ( 'NONE', #42, #38, #35 ) ;
#6 = DIRECTION ( 'NONE',  ( 0.000000000000000000, 1.000000000000000000, 0.000000000000000000 ) ) ;
#7 = DIRECTION ( 'NONE',  ( 0.000000000000000000, 0.000000000000000000, 1.000000000000000000 ) ) ;
#8 = APPLICATION_CONTEXT ( 'automotive_design' ) ;
#9 = MANIFOLD_SOLID_BREP ( 'Boss-Extrude1', #37 ) ;
#10 =( NAMED_UNIT ( * ) SI_UNIT ( $, .STERADIAN. ) SOLID_ANGLE_UNIT ( ) );
#11 = CARTESIAN_POINT ( 'NONE',  ( 0.000000000000000000, 0.000000000000000000, 50.00000000000000000 ) ) ;
#12 = PRODUCT_DEFINITION_SHAPE ( 'NONE', 'NONE',  #63 ) ;
#13 =( GEOMETRIC_REPRESENTATION_CONTEXT ( 3 ) GLOBAL_UNCERTAINTY_ASSIGNED_CONTEXT ( ( #74 ) ) GLOBAL_UNIT_ASSIGNED_CONTEXT ( ( #80, #26, #79 ) ) REPRESENTATION_CONTEXT ( 'NONE', 'WORKASPACE' ) );
#14 = FACE_OUTER_BOUND ( 'NONE', #33, .T. ) ;
#15 = PRESENTATION_STYLE_ASSIGNMENT (( #32 ) ) ;
#16 =( NAMED_UNIT ( * ) PLANE_ANGLE_UNIT ( ) SI_UNIT ( $, .RADIAN. ) );
#17 =( LENGTH_UNIT ( ) NAMED_UNIT ( * ) SI_UNIT ( .MILLI., .METRE. ) );
#18 = CYLINDRICAL_SURFACE ( 'NONE', #5, 50.00000000000000000 ) ;
#19 = EDGE_CURVE ( 'NONE', #71, #71, #75, .T. ) ;
#20 = ADVANCED_BREP_SHAPE_REPRESENTATION ( 'C3_textured__ap214_appear', ( #9, #54 ), #40 ) ;
#21 = CARTESIAN_POINT ( 'NONE',  ( 0.000000000000000000, 100.0000000000000000, 0.000000000000000000 ) ) ;
#22 = ORIENTED_EDGE ( 'NONE', *, *, #19, .T. ) ;
#23 = SURFACE_STYLE_FILL_AREA ( #82 ) ;
#24 = CIRCLE ( 'NONE', #73, 50.00000000000000000 ) ;
#25 = CARTESIAN_POINT ( 'NONE',  ( 0.000000000000000000, 0.000000000000000000, 0.000000000000000000 ) ) ;
#26 =( NAMED_UNIT ( * ) PLANE_ANGLE_UNIT ( ) SI_UNIT ( $, .RADIAN. ) );
#27 = PRESENTATION_STYLE_ASSIGNMENT (( #41 ) ) ;
#28 = PRODUCT_DEFINITION_FORMATION_WITH_SPECIFIED_SOURCE ( 'ANY', '', #96, .NOT_KNOWN. ) ;
#29 = EDGE_LOOP ( 'NONE', ( #22 ) ) ;
#30 = PRODUCT_DEFINITION_CONTEXT ( 'detailed design', #8, 'design' ) ;
#31 = AXIS2_PLACEMENT_3D ( 'NONE', #25, #6, #49 ) ;
#32 = SURFACE_STYLE_USAGE ( .BOTH. , #76 ) ;
#33 = EDGE_LOOP ( 'NONE', ( #77 ) ) ;
#34 = APPLICATION_PROTOCOL_DEFINITION ( 'draft international standard', 'automotive_design', 1998, #36 ) ;
#35 = DIRECTION ( 'NONE',  ( 0.000000000000000000, 0.000000000000000000, -1.000000000000000000 ) ) ;
#36 = APPLICATION_CONTEXT ( 'automotive_design' ) ;
#37 = CLOSED_SHELL ( 'NONE', ( #90, #69, #84 ) ) ;
#38 = DIRECTION ( 'NONE',  ( -0.000000000000000000, -1.000000000000000000, -0.000000000000000000 ) ) ;
#39 = PLANE ( 'NONE',  #31 ) ;
#40 =( GEOMETRIC_REPRESENTATION_CONTEXT ( 3 ) GLOBAL_UNCERTAINTY_ASSIGNED_CONTEXT ( ( #92 ) ) GLOBAL_UNIT_ASSIGNED_CONTEXT ( ( #17, #16, #10 ) ) REPRESENTATION_CONTEXT ( 'NONE', 'WORKASPACE' ) );
#41 = SURFACE_STYLE_USAGE ( .BOTH. , #89 ) ;
#42 = CARTESIAN_POINT ( 'NONE',  ( 0.000000000000000000, 100.0000000000000000, 0.000000000000000000 ) ) ;
#43 = DIRECTION ( 'NONE',  ( 1.000000000000000000, 0.000000000000000000, 0.000000000000000000 ) ) ;
#44 = PRODUCT_CONTEXT ( 'NONE', #36, 'mechanical' ) ;
#45 = FILL_AREA_STYLE ('',( #86 ) ) ;
#46 = DIRECTION ( 'NONE',  ( 0.000000000000000000, 1.000000000000000000, 0.000000000000000000 ) ) ;
#47 = MECHANICAL_DESIGN_GEOMETRIC_PRESENTATION_REPRESENTATION (  '', ( #70 ), #66 ) ;
#48 =( LENGTH_UNIT ( ) NAMED_UNIT ( * ) SI_UNIT ( .MILLI., .METRE. ) );
#49 = DIRECTION ( 'NONE',  ( 0.000000000000000000, -0.000000000000000000, 1.000000000000000000 ) ) ;
#50 = FILL_AREA_STYLE_COLOUR ( '', #88 ) ;
#51 = APPLICATION_PROTOCOL_DEFINITION ( 'draft international standard', 'automotive_design', 1998, #8 ) ;
#52 = MECHANICAL_DESIGN_GEOMETRIC_PRESENTATION_REPRESENTATION (  '', ( #61 ), #13 ) ;
#53 = EDGE_LOOP ( 'NONE', ( #68 ) ) ;
#54 = AXIS2_PLACEMENT_3D ( 'NONE', #83, #100, #43 ) ;
#55 = AXIS2_PLACEMENT_3D ( 'NONE', #4, #94, #87 ) ;
#56 = EDGE_CURVE ( 'NONE', #65, #65, #24, .T. ) ;
#57 = PLANE ( 'NONE',  #55 ) ;
#58 = FACE_OUTER_BOUND ( 'NONE', #85, .T. ) ;
#59 = DIRECTION ( 'NONE',  ( 0.000000000000000000, 0.000000000000000000, 1.000000000000000000 ) ) ;
#60 = ORIENTED_EDGE ( 'NONE', *, *, #56, .F. ) ;
#61 = STYLED_ITEM ( 'NONE', ( #15 ), #9 ) ;
#62 = CARTESIAN_POINT ( 'NONE',  ( 0.000000000000000000, 0.000000000000000000, 0.000000000000000000 ) ) ;
#63 = PRODUCT_DEFINITION ( 'UNKNOWN', '', #28, #30 ) ;
#64 = AXIS2_PLACEMENT_3D ( 'NONE', #62, #98, #59 ) ;
#65 = VERTEX_POINT ( 'NONE', #1 ) ;
#66 =( GEOMETRIC_REPRESENTATION_CONTEXT ( 3 ) GLOBAL_UNCERTAINTY_ASSIGNED_CONTEXT ( ( #78 ) ) GLOBAL_UNIT_ASSIGNED_CONTEXT ( ( #48, #91, #72 ) ) REPRESENTATION_CONTEXT ( 'NONE', 'WORKASPACE' ) );
#67 = FACE_OUTER_BOUND ( 'NONE', #53, .T. ) ;
#68 = ORIENTED_EDGE ( 'NONE', *, *, #56, .T. ) ;
#69 = ADVANCED_FACE ( 'NONE', ( #67 ), #57, .T. ) ;
#70 = STYLED_ITEM ( 'NONE', ( #27 ), #90 ) ;
#71 = VERTEX_POINT ( 'NONE', #11 ) ;
#72 =( NAMED_UNIT ( * ) SI_UNIT ( $, .STERADIAN. ) SOLID_ANGLE_UNIT ( ) );
#73 = AXIS2_PLACEMENT_3D ( 'NONE', #21, #46, #7 ) ;
#74 = UNCERTAINTY_MEASURE_WITH_UNIT (LENGTH_MEASURE( 1.000000000000000082E-05 ), #80, 'distance_accuracy_value', 'NONE');
#75 = CIRCLE ( 'NONE', #64, 50.00000000000000000 ) ;
#76 = SURFACE_SIDE_STYLE ('',( #99 ) ) ;
#77 = ORIENTED_EDGE ( 'NONE', *, *, #19, .F. ) ;
#78 = UNCERTAINTY_MEASURE_WITH_UNIT (LENGTH_MEASURE( 1.000000000000000082E-05 ), #48, 'distance_accuracy_value', 'NONE');
#79 =( NAMED_UNIT ( * ) SI_UNIT ( $, .STERADIAN. ) SOLID_ANGLE_UNIT ( ) );
#80 =( LENGTH_UNIT ( ) NAMED_UNIT ( * ) SI_UNIT ( .MILLI., .METRE. ) );
#81 = FACE_OUTER_BOUND ( 'NONE', #29, .T. ) ;
#82 = FILL_AREA_STYLE ('',( #50 ) ) ;
#83 = CARTESIAN_POINT ( 'NONE',  ( 0.000000000000000000, 0.000000000000000000, 0.000000000000000000 ) ) ;
#84 = ADVANCED_FACE ( 'NONE', ( #14 ), #39, .F. ) ;
#85 = EDGE_LOOP ( 'NONE', ( #60 ) ) ;
#86 = FILL_AREA_STYLE_COLOUR ( '', #95 ) ;
#87 = DIRECTION ( 'NONE',  ( 0.000000000000000000, -0.000000000000000000, 1.000000000000000000 ) ) ;
#88 = COLOUR_RGB ( '',1.000000000000000000, 1.000000000000000000, 1.000000000000000000 ) ;
#89 = SURFACE_SIDE_STYLE ('',( #23 ) ) ;
#90 = ADVANCED_FACE ( 'NONE', ( #58, #81 ), #18, .T. ) ;
#91 =( NAMED_UNIT ( * ) PLANE_ANGLE_UNIT ( ) SI_UNIT ( $, .RADIAN. ) );
#92 = UNCERTAINTY_MEASURE_WITH_UNIT (LENGTH_MEASURE( 1.000000000000000082E-05 ), #17, 'distance_accuracy_value', 'NONE');
#93 = PRESENTATION_LAYER_ASSIGNMENT (  '', '', ( #70 ) ) ;
#94 = DIRECTION ( 'NONE',  ( 0.000000000000000000, 1.000000000000000000, 0.000000000000000000 ) ) ;
#95 = COLOUR_RGB ( '',0.8941176470588234615, 0.8941176470588234615, 0.8941176470588234615 ) ;
#96 = PRODUCT ( 'C3_textured__ap214_appear', 'C3_textured__ap214_appear', '', ( #44 ) ) ;
#97 = PRODUCT_RELATED_PRODUCT_CATEGORY ( 'part', '', ( #96 ) ) ;
#98 = DIRECTION ( 'NONE',  ( 0.000000000000000000, 1.000000000000000000, 0.000000000000000000 ) ) ;
#99 = SURFACE_STYLE_FILL_AREA ( #45 ) ;
#100 = DIRECTION ( 'NONE',  ( 0.000000000000000000, 0.000000000000000000, 1.000000000000000000 ) ) ;
ENDSEC;
END-ISO-10303-21;
