ISO-10303-21;
HEADER;
FILE_DESCRIPTION (( 'STEP AP214' ),
    '1' );
FILE_NAME ('C3_textured__ap214_appear_fe.step',
    '2026-08-06T13:09:23',
    ( '' ),
    ( '' ),
    'SwSTEP 2.0',
    'SolidWorks 2026',
    '' );
FILE_SCHEMA (( 'AUTOMOTIVE_DESIGN' ));
ENDSEC;

DATA;
#1 = VERTEX_POINT ( 'NONE', #41 ) ;
#2 = ADVANCED_FACE ( 'NONE', ( #50, #31 ), #30, .T. ) ;
#3 = CLOSED_SHELL ( 'NONE', ( #2, #29, #70 ) ) ;
#4 = DIRECTION ( 'NONE',  ( 0.000000000000000000, 1.000000000000000000, 0.000000000000000000 ) ) ;
#5 = ORIENTED_EDGE ( 'NONE', *, *, #76, .T. ) ;
#6 = PRODUCT ( 'C3_textured__ap214_appear_fe', 'C3_textured__ap214_appear_fe', '', ( #56 ) ) ;
#7 = FILL_AREA_STYLE ('',( #9 ) ) ;
#8 = PRESENTATION_LAYER_ASSIGNMENT (  '', '', ( #40 ) ) ;
#9 = FILL_AREA_STYLE_COLOUR ( '', #75 ) ;
#10 = DIRECTION ( 'NONE',  ( -0.000000000000000000, -1.000000000000000000, -0.000000000000000000 ) ) ;
#11 = SURFACE_STYLE_USAGE ( .BOTH. , #99 ) ;
#12 = VERTEX_POINT ( 'NONE', #25 ) ;
#13 = APPLICATION_PROTOCOL_DEFINITION ( 'draft international standard', 'automotive_design', 1998, #26 ) ;
#14 = DIRECTION ( 'NONE',  ( 1.000000000000000000, 0.000000000000000000, 0.000000000000000000 ) ) ;
#15 = SURFACE_STYLE_FILL_AREA ( #7 ) ;
#16 = DIRECTION ( 'NONE',  ( 0.000000000000000000, 0.000000000000000000, 1.000000000000000000 ) ) ;
#17 =( NAMED_UNIT ( * ) PLANE_ANGLE_UNIT ( ) SI_UNIT ( $, .RADIAN. ) );
#18 = APPLICATION_PROTOCOL_DEFINITION ( 'draft international standard', 'automotive_design', 1998, #35 ) ;
#19 = ADVANCED_BREP_SHAPE_REPRESENTATION ( 'C3_textured__ap214_appear_fe', ( #73, #91 ), #49 ) ;
#20 = CIRCLE ( 'NONE', #77, 50.00000000000000000 ) ;
#21 = EDGE_LOOP ( 'NONE', ( #85 ) ) ;
#22 = EDGE_LOOP ( 'NONE', ( #57 ) ) ;
#23 = CARTESIAN_POINT ( 'NONE',  ( 0.000000000000000000, 100.0000000000000000, 0.000000000000000000 ) ) ;
#24 = EDGE_CURVE ( 'NONE', #12, #12, #65, .T. ) ;
#25 = CARTESIAN_POINT ( 'NONE',  ( 0.000000000000000000, 100.0000000000000000, 50.00000000000000000 ) ) ;
#26 = APPLICATION_CONTEXT ( 'automotive_design' ) ;
#27 = PLANE ( 'NONE',  #28 ) ;
#28 = AXIS2_PLACEMENT_3D ( 'NONE', #43, #78, #48 ) ;
#29 = ADVANCED_FACE ( 'NONE', ( #86 ), #95, .T. ) ;
#30 = CYLINDRICAL_SURFACE ( 'NONE', #55, 50.00000000000000000 ) ;
#31 = FACE_OUTER_BOUND ( 'NONE', #64, .T. ) ;
#32 = DIRECTION ( 'NONE',  ( 0.000000000000000000, 0.000000000000000000, 1.000000000000000000 ) ) ;
#33 =( LENGTH_UNIT ( ) NAMED_UNIT ( * ) SI_UNIT ( .MILLI., .METRE. ) );
#34 = SURFACE_STYLE_FILL_AREA ( #98 ) ;
#35 = APPLICATION_CONTEXT ( 'automotive_design' ) ;
#36 = EDGE_LOOP ( 'NONE', ( #84 ) ) ;
#37 = PRESENTATION_STYLE_ASSIGNMENT (( #52 ) ) ;
#38 = COLOUR_RGB ( '',0.8941176470588234615, 0.8941176470588234615, 0.8941176470588234615 ) ;
#39 = FACE_OUTER_BOUND ( 'NONE', #22, .T. ) ;
#40 = STYLED_ITEM ( 'NONE', ( #79 ), #73 ) ;
#41 = CARTESIAN_POINT ( 'NONE',  ( 0.000000000000000000, 0.000000000000000000, 50.00000000000000000 ) ) ;
#42 =( GEOMETRIC_REPRESENTATION_CONTEXT ( 3 ) GLOBAL_UNCERTAINTY_ASSIGNED_CONTEXT ( ( #83 ) ) GLOBAL_UNIT_ASSIGNED_CONTEXT ( ( #100, #92, #44 ) ) REPRESENTATION_CONTEXT ( 'NONE', 'WORKASPACE' ) );
#43 = CARTESIAN_POINT ( 'NONE',  ( 0.000000000000000000, 0.000000000000000000, 0.000000000000000000 ) ) ;
#44 =( NAMED_UNIT ( * ) SI_UNIT ( $, .STERADIAN. ) SOLID_ANGLE_UNIT ( ) );
#45 = MECHANICAL_DESIGN_GEOMETRIC_PRESENTATION_REPRESENTATION (  '', ( #82 ), #42 ) ;
#46 = CARTESIAN_POINT ( 'NONE',  ( 0.000000000000000000, 100.0000000000000000, 0.000000000000000000 ) ) ;
#47 =( LENGTH_UNIT ( ) NAMED_UNIT ( * ) SI_UNIT ( .MILLI., .METRE. ) );
#48 = DIRECTION ( 'NONE',  ( 0.000000000000000000, -0.000000000000000000, 1.000000000000000000 ) ) ;
#49 =( GEOMETRIC_REPRESENTATION_CONTEXT ( 3 ) GLOBAL_UNCERTAINTY_ASSIGNED_CONTEXT ( ( #94 ) ) GLOBAL_UNIT_ASSIGNED_CONTEXT ( ( #47, #17, #89 ) ) REPRESENTATION_CONTEXT ( 'NONE', 'WORKASPACE' ) );
#50 = FACE_OUTER_BOUND ( 'NONE', #36, .T. ) ;
#51 = MECHANICAL_DESIGN_GEOMETRIC_PRESENTATION_REPRESENTATION (  '', ( #40 ), #62 ) ;
#52 = SURFACE_STYLE_USAGE ( .BOTH. , #53 ) ;
#53 = SURFACE_SIDE_STYLE ('',( #15 ) ) ;
#54 = CARTESIAN_POINT ( 'NONE',  ( 0.000000000000000000, 0.000000000000000000, 0.000000000000000000 ) ) ;
#55 = AXIS2_PLACEMENT_3D ( 'NONE', #46, #10, #58 ) ;
#56 = PRODUCT_CONTEXT ( 'NONE', #26, 'mechanical' ) ;
#57 = ORIENTED_EDGE ( 'NONE', *, *, #76, .F. ) ;
#58 = DIRECTION ( 'NONE',  ( 0.000000000000000000, 0.000000000000000000, -1.000000000000000000 ) ) ;
#59 = AXIS2_PLACEMENT_3D ( 'NONE', #23, #4, #87 ) ;
#60 = DIRECTION ( 'NONE',  ( 0.000000000000000000, 1.000000000000000000, 0.000000000000000000 ) ) ;
#61 = PRODUCT_DEFINITION ( 'UNKNOWN', '', #63, #93 ) ;
#62 =( GEOMETRIC_REPRESENTATION_CONTEXT ( 3 ) GLOBAL_UNCERTAINTY_ASSIGNED_CONTEXT ( ( #67 ) ) GLOBAL_UNIT_ASSIGNED_CONTEXT ( ( #33, #72, #88 ) ) REPRESENTATION_CONTEXT ( 'NONE', 'WORKASPACE' ) );
#63 = PRODUCT_DEFINITION_FORMATION_WITH_SPECIFIED_SOURCE ( 'ANY', '', #6, .NOT_KNOWN. ) ;
#64 = EDGE_LOOP ( 'NONE', ( #5 ) ) ;
#65 = CIRCLE ( 'NONE', #71, 50.00000000000000000 ) ;
#66 = PRODUCT_DEFINITION_SHAPE ( 'NONE', 'NONE',  #61 ) ;
#67 = UNCERTAINTY_MEASURE_WITH_UNIT (LENGTH_MEASURE( 1.000000000000000082E-05 ), #33, 'distance_accuracy_value', 'NONE');
#68 = PRODUCT_RELATED_PRODUCT_CATEGORY ( 'part', '', ( #6 ) ) ;
#69 = CARTESIAN_POINT ( 'NONE',  ( 0.000000000000000000, 100.0000000000000000, 0.000000000000000000 ) ) ;
#70 = ADVANCED_FACE ( 'NONE', ( #39 ), #27, .F. ) ;
#71 = AXIS2_PLACEMENT_3D ( 'NONE', #69, #74, #16 ) ;
#72 =( NAMED_UNIT ( * ) PLANE_ANGLE_UNIT ( ) SI_UNIT ( $, .RADIAN. ) );
#73 = MANIFOLD_SOLID_BREP ( 'Boss-Extrude1', #3 ) ;
#74 = DIRECTION ( 'NONE',  ( 0.000000000000000000, 1.000000000000000000, 0.000000000000000000 ) ) ;
#75 = COLOUR_RGB ( '',1.000000000000000000, 1.000000000000000000, 1.000000000000000000 ) ;
#76 = EDGE_CURVE ( 'NONE', #1, #1, #20, .T. ) ;
#77 = AXIS2_PLACEMENT_3D ( 'NONE', #90, #60, #97 ) ;
#78 = DIRECTION ( 'NONE',  ( 0.000000000000000000, 1.000000000000000000, 0.000000000000000000 ) ) ;
#79 = PRESENTATION_STYLE_ASSIGNMENT (( #11 ) ) ;
#80 = SHAPE_DEFINITION_REPRESENTATION ( #66, #19 ) ;
#81 = FILL_AREA_STYLE_COLOUR ( '', #38 ) ;
#82 = STYLED_ITEM ( 'NONE', ( #37 ), #2 ) ;
#83 = UNCERTAINTY_MEASURE_WITH_UNIT (LENGTH_MEASURE( 1.000000000000000082E-05 ), #100, 'distance_accuracy_value', 'NONE');
#84 = ORIENTED_EDGE ( 'NONE', *, *, #24, .F. ) ;
#85 = ORIENTED_EDGE ( 'NONE', *, *, #24, .T. ) ;
#86 = FACE_OUTER_BOUND ( 'NONE', #21, .T. ) ;
#87 = DIRECTION ( 'NONE',  ( 0.000000000000000000, -0.000000000000000000, 1.000000000000000000 ) ) ;
#88 =( NAMED_UNIT ( * ) SI_UNIT ( $, .STERADIAN. ) SOLID_ANGLE_UNIT ( ) );
#89 =( NAMED_UNIT ( * ) SI_UNIT ( $, .STERADIAN. ) SOLID_ANGLE_UNIT ( ) );
#90 = CARTESIAN_POINT ( 'NONE',  ( 0.000000000000000000, 0.000000000000000000, 0.000000000000000000 ) ) ;
#91 = AXIS2_PLACEMENT_3D ( 'NONE', #54, #32, #14 ) ;
#92 =( NAMED_UNIT ( * ) PLANE_ANGLE_UNIT ( ) SI_UNIT ( $, .RADIAN. ) );
#93 = PRODUCT_DEFINITION_CONTEXT ( 'detailed design', #35, 'design' ) ;
#94 = UNCERTAINTY_MEASURE_WITH_UNIT (LENGTH_MEASURE( 1.000000000000000082E-05 ), #47, 'distance_accuracy_value', 'NONE');
#95 = PLANE ( 'NONE',  #59 ) ;
#96 = PRESENTATION_LAYER_ASSIGNMENT (  '', '', ( #82 ) ) ;
#97 = DIRECTION ( 'NONE',  ( 0.000000000000000000, 0.000000000000000000, 1.000000000000000000 ) ) ;
#98 = FILL_AREA_STYLE ('',( #81 ) ) ;
#99 = SURFACE_SIDE_STYLE ('',( #34 ) ) ;
#100 =( LENGTH_UNIT ( ) NAMED_UNIT ( * ) SI_UNIT ( .MILLI., .METRE. ) );
ENDSEC;
END-ISO-10303-21;
