ISO-10303-21;
HEADER;
FILE_DESCRIPTION (( 'STEP AP203' ),
    '1' );
FILE_NAME ('C3_textured__ap203.step',
    '2026-08-06T13:09:23',
    ( '' ),
    ( '' ),
    'SwSTEP 2.0',
    'SolidWorks 2026',
    '' );
FILE_SCHEMA (( 'CONFIG_CONTROL_DESIGN' ));
ENDSEC;

DATA;
#1 = EDGE_CURVE ( 'NONE', #121, #121, #66, .T. ) ;
#2 = PERSON_AND_ORGANIZATION ( #23, #64 ) ;
#3 = AXIS2_PLACEMENT_3D ( 'NONE', #116, #26, #56 ) ;
#4 = LOCAL_TIME ( 14, 9, 23.00000000000000000, #19 ) ;
#5 = LOCAL_TIME ( 14, 9, 23.00000000000000000, #100 ) ;
#6 = DIRECTION ( 'NONE',  ( -0.000000000000000000, -1.000000000000000000, -0.000000000000000000 ) ) ;
#7 = APPROVAL_DATE_TIME ( #14, #71 ) ;
#8 = PERSON_AND_ORGANIZATION ( #23, #64 ) ;
#9 = CC_DESIGN_PERSON_AND_ORGANIZATION_ASSIGNMENT ( #109, #17, ( #89 ) ) ;
#10 = EDGE_LOOP ( 'NONE', ( #78 ) ) ;
#11 = LOCAL_TIME ( 14, 9, 23.00000000000000000, #102 ) ;
#12 =( NAMED_UNIT ( * ) PLANE_ANGLE_UNIT ( ) SI_UNIT ( $, .RADIAN. ) );
#13 = DIRECTION ( 'NONE',  ( 1.000000000000000000, 0.000000000000000000, 0.000000000000000000 ) ) ;
#14 = DATE_AND_TIME ( #67, #119 ) ;
#15 = CARTESIAN_POINT ( 'NONE',  ( 0.000000000000000000, 0.000000000000000000, 0.000000000000000000 ) ) ;
#16 = CC_DESIGN_APPROVAL ( #18, ( #44 ) ) ;
#17 = PERSON_AND_ORGANIZATION_ROLE ( 'creator' ) ;
#18 = APPROVAL ( #112, 'UNSPECIFIED' ) ;
#19 = COORDINATED_UNIVERSAL_TIME_OFFSET ( 0, 0, .AHEAD. ) ;
#20 = CC_DESIGN_PERSON_AND_ORGANIZATION_ASSIGNMENT ( #55, #106, ( #94 ) ) ;
#21 = EDGE_LOOP ( 'NONE', ( #126 ) ) ;
#22 = DIRECTION ( 'NONE',  ( 0.000000000000000000, 1.000000000000000000, 0.000000000000000000 ) ) ;
#23 = PERSON ( 'UNSPECIFIED', 'UNSPECIFIED', 'UNSPECIFIED', ('UNSPECIFIED'), ('UNSPECIFIED'), ('UNSPECIFIED') ) ;
#24 = FACE_OUTER_BOUND ( 'NONE', #128, .T. ) ;
#25 =( GEOMETRIC_REPRESENTATION_CONTEXT ( 3 ) GLOBAL_UNCERTAINTY_ASSIGNED_CONTEXT ( ( #81 ) ) GLOBAL_UNIT_ASSIGNED_CONTEXT ( ( #108, #12, #82 ) ) REPRESENTATION_CONTEXT ( 'NONE', 'WORKASPACE' ) );
#26 = DIRECTION ( 'NONE',  ( 0.000000000000000000, 1.000000000000000000, 0.000000000000000000 ) ) ;
#27 = APPROVAL_STATUS ( 'not_yet_approved' ) ;
#28 = CC_DESIGN_DATE_AND_TIME_ASSIGNMENT ( #29, #76, ( #39 ) ) ;
#29 = DATE_AND_TIME ( #86, #11 ) ;
#30 = PERSON_AND_ORGANIZATION ( #23, #64 ) ;
#31 = EDGE_LOOP ( 'NONE', ( #77 ) ) ;
#32 = AXIS2_PLACEMENT_3D ( 'NONE', #15, #37, #73 ) ;
#33 = CARTESIAN_POINT ( 'NONE',  ( 0.000000000000000000, 100.0000000000000000, 50.00000000000000000 ) ) ;
#34 = APPROVAL_ROLE ( '' ) ;
#35 = EDGE_CURVE ( 'NONE', #97, #97, #84, .T. ) ;
#36 = CC_DESIGN_SECURITY_CLASSIFICATION ( #39, ( #44 ) ) ;
#37 = DIRECTION ( 'NONE',  ( 0.000000000000000000, 1.000000000000000000, 0.000000000000000000 ) ) ;
#38 = APPLICATION_PROTOCOL_DEFINITION ( 'international standard', 'config_control_design', 1994, #120 ) ;
#39 = SECURITY_CLASSIFICATION ( '', '', #41 ) ;
#40 = APPROVAL_STATUS ( 'not_yet_approved' ) ;
#41 = SECURITY_CLASSIFICATION_LEVEL ( 'unclassified' ) ;
#42 = ORIENTED_EDGE ( 'NONE', *, *, #1, .T. ) ;
#43 = APPLICATION_CONTEXT ( 'configuration controlled 3d designs of mechanical parts and assemblies' ) ;
#44 = PRODUCT_DEFINITION_FORMATION_WITH_SPECIFIED_SOURCE ( 'ANY', '', #94, .NOT_KNOWN. ) ;
#45 = FACE_OUTER_BOUND ( 'NONE', #31, .T. ) ;
#46 = LOCAL_TIME ( 14, 9, 23.00000000000000000, #62 ) ;
#47 = CC_DESIGN_PERSON_AND_ORGANIZATION_ASSIGNMENT ( #2, #103, ( #44 ) ) ;
#48 = CARTESIAN_POINT ( 'NONE',  ( 0.000000000000000000, 0.000000000000000000, 50.00000000000000000 ) ) ;
#49 = DATE_TIME_ROLE ( 'creation_date' ) ;
#50 = SHAPE_DEFINITION_REPRESENTATION ( #80, #61 ) ;
#51 = CLOSED_SHELL ( 'NONE', ( #53, #124, #75 ) ) ;
#52 = DATE_AND_TIME ( #88, #5 ) ;
#53 = ADVANCED_FACE ( 'NONE', ( #96, #45 ), #130, .T. ) ;
#54 = PLANE ( 'NONE',  #3 ) ;
#55 = PERSON_AND_ORGANIZATION ( #23, #64 ) ;
#56 = DIRECTION ( 'NONE',  ( 0.000000000000000000, -0.000000000000000000, 1.000000000000000000 ) ) ;
#57 = DIRECTION ( 'NONE',  ( 0.000000000000000000, 1.000000000000000000, 0.000000000000000000 ) ) ;
#58 = APPROVAL_PERSON_ORGANIZATION ( #30, #105, #134 ) ;
#59 = CALENDAR_DATE ( 2026, 6, 8 ) ;
#60 = MECHANICAL_CONTEXT ( 'NONE', #120, 'mechanical' ) ;
#61 = ADVANCED_BREP_SHAPE_REPRESENTATION ( 'C3_textured__ap203', ( #92, #69 ), #25 ) ;
#62 = COORDINATED_UNIVERSAL_TIME_OFFSET ( 0, 0, .AHEAD. ) ;
#63 = COORDINATED_UNIVERSAL_TIME_OFFSET ( 0, 0, .AHEAD. ) ;
#64 = ORGANIZATION ( 'UNSPECIFIED', 'UNSPECIFIED', '' ) ;
#65 = APPROVAL_DATE_TIME ( #85, #105 ) ;
#66 = CIRCLE ( 'NONE', #131, 50.00000000000000000 ) ;
#67 = CALENDAR_DATE ( 2026, 6, 8 ) ;
#68 = CC_DESIGN_PERSON_AND_ORGANIZATION_ASSIGNMENT ( #8, #135, ( #39 ) ) ;
#69 = AXIS2_PLACEMENT_3D ( 'NONE', #91, #132, #13 ) ;
#70 = CC_DESIGN_APPROVAL ( #105, ( #39 ) ) ;
#71 = APPROVAL ( #27, 'UNSPECIFIED' ) ;
#72 = PLANE ( 'NONE',  #79 ) ;
#73 = DIRECTION ( 'NONE',  ( 0.000000000000000000, 0.000000000000000000, 1.000000000000000000 ) ) ;
#74 = APPROVAL_ROLE ( '' ) ;
#75 = ADVANCED_FACE ( 'NONE', ( #122 ), #54, .F. ) ;
#76 = DATE_TIME_ROLE ( 'classification_date' ) ;
#77 = ORIENTED_EDGE ( 'NONE', *, *, #35, .T. ) ;
#78 = ORIENTED_EDGE ( 'NONE', *, *, #1, .F. ) ;
#79 = AXIS2_PLACEMENT_3D ( 'NONE', #123, #57, #83 ) ;
#80 = PRODUCT_DEFINITION_SHAPE ( 'NONE', 'NONE',  #89 ) ;
#81 = UNCERTAINTY_MEASURE_WITH_UNIT (LENGTH_MEASURE( 1.000000000000000082E-05 ), #108, 'distance_accuracy_value', 'NONE');
#82 =( NAMED_UNIT ( * ) SI_UNIT ( $, .STERADIAN. ) SOLID_ANGLE_UNIT ( ) );
#83 = DIRECTION ( 'NONE',  ( 0.000000000000000000, -0.000000000000000000, 1.000000000000000000 ) ) ;
#84 = CIRCLE ( 'NONE', #32, 50.00000000000000000 ) ;
#85 = DATE_AND_TIME ( #101, #4 ) ;
#86 = CALENDAR_DATE ( 2026, 6, 8 ) ;
#87 = PRODUCT_RELATED_PRODUCT_CATEGORY ( 'detail', '', ( #94 ) ) ;
#88 = CALENDAR_DATE ( 2026, 6, 8 ) ;
#89 = PRODUCT_DEFINITION ( 'UNKNOWN', '', #44, #114 ) ;
#90 = APPROVAL_PERSON_ORGANIZATION ( #133, #71, #34 ) ;
#91 = CARTESIAN_POINT ( 'NONE',  ( 0.000000000000000000, 0.000000000000000000, 0.000000000000000000 ) ) ;
#92 = MANIFOLD_SOLID_BREP ( 'Boss-Extrude1', #51 ) ;
#93 = APPLICATION_PROTOCOL_DEFINITION ( 'international standard', 'config_control_design', 1994, #43 ) ;
#94 = PRODUCT ( 'C3_textured__ap203', 'C3_textured__ap203', '', ( #60 ) ) ;
#95 = CC_DESIGN_PERSON_AND_ORGANIZATION_ASSIGNMENT ( #99, #110, ( #44 ) ) ;
#96 = FACE_OUTER_BOUND ( 'NONE', #10, .T. ) ;
#97 = VERTEX_POINT ( 'NONE', #48 ) ;
#98 = DATE_AND_TIME ( #59, #46 ) ;
#99 = PERSON_AND_ORGANIZATION ( #23, #64 ) ;
#100 = COORDINATED_UNIVERSAL_TIME_OFFSET ( 0, 0, .AHEAD. ) ;
#101 = CALENDAR_DATE ( 2026, 6, 8 ) ;
#102 = COORDINATED_UNIVERSAL_TIME_OFFSET ( 0, 0, .AHEAD. ) ;
#103 = PERSON_AND_ORGANIZATION_ROLE ( 'creator' ) ;
#104 = DIRECTION ( 'NONE',  ( 0.000000000000000000, 0.000000000000000000, 1.000000000000000000 ) ) ;
#105 = APPROVAL ( #40, 'UNSPECIFIED' ) ;
#106 = PERSON_AND_ORGANIZATION_ROLE ( 'design_owner' ) ;
#107 = CARTESIAN_POINT ( 'NONE',  ( 0.000000000000000000, 100.0000000000000000, 0.000000000000000000 ) ) ;
#108 =( LENGTH_UNIT ( ) NAMED_UNIT ( * ) SI_UNIT ( .MILLI., .METRE. ) );
#109 = PERSON_AND_ORGANIZATION ( #23, #64 ) ;
#110 = PERSON_AND_ORGANIZATION_ROLE ( 'design_supplier' ) ;
#111 = CC_DESIGN_APPROVAL ( #71, ( #89 ) ) ;
#112 = APPROVAL_STATUS ( 'not_yet_approved' ) ;
#113 = CARTESIAN_POINT ( 'NONE',  ( 0.000000000000000000, 100.0000000000000000, 0.000000000000000000 ) ) ;
#114 = DESIGN_CONTEXT ( 'detailed design', #43, 'design' ) ;
#115 = CC_DESIGN_DATE_AND_TIME_ASSIGNMENT ( #98, #49, ( #89 ) ) ;
#116 = CARTESIAN_POINT ( 'NONE',  ( 0.000000000000000000, 0.000000000000000000, 0.000000000000000000 ) ) ;
#117 = APPROVAL_PERSON_ORGANIZATION ( #125, #18, #74 ) ;
#118 = DIRECTION ( 'NONE',  ( 0.000000000000000000, 0.000000000000000000, -1.000000000000000000 ) ) ;
#119 = LOCAL_TIME ( 14, 9, 23.00000000000000000, #63 ) ;
#120 = APPLICATION_CONTEXT ( 'configuration controlled 3d designs of mechanical parts and assemblies' ) ;
#121 = VERTEX_POINT ( 'NONE', #33 ) ;
#122 = FACE_OUTER_BOUND ( 'NONE', #21, .T. ) ;
#123 = CARTESIAN_POINT ( 'NONE',  ( 0.000000000000000000, 100.0000000000000000, 0.000000000000000000 ) ) ;
#124 = ADVANCED_FACE ( 'NONE', ( #24 ), #72, .T. ) ;
#125 = PERSON_AND_ORGANIZATION ( #23, #64 ) ;
#126 = ORIENTED_EDGE ( 'NONE', *, *, #35, .F. ) ;
#127 = APPROVAL_DATE_TIME ( #52, #18 ) ;
#128 = EDGE_LOOP ( 'NONE', ( #42 ) ) ;
#129 = AXIS2_PLACEMENT_3D ( 'NONE', #107, #6, #118 ) ;
#130 = CYLINDRICAL_SURFACE ( 'NONE', #129, 50.00000000000000000 ) ;
#131 = AXIS2_PLACEMENT_3D ( 'NONE', #113, #22, #104 ) ;
#132 = DIRECTION ( 'NONE',  ( 0.000000000000000000, 0.000000000000000000, 1.000000000000000000 ) ) ;
#133 = PERSON_AND_ORGANIZATION ( #23, #64 ) ;
#134 = APPROVAL_ROLE ( '' ) ;
#135 = PERSON_AND_ORGANIZATION_ROLE ( 'classification_officer' ) ;
ENDSEC;
END-ISO-10303-21;
