ISO-10303-21;
HEADER;
FILE_DESCRIPTION (( 'STEP AP214' ),
    '1' );
FILE_NAME ('C3_textured__ap214_nosplit.step',
    '2026-08-06T13:09:23',
    ( '' ),
    ( '' ),
    'SwSTEP 2.0',
    'SolidWorks 2026',
    '' );
FILE_SCHEMA (( 'AUTOMOTIVE_DESIGN' ));
ENDSEC;

DATA;
#1 = DIRECTION ( 'NONE',  ( 1.000000000000000000, 0.000000000000000000, 0.000000000000000000 ) ) ;
#2 = CARTESIAN_POINT ( 'NONE',  ( 0.000000000000000000, 100.0000000000000000, 50.00000000000000000 ) ) ;
#3 = STYLED_ITEM ( 'NONE', ( #84 ), #11 ) ;
#4 = EDGE_LOOP ( 'NONE', ( #93 ) ) ;
#5 = CARTESIAN_POINT ( 'NONE',  ( 0.000000000000000000, 0.000000000000000000, 0.000000000000000000 ) ) ;
#6 = PRODUCT_DEFINITION_SHAPE ( 'NONE', 'NONE',  #99 ) ;
#7 = FILL_AREA_STYLE ('',( #77 ) ) ;
#8 = STYLED_ITEM ( 'NONE', ( #80 ), #42 ) ;
#9 = DIRECTION ( 'NONE',  ( 0.000000000000000000, 0.000000000000000000, -1.000000000000000000 ) ) ;
#10 = CIRCLE ( 'NONE', #64, 50.00000000000000000 ) ;
#11 = ADVANCED_FACE ( 'NONE', ( #47, #86 ), #83, .T. ) ;
#12 = SURFACE_STYLE_USAGE ( .BOTH. , #98 ) ;
#13 = DIRECTION ( 'NONE',  ( -0.000000000000000000, -1.000000000000000000, -0.000000000000000000 ) ) ;
#14 = APPLICATION_PROTOCOL_DEFINITION ( 'draft international standard', 'automotive_design', 1998, #76 ) ;
#15 =( NAMED_UNIT ( * ) SI_UNIT ( $, .STERADIAN. ) SOLID_ANGLE_UNIT ( ) );
#16 = APPLICATION_CONTEXT ( 'automotive_design' ) ;
#17 =( LENGTH_UNIT ( ) NAMED_UNIT ( * ) SI_UNIT ( .MILLI., .METRE. ) );
#18 = FILL_AREA_STYLE ('',( #66 ) ) ;
#19 =( LENGTH_UNIT ( ) NAMED_UNIT ( * ) SI_UNIT ( .MILLI., .METRE. ) );
#20 = CARTESIAN_POINT ( 'NONE',  ( 0.000000000000000000, 0.000000000000000000, 50.00000000000000000 ) ) ;
#21 = PRODUCT_DEFINITION_CONTEXT ( 'detailed design', #76, 'design' ) ;
#22 = CARTESIAN_POINT ( 'NONE',  ( 0.000000000000000000, 100.0000000000000000, 0.000000000000000000 ) ) ;
#23 = PRODUCT_RELATED_PRODUCT_CATEGORY ( 'part', '', ( #24 ) ) ;
#24 = PRODUCT ( 'C3_textured__ap214_nosplit', 'C3_textured__ap214_nosplit', '', ( #44 ) ) ;
#25 = CIRCLE ( 'NONE', #79, 50.00000000000000000 ) ;
#26 = DIRECTION ( 'NONE',  ( 0.000000000000000000, -0.000000000000000000, 1.000000000000000000 ) ) ;
#27 = EDGE_LOOP ( 'NONE', ( #78 ) ) ;
#28 = AXIS2_PLACEMENT_3D ( 'NONE', #41, #57, #1 ) ;
#29 =( NAMED_UNIT ( * ) SI_UNIT ( $, .STERADIAN. ) SOLID_ANGLE_UNIT ( ) );
#30 = APPLICATION_PROTOCOL_DEFINITION ( 'draft international standard', 'automotive_design', 1998, #16 ) ;
#31 = SHAPE_DEFINITION_REPRESENTATION ( #6, #53 ) ;
#32 = PLANE ( 'NONE',  #48 ) ;
#33 = UNCERTAINTY_MEASURE_WITH_UNIT (LENGTH_MEASURE( 1.000000000000000082E-05 ), #45, 'distance_accuracy_value', 'NONE');
#34 = DIRECTION ( 'NONE',  ( 0.000000000000000000, 1.000000000000000000, 0.000000000000000000 ) ) ;
#35 = AXIS2_PLACEMENT_3D ( 'NONE', #22, #13, #9 ) ;
#36 = DIRECTION ( 'NONE',  ( 0.000000000000000000, 1.000000000000000000, 0.000000000000000000 ) ) ;
#37 = VERTEX_POINT ( 'NONE', #20 ) ;
#38 = ADVANCED_FACE ( 'NONE', ( #46 ), #32, .F. ) ;
#39 = PRODUCT_DEFINITION_FORMATION_WITH_SPECIFIED_SOURCE ( 'ANY', '', #24, .NOT_KNOWN. ) ;
#40 = DIRECTION ( 'NONE',  ( 0.000000000000000000, 0.000000000000000000, 1.000000000000000000 ) ) ;
#41 = CARTESIAN_POINT ( 'NONE',  ( 0.000000000000000000, 0.000000000000000000, 0.000000000000000000 ) ) ;
#42 = MANIFOLD_SOLID_BREP ( 'Boss-Extrude1', #73 ) ;
#43 = COLOUR_RGB ( '',1.000000000000000000, 1.000000000000000000, 1.000000000000000000 ) ;
#44 = PRODUCT_CONTEXT ( 'NONE', #16, 'mechanical' ) ;
#45 =( LENGTH_UNIT ( ) NAMED_UNIT ( * ) SI_UNIT ( .MILLI., .METRE. ) );
#46 = FACE_OUTER_BOUND ( 'NONE', #27, .T. ) ;
#47 = FACE_OUTER_BOUND ( 'NONE', #4, .T. ) ;
#48 = AXIS2_PLACEMENT_3D ( 'NONE', #5, #36, #26 ) ;
#49 =( NAMED_UNIT ( * ) PLANE_ANGLE_UNIT ( ) SI_UNIT ( $, .RADIAN. ) );
#50 = ORIENTED_EDGE ( 'NONE', *, *, #85, .T. ) ;
#51 =( NAMED_UNIT ( * ) SI_UNIT ( $, .STERADIAN. ) SOLID_ANGLE_UNIT ( ) );
#52 = SURFACE_STYLE_USAGE ( .BOTH. , #94 ) ;
#53 = ADVANCED_BREP_SHAPE_REPRESENTATION ( 'C3_textured__ap214_nosplit', ( #42, #28 ), #65 ) ;
#54 =( GEOMETRIC_REPRESENTATION_CONTEXT ( 3 ) GLOBAL_UNCERTAINTY_ASSIGNED_CONTEXT ( ( #33 ) ) GLOBAL_UNIT_ASSIGNED_CONTEXT ( ( #45, #63, #29 ) ) REPRESENTATION_CONTEXT ( 'NONE', 'WORKASPACE' ) );
#55 = EDGE_LOOP ( 'NONE', ( #74 ) ) ;
#56 = PLANE ( 'NONE',  #92 ) ;
#57 = DIRECTION ( 'NONE',  ( 0.000000000000000000, 0.000000000000000000, 1.000000000000000000 ) ) ;
#58 = UNCERTAINTY_MEASURE_WITH_UNIT (LENGTH_MEASURE( 1.000000000000000082E-05 ), #17, 'distance_accuracy_value', 'NONE');
#59 =( NAMED_UNIT ( * ) PLANE_ANGLE_UNIT ( ) SI_UNIT ( $, .RADIAN. ) );
#60 = PRESENTATION_LAYER_ASSIGNMENT (  '', '', ( #8 ) ) ;
#61 = SURFACE_STYLE_FILL_AREA ( #18 ) ;
#62 = CARTESIAN_POINT ( 'NONE',  ( 0.000000000000000000, 100.0000000000000000, 0.000000000000000000 ) ) ;
#63 =( NAMED_UNIT ( * ) PLANE_ANGLE_UNIT ( ) SI_UNIT ( $, .RADIAN. ) );
#64 = AXIS2_PLACEMENT_3D ( 'NONE', #70, #34, #95 ) ;
#65 =( GEOMETRIC_REPRESENTATION_CONTEXT ( 3 ) GLOBAL_UNCERTAINTY_ASSIGNED_CONTEXT ( ( #91 ) ) GLOBAL_UNIT_ASSIGNED_CONTEXT ( ( #19, #59, #51 ) ) REPRESENTATION_CONTEXT ( 'NONE', 'WORKASPACE' ) );
#66 = FILL_AREA_STYLE_COLOUR ( '', #43 ) ;
#67 = SURFACE_STYLE_FILL_AREA ( #7 ) ;
#68 = EDGE_LOOP ( 'NONE', ( #50 ) ) ;
#69 = MECHANICAL_DESIGN_GEOMETRIC_PRESENTATION_REPRESENTATION (  '', ( #8 ), #54 ) ;
#70 = CARTESIAN_POINT ( 'NONE',  ( 0.000000000000000000, 100.0000000000000000, 0.000000000000000000 ) ) ;
#71 = DIRECTION ( 'NONE',  ( 0.000000000000000000, 1.000000000000000000, 0.000000000000000000 ) ) ;
#72 = VERTEX_POINT ( 'NONE', #2 ) ;
#73 = CLOSED_SHELL ( 'NONE', ( #11, #97, #38 ) ) ;
#74 = ORIENTED_EDGE ( 'NONE', *, *, #87, .T. ) ;
#75 = COLOUR_RGB ( '',0.8941176470588234615, 0.8941176470588234615, 0.8941176470588234615 ) ;
#76 = APPLICATION_CONTEXT ( 'automotive_design' ) ;
#77 = FILL_AREA_STYLE_COLOUR ( '', #75 ) ;
#78 = ORIENTED_EDGE ( 'NONE', *, *, #87, .F. ) ;
#79 = AXIS2_PLACEMENT_3D ( 'NONE', #100, #71, #40 ) ;
#80 = PRESENTATION_STYLE_ASSIGNMENT (( #12 ) ) ;
#81 = DIRECTION ( 'NONE',  ( 0.000000000000000000, -0.000000000000000000, 1.000000000000000000 ) ) ;
#82 =( GEOMETRIC_REPRESENTATION_CONTEXT ( 3 ) GLOBAL_UNCERTAINTY_ASSIGNED_CONTEXT ( ( #58 ) ) GLOBAL_UNIT_ASSIGNED_CONTEXT ( ( #17, #49, #15 ) ) REPRESENTATION_CONTEXT ( 'NONE', 'WORKASPACE' ) );
#83 = CYLINDRICAL_SURFACE ( 'NONE', #35, 50.00000000000000000 ) ;
#84 = PRESENTATION_STYLE_ASSIGNMENT (( #52 ) ) ;
#85 = EDGE_CURVE ( 'NONE', #72, #72, #10, .T. ) ;
#86 = FACE_OUTER_BOUND ( 'NONE', #55, .T. ) ;
#87 = EDGE_CURVE ( 'NONE', #37, #37, #25, .T. ) ;
#88 = FACE_OUTER_BOUND ( 'NONE', #68, .T. ) ;
#89 = PRESENTATION_LAYER_ASSIGNMENT (  '', '', ( #3 ) ) ;
#90 = DIRECTION ( 'NONE',  ( 0.000000000000000000, 1.000000000000000000, 0.000000000000000000 ) ) ;
#91 = UNCERTAINTY_MEASURE_WITH_UNIT (LENGTH_MEASURE( 1.000000000000000082E-05 ), #19, 'distance_accuracy_value', 'NONE');
#92 = AXIS2_PLACEMENT_3D ( 'NONE', #62, #90, #81 ) ;
#93 = ORIENTED_EDGE ( 'NONE', *, *, #85, .F. ) ;
#94 = SURFACE_SIDE_STYLE ('',( #61 ) ) ;
#95 = DIRECTION ( 'NONE',  ( 0.000000000000000000, 0.000000000000000000, 1.000000000000000000 ) ) ;
#96 = MECHANICAL_DESIGN_GEOMETRIC_PRESENTATION_REPRESENTATION (  '', ( #3 ), #82 ) ;
#97 = ADVANCED_FACE ( 'NONE', ( #88 ), #56, .T. ) ;
#98 = SURFACE_SIDE_STYLE ('',( #67 ) ) ;
#99 = PRODUCT_DEFINITION ( 'UNKNOWN', '', #39, #21 ) ;
#100 = CARTESIAN_POINT ( 'NONE',  ( 0.000000000000000000, 0.000000000000000000, 0.000000000000000000 ) ) ;
ENDSEC;
END-ISO-10303-21;
