ISO-10303-21;
HEADER;
FILE_DESCRIPTION (( 'STEP AP214' ),
    '1' );
FILE_NAME ('C3_textured__ap214_cfg.step',
    '2026-08-06T13:09:23',
    ( '' ),
    ( '' ),
    'SwSTEP 2.0',
    'SolidWorks 2026',
    '' );
FILE_SCHEMA (( 'AUTOMOTIVE_DESIGN' ));
ENDSEC;

DATA;
#1 = DIRECTION ( 'NONE',  ( 0.000000000000000000, -0.000000000000000000, 1.000000000000000000 ) ) ;
#2 =( LENGTH_UNIT ( ) NAMED_UNIT ( * ) SI_UNIT ( .MILLI., .METRE. ) );
#3 = MECHANICAL_DESIGN_GEOMETRIC_PRESENTATION_REPRESENTATION (  '', ( #22 ), #59 ) ;
#4 =( LENGTH_UNIT ( ) NAMED_UNIT ( * ) SI_UNIT ( .MILLI., .METRE. ) );
#5 = APPLICATION_CONTEXT ( 'automotive_design' ) ;
#6 = CLOSED_SHELL ( 'NONE', ( #98, #75, #89 ) ) ;
#7 = CARTESIAN_POINT ( 'NONE',  ( 0.000000000000000000, 0.000000000000000000, 0.000000000000000000 ) ) ;
#8 = UNCERTAINTY_MEASURE_WITH_UNIT (LENGTH_MEASURE( 1.000000000000000082E-05 ), #2, 'distance_accuracy_value', 'NONE');
#9 = APPLICATION_PROTOCOL_DEFINITION ( 'draft international standard', 'automotive_design', 1998, #15 ) ;
#10 = SURFACE_STYLE_USAGE ( .BOTH. , #82 ) ;
#11 = PRODUCT_DEFINITION_FORMATION_WITH_SPECIFIED_SOURCE ( 'ANY', '', #18, .NOT_KNOWN. ) ;
#12 = FACE_OUTER_BOUND ( 'NONE', #78, .T. ) ;
#13 = UNCERTAINTY_MEASURE_WITH_UNIT (LENGTH_MEASURE( 1.000000000000000082E-05 ), #99, 'distance_accuracy_value', 'NONE');
#14 = CARTESIAN_POINT ( 'NONE',  ( 0.000000000000000000, 100.0000000000000000, 0.000000000000000000 ) ) ;
#15 = APPLICATION_CONTEXT ( 'automotive_design' ) ;
#16 = DIRECTION ( 'NONE',  ( 0.000000000000000000, -0.000000000000000000, 1.000000000000000000 ) ) ;
#17 = EDGE_CURVE ( 'NONE', #38, #38, #68, .T. ) ;
#18 = PRODUCT ( 'C3_textured__ap214_cfg', 'C3_textured__ap214_cfg', '', ( #60 ) ) ;
#19 = EDGE_LOOP ( 'NONE', ( #45 ) ) ;
#20 = SURFACE_STYLE_USAGE ( .BOTH. , #90 ) ;
#21 = DIRECTION ( 'NONE',  ( 0.000000000000000000, 1.000000000000000000, 0.000000000000000000 ) ) ;
#22 = STYLED_ITEM ( 'NONE', ( #65 ), #98 ) ;
#23 = PRESENTATION_LAYER_ASSIGNMENT (  '', '', ( #22 ) ) ;
#24 = DIRECTION ( 'NONE',  ( 0.000000000000000000, 0.000000000000000000, 1.000000000000000000 ) ) ;
#25 = DIRECTION ( 'NONE',  ( 0.000000000000000000, 0.000000000000000000, 1.000000000000000000 ) ) ;
#26 =( NAMED_UNIT ( * ) SI_UNIT ( $, .STERADIAN. ) SOLID_ANGLE_UNIT ( ) );
#27 = FACE_OUTER_BOUND ( 'NONE', #49, .T. ) ;
#28 = DIRECTION ( 'NONE',  ( 0.000000000000000000, 0.000000000000000000, -1.000000000000000000 ) ) ;
#29 = APPLICATION_PROTOCOL_DEFINITION ( 'draft international standard', 'automotive_design', 1998, #5 ) ;
#30 = ADVANCED_BREP_SHAPE_REPRESENTATION ( 'C3_textured__ap214_cfg', ( #39, #55 ), #48 ) ;
#31 = COLOUR_RGB ( '',1.000000000000000000, 1.000000000000000000, 1.000000000000000000 ) ;
#32 = DIRECTION ( 'NONE',  ( 0.000000000000000000, 1.000000000000000000, 0.000000000000000000 ) ) ;
#33 = CARTESIAN_POINT ( 'NONE',  ( 0.000000000000000000, 0.000000000000000000, 0.000000000000000000 ) ) ;
#34 =( NAMED_UNIT ( * ) PLANE_ANGLE_UNIT ( ) SI_UNIT ( $, .RADIAN. ) );
#35 = EDGE_CURVE ( 'NONE', #66, #66, #71, .T. ) ;
#36 = EDGE_LOOP ( 'NONE', ( #43 ) ) ;
#37 =( NAMED_UNIT ( * ) SI_UNIT ( $, .STERADIAN. ) SOLID_ANGLE_UNIT ( ) );
#38 = VERTEX_POINT ( 'NONE', #58 ) ;
#39 = MANIFOLD_SOLID_BREP ( 'Boss-Extrude1', #6 ) ;
#40 = DIRECTION ( 'NONE',  ( -0.000000000000000000, -1.000000000000000000, -0.000000000000000000 ) ) ;
#41 = AXIS2_PLACEMENT_3D ( 'NONE', #33, #61, #25 ) ;
#42 = FILL_AREA_STYLE ('',( #46 ) ) ;
#43 = ORIENTED_EDGE ( 'NONE', *, *, #17, .T. ) ;
#44 = STYLED_ITEM ( 'NONE', ( #50 ), #39 ) ;
#45 = ORIENTED_EDGE ( 'NONE', *, *, #35, .F. ) ;
#46 = FILL_AREA_STYLE_COLOUR ( '', #31 ) ;
#47 = SURFACE_STYLE_FILL_AREA ( #81 ) ;
#48 =( GEOMETRIC_REPRESENTATION_CONTEXT ( 3 ) GLOBAL_UNCERTAINTY_ASSIGNED_CONTEXT ( ( #8 ) ) GLOBAL_UNIT_ASSIGNED_CONTEXT ( ( #2, #83, #37 ) ) REPRESENTATION_CONTEXT ( 'NONE', 'WORKASPACE' ) );
#49 = EDGE_LOOP ( 'NONE', ( #63 ) ) ;
#50 = PRESENTATION_STYLE_ASSIGNMENT (( #20 ) ) ;
#51 = SURFACE_STYLE_FILL_AREA ( #42 ) ;
#52 = COLOUR_RGB ( '',0.8941176470588234615, 0.8941176470588234615, 0.8941176470588234615 ) ;
#53 =( GEOMETRIC_REPRESENTATION_CONTEXT ( 3 ) GLOBAL_UNCERTAINTY_ASSIGNED_CONTEXT ( ( #88 ) ) GLOBAL_UNIT_ASSIGNED_CONTEXT ( ( #4, #34, #26 ) ) REPRESENTATION_CONTEXT ( 'NONE', 'WORKASPACE' ) );
#54 = PRODUCT_DEFINITION ( 'UNKNOWN', '', #11, #93 ) ;
#55 = AXIS2_PLACEMENT_3D ( 'NONE', #70, #24, #84 ) ;
#56 = PLANE ( 'NONE',  #80 ) ;
#57 = PRODUCT_RELATED_PRODUCT_CATEGORY ( 'part', '', ( #18 ) ) ;
#58 = CARTESIAN_POINT ( 'NONE',  ( 0.000000000000000000, 100.0000000000000000, 50.00000000000000000 ) ) ;
#59 =( GEOMETRIC_REPRESENTATION_CONTEXT ( 3 ) GLOBAL_UNCERTAINTY_ASSIGNED_CONTEXT ( ( #13 ) ) GLOBAL_UNIT_ASSIGNED_CONTEXT ( ( #99, #92, #69 ) ) REPRESENTATION_CONTEXT ( 'NONE', 'WORKASPACE' ) );
#60 = PRODUCT_CONTEXT ( 'NONE', #15, 'mechanical' ) ;
#61 = DIRECTION ( 'NONE',  ( 0.000000000000000000, 1.000000000000000000, 0.000000000000000000 ) ) ;
#62 = MECHANICAL_DESIGN_GEOMETRIC_PRESENTATION_REPRESENTATION (  '', ( #44 ), #53 ) ;
#63 = ORIENTED_EDGE ( 'NONE', *, *, #17, .F. ) ;
#64 = AXIS2_PLACEMENT_3D ( 'NONE', #14, #32, #16 ) ;
#65 = PRESENTATION_STYLE_ASSIGNMENT (( #10 ) ) ;
#66 = VERTEX_POINT ( 'NONE', #100 ) ;
#67 = CARTESIAN_POINT ( 'NONE',  ( 0.000000000000000000, 100.0000000000000000, 0.000000000000000000 ) ) ;
#68 = CIRCLE ( 'NONE', #91, 50.00000000000000000 ) ;
#69 =( NAMED_UNIT ( * ) SI_UNIT ( $, .STERADIAN. ) SOLID_ANGLE_UNIT ( ) );
#70 = CARTESIAN_POINT ( 'NONE',  ( 0.000000000000000000, 0.000000000000000000, 0.000000000000000000 ) ) ;
#71 = CIRCLE ( 'NONE', #41, 50.00000000000000000 ) ;
#72 = PLANE ( 'NONE',  #64 ) ;
#73 = DIRECTION ( 'NONE',  ( 0.000000000000000000, 1.000000000000000000, 0.000000000000000000 ) ) ;
#74 = PRODUCT_DEFINITION_SHAPE ( 'NONE', 'NONE',  #54 ) ;
#75 = ADVANCED_FACE ( 'NONE', ( #86 ), #72, .T. ) ;
#76 = FACE_OUTER_BOUND ( 'NONE', #19, .T. ) ;
#77 = ORIENTED_EDGE ( 'NONE', *, *, #35, .T. ) ;
#78 = EDGE_LOOP ( 'NONE', ( #77 ) ) ;
#79 = CYLINDRICAL_SURFACE ( 'NONE', #87, 50.00000000000000000 ) ;
#80 = AXIS2_PLACEMENT_3D ( 'NONE', #7, #21, #1 ) ;
#81 = FILL_AREA_STYLE ('',( #94 ) ) ;
#82 = SURFACE_SIDE_STYLE ('',( #51 ) ) ;
#83 =( NAMED_UNIT ( * ) PLANE_ANGLE_UNIT ( ) SI_UNIT ( $, .RADIAN. ) );
#84 = DIRECTION ( 'NONE',  ( 1.000000000000000000, 0.000000000000000000, 0.000000000000000000 ) ) ;
#85 = SHAPE_DEFINITION_REPRESENTATION ( #74, #30 ) ;
#86 = FACE_OUTER_BOUND ( 'NONE', #36, .T. ) ;
#87 = AXIS2_PLACEMENT_3D ( 'NONE', #67, #40, #28 ) ;
#88 = UNCERTAINTY_MEASURE_WITH_UNIT (LENGTH_MEASURE( 1.000000000000000082E-05 ), #4, 'distance_accuracy_value', 'NONE');
#89 = ADVANCED_FACE ( 'NONE', ( #76 ), #56, .F. ) ;
#90 = SURFACE_SIDE_STYLE ('',( #47 ) ) ;
#91 = AXIS2_PLACEMENT_3D ( 'NONE', #96, #73, #97 ) ;
#92 =( NAMED_UNIT ( * ) PLANE_ANGLE_UNIT ( ) SI_UNIT ( $, .RADIAN. ) );
#93 = PRODUCT_DEFINITION_CONTEXT ( 'detailed design', #5, 'design' ) ;
#94 = FILL_AREA_STYLE_COLOUR ( '', #52 ) ;
#95 = PRESENTATION_LAYER_ASSIGNMENT (  '', '', ( #44 ) ) ;
#96 = CARTESIAN_POINT ( 'NONE',  ( 0.000000000000000000, 100.0000000000000000, 0.000000000000000000 ) ) ;
#97 = DIRECTION ( 'NONE',  ( 0.000000000000000000, 0.000000000000000000, 1.000000000000000000 ) ) ;
#98 = ADVANCED_FACE ( 'NONE', ( #27, #12 ), #79, .T. ) ;
#99 =( LENGTH_UNIT ( ) NAMED_UNIT ( * ) SI_UNIT ( .MILLI., .METRE. ) );
#100 = CARTESIAN_POINT ( 'NONE',  ( 0.000000000000000000, 0.000000000000000000, 50.00000000000000000 ) ) ;
ENDSEC;
END-ISO-10303-21;
