ISO-10303-21;
HEADER;
FILE_DESCRIPTION (( 'STEP AP214' ),
    '1' );
FILE_NAME ('C3_textured__ap214_split.step',
    '2026-08-06T13:09:23',
    ( '' ),
    ( '' ),
    'SwSTEP 2.0',
    'SolidWorks 2026',
    '' );
FILE_SCHEMA (( 'AUTOMOTIVE_DESIGN' ));
ENDSEC;

DATA;
#1 = DIRECTION ( 'NONE',  ( 0.000000000000000000, 1.000000000000000000, 0.000000000000000000 ) ) ;
#2 =( LENGTH_UNIT ( ) NAMED_UNIT ( * ) SI_UNIT ( .MILLI., .METRE. ) );
#3 = EDGE_CURVE ( 'NONE', #18, #28, #52, .T. ) ;
#4 = EDGE_LOOP ( 'NONE', ( #47, #29 ) ) ;
#5 = COLOUR_RGB ( '',0.8941176470588234615, 0.8941176470588234615, 0.8941176470588234615 ) ;
#6 = ORIENTED_EDGE ( 'NONE', *, *, #3, .T. ) ;
#7 =( NAMED_UNIT ( * ) SI_UNIT ( $, .STERADIAN. ) SOLID_ANGLE_UNIT ( ) );
#8 = STYLED_ITEM ( 'NONE', ( #115 ), #96 ) ;
#9 = DIRECTION ( 'NONE',  ( 0.000000000000000000, 0.000000000000000000, 1.000000000000000000 ) ) ;
#10 = EDGE_CURVE ( 'NONE', #18, #108, #98, .T. ) ;
#11 = DIRECTION ( 'NONE',  ( 0.000000000000000000, 0.000000000000000000, -1.000000000000000000 ) ) ;
#12 = DIRECTION ( 'NONE',  ( 0.000000000000000000, 0.000000000000000000, -1.000000000000000000 ) ) ;
#13 = SURFACE_SIDE_STYLE ('',( #122 ) ) ;
#14 = SURFACE_STYLE_USAGE ( .BOTH. , #41 ) ;
#15 = UNCERTAINTY_MEASURE_WITH_UNIT (LENGTH_MEASURE( 1.000000000000000082E-05 ), #39, 'distance_accuracy_value', 'NONE');
#16 = AXIS2_PLACEMENT_3D ( 'NONE', #131, #155, #144 ) ;
#17 = ORIENTED_EDGE ( 'NONE', *, *, #3, .F. ) ;
#18 = VERTEX_POINT ( 'NONE', #99 ) ;
#19 = DIRECTION ( 'NONE',  ( 0.000000000000000000, 1.000000000000000000, 0.000000000000000000 ) ) ;
#20 = PRODUCT_DEFINITION ( 'UNKNOWN', '', #37, #27 ) ;
#21 = CARTESIAN_POINT ( 'NONE',  ( 0.000000000000000000, 0.000000000000000000, 0.000000000000000000 ) ) ;
#22 = CARTESIAN_POINT ( 'NONE',  ( 0.000000000000000000, 100.0000000000000000, -50.00000000000000000 ) ) ;
#23 = FILL_AREA_STYLE_COLOUR ( '', #5 ) ;
#24 = PRODUCT_RELATED_PRODUCT_CATEGORY ( 'part', '', ( #25 ) ) ;
#25 = PRODUCT ( 'C3_textured__ap214_split', 'C3_textured__ap214_split', '', ( #94 ) ) ;
#26 = PRESENTATION_LAYER_ASSIGNMENT (  '', '', ( #8 ) ) ;
#27 = PRODUCT_DEFINITION_CONTEXT ( 'detailed design', #134, 'design' ) ;
#28 = VERTEX_POINT ( 'NONE', #151 ) ;
#29 = ORIENTED_EDGE ( 'NONE', *, *, #87, .F. ) ;
#30 = EDGE_LOOP ( 'NONE', ( #123, #34, #62, #139 ) ) ;
#31 = DIRECTION ( 'NONE',  ( 0.000000000000000000, 1.000000000000000000, 0.000000000000000000 ) ) ;
#32 = COLOUR_RGB ( '',1.000000000000000000, 1.000000000000000000, 1.000000000000000000 ) ;
#33 = CARTESIAN_POINT ( 'NONE',  ( 0.000000000000000000, 0.000000000000000000, 0.000000000000000000 ) ) ;
#34 = ORIENTED_EDGE ( 'NONE', *, *, #59, .F. ) ;
#35 = COLOUR_RGB ( '',1.000000000000000000, 1.000000000000000000, 1.000000000000000000 ) ;
#36 = ORIENTED_EDGE ( 'NONE', *, *, #140, .F. ) ;
#37 = PRODUCT_DEFINITION_FORMATION_WITH_SPECIFIED_SOURCE ( 'ANY', '', #25, .NOT_KNOWN. ) ;
#38 = CARTESIAN_POINT ( 'NONE',  ( 0.000000000000000000, 100.0000000000000000, 0.000000000000000000 ) ) ;
#39 =( LENGTH_UNIT ( ) NAMED_UNIT ( * ) SI_UNIT ( .MILLI., .METRE. ) );
#40 = FACE_OUTER_BOUND ( 'NONE', #74, .T. ) ;
#41 = SURFACE_SIDE_STYLE ('',( #106 ) ) ;
#42 = DIRECTION ( 'NONE',  ( 0.000000000000000000, 0.000000000000000000, 1.000000000000000000 ) ) ;
#43 = UNCERTAINTY_MEASURE_WITH_UNIT (LENGTH_MEASURE( 1.000000000000000082E-05 ), #2, 'distance_accuracy_value', 'NONE');
#44 = DIRECTION ( 'NONE',  ( -0.000000000000000000, -1.000000000000000000, -0.000000000000000000 ) ) ;
#45 = AXIS2_PLACEMENT_3D ( 'NONE', #114, #1, #9 ) ;
#46 = CARTESIAN_POINT ( 'NONE',  ( 0.000000000000000000, 100.0000000000000000, 0.000000000000000000 ) ) ;
#47 = ORIENTED_EDGE ( 'NONE', *, *, #105, .F. ) ;
#48 = MANIFOLD_SOLID_BREP ( 'Boss-Extrude1', #56 ) ;
#49 = DIRECTION ( 'NONE',  ( 0.000000000000000000, 0.000000000000000000, 1.000000000000000000 ) ) ;
#50 = CARTESIAN_POINT ( 'NONE',  ( 0.000000000000000000, 0.000000000000000000, 0.000000000000000000 ) ) ;
#51 = DIRECTION ( 'NONE',  ( 0.000000000000000000, 0.000000000000000000, 1.000000000000000000 ) ) ;
#52 = CIRCLE ( 'NONE', #100, 50.00000000000000000 ) ;
#53 = AXIS2_PLACEMENT_3D ( 'NONE', #154, #44, #12 ) ;
#54 = DIRECTION ( 'NONE',  ( -0.000000000000000000, -1.000000000000000000, -0.000000000000000000 ) ) ;
#55 =( NAMED_UNIT ( * ) SI_UNIT ( $, .STERADIAN. ) SOLID_ANGLE_UNIT ( ) );
#56 = CLOSED_SHELL ( 'NONE', ( #96, #152, #83, #57 ) ) ;
#57 = ADVANCED_FACE ( 'NONE', ( #103 ), #138, .F. ) ;
#58 = DIRECTION ( 'NONE',  ( 0.000000000000000000, 1.000000000000000000, 0.000000000000000000 ) ) ;
#59 = EDGE_CURVE ( 'NONE', #28, #18, #78, .T. ) ;
#60 = FILL_AREA_STYLE ('',( #84 ) ) ;
#61 = AXIS2_PLACEMENT_3D ( 'NONE', #33, #58, #82 ) ;
#62 = ORIENTED_EDGE ( 'NONE', *, *, #140, .T. ) ;
#63 =( GEOMETRIC_REPRESENTATION_CONTEXT ( 3 ) GLOBAL_UNCERTAINTY_ASSIGNED_CONTEXT ( ( #124 ) ) GLOBAL_UNIT_ASSIGNED_CONTEXT ( ( #77, #101, #55 ) ) REPRESENTATION_CONTEXT ( 'NONE', 'WORKASPACE' ) );
#64 = PRESENTATION_LAYER_ASSIGNMENT (  '', '', ( #71 ) ) ;
#65 =( GEOMETRIC_REPRESENTATION_CONTEXT ( 3 ) GLOBAL_UNCERTAINTY_ASSIGNED_CONTEXT ( ( #43 ) ) GLOBAL_UNIT_ASSIGNED_CONTEXT ( ( #2, #148, #135 ) ) REPRESENTATION_CONTEXT ( 'NONE', 'WORKASPACE' ) );
#66 = CYLINDRICAL_SURFACE ( 'NONE', #53, 50.00000000000000000 ) ;
#67 = SURFACE_STYLE_USAGE ( .BOTH. , #143 ) ;
#68 = UNCERTAINTY_MEASURE_WITH_UNIT (LENGTH_MEASURE( 1.000000000000000082E-05 ), #70, 'distance_accuracy_value', 'NONE');
#69 = FILL_AREA_STYLE ('',( #23 ) ) ;
#70 =( LENGTH_UNIT ( ) NAMED_UNIT ( * ) SI_UNIT ( .MILLI., .METRE. ) );
#71 = STYLED_ITEM ( 'NONE', ( #91 ), #152 ) ;
#72 = EDGE_LOOP ( 'NONE', ( #17, #141, #75, #36 ) ) ;
#73 = MECHANICAL_DESIGN_GEOMETRIC_PRESENTATION_REPRESENTATION (  '', ( #142 ), #63 ) ;
#74 = EDGE_LOOP ( 'NONE', ( #150, #6 ) ) ;
#75 = ORIENTED_EDGE ( 'NONE', *, *, #87, .T. ) ;
#76 = CARTESIAN_POINT ( 'NONE',  ( 6.123233995736766085E-15, 100.0000000000000000, 50.00000000000000000 ) ) ;
#77 =( LENGTH_UNIT ( ) NAMED_UNIT ( * ) SI_UNIT ( .MILLI., .METRE. ) );
#78 = CIRCLE ( 'NONE', #45, 50.00000000000000000 ) ;
#79 = FACE_OUTER_BOUND ( 'NONE', #72, .T. ) ;
#80 = AXIS2_PLACEMENT_3D ( 'NONE', #21, #19, #104 ) ;
#81 =( GEOMETRIC_REPRESENTATION_CONTEXT ( 3 ) GLOBAL_UNCERTAINTY_ASSIGNED_CONTEXT ( ( #68 ) ) GLOBAL_UNIT_ASSIGNED_CONTEXT ( ( #70, #86, #110 ) ) REPRESENTATION_CONTEXT ( 'NONE', 'WORKASPACE' ) );
#82 = DIRECTION ( 'NONE',  ( 0.000000000000000000, 0.000000000000000000, 1.000000000000000000 ) ) ;
#83 = ADVANCED_FACE ( 'NONE', ( #40 ), #102, .T. ) ;
#84 = FILL_AREA_STYLE_COLOUR ( '', #35 ) ;
#85 = PRODUCT_DEFINITION_SHAPE ( 'NONE', 'NONE',  #20 ) ;
#86 =( NAMED_UNIT ( * ) PLANE_ANGLE_UNIT ( ) SI_UNIT ( $, .RADIAN. ) );
#87 = EDGE_CURVE ( 'NONE', #108, #107, #147, .T. ) ;
#88 = SURFACE_STYLE_FILL_AREA ( #133 ) ;
#89 = CARTESIAN_POINT ( 'NONE',  ( 6.123233995736766085E-15, 0.000000000000000000, 50.00000000000000000 ) ) ;
#90 = AXIS2_PLACEMENT_3D ( 'NONE', #145, #31, #42 ) ;
#91 = PRESENTATION_STYLE_ASSIGNMENT (( #14 ) ) ;
#92 = APPLICATION_CONTEXT ( 'automotive_design' ) ;
#93 = DIRECTION ( 'NONE',  ( -0.000000000000000000, -1.000000000000000000, -0.000000000000000000 ) ) ;
#94 = PRODUCT_CONTEXT ( 'NONE', #92, 'mechanical' ) ;
#95 = CIRCLE ( 'NONE', #61, 50.00000000000000000 ) ;
#96 = ADVANCED_FACE ( 'NONE', ( #79 ), #66, .T. ) ;
#97 = DIRECTION ( 'NONE',  ( 1.000000000000000000, 0.000000000000000000, 0.000000000000000000 ) ) ;
#98 = LINE ( 'NONE', #76, #118 ) ;
#99 = CARTESIAN_POINT ( 'NONE',  ( 6.123233995736766085E-15, 100.0000000000000000, 50.00000000000000000 ) ) ;
#100 = AXIS2_PLACEMENT_3D ( 'NONE', #38, #126, #49 ) ;
#101 =( NAMED_UNIT ( * ) PLANE_ANGLE_UNIT ( ) SI_UNIT ( $, .RADIAN. ) );
#102 = PLANE ( 'NONE',  #16 ) ;
#103 = FACE_OUTER_BOUND ( 'NONE', #4, .T. ) ;
#104 = DIRECTION ( 'NONE',  ( 0.000000000000000000, -0.000000000000000000, 1.000000000000000000 ) ) ;
#105 = EDGE_CURVE ( 'NONE', #107, #108, #95, .T. ) ;
#106 = SURFACE_STYLE_FILL_AREA ( #60 ) ;
#107 = VERTEX_POINT ( 'NONE', #136 ) ;
#108 = VERTEX_POINT ( 'NONE', #89 ) ;
#109 = PRESENTATION_LAYER_ASSIGNMENT (  '', '', ( #142 ) ) ;
#110 =( NAMED_UNIT ( * ) SI_UNIT ( $, .STERADIAN. ) SOLID_ANGLE_UNIT ( ) );
#111 = APPLICATION_PROTOCOL_DEFINITION ( 'draft international standard', 'automotive_design', 1998, #134 ) ;
#112 = SURFACE_STYLE_USAGE ( .BOTH. , #13 ) ;
#113 = MECHANICAL_DESIGN_GEOMETRIC_PRESENTATION_REPRESENTATION (  '', ( #8 ), #129 ) ;
#114 = CARTESIAN_POINT ( 'NONE',  ( 0.000000000000000000, 100.0000000000000000, 0.000000000000000000 ) ) ;
#115 = PRESENTATION_STYLE_ASSIGNMENT (( #67 ) ) ;
#116 = CYLINDRICAL_SURFACE ( 'NONE', #121, 50.00000000000000000 ) ;
#117 = FILL_AREA_STYLE_COLOUR ( '', #32 ) ;
#118 = VECTOR ( 'NONE', #54, 1000.000000000000000 ) ;
#119 = MECHANICAL_DESIGN_GEOMETRIC_PRESENTATION_REPRESENTATION (  '', ( #71 ), #65 ) ;
#120 = FACE_OUTER_BOUND ( 'NONE', #30, .T. ) ;
#121 = AXIS2_PLACEMENT_3D ( 'NONE', #46, #93, #11 ) ;
#122 = SURFACE_STYLE_FILL_AREA ( #69 ) ;
#123 = ORIENTED_EDGE ( 'NONE', *, *, #10, .F. ) ;
#124 = UNCERTAINTY_MEASURE_WITH_UNIT (LENGTH_MEASURE( 1.000000000000000082E-05 ), #77, 'distance_accuracy_value', 'NONE');
#125 = APPLICATION_PROTOCOL_DEFINITION ( 'draft international standard', 'automotive_design', 1998, #92 ) ;
#126 = DIRECTION ( 'NONE',  ( 0.000000000000000000, 1.000000000000000000, 0.000000000000000000 ) ) ;
#127 = AXIS2_PLACEMENT_3D ( 'NONE', #50, #51, #97 ) ;
#128 = PRESENTATION_STYLE_ASSIGNMENT (( #112 ) ) ;
#129 =( GEOMETRIC_REPRESENTATION_CONTEXT ( 3 ) GLOBAL_UNCERTAINTY_ASSIGNED_CONTEXT ( ( #15 ) ) GLOBAL_UNIT_ASSIGNED_CONTEXT ( ( #39, #146, #7 ) ) REPRESENTATION_CONTEXT ( 'NONE', 'WORKASPACE' ) );
#130 = VECTOR ( 'NONE', #132, 1000.000000000000000 ) ;
#131 = CARTESIAN_POINT ( 'NONE',  ( 0.000000000000000000, 100.0000000000000000, 0.000000000000000000 ) ) ;
#132 = DIRECTION ( 'NONE',  ( -0.000000000000000000, -1.000000000000000000, -0.000000000000000000 ) ) ;
#133 = FILL_AREA_STYLE ('',( #117 ) ) ;
#134 = APPLICATION_CONTEXT ( 'automotive_design' ) ;
#135 =( NAMED_UNIT ( * ) SI_UNIT ( $, .STERADIAN. ) SOLID_ANGLE_UNIT ( ) );
#136 = CARTESIAN_POINT ( 'NONE',  ( 0.000000000000000000, 0.000000000000000000, -50.00000000000000000 ) ) ;
#137 = LINE ( 'NONE', #22, #130 ) ;
#138 = PLANE ( 'NONE',  #80 ) ;
#139 = ORIENTED_EDGE ( 'NONE', *, *, #105, .T. ) ;
#140 = EDGE_CURVE ( 'NONE', #28, #107, #137, .T. ) ;
#141 = ORIENTED_EDGE ( 'NONE', *, *, #10, .T. ) ;
#142 = STYLED_ITEM ( 'NONE', ( #128 ), #48 ) ;
#143 = SURFACE_SIDE_STYLE ('',( #88 ) ) ;
#144 = DIRECTION ( 'NONE',  ( 0.000000000000000000, -0.000000000000000000, 1.000000000000000000 ) ) ;
#145 = CARTESIAN_POINT ( 'NONE',  ( 0.000000000000000000, 0.000000000000000000, 0.000000000000000000 ) ) ;
#146 =( NAMED_UNIT ( * ) PLANE_ANGLE_UNIT ( ) SI_UNIT ( $, .RADIAN. ) );
#147 = CIRCLE ( 'NONE', #90, 50.00000000000000000 ) ;
#148 =( NAMED_UNIT ( * ) PLANE_ANGLE_UNIT ( ) SI_UNIT ( $, .RADIAN. ) );
#149 = SHAPE_DEFINITION_REPRESENTATION ( #85, #153 ) ;
#150 = ORIENTED_EDGE ( 'NONE', *, *, #59, .T. ) ;
#151 = CARTESIAN_POINT ( 'NONE',  ( 0.000000000000000000, 100.0000000000000000, -50.00000000000000000 ) ) ;
#152 = ADVANCED_FACE ( 'NONE', ( #120 ), #116, .T. ) ;
#153 = ADVANCED_BREP_SHAPE_REPRESENTATION ( 'C3_textured__ap214_split', ( #48, #127 ), #81 ) ;
#154 = CARTESIAN_POINT ( 'NONE',  ( 0.000000000000000000, 100.0000000000000000, 0.000000000000000000 ) ) ;
#155 = DIRECTION ( 'NONE',  ( 0.000000000000000000, 1.000000000000000000, 0.000000000000000000 ) ) ;
ENDSEC;
END-ISO-10303-21;
