ISO-10303-21;
HEADER;
FILE_DESCRIPTION (( 'STEP AP214' ),
    '1' );
FILE_NAME ('C4_component_override_2__ap214_nosplit.step',
    '2026-08-06T13:09:25',
    ( '' ),
    ( '' ),
    'SwSTEP 2.0',
    'SolidWorks 2026',
    '' );
FILE_SCHEMA (( 'AUTOMOTIVE_DESIGN' ));
ENDSEC;

DATA;
#1 = PRESENTATION_STYLE_ASSIGNMENT (( #50 ) ) ;
#2 = PRODUCT_DEFINITION_CONTEXT ( 'detailed design', #82, 'design' ) ;
#3 =( NAMED_UNIT ( * ) PLANE_ANGLE_UNIT ( ) SI_UNIT ( $, .RADIAN. ) );
#4 = ADVANCED_BREP_SHAPE_REPRESENTATION ( '', ( #27, #63 ), #115 ) ;
#5 = STYLED_ITEM ( 'NONE', ( #44 ), #4 ) ;
#6 = CARTESIAN_POINT ( 'NONE',  ( 0.000000000000000000, 0.000000000000000000, 0.000000000000000000 ) ) ;
#7 = DIRECTION ( 'NONE',  ( 0.000000000000000000, 0.000000000000000000, 1.000000000000000000 ) ) ;
#8 = AXIS2_PLACEMENT_3D ( 'NONE', #74, #86, #38 ) ;
#9 = PRODUCT_DEFINITION_FORMATION_WITH_SPECIFIED_SOURCE ( 'ANY', '', #83, .NOT_KNOWN. ) ;
#10 = PRODUCT_DEFINITION_SHAPE ( 'NONE', 'NONE',  #146 ) ;
#11 = CARTESIAN_POINT ( 'NONE',  ( 0.000000000000000000, 100.0000000000000000, 0.000000000000000000 ) ) ;
#12 =( NAMED_UNIT ( * ) PLANE_ANGLE_UNIT ( ) SI_UNIT ( $, .RADIAN. ) );
#13 = ORIENTED_EDGE ( 'NONE', *, *, #64, .T. ) ;
#14 = ADVANCED_FACE ( 'NONE', ( #121 ), #85, .F. ) ;
#15 = PLANE ( 'NONE',  #42 ) ;
#16 = SHAPE_REPRESENTATION ( 'C4_part_1', ( #63 ), #115 ) ;
#17 = DIRECTION ( 'NONE',  ( -0.000000000000000000, -1.000000000000000000, -0.000000000000000000 ) ) ;
#18 = DIRECTION ( 'NONE',  ( 0.000000000000000000, 0.000000000000000000, 1.000000000000000000 ) ) ;
#19 = PRODUCT_CONTEXT ( 'NONE', #130, 'mechanical' ) ;
#20 =( GEOMETRIC_REPRESENTATION_CONTEXT ( 3 ) GLOBAL_UNCERTAINTY_ASSIGNED_CONTEXT ( ( #56 ) ) GLOBAL_UNIT_ASSIGNED_CONTEXT ( ( #100, #58, #55 ) ) REPRESENTATION_CONTEXT ( 'NONE', 'WORKASPACE' ) );
#21 = DIRECTION ( 'NONE',  ( 0.000000000000000000, -0.000000000000000000, 1.000000000000000000 ) ) ;
#22 = EDGE_LOOP ( 'NONE', ( #88 ) ) ;
#23 = CARTESIAN_POINT ( 'NONE',  ( 0.000000000000000000, 0.000000000000000000, 0.000000000000000000 ) ) ;
#24 = CARTESIAN_POINT ( 'NONE',  ( 0.000000000000000000, 0.000000000000000000, 0.000000000000000000 ) ) ;
#25 = SURFACE_STYLE_FILL_AREA ( #59 ) ;
#26 = MECHANICAL_DESIGN_GEOMETRIC_PRESENTATION_REPRESENTATION (  '', ( #117 ), #103 ) ;
#27 = MANIFOLD_SOLID_BREP ( 'Boss-Extrude1', #60 ) ;
#28 = PRODUCT_DEFINITION_SHAPE ( 'NONE', 'NONE',  #145 ) ;
#29 = AXIS2_PLACEMENT_3D ( 'NONE', #67, #136, #122 ) ;
#30 = PRODUCT_DEFINITION ( 'UNKNOWN', '', #97, #133 ) ;
#31 = CIRCLE ( 'NONE', #8, 50.00000000000000000 ) ;
#32 = CARTESIAN_POINT ( 'NONE',  ( 0.000000000000000000, 0.000000000000000000, 50.00000000000000000 ) ) ;
#33 = APPLICATION_CONTEXT ( 'automotive_design' ) ;
#34 = FILL_AREA_STYLE_COLOUR ( '', #141 ) ;
#35 = APPLICATION_PROTOCOL_DEFINITION ( 'draft international standard', 'automotive_design', 1998, #82 ) ;
#36 = ITEM_DEFINED_TRANSFORMATION ( 'NONE', 'NONE', #114,  #63 ) ;
#37 = CARTESIAN_POINT ( 'NONE',  ( 0.000000000000000000, 100.0000000000000000, 0.000000000000000000 ) ) ;
#38 = DIRECTION ( 'NONE',  ( 0.000000000000000000, 0.000000000000000000, 1.000000000000000000 ) ) ;
#39 = DIRECTION ( 'NONE',  ( 0.000000000000000000, 1.000000000000000000, 0.000000000000000000 ) ) ;
#40 = UNCERTAINTY_MEASURE_WITH_UNIT (LENGTH_MEASURE( 1.000000000000000082E-05 ), #126, 'distance_accuracy_value', 'NONE');
#41 = ADVANCED_FACE ( 'NONE', ( #65 ), #15, .T. ) ;
#42 = AXIS2_PLACEMENT_3D ( 'NONE', #62, #110, #135 ) ;
#43 = SHAPE_REPRESENTATION_RELATIONSHIP ( 'NONE' , 'NONE' ,  #16, #4 ) ;
#44 = PRESENTATION_STYLE_ASSIGNMENT (( #46 ) ) ;
#45 = SURFACE_SIDE_STYLE ('',( #25 ) ) ;
#46 = SURFACE_STYLE_USAGE ( .BOTH. , #45 ) ;
#47 = PRESENTATION_LAYER_ASSIGNMENT (  '', '', ( #117 ) ) ;
#48 = PRODUCT_DEFINITION_SHAPE ( 'NONE', 'NONE',  #49 ) ;
#49 = PRODUCT_DEFINITION ( 'UNKNOWN', '', #9, #2 ) ;
#50 = SURFACE_STYLE_USAGE ( .BOTH. , #109 ) ;
#51 = MECHANICAL_DESIGN_GEOMETRIC_PRESENTATION_REPRESENTATION (  '', ( #5 ), #20 ) ;
#52 = FACE_OUTER_BOUND ( 'NONE', #139, .T. ) ;
#53 = CARTESIAN_POINT ( 'NONE',  ( 0.000000000000000000, 100.0000000000000000, 50.00000000000000000 ) ) ;
#54 = ADVANCED_FACE ( 'NONE', ( #77, #52 ), #143, .T. ) ;
#55 =( NAMED_UNIT ( * ) SI_UNIT ( $, .STERADIAN. ) SOLID_ANGLE_UNIT ( ) );
#56 = UNCERTAINTY_MEASURE_WITH_UNIT (LENGTH_MEASURE( 1.000000000000000082E-05 ), #100, 'distance_accuracy_value', 'NONE');
#57 = AXIS2_PLACEMENT_3D ( 'NONE', #69, #99, #68 ) ;
#58 =( NAMED_UNIT ( * ) PLANE_ANGLE_UNIT ( ) SI_UNIT ( $, .RADIAN. ) );
#59 = FILL_AREA_STYLE ('',( #34 ) ) ;
#60 = CLOSED_SHELL ( 'NONE', ( #54, #41, #14 ) ) ;
#61 =( NAMED_UNIT ( * ) SI_UNIT ( $, .STERADIAN. ) SOLID_ANGLE_UNIT ( ) );
#62 = CARTESIAN_POINT ( 'NONE',  ( 0.000000000000000000, 100.0000000000000000, 0.000000000000000000 ) ) ;
#63 = AXIS2_PLACEMENT_3D ( 'NONE', #6, #81, #90 ) ;
#64 = EDGE_CURVE ( 'NONE', #92, #92, #31, .T. ) ;
#65 = FACE_OUTER_BOUND ( 'NONE', #107, .T. ) ;
#66 = AXIS2_PLACEMENT_3D ( 'NONE', #37, #17, #131 ) ;
#67 = CARTESIAN_POINT ( 'NONE',  ( 0.000000000000000000, 0.000000000000000000, 0.000000000000000000 ) ) ;
#68 = DIRECTION ( 'NONE',  ( 1.000000000000000000, 0.000000000000000000, 0.000000000000000000 ) ) ;
#69 = CARTESIAN_POINT ( 'NONE',  ( 0.000000000000000000, 0.000000000000000000, 0.000000000000000000 ) ) ;
#70 = APPLICATION_PROTOCOL_DEFINITION ( 'draft international standard', 'automotive_design', 1998, #130 ) ;
#71 = PRESENTATION_LAYER_ASSIGNMENT (  '', '', ( #5 ) ) ;
#72 = CONTEXT_DEPENDENT_SHAPE_REPRESENTATION ( #138, #28 ) ;
#73 = CONTEXT_DEPENDENT_SHAPE_REPRESENTATION ( #105, #10 ) ;
#74 = CARTESIAN_POINT ( 'NONE',  ( 0.000000000000000000, 0.000000000000000000, 0.000000000000000000 ) ) ;
#75 = VERTEX_POINT ( 'NONE', #53 ) ;
#76 = SHAPE_REPRESENTATION ( 'C4_component_override_2__ap214_nosplit', ( #29, #91, #114 ), #125 ) ;
#77 = FACE_OUTER_BOUND ( 'NONE', #22, .T. ) ;
#78 = PRODUCT_CONTEXT ( 'NONE', #33, 'mechanical' ) ;
#79 = EDGE_CURVE ( 'NONE', #75, #75, #84, .T. ) ;
#80 =( NAMED_UNIT ( * ) SI_UNIT ( $, .STERADIAN. ) SOLID_ANGLE_UNIT ( ) );
#81 = DIRECTION ( 'NONE',  ( 0.000000000000000000, 0.000000000000000000, 1.000000000000000000 ) ) ;
#82 = APPLICATION_CONTEXT ( 'automotive_design' ) ;
#83 = PRODUCT ( 'C4_part_1', 'C4_part_1', '', ( #19 ) ) ;
#84 = CIRCLE ( 'NONE', #102, 50.00000000000000000 ) ;
#85 = PLANE ( 'NONE',  #96 ) ;
#86 = DIRECTION ( 'NONE',  ( 0.000000000000000000, 1.000000000000000000, 0.000000000000000000 ) ) ;
#87 = COLOUR_RGB ( '',1.000000000000000000, 0.000000000000000000, 0.000000000000000000 ) ;
#88 = ORIENTED_EDGE ( 'NONE', *, *, #79, .F. ) ;
#89 = DIRECTION ( 'NONE',  ( 1.000000000000000000, 0.000000000000000000, 0.000000000000000000 ) ) ;
#90 = DIRECTION ( 'NONE',  ( 1.000000000000000000, 0.000000000000000000, 0.000000000000000000 ) ) ;
#91 = AXIS2_PLACEMENT_3D ( 'NONE', #24, #7, #111 ) ;
#92 = VERTEX_POINT ( 'NONE', #32 ) ;
#93 = APPLICATION_CONTEXT ( 'automotive_design' ) ;
#94 = ORIENTED_EDGE ( 'NONE', *, *, #79, .T. ) ;
#95 =( LENGTH_UNIT ( ) NAMED_UNIT ( * ) SI_UNIT ( .MILLI., .METRE. ) );
#96 = AXIS2_PLACEMENT_3D ( 'NONE', #23, #39, #21 ) ;
#97 = PRODUCT_DEFINITION_FORMATION_WITH_SPECIFIED_SOURCE ( 'ANY', '', #116, .NOT_KNOWN. ) ;
#98 = FILL_AREA_STYLE ('',( #119 ) ) ;
#99 = DIRECTION ( 'NONE',  ( 0.000000000000000000, 0.000000000000000000, 1.000000000000000000 ) ) ;
#100 =( LENGTH_UNIT ( ) NAMED_UNIT ( * ) SI_UNIT ( .MILLI., .METRE. ) );
#101 = APPLICATION_PROTOCOL_DEFINITION ( 'draft international standard', 'automotive_design', 1998, #33 ) ;
#102 = AXIS2_PLACEMENT_3D ( 'NONE', #11, #144, #134 ) ;
#103 =( GEOMETRIC_REPRESENTATION_CONTEXT ( 3 ) GLOBAL_UNCERTAINTY_ASSIGNED_CONTEXT ( ( #112 ) ) GLOBAL_UNIT_ASSIGNED_CONTEXT ( ( #95, #12, #132 ) ) REPRESENTATION_CONTEXT ( 'NONE', 'WORKASPACE' ) );
#104 = ITEM_DEFINED_TRANSFORMATION ( 'NONE', 'NONE', #91,  #63 ) ;
#105 =( REPRESENTATION_RELATIONSHIP ('NONE','NONE', #76, #16 ) REPRESENTATION_RELATIONSHIP_WITH_TRANSFORMATION ( #36 )SHAPE_REPRESENTATION_RELATIONSHIP( ) );
#106 = EDGE_LOOP ( 'NONE', ( #127 ) ) ;
#107 = EDGE_LOOP ( 'NONE', ( #94 ) ) ;
#108 = PRODUCT_RELATED_PRODUCT_CATEGORY ( 'part', '', ( #83 ) ) ;
#109 = SURFACE_SIDE_STYLE ('',( #142 ) ) ;
#110 = DIRECTION ( 'NONE',  ( 0.000000000000000000, 1.000000000000000000, 0.000000000000000000 ) ) ;
#111 = DIRECTION ( 'NONE',  ( 1.000000000000000000, 0.000000000000000000, 0.000000000000000000 ) ) ;
#112 = UNCERTAINTY_MEASURE_WITH_UNIT (LENGTH_MEASURE( 1.000000000000000082E-05 ), #95, 'distance_accuracy_value', 'NONE');
#113 = APPLICATION_PROTOCOL_DEFINITION ( 'draft international standard', 'automotive_design', 1998, #93 ) ;
#114 = AXIS2_PLACEMENT_3D ( 'NONE', #137, #18, #89 ) ;
#115 =( GEOMETRIC_REPRESENTATION_CONTEXT ( 3 ) GLOBAL_UNCERTAINTY_ASSIGNED_CONTEXT ( ( #123 ) ) GLOBAL_UNIT_ASSIGNED_CONTEXT ( ( #120, #118, #61 ) ) REPRESENTATION_CONTEXT ( 'NONE', 'WORKASPACE' ) );
#116 = PRODUCT ( 'C4_component_override_2__ap214_nosplit', 'C4_component_override_2__ap214_nosplit', '', ( #78 ) ) ;
#117 = STYLED_ITEM ( 'NONE', ( #1 ), #27 ) ;
#118 =( NAMED_UNIT ( * ) PLANE_ANGLE_UNIT ( ) SI_UNIT ( $, .RADIAN. ) );
#119 = FILL_AREA_STYLE_COLOUR ( '', #87 ) ;
#120 =( LENGTH_UNIT ( ) NAMED_UNIT ( * ) SI_UNIT ( .MILLI., .METRE. ) );
#121 = FACE_OUTER_BOUND ( 'NONE', #106, .T. ) ;
#122 = DIRECTION ( 'NONE',  ( 1.000000000000000000, 0.000000000000000000, 0.000000000000000000 ) ) ;
#123 = UNCERTAINTY_MEASURE_WITH_UNIT (LENGTH_MEASURE( 1.000000000000000082E-05 ), #120, 'distance_accuracy_value', 'NONE');
#124 = SHAPE_DEFINITION_REPRESENTATION ( #140, #76 ) ;
#125 =( GEOMETRIC_REPRESENTATION_CONTEXT ( 3 ) GLOBAL_UNCERTAINTY_ASSIGNED_CONTEXT ( ( #40 ) ) GLOBAL_UNIT_ASSIGNED_CONTEXT ( ( #126, #3, #80 ) ) REPRESENTATION_CONTEXT ( 'NONE', 'WORKASPACE' ) );
#126 =( LENGTH_UNIT ( ) NAMED_UNIT ( * ) SI_UNIT ( .MILLI., .METRE. ) );
#127 = ORIENTED_EDGE ( 'NONE', *, *, #64, .F. ) ;
#128 = SHAPE_DEFINITION_REPRESENTATION ( #48, #16 ) ;
#129 = PRODUCT_RELATED_PRODUCT_CATEGORY ( 'part', '', ( #116 ) ) ;
#130 = APPLICATION_CONTEXT ( 'automotive_design' ) ;
#131 = DIRECTION ( 'NONE',  ( 0.000000000000000000, 0.000000000000000000, -1.000000000000000000 ) ) ;
#132 =( NAMED_UNIT ( * ) SI_UNIT ( $, .STERADIAN. ) SOLID_ANGLE_UNIT ( ) );
#133 = PRODUCT_DEFINITION_CONTEXT ( 'detailed design', #93, 'design' ) ;
#134 = DIRECTION ( 'NONE',  ( 0.000000000000000000, 0.000000000000000000, 1.000000000000000000 ) ) ;
#135 = DIRECTION ( 'NONE',  ( 0.000000000000000000, -0.000000000000000000, 1.000000000000000000 ) ) ;
#136 = DIRECTION ( 'NONE',  ( 0.000000000000000000, 0.000000000000000000, 1.000000000000000000 ) ) ;
#137 = CARTESIAN_POINT ( 'NONE',  ( 129.8588026547804475, -29.07840402331203578, -68.52472038008272648 ) ) ;
#138 =( REPRESENTATION_RELATIONSHIP ('NONE','NONE', #76, #16 ) REPRESENTATION_RELATIONSHIP_WITH_TRANSFORMATION ( #104 )SHAPE_REPRESENTATION_RELATIONSHIP( ) );
#139 = EDGE_LOOP ( 'NONE', ( #13 ) ) ;
#140 = PRODUCT_DEFINITION_SHAPE ( 'NONE', 'NONE',  #30 ) ;
#141 = COLOUR_RGB ( '',0.9098039215686274384, 0.4431372549019607643, 0.03137254901960784270 ) ;
#142 = SURFACE_STYLE_FILL_AREA ( #98 ) ;
#143 = CYLINDRICAL_SURFACE ( 'NONE', #66, 50.00000000000000000 ) ;
#144 = DIRECTION ( 'NONE',  ( 0.000000000000000000, 1.000000000000000000, 0.000000000000000000 ) ) ;
#145 = NEXT_ASSEMBLY_USAGE_OCCURRENCE ( 'NAUO1', ' ', ' ', #30, #49, $ ) ;
#146 = NEXT_ASSEMBLY_USAGE_OCCURRENCE ( 'NAUO2', ' ', ' ', #30, #49, $ ) ;
ENDSEC;
END-ISO-10303-21;
