ISO-10303-21;
HEADER;
FILE_DESCRIPTION (( 'STEP AP214' ),
    '1' );
FILE_NAME ('C4_component_override_2__ap214_noappear.step',
    '2026-08-06T13:09:25',
    ( '' ),
    ( '' ),
    'SwSTEP 2.0',
    'SolidWorks 2026',
    '' );
FILE_SCHEMA (( 'AUTOMOTIVE_DESIGN' ));
ENDSEC;

DATA;
#1 = CARTESIAN_POINT ( 'NONE',  ( 0.000000000000000000, 100.0000000000000000, 0.000000000000000000 ) ) ;
#2 =( LENGTH_UNIT ( ) NAMED_UNIT ( * ) SI_UNIT ( .MILLI., .METRE. ) );
#3 = DIRECTION ( 'NONE',  ( 1.000000000000000000, 0.000000000000000000, 0.000000000000000000 ) ) ;
#4 = STYLED_ITEM ( 'NONE', ( #11 ), #20 ) ;
#5 = DIRECTION ( 'NONE',  ( 0.000000000000000000, 0.000000000000000000, 1.000000000000000000 ) ) ;
#6 = EDGE_CURVE ( 'NONE', #122, #122, #106, .T. ) ;
#7 = AXIS2_PLACEMENT_3D ( 'NONE', #91, #27, #51 ) ;
#8 = ORIENTED_EDGE ( 'NONE', *, *, #6, .F. ) ;
#9 = APPLICATION_CONTEXT ( 'automotive_design' ) ;
#10 =( NAMED_UNIT ( * ) PLANE_ANGLE_UNIT ( ) SI_UNIT ( $, .RADIAN. ) );
#11 = PRESENTATION_STYLE_ASSIGNMENT (( #68 ) ) ;
#12 =( GEOMETRIC_REPRESENTATION_CONTEXT ( 3 ) GLOBAL_UNCERTAINTY_ASSIGNED_CONTEXT ( ( #120 ) ) GLOBAL_UNIT_ASSIGNED_CONTEXT ( ( #2, #61, #44 ) ) REPRESENTATION_CONTEXT ( 'NONE', 'WORKASPACE' ) );
#13 = CYLINDRICAL_SURFACE ( 'NONE', #71, 50.00000000000000000 ) ;
#14 = EDGE_CURVE ( 'NONE', #108, #108, #95, .T. ) ;
#15 = PRODUCT_DEFINITION_SHAPE ( 'NONE', 'NONE',  #131 ) ;
#16 =( LENGTH_UNIT ( ) NAMED_UNIT ( * ) SI_UNIT ( .MILLI., .METRE. ) );
#17 = FACE_OUTER_BOUND ( 'NONE', #24, .T. ) ;
#18 = AXIS2_PLACEMENT_3D ( 'NONE', #28, #21, #3 ) ;
#19 = APPLICATION_PROTOCOL_DEFINITION ( 'draft international standard', 'automotive_design', 1998, #62 ) ;
#20 = MANIFOLD_SOLID_BREP ( 'Boss-Extrude1', #31 ) ;
#21 = DIRECTION ( 'NONE',  ( 0.000000000000000000, 0.000000000000000000, 1.000000000000000000 ) ) ;
#22 = COLOUR_RGB ( '',0.7921568627450980005, 0.8196078431372548767, 0.9333333333333333481 ) ;
#23 = DIRECTION ( 'NONE',  ( 0.000000000000000000, 1.000000000000000000, 0.000000000000000000 ) ) ;
#24 = EDGE_LOOP ( 'NONE', ( #65 ) ) ;
#25 = DIRECTION ( 'NONE',  ( 0.000000000000000000, 1.000000000000000000, 0.000000000000000000 ) ) ;
#26 = AXIS2_PLACEMENT_3D ( 'NONE', #69, #25, #70 ) ;
#27 = DIRECTION ( 'NONE',  ( 0.000000000000000000, 0.000000000000000000, 1.000000000000000000 ) ) ;
#28 = CARTESIAN_POINT ( 'NONE',  ( 129.8588026547804475, -29.07840402331203578, -68.52472038008272648 ) ) ;
#29 = ITEM_DEFINED_TRANSFORMATION ( 'NONE', 'NONE', #7,  #104 ) ;
#30 = PRODUCT_RELATED_PRODUCT_CATEGORY ( 'part', '', ( #64 ) ) ;
#31 = CLOSED_SHELL ( 'NONE', ( #84, #46, #124 ) ) ;
#32 = PRODUCT_DEFINITION_SHAPE ( 'NONE', 'NONE',  #130 ) ;
#33 = PRODUCT_DEFINITION_FORMATION_WITH_SPECIFIED_SOURCE ( 'ANY', '', #64, .NOT_KNOWN. ) ;
#34 = DIRECTION ( 'NONE',  ( 0.000000000000000000, 0.000000000000000000, 1.000000000000000000 ) ) ;
#35 = DIRECTION ( 'NONE',  ( 0.000000000000000000, 0.000000000000000000, -1.000000000000000000 ) ) ;
#36 = PRESENTATION_LAYER_ASSIGNMENT (  '', '', ( #4 ) ) ;
#37 = DIRECTION ( 'NONE',  ( 0.000000000000000000, 0.000000000000000000, 1.000000000000000000 ) ) ;
#38 = UNCERTAINTY_MEASURE_WITH_UNIT (LENGTH_MEASURE( 1.000000000000000082E-05 ), #16, 'distance_accuracy_value', 'NONE');
#39 = CARTESIAN_POINT ( 'NONE',  ( 0.000000000000000000, 0.000000000000000000, 50.00000000000000000 ) ) ;
#40 = PRODUCT_RELATED_PRODUCT_CATEGORY ( 'part', '', ( #82 ) ) ;
#41 = PRODUCT_DEFINITION_CONTEXT ( 'detailed design', #58, 'design' ) ;
#42 = APPLICATION_PROTOCOL_DEFINITION ( 'draft international standard', 'automotive_design', 1998, #100 ) ;
#43 = DIRECTION ( 'NONE',  ( 1.000000000000000000, 0.000000000000000000, 0.000000000000000000 ) ) ;
#44 =( NAMED_UNIT ( * ) SI_UNIT ( $, .STERADIAN. ) SOLID_ANGLE_UNIT ( ) );
#45 = DIRECTION ( 'NONE',  ( 0.000000000000000000, 0.000000000000000000, 1.000000000000000000 ) ) ;
#46 = ADVANCED_FACE ( 'NONE', ( #50 ), #115, .T. ) ;
#47 = CARTESIAN_POINT ( 'NONE',  ( 0.000000000000000000, 0.000000000000000000, 0.000000000000000000 ) ) ;
#48 = DIRECTION ( 'NONE',  ( -0.000000000000000000, -1.000000000000000000, -0.000000000000000000 ) ) ;
#49 = UNCERTAINTY_MEASURE_WITH_UNIT (LENGTH_MEASURE( 1.000000000000000082E-05 ), #80, 'distance_accuracy_value', 'NONE');
#50 = FACE_OUTER_BOUND ( 'NONE', #103, .T. ) ;
#51 = DIRECTION ( 'NONE',  ( 1.000000000000000000, 0.000000000000000000, 0.000000000000000000 ) ) ;
#52 =( GEOMETRIC_REPRESENTATION_CONTEXT ( 3 ) GLOBAL_UNCERTAINTY_ASSIGNED_CONTEXT ( ( #38 ) ) GLOBAL_UNIT_ASSIGNED_CONTEXT ( ( #16, #57, #77 ) ) REPRESENTATION_CONTEXT ( 'NONE', 'WORKASPACE' ) );
#53 = DIRECTION ( 'NONE',  ( 1.000000000000000000, 0.000000000000000000, 0.000000000000000000 ) ) ;
#54 = CARTESIAN_POINT ( 'NONE',  ( 0.000000000000000000, 0.000000000000000000, 0.000000000000000000 ) ) ;
#55 = DIRECTION ( 'NONE',  ( 0.000000000000000000, -0.000000000000000000, 1.000000000000000000 ) ) ;
#56 = PRODUCT_DEFINITION ( 'UNKNOWN', '', #33, #41 ) ;
#57 =( NAMED_UNIT ( * ) PLANE_ANGLE_UNIT ( ) SI_UNIT ( $, .RADIAN. ) );
#58 = APPLICATION_CONTEXT ( 'automotive_design' ) ;
#59 = AXIS2_PLACEMENT_3D ( 'NONE', #1, #23, #88 ) ;
#60 = APPLICATION_PROTOCOL_DEFINITION ( 'draft international standard', 'automotive_design', 1998, #9 ) ;
#61 =( NAMED_UNIT ( * ) PLANE_ANGLE_UNIT ( ) SI_UNIT ( $, .RADIAN. ) );
#62 = APPLICATION_CONTEXT ( 'automotive_design' ) ;
#63 = PRODUCT_DEFINITION ( 'UNKNOWN', '', #110, #118 ) ;
#64 = PRODUCT ( 'C4_component_override_2__ap214_noappear', 'C4_component_override_2__ap214_noappear', '', ( #109 ) ) ;
#65 = ORIENTED_EDGE ( 'NONE', *, *, #14, .F. ) ;
#66 =( REPRESENTATION_RELATIONSHIP ('NONE','NONE', #114, #116 ) REPRESENTATION_RELATIONSHIP_WITH_TRANSFORMATION ( #29 )SHAPE_REPRESENTATION_RELATIONSHIP( ) );
#67 = ADVANCED_BREP_SHAPE_REPRESENTATION ( '', ( #20, #104 ), #127 ) ;
#68 = SURFACE_STYLE_USAGE ( .BOTH. , #85 ) ;
#69 = CARTESIAN_POINT ( 'NONE',  ( 0.000000000000000000, 0.000000000000000000, 0.000000000000000000 ) ) ;
#70 = DIRECTION ( 'NONE',  ( 0.000000000000000000, 0.000000000000000000, 1.000000000000000000 ) ) ;
#71 = AXIS2_PLACEMENT_3D ( 'NONE', #128, #48, #35 ) ;
#72 =( REPRESENTATION_RELATIONSHIP ('NONE','NONE', #114, #116 ) REPRESENTATION_RELATIONSHIP_WITH_TRANSFORMATION ( #123 )SHAPE_REPRESENTATION_RELATIONSHIP( ) );
#73 = CONTEXT_DEPENDENT_SHAPE_REPRESENTATION ( #72, #15 ) ;
#74 = DIRECTION ( 'NONE',  ( 1.000000000000000000, 0.000000000000000000, 0.000000000000000000 ) ) ;
#75 = PRODUCT_DEFINITION_SHAPE ( 'NONE', 'NONE',  #63 ) ;
#76 = AXIS2_PLACEMENT_3D ( 'NONE', #89, #45, #43 ) ;
#77 =( NAMED_UNIT ( * ) SI_UNIT ( $, .STERADIAN. ) SOLID_ANGLE_UNIT ( ) );
#78 = ORIENTED_EDGE ( 'NONE', *, *, #14, .T. ) ;
#79 = DIRECTION ( 'NONE',  ( 0.000000000000000000, 1.000000000000000000, 0.000000000000000000 ) ) ;
#80 =( LENGTH_UNIT ( ) NAMED_UNIT ( * ) SI_UNIT ( .MILLI., .METRE. ) );
#81 = SHAPE_DEFINITION_REPRESENTATION ( #125, #114 ) ;
#82 = PRODUCT ( 'C4_part_1', 'C4_part_1', '', ( #92 ) ) ;
#83 = EDGE_LOOP ( 'NONE', ( #126 ) ) ;
#84 = ADVANCED_FACE ( 'NONE', ( #17, #98 ), #13, .T. ) ;
#85 = SURFACE_SIDE_STYLE ('',( #105 ) ) ;
#86 = FILL_AREA_STYLE_COLOUR ( '', #22 ) ;
#87 = AXIS2_PLACEMENT_3D ( 'NONE', #102, #5, #53 ) ;
#88 = DIRECTION ( 'NONE',  ( 0.000000000000000000, -0.000000000000000000, 1.000000000000000000 ) ) ;
#89 = CARTESIAN_POINT ( 'NONE',  ( 0.000000000000000000, 0.000000000000000000, 0.000000000000000000 ) ) ;
#90 = SHAPE_REPRESENTATION_RELATIONSHIP ( 'NONE' , 'NONE' ,  #116, #67 ) ;
#91 = CARTESIAN_POINT ( 'NONE',  ( 0.000000000000000000, 0.000000000000000000, 0.000000000000000000 ) ) ;
#92 = PRODUCT_CONTEXT ( 'NONE', #62, 'mechanical' ) ;
#93 = AXIS2_PLACEMENT_3D ( 'NONE', #117, #107, #34 ) ;
#94 = EDGE_LOOP ( 'NONE', ( #8 ) ) ;
#95 = CIRCLE ( 'NONE', #93, 50.00000000000000000 ) ;
#96 = CARTESIAN_POINT ( 'NONE',  ( 0.000000000000000000, 100.0000000000000000, 50.00000000000000000 ) ) ;
#97 = FACE_OUTER_BOUND ( 'NONE', #94, .T. ) ;
#98 = FACE_OUTER_BOUND ( 'NONE', #83, .T. ) ;
#99 = FILL_AREA_STYLE ('',( #86 ) ) ;
#100 = APPLICATION_CONTEXT ( 'automotive_design' ) ;
#101 = AXIS2_PLACEMENT_3D ( 'NONE', #54, #79, #55 ) ;
#102 = CARTESIAN_POINT ( 'NONE',  ( 0.000000000000000000, 0.000000000000000000, 0.000000000000000000 ) ) ;
#103 = EDGE_LOOP ( 'NONE', ( #78 ) ) ;
#104 = AXIS2_PLACEMENT_3D ( 'NONE', #47, #37, #74 ) ;
#105 = SURFACE_STYLE_FILL_AREA ( #99 ) ;
#106 = CIRCLE ( 'NONE', #26, 50.00000000000000000 ) ;
#107 = DIRECTION ( 'NONE',  ( 0.000000000000000000, 1.000000000000000000, 0.000000000000000000 ) ) ;
#108 = VERTEX_POINT ( 'NONE', #96 ) ;
#109 = PRODUCT_CONTEXT ( 'NONE', #100, 'mechanical' ) ;
#110 = PRODUCT_DEFINITION_FORMATION_WITH_SPECIFIED_SOURCE ( 'ANY', '', #82, .NOT_KNOWN. ) ;
#111 = SHAPE_DEFINITION_REPRESENTATION ( #75, #116 ) ;
#112 = APPLICATION_PROTOCOL_DEFINITION ( 'draft international standard', 'automotive_design', 1998, #58 ) ;
#113 = MECHANICAL_DESIGN_GEOMETRIC_PRESENTATION_REPRESENTATION (  '', ( #4 ), #52 ) ;
#114 = SHAPE_REPRESENTATION ( 'C4_component_override_2__ap214_noappear', ( #76, #7, #18 ), #12 ) ;
#115 = PLANE ( 'NONE',  #59 ) ;
#116 = SHAPE_REPRESENTATION ( 'C4_part_1', ( #104 ), #127 ) ;
#117 = CARTESIAN_POINT ( 'NONE',  ( 0.000000000000000000, 100.0000000000000000, 0.000000000000000000 ) ) ;
#118 = PRODUCT_DEFINITION_CONTEXT ( 'detailed design', #9, 'design' ) ;
#119 =( NAMED_UNIT ( * ) SI_UNIT ( $, .STERADIAN. ) SOLID_ANGLE_UNIT ( ) );
#120 = UNCERTAINTY_MEASURE_WITH_UNIT (LENGTH_MEASURE( 1.000000000000000082E-05 ), #2, 'distance_accuracy_value', 'NONE');
#121 = CONTEXT_DEPENDENT_SHAPE_REPRESENTATION ( #66, #32 ) ;
#122 = VERTEX_POINT ( 'NONE', #39 ) ;
#123 = ITEM_DEFINED_TRANSFORMATION ( 'NONE', 'NONE', #18,  #104 ) ;
#124 = ADVANCED_FACE ( 'NONE', ( #97 ), #129, .F. ) ;
#125 = PRODUCT_DEFINITION_SHAPE ( 'NONE', 'NONE',  #56 ) ;
#126 = ORIENTED_EDGE ( 'NONE', *, *, #6, .T. ) ;
#127 =( GEOMETRIC_REPRESENTATION_CONTEXT ( 3 ) GLOBAL_UNCERTAINTY_ASSIGNED_CONTEXT ( ( #49 ) ) GLOBAL_UNIT_ASSIGNED_CONTEXT ( ( #80, #10, #119 ) ) REPRESENTATION_CONTEXT ( 'NONE', 'WORKASPACE' ) );
#128 = CARTESIAN_POINT ( 'NONE',  ( 0.000000000000000000, 100.0000000000000000, 0.000000000000000000 ) ) ;
#129 = PLANE ( 'NONE',  #101 ) ;
#130 = NEXT_ASSEMBLY_USAGE_OCCURRENCE ( 'NAUO1', ' ', ' ', #56, #63, $ ) ;
#131 = NEXT_ASSEMBLY_USAGE_OCCURRENCE ( 'NAUO2', ' ', ' ', #56, #63, $ ) ;
ENDSEC;
END-ISO-10303-21;
