ISO-10303-21;
HEADER;
FILE_DESCRIPTION (( 'STEP AP214' ),
    '1' );
FILE_NAME ('C4_component_override_2__ap214_split.step',
    '2026-08-06T13:09:25',
    ( '' ),
    ( '' ),
    'SwSTEP 2.0',
    'SolidWorks 2026',
    '' );
FILE_SCHEMA (( 'AUTOMOTIVE_DESIGN' ));
ENDSEC;

DATA;
#1 = VERTEX_POINT ( 'NONE', #69 ) ;
#2 = SURFACE_STYLE_FILL_AREA ( #82 ) ;
#3 = DIRECTION ( 'NONE',  ( 0.000000000000000000, -0.000000000000000000, 1.000000000000000000 ) ) ;
#4 = AXIS2_PLACEMENT_3D ( 'NONE', #42, #66, #100 ) ;
#5 = PRODUCT_RELATED_PRODUCT_CATEGORY ( 'part', '', ( #23 ) ) ;
#6 = SURFACE_STYLE_USAGE ( .BOTH. , #172 ) ;
#7 = EDGE_CURVE ( 'NONE', #1, #41, #86, .T. ) ;
#8 = CIRCLE ( 'NONE', #47, 50.00000000000000000 ) ;
#9 = DIRECTION ( 'NONE',  ( 1.000000000000000000, 0.000000000000000000, 0.000000000000000000 ) ) ;
#10 = PRODUCT ( 'C4_part_1', 'C4_part_1', '', ( #131 ) ) ;
#11 = SHAPE_REPRESENTATION ( 'C4_part_1', ( #111 ), #99 ) ;
#12 = CARTESIAN_POINT ( 'NONE',  ( 129.8588026547804475, -29.07840402331203578, -68.52472038008272648 ) ) ;
#13 = CARTESIAN_POINT ( 'NONE',  ( 0.000000000000000000, 0.000000000000000000, 0.000000000000000000 ) ) ;
#14 = EDGE_LOOP ( 'NONE', ( #139, #56, #126, #97 ) ) ;
#15 = CARTESIAN_POINT ( 'NONE',  ( 0.000000000000000000, 0.000000000000000000, -50.00000000000000000 ) ) ;
#16 = CARTESIAN_POINT ( 'NONE',  ( 0.000000000000000000, 100.0000000000000000, 0.000000000000000000 ) ) ;
#17 = UNCERTAINTY_MEASURE_WITH_UNIT (LENGTH_MEASURE( 1.000000000000000082E-05 ), #33, 'distance_accuracy_value', 'NONE');
#18 = DIRECTION ( 'NONE',  ( 0.000000000000000000, 0.000000000000000000, 1.000000000000000000 ) ) ;
#19 =( NAMED_UNIT ( * ) PLANE_ANGLE_UNIT ( ) SI_UNIT ( $, .RADIAN. ) );
#20 =( NAMED_UNIT ( * ) SI_UNIT ( $, .STERADIAN. ) SOLID_ANGLE_UNIT ( ) );
#21 = DIRECTION ( 'NONE',  ( 0.000000000000000000, 0.000000000000000000, 1.000000000000000000 ) ) ;
#22 = DIRECTION ( 'NONE',  ( 1.000000000000000000, 0.000000000000000000, 0.000000000000000000 ) ) ;
#23 = PRODUCT ( 'C4_component_override_2__ap214_split', 'C4_component_override_2__ap214_split', '', ( #75 ) ) ;
#24 = APPLICATION_PROTOCOL_DEFINITION ( 'draft international standard', 'automotive_design', 1998, #134 ) ;
#25 = CIRCLE ( 'NONE', #148, 50.00000000000000000 ) ;
#26 =( NAMED_UNIT ( * ) SI_UNIT ( $, .STERADIAN. ) SOLID_ANGLE_UNIT ( ) );
#27 = ORIENTED_EDGE ( 'NONE', *, *, #158, .T. ) ;
#28 = CARTESIAN_POINT ( 'NONE',  ( 6.123233995736766085E-15, 0.000000000000000000, 50.00000000000000000 ) ) ;
#29 = VERTEX_POINT ( 'NONE', #15 ) ;
#30 = CARTESIAN_POINT ( 'NONE',  ( 0.000000000000000000, 100.0000000000000000, -50.00000000000000000 ) ) ;
#31 = CIRCLE ( 'NONE', #130, 50.00000000000000000 ) ;
#32 = SURFACE_STYLE_USAGE ( .BOTH. , #114 ) ;
#33 =( LENGTH_UNIT ( ) NAMED_UNIT ( * ) SI_UNIT ( .MILLI., .METRE. ) );
#34 = EDGE_CURVE ( 'NONE', #29, #137, #25, .T. ) ;
#35 = APPLICATION_PROTOCOL_DEFINITION ( 'draft international standard', 'automotive_design', 1998, #116 ) ;
#36 = VECTOR ( 'NONE', #95, 1000.000000000000000 ) ;
#37 = PRODUCT_DEFINITION_SHAPE ( 'NONE', 'NONE',  #64 ) ;
#38 = EDGE_CURVE ( 'NONE', #1, #29, #110, .T. ) ;
#39 = AXIS2_PLACEMENT_3D ( 'NONE', #55, #83, #18 ) ;
#40 = ORIENTED_EDGE ( 'NONE', *, *, #94, .T. ) ;
#41 = VERTEX_POINT ( 'NONE', #81 ) ;
#42 = CARTESIAN_POINT ( 'NONE',  ( 0.000000000000000000, 100.0000000000000000, 0.000000000000000000 ) ) ;
#43 = LINE ( 'NONE', #101, #36 ) ;
#44 = DIRECTION ( 'NONE',  ( 0.000000000000000000, 0.000000000000000000, 1.000000000000000000 ) ) ;
#45 = AXIS2_PLACEMENT_3D ( 'NONE', #168, #108, #149 ) ;
#46 = SHAPE_REPRESENTATION_RELATIONSHIP ( 'NONE' , 'NONE' ,  #11, #87 ) ;
#47 = AXIS2_PLACEMENT_3D ( 'NONE', #16, #67, #183 ) ;
#48 = SHAPE_REPRESENTATION ( 'C4_component_override_2__ap214_split', ( #109, #125, #179 ), #136 ) ;
#49 = ITEM_DEFINED_TRANSFORMATION ( 'NONE', 'NONE', #179,  #111 ) ;
#50 = ADVANCED_FACE ( 'NONE', ( #169 ), #167, .T. ) ;
#51 = MECHANICAL_DESIGN_GEOMETRIC_PRESENTATION_REPRESENTATION (  '', ( #60 ), #151 ) ;
#52 = CONTEXT_DEPENDENT_SHAPE_REPRESENTATION ( #157, #176 ) ;
#53 = STYLED_ITEM ( 'NONE', ( #174 ), #87 ) ;
#54 = CARTESIAN_POINT ( 'NONE',  ( 0.000000000000000000, 100.0000000000000000, 0.000000000000000000 ) ) ;
#55 = CARTESIAN_POINT ( 'NONE',  ( 0.000000000000000000, 100.0000000000000000, 0.000000000000000000 ) ) ;
#56 = ORIENTED_EDGE ( 'NONE', *, *, #7, .F. ) ;
#57 = CYLINDRICAL_SURFACE ( 'NONE', #45, 50.00000000000000000 ) ;
#58 = ORIENTED_EDGE ( 'NONE', *, *, #73, .F. ) ;
#59 = ADVANCED_FACE ( 'NONE', ( #122 ), #112, .T. ) ;
#60 = STYLED_ITEM ( 'NONE', ( #127 ), #156 ) ;
#61 = CARTESIAN_POINT ( 'NONE',  ( 0.000000000000000000, 0.000000000000000000, 0.000000000000000000 ) ) ;
#62 = COLOUR_RGB ( '',1.000000000000000000, 0.000000000000000000, 0.000000000000000000 ) ;
#63 = APPLICATION_PROTOCOL_DEFINITION ( 'draft international standard', 'automotive_design', 1998, #77 ) ;
#64 = PRODUCT_DEFINITION ( 'UNKNOWN', '', #161, #107 ) ;
#65 = MECHANICAL_DESIGN_GEOMETRIC_PRESENTATION_REPRESENTATION (  '', ( #53 ), #181 ) ;
#66 = DIRECTION ( 'NONE',  ( -0.000000000000000000, -1.000000000000000000, -0.000000000000000000 ) ) ;
#67 = DIRECTION ( 'NONE',  ( 0.000000000000000000, 1.000000000000000000, 0.000000000000000000 ) ) ;
#68 = EDGE_LOOP ( 'NONE', ( #164, #84 ) ) ;
#69 = CARTESIAN_POINT ( 'NONE',  ( 0.000000000000000000, 100.0000000000000000, -50.00000000000000000 ) ) ;
#70 = PRODUCT_DEFINITION ( 'UNKNOWN', '', #103, #138 ) ;
#71 = DIRECTION ( 'NONE',  ( 0.000000000000000000, 1.000000000000000000, 0.000000000000000000 ) ) ;
#72 = COLOUR_RGB ( '',0.9098039215686274384, 0.4431372549019607643, 0.03137254901960784270 ) ;
#73 = EDGE_CURVE ( 'NONE', #41, #1, #8, .T. ) ;
#74 = PLANE ( 'NONE',  #171 ) ;
#75 = PRODUCT_CONTEXT ( 'NONE', #121, 'mechanical' ) ;
#76 = AXIS2_PLACEMENT_3D ( 'NONE', #54, #184, #135 ) ;
#77 = APPLICATION_CONTEXT ( 'automotive_design' ) ;
#78 = ADVANCED_FACE ( 'NONE', ( #106 ), #57, .T. ) ;
#79 =( LENGTH_UNIT ( ) NAMED_UNIT ( * ) SI_UNIT ( .MILLI., .METRE. ) );
#80 = ITEM_DEFINED_TRANSFORMATION ( 'NONE', 'NONE', #125,  #111 ) ;
#81 = CARTESIAN_POINT ( 'NONE',  ( 6.123233995736766085E-15, 100.0000000000000000, 50.00000000000000000 ) ) ;
#82 = FILL_AREA_STYLE ('',( #182 ) ) ;
#83 = DIRECTION ( 'NONE',  ( 0.000000000000000000, 1.000000000000000000, 0.000000000000000000 ) ) ;
#84 = ORIENTED_EDGE ( 'NONE', *, *, #158, .F. ) ;
#85 = EDGE_LOOP ( 'NONE', ( #58, #40, #27, #123 ) ) ;
#86 = CIRCLE ( 'NONE', #39, 50.00000000000000000 ) ;
#87 = ADVANCED_BREP_SHAPE_REPRESENTATION ( '', ( #156, #111 ), #99 ) ;
#88 = SURFACE_STYLE_FILL_AREA ( #115 ) ;
#89 =( NAMED_UNIT ( * ) SI_UNIT ( $, .STERADIAN. ) SOLID_ANGLE_UNIT ( ) );
#90 = DIRECTION ( 'NONE',  ( 1.000000000000000000, 0.000000000000000000, 0.000000000000000000 ) ) ;
#91 = VECTOR ( 'NONE', #150, 1000.000000000000000 ) ;
#92 = DIRECTION ( 'NONE',  ( 0.000000000000000000, 0.000000000000000000, 1.000000000000000000 ) ) ;
#93 =( NAMED_UNIT ( * ) PLANE_ANGLE_UNIT ( ) SI_UNIT ( $, .RADIAN. ) );
#94 = EDGE_CURVE ( 'NONE', #41, #137, #43, .T. ) ;
#95 = DIRECTION ( 'NONE',  ( -0.000000000000000000, -1.000000000000000000, -0.000000000000000000 ) ) ;
#96 = CARTESIAN_POINT ( 'NONE',  ( 0.000000000000000000, 0.000000000000000000, 0.000000000000000000 ) ) ;
#97 = ORIENTED_EDGE ( 'NONE', *, *, #34, .T. ) ;
#98 = UNCERTAINTY_MEASURE_WITH_UNIT (LENGTH_MEASURE( 1.000000000000000082E-05 ), #79, 'distance_accuracy_value', 'NONE');
#99 =( GEOMETRIC_REPRESENTATION_CONTEXT ( 3 ) GLOBAL_UNCERTAINTY_ASSIGNED_CONTEXT ( ( #17 ) ) GLOBAL_UNIT_ASSIGNED_CONTEXT ( ( #33, #19, #89 ) ) REPRESENTATION_CONTEXT ( 'NONE', 'WORKASPACE' ) );
#100 = DIRECTION ( 'NONE',  ( 0.000000000000000000, 0.000000000000000000, -1.000000000000000000 ) ) ;
#101 = CARTESIAN_POINT ( 'NONE',  ( 6.123233995736766085E-15, 100.0000000000000000, 50.00000000000000000 ) ) ;
#102 =( NAMED_UNIT ( * ) PLANE_ANGLE_UNIT ( ) SI_UNIT ( $, .RADIAN. ) );
#103 = PRODUCT_DEFINITION_FORMATION_WITH_SPECIFIED_SOURCE ( 'ANY', '', #10, .NOT_KNOWN. ) ;
#104 =( REPRESENTATION_RELATIONSHIP ('NONE','NONE', #48, #11 ) REPRESENTATION_RELATIONSHIP_WITH_TRANSFORMATION ( #80 )SHAPE_REPRESENTATION_RELATIONSHIP( ) );
#105 = PRESENTATION_LAYER_ASSIGNMENT (  '', '', ( #60 ) ) ;
#106 = FACE_OUTER_BOUND ( 'NONE', #14, .T. ) ;
#107 = PRODUCT_DEFINITION_CONTEXT ( 'detailed design', #77, 'design' ) ;
#108 = DIRECTION ( 'NONE',  ( -0.000000000000000000, -1.000000000000000000, -0.000000000000000000 ) ) ;
#109 = AXIS2_PLACEMENT_3D ( 'NONE', #146, #145, #132 ) ;
#110 = LINE ( 'NONE', #30, #91 ) ;
#111 = AXIS2_PLACEMENT_3D ( 'NONE', #61, #21, #143 ) ;
#112 = PLANE ( 'NONE',  #76 ) ;
#113 = DIRECTION ( 'NONE',  ( 0.000000000000000000, 0.000000000000000000, 1.000000000000000000 ) ) ;
#114 = SURFACE_SIDE_STYLE ('',( #88 ) ) ;
#115 = FILL_AREA_STYLE ('',( #117 ) ) ;
#116 = APPLICATION_CONTEXT ( 'automotive_design' ) ;
#117 = FILL_AREA_STYLE_COLOUR ( '', #72 ) ;
#118 = PRODUCT_DEFINITION_SHAPE ( 'NONE', 'NONE',  #185 ) ;
#119 = CONTEXT_DEPENDENT_SHAPE_REPRESENTATION ( #104, #118 ) ;
#120 = PRODUCT_DEFINITION_SHAPE ( 'NONE', 'NONE',  #70 ) ;
#121 = APPLICATION_CONTEXT ( 'automotive_design' ) ;
#122 = FACE_OUTER_BOUND ( 'NONE', #165, .T. ) ;
#123 = ORIENTED_EDGE ( 'NONE', *, *, #38, .F. ) ;
#124 = UNCERTAINTY_MEASURE_WITH_UNIT (LENGTH_MEASURE( 1.000000000000000082E-05 ), #170, 'distance_accuracy_value', 'NONE');
#125 = AXIS2_PLACEMENT_3D ( 'NONE', #162, #144, #9 ) ;
#126 = ORIENTED_EDGE ( 'NONE', *, *, #38, .T. ) ;
#127 = PRESENTATION_STYLE_ASSIGNMENT (( #6 ) ) ;
#128 = CLOSED_SHELL ( 'NONE', ( #50, #78, #59, #173 ) ) ;
#129 =( NAMED_UNIT ( * ) PLANE_ANGLE_UNIT ( ) SI_UNIT ( $, .RADIAN. ) );
#130 = AXIS2_PLACEMENT_3D ( 'NONE', #13, #141, #44 ) ;
#131 = PRODUCT_CONTEXT ( 'NONE', #116, 'mechanical' ) ;
#132 = DIRECTION ( 'NONE',  ( 1.000000000000000000, 0.000000000000000000, 0.000000000000000000 ) ) ;
#133 = AXIS2_PLACEMENT_3D ( 'NONE', #178, #92, #22 ) ;
#134 = APPLICATION_CONTEXT ( 'automotive_design' ) ;
#135 = DIRECTION ( 'NONE',  ( 0.000000000000000000, -0.000000000000000000, 1.000000000000000000 ) ) ;
#136 =( GEOMETRIC_REPRESENTATION_CONTEXT ( 3 ) GLOBAL_UNCERTAINTY_ASSIGNED_CONTEXT ( ( #98 ) ) GLOBAL_UNIT_ASSIGNED_CONTEXT ( ( #79, #93, #26 ) ) REPRESENTATION_CONTEXT ( 'NONE', 'WORKASPACE' ) );
#137 = VERTEX_POINT ( 'NONE', #28 ) ;
#138 = PRODUCT_DEFINITION_CONTEXT ( 'detailed design', #134, 'design' ) ;
#139 = ORIENTED_EDGE ( 'NONE', *, *, #94, .F. ) ;
#140 =( LENGTH_UNIT ( ) NAMED_UNIT ( * ) SI_UNIT ( .MILLI., .METRE. ) );
#141 = DIRECTION ( 'NONE',  ( 0.000000000000000000, 1.000000000000000000, 0.000000000000000000 ) ) ;
#142 = PRESENTATION_LAYER_ASSIGNMENT (  '', '', ( #53 ) ) ;
#143 = DIRECTION ( 'NONE',  ( 1.000000000000000000, 0.000000000000000000, 0.000000000000000000 ) ) ;
#144 = DIRECTION ( 'NONE',  ( 0.000000000000000000, 0.000000000000000000, 1.000000000000000000 ) ) ;
#145 = DIRECTION ( 'NONE',  ( 0.000000000000000000, 0.000000000000000000, 1.000000000000000000 ) ) ;
#146 = CARTESIAN_POINT ( 'NONE',  ( 0.000000000000000000, 0.000000000000000000, 0.000000000000000000 ) ) ;
#147 = APPLICATION_PROTOCOL_DEFINITION ( 'draft international standard', 'automotive_design', 1998, #121 ) ;
#148 = AXIS2_PLACEMENT_3D ( 'NONE', #96, #180, #113 ) ;
#149 = DIRECTION ( 'NONE',  ( 0.000000000000000000, 0.000000000000000000, -1.000000000000000000 ) ) ;
#150 = DIRECTION ( 'NONE',  ( -0.000000000000000000, -1.000000000000000000, -0.000000000000000000 ) ) ;
#151 =( GEOMETRIC_REPRESENTATION_CONTEXT ( 3 ) GLOBAL_UNCERTAINTY_ASSIGNED_CONTEXT ( ( #166 ) ) GLOBAL_UNIT_ASSIGNED_CONTEXT ( ( #140, #129, #20 ) ) REPRESENTATION_CONTEXT ( 'NONE', 'WORKASPACE' ) );
#152 = ORIENTED_EDGE ( 'NONE', *, *, #73, .T. ) ;
#153 = ORIENTED_EDGE ( 'NONE', *, *, #7, .T. ) ;
#154 = CARTESIAN_POINT ( 'NONE',  ( 0.000000000000000000, 0.000000000000000000, 0.000000000000000000 ) ) ;
#155 =( NAMED_UNIT ( * ) SI_UNIT ( $, .STERADIAN. ) SOLID_ANGLE_UNIT ( ) );
#156 = MANIFOLD_SOLID_BREP ( 'Boss-Extrude1', #128 ) ;
#157 =( REPRESENTATION_RELATIONSHIP ('NONE','NONE', #48, #11 ) REPRESENTATION_RELATIONSHIP_WITH_TRANSFORMATION ( #49 )SHAPE_REPRESENTATION_RELATIONSHIP( ) );
#158 = EDGE_CURVE ( 'NONE', #137, #29, #31, .T. ) ;
#159 = FACE_OUTER_BOUND ( 'NONE', #68, .T. ) ;
#160 = SHAPE_DEFINITION_REPRESENTATION ( #37, #48 ) ;
#161 = PRODUCT_DEFINITION_FORMATION_WITH_SPECIFIED_SOURCE ( 'ANY', '', #23, .NOT_KNOWN. ) ;
#162 = CARTESIAN_POINT ( 'NONE',  ( 0.000000000000000000, 0.000000000000000000, 0.000000000000000000 ) ) ;
#163 = DIRECTION ( 'NONE',  ( 0.000000000000000000, 0.000000000000000000, 1.000000000000000000 ) ) ;
#164 = ORIENTED_EDGE ( 'NONE', *, *, #34, .F. ) ;
#165 = EDGE_LOOP ( 'NONE', ( #153, #152 ) ) ;
#166 = UNCERTAINTY_MEASURE_WITH_UNIT (LENGTH_MEASURE( 1.000000000000000082E-05 ), #140, 'distance_accuracy_value', 'NONE');
#167 = CYLINDRICAL_SURFACE ( 'NONE', #4, 50.00000000000000000 ) ;
#168 = CARTESIAN_POINT ( 'NONE',  ( 0.000000000000000000, 100.0000000000000000, 0.000000000000000000 ) ) ;
#169 = FACE_OUTER_BOUND ( 'NONE', #85, .T. ) ;
#170 =( LENGTH_UNIT ( ) NAMED_UNIT ( * ) SI_UNIT ( .MILLI., .METRE. ) );
#171 = AXIS2_PLACEMENT_3D ( 'NONE', #154, #71, #3 ) ;
#172 = SURFACE_SIDE_STYLE ('',( #2 ) ) ;
#173 = ADVANCED_FACE ( 'NONE', ( #159 ), #74, .F. ) ;
#174 = PRESENTATION_STYLE_ASSIGNMENT (( #32 ) ) ;
#175 = PRODUCT_RELATED_PRODUCT_CATEGORY ( 'part', '', ( #10 ) ) ;
#176 = PRODUCT_DEFINITION_SHAPE ( 'NONE', 'NONE',  #186 ) ;
#177 = SHAPE_DEFINITION_REPRESENTATION ( #120, #11 ) ;
#178 = CARTESIAN_POINT ( 'NONE',  ( 0.000000000000000000, 0.000000000000000000, 0.000000000000000000 ) ) ;
#179 = AXIS2_PLACEMENT_3D ( 'NONE', #12, #163, #90 ) ;
#180 = DIRECTION ( 'NONE',  ( 0.000000000000000000, 1.000000000000000000, 0.000000000000000000 ) ) ;
#181 =( GEOMETRIC_REPRESENTATION_CONTEXT ( 3 ) GLOBAL_UNCERTAINTY_ASSIGNED_CONTEXT ( ( #124 ) ) GLOBAL_UNIT_ASSIGNED_CONTEXT ( ( #170, #102, #155 ) ) REPRESENTATION_CONTEXT ( 'NONE', 'WORKASPACE' ) );
#182 = FILL_AREA_STYLE_COLOUR ( '', #62 ) ;
#183 = DIRECTION ( 'NONE',  ( 0.000000000000000000, 0.000000000000000000, 1.000000000000000000 ) ) ;
#184 = DIRECTION ( 'NONE',  ( 0.000000000000000000, 1.000000000000000000, 0.000000000000000000 ) ) ;
#185 = NEXT_ASSEMBLY_USAGE_OCCURRENCE ( 'NAUO1', ' ', ' ', #64, #70, $ ) ;
#186 = NEXT_ASSEMBLY_USAGE_OCCURRENCE ( 'NAUO2', ' ', ' ', #64, #70, $ ) ;
ENDSEC;
END-ISO-10303-21;
