ISO-10303-21;
HEADER;
FILE_DESCRIPTION (( 'STEP AP214' ),
    '1' );
FILE_NAME ('C4_component_override_1__ap214_noappear.step',
    '2026-08-06T13:09:24',
    ( '' ),
    ( '' ),
    'SwSTEP 2.0',
    'SolidWorks 2026',
    '' );
FILE_SCHEMA (( 'AUTOMOTIVE_DESIGN' ));
ENDSEC;

DATA;
#1 = PRODUCT ( 'C4_component_override_1__ap214_noappear', 'C4_component_override_1__ap214_noappear', '', ( #61 ) ) ;
#2 = ORIENTED_EDGE ( 'NONE', *, *, #75, .T. ) ;
#3 = SURFACE_STYLE_USAGE ( .BOTH. , #58 ) ;
#4 = ORIENTED_EDGE ( 'NONE', *, *, #75, .F. ) ;
#5 = FACE_OUTER_BOUND ( 'NONE', #94, .T. ) ;
#6 = UNCERTAINTY_MEASURE_WITH_UNIT (LENGTH_MEASURE( 1.000000000000000082E-05 ), #116, 'distance_accuracy_value', 'NONE');
#7 = AXIS2_PLACEMENT_3D ( 'NONE', #51, #128, #84 ) ;
#8 = APPLICATION_PROTOCOL_DEFINITION ( 'draft international standard', 'automotive_design', 1998, #83 ) ;
#9 = CLOSED_SHELL ( 'NONE', ( #86, #100, #67 ) ) ;
#10 = CARTESIAN_POINT ( 'NONE',  ( 0.000000000000000000, 0.000000000000000000, 0.000000000000000000 ) ) ;
#11 = CYLINDRICAL_SURFACE ( 'NONE', #40, 50.00000000000000000 ) ;
#12 =( LENGTH_UNIT ( ) NAMED_UNIT ( * ) SI_UNIT ( .MILLI., .METRE. ) );
#13 = DIRECTION ( 'NONE',  ( 0.000000000000000000, 1.000000000000000000, 0.000000000000000000 ) ) ;
#14 = AXIS2_PLACEMENT_3D ( 'NONE', #70, #122, #21 ) ;
#15 =( NAMED_UNIT ( * ) SI_UNIT ( $, .STERADIAN. ) SOLID_ANGLE_UNIT ( ) );
#16 = APPLICATION_PROTOCOL_DEFINITION ( 'draft international standard', 'automotive_design', 1998, #19 ) ;
#17 = UNCERTAINTY_MEASURE_WITH_UNIT (LENGTH_MEASURE( 1.000000000000000082E-05 ), #56, 'distance_accuracy_value', 'NONE');
#18 = PRODUCT_DEFINITION_SHAPE ( 'NONE', 'NONE',  #131 ) ;
#19 = APPLICATION_CONTEXT ( 'automotive_design' ) ;
#20 = DIRECTION ( 'NONE',  ( 0.000000000000000000, 1.000000000000000000, 0.000000000000000000 ) ) ;
#21 = DIRECTION ( 'NONE',  ( 1.000000000000000000, 0.000000000000000000, 0.000000000000000000 ) ) ;
#22 = AXIS2_PLACEMENT_3D ( 'NONE', #115, #20, #106 ) ;
#23 = CARTESIAN_POINT ( 'NONE',  ( 129.8588026547804475, -29.07840402331203578, -68.52472038008272648 ) ) ;
#24 = PRODUCT_RELATED_PRODUCT_CATEGORY ( 'part', '', ( #1 ) ) ;
#25 = DIRECTION ( 'NONE',  ( 0.000000000000000000, -0.000000000000000000, 1.000000000000000000 ) ) ;
#26 = AXIS2_PLACEMENT_3D ( 'NONE', #118, #108, #31 ) ;
#27 = PRODUCT ( 'C4_part_1', 'C4_part_1', '', ( #73 ) ) ;
#28 = APPLICATION_PROTOCOL_DEFINITION ( 'draft international standard', 'automotive_design', 1998, #71 ) ;
#29 = FACE_OUTER_BOUND ( 'NONE', #125, .T. ) ;
#30 = FILL_AREA_STYLE_COLOUR ( '', #68 ) ;
#31 = DIRECTION ( 'NONE',  ( 1.000000000000000000, 0.000000000000000000, 0.000000000000000000 ) ) ;
#32 = DIRECTION ( 'NONE',  ( 0.000000000000000000, 0.000000000000000000, 1.000000000000000000 ) ) ;
#33 = CARTESIAN_POINT ( 'NONE',  ( 0.000000000000000000, 100.0000000000000000, 50.00000000000000000 ) ) ;
#34 = PRODUCT_DEFINITION_CONTEXT ( 'detailed design', #71, 'design' ) ;
#35 = PRODUCT_DEFINITION_SHAPE ( 'NONE', 'NONE',  #77 ) ;
#36 = PLANE ( 'NONE',  #46 ) ;
#37 = PRESENTATION_STYLE_ASSIGNMENT (( #3 ) ) ;
#38 = SURFACE_STYLE_FILL_AREA ( #126 ) ;
#39 = DIRECTION ( 'NONE',  ( -0.000000000000000000, -1.000000000000000000, -0.000000000000000000 ) ) ;
#40 = AXIS2_PLACEMENT_3D ( 'NONE', #48, #39, #79 ) ;
#41 =( NAMED_UNIT ( * ) SI_UNIT ( $, .STERADIAN. ) SOLID_ANGLE_UNIT ( ) );
#42 = PRODUCT_DEFINITION_CONTEXT ( 'detailed design', #19, 'design' ) ;
#43 = FACE_OUTER_BOUND ( 'NONE', #104, .T. ) ;
#44 = SHAPE_DEFINITION_REPRESENTATION ( #35, #62 ) ;
#45 = ITEM_DEFINED_TRANSFORMATION ( 'NONE', 'NONE', #66,  #57 ) ;
#46 = AXIS2_PLACEMENT_3D ( 'NONE', #10, #114, #65 ) ;
#47 = EDGE_LOOP ( 'NONE', ( #4 ) ) ;
#48 = CARTESIAN_POINT ( 'NONE',  ( 0.000000000000000000, 100.0000000000000000, 0.000000000000000000 ) ) ;
#49 = MANIFOLD_SOLID_BREP ( 'Boss-Extrude1', #9 ) ;
#50 =( NAMED_UNIT ( * ) PLANE_ANGLE_UNIT ( ) SI_UNIT ( $, .RADIAN. ) );
#51 = CARTESIAN_POINT ( 'NONE',  ( 0.000000000000000000, 0.000000000000000000, 0.000000000000000000 ) ) ;
#52 = CIRCLE ( 'NONE', #22, 50.00000000000000000 ) ;
#53 = AXIS2_PLACEMENT_3D ( 'NONE', #69, #13, #25 ) ;
#54 =( GEOMETRIC_REPRESENTATION_CONTEXT ( 3 ) GLOBAL_UNCERTAINTY_ASSIGNED_CONTEXT ( ( #6 ) ) GLOBAL_UNIT_ASSIGNED_CONTEXT ( ( #116, #121, #41 ) ) REPRESENTATION_CONTEXT ( 'NONE', 'WORKASPACE' ) );
#55 = FACE_OUTER_BOUND ( 'NONE', #47, .T. ) ;
#56 =( LENGTH_UNIT ( ) NAMED_UNIT ( * ) SI_UNIT ( .MILLI., .METRE. ) );
#57 = AXIS2_PLACEMENT_3D ( 'NONE', #119, #97, #82 ) ;
#58 = SURFACE_SIDE_STYLE ('',( #38 ) ) ;
#59 = AXIS2_PLACEMENT_3D ( 'NONE', #72, #60, #85 ) ;
#60 = DIRECTION ( 'NONE',  ( 0.000000000000000000, 1.000000000000000000, 0.000000000000000000 ) ) ;
#61 = PRODUCT_CONTEXT ( 'NONE', #64, 'mechanical' ) ;
#62 = SHAPE_REPRESENTATION ( 'C4_component_override_1__ap214_noappear', ( #14, #26, #66 ), #54 ) ;
#63 =( NAMED_UNIT ( * ) SI_UNIT ( $, .STERADIAN. ) SOLID_ANGLE_UNIT ( ) );
#64 = APPLICATION_CONTEXT ( 'automotive_design' ) ;
#65 = DIRECTION ( 'NONE',  ( 0.000000000000000000, -0.000000000000000000, 1.000000000000000000 ) ) ;
#66 = AXIS2_PLACEMENT_3D ( 'NONE', #23, #32, #98 ) ;
#67 = ADVANCED_FACE ( 'NONE', ( #29 ), #36, .F. ) ;
#68 = COLOUR_RGB ( '',0.7921568627450980005, 0.8196078431372548767, 0.9333333333333333481 ) ;
#69 = CARTESIAN_POINT ( 'NONE',  ( 0.000000000000000000, 100.0000000000000000, 0.000000000000000000 ) ) ;
#70 = CARTESIAN_POINT ( 'NONE',  ( 0.000000000000000000, 0.000000000000000000, 0.000000000000000000 ) ) ;
#71 = APPLICATION_CONTEXT ( 'automotive_design' ) ;
#72 = CARTESIAN_POINT ( 'NONE',  ( 0.000000000000000000, 0.000000000000000000, 0.000000000000000000 ) ) ;
#73 = PRODUCT_CONTEXT ( 'NONE', #83, 'mechanical' ) ;
#74 = PRODUCT_DEFINITION ( 'UNKNOWN', '', #127, #34 ) ;
#75 = EDGE_CURVE ( 'NONE', #80, #80, #52, .T. ) ;
#76 = ORIENTED_EDGE ( 'NONE', *, *, #91, .T. ) ;
#77 = PRODUCT_DEFINITION ( 'UNKNOWN', '', #102, #42 ) ;
#78 = STYLED_ITEM ( 'NONE', ( #37 ), #49 ) ;
#79 = DIRECTION ( 'NONE',  ( 0.000000000000000000, 0.000000000000000000, -1.000000000000000000 ) ) ;
#80 = VERTEX_POINT ( 'NONE', #33 ) ;
#81 = CIRCLE ( 'NONE', #59, 50.00000000000000000 ) ;
#82 = DIRECTION ( 'NONE',  ( 1.000000000000000000, 0.000000000000000000, 0.000000000000000000 ) ) ;
#83 = APPLICATION_CONTEXT ( 'automotive_design' ) ;
#84 = DIRECTION ( 'NONE',  ( 1.000000000000000000, 0.000000000000000000, 0.000000000000000000 ) ) ;
#85 = DIRECTION ( 'NONE',  ( 0.000000000000000000, 0.000000000000000000, 1.000000000000000000 ) ) ;
#86 = ADVANCED_FACE ( 'NONE', ( #55, #5 ), #11, .T. ) ;
#87 = VERTEX_POINT ( 'NONE', #99 ) ;
#88 =( GEOMETRIC_REPRESENTATION_CONTEXT ( 3 ) GLOBAL_UNCERTAINTY_ASSIGNED_CONTEXT ( ( #110 ) ) GLOBAL_UNIT_ASSIGNED_CONTEXT ( ( #12, #50, #15 ) ) REPRESENTATION_CONTEXT ( 'NONE', 'WORKASPACE' ) );
#89 = SHAPE_DEFINITION_REPRESENTATION ( #92, #120 ) ;
#90 = PRODUCT_DEFINITION_SHAPE ( 'NONE', 'NONE',  #130 ) ;
#91 = EDGE_CURVE ( 'NONE', #87, #87, #81, .T. ) ;
#92 = PRODUCT_DEFINITION_SHAPE ( 'NONE', 'NONE',  #74 ) ;
#93 =( REPRESENTATION_RELATIONSHIP ('NONE','NONE', #62, #120 ) REPRESENTATION_RELATIONSHIP_WITH_TRANSFORMATION ( #45 )SHAPE_REPRESENTATION_RELATIONSHIP( ) );
#94 = EDGE_LOOP ( 'NONE', ( #76 ) ) ;
#95 = MECHANICAL_DESIGN_GEOMETRIC_PRESENTATION_REPRESENTATION (  '', ( #78 ), #101 ) ;
#96 =( NAMED_UNIT ( * ) PLANE_ANGLE_UNIT ( ) SI_UNIT ( $, .RADIAN. ) );
#97 = DIRECTION ( 'NONE',  ( 0.000000000000000000, 0.000000000000000000, 1.000000000000000000 ) ) ;
#98 = DIRECTION ( 'NONE',  ( 1.000000000000000000, 0.000000000000000000, 0.000000000000000000 ) ) ;
#99 = CARTESIAN_POINT ( 'NONE',  ( 0.000000000000000000, 0.000000000000000000, 50.00000000000000000 ) ) ;
#100 = ADVANCED_FACE ( 'NONE', ( #43 ), #107, .T. ) ;
#101 =( GEOMETRIC_REPRESENTATION_CONTEXT ( 3 ) GLOBAL_UNCERTAINTY_ASSIGNED_CONTEXT ( ( #17 ) ) GLOBAL_UNIT_ASSIGNED_CONTEXT ( ( #56, #96, #63 ) ) REPRESENTATION_CONTEXT ( 'NONE', 'WORKASPACE' ) );
#102 = PRODUCT_DEFINITION_FORMATION_WITH_SPECIFIED_SOURCE ( 'ANY', '', #1, .NOT_KNOWN. ) ;
#103 = ORIENTED_EDGE ( 'NONE', *, *, #91, .F. ) ;
#104 = EDGE_LOOP ( 'NONE', ( #2 ) ) ;
#105 = PRODUCT_RELATED_PRODUCT_CATEGORY ( 'part', '', ( #27 ) ) ;
#106 = DIRECTION ( 'NONE',  ( 0.000000000000000000, 0.000000000000000000, 1.000000000000000000 ) ) ;
#107 = PLANE ( 'NONE',  #53 ) ;
#108 = DIRECTION ( 'NONE',  ( 0.000000000000000000, 0.000000000000000000, 1.000000000000000000 ) ) ;
#109 =( REPRESENTATION_RELATIONSHIP ('NONE','NONE', #62, #120 ) REPRESENTATION_RELATIONSHIP_WITH_TRANSFORMATION ( #124 )SHAPE_REPRESENTATION_RELATIONSHIP( ) );
#110 = UNCERTAINTY_MEASURE_WITH_UNIT (LENGTH_MEASURE( 1.000000000000000082E-05 ), #12, 'distance_accuracy_value', 'NONE');
#111 = ADVANCED_BREP_SHAPE_REPRESENTATION ( '', ( #49, #57 ), #88 ) ;
#112 = CONTEXT_DEPENDENT_SHAPE_REPRESENTATION ( #93, #18 ) ;
#113 = CONTEXT_DEPENDENT_SHAPE_REPRESENTATION ( #109, #90 ) ;
#114 = DIRECTION ( 'NONE',  ( 0.000000000000000000, 1.000000000000000000, 0.000000000000000000 ) ) ;
#115 = CARTESIAN_POINT ( 'NONE',  ( 0.000000000000000000, 100.0000000000000000, 0.000000000000000000 ) ) ;
#116 =( LENGTH_UNIT ( ) NAMED_UNIT ( * ) SI_UNIT ( .MILLI., .METRE. ) );
#117 = PRESENTATION_LAYER_ASSIGNMENT (  '', '', ( #78 ) ) ;
#118 = CARTESIAN_POINT ( 'NONE',  ( 0.000000000000000000, 0.000000000000000000, 0.000000000000000000 ) ) ;
#119 = CARTESIAN_POINT ( 'NONE',  ( 0.000000000000000000, 0.000000000000000000, 0.000000000000000000 ) ) ;
#120 = SHAPE_REPRESENTATION ( 'C4_part_1', ( #57 ), #88 ) ;
#121 =( NAMED_UNIT ( * ) PLANE_ANGLE_UNIT ( ) SI_UNIT ( $, .RADIAN. ) );
#122 = DIRECTION ( 'NONE',  ( 0.000000000000000000, 0.000000000000000000, 1.000000000000000000 ) ) ;
#123 = APPLICATION_PROTOCOL_DEFINITION ( 'draft international standard', 'automotive_design', 1998, #64 ) ;
#124 = ITEM_DEFINED_TRANSFORMATION ( 'NONE', 'NONE', #26,  #57 ) ;
#125 = EDGE_LOOP ( 'NONE', ( #103 ) ) ;
#126 = FILL_AREA_STYLE ('',( #30 ) ) ;
#127 = PRODUCT_DEFINITION_FORMATION_WITH_SPECIFIED_SOURCE ( 'ANY', '', #27, .NOT_KNOWN. ) ;
#128 = DIRECTION ( 'NONE',  ( 0.000000000000000000, 0.000000000000000000, 1.000000000000000000 ) ) ;
#129 = SHAPE_REPRESENTATION_RELATIONSHIP ( 'NONE' , 'NONE' ,  #120, #111 ) ;
#130 = NEXT_ASSEMBLY_USAGE_OCCURRENCE ( 'NAUO1', ' ', ' ', #77, #74, $ ) ;
#131 = NEXT_ASSEMBLY_USAGE_OCCURRENCE ( 'NAUO2', ' ', ' ', #77, #74, $ ) ;
ENDSEC;
END-ISO-10303-21;
