ISO-10303-21;
HEADER;
FILE_DESCRIPTION (( 'STEP AP214' ),
    '1' );
FILE_NAME ('C4_component_override_1__ap214_split.step',
    '2026-08-06T13:09:24',
    ( '' ),
    ( '' ),
    'SwSTEP 2.0',
    'SolidWorks 2026',
    '' );
FILE_SCHEMA (( 'AUTOMOTIVE_DESIGN' ));
ENDSEC;

DATA;
#1 = FILL_AREA_STYLE ('',( #2 ) ) ;
#2 = FILL_AREA_STYLE_COLOUR ( '', #29 ) ;
#3 = UNCERTAINTY_MEASURE_WITH_UNIT (LENGTH_MEASURE( 1.000000000000000082E-05 ), #124, 'distance_accuracy_value', 'NONE');
#4 = SHAPE_DEFINITION_REPRESENTATION ( #45, #14 ) ;
#5 = AXIS2_PLACEMENT_3D ( 'NONE', #174, #116, #133 ) ;
#6 = ADVANCED_BREP_SHAPE_REPRESENTATION ( '', ( #144, #55 ), #59 ) ;
#7 = EDGE_LOOP ( 'NONE', ( #64, #121, #66, #49 ) ) ;
#8 = ORIENTED_EDGE ( 'NONE', *, *, #43, .F. ) ;
#9 = ORIENTED_EDGE ( 'NONE', *, *, #90, .T. ) ;
#10 =( LENGTH_UNIT ( ) NAMED_UNIT ( * ) SI_UNIT ( .MILLI., .METRE. ) );
#11 = CARTESIAN_POINT ( 'NONE',  ( 6.123233995736766085E-15, 100.0000000000000000, 50.00000000000000000 ) ) ;
#12 = AXIS2_PLACEMENT_3D ( 'NONE', #61, #19, #113 ) ;
#13 = DIRECTION ( 'NONE',  ( -0.000000000000000000, -1.000000000000000000, -0.000000000000000000 ) ) ;
#14 = SHAPE_REPRESENTATION ( 'C4_part_1', ( #55 ), #59 ) ;
#15 = CARTESIAN_POINT ( 'NONE',  ( 6.123233995736766085E-15, 100.0000000000000000, 50.00000000000000000 ) ) ;
#16 = AXIS2_PLACEMENT_3D ( 'NONE', #125, #93, #155 ) ;
#17 = APPLICATION_PROTOCOL_DEFINITION ( 'draft international standard', 'automotive_design', 1998, #161 ) ;
#18 = CIRCLE ( 'NONE', #37, 50.00000000000000000 ) ;
#19 = DIRECTION ( 'NONE',  ( 0.000000000000000000, 0.000000000000000000, 1.000000000000000000 ) ) ;
#20 = DIRECTION ( 'NONE',  ( 1.000000000000000000, 0.000000000000000000, 0.000000000000000000 ) ) ;
#21 = DIRECTION ( 'NONE',  ( 0.000000000000000000, 1.000000000000000000, 0.000000000000000000 ) ) ;
#22 =( GEOMETRIC_REPRESENTATION_CONTEXT ( 3 ) GLOBAL_UNCERTAINTY_ASSIGNED_CONTEXT ( ( #111 ) ) GLOBAL_UNIT_ASSIGNED_CONTEXT ( ( #85, #146, #40 ) ) REPRESENTATION_CONTEXT ( 'NONE', 'WORKASPACE' ) );
#23 = CARTESIAN_POINT ( 'NONE',  ( 6.123233995736766085E-15, 0.000000000000000000, 50.00000000000000000 ) ) ;
#24 = DIRECTION ( 'NONE',  ( 0.000000000000000000, 0.000000000000000000, -1.000000000000000000 ) ) ;
#25 = VECTOR ( 'NONE', #171, 1000.000000000000000 ) ;
#26 = DIRECTION ( 'NONE',  ( 0.000000000000000000, 0.000000000000000000, -1.000000000000000000 ) ) ;
#27 = MECHANICAL_DESIGN_GEOMETRIC_PRESENTATION_REPRESENTATION (  '', ( #72 ), #126 ) ;
#28 = PLANE ( 'NONE',  #46 ) ;
#29 = COLOUR_RGB ( '',0.9098039215686274384, 0.4431372549019607643, 0.03137254901960784270 ) ;
#30 = PRODUCT_DEFINITION_SHAPE ( 'NONE', 'NONE',  #185 ) ;
#31 = EDGE_CURVE ( 'NONE', #167, #80, #107, .T. ) ;
#32 = ORIENTED_EDGE ( 'NONE', *, *, #31, .T. ) ;
#33 = CIRCLE ( 'NONE', #16, 50.00000000000000000 ) ;
#34 = VERTEX_POINT ( 'NONE', #23 ) ;
#35 = FILL_AREA_STYLE_COLOUR ( '', #106 ) ;
#36 = PRESENTATION_STYLE_ASSIGNMENT (( #109 ) ) ;
#37 = AXIS2_PLACEMENT_3D ( 'NONE', #84, #98, #139 ) ;
#38 =( NAMED_UNIT ( * ) PLANE_ANGLE_UNIT ( ) SI_UNIT ( $, .RADIAN. ) );
#39 = ADVANCED_FACE ( 'NONE', ( #119 ), #179, .T. ) ;
#40 =( NAMED_UNIT ( * ) SI_UNIT ( $, .STERADIAN. ) SOLID_ANGLE_UNIT ( ) );
#41 = VECTOR ( 'NONE', #13, 1000.000000000000000 ) ;
#42 = CARTESIAN_POINT ( 'NONE',  ( 0.000000000000000000, 0.000000000000000000, 0.000000000000000000 ) ) ;
#43 = EDGE_CURVE ( 'NONE', #34, #134, #18, .T. ) ;
#44 = SHAPE_DEFINITION_REPRESENTATION ( #102, #78 ) ;
#45 = PRODUCT_DEFINITION_SHAPE ( 'NONE', 'NONE',  #140 ) ;
#46 = AXIS2_PLACEMENT_3D ( 'NONE', #95, #51, #142 ) ;
#47 = ORIENTED_EDGE ( 'NONE', *, *, #53, .T. ) ;
#48 = CARTESIAN_POINT ( 'NONE',  ( 0.000000000000000000, 100.0000000000000000, 0.000000000000000000 ) ) ;
#49 = ORIENTED_EDGE ( 'NONE', *, *, #90, .F. ) ;
#50 =( NAMED_UNIT ( * ) SI_UNIT ( $, .STERADIAN. ) SOLID_ANGLE_UNIT ( ) );
#51 = DIRECTION ( 'NONE',  ( 0.000000000000000000, 1.000000000000000000, 0.000000000000000000 ) ) ;
#52 = CARTESIAN_POINT ( 'NONE',  ( 0.000000000000000000, 0.000000000000000000, 0.000000000000000000 ) ) ;
#53 = EDGE_CURVE ( 'NONE', #134, #34, #147, .T. ) ;
#54 = DIRECTION ( 'NONE',  ( 0.000000000000000000, 0.000000000000000000, 1.000000000000000000 ) ) ;
#55 = AXIS2_PLACEMENT_3D ( 'NONE', #42, #88, #20 ) ;
#56 = DIRECTION ( 'NONE',  ( 0.000000000000000000, 0.000000000000000000, 1.000000000000000000 ) ) ;
#57 = ADVANCED_FACE ( 'NONE', ( #141 ), #28, .T. ) ;
#58 = PRESENTATION_STYLE_ASSIGNMENT (( #129 ) ) ;
#59 =( GEOMETRIC_REPRESENTATION_CONTEXT ( 3 ) GLOBAL_UNCERTAINTY_ASSIGNED_CONTEXT ( ( #3 ) ) GLOBAL_UNIT_ASSIGNED_CONTEXT ( ( #124, #38, #50 ) ) REPRESENTATION_CONTEXT ( 'NONE', 'WORKASPACE' ) );
#60 =( NAMED_UNIT ( * ) SI_UNIT ( $, .STERADIAN. ) SOLID_ANGLE_UNIT ( ) );
#61 = CARTESIAN_POINT ( 'NONE',  ( 0.000000000000000000, 0.000000000000000000, 0.000000000000000000 ) ) ;
#62 = APPLICATION_PROTOCOL_DEFINITION ( 'draft international standard', 'automotive_design', 1998, #157 ) ;
#63 = PRODUCT_DEFINITION ( 'UNKNOWN', '', #151, #164 ) ;
#64 = ORIENTED_EDGE ( 'NONE', *, *, #112, .F. ) ;
#65 = APPLICATION_CONTEXT ( 'automotive_design' ) ;
#66 = ORIENTED_EDGE ( 'NONE', *, *, #43, .T. ) ;
#67 = CARTESIAN_POINT ( 'NONE',  ( 0.000000000000000000, 0.000000000000000000, 0.000000000000000000 ) ) ;
#68 = PRODUCT_RELATED_PRODUCT_CATEGORY ( 'part', '', ( #87 ) ) ;
#69 = DIRECTION ( 'NONE',  ( 0.000000000000000000, 1.000000000000000000, 0.000000000000000000 ) ) ;
#70 = CARTESIAN_POINT ( 'NONE',  ( 0.000000000000000000, 100.0000000000000000, -50.00000000000000000 ) ) ;
#71 = UNCERTAINTY_MEASURE_WITH_UNIT (LENGTH_MEASURE( 1.000000000000000082E-05 ), #115, 'distance_accuracy_value', 'NONE');
#72 = STYLED_ITEM ( 'NONE', ( #36 ), #144 ) ;
#73 = SHAPE_REPRESENTATION_RELATIONSHIP ( 'NONE' , 'NONE' ,  #14, #6 ) ;
#74 = APPLICATION_PROTOCOL_DEFINITION ( 'draft international standard', 'automotive_design', 1998, #65 ) ;
#75 = CLOSED_SHELL ( 'NONE', ( #176, #39, #57, #182 ) ) ;
#76 = CARTESIAN_POINT ( 'NONE',  ( 0.000000000000000000, 0.000000000000000000, 0.000000000000000000 ) ) ;
#77 = ITEM_DEFINED_TRANSFORMATION ( 'NONE', 'NONE', #5,  #55 ) ;
#78 = SHAPE_REPRESENTATION ( 'C4_component_override_1__ap214_split', ( #123, #5, #103 ), #22 ) ;
#79 = ORIENTED_EDGE ( 'NONE', *, *, #53, .F. ) ;
#80 = VERTEX_POINT ( 'NONE', #15 ) ;
#81 = PLANE ( 'NONE',  #100 ) ;
#82 =( GEOMETRIC_REPRESENTATION_CONTEXT ( 3 ) GLOBAL_UNCERTAINTY_ASSIGNED_CONTEXT ( ( #71 ) ) GLOBAL_UNIT_ASSIGNED_CONTEXT ( ( #115, #101, #60 ) ) REPRESENTATION_CONTEXT ( 'NONE', 'WORKASPACE' ) );
#83 = CARTESIAN_POINT ( 'NONE',  ( 0.000000000000000000, 100.0000000000000000, -50.00000000000000000 ) ) ;
#84 = CARTESIAN_POINT ( 'NONE',  ( 0.000000000000000000, 0.000000000000000000, 0.000000000000000000 ) ) ;
#85 =( LENGTH_UNIT ( ) NAMED_UNIT ( * ) SI_UNIT ( .MILLI., .METRE. ) );
#86 = PRESENTATION_LAYER_ASSIGNMENT (  '', '', ( #72 ) ) ;
#87 = PRODUCT ( 'C4_component_override_1__ap214_split', 'C4_component_override_1__ap214_split', '', ( #163 ) ) ;
#88 = DIRECTION ( 'NONE',  ( 0.000000000000000000, 0.000000000000000000, 1.000000000000000000 ) ) ;
#89 = PRODUCT_DEFINITION_SHAPE ( 'NONE', 'NONE',  #186 ) ;
#90 = EDGE_CURVE ( 'NONE', #167, #134, #137, .T. ) ;
#91 = CARTESIAN_POINT ( 'NONE',  ( 0.000000000000000000, 100.0000000000000000, 0.000000000000000000 ) ) ;
#92 = ORIENTED_EDGE ( 'NONE', *, *, #112, .T. ) ;
#93 = DIRECTION ( 'NONE',  ( 0.000000000000000000, 1.000000000000000000, 0.000000000000000000 ) ) ;
#94 = STYLED_ITEM ( 'NONE', ( #58 ), #6 ) ;
#95 = CARTESIAN_POINT ( 'NONE',  ( 0.000000000000000000, 100.0000000000000000, 0.000000000000000000 ) ) ;
#96 = ITEM_DEFINED_TRANSFORMATION ( 'NONE', 'NONE', #103,  #55 ) ;
#97 =( NAMED_UNIT ( * ) SI_UNIT ( $, .STERADIAN. ) SOLID_ANGLE_UNIT ( ) );
#98 = DIRECTION ( 'NONE',  ( 0.000000000000000000, 1.000000000000000000, 0.000000000000000000 ) ) ;
#99 = AXIS2_PLACEMENT_3D ( 'NONE', #91, #21, #152 ) ;
#100 = AXIS2_PLACEMENT_3D ( 'NONE', #67, #69, #181 ) ;
#101 =( NAMED_UNIT ( * ) PLANE_ANGLE_UNIT ( ) SI_UNIT ( $, .RADIAN. ) );
#102 = PRODUCT_DEFINITION_SHAPE ( 'NONE', 'NONE',  #63 ) ;
#103 = AXIS2_PLACEMENT_3D ( 'NONE', #175, #56, #114 ) ;
#104 =( REPRESENTATION_RELATIONSHIP ('NONE','NONE', #78, #14 ) REPRESENTATION_RELATIONSHIP_WITH_TRANSFORMATION ( #96 )SHAPE_REPRESENTATION_RELATIONSHIP( ) );
#105 = EDGE_LOOP ( 'NONE', ( #79, #8 ) ) ;
#106 = COLOUR_RGB ( '',1.000000000000000000, 0.000000000000000000, 0.000000000000000000 ) ;
#107 = CIRCLE ( 'NONE', #99, 50.00000000000000000 ) ;
#108 = PRODUCT_DEFINITION_FORMATION_WITH_SPECIFIED_SOURCE ( 'ANY', '', #117, .NOT_KNOWN. ) ;
#109 = SURFACE_STYLE_USAGE ( .BOTH. , #172 ) ;
#110 = CARTESIAN_POINT ( 'NONE',  ( 0.000000000000000000, 0.000000000000000000, -50.00000000000000000 ) ) ;
#111 = UNCERTAINTY_MEASURE_WITH_UNIT (LENGTH_MEASURE( 1.000000000000000082E-05 ), #85, 'distance_accuracy_value', 'NONE');
#112 = EDGE_CURVE ( 'NONE', #80, #167, #33, .T. ) ;
#113 = DIRECTION ( 'NONE',  ( 1.000000000000000000, 0.000000000000000000, 0.000000000000000000 ) ) ;
#114 = DIRECTION ( 'NONE',  ( 1.000000000000000000, 0.000000000000000000, 0.000000000000000000 ) ) ;
#115 =( LENGTH_UNIT ( ) NAMED_UNIT ( * ) SI_UNIT ( .MILLI., .METRE. ) );
#116 = DIRECTION ( 'NONE',  ( 0.000000000000000000, 0.000000000000000000, 1.000000000000000000 ) ) ;
#117 = PRODUCT ( 'C4_part_1', 'C4_part_1', '', ( #128 ) ) ;
#118 = DIRECTION ( 'NONE',  ( 0.000000000000000000, 0.000000000000000000, 1.000000000000000000 ) ) ;
#119 = FACE_OUTER_BOUND ( 'NONE', #149, .T. ) ;
#120 = AXIS2_PLACEMENT_3D ( 'NONE', #48, #153, #24 ) ;
#121 = ORIENTED_EDGE ( 'NONE', *, *, #143, .T. ) ;
#122 = FILL_AREA_STYLE ('',( #35 ) ) ;
#123 = AXIS2_PLACEMENT_3D ( 'NONE', #76, #118, #127 ) ;
#124 =( LENGTH_UNIT ( ) NAMED_UNIT ( * ) SI_UNIT ( .MILLI., .METRE. ) );
#125 = CARTESIAN_POINT ( 'NONE',  ( 0.000000000000000000, 100.0000000000000000, 0.000000000000000000 ) ) ;
#126 =( GEOMETRIC_REPRESENTATION_CONTEXT ( 3 ) GLOBAL_UNCERTAINTY_ASSIGNED_CONTEXT ( ( #130 ) ) GLOBAL_UNIT_ASSIGNED_CONTEXT ( ( #10, #138, #97 ) ) REPRESENTATION_CONTEXT ( 'NONE', 'WORKASPACE' ) );
#127 = DIRECTION ( 'NONE',  ( 1.000000000000000000, 0.000000000000000000, 0.000000000000000000 ) ) ;
#128 = PRODUCT_CONTEXT ( 'NONE', #65, 'mechanical' ) ;
#129 = SURFACE_STYLE_USAGE ( .BOTH. , #145 ) ;
#130 = UNCERTAINTY_MEASURE_WITH_UNIT (LENGTH_MEASURE( 1.000000000000000082E-05 ), #10, 'distance_accuracy_value', 'NONE');
#131 = FACE_OUTER_BOUND ( 'NONE', #105, .T. ) ;
#132 = APPLICATION_CONTEXT ( 'automotive_design' ) ;
#133 = DIRECTION ( 'NONE',  ( 1.000000000000000000, 0.000000000000000000, 0.000000000000000000 ) ) ;
#134 = VERTEX_POINT ( 'NONE', #110 ) ;
#135 = AXIS2_PLACEMENT_3D ( 'NONE', #52, #183, #54 ) ;
#136 = ORIENTED_EDGE ( 'NONE', *, *, #31, .F. ) ;
#137 = LINE ( 'NONE', #70, #41 ) ;
#138 =( NAMED_UNIT ( * ) PLANE_ANGLE_UNIT ( ) SI_UNIT ( $, .RADIAN. ) );
#139 = DIRECTION ( 'NONE',  ( 0.000000000000000000, 0.000000000000000000, 1.000000000000000000 ) ) ;
#140 = PRODUCT_DEFINITION ( 'UNKNOWN', '', #108, #162 ) ;
#141 = FACE_OUTER_BOUND ( 'NONE', #178, .T. ) ;
#142 = DIRECTION ( 'NONE',  ( 0.000000000000000000, -0.000000000000000000, 1.000000000000000000 ) ) ;
#143 = EDGE_CURVE ( 'NONE', #80, #34, #159, .T. ) ;
#144 = MANIFOLD_SOLID_BREP ( 'Boss-Extrude1', #75 ) ;
#145 = SURFACE_SIDE_STYLE ('',( #148 ) ) ;
#146 =( NAMED_UNIT ( * ) PLANE_ANGLE_UNIT ( ) SI_UNIT ( $, .RADIAN. ) );
#147 = CIRCLE ( 'NONE', #135, 50.00000000000000000 ) ;
#148 = SURFACE_STYLE_FILL_AREA ( #1 ) ;
#149 = EDGE_LOOP ( 'NONE', ( #180, #136, #9, #47 ) ) ;
#150 = PRODUCT_RELATED_PRODUCT_CATEGORY ( 'part', '', ( #117 ) ) ;
#151 = PRODUCT_DEFINITION_FORMATION_WITH_SPECIFIED_SOURCE ( 'ANY', '', #87, .NOT_KNOWN. ) ;
#152 = DIRECTION ( 'NONE',  ( 0.000000000000000000, 0.000000000000000000, 1.000000000000000000 ) ) ;
#153 = DIRECTION ( 'NONE',  ( -0.000000000000000000, -1.000000000000000000, -0.000000000000000000 ) ) ;
#154 = DIRECTION ( 'NONE',  ( -0.000000000000000000, -1.000000000000000000, -0.000000000000000000 ) ) ;
#155 = DIRECTION ( 'NONE',  ( 0.000000000000000000, 0.000000000000000000, 1.000000000000000000 ) ) ;
#156 = CYLINDRICAL_SURFACE ( 'NONE', #170, 50.00000000000000000 ) ;
#157 = APPLICATION_CONTEXT ( 'automotive_design' ) ;
#158 = FACE_OUTER_BOUND ( 'NONE', #7, .T. ) ;
#159 = LINE ( 'NONE', #11, #25 ) ;
#160 = CONTEXT_DEPENDENT_SHAPE_REPRESENTATION ( #168, #30 ) ;
#161 = APPLICATION_CONTEXT ( 'automotive_design' ) ;
#162 = PRODUCT_DEFINITION_CONTEXT ( 'detailed design', #157, 'design' ) ;
#163 = PRODUCT_CONTEXT ( 'NONE', #161, 'mechanical' ) ;
#164 = PRODUCT_DEFINITION_CONTEXT ( 'detailed design', #132, 'design' ) ;
#165 = PRESENTATION_LAYER_ASSIGNMENT (  '', '', ( #94 ) ) ;
#166 = MECHANICAL_DESIGN_GEOMETRIC_PRESENTATION_REPRESENTATION (  '', ( #94 ), #82 ) ;
#167 = VERTEX_POINT ( 'NONE', #83 ) ;
#168 =( REPRESENTATION_RELATIONSHIP ('NONE','NONE', #78, #14 ) REPRESENTATION_RELATIONSHIP_WITH_TRANSFORMATION ( #77 )SHAPE_REPRESENTATION_RELATIONSHIP( ) );
#169 = CARTESIAN_POINT ( 'NONE',  ( 0.000000000000000000, 100.0000000000000000, 0.000000000000000000 ) ) ;
#170 = AXIS2_PLACEMENT_3D ( 'NONE', #169, #154, #26 ) ;
#171 = DIRECTION ( 'NONE',  ( -0.000000000000000000, -1.000000000000000000, -0.000000000000000000 ) ) ;
#172 = SURFACE_SIDE_STYLE ('',( #184 ) ) ;
#173 = CONTEXT_DEPENDENT_SHAPE_REPRESENTATION ( #104, #89 ) ;
#174 = CARTESIAN_POINT ( 'NONE',  ( 0.000000000000000000, 0.000000000000000000, 0.000000000000000000 ) ) ;
#175 = CARTESIAN_POINT ( 'NONE',  ( 129.8588026547804475, -29.07840402331203578, -68.52472038008272648 ) ) ;
#176 = ADVANCED_FACE ( 'NONE', ( #158 ), #156, .T. ) ;
#177 = APPLICATION_PROTOCOL_DEFINITION ( 'draft international standard', 'automotive_design', 1998, #132 ) ;
#178 = EDGE_LOOP ( 'NONE', ( #32, #92 ) ) ;
#179 = CYLINDRICAL_SURFACE ( 'NONE', #120, 50.00000000000000000 ) ;
#180 = ORIENTED_EDGE ( 'NONE', *, *, #143, .F. ) ;
#181 = DIRECTION ( 'NONE',  ( 0.000000000000000000, -0.000000000000000000, 1.000000000000000000 ) ) ;
#182 = ADVANCED_FACE ( 'NONE', ( #131 ), #81, .F. ) ;
#183 = DIRECTION ( 'NONE',  ( 0.000000000000000000, 1.000000000000000000, 0.000000000000000000 ) ) ;
#184 = SURFACE_STYLE_FILL_AREA ( #122 ) ;
#185 = NEXT_ASSEMBLY_USAGE_OCCURRENCE ( 'NAUO1', ' ', ' ', #63, #140, $ ) ;
#186 = NEXT_ASSEMBLY_USAGE_OCCURRENCE ( 'NAUO2', ' ', ' ', #63, #140, $ ) ;
ENDSEC;
END-ISO-10303-21;
