ISO-10303-21;
HEADER;
FILE_DESCRIPTION (( 'STEP AP214' ),
    '1' );
FILE_NAME ('C4_component_override_1__ap214_nosplit.step',
    '2026-08-06T13:09:24',
    ( '' ),
    ( '' ),
    'SwSTEP 2.0',
    'SolidWorks 2026',
    '' );
FILE_SCHEMA (( 'AUTOMOTIVE_DESIGN' ));
ENDSEC;

DATA;
#1 = SHAPE_REPRESENTATION ( 'C4_component_override_1__ap214_nosplit', ( #13, #33, #126 ), #19 ) ;
#2 = PRODUCT_DEFINITION_CONTEXT ( 'detailed design', #104, 'design' ) ;
#3 =( LENGTH_UNIT ( ) NAMED_UNIT ( * ) SI_UNIT ( .MILLI., .METRE. ) );
#4 = PRODUCT_DEFINITION_SHAPE ( 'NONE', 'NONE',  #36 ) ;
#5 = ORIENTED_EDGE ( 'NONE', *, *, #96, .T. ) ;
#6 = DIRECTION ( 'NONE',  ( 0.000000000000000000, 0.000000000000000000, -1.000000000000000000 ) ) ;
#7 = PRESENTATION_LAYER_ASSIGNMENT (  '', '', ( #135 ) ) ;
#8 = SURFACE_STYLE_FILL_AREA ( #65 ) ;
#9 = SURFACE_SIDE_STYLE ('',( #8 ) ) ;
#10 = PRESENTATION_LAYER_ASSIGNMENT (  '', '', ( #72 ) ) ;
#11 = VERTEX_POINT ( 'NONE', #77 ) ;
#12 = CIRCLE ( 'NONE', #78, 50.00000000000000000 ) ;
#13 = AXIS2_PLACEMENT_3D ( 'NONE', #138, #139, #130 ) ;
#14 = CONTEXT_DEPENDENT_SHAPE_REPRESENTATION ( #38, #47 ) ;
#15 = AXIS2_PLACEMENT_3D ( 'NONE', #29, #115, #93 ) ;
#16 = DIRECTION ( 'NONE',  ( 1.000000000000000000, 0.000000000000000000, 0.000000000000000000 ) ) ;
#17 = FACE_OUTER_BOUND ( 'NONE', #140, .T. ) ;
#18 = DIRECTION ( 'NONE',  ( 0.000000000000000000, 1.000000000000000000, 0.000000000000000000 ) ) ;
#19 =( GEOMETRIC_REPRESENTATION_CONTEXT ( 3 ) GLOBAL_UNCERTAINTY_ASSIGNED_CONTEXT ( ( #25 ) ) GLOBAL_UNIT_ASSIGNED_CONTEXT ( ( #3, #27, #82 ) ) REPRESENTATION_CONTEXT ( 'NONE', 'WORKASPACE' ) );
#20 =( NAMED_UNIT ( * ) SI_UNIT ( $, .STERADIAN. ) SOLID_ANGLE_UNIT ( ) );
#21 = EDGE_CURVE ( 'NONE', #143, #143, #12, .T. ) ;
#22 =( NAMED_UNIT ( * ) SI_UNIT ( $, .STERADIAN. ) SOLID_ANGLE_UNIT ( ) );
#23 = CARTESIAN_POINT ( 'NONE',  ( 0.000000000000000000, 0.000000000000000000, 50.00000000000000000 ) ) ;
#24 = AXIS2_PLACEMENT_3D ( 'NONE', #75, #144, #67 ) ;
#25 = UNCERTAINTY_MEASURE_WITH_UNIT (LENGTH_MEASURE( 1.000000000000000082E-05 ), #3, 'distance_accuracy_value', 'NONE');
#26 = APPLICATION_PROTOCOL_DEFINITION ( 'draft international standard', 'automotive_design', 1998, #129 ) ;
#27 =( NAMED_UNIT ( * ) PLANE_ANGLE_UNIT ( ) SI_UNIT ( $, .RADIAN. ) );
#28 = PRODUCT_DEFINITION_FORMATION_WITH_SPECIFIED_SOURCE ( 'ANY', '', #81, .NOT_KNOWN. ) ;
#29 = CARTESIAN_POINT ( 'NONE',  ( 0.000000000000000000, 100.0000000000000000, 0.000000000000000000 ) ) ;
#30 = ADVANCED_FACE ( 'NONE', ( #74 ), #40, .T. ) ;
#31 = EDGE_LOOP ( 'NONE', ( #5 ) ) ;
#32 = SURFACE_STYLE_USAGE ( .BOTH. , #106 ) ;
#33 = AXIS2_PLACEMENT_3D ( 'NONE', #79, #123, #100 ) ;
#34 = DIRECTION ( 'NONE',  ( 0.000000000000000000, 0.000000000000000000, 1.000000000000000000 ) ) ;
#35 = CARTESIAN_POINT ( 'NONE',  ( 129.8588026547804475, -29.07840402331203578, -68.52472038008272648 ) ) ;
#36 = PRODUCT_DEFINITION ( 'UNKNOWN', '', #28, #109 ) ;
#37 = APPLICATION_PROTOCOL_DEFINITION ( 'draft international standard', 'automotive_design', 1998, #131 ) ;
#38 =( REPRESENTATION_RELATIONSHIP ('NONE','NONE', #1, #95 ) REPRESENTATION_RELATIONSHIP_WITH_TRANSFORMATION ( #110 )SHAPE_REPRESENTATION_RELATIONSHIP( ) );
#39 = EDGE_LOOP ( 'NONE', ( #62 ) ) ;
#40 = PLANE ( 'NONE',  #15 ) ;
#41 = FACE_OUTER_BOUND ( 'NONE', #39, .T. ) ;
#42 = MECHANICAL_DESIGN_GEOMETRIC_PRESENTATION_REPRESENTATION (  '', ( #135 ), #68 ) ;
#43 = EDGE_LOOP ( 'NONE', ( #103 ) ) ;
#44 = ADVANCED_FACE ( 'NONE', ( #41 ), #116, .F. ) ;
#45 = CARTESIAN_POINT ( 'NONE',  ( 0.000000000000000000, 0.000000000000000000, 0.000000000000000000 ) ) ;
#46 =( GEOMETRIC_REPRESENTATION_CONTEXT ( 3 ) GLOBAL_UNCERTAINTY_ASSIGNED_CONTEXT ( ( #124 ) ) GLOBAL_UNIT_ASSIGNED_CONTEXT ( ( #85, #136, #22 ) ) REPRESENTATION_CONTEXT ( 'NONE', 'WORKASPACE' ) );
#47 = PRODUCT_DEFINITION_SHAPE ( 'NONE', 'NONE',  #145 ) ;
#48 = SHAPE_DEFINITION_REPRESENTATION ( #70, #1 ) ;
#49 = PRODUCT ( 'C4_component_override_1__ap214_nosplit', 'C4_component_override_1__ap214_nosplit', '', ( #101 ) ) ;
#50 = AXIS2_PLACEMENT_3D ( 'NONE', #94, #142, #6 ) ;
#51 = CARTESIAN_POINT ( 'NONE',  ( 0.000000000000000000, 0.000000000000000000, 0.000000000000000000 ) ) ;
#52 = ADVANCED_FACE ( 'NONE', ( #54, #17 ), #105, .T. ) ;
#53 = FILL_AREA_STYLE_COLOUR ( '', #113 ) ;
#54 = FACE_OUTER_BOUND ( 'NONE', #43, .T. ) ;
#55 = SURFACE_STYLE_USAGE ( .BOTH. , #9 ) ;
#56 = DIRECTION ( 'NONE',  ( 1.000000000000000000, 0.000000000000000000, 0.000000000000000000 ) ) ;
#57 = CARTESIAN_POINT ( 'NONE',  ( 0.000000000000000000, 0.000000000000000000, 0.000000000000000000 ) ) ;
#58 = COLOUR_RGB ( '',0.9098039215686274384, 0.4431372549019607643, 0.03137254901960784270 ) ;
#59 = PRODUCT_DEFINITION_SHAPE ( 'NONE', 'NONE',  #146 ) ;
#60 = AXIS2_PLACEMENT_3D ( 'NONE', #73, #108, #107 ) ;
#61 = MANIFOLD_SOLID_BREP ( 'Boss-Extrude1', #86 ) ;
#62 = ORIENTED_EDGE ( 'NONE', *, *, #21, .F. ) ;
#63 = DIRECTION ( 'NONE',  ( 0.000000000000000000, 1.000000000000000000, 0.000000000000000000 ) ) ;
#64 = FILL_AREA_STYLE_COLOUR ( '', #58 ) ;
#65 = FILL_AREA_STYLE ('',( #64 ) ) ;
#66 = ADVANCED_BREP_SHAPE_REPRESENTATION ( '', ( #61, #24 ), #137 ) ;
#67 = DIRECTION ( 'NONE',  ( 1.000000000000000000, 0.000000000000000000, 0.000000000000000000 ) ) ;
#68 =( GEOMETRIC_REPRESENTATION_CONTEXT ( 3 ) GLOBAL_UNCERTAINTY_ASSIGNED_CONTEXT ( ( #87 ) ) GLOBAL_UNIT_ASSIGNED_CONTEXT ( ( #119, #76, #120 ) ) REPRESENTATION_CONTEXT ( 'NONE', 'WORKASPACE' ) );
#69 = ITEM_DEFINED_TRANSFORMATION ( 'NONE', 'NONE', #126,  #24 ) ;
#70 = PRODUCT_DEFINITION_SHAPE ( 'NONE', 'NONE',  #111 ) ;
#71 = PRODUCT_RELATED_PRODUCT_CATEGORY ( 'part', '', ( #81 ) ) ;
#72 = STYLED_ITEM ( 'NONE', ( #97 ), #66 ) ;
#73 = CARTESIAN_POINT ( 'NONE',  ( 0.000000000000000000, 100.0000000000000000, 0.000000000000000000 ) ) ;
#74 = FACE_OUTER_BOUND ( 'NONE', #31, .T. ) ;
#75 = CARTESIAN_POINT ( 'NONE',  ( 0.000000000000000000, 0.000000000000000000, 0.000000000000000000 ) ) ;
#76 =( NAMED_UNIT ( * ) PLANE_ANGLE_UNIT ( ) SI_UNIT ( $, .RADIAN. ) );
#77 = CARTESIAN_POINT ( 'NONE',  ( 0.000000000000000000, 100.0000000000000000, 50.00000000000000000 ) ) ;
#78 = AXIS2_PLACEMENT_3D ( 'NONE', #51, #63, #84 ) ;
#79 = CARTESIAN_POINT ( 'NONE',  ( 0.000000000000000000, 0.000000000000000000, 0.000000000000000000 ) ) ;
#80 = DIRECTION ( 'NONE',  ( 0.000000000000000000, 0.000000000000000000, 1.000000000000000000 ) ) ;
#81 = PRODUCT ( 'C4_part_1', 'C4_part_1', '', ( #112 ) ) ;
#82 =( NAMED_UNIT ( * ) SI_UNIT ( $, .STERADIAN. ) SOLID_ANGLE_UNIT ( ) );
#83 = CONTEXT_DEPENDENT_SHAPE_REPRESENTATION ( #88, #59 ) ;
#84 = DIRECTION ( 'NONE',  ( 0.000000000000000000, 0.000000000000000000, 1.000000000000000000 ) ) ;
#85 =( LENGTH_UNIT ( ) NAMED_UNIT ( * ) SI_UNIT ( .MILLI., .METRE. ) );
#86 = CLOSED_SHELL ( 'NONE', ( #52, #30, #44 ) ) ;
#87 = UNCERTAINTY_MEASURE_WITH_UNIT (LENGTH_MEASURE( 1.000000000000000082E-05 ), #119, 'distance_accuracy_value', 'NONE');
#88 =( REPRESENTATION_RELATIONSHIP ('NONE','NONE', #1, #95 ) REPRESENTATION_RELATIONSHIP_WITH_TRANSFORMATION ( #69 )SHAPE_REPRESENTATION_RELATIONSHIP( ) );
#89 = SHAPE_DEFINITION_REPRESENTATION ( #4, #95 ) ;
#90 = FILL_AREA_STYLE ('',( #53 ) ) ;
#91 = AXIS2_PLACEMENT_3D ( 'NONE', #45, #18, #134 ) ;
#92 = MECHANICAL_DESIGN_GEOMETRIC_PRESENTATION_REPRESENTATION (  '', ( #72 ), #46 ) ;
#93 = DIRECTION ( 'NONE',  ( 0.000000000000000000, -0.000000000000000000, 1.000000000000000000 ) ) ;
#94 = CARTESIAN_POINT ( 'NONE',  ( 0.000000000000000000, 100.0000000000000000, 0.000000000000000000 ) ) ;
#95 = SHAPE_REPRESENTATION ( 'C4_part_1', ( #24 ), #137 ) ;
#96 = EDGE_CURVE ( 'NONE', #11, #11, #121, .T. ) ;
#97 = PRESENTATION_STYLE_ASSIGNMENT (( #55 ) ) ;
#98 =( NAMED_UNIT ( * ) PLANE_ANGLE_UNIT ( ) SI_UNIT ( $, .RADIAN. ) );
#99 = SHAPE_REPRESENTATION_RELATIONSHIP ( 'NONE' , 'NONE' ,  #95, #66 ) ;
#100 = DIRECTION ( 'NONE',  ( 1.000000000000000000, 0.000000000000000000, 0.000000000000000000 ) ) ;
#101 = PRODUCT_CONTEXT ( 'NONE', #131, 'mechanical' ) ;
#102 = PRODUCT_RELATED_PRODUCT_CATEGORY ( 'part', '', ( #49 ) ) ;
#103 = ORIENTED_EDGE ( 'NONE', *, *, #96, .F. ) ;
#104 = APPLICATION_CONTEXT ( 'automotive_design' ) ;
#105 = CYLINDRICAL_SURFACE ( 'NONE', #50, 50.00000000000000000 ) ;
#106 = SURFACE_SIDE_STYLE ('',( #141 ) ) ;
#107 = DIRECTION ( 'NONE',  ( 0.000000000000000000, 0.000000000000000000, 1.000000000000000000 ) ) ;
#108 = DIRECTION ( 'NONE',  ( 0.000000000000000000, 1.000000000000000000, 0.000000000000000000 ) ) ;
#109 = PRODUCT_DEFINITION_CONTEXT ( 'detailed design', #129, 'design' ) ;
#110 = ITEM_DEFINED_TRANSFORMATION ( 'NONE', 'NONE', #33,  #24 ) ;
#111 = PRODUCT_DEFINITION ( 'UNKNOWN', '', #114, #2 ) ;
#112 = PRODUCT_CONTEXT ( 'NONE', #117, 'mechanical' ) ;
#113 = COLOUR_RGB ( '',1.000000000000000000, 0.000000000000000000, 0.000000000000000000 ) ;
#114 = PRODUCT_DEFINITION_FORMATION_WITH_SPECIFIED_SOURCE ( 'ANY', '', #49, .NOT_KNOWN. ) ;
#115 = DIRECTION ( 'NONE',  ( 0.000000000000000000, 1.000000000000000000, 0.000000000000000000 ) ) ;
#116 = PLANE ( 'NONE',  #91 ) ;
#117 = APPLICATION_CONTEXT ( 'automotive_design' ) ;
#118 = PRESENTATION_STYLE_ASSIGNMENT (( #32 ) ) ;
#119 =( LENGTH_UNIT ( ) NAMED_UNIT ( * ) SI_UNIT ( .MILLI., .METRE. ) );
#120 =( NAMED_UNIT ( * ) SI_UNIT ( $, .STERADIAN. ) SOLID_ANGLE_UNIT ( ) );
#121 = CIRCLE ( 'NONE', #60, 50.00000000000000000 ) ;
#122 =( LENGTH_UNIT ( ) NAMED_UNIT ( * ) SI_UNIT ( .MILLI., .METRE. ) );
#123 = DIRECTION ( 'NONE',  ( 0.000000000000000000, 0.000000000000000000, 1.000000000000000000 ) ) ;
#124 = UNCERTAINTY_MEASURE_WITH_UNIT (LENGTH_MEASURE( 1.000000000000000082E-05 ), #85, 'distance_accuracy_value', 'NONE');
#125 = APPLICATION_PROTOCOL_DEFINITION ( 'draft international standard', 'automotive_design', 1998, #117 ) ;
#126 = AXIS2_PLACEMENT_3D ( 'NONE', #35, #80, #16 ) ;
#127 = UNCERTAINTY_MEASURE_WITH_UNIT (LENGTH_MEASURE( 1.000000000000000082E-05 ), #122, 'distance_accuracy_value', 'NONE');
#128 = APPLICATION_PROTOCOL_DEFINITION ( 'draft international standard', 'automotive_design', 1998, #104 ) ;
#129 = APPLICATION_CONTEXT ( 'automotive_design' ) ;
#130 = DIRECTION ( 'NONE',  ( 1.000000000000000000, 0.000000000000000000, 0.000000000000000000 ) ) ;
#131 = APPLICATION_CONTEXT ( 'automotive_design' ) ;
#132 = AXIS2_PLACEMENT_3D ( 'NONE', #57, #34, #56 ) ;
#133 = ORIENTED_EDGE ( 'NONE', *, *, #21, .T. ) ;
#134 = DIRECTION ( 'NONE',  ( 0.000000000000000000, -0.000000000000000000, 1.000000000000000000 ) ) ;
#135 = STYLED_ITEM ( 'NONE', ( #118 ), #61 ) ;
#136 =( NAMED_UNIT ( * ) PLANE_ANGLE_UNIT ( ) SI_UNIT ( $, .RADIAN. ) );
#137 =( GEOMETRIC_REPRESENTATION_CONTEXT ( 3 ) GLOBAL_UNCERTAINTY_ASSIGNED_CONTEXT ( ( #127 ) ) GLOBAL_UNIT_ASSIGNED_CONTEXT ( ( #122, #98, #20 ) ) REPRESENTATION_CONTEXT ( 'NONE', 'WORKASPACE' ) );
#138 = CARTESIAN_POINT ( 'NONE',  ( 0.000000000000000000, 0.000000000000000000, 0.000000000000000000 ) ) ;
#139 = DIRECTION ( 'NONE',  ( 0.000000000000000000, 0.000000000000000000, 1.000000000000000000 ) ) ;
#140 = EDGE_LOOP ( 'NONE', ( #133 ) ) ;
#141 = SURFACE_STYLE_FILL_AREA ( #90 ) ;
#142 = DIRECTION ( 'NONE',  ( -0.000000000000000000, -1.000000000000000000, -0.000000000000000000 ) ) ;
#143 = VERTEX_POINT ( 'NONE', #23 ) ;
#144 = DIRECTION ( 'NONE',  ( 0.000000000000000000, 0.000000000000000000, 1.000000000000000000 ) ) ;
#145 = NEXT_ASSEMBLY_USAGE_OCCURRENCE ( 'NAUO1', ' ', ' ', #111, #36, $ ) ;
#146 = NEXT_ASSEMBLY_USAGE_OCCURRENCE ( 'NAUO2', ' ', ' ', #111, #36, $ ) ;
ENDSEC;
END-ISO-10303-21;
