ISO-10303-21;
HEADER;
FILE_DESCRIPTION (( 'STEP AP214' ),
    '1' );
FILE_NAME ('C4_component_override_1__ap214_cfg.step',
    '2026-08-06T13:09:24',
    ( '' ),
    ( '' ),
    'SwSTEP 2.0',
    'SolidWorks 2026',
    '' );
FILE_SCHEMA (( 'AUTOMOTIVE_DESIGN' ));
ENDSEC;

DATA;
#1 = PRODUCT_CONTEXT ( 'NONE', #28, 'mechanical' ) ;
#2 = PRODUCT_DEFINITION_CONTEXT ( 'detailed design', #138, 'design' ) ;
#3 = PRODUCT ( 'C4_component_override_1__ap214_cfg', 'C4_component_override_1__ap214_cfg', '', ( #132 ) ) ;
#4 =( LENGTH_UNIT ( ) NAMED_UNIT ( * ) SI_UNIT ( .MILLI., .METRE. ) );
#5 = AXIS2_PLACEMENT_3D ( 'NONE', #144, #126, #58 ) ;
#6 = DIRECTION ( 'NONE',  ( 0.000000000000000000, 0.000000000000000000, 1.000000000000000000 ) ) ;
#7 = AXIS2_PLACEMENT_3D ( 'NONE', #60, #73, #43 ) ;
#8 =( LENGTH_UNIT ( ) NAMED_UNIT ( * ) SI_UNIT ( .MILLI., .METRE. ) );
#9 = UNCERTAINTY_MEASURE_WITH_UNIT (LENGTH_MEASURE( 1.000000000000000082E-05 ), #8, 'distance_accuracy_value', 'NONE');
#10 = CIRCLE ( 'NONE', #134, 50.00000000000000000 ) ;
#11 = DIRECTION ( 'NONE',  ( -0.000000000000000000, -1.000000000000000000, -0.000000000000000000 ) ) ;
#12 = UNCERTAINTY_MEASURE_WITH_UNIT (LENGTH_MEASURE( 1.000000000000000082E-05 ), #4, 'distance_accuracy_value', 'NONE');
#13 = MANIFOLD_SOLID_BREP ( 'Boss-Extrude1', #99 ) ;
#14 =( NAMED_UNIT ( * ) PLANE_ANGLE_UNIT ( ) SI_UNIT ( $, .RADIAN. ) );
#15 = CARTESIAN_POINT ( 'NONE',  ( 0.000000000000000000, 0.000000000000000000, 0.000000000000000000 ) ) ;
#16 = PRODUCT_DEFINITION_SHAPE ( 'NONE', 'NONE',  #145 ) ;
#17 =( NAMED_UNIT ( * ) SI_UNIT ( $, .STERADIAN. ) SOLID_ANGLE_UNIT ( ) );
#18 = AXIS2_PLACEMENT_3D ( 'NONE', #57, #68, #80 ) ;
#19 = FACE_OUTER_BOUND ( 'NONE', #46, .T. ) ;
#20 = DIRECTION ( 'NONE',  ( 0.000000000000000000, 1.000000000000000000, 0.000000000000000000 ) ) ;
#21 = PRESENTATION_STYLE_ASSIGNMENT (( #122 ) ) ;
#22 = SHAPE_REPRESENTATION_RELATIONSHIP ( 'NONE' , 'NONE' ,  #135, #77 ) ;
#23 = CARTESIAN_POINT ( 'NONE',  ( 0.000000000000000000, 0.000000000000000000, 0.000000000000000000 ) ) ;
#24 = FILL_AREA_STYLE_COLOUR ( '', #116 ) ;
#25 = UNCERTAINTY_MEASURE_WITH_UNIT (LENGTH_MEASURE( 1.000000000000000082E-05 ), #32, 'distance_accuracy_value', 'NONE');
#26 = CONTEXT_DEPENDENT_SHAPE_REPRESENTATION ( #95, #75 ) ;
#27 = DIRECTION ( 'NONE',  ( 1.000000000000000000, 0.000000000000000000, 0.000000000000000000 ) ) ;
#28 = APPLICATION_CONTEXT ( 'automotive_design' ) ;
#29 = DIRECTION ( 'NONE',  ( 1.000000000000000000, 0.000000000000000000, 0.000000000000000000 ) ) ;
#30 =( NAMED_UNIT ( * ) PLANE_ANGLE_UNIT ( ) SI_UNIT ( $, .RADIAN. ) );
#31 = EDGE_LOOP ( 'NONE', ( #121 ) ) ;
#32 =( LENGTH_UNIT ( ) NAMED_UNIT ( * ) SI_UNIT ( .MILLI., .METRE. ) );
#33 = AXIS2_PLACEMENT_3D ( 'NONE', #123, #20, #66 ) ;
#34 = CARTESIAN_POINT ( 'NONE',  ( 0.000000000000000000, 0.000000000000000000, 50.00000000000000000 ) ) ;
#35 = FILL_AREA_STYLE ('',( #24 ) ) ;
#36 = COLOUR_RGB ( '',1.000000000000000000, 0.000000000000000000, 0.000000000000000000 ) ;
#37 = AXIS2_PLACEMENT_3D ( 'NONE', #23, #67, #102 ) ;
#38 = FACE_OUTER_BOUND ( 'NONE', #31, .T. ) ;
#39 = APPLICATION_CONTEXT ( 'automotive_design' ) ;
#40 = PRODUCT_DEFINITION ( 'UNKNOWN', '', #111, #93 ) ;
#41 = PRESENTATION_LAYER_ASSIGNMENT (  '', '', ( #130 ) ) ;
#42 = ITEM_DEFINED_TRANSFORMATION ( 'NONE', 'NONE', #7,  #37 ) ;
#43 = DIRECTION ( 'NONE',  ( 1.000000000000000000, 0.000000000000000000, 0.000000000000000000 ) ) ;
#44 = EDGE_CURVE ( 'NONE', #92, #92, #10, .T. ) ;
#45 = PRODUCT_DEFINITION_FORMATION_WITH_SPECIFIED_SOURCE ( 'ANY', '', #3, .NOT_KNOWN. ) ;
#46 = EDGE_LOOP ( 'NONE', ( #110 ) ) ;
#47 = SHAPE_REPRESENTATION ( 'C4_component_override_1__ap214_cfg', ( #90, #137, #7 ), #63 ) ;
#48 =( NAMED_UNIT ( * ) SI_UNIT ( $, .STERADIAN. ) SOLID_ANGLE_UNIT ( ) );
#49 = DIRECTION ( 'NONE',  ( 0.000000000000000000, 0.000000000000000000, 1.000000000000000000 ) ) ;
#50 = CYLINDRICAL_SURFACE ( 'NONE', #84, 50.00000000000000000 ) ;
#51 = UNCERTAINTY_MEASURE_WITH_UNIT (LENGTH_MEASURE( 1.000000000000000082E-05 ), #140, 'distance_accuracy_value', 'NONE');
#52 = ADVANCED_FACE ( 'NONE', ( #19 ), #65, .T. ) ;
#53 = APPLICATION_PROTOCOL_DEFINITION ( 'draft international standard', 'automotive_design', 1998, #138 ) ;
#54 = APPLICATION_PROTOCOL_DEFINITION ( 'draft international standard', 'automotive_design', 1998, #28 ) ;
#55 = SURFACE_STYLE_FILL_AREA ( #107 ) ;
#56 = PLANE ( 'NONE',  #5 ) ;
#57 = CARTESIAN_POINT ( 'NONE',  ( 0.000000000000000000, 100.0000000000000000, 0.000000000000000000 ) ) ;
#58 = DIRECTION ( 'NONE',  ( 0.000000000000000000, -0.000000000000000000, 1.000000000000000000 ) ) ;
#59 = PRESENTATION_STYLE_ASSIGNMENT (( #114 ) ) ;
#60 = CARTESIAN_POINT ( 'NONE',  ( 129.8588026547804475, -29.07840402331203578, -68.52472038008272648 ) ) ;
#61 = CIRCLE ( 'NONE', #18, 50.00000000000000000 ) ;
#62 = SHAPE_DEFINITION_REPRESENTATION ( #74, #135 ) ;
#63 =( GEOMETRIC_REPRESENTATION_CONTEXT ( 3 ) GLOBAL_UNCERTAINTY_ASSIGNED_CONTEXT ( ( #12 ) ) GLOBAL_UNIT_ASSIGNED_CONTEXT ( ( #4, #14, #17 ) ) REPRESENTATION_CONTEXT ( 'NONE', 'WORKASPACE' ) );
#64 =( NAMED_UNIT ( * ) SI_UNIT ( $, .STERADIAN. ) SOLID_ANGLE_UNIT ( ) );
#65 = PLANE ( 'NONE',  #33 ) ;
#66 = DIRECTION ( 'NONE',  ( 0.000000000000000000, -0.000000000000000000, 1.000000000000000000 ) ) ;
#67 = DIRECTION ( 'NONE',  ( 0.000000000000000000, 0.000000000000000000, 1.000000000000000000 ) ) ;
#68 = DIRECTION ( 'NONE',  ( 0.000000000000000000, 1.000000000000000000, 0.000000000000000000 ) ) ;
#69 = DIRECTION ( 'NONE',  ( 0.000000000000000000, 0.000000000000000000, -1.000000000000000000 ) ) ;
#70 = PRODUCT_RELATED_PRODUCT_CATEGORY ( 'part', '', ( #133 ) ) ;
#71 =( NAMED_UNIT ( * ) PLANE_ANGLE_UNIT ( ) SI_UNIT ( $, .RADIAN. ) );
#72 =( GEOMETRIC_REPRESENTATION_CONTEXT ( 3 ) GLOBAL_UNCERTAINTY_ASSIGNED_CONTEXT ( ( #9 ) ) GLOBAL_UNIT_ASSIGNED_CONTEXT ( ( #8, #71, #81 ) ) REPRESENTATION_CONTEXT ( 'NONE', 'WORKASPACE' ) );
#73 = DIRECTION ( 'NONE',  ( 0.000000000000000000, 0.000000000000000000, 1.000000000000000000 ) ) ;
#74 = PRODUCT_DEFINITION_SHAPE ( 'NONE', 'NONE',  #40 ) ;
#75 = PRODUCT_DEFINITION_SHAPE ( 'NONE', 'NONE',  #146 ) ;
#76 = SHAPE_DEFINITION_REPRESENTATION ( #96, #47 ) ;
#77 = ADVANCED_BREP_SHAPE_REPRESENTATION ( '', ( #13, #37 ), #72 ) ;
#78 = DIRECTION ( 'NONE',  ( 0.000000000000000000, 1.000000000000000000, 0.000000000000000000 ) ) ;
#79 = ORIENTED_EDGE ( 'NONE', *, *, #139, .F. ) ;
#80 = DIRECTION ( 'NONE',  ( 0.000000000000000000, 0.000000000000000000, 1.000000000000000000 ) ) ;
#81 =( NAMED_UNIT ( * ) SI_UNIT ( $, .STERADIAN. ) SOLID_ANGLE_UNIT ( ) );
#82 = AXIS2_PLACEMENT_3D ( 'NONE', #100, #49, #91 ) ;
#83 = MECHANICAL_DESIGN_GEOMETRIC_PRESENTATION_REPRESENTATION (  '', ( #119 ), #88 ) ;
#84 = AXIS2_PLACEMENT_3D ( 'NONE', #113, #11, #69 ) ;
#85 = SURFACE_SIDE_STYLE ('',( #55 ) ) ;
#86 = ORIENTED_EDGE ( 'NONE', *, *, #44, .F. ) ;
#87 = ADVANCED_FACE ( 'NONE', ( #108, #38 ), #50, .T. ) ;
#88 =( GEOMETRIC_REPRESENTATION_CONTEXT ( 3 ) GLOBAL_UNCERTAINTY_ASSIGNED_CONTEXT ( ( #51 ) ) GLOBAL_UNIT_ASSIGNED_CONTEXT ( ( #140, #30, #64 ) ) REPRESENTATION_CONTEXT ( 'NONE', 'WORKASPACE' ) );
#89 = FACE_OUTER_BOUND ( 'NONE', #97, .T. ) ;
#90 = AXIS2_PLACEMENT_3D ( 'NONE', #15, #129, #29 ) ;
#91 = DIRECTION ( 'NONE',  ( 1.000000000000000000, 0.000000000000000000, 0.000000000000000000 ) ) ;
#92 = VERTEX_POINT ( 'NONE', #34 ) ;
#93 = PRODUCT_DEFINITION_CONTEXT ( 'detailed design', #118, 'design' ) ;
#94 =( GEOMETRIC_REPRESENTATION_CONTEXT ( 3 ) GLOBAL_UNCERTAINTY_ASSIGNED_CONTEXT ( ( #25 ) ) GLOBAL_UNIT_ASSIGNED_CONTEXT ( ( #32, #125, #48 ) ) REPRESENTATION_CONTEXT ( 'NONE', 'WORKASPACE' ) );
#95 =( REPRESENTATION_RELATIONSHIP ('NONE','NONE', #47, #135 ) REPRESENTATION_RELATIONSHIP_WITH_TRANSFORMATION ( #42 )SHAPE_REPRESENTATION_RELATIONSHIP( ) );
#96 = PRODUCT_DEFINITION_SHAPE ( 'NONE', 'NONE',  #105 ) ;
#97 = EDGE_LOOP ( 'NONE', ( #86 ) ) ;
#98 =( REPRESENTATION_RELATIONSHIP ('NONE','NONE', #47, #135 ) REPRESENTATION_RELATIONSHIP_WITH_TRANSFORMATION ( #120 )SHAPE_REPRESENTATION_RELATIONSHIP( ) );
#99 = CLOSED_SHELL ( 'NONE', ( #87, #52, #112 ) ) ;
#100 = CARTESIAN_POINT ( 'NONE',  ( 0.000000000000000000, 0.000000000000000000, 0.000000000000000000 ) ) ;
#101 = SURFACE_STYLE_FILL_AREA ( #35 ) ;
#102 = DIRECTION ( 'NONE',  ( 1.000000000000000000, 0.000000000000000000, 0.000000000000000000 ) ) ;
#103 = VERTEX_POINT ( 'NONE', #136 ) ;
#104 = DIRECTION ( 'NONE',  ( 0.000000000000000000, 0.000000000000000000, 1.000000000000000000 ) ) ;
#105 = PRODUCT_DEFINITION ( 'UNKNOWN', '', #45, #2 ) ;
#106 = APPLICATION_PROTOCOL_DEFINITION ( 'draft international standard', 'automotive_design', 1998, #118 ) ;
#107 = FILL_AREA_STYLE ('',( #124 ) ) ;
#108 = FACE_OUTER_BOUND ( 'NONE', #141, .T. ) ;
#109 = PRESENTATION_LAYER_ASSIGNMENT (  '', '', ( #119 ) ) ;
#110 = ORIENTED_EDGE ( 'NONE', *, *, #139, .T. ) ;
#111 = PRODUCT_DEFINITION_FORMATION_WITH_SPECIFIED_SOURCE ( 'ANY', '', #133, .NOT_KNOWN. ) ;
#112 = ADVANCED_FACE ( 'NONE', ( #89 ), #56, .F. ) ;
#113 = CARTESIAN_POINT ( 'NONE',  ( 0.000000000000000000, 100.0000000000000000, 0.000000000000000000 ) ) ;
#114 = SURFACE_STYLE_USAGE ( .BOTH. , #143 ) ;
#115 = CONTEXT_DEPENDENT_SHAPE_REPRESENTATION ( #98, #16 ) ;
#116 = COLOUR_RGB ( '',0.9098039215686274384, 0.4431372549019607643, 0.03137254901960784270 ) ;
#117 = PRODUCT_RELATED_PRODUCT_CATEGORY ( 'part', '', ( #3 ) ) ;
#118 = APPLICATION_CONTEXT ( 'automotive_design' ) ;
#119 = STYLED_ITEM ( 'NONE', ( #21 ), #13 ) ;
#120 = ITEM_DEFINED_TRANSFORMATION ( 'NONE', 'NONE', #137,  #37 ) ;
#121 = ORIENTED_EDGE ( 'NONE', *, *, #44, .T. ) ;
#122 = SURFACE_STYLE_USAGE ( .BOTH. , #85 ) ;
#123 = CARTESIAN_POINT ( 'NONE',  ( 0.000000000000000000, 100.0000000000000000, 0.000000000000000000 ) ) ;
#124 = FILL_AREA_STYLE_COLOUR ( '', #36 ) ;
#125 =( NAMED_UNIT ( * ) PLANE_ANGLE_UNIT ( ) SI_UNIT ( $, .RADIAN. ) );
#126 = DIRECTION ( 'NONE',  ( 0.000000000000000000, 1.000000000000000000, 0.000000000000000000 ) ) ;
#127 = CARTESIAN_POINT ( 'NONE',  ( 0.000000000000000000, 0.000000000000000000, 0.000000000000000000 ) ) ;
#128 = MECHANICAL_DESIGN_GEOMETRIC_PRESENTATION_REPRESENTATION (  '', ( #130 ), #94 ) ;
#129 = DIRECTION ( 'NONE',  ( 0.000000000000000000, 0.000000000000000000, 1.000000000000000000 ) ) ;
#130 = STYLED_ITEM ( 'NONE', ( #59 ), #77 ) ;
#131 = APPLICATION_PROTOCOL_DEFINITION ( 'draft international standard', 'automotive_design', 1998, #39 ) ;
#132 = PRODUCT_CONTEXT ( 'NONE', #39, 'mechanical' ) ;
#133 = PRODUCT ( 'C4_part_1', 'C4_part_1', '', ( #1 ) ) ;
#134 = AXIS2_PLACEMENT_3D ( 'NONE', #142, #78, #6 ) ;
#135 = SHAPE_REPRESENTATION ( 'C4_part_1', ( #37 ), #72 ) ;
#136 = CARTESIAN_POINT ( 'NONE',  ( 0.000000000000000000, 100.0000000000000000, 50.00000000000000000 ) ) ;
#137 = AXIS2_PLACEMENT_3D ( 'NONE', #127, #104, #27 ) ;
#138 = APPLICATION_CONTEXT ( 'automotive_design' ) ;
#139 = EDGE_CURVE ( 'NONE', #103, #103, #61, .T. ) ;
#140 =( LENGTH_UNIT ( ) NAMED_UNIT ( * ) SI_UNIT ( .MILLI., .METRE. ) );
#141 = EDGE_LOOP ( 'NONE', ( #79 ) ) ;
#142 = CARTESIAN_POINT ( 'NONE',  ( 0.000000000000000000, 0.000000000000000000, 0.000000000000000000 ) ) ;
#143 = SURFACE_SIDE_STYLE ('',( #101 ) ) ;
#144 = CARTESIAN_POINT ( 'NONE',  ( 0.000000000000000000, 0.000000000000000000, 0.000000000000000000 ) ) ;
#145 = NEXT_ASSEMBLY_USAGE_OCCURRENCE ( 'NAUO1', ' ', ' ', #105, #40, $ ) ;
#146 = NEXT_ASSEMBLY_USAGE_OCCURRENCE ( 'NAUO2', ' ', ' ', #105, #40, $ ) ;
ENDSEC;
END-ISO-10303-21;
