ISO-10303-21;
HEADER;
FILE_DESCRIPTION (( 'STEP AP214' ),
    '1' );
FILE_NAME ('C4_component_override_2__ap214_cfg.step',
    '2026-08-06T13:09:25',
    ( '' ),
    ( '' ),
    'SwSTEP 2.0',
    'SolidWorks 2026',
    '' );
FILE_SCHEMA (( 'AUTOMOTIVE_DESIGN' ));
ENDSEC;

DATA;
#1 = PRESENTATION_STYLE_ASSIGNMENT (( #136 ) ) ;
#2 = UNCERTAINTY_MEASURE_WITH_UNIT (LENGTH_MEASURE( 1.000000000000000082E-05 ), #130, 'distance_accuracy_value', 'NONE');
#3 = SURFACE_STYLE_FILL_AREA ( #126 ) ;
#4 = PRODUCT_CONTEXT ( 'NONE', #104, 'mechanical' ) ;
#5 = AXIS2_PLACEMENT_3D ( 'NONE', #13, #46, #22 ) ;
#6 = DIRECTION ( 'NONE',  ( 0.000000000000000000, 0.000000000000000000, 1.000000000000000000 ) ) ;
#7 = PRODUCT_DEFINITION ( 'UNKNOWN', '', #8, #124 ) ;
#8 = PRODUCT_DEFINITION_FORMATION_WITH_SPECIFIED_SOURCE ( 'ANY', '', #91, .NOT_KNOWN. ) ;
#9 = ADVANCED_FACE ( 'NONE', ( #33 ), #133, .T. ) ;
#10 = DIRECTION ( 'NONE',  ( 0.000000000000000000, 1.000000000000000000, 0.000000000000000000 ) ) ;
#11 = CYLINDRICAL_SURFACE ( 'NONE', #29, 50.00000000000000000 ) ;
#12 = PRODUCT_DEFINITION ( 'UNKNOWN', '', #98, #113 ) ;
#13 = CARTESIAN_POINT ( 'NONE',  ( 0.000000000000000000, 0.000000000000000000, 0.000000000000000000 ) ) ;
#14 = APPLICATION_CONTEXT ( 'automotive_design' ) ;
#15 = CONTEXT_DEPENDENT_SHAPE_REPRESENTATION ( #17, #102 ) ;
#16 = AXIS2_PLACEMENT_3D ( 'NONE', #138, #59, #125 ) ;
#17 =( REPRESENTATION_RELATIONSHIP ('NONE','NONE', #75, #57 ) REPRESENTATION_RELATIONSHIP_WITH_TRANSFORMATION ( #92 )SHAPE_REPRESENTATION_RELATIONSHIP( ) );
#18 = CARTESIAN_POINT ( 'NONE',  ( 0.000000000000000000, 0.000000000000000000, 0.000000000000000000 ) ) ;
#19 =( NAMED_UNIT ( * ) PLANE_ANGLE_UNIT ( ) SI_UNIT ( $, .RADIAN. ) );
#20 = FILL_AREA_STYLE_COLOUR ( '', #97 ) ;
#21 = STYLED_ITEM ( 'NONE', ( #1 ), #123 ) ;
#22 = DIRECTION ( 'NONE',  ( 1.000000000000000000, 0.000000000000000000, 0.000000000000000000 ) ) ;
#23 = DIRECTION ( 'NONE',  ( 1.000000000000000000, 0.000000000000000000, 0.000000000000000000 ) ) ;
#24 = SHAPE_DEFINITION_REPRESENTATION ( #143, #75 ) ;
#25 = PRODUCT_RELATED_PRODUCT_CATEGORY ( 'part', '', ( #116 ) ) ;
#26 = APPLICATION_PROTOCOL_DEFINITION ( 'draft international standard', 'automotive_design', 1998, #104 ) ;
#27 = FACE_OUTER_BOUND ( 'NONE', #117, .T. ) ;
#28 = ADVANCED_FACE ( 'NONE', ( #95 ), #135, .F. ) ;
#29 = AXIS2_PLACEMENT_3D ( 'NONE', #51, #71, #41 ) ;
#30 = ADVANCED_FACE ( 'NONE', ( #27, #120 ), #11, .T. ) ;
#31 = ORIENTED_EDGE ( 'NONE', *, *, #67, .T. ) ;
#32 = VERTEX_POINT ( 'NONE', #122 ) ;
#33 = FACE_OUTER_BOUND ( 'NONE', #42, .T. ) ;
#34 = AXIS2_PLACEMENT_3D ( 'NONE', #96, #50, #144 ) ;
#35 = EDGE_CURVE ( 'NONE', #40, #40, #127, .T. ) ;
#36 = CARTESIAN_POINT ( 'NONE',  ( 0.000000000000000000, 0.000000000000000000, 0.000000000000000000 ) ) ;
#37 = MECHANICAL_DESIGN_GEOMETRIC_PRESENTATION_REPRESENTATION (  '', ( #21 ), #56 ) ;
#38 = PRESENTATION_LAYER_ASSIGNMENT (  '', '', ( #140 ) ) ;
#39 = CARTESIAN_POINT ( 'NONE',  ( 0.000000000000000000, 0.000000000000000000, 50.00000000000000000 ) ) ;
#40 = VERTEX_POINT ( 'NONE', #39 ) ;
#41 = DIRECTION ( 'NONE',  ( 0.000000000000000000, 0.000000000000000000, -1.000000000000000000 ) ) ;
#42 = EDGE_LOOP ( 'NONE', ( #31 ) ) ;
#43 =( NAMED_UNIT ( * ) PLANE_ANGLE_UNIT ( ) SI_UNIT ( $, .RADIAN. ) );
#44 = MECHANICAL_DESIGN_GEOMETRIC_PRESENTATION_REPRESENTATION (  '', ( #140 ), #68 ) ;
#45 = CARTESIAN_POINT ( 'NONE',  ( 0.000000000000000000, 0.000000000000000000, 0.000000000000000000 ) ) ;
#46 = DIRECTION ( 'NONE',  ( 0.000000000000000000, 0.000000000000000000, 1.000000000000000000 ) ) ;
#47 = AXIS2_PLACEMENT_3D ( 'NONE', #18, #86, #76 ) ;
#48 = SURFACE_SIDE_STYLE ('',( #74 ) ) ;
#49 = COLOUR_RGB ( '',0.9098039215686274384, 0.4431372549019607643, 0.03137254901960784270 ) ;
#50 = DIRECTION ( 'NONE',  ( 0.000000000000000000, 1.000000000000000000, 0.000000000000000000 ) ) ;
#51 = CARTESIAN_POINT ( 'NONE',  ( 0.000000000000000000, 100.0000000000000000, 0.000000000000000000 ) ) ;
#52 = SURFACE_STYLE_USAGE ( .BOTH. , #112 ) ;
#53 =( GEOMETRIC_REPRESENTATION_CONTEXT ( 3 ) GLOBAL_UNCERTAINTY_ASSIGNED_CONTEXT ( ( #2 ) ) GLOBAL_UNIT_ASSIGNED_CONTEXT ( ( #130, #139, #128 ) ) REPRESENTATION_CONTEXT ( 'NONE', 'WORKASPACE' ) );
#54 = APPLICATION_CONTEXT ( 'automotive_design' ) ;
#55 =( NAMED_UNIT ( * ) SI_UNIT ( $, .STERADIAN. ) SOLID_ANGLE_UNIT ( ) );
#56 =( GEOMETRIC_REPRESENTATION_CONTEXT ( 3 ) GLOBAL_UNCERTAINTY_ASSIGNED_CONTEXT ( ( #110 ) ) GLOBAL_UNIT_ASSIGNED_CONTEXT ( ( #107, #84, #70 ) ) REPRESENTATION_CONTEXT ( 'NONE', 'WORKASPACE' ) );
#57 = SHAPE_REPRESENTATION ( 'C4_part_1', ( #5 ), #85 ) ;
#58 = SHAPE_DEFINITION_REPRESENTATION ( #90, #57 ) ;
#59 = DIRECTION ( 'NONE',  ( 0.000000000000000000, 1.000000000000000000, 0.000000000000000000 ) ) ;
#60 = PRESENTATION_LAYER_ASSIGNMENT (  '', '', ( #21 ) ) ;
#61 = PRODUCT_RELATED_PRODUCT_CATEGORY ( 'part', '', ( #91 ) ) ;
#62 = EDGE_LOOP ( 'NONE', ( #94 ) ) ;
#63 = ORIENTED_EDGE ( 'NONE', *, *, #67, .F. ) ;
#64 = FILL_AREA_STYLE_COLOUR ( '', #49 ) ;
#65 = AXIS2_PLACEMENT_3D ( 'NONE', #109, #10, #105 ) ;
#66 = SHAPE_REPRESENTATION_RELATIONSHIP ( 'NONE' , 'NONE' ,  #57, #137 ) ;
#67 = EDGE_CURVE ( 'NONE', #32, #32, #82, .T. ) ;
#68 =( GEOMETRIC_REPRESENTATION_CONTEXT ( 3 ) GLOBAL_UNCERTAINTY_ASSIGNED_CONTEXT ( ( #108 ) ) GLOBAL_UNIT_ASSIGNED_CONTEXT ( ( #111, #43, #55 ) ) REPRESENTATION_CONTEXT ( 'NONE', 'WORKASPACE' ) );
#69 = PRODUCT_DEFINITION_SHAPE ( 'NONE', 'NONE',  #145 ) ;
#70 =( NAMED_UNIT ( * ) SI_UNIT ( $, .STERADIAN. ) SOLID_ANGLE_UNIT ( ) );
#71 = DIRECTION ( 'NONE',  ( -0.000000000000000000, -1.000000000000000000, -0.000000000000000000 ) ) ;
#72 =( LENGTH_UNIT ( ) NAMED_UNIT ( * ) SI_UNIT ( .MILLI., .METRE. ) );
#73 = AXIS2_PLACEMENT_3D ( 'NONE', #45, #6, #23 ) ;
#74 = SURFACE_STYLE_FILL_AREA ( #106 ) ;
#75 = SHAPE_REPRESENTATION ( 'C4_component_override_2__ap214_cfg', ( #119, #73, #121 ), #53 ) ;
#76 = DIRECTION ( 'NONE',  ( 0.000000000000000000, 0.000000000000000000, 1.000000000000000000 ) ) ;
#77 = DIRECTION ( 'NONE',  ( 1.000000000000000000, 0.000000000000000000, 0.000000000000000000 ) ) ;
#78 = APPLICATION_PROTOCOL_DEFINITION ( 'draft international standard', 'automotive_design', 1998, #131 ) ;
#79 = DIRECTION ( 'NONE',  ( 1.000000000000000000, 0.000000000000000000, 0.000000000000000000 ) ) ;
#80 = APPLICATION_PROTOCOL_DEFINITION ( 'draft international standard', 'automotive_design', 1998, #54 ) ;
#81 = ITEM_DEFINED_TRANSFORMATION ( 'NONE', 'NONE', #73,  #5 ) ;
#82 = CIRCLE ( 'NONE', #16, 50.00000000000000000 ) ;
#83 =( NAMED_UNIT ( * ) SI_UNIT ( $, .STERADIAN. ) SOLID_ANGLE_UNIT ( ) );
#84 =( NAMED_UNIT ( * ) PLANE_ANGLE_UNIT ( ) SI_UNIT ( $, .RADIAN. ) );
#85 =( GEOMETRIC_REPRESENTATION_CONTEXT ( 3 ) GLOBAL_UNCERTAINTY_ASSIGNED_CONTEXT ( ( #129 ) ) GLOBAL_UNIT_ASSIGNED_CONTEXT ( ( #72, #19, #83 ) ) REPRESENTATION_CONTEXT ( 'NONE', 'WORKASPACE' ) );
#86 = DIRECTION ( 'NONE',  ( 0.000000000000000000, 1.000000000000000000, 0.000000000000000000 ) ) ;
#87 = CARTESIAN_POINT ( 'NONE',  ( 129.8588026547804475, -29.07840402331203578, -68.52472038008272648 ) ) ;
#88 = CARTESIAN_POINT ( 'NONE',  ( 0.000000000000000000, 0.000000000000000000, 0.000000000000000000 ) ) ;
#89 = PRESENTATION_STYLE_ASSIGNMENT (( #52 ) ) ;
#90 = PRODUCT_DEFINITION_SHAPE ( 'NONE', 'NONE',  #7 ) ;
#91 = PRODUCT ( 'C4_part_1', 'C4_part_1', '', ( #115 ) ) ;
#92 = ITEM_DEFINED_TRANSFORMATION ( 'NONE', 'NONE', #121,  #5 ) ;
#93 =( REPRESENTATION_RELATIONSHIP ('NONE','NONE', #75, #57 ) REPRESENTATION_RELATIONSHIP_WITH_TRANSFORMATION ( #81 )SHAPE_REPRESENTATION_RELATIONSHIP( ) );
#94 = ORIENTED_EDGE ( 'NONE', *, *, #35, .T. ) ;
#95 = FACE_OUTER_BOUND ( 'NONE', #132, .T. ) ;
#96 = CARTESIAN_POINT ( 'NONE',  ( 0.000000000000000000, 100.0000000000000000, 0.000000000000000000 ) ) ;
#97 = COLOUR_RGB ( '',1.000000000000000000, 0.000000000000000000, 0.000000000000000000 ) ;
#98 = PRODUCT_DEFINITION_FORMATION_WITH_SPECIFIED_SOURCE ( 'ANY', '', #116, .NOT_KNOWN. ) ;
#99 = DIRECTION ( 'NONE',  ( 0.000000000000000000, 0.000000000000000000, 1.000000000000000000 ) ) ;
#100 = CLOSED_SHELL ( 'NONE', ( #30, #9, #28 ) ) ;
#101 = DIRECTION ( 'NONE',  ( 0.000000000000000000, 0.000000000000000000, 1.000000000000000000 ) ) ;
#102 = PRODUCT_DEFINITION_SHAPE ( 'NONE', 'NONE',  #146 ) ;
#103 = AXIS2_PLACEMENT_3D ( 'NONE', #36, #101, #142 ) ;
#104 = APPLICATION_CONTEXT ( 'automotive_design' ) ;
#105 = DIRECTION ( 'NONE',  ( 0.000000000000000000, -0.000000000000000000, 1.000000000000000000 ) ) ;
#106 = FILL_AREA_STYLE ('',( #20 ) ) ;
#107 =( LENGTH_UNIT ( ) NAMED_UNIT ( * ) SI_UNIT ( .MILLI., .METRE. ) );
#108 = UNCERTAINTY_MEASURE_WITH_UNIT (LENGTH_MEASURE( 1.000000000000000082E-05 ), #111, 'distance_accuracy_value', 'NONE');
#109 = CARTESIAN_POINT ( 'NONE',  ( 0.000000000000000000, 0.000000000000000000, 0.000000000000000000 ) ) ;
#110 = UNCERTAINTY_MEASURE_WITH_UNIT (LENGTH_MEASURE( 1.000000000000000082E-05 ), #107, 'distance_accuracy_value', 'NONE');
#111 =( LENGTH_UNIT ( ) NAMED_UNIT ( * ) SI_UNIT ( .MILLI., .METRE. ) );
#112 = SURFACE_SIDE_STYLE ('',( #3 ) ) ;
#113 = PRODUCT_DEFINITION_CONTEXT ( 'detailed design', #131, 'design' ) ;
#114 = APPLICATION_PROTOCOL_DEFINITION ( 'draft international standard', 'automotive_design', 1998, #14 ) ;
#115 = PRODUCT_CONTEXT ( 'NONE', #14, 'mechanical' ) ;
#116 = PRODUCT ( 'C4_component_override_2__ap214_cfg', 'C4_component_override_2__ap214_cfg', '', ( #4 ) ) ;
#117 = EDGE_LOOP ( 'NONE', ( #63 ) ) ;
#118 = CONTEXT_DEPENDENT_SHAPE_REPRESENTATION ( #93, #69 ) ;
#119 = AXIS2_PLACEMENT_3D ( 'NONE', #88, #141, #79 ) ;
#120 = FACE_OUTER_BOUND ( 'NONE', #62, .T. ) ;
#121 = AXIS2_PLACEMENT_3D ( 'NONE', #87, #99, #77 ) ;
#122 = CARTESIAN_POINT ( 'NONE',  ( 0.000000000000000000, 100.0000000000000000, 50.00000000000000000 ) ) ;
#123 = MANIFOLD_SOLID_BREP ( 'Boss-Extrude1', #100 ) ;
#124 = PRODUCT_DEFINITION_CONTEXT ( 'detailed design', #54, 'design' ) ;
#125 = DIRECTION ( 'NONE',  ( 0.000000000000000000, 0.000000000000000000, 1.000000000000000000 ) ) ;
#126 = FILL_AREA_STYLE ('',( #64 ) ) ;
#127 = CIRCLE ( 'NONE', #47, 50.00000000000000000 ) ;
#128 =( NAMED_UNIT ( * ) SI_UNIT ( $, .STERADIAN. ) SOLID_ANGLE_UNIT ( ) );
#129 = UNCERTAINTY_MEASURE_WITH_UNIT (LENGTH_MEASURE( 1.000000000000000082E-05 ), #72, 'distance_accuracy_value', 'NONE');
#130 =( LENGTH_UNIT ( ) NAMED_UNIT ( * ) SI_UNIT ( .MILLI., .METRE. ) );
#131 = APPLICATION_CONTEXT ( 'automotive_design' ) ;
#132 = EDGE_LOOP ( 'NONE', ( #134 ) ) ;
#133 = PLANE ( 'NONE',  #34 ) ;
#134 = ORIENTED_EDGE ( 'NONE', *, *, #35, .F. ) ;
#135 = PLANE ( 'NONE',  #65 ) ;
#136 = SURFACE_STYLE_USAGE ( .BOTH. , #48 ) ;
#137 = ADVANCED_BREP_SHAPE_REPRESENTATION ( '', ( #123, #5 ), #85 ) ;
#138 = CARTESIAN_POINT ( 'NONE',  ( 0.000000000000000000, 100.0000000000000000, 0.000000000000000000 ) ) ;
#139 =( NAMED_UNIT ( * ) PLANE_ANGLE_UNIT ( ) SI_UNIT ( $, .RADIAN. ) );
#140 = STYLED_ITEM ( 'NONE', ( #89 ), #137 ) ;
#141 = DIRECTION ( 'NONE',  ( 0.000000000000000000, 0.000000000000000000, 1.000000000000000000 ) ) ;
#142 = DIRECTION ( 'NONE',  ( 1.000000000000000000, 0.000000000000000000, 0.000000000000000000 ) ) ;
#143 = PRODUCT_DEFINITION_SHAPE ( 'NONE', 'NONE',  #12 ) ;
#144 = DIRECTION ( 'NONE',  ( 0.000000000000000000, -0.000000000000000000, 1.000000000000000000 ) ) ;
#145 = NEXT_ASSEMBLY_USAGE_OCCURRENCE ( 'NAUO1', ' ', ' ', #12, #7, $ ) ;
#146 = NEXT_ASSEMBLY_USAGE_OCCURRENCE ( 'NAUO2', ' ', ' ', #12, #7, $ ) ;
ENDSEC;
END-ISO-10303-21;
