ISO-10303-21;
HEADER;
FILE_DESCRIPTION (( 'STEP AP203' ),
    '1' );
FILE_NAME ('C4_component_override_2__ap203.step',
    '2026-08-06T13:09:25',
    ( '' ),
    ( '' ),
    'SwSTEP 2.0',
    'SolidWorks 2026',
    '' );
FILE_SCHEMA (( 'CONFIG_CONTROL_DESIGN' ));
ENDSEC;

DATA;
#1 = VERTEX_POINT ( 'NONE', #217 ) ;
#2 = APPROVAL_DATE_TIME ( #160, #277 ) ;
#3 = LOCAL_TIME ( 14, 9, 25.00000000000000000, #271 ) ;
#4 = PERSON_AND_ORGANIZATION_ROLE ( 'classification_officer' ) ;
#5 = APPROVAL_DATE_TIME ( #159, #101 ) ;
#6 = ORGANIZATION ( 'NAUO-ORG2', 'UNSPECIFIED', 'UNSPECIFIED' ) ;
#7 = APPROVAL_PERSON_ORGANIZATION ( #107, #219, #164 ) ;
#8 = DATE_TIME_ROLE ( 'classification_date' ) ;
#9 = CC_DESIGN_PERSON_AND_ORGANIZATION_ASSIGNMENT ( #28, #162, ( #209 ) ) ;
#10 = LOCAL_TIME ( 14, 9, 25.00000000000000000, #13 ) ;
#11 = APPROVAL_STATUS ( 'not_yet_approved' ) ;
#12 = ORIENTED_EDGE ( 'NONE', *, *, #135, .F. ) ;
#13 = COORDINATED_UNIVERSAL_TIME_OFFSET ( 0, 0, .AHEAD. ) ;
#14 = DATE_AND_TIME ( #211, #170 ) ;
#15 = DATE_AND_TIME ( #16, #260 ) ;
#16 = CALENDAR_DATE ( 2026, 6, 8 ) ;
#17 = PERSON ( 'UNSPECIFIED', 'UNSPECIFIED', 'UNSPECIFIED', ('UNSPECIFIED'), ('UNSPECIFIED'), ('UNSPECIFIED') ) ;
#18 = VERTEX_POINT ( 'NONE', #192 ) ;
#19 = APPROVAL ( #232, 'UNSPECIFIED' ) ;
#20 = FACE_OUTER_BOUND ( 'NONE', #102, .T. ) ;
#21 = CONTEXT_DEPENDENT_SHAPE_REPRESENTATION ( #106, #282 ) ;
#22 = FACE_OUTER_BOUND ( 'NONE', #262, .T. ) ;
#23 = APPROVAL_ROLE ( '' ) ;
#24 = CC_DESIGN_PERSON_AND_ORGANIZATION_ASSIGNMENT ( #179, #50, ( #290 ) ) ;
#25 = DIRECTION ( 'NONE',  ( 0.000000000000000000, 1.000000000000000000, 0.000000000000000000 ) ) ;
#26 = AXIS2_PLACEMENT_3D ( 'NONE', #239, #112, #92 ) ;
#27 = CARTESIAN_POINT ( 'NONE',  ( 0.000000000000000000, 0.000000000000000000, 0.000000000000000000 ) ) ;
#28 = PERSON_AND_ORGANIZATION ( #17, #230 ) ;
#29 = UNCERTAINTY_MEASURE_WITH_UNIT (LENGTH_MEASURE( 1.000000000000000082E-05 ), #153, 'distance_accuracy_value', 'NONE');
#30 = PERSON_AND_ORGANIZATION_ROLE ( 'design_supplier' ) ;
#31 = PERSON_AND_ORGANIZATION ( #17, #230 ) ;
#32 = PERSON_AND_ORGANIZATION ( #17, #230 ) ;
#33 = CC_DESIGN_PERSON_AND_ORGANIZATION_ASSIGNMENT ( #186, #83, ( #283 ) ) ;
#34 = COORDINATED_UNIVERSAL_TIME_OFFSET ( 0, 0, .AHEAD. ) ;
#35 = SHAPE_DEFINITION_REPRESENTATION ( #37, #234 ) ;
#36 = CALENDAR_DATE ( 2026, 6, 8 ) ;
#37 = PRODUCT_DEFINITION_SHAPE ( 'NONE', 'NONE',  #184 ) ;
#38 = APPROVAL_ROLE ( '' ) ;
#39 = CC_DESIGN_PERSON_AND_ORGANIZATION_ASSIGNMENT ( #166, #151, ( #283 ) ) ;
#40 = DATE_TIME_ROLE ( 'classification_date' ) ;
#41 = AXIS2_PLACEMENT_3D ( 'NONE', #88, #91, #110 ) ;
#42 = CONTEXT_DEPENDENT_SHAPE_REPRESENTATION ( #48, #60 ) ;
#43 = PERSON_AND_ORGANIZATION ( #253, #6 ) ;
#44 =( NAMED_UNIT ( * ) SI_UNIT ( $, .STERADIAN. ) SOLID_ANGLE_UNIT ( ) );
#45 = DATE_TIME_ROLE ( 'classification_date' ) ;
#46 = CC_DESIGN_APPROVAL ( #219, ( #117 ) ) ;
#47 = LOCAL_TIME ( 14, 9, 25.00000000000000000, #97 ) ;
#48 =( REPRESENTATION_RELATIONSHIP ('NONE','NONE', #66, #234 ) REPRESENTATION_RELATIONSHIP_WITH_TRANSFORMATION ( #77 )SHAPE_REPRESENTATION_RELATIONSHIP( ) );
#49 =( NAMED_UNIT ( * ) PLANE_ANGLE_UNIT ( ) SI_UNIT ( $, .RADIAN. ) );
#50 = PERSON_AND_ORGANIZATION_ROLE ( 'creator' ) ;
#51 = CC_DESIGN_PERSON_AND_ORGANIZATION_ASSIGNMENT ( #228, #4, ( #287 ) ) ;
#52 = APPROVAL_ROLE ( '' ) ;
#53 = MANIFOLD_SOLID_BREP ( 'Boss-Extrude1', #202 ) ;
#54 = CARTESIAN_POINT ( 'NONE',  ( 0.000000000000000000, 0.000000000000000000, 0.000000000000000000 ) ) ;
#55 = AXIS2_PLACEMENT_3D ( 'NONE', #221, #65, #263 ) ;
#56 = CC_DESIGN_DATE_AND_TIME_ASSIGNMENT ( #190, #40, ( #128 ) ) ;
#57 = PERSON_AND_ORGANIZATION_ROLE ( 'creator' ) ;
#58 = PERSON_AND_ORGANIZATION_ROLE ( 'creator' ) ;
#59 = DATE_AND_TIME ( #275, #114 ) ;
#60 = PRODUCT_DEFINITION_SHAPE ( 'NONE', 'NONE',  #291 ) ;
#61 = LOCAL_TIME ( 14, 9, 25.00000000000000000, #139 ) ;
#62 = APPROVAL_DATE_TIME ( #59, #188 ) ;
#63 = CC_DESIGN_PERSON_AND_ORGANIZATION_ASSIGNMENT ( #31, #96, ( #278 ) ) ;
#64 = APPROVAL_DATE_TIME ( #14, #19 ) ;
#65 = DIRECTION ( 'NONE',  ( 0.000000000000000000, 1.000000000000000000, 0.000000000000000000 ) ) ;
#66 = SHAPE_REPRESENTATION ( 'C4_component_override_2__ap203', ( #241, #71, #138 ), #142 ) ;
#67 = DIRECTION ( 'NONE',  ( 1.000000000000000000, 0.000000000000000000, 0.000000000000000000 ) ) ;
#68 = APPROVAL ( #123, 'UNKNOWN' ) ;
#69 = FACE_OUTER_BOUND ( 'NONE', #86, .T. ) ;
#70 = PERSON_AND_ORGANIZATION ( #17, #230 ) ;
#71 = AXIS2_PLACEMENT_3D ( 'NONE', #178, #191, #267 ) ;
#72 = CC_DESIGN_PERSON_AND_ORGANIZATION_ASSIGNMENT ( #238, #148, ( #128 ) ) ;
#73 = SHAPE_DEFINITION_REPRESENTATION ( #82, #66 ) ;
#74 = DIRECTION ( 'NONE',  ( 1.000000000000000000, 0.000000000000000000, 0.000000000000000000 ) ) ;
#75 = LOCAL_TIME ( 14, 9, 25.00000000000000000, #216 ) ;
#76 = CALENDAR_DATE ( 2026, 6, 8 ) ;
#77 = ITEM_DEFINED_TRANSFORMATION ( 'NONE', 'NONE', #71,  #41 ) ;
#78 = COORDINATED_UNIVERSAL_TIME_OFFSET ( 0, 0, .AHEAD. ) ;
#79 = CC_DESIGN_PERSON_AND_ORGANIZATION_ASSIGNMENT ( #100, #58, ( #184 ) ) ;
#80 = ORIENTED_EDGE ( 'NONE', *, *, #199, .F. ) ;
#81 = CIRCLE ( 'NONE', #288, 50.00000000000000000 ) ;
#82 = PRODUCT_DEFINITION_SHAPE ( 'NONE', 'NONE',  #290 ) ;
#83 = PERSON_AND_ORGANIZATION_ROLE ( 'design_supplier' ) ;
#84 = DATE_TIME_ROLE ( 'classification_date' ) ;
#85 = CALENDAR_DATE ( 2026, 6, 8 ) ;
#86 = EDGE_LOOP ( 'NONE', ( #12 ) ) ;
#87 = ORIENTED_EDGE ( 'NONE', *, *, #135, .T. ) ;
#88 = CARTESIAN_POINT ( 'NONE',  ( 0.000000000000000000, 0.000000000000000000, 0.000000000000000000 ) ) ;
#89 = DIRECTION ( 'NONE',  ( 0.000000000000000000, 0.000000000000000000, 1.000000000000000000 ) ) ;
#90 = AXIS2_PLACEMENT_3D ( 'NONE', #173, #132, #175 ) ;
#91 = DIRECTION ( 'NONE',  ( 0.000000000000000000, 0.000000000000000000, 1.000000000000000000 ) ) ;
#92 = DIRECTION ( 'NONE',  ( 0.000000000000000000, 0.000000000000000000, -1.000000000000000000 ) ) ;
#93 = CC_DESIGN_PERSON_AND_ORGANIZATION_ASSIGNMENT ( #247, #57, ( #94 ) ) ;
#94 = PRODUCT_DEFINITION_FORMATION_WITH_SPECIFIED_SOURCE ( 'ANY', '', #209, .NOT_KNOWN. ) ;
#95 = APPLICATION_PROTOCOL_DEFINITION ( 'international standard', 'config_control_design', 1994, #196 ) ;
#96 = PERSON_AND_ORGANIZATION_ROLE ( 'design_owner' ) ;
#97 = COORDINATED_UNIVERSAL_TIME_OFFSET ( 0, 0, .AHEAD. ) ;
#98 = LOCAL_TIME ( 14, 9, 25.00000000000000000, #147 ) ;
#99 = APPROVAL_DATE_TIME ( #171, #68 ) ;
#100 = PERSON_AND_ORGANIZATION ( #17, #230 ) ;
#101 = APPROVAL ( #116, 'UNSPECIFIED' ) ;
#102 = EDGE_LOOP ( 'NONE', ( #80 ) ) ;
#103 = APPROVAL_PERSON_ORGANIZATION ( #167, #19, #38 ) ;
#104 = PERSON_AND_ORGANIZATION ( #17, #230 ) ;
#105 = CIRCLE ( 'NONE', #134, 50.00000000000000000 ) ;
#106 =( REPRESENTATION_RELATIONSHIP ('NONE','NONE', #66, #234 ) REPRESENTATION_RELATIONSHIP_WITH_TRANSFORMATION ( #169 )SHAPE_REPRESENTATION_RELATIONSHIP( ) );
#107 = PERSON_AND_ORGANIZATION ( #125, #212 ) ;
#108 = DATE_TIME_ROLE ( 'creation_date' ) ;
#109 = CC_DESIGN_SECURITY_CLASSIFICATION ( #128, ( #283 ) ) ;
#110 = DIRECTION ( 'NONE',  ( 1.000000000000000000, 0.000000000000000000, 0.000000000000000000 ) ) ;
#111 = LOCAL_TIME ( 14, 9, 25.00000000000000000, #34 ) ;
#112 = DIRECTION ( 'NONE',  ( -0.000000000000000000, -1.000000000000000000, -0.000000000000000000 ) ) ;
#113 = PLANE ( 'NONE',  #55 ) ;
#114 = LOCAL_TIME ( 14, 9, 25.00000000000000000, #284 ) ;
#115 = CARTESIAN_POINT ( 'NONE',  ( 0.000000000000000000, 0.000000000000000000, 0.000000000000000000 ) ) ;
#116 = APPROVAL_STATUS ( 'not_yet_approved' ) ;
#117 = SECURITY_CLASSIFICATION ( '', '', #149 ) ;
#118 = LOCAL_TIME ( 14, 9, 25.00000000000000000, #185 ) ;
#119 = APPROVAL_STATUS ( 'not_yet_approved' ) ;
#120 = CC_DESIGN_PERSON_AND_ORGANIZATION_ASSIGNMENT ( #107, #126, ( #117 ) ) ;
#121 = CALENDAR_DATE ( 2026, 6, 8 ) ;
#122 = APPROVAL_PERSON_ORGANIZATION ( #227, #245, #52 ) ;
#123 = APPROVAL_STATUS ( 'not_yet_approved' ) ;
#124 = CC_DESIGN_PERSON_AND_ORGANIZATION_ASSIGNMENT ( #70, #30, ( #94 ) ) ;
#125 = PERSON ( 'NAUO-PER1', 'UNSPECIFIED', 'UNSPECIFIED', ('UNSPECIFIED'), ('UNSPECIFIED'), ('UNSPECIFIED') ) ;
#126 = PERSON_AND_ORGANIZATION_ROLE ( 'classification_officer' ) ;
#127 = COORDINATED_UNIVERSAL_TIME_OFFSET ( 0, 0, .AHEAD. ) ;
#128 = SECURITY_CLASSIFICATION ( '', '', #233 ) ;
#129 = CALENDAR_DATE ( 2026, 6, 8 ) ;
#130 = SECURITY_CLASSIFICATION_LEVEL ( 'unclassified' ) ;
#131 = COORDINATED_UNIVERSAL_TIME_OFFSET ( 0, 0, .AHEAD. ) ;
#132 = DIRECTION ( 'NONE',  ( 0.000000000000000000, 1.000000000000000000, 0.000000000000000000 ) ) ;
#133 = DIRECTION ( 'NONE',  ( 0.000000000000000000, 1.000000000000000000, 0.000000000000000000 ) ) ;
#134 = AXIS2_PLACEMENT_3D ( 'NONE', #115, #25, #220 ) ;
#135 = EDGE_CURVE ( 'NONE', #1, #1, #81, .T. ) ;
#136 = DIRECTION ( 'NONE',  ( 0.000000000000000000, 0.000000000000000000, 1.000000000000000000 ) ) ;
#137 = PRODUCT_RELATED_PRODUCT_CATEGORY ( 'detail', '', ( #278 ) ) ;
#138 = AXIS2_PLACEMENT_3D ( 'NONE', #240, #266, #67 ) ;
#139 = COORDINATED_UNIVERSAL_TIME_OFFSET ( 0, 0, .AHEAD. ) ;
#140 = DATE_TIME_ROLE ( 'creation_date' ) ;
#141 = PERSON_AND_ORGANIZATION ( #17, #230 ) ;
#142 =( GEOMETRIC_REPRESENTATION_CONTEXT ( 3 ) GLOBAL_UNCERTAINTY_ASSIGNED_CONTEXT ( ( #29 ) ) GLOBAL_UNIT_ASSIGNED_CONTEXT ( ( #153, #49, #272 ) ) REPRESENTATION_CONTEXT ( 'NONE', 'WORKASPACE' ) );
#143 = CALENDAR_DATE ( 2026, 6, 8 ) ;
#144 = SECURITY_CLASSIFICATION_LEVEL ( 'unclassified' ) ;
#145 = ADVANCED_FACE ( 'NONE', ( #20 ), #197, .F. ) ;
#146 = CALENDAR_DATE ( 2026, 6, 8 ) ;
#147 = COORDINATED_UNIVERSAL_TIME_OFFSET ( 0, 0, .AHEAD. ) ;
#148 = PERSON_AND_ORGANIZATION_ROLE ( 'classification_officer' ) ;
#149 = SECURITY_CLASSIFICATION_LEVEL ( 'unclassified' ) ;
#150 = CC_DESIGN_DATE_AND_TIME_ASSIGNMENT ( #194, #45, ( #244 ) ) ;
#151 = PERSON_AND_ORGANIZATION_ROLE ( 'creator' ) ;
#152 = ADVANCED_BREP_SHAPE_REPRESENTATION ( '', ( #53, #41 ), #265 ) ;
#153 =( LENGTH_UNIT ( ) NAMED_UNIT ( * ) SI_UNIT ( .MILLI., .METRE. ) );
#154 = APPLICATION_CONTEXT ( 'configuration controlled 3d designs of mechanical parts and assemblies' ) ;
#155 = PERSON_AND_ORGANIZATION_ROLE ( 'classification_officer' ) ;
#156 = CC_DESIGN_APPROVAL ( #68, ( #244 ) ) ;
#157 = SHAPE_REPRESENTATION_RELATIONSHIP ( 'NONE' , 'NONE' ,  #234, #152 ) ;
#158 = APPROVAL_PERSON_ORGANIZATION ( #43, #68, #23 ) ;
#159 = DATE_AND_TIME ( #143, #118 ) ;
#160 = DATE_AND_TIME ( #269, #61 ) ;
#161 = CC_DESIGN_DATE_AND_TIME_ASSIGNMENT ( #205, #8, ( #287 ) ) ;
#162 = PERSON_AND_ORGANIZATION_ROLE ( 'design_owner' ) ;
#163 = APPLICATION_PROTOCOL_DEFINITION ( 'international standard', 'config_control_design', 1994, #154 ) ;
#164 = APPROVAL_ROLE ( '' ) ;
#165 = DATE_AND_TIME ( #187, #10 ) ;
#166 = PERSON_AND_ORGANIZATION ( #17, #230 ) ;
#167 = PERSON_AND_ORGANIZATION ( #17, #230 ) ;
#168 = CC_DESIGN_DATE_AND_TIME_ASSIGNMENT ( #279, #84, ( #117 ) ) ;
#169 = ITEM_DEFINED_TRANSFORMATION ( 'NONE', 'NONE', #138,  #41 ) ;
#170 = LOCAL_TIME ( 14, 9, 25.00000000000000000, #127 ) ;
#171 = DATE_AND_TIME ( #85, #268 ) ;
#172 = CC_DESIGN_APPROVAL ( #101, ( #290 ) ) ;
#173 = CARTESIAN_POINT ( 'NONE',  ( 0.000000000000000000, 0.000000000000000000, 0.000000000000000000 ) ) ;
#174 = DESIGN_CONTEXT ( 'detailed design', #276, 'design' ) ;
#175 = DIRECTION ( 'NONE',  ( 0.000000000000000000, -0.000000000000000000, 1.000000000000000000 ) ) ;
#176 = DIRECTION ( 'NONE',  ( 1.000000000000000000, 0.000000000000000000, 0.000000000000000000 ) ) ;
#177 = PRODUCT_RELATED_PRODUCT_CATEGORY ( 'detail', '', ( #209 ) ) ;
#178 = CARTESIAN_POINT ( 'NONE',  ( 0.000000000000000000, 0.000000000000000000, 0.000000000000000000 ) ) ;
#179 = PERSON_AND_ORGANIZATION ( #17, #230 ) ;
#180 = APPROVAL_STATUS ( 'not_yet_approved' ) ;
#181 = CALENDAR_DATE ( 2026, 6, 8 ) ;
#182 = DATE_AND_TIME ( #76, #47 ) ;
#183 = LOCAL_TIME ( 14, 9, 25.00000000000000000, #78 ) ;
#184 = PRODUCT_DEFINITION ( 'UNKNOWN', '', #283, #174 ) ;
#185 = COORDINATED_UNIVERSAL_TIME_OFFSET ( 0, 0, .AHEAD. ) ;
#186 = PERSON_AND_ORGANIZATION ( #17, #230 ) ;
#187 = CALENDAR_DATE ( 2026, 6, 8 ) ;
#188 = APPROVAL ( #255, 'UNSPECIFIED' ) ;
#189 = APPROVAL_DATE_TIME ( #165, #223 ) ;
#190 = DATE_AND_TIME ( #146, #75 ) ;
#191 = DIRECTION ( 'NONE',  ( 0.000000000000000000, 0.000000000000000000, 1.000000000000000000 ) ) ;
#192 = CARTESIAN_POINT ( 'NONE',  ( 0.000000000000000000, 0.000000000000000000, 50.00000000000000000 ) ) ;
#193 =( NAMED_UNIT ( * ) PLANE_ANGLE_UNIT ( ) SI_UNIT ( $, .RADIAN. ) );
#194 = DATE_AND_TIME ( #208, #183 ) ;
#195 = LOCAL_TIME ( 14, 9, 25.00000000000000000, #258 ) ;
#196 = APPLICATION_CONTEXT ( 'configuration controlled 3d designs of mechanical parts and assemblies' ) ;
#197 = PLANE ( 'NONE',  #90 ) ;
#198 = APPROVAL_ROLE ( '' ) ;
#199 = EDGE_CURVE ( 'NONE', #18, #18, #105, .T. ) ;
#200 = CC_DESIGN_APPROVAL ( #188, ( #283 ) ) ;
#201 = APPLICATION_PROTOCOL_DEFINITION ( 'international standard', 'config_control_design', 1994, #210 ) ;
#202 = CLOSED_SHELL ( 'NONE', ( #254, #259, #145 ) ) ;
#203 = DIRECTION ( 'NONE',  ( 0.000000000000000000, 0.000000000000000000, 1.000000000000000000 ) ) ;
#204 = APPROVAL_ROLE ( '' ) ;
#205 = DATE_AND_TIME ( #121, #111 ) ;
#206 = FACE_OUTER_BOUND ( 'NONE', #281, .T. ) ;
#207 = APPROVAL_STATUS ( 'not_yet_approved' ) ;
#208 = CALENDAR_DATE ( 2026, 6, 8 ) ;
#209 = PRODUCT ( 'C4_component_override_2__ap203', 'C4_component_override_2__ap203', '', ( #224 ) ) ;
#210 = APPLICATION_CONTEXT ( 'configuration controlled 3d designs of mechanical parts and assemblies' ) ;
#211 = CALENDAR_DATE ( 2026, 6, 8 ) ;
#212 = ORGANIZATION ( 'NAUO-ORG1', 'UNSPECIFIED', 'UNSPECIFIED' ) ;
#213 = APPROVAL_PERSON_ORGANIZATION ( #104, #223, #252 ) ;
#214 = APPLICATION_PROTOCOL_DEFINITION ( 'international standard', 'config_control_design', 1994, #276 ) ;
#215 = CC_DESIGN_SECURITY_CLASSIFICATION ( #287, ( #94 ) ) ;
#216 = COORDINATED_UNIVERSAL_TIME_OFFSET ( 0, 0, .AHEAD. ) ;
#217 = CARTESIAN_POINT ( 'NONE',  ( 0.000000000000000000, 100.0000000000000000, 50.00000000000000000 ) ) ;
#218 = CC_DESIGN_APPROVAL ( #277, ( #287 ) ) ;
#219 = APPROVAL ( #11, 'UNKNOWN' ) ;
#220 = DIRECTION ( 'NONE',  ( 0.000000000000000000, 0.000000000000000000, 1.000000000000000000 ) ) ;
#221 = CARTESIAN_POINT ( 'NONE',  ( 0.000000000000000000, 100.0000000000000000, 0.000000000000000000 ) ) ;
#222 = UNCERTAINTY_MEASURE_WITH_UNIT (LENGTH_MEASURE( 1.000000000000000082E-05 ), #289, 'distance_accuracy_value', 'NONE');
#223 = APPROVAL ( #207, 'UNSPECIFIED' ) ;
#224 = MECHANICAL_CONTEXT ( 'NONE', #210, 'mechanical' ) ;
#225 = MECHANICAL_CONTEXT ( 'NONE', #196, 'mechanical' ) ;
#226 = CC_DESIGN_PERSON_AND_ORGANIZATION_ASSIGNMENT ( #43, #155, ( #244 ) ) ;
#227 = PERSON_AND_ORGANIZATION ( #17, #230 ) ;
#228 = PERSON_AND_ORGANIZATION ( #17, #230 ) ;
#229 = APPROVAL_DATE_TIME ( #15, #219 ) ;
#230 = ORGANIZATION ( 'UNSPECIFIED', 'UNSPECIFIED', '' ) ;
#231 = APPROVAL_ROLE ( '' ) ;
#232 = APPROVAL_STATUS ( 'not_yet_approved' ) ;
#233 = SECURITY_CLASSIFICATION_LEVEL ( 'unclassified' ) ;
#234 = SHAPE_REPRESENTATION ( 'C4_part_1', ( #41 ), #265 ) ;
#235 = CC_DESIGN_APPROVAL ( #19, ( #128 ) ) ;
#236 = CC_DESIGN_DATE_AND_TIME_ASSIGNMENT ( #274, #140, ( #290 ) ) ;
#237 = AXIS2_PLACEMENT_3D ( 'NONE', #27, #89, #176 ) ;
#238 = PERSON_AND_ORGANIZATION ( #17, #230 ) ;
#239 = CARTESIAN_POINT ( 'NONE',  ( 0.000000000000000000, 100.0000000000000000, 0.000000000000000000 ) ) ;
#240 = CARTESIAN_POINT ( 'NONE',  ( 129.8588026547804475, -29.07840402331203578, -68.52472038008272648 ) ) ;
#241 = AXIS2_PLACEMENT_3D ( 'NONE', #54, #203, #74 ) ;
#242 = CARTESIAN_POINT ( 'NONE',  ( 0.000000000000000000, 100.0000000000000000, 0.000000000000000000 ) ) ;
#243 = CC_DESIGN_DATE_AND_TIME_ASSIGNMENT ( #256, #108, ( #184 ) ) ;
#244 = SECURITY_CLASSIFICATION ( '', '', #130 ) ;
#245 = APPROVAL ( #119, 'UNSPECIFIED' ) ;
#246 = CC_DESIGN_APPROVAL ( #245, ( #94 ) ) ;
#247 = PERSON_AND_ORGANIZATION ( #17, #230 ) ;
#248 = DESIGN_CONTEXT ( 'detailed design', #154, 'design' ) ;
#249 = APPROVAL_PERSON_ORGANIZATION ( #285, #188, #231 ) ;
#250 = APPROVAL_PERSON_ORGANIZATION ( #32, #101, #204 ) ;
#251 = APPROVAL_DATE_TIME ( #182, #245 ) ;
#252 = APPROVAL_ROLE ( '' ) ;
#253 = PERSON ( 'NAUO-PER2', 'UNSPECIFIED', 'UNSPECIFIED', ('UNSPECIFIED'), ('UNSPECIFIED'), ('UNSPECIFIED') ) ;
#254 = ADVANCED_FACE ( 'NONE', ( #69, #22 ), #264, .T. ) ;
#255 = APPROVAL_STATUS ( 'not_yet_approved' ) ;
#256 = DATE_AND_TIME ( #36, #195 ) ;
#257 = ORIENTED_EDGE ( 'NONE', *, *, #199, .T. ) ;
#258 = COORDINATED_UNIVERSAL_TIME_OFFSET ( 0, 0, .AHEAD. ) ;
#259 = ADVANCED_FACE ( 'NONE', ( #206 ), #113, .T. ) ;
#260 = LOCAL_TIME ( 14, 9, 25.00000000000000000, #280 ) ;
#261 = CC_DESIGN_APPROVAL ( #223, ( #184 ) ) ;
#262 = EDGE_LOOP ( 'NONE', ( #257 ) ) ;
#263 = DIRECTION ( 'NONE',  ( 0.000000000000000000, -0.000000000000000000, 1.000000000000000000 ) ) ;
#264 = CYLINDRICAL_SURFACE ( 'NONE', #26, 50.00000000000000000 ) ;
#265 =( GEOMETRIC_REPRESENTATION_CONTEXT ( 3 ) GLOBAL_UNCERTAINTY_ASSIGNED_CONTEXT ( ( #222 ) ) GLOBAL_UNIT_ASSIGNED_CONTEXT ( ( #289, #193, #44 ) ) REPRESENTATION_CONTEXT ( 'NONE', 'WORKASPACE' ) );
#266 = DIRECTION ( 'NONE',  ( 0.000000000000000000, 0.000000000000000000, 1.000000000000000000 ) ) ;
#267 = DIRECTION ( 'NONE',  ( 1.000000000000000000, 0.000000000000000000, 0.000000000000000000 ) ) ;
#268 = LOCAL_TIME ( 14, 9, 25.00000000000000000, #131 ) ;
#269 = CALENDAR_DATE ( 2026, 6, 8 ) ;
#270 = APPROVAL_PERSON_ORGANIZATION ( #141, #277, #198 ) ;
#271 = COORDINATED_UNIVERSAL_TIME_OFFSET ( 0, 0, .AHEAD. ) ;
#272 =( NAMED_UNIT ( * ) SI_UNIT ( $, .STERADIAN. ) SOLID_ANGLE_UNIT ( ) );
#273 = CC_DESIGN_SECURITY_CLASSIFICATION ( #117, ( #291 ) ) ;
#274 = DATE_AND_TIME ( #181, #3 ) ;
#275 = CALENDAR_DATE ( 2026, 6, 8 ) ;
#276 = APPLICATION_CONTEXT ( 'configuration controlled 3d designs of mechanical parts and assemblies' ) ;
#277 = APPROVAL ( #180, 'UNSPECIFIED' ) ;
#278 = PRODUCT ( 'C4_part_1', 'C4_part_1', '', ( #225 ) ) ;
#279 = DATE_AND_TIME ( #129, #98 ) ;
#280 = COORDINATED_UNIVERSAL_TIME_OFFSET ( 0, 0, .AHEAD. ) ;
#281 = EDGE_LOOP ( 'NONE', ( #87 ) ) ;
#282 = PRODUCT_DEFINITION_SHAPE ( 'NONE', 'NONE',  #292 ) ;
#283 = PRODUCT_DEFINITION_FORMATION_WITH_SPECIFIED_SOURCE ( 'ANY', '', #278, .NOT_KNOWN. ) ;
#284 = COORDINATED_UNIVERSAL_TIME_OFFSET ( 0, 0, .AHEAD. ) ;
#285 = PERSON_AND_ORGANIZATION ( #17, #230 ) ;
#286 = CC_DESIGN_SECURITY_CLASSIFICATION ( #244, ( #292 ) ) ;
#287 = SECURITY_CLASSIFICATION ( '', '', #144 ) ;
#288 = AXIS2_PLACEMENT_3D ( 'NONE', #242, #133, #136 ) ;
#289 =( LENGTH_UNIT ( ) NAMED_UNIT ( * ) SI_UNIT ( .MILLI., .METRE. ) );
#290 = PRODUCT_DEFINITION ( 'UNKNOWN', '', #94, #248 ) ;
#291 = NEXT_ASSEMBLY_USAGE_OCCURRENCE ( 'NAUO1', ' ', ' ', #290, #184, $ ) ;
#292 = NEXT_ASSEMBLY_USAGE_OCCURRENCE ( 'NAUO2', ' ', ' ', #290, #184, $ ) ;
ENDSEC;
END-ISO-10303-21;
