ISO-10303-21;
HEADER;
FILE_DESCRIPTION (( 'STEP AP214' ),
    '1' );
FILE_NAME ('C4_component_override_2__ap214_appear_fe.step',
    '2026-08-06T13:09:25',
    ( '' ),
    ( '' ),
    'SwSTEP 2.0',
    'SolidWorks 2026',
    '' );
FILE_SCHEMA (( 'AUTOMOTIVE_DESIGN' ));
ENDSEC;

DATA;
#1 = DIRECTION ( 'NONE',  ( 1.000000000000000000, 0.000000000000000000, 0.000000000000000000 ) ) ;
#2 = PRODUCT_RELATED_PRODUCT_CATEGORY ( 'part', '', ( #66 ) ) ;
#3 =( NAMED_UNIT ( * ) SI_UNIT ( $, .STERADIAN. ) SOLID_ANGLE_UNIT ( ) );
#4 = FILL_AREA_STYLE ('',( #14 ) ) ;
#5 = APPLICATION_PROTOCOL_DEFINITION ( 'draft international standard', 'automotive_design', 1998, #59 ) ;
#6 = ADVANCED_FACE ( 'NONE', ( #132 ), #91, .F. ) ;
#7 = AXIS2_PLACEMENT_3D ( 'NONE', #79, #116, #69 ) ;
#8 = PRODUCT_DEFINITION_SHAPE ( 'NONE', 'NONE',  #87 ) ;
#9 = CONTEXT_DEPENDENT_SHAPE_REPRESENTATION ( #104, #77 ) ;
#10 = FILL_AREA_STYLE ('',( #102 ) ) ;
#11 = DIRECTION ( 'NONE',  ( 0.000000000000000000, 1.000000000000000000, 0.000000000000000000 ) ) ;
#12 = AXIS2_PLACEMENT_3D ( 'NONE', #21, #23, #53 ) ;
#13 = PLANE ( 'NONE',  #12 ) ;
#14 = FILL_AREA_STYLE_COLOUR ( '', #44 ) ;
#15 = UNCERTAINTY_MEASURE_WITH_UNIT (LENGTH_MEASURE( 1.000000000000000082E-05 ), #82, 'distance_accuracy_value', 'NONE');
#16 = CARTESIAN_POINT ( 'NONE',  ( 0.000000000000000000, 0.000000000000000000, 0.000000000000000000 ) ) ;
#17 = CARTESIAN_POINT ( 'NONE',  ( 0.000000000000000000, 0.000000000000000000, 0.000000000000000000 ) ) ;
#18 = CARTESIAN_POINT ( 'NONE',  ( 129.8588026547804475, -29.07840402331203578, -68.52472038008272648 ) ) ;
#19 = CONTEXT_DEPENDENT_SHAPE_REPRESENTATION ( #110, #98 ) ;
#20 = CIRCLE ( 'NONE', #7, 50.00000000000000000 ) ;
#21 = CARTESIAN_POINT ( 'NONE',  ( 0.000000000000000000, 100.0000000000000000, 0.000000000000000000 ) ) ;
#22 = EDGE_LOOP ( 'NONE', ( #114 ) ) ;
#23 = DIRECTION ( 'NONE',  ( 0.000000000000000000, 1.000000000000000000, 0.000000000000000000 ) ) ;
#24 = FACE_OUTER_BOUND ( 'NONE', #22, .T. ) ;
#25 =( NAMED_UNIT ( * ) SI_UNIT ( $, .STERADIAN. ) SOLID_ANGLE_UNIT ( ) );
#26 =( GEOMETRIC_REPRESENTATION_CONTEXT ( 3 ) GLOBAL_UNCERTAINTY_ASSIGNED_CONTEXT ( ( #105 ) ) GLOBAL_UNIT_ASSIGNED_CONTEXT ( ( #64, #56, #3 ) ) REPRESENTATION_CONTEXT ( 'NONE', 'WORKASPACE' ) );
#27 = DIRECTION ( 'NONE',  ( 0.000000000000000000, 0.000000000000000000, 1.000000000000000000 ) ) ;
#28 =( NAMED_UNIT ( * ) PLANE_ANGLE_UNIT ( ) SI_UNIT ( $, .RADIAN. ) );
#29 = DIRECTION ( 'NONE',  ( 1.000000000000000000, 0.000000000000000000, 0.000000000000000000 ) ) ;
#30 = PRESENTATION_LAYER_ASSIGNMENT (  '', '', ( #99 ) ) ;
#31 = PRODUCT_DEFINITION_FORMATION_WITH_SPECIFIED_SOURCE ( 'ANY', '', #66, .NOT_KNOWN. ) ;
#32 = PRODUCT_DEFINITION ( 'UNKNOWN', '', #31, #118 ) ;
#33 = SHAPE_REPRESENTATION ( 'C4_component_override_2__ap214_appear_fe', ( #97, #123, #113 ), #26 ) ;
#34 = VERTEX_POINT ( 'NONE', #51 ) ;
#35 = SURFACE_STYLE_USAGE ( .BOTH. , #52 ) ;
#36 = SHAPE_DEFINITION_REPRESENTATION ( #141, #129 ) ;
#37 = APPLICATION_PROTOCOL_DEFINITION ( 'draft international standard', 'automotive_design', 1998, #40 ) ;
#38 = PRODUCT_CONTEXT ( 'NONE', #40, 'mechanical' ) ;
#39 = AXIS2_PLACEMENT_3D ( 'NONE', #103, #11, #68 ) ;
#40 = APPLICATION_CONTEXT ( 'automotive_design' ) ;
#41 = DIRECTION ( 'NONE',  ( 0.000000000000000000, 1.000000000000000000, 0.000000000000000000 ) ) ;
#42 =( LENGTH_UNIT ( ) NAMED_UNIT ( * ) SI_UNIT ( .MILLI., .METRE. ) );
#43 = APPLICATION_CONTEXT ( 'automotive_design' ) ;
#44 = COLOUR_RGB ( '',0.9098039215686274384, 0.4431372549019607643, 0.03137254901960784270 ) ;
#45 = SURFACE_STYLE_FILL_AREA ( #10 ) ;
#46 = PRESENTATION_STYLE_ASSIGNMENT (( #107 ) ) ;
#47 = AXIS2_PLACEMENT_3D ( 'NONE', #117, #143, #134 ) ;
#48 = APPLICATION_PROTOCOL_DEFINITION ( 'draft international standard', 'automotive_design', 1998, #43 ) ;
#49 = ORIENTED_EDGE ( 'NONE', *, *, #125, .F. ) ;
#50 = MECHANICAL_DESIGN_GEOMETRIC_PRESENTATION_REPRESENTATION (  '', ( #109 ), #78 ) ;
#51 = CARTESIAN_POINT ( 'NONE',  ( 0.000000000000000000, 0.000000000000000000, 50.00000000000000000 ) ) ;
#52 = SURFACE_SIDE_STYLE ('',( #45 ) ) ;
#53 = DIRECTION ( 'NONE',  ( 0.000000000000000000, -0.000000000000000000, 1.000000000000000000 ) ) ;
#54 = SURFACE_STYLE_FILL_AREA ( #4 ) ;
#55 = AXIS2_PLACEMENT_3D ( 'NONE', #16, #93, #1 ) ;
#56 =( NAMED_UNIT ( * ) PLANE_ANGLE_UNIT ( ) SI_UNIT ( $, .RADIAN. ) );
#57 = DIRECTION ( 'NONE',  ( 1.000000000000000000, 0.000000000000000000, 0.000000000000000000 ) ) ;
#58 =( GEOMETRIC_REPRESENTATION_CONTEXT ( 3 ) GLOBAL_UNCERTAINTY_ASSIGNED_CONTEXT ( ( #70 ) ) GLOBAL_UNIT_ASSIGNED_CONTEXT ( ( #42, #130, #25 ) ) REPRESENTATION_CONTEXT ( 'NONE', 'WORKASPACE' ) );
#59 = APPLICATION_CONTEXT ( 'automotive_design' ) ;
#60 = ADVANCED_FACE ( 'NONE', ( #89, #128 ), #100, .T. ) ;
#61 = EDGE_LOOP ( 'NONE', ( #80 ) ) ;
#62 = COLOUR_RGB ( '',1.000000000000000000, 0.000000000000000000, 0.000000000000000000 ) ;
#63 = DIRECTION ( 'NONE',  ( 1.000000000000000000, 0.000000000000000000, 0.000000000000000000 ) ) ;
#64 =( LENGTH_UNIT ( ) NAMED_UNIT ( * ) SI_UNIT ( .MILLI., .METRE. ) );
#65 = PRESENTATION_LAYER_ASSIGNMENT (  '', '', ( #109 ) ) ;
#66 = PRODUCT ( 'C4_part_1', 'C4_part_1', '', ( #38 ) ) ;
#67 = EDGE_CURVE ( 'NONE', #34, #34, #20, .T. ) ;
#68 = DIRECTION ( 'NONE',  ( 0.000000000000000000, -0.000000000000000000, 1.000000000000000000 ) ) ;
#69 = DIRECTION ( 'NONE',  ( 0.000000000000000000, 0.000000000000000000, 1.000000000000000000 ) ) ;
#70 = UNCERTAINTY_MEASURE_WITH_UNIT (LENGTH_MEASURE( 1.000000000000000082E-05 ), #42, 'distance_accuracy_value', 'NONE');
#71 = CLOSED_SHELL ( 'NONE', ( #60, #73, #6 ) ) ;
#72 = SHAPE_REPRESENTATION_RELATIONSHIP ( 'NONE' , 'NONE' ,  #129, #133 ) ;
#73 = ADVANCED_FACE ( 'NONE', ( #24 ), #13, .T. ) ;
#74 = ITEM_DEFINED_TRANSFORMATION ( 'NONE', 'NONE', #123,  #142 ) ;
#75 = DIRECTION ( 'NONE',  ( 0.000000000000000000, 0.000000000000000000, 1.000000000000000000 ) ) ;
#76 = ITEM_DEFINED_TRANSFORMATION ( 'NONE', 'NONE', #113,  #142 ) ;
#77 = PRODUCT_DEFINITION_SHAPE ( 'NONE', 'NONE',  #146 ) ;
#78 =( GEOMETRIC_REPRESENTATION_CONTEXT ( 3 ) GLOBAL_UNCERTAINTY_ASSIGNED_CONTEXT ( ( #108 ) ) GLOBAL_UNIT_ASSIGNED_CONTEXT ( ( #120, #28, #106 ) ) REPRESENTATION_CONTEXT ( 'NONE', 'WORKASPACE' ) );
#79 = CARTESIAN_POINT ( 'NONE',  ( 0.000000000000000000, 0.000000000000000000, 0.000000000000000000 ) ) ;
#80 = ORIENTED_EDGE ( 'NONE', *, *, #67, .F. ) ;
#81 = VERTEX_POINT ( 'NONE', #90 ) ;
#82 =( LENGTH_UNIT ( ) NAMED_UNIT ( * ) SI_UNIT ( .MILLI., .METRE. ) );
#83 = DIRECTION ( 'NONE',  ( 0.000000000000000000, 0.000000000000000000, 1.000000000000000000 ) ) ;
#84 = PRODUCT_CONTEXT ( 'NONE', #59, 'mechanical' ) ;
#85 = EDGE_LOOP ( 'NONE', ( #126 ) ) ;
#86 = AXIS2_PLACEMENT_3D ( 'NONE', #88, #41, #101 ) ;
#87 = PRODUCT_DEFINITION ( 'UNKNOWN', '', #127, #131 ) ;
#88 = CARTESIAN_POINT ( 'NONE',  ( 0.000000000000000000, 100.0000000000000000, 0.000000000000000000 ) ) ;
#89 = FACE_OUTER_BOUND ( 'NONE', #140, .T. ) ;
#90 = CARTESIAN_POINT ( 'NONE',  ( 0.000000000000000000, 100.0000000000000000, 50.00000000000000000 ) ) ;
#91 = PLANE ( 'NONE',  #39 ) ;
#92 = CIRCLE ( 'NONE', #86, 50.00000000000000000 ) ;
#93 = DIRECTION ( 'NONE',  ( 0.000000000000000000, 0.000000000000000000, 1.000000000000000000 ) ) ;
#94 =( GEOMETRIC_REPRESENTATION_CONTEXT ( 3 ) GLOBAL_UNCERTAINTY_ASSIGNED_CONTEXT ( ( #15 ) ) GLOBAL_UNIT_ASSIGNED_CONTEXT ( ( #82, #144, #119 ) ) REPRESENTATION_CONTEXT ( 'NONE', 'WORKASPACE' ) );
#95 = SURFACE_SIDE_STYLE ('',( #54 ) ) ;
#96 = DIRECTION ( 'NONE',  ( 1.000000000000000000, 0.000000000000000000, 0.000000000000000000 ) ) ;
#97 = AXIS2_PLACEMENT_3D ( 'NONE', #135, #83, #63 ) ;
#98 = PRODUCT_DEFINITION_SHAPE ( 'NONE', 'NONE',  #145 ) ;
#99 = STYLED_ITEM ( 'NONE', ( #115 ), #121 ) ;
#100 = CYLINDRICAL_SURFACE ( 'NONE', #47, 50.00000000000000000 ) ;
#101 = DIRECTION ( 'NONE',  ( 0.000000000000000000, 0.000000000000000000, 1.000000000000000000 ) ) ;
#102 = FILL_AREA_STYLE_COLOUR ( '', #62 ) ;
#103 = CARTESIAN_POINT ( 'NONE',  ( 0.000000000000000000, 0.000000000000000000, 0.000000000000000000 ) ) ;
#104 =( REPRESENTATION_RELATIONSHIP ('NONE','NONE', #33, #129 ) REPRESENTATION_RELATIONSHIP_WITH_TRANSFORMATION ( #76 )SHAPE_REPRESENTATION_RELATIONSHIP( ) );
#105 = UNCERTAINTY_MEASURE_WITH_UNIT (LENGTH_MEASURE( 1.000000000000000082E-05 ), #64, 'distance_accuracy_value', 'NONE');
#106 =( NAMED_UNIT ( * ) SI_UNIT ( $, .STERADIAN. ) SOLID_ANGLE_UNIT ( ) );
#107 = SURFACE_STYLE_USAGE ( .BOTH. , #95 ) ;
#108 = UNCERTAINTY_MEASURE_WITH_UNIT (LENGTH_MEASURE( 1.000000000000000082E-05 ), #120, 'distance_accuracy_value', 'NONE');
#109 = STYLED_ITEM ( 'NONE', ( #46 ), #133 ) ;
#110 =( REPRESENTATION_RELATIONSHIP ('NONE','NONE', #33, #129 ) REPRESENTATION_RELATIONSHIP_WITH_TRANSFORMATION ( #74 )SHAPE_REPRESENTATION_RELATIONSHIP( ) );
#111 = MECHANICAL_DESIGN_GEOMETRIC_PRESENTATION_REPRESENTATION (  '', ( #99 ), #94 ) ;
#112 = PRODUCT ( 'C4_component_override_2__ap214_appear_fe', 'C4_component_override_2__ap214_appear_fe', '', ( #84 ) ) ;
#113 = AXIS2_PLACEMENT_3D ( 'NONE', #18, #27, #29 ) ;
#114 = ORIENTED_EDGE ( 'NONE', *, *, #125, .T. ) ;
#115 = PRESENTATION_STYLE_ASSIGNMENT (( #35 ) ) ;
#116 = DIRECTION ( 'NONE',  ( 0.000000000000000000, 1.000000000000000000, 0.000000000000000000 ) ) ;
#117 = CARTESIAN_POINT ( 'NONE',  ( 0.000000000000000000, 100.0000000000000000, 0.000000000000000000 ) ) ;
#118 = PRODUCT_DEFINITION_CONTEXT ( 'detailed design', #43, 'design' ) ;
#119 =( NAMED_UNIT ( * ) SI_UNIT ( $, .STERADIAN. ) SOLID_ANGLE_UNIT ( ) );
#120 =( LENGTH_UNIT ( ) NAMED_UNIT ( * ) SI_UNIT ( .MILLI., .METRE. ) );
#121 = MANIFOLD_SOLID_BREP ( 'Boss-Extrude1', #71 ) ;
#122 = CARTESIAN_POINT ( 'NONE',  ( 0.000000000000000000, 0.000000000000000000, 0.000000000000000000 ) ) ;
#123 = AXIS2_PLACEMENT_3D ( 'NONE', #122, #75, #57 ) ;
#124 = APPLICATION_PROTOCOL_DEFINITION ( 'draft international standard', 'automotive_design', 1998, #138 ) ;
#125 = EDGE_CURVE ( 'NONE', #81, #81, #92, .T. ) ;
#126 = ORIENTED_EDGE ( 'NONE', *, *, #67, .T. ) ;
#127 = PRODUCT_DEFINITION_FORMATION_WITH_SPECIFIED_SOURCE ( 'ANY', '', #112, .NOT_KNOWN. ) ;
#128 = FACE_OUTER_BOUND ( 'NONE', #85, .T. ) ;
#129 = SHAPE_REPRESENTATION ( 'C4_part_1', ( #142 ), #58 ) ;
#130 =( NAMED_UNIT ( * ) PLANE_ANGLE_UNIT ( ) SI_UNIT ( $, .RADIAN. ) );
#131 = PRODUCT_DEFINITION_CONTEXT ( 'detailed design', #138, 'design' ) ;
#132 = FACE_OUTER_BOUND ( 'NONE', #61, .T. ) ;
#133 = ADVANCED_BREP_SHAPE_REPRESENTATION ( '', ( #121, #142 ), #58 ) ;
#134 = DIRECTION ( 'NONE',  ( 0.000000000000000000, 0.000000000000000000, -1.000000000000000000 ) ) ;
#135 = CARTESIAN_POINT ( 'NONE',  ( 0.000000000000000000, 0.000000000000000000, 0.000000000000000000 ) ) ;
#136 = DIRECTION ( 'NONE',  ( 0.000000000000000000, 0.000000000000000000, 1.000000000000000000 ) ) ;
#137 = SHAPE_DEFINITION_REPRESENTATION ( #8, #33 ) ;
#138 = APPLICATION_CONTEXT ( 'automotive_design' ) ;
#139 = PRODUCT_RELATED_PRODUCT_CATEGORY ( 'part', '', ( #112 ) ) ;
#140 = EDGE_LOOP ( 'NONE', ( #49 ) ) ;
#141 = PRODUCT_DEFINITION_SHAPE ( 'NONE', 'NONE',  #32 ) ;
#142 = AXIS2_PLACEMENT_3D ( 'NONE', #17, #136, #96 ) ;
#143 = DIRECTION ( 'NONE',  ( -0.000000000000000000, -1.000000000000000000, -0.000000000000000000 ) ) ;
#144 =( NAMED_UNIT ( * ) PLANE_ANGLE_UNIT ( ) SI_UNIT ( $, .RADIAN. ) );
#145 = NEXT_ASSEMBLY_USAGE_OCCURRENCE ( 'NAUO1', ' ', ' ', #87, #32, $ ) ;
#146 = NEXT_ASSEMBLY_USAGE_OCCURRENCE ( 'NAUO2', ' ', ' ', #87, #32, $ ) ;
ENDSEC;
END-ISO-10303-21;
