ISO-10303-21;
HEADER;
FILE_DESCRIPTION (( 'STEP AP214' ),
    '1' );
FILE_NAME ('C4_component_override_1__ap214_appear_fe.step',
    '2026-08-06T13:09:24',
    ( '' ),
    ( '' ),
    'SwSTEP 2.0',
    'SolidWorks 2026',
    '' );
FILE_SCHEMA (( 'AUTOMOTIVE_DESIGN' ));
ENDSEC;

DATA;
#1 = DIRECTION ( 'NONE',  ( 1.000000000000000000, 0.000000000000000000, 0.000000000000000000 ) ) ;
#2 = APPLICATION_PROTOCOL_DEFINITION ( 'draft international standard', 'automotive_design', 1998, #48 ) ;
#3 = PRODUCT_DEFINITION_CONTEXT ( 'detailed design', #35, 'design' ) ;
#4 = PRODUCT ( 'C4_part_1', 'C4_part_1', '', ( #15 ) ) ;
#5 = COLOUR_RGB ( '',0.9098039215686274384, 0.4431372549019607643, 0.03137254901960784270 ) ;
#6 = EDGE_LOOP ( 'NONE', ( #58 ) ) ;
#7 =( GEOMETRIC_REPRESENTATION_CONTEXT ( 3 ) GLOBAL_UNCERTAINTY_ASSIGNED_CONTEXT ( ( #101 ) ) GLOBAL_UNIT_ASSIGNED_CONTEXT ( ( #88, #87, #60 ) ) REPRESENTATION_CONTEXT ( 'NONE', 'WORKASPACE' ) );
#8 = SURFACE_SIDE_STYLE ('',( #57 ) ) ;
#9 = DIRECTION ( 'NONE',  ( 1.000000000000000000, 0.000000000000000000, 0.000000000000000000 ) ) ;
#10 = AXIS2_PLACEMENT_3D ( 'NONE', #104, #66, #130 ) ;
#11 = CARTESIAN_POINT ( 'NONE',  ( 129.8588026547804475, -29.07840402331203578, -68.52472038008272648 ) ) ;
#12 =( NAMED_UNIT ( * ) SI_UNIT ( $, .STERADIAN. ) SOLID_ANGLE_UNIT ( ) );
#13 = SURFACE_STYLE_FILL_AREA ( #89 ) ;
#14 = PRODUCT_DEFINITION_CONTEXT ( 'detailed design', #16, 'design' ) ;
#15 = PRODUCT_CONTEXT ( 'NONE', #26, 'mechanical' ) ;
#16 = APPLICATION_CONTEXT ( 'automotive_design' ) ;
#17 = PRODUCT_DEFINITION_SHAPE ( 'NONE', 'NONE',  #113 ) ;
#18 = CLOSED_SHELL ( 'NONE', ( #115, #56, #34 ) ) ;
#19 = CARTESIAN_POINT ( 'NONE',  ( 0.000000000000000000, 0.000000000000000000, 0.000000000000000000 ) ) ;
#20 = MANIFOLD_SOLID_BREP ( 'Boss-Extrude1', #18 ) ;
#21 = CIRCLE ( 'NONE', #68, 50.00000000000000000 ) ;
#22 = EDGE_LOOP ( 'NONE', ( #50 ) ) ;
#23 = CARTESIAN_POINT ( 'NONE',  ( 0.000000000000000000, 0.000000000000000000, 0.000000000000000000 ) ) ;
#24 = CARTESIAN_POINT ( 'NONE',  ( 0.000000000000000000, 0.000000000000000000, 0.000000000000000000 ) ) ;
#25 = DIRECTION ( 'NONE',  ( 0.000000000000000000, 0.000000000000000000, 1.000000000000000000 ) ) ;
#26 = APPLICATION_CONTEXT ( 'automotive_design' ) ;
#27 = AXIS2_PLACEMENT_3D ( 'NONE', #11, #70, #1 ) ;
#28 = CARTESIAN_POINT ( 'NONE',  ( 0.000000000000000000, 100.0000000000000000, 0.000000000000000000 ) ) ;
#29 = UNCERTAINTY_MEASURE_WITH_UNIT (LENGTH_MEASURE( 1.000000000000000082E-05 ), #59, 'distance_accuracy_value', 'NONE');
#30 = PRODUCT_DEFINITION ( 'UNKNOWN', '', #128, #14 ) ;
#31 = CONTEXT_DEPENDENT_SHAPE_REPRESENTATION ( #46, #54 ) ;
#32 = MECHANICAL_DESIGN_GEOMETRIC_PRESENTATION_REPRESENTATION (  '', ( #97 ), #7 ) ;
#33 = PRESENTATION_STYLE_ASSIGNMENT (( #103 ) ) ;
#34 = ADVANCED_FACE ( 'NONE', ( #84 ), #116, .F. ) ;
#35 = APPLICATION_CONTEXT ( 'automotive_design' ) ;
#36 = AXIS2_PLACEMENT_3D ( 'NONE', #23, #124, #73 ) ;
#37 = DIRECTION ( 'NONE',  ( 0.000000000000000000, 0.000000000000000000, 1.000000000000000000 ) ) ;
#38 = CARTESIAN_POINT ( 'NONE',  ( 0.000000000000000000, 0.000000000000000000, 0.000000000000000000 ) ) ;
#39 = CARTESIAN_POINT ( 'NONE',  ( 0.000000000000000000, 100.0000000000000000, 50.00000000000000000 ) ) ;
#40 = UNCERTAINTY_MEASURE_WITH_UNIT (LENGTH_MEASURE( 1.000000000000000082E-05 ), #93, 'distance_accuracy_value', 'NONE');
#41 = STYLED_ITEM ( 'NONE', ( #33 ), #20 ) ;
#42 = CIRCLE ( 'NONE', #10, 50.00000000000000000 ) ;
#43 = FACE_OUTER_BOUND ( 'NONE', #22, .T. ) ;
#44 = APPLICATION_PROTOCOL_DEFINITION ( 'draft international standard', 'automotive_design', 1998, #26 ) ;
#45 = AXIS2_PLACEMENT_3D ( 'NONE', #28, #51, #109 ) ;
#46 =( REPRESENTATION_RELATIONSHIP ('NONE','NONE', #110, #80 ) REPRESENTATION_RELATIONSHIP_WITH_TRANSFORMATION ( #79 )SHAPE_REPRESENTATION_RELATIONSHIP( ) );
#47 = SHAPE_DEFINITION_REPRESENTATION ( #94, #110 ) ;
#48 = APPLICATION_CONTEXT ( 'automotive_design' ) ;
#49 = CARTESIAN_POINT ( 'NONE',  ( 0.000000000000000000, 100.0000000000000000, 0.000000000000000000 ) ) ;
#50 = ORIENTED_EDGE ( 'NONE', *, *, #99, .T. ) ;
#51 = DIRECTION ( 'NONE',  ( -0.000000000000000000, -1.000000000000000000, -0.000000000000000000 ) ) ;
#52 = VERTEX_POINT ( 'NONE', #61 ) ;
#53 = APPLICATION_PROTOCOL_DEFINITION ( 'draft international standard', 'automotive_design', 1998, #35 ) ;
#54 = PRODUCT_DEFINITION_SHAPE ( 'NONE', 'NONE',  #146 ) ;
#55 =( NAMED_UNIT ( * ) SI_UNIT ( $, .STERADIAN. ) SOLID_ANGLE_UNIT ( ) );
#56 = ADVANCED_FACE ( 'NONE', ( #127 ), #138, .T. ) ;
#57 = SURFACE_STYLE_FILL_AREA ( #139 ) ;
#58 = ORIENTED_EDGE ( 'NONE', *, *, #143, .T. ) ;
#59 =( LENGTH_UNIT ( ) NAMED_UNIT ( * ) SI_UNIT ( .MILLI., .METRE. ) );
#60 =( NAMED_UNIT ( * ) SI_UNIT ( $, .STERADIAN. ) SOLID_ANGLE_UNIT ( ) );
#61 = CARTESIAN_POINT ( 'NONE',  ( 0.000000000000000000, 0.000000000000000000, 50.00000000000000000 ) ) ;
#62 = FILL_AREA_STYLE_COLOUR ( '', #5 ) ;
#63 = SHAPE_DEFINITION_REPRESENTATION ( #17, #80 ) ;
#64 = PRODUCT_DEFINITION_SHAPE ( 'NONE', 'NONE',  #145 ) ;
#65 = ORIENTED_EDGE ( 'NONE', *, *, #143, .F. ) ;
#66 = DIRECTION ( 'NONE',  ( 0.000000000000000000, 1.000000000000000000, 0.000000000000000000 ) ) ;
#67 = DIRECTION ( 'NONE',  ( 1.000000000000000000, 0.000000000000000000, 0.000000000000000000 ) ) ;
#68 = AXIS2_PLACEMENT_3D ( 'NONE', #144, #117, #78 ) ;
#69 = DIRECTION ( 'NONE',  ( 1.000000000000000000, 0.000000000000000000, 0.000000000000000000 ) ) ;
#70 = DIRECTION ( 'NONE',  ( 0.000000000000000000, 0.000000000000000000, 1.000000000000000000 ) ) ;
#71 = PRODUCT_DEFINITION_FORMATION_WITH_SPECIFIED_SOURCE ( 'ANY', '', #4, .NOT_KNOWN. ) ;
#72 = PRODUCT ( 'C4_component_override_1__ap214_appear_fe', 'C4_component_override_1__ap214_appear_fe', '', ( #132 ) ) ;
#73 = DIRECTION ( 'NONE',  ( 0.000000000000000000, -0.000000000000000000, 1.000000000000000000 ) ) ;
#74 =( LENGTH_UNIT ( ) NAMED_UNIT ( * ) SI_UNIT ( .MILLI., .METRE. ) );
#75 = DIRECTION ( 'NONE',  ( 0.000000000000000000, 0.000000000000000000, 1.000000000000000000 ) ) ;
#76 = FACE_OUTER_BOUND ( 'NONE', #82, .T. ) ;
#77 = AXIS2_PLACEMENT_3D ( 'NONE', #24, #25, #9 ) ;
#78 = DIRECTION ( 'NONE',  ( 0.000000000000000000, 0.000000000000000000, 1.000000000000000000 ) ) ;
#79 = ITEM_DEFINED_TRANSFORMATION ( 'NONE', 'NONE', #27,  #108 ) ;
#80 = SHAPE_REPRESENTATION ( 'C4_part_1', ( #108 ), #121 ) ;
#81 = DIRECTION ( 'NONE',  ( 0.000000000000000000, 1.000000000000000000, 0.000000000000000000 ) ) ;
#82 = EDGE_LOOP ( 'NONE', ( #65 ) ) ;
#83 = PRESENTATION_LAYER_ASSIGNMENT (  '', '', ( #97 ) ) ;
#84 = FACE_OUTER_BOUND ( 'NONE', #85, .T. ) ;
#85 = EDGE_LOOP ( 'NONE', ( #125 ) ) ;
#86 =( GEOMETRIC_REPRESENTATION_CONTEXT ( 3 ) GLOBAL_UNCERTAINTY_ASSIGNED_CONTEXT ( ( #90 ) ) GLOBAL_UNIT_ASSIGNED_CONTEXT ( ( #74, #141, #55 ) ) REPRESENTATION_CONTEXT ( 'NONE', 'WORKASPACE' ) );
#87 =( NAMED_UNIT ( * ) PLANE_ANGLE_UNIT ( ) SI_UNIT ( $, .RADIAN. ) );
#88 =( LENGTH_UNIT ( ) NAMED_UNIT ( * ) SI_UNIT ( .MILLI., .METRE. ) );
#89 = FILL_AREA_STYLE ('',( #62 ) ) ;
#90 = UNCERTAINTY_MEASURE_WITH_UNIT (LENGTH_MEASURE( 1.000000000000000082E-05 ), #74, 'distance_accuracy_value', 'NONE');
#91 =( NAMED_UNIT ( * ) PLANE_ANGLE_UNIT ( ) SI_UNIT ( $, .RADIAN. ) );
#92 = CONTEXT_DEPENDENT_SHAPE_REPRESENTATION ( #137, #64 ) ;
#93 =( LENGTH_UNIT ( ) NAMED_UNIT ( * ) SI_UNIT ( .MILLI., .METRE. ) );
#94 = PRODUCT_DEFINITION_SHAPE ( 'NONE', 'NONE',  #30 ) ;
#95 = COLOUR_RGB ( '',1.000000000000000000, 0.000000000000000000, 0.000000000000000000 ) ;
#96 = FILL_AREA_STYLE_COLOUR ( '', #95 ) ;
#97 = STYLED_ITEM ( 'NONE', ( #123 ), #106 ) ;
#98 = SURFACE_SIDE_STYLE ('',( #13 ) ) ;
#99 = EDGE_CURVE ( 'NONE', #52, #52, #42, .T. ) ;
#100 = ITEM_DEFINED_TRANSFORMATION ( 'NONE', 'NONE', #102,  #108 ) ;
#101 = UNCERTAINTY_MEASURE_WITH_UNIT (LENGTH_MEASURE( 1.000000000000000082E-05 ), #88, 'distance_accuracy_value', 'NONE');
#102 = AXIS2_PLACEMENT_3D ( 'NONE', #38, #75, #67 ) ;
#103 = SURFACE_STYLE_USAGE ( .BOTH. , #8 ) ;
#104 = CARTESIAN_POINT ( 'NONE',  ( 0.000000000000000000, 0.000000000000000000, 0.000000000000000000 ) ) ;
#105 = MECHANICAL_DESIGN_GEOMETRIC_PRESENTATION_REPRESENTATION (  '', ( #41 ), #86 ) ;
#106 = ADVANCED_BREP_SHAPE_REPRESENTATION ( '', ( #20, #108 ), #121 ) ;
#107 =( NAMED_UNIT ( * ) PLANE_ANGLE_UNIT ( ) SI_UNIT ( $, .RADIAN. ) );
#108 = AXIS2_PLACEMENT_3D ( 'NONE', #119, #37, #69 ) ;
#109 = DIRECTION ( 'NONE',  ( 0.000000000000000000, 0.000000000000000000, -1.000000000000000000 ) ) ;
#110 = SHAPE_REPRESENTATION ( 'C4_component_override_1__ap214_appear_fe', ( #140, #102, #27 ), #126 ) ;
#111 = PRESENTATION_LAYER_ASSIGNMENT (  '', '', ( #41 ) ) ;
#112 = DIRECTION ( 'NONE',  ( 0.000000000000000000, -0.000000000000000000, 1.000000000000000000 ) ) ;
#113 = PRODUCT_DEFINITION ( 'UNKNOWN', '', #71, #3 ) ;
#114 = PRODUCT_RELATED_PRODUCT_CATEGORY ( 'part', '', ( #72 ) ) ;
#115 = ADVANCED_FACE ( 'NONE', ( #76, #43 ), #142, .T. ) ;
#116 = PLANE ( 'NONE',  #36 ) ;
#117 = DIRECTION ( 'NONE',  ( 0.000000000000000000, 1.000000000000000000, 0.000000000000000000 ) ) ;
#118 = SHAPE_REPRESENTATION_RELATIONSHIP ( 'NONE' , 'NONE' ,  #80, #106 ) ;
#119 = CARTESIAN_POINT ( 'NONE',  ( 0.000000000000000000, 0.000000000000000000, 0.000000000000000000 ) ) ;
#120 = VERTEX_POINT ( 'NONE', #39 ) ;
#121 =( GEOMETRIC_REPRESENTATION_CONTEXT ( 3 ) GLOBAL_UNCERTAINTY_ASSIGNED_CONTEXT ( ( #29 ) ) GLOBAL_UNIT_ASSIGNED_CONTEXT ( ( #59, #107, #12 ) ) REPRESENTATION_CONTEXT ( 'NONE', 'WORKASPACE' ) );
#122 =( NAMED_UNIT ( * ) SI_UNIT ( $, .STERADIAN. ) SOLID_ANGLE_UNIT ( ) );
#123 = PRESENTATION_STYLE_ASSIGNMENT (( #129 ) ) ;
#124 = DIRECTION ( 'NONE',  ( 0.000000000000000000, 1.000000000000000000, 0.000000000000000000 ) ) ;
#125 = ORIENTED_EDGE ( 'NONE', *, *, #99, .F. ) ;
#126 =( GEOMETRIC_REPRESENTATION_CONTEXT ( 3 ) GLOBAL_UNCERTAINTY_ASSIGNED_CONTEXT ( ( #40 ) ) GLOBAL_UNIT_ASSIGNED_CONTEXT ( ( #93, #91, #122 ) ) REPRESENTATION_CONTEXT ( 'NONE', 'WORKASPACE' ) );
#127 = FACE_OUTER_BOUND ( 'NONE', #6, .T. ) ;
#128 = PRODUCT_DEFINITION_FORMATION_WITH_SPECIFIED_SOURCE ( 'ANY', '', #72, .NOT_KNOWN. ) ;
#129 = SURFACE_STYLE_USAGE ( .BOTH. , #98 ) ;
#130 = DIRECTION ( 'NONE',  ( 0.000000000000000000, 0.000000000000000000, 1.000000000000000000 ) ) ;
#131 = DIRECTION ( 'NONE',  ( 0.000000000000000000, 0.000000000000000000, 1.000000000000000000 ) ) ;
#132 = PRODUCT_CONTEXT ( 'NONE', #48, 'mechanical' ) ;
#133 = APPLICATION_PROTOCOL_DEFINITION ( 'draft international standard', 'automotive_design', 1998, #16 ) ;
#134 = AXIS2_PLACEMENT_3D ( 'NONE', #49, #81, #112 ) ;
#135 = PRODUCT_RELATED_PRODUCT_CATEGORY ( 'part', '', ( #4 ) ) ;
#136 = DIRECTION ( 'NONE',  ( 1.000000000000000000, 0.000000000000000000, 0.000000000000000000 ) ) ;
#137 =( REPRESENTATION_RELATIONSHIP ('NONE','NONE', #110, #80 ) REPRESENTATION_RELATIONSHIP_WITH_TRANSFORMATION ( #100 )SHAPE_REPRESENTATION_RELATIONSHIP( ) );
#138 = PLANE ( 'NONE',  #134 ) ;
#139 = FILL_AREA_STYLE ('',( #96 ) ) ;
#140 = AXIS2_PLACEMENT_3D ( 'NONE', #19, #131, #136 ) ;
#141 =( NAMED_UNIT ( * ) PLANE_ANGLE_UNIT ( ) SI_UNIT ( $, .RADIAN. ) );
#142 = CYLINDRICAL_SURFACE ( 'NONE', #45, 50.00000000000000000 ) ;
#143 = EDGE_CURVE ( 'NONE', #120, #120, #21, .T. ) ;
#144 = CARTESIAN_POINT ( 'NONE',  ( 0.000000000000000000, 100.0000000000000000, 0.000000000000000000 ) ) ;
#145 = NEXT_ASSEMBLY_USAGE_OCCURRENCE ( 'NAUO1', ' ', ' ', #30, #113, $ ) ;
#146 = NEXT_ASSEMBLY_USAGE_OCCURRENCE ( 'NAUO2', ' ', ' ', #30, #113, $ ) ;
ENDSEC;
END-ISO-10303-21;
