ISO-10303-21;
HEADER;
FILE_DESCRIPTION (( 'STEP AP203' ),
    '1' );
FILE_NAME ('C4_component_override_1__ap203.step',
    '2026-08-06T13:09:24',
    ( '' ),
    ( '' ),
    'SwSTEP 2.0',
    'SolidWorks 2026',
    '' );
FILE_SCHEMA (( 'CONFIG_CONTROL_DESIGN' ));
ENDSEC;

DATA;
#1 = ADVANCED_FACE ( 'NONE', ( #157 ), #133, .F. ) ;
#2 = DIRECTION ( 'NONE',  ( 0.000000000000000000, 1.000000000000000000, 0.000000000000000000 ) ) ;
#3 = UNCERTAINTY_MEASURE_WITH_UNIT (LENGTH_MEASURE( 1.000000000000000082E-05 ), #4, 'distance_accuracy_value', 'NONE');
#4 =( LENGTH_UNIT ( ) NAMED_UNIT ( * ) SI_UNIT ( .MILLI., .METRE. ) );
#5 = CC_DESIGN_PERSON_AND_ORGANIZATION_ASSIGNMENT ( #46, #117, ( #38 ) ) ;
#6 = LOCAL_TIME ( 14, 9, 24.00000000000000000, #221 ) ;
#7 = DIRECTION ( 'NONE',  ( 0.000000000000000000, 0.000000000000000000, 1.000000000000000000 ) ) ;
#8 = DATE_AND_TIME ( #214, #156 ) ;
#9 = PRODUCT_DEFINITION_FORMATION_WITH_SPECIFIED_SOURCE ( 'ANY', '', #213, .NOT_KNOWN. ) ;
#10 = PERSON_AND_ORGANIZATION ( #132, #17 ) ;
#11 = DIRECTION ( 'NONE',  ( 1.000000000000000000, 0.000000000000000000, 0.000000000000000000 ) ) ;
#12 = PERSON_AND_ORGANIZATION ( #132, #17 ) ;
#13 = LOCAL_TIME ( 14, 9, 24.00000000000000000, #268 ) ;
#14 = APPLICATION_PROTOCOL_DEFINITION ( 'international standard', 'config_control_design', 1994, #148 ) ;
#15 = APPROVAL_DATE_TIME ( #131, #184 ) ;
#16 = EDGE_LOOP ( 'NONE', ( #61 ) ) ;
#17 = ORGANIZATION ( 'UNSPECIFIED', 'UNSPECIFIED', '' ) ;
#18 = COORDINATED_UNIVERSAL_TIME_OFFSET ( 0, 0, .AHEAD. ) ;
#19 = DATE_AND_TIME ( #103, #72 ) ;
#20 = APPROVAL_DATE_TIME ( #127, #173 ) ;
#21 = CIRCLE ( 'NONE', #174, 50.00000000000000000 ) ;
#22 = APPROVAL ( #261, 'UNKNOWN' ) ;
#23 = CARTESIAN_POINT ( 'NONE',  ( 0.000000000000000000, 0.000000000000000000, 0.000000000000000000 ) ) ;
#24 = CLOSED_SHELL ( 'NONE', ( #98, #162, #1 ) ) ;
#25 = CC_DESIGN_SECURITY_CLASSIFICATION ( #279, ( #166 ) ) ;
#26 = CARTESIAN_POINT ( 'NONE',  ( 0.000000000000000000, 0.000000000000000000, 0.000000000000000000 ) ) ;
#27 = MANIFOLD_SOLID_BREP ( 'Boss-Extrude1', #24 ) ;
#28 = DIRECTION ( 'NONE',  ( 0.000000000000000000, 0.000000000000000000, 1.000000000000000000 ) ) ;
#29 = APPROVAL_STATUS ( 'not_yet_approved' ) ;
#30 = CALENDAR_DATE ( 2026, 6, 8 ) ;
#31 = LOCAL_TIME ( 14, 9, 24.00000000000000000, #18 ) ;
#32 = APPROVAL_STATUS ( 'not_yet_approved' ) ;
#33 = DATE_TIME_ROLE ( 'creation_date' ) ;
#34 = APPROVAL_ROLE ( '' ) ;
#35 = CC_DESIGN_PERSON_AND_ORGANIZATION_ASSIGNMENT ( #242, #239, ( #213 ) ) ;
#36 = DATE_TIME_ROLE ( 'classification_date' ) ;
#37 = DATE_AND_TIME ( #245, #161 ) ;
#38 = SECURITY_CLASSIFICATION ( '', '', #205 ) ;
#39 = DATE_TIME_ROLE ( 'classification_date' ) ;
#40 = ORIENTED_EDGE ( 'NONE', *, *, #250, .T. ) ;
#41 = SECURITY_CLASSIFICATION_LEVEL ( 'unclassified' ) ;
#42 = DATE_TIME_ROLE ( 'classification_date' ) ;
#43 = CARTESIAN_POINT ( 'NONE',  ( 129.8588026547804475, -29.07840402331203578, -68.52472038008272648 ) ) ;
#44 = CC_DESIGN_APPROVAL ( #184, ( #252 ) ) ;
#45 = FACE_OUTER_BOUND ( 'NONE', #264, .T. ) ;
#46 = PERSON_AND_ORGANIZATION ( #139, #210 ) ;
#47 = CC_DESIGN_PERSON_AND_ORGANIZATION_ASSIGNMENT ( #199, #60, ( #230 ) ) ;
#48 = AXIS2_PLACEMENT_3D ( 'NONE', #43, #271, #69 ) ;
#49 = DIRECTION ( 'NONE',  ( 0.000000000000000000, 0.000000000000000000, 1.000000000000000000 ) ) ;
#50 = PERSON_AND_ORGANIZATION ( #132, #17 ) ;
#51 = PERSON_AND_ORGANIZATION ( #132, #17 ) ;
#52 = APPLICATION_PROTOCOL_DEFINITION ( 'international standard', 'config_control_design', 1994, #234 ) ;
#53 = LOCAL_TIME ( 14, 9, 24.00000000000000000, #225 ) ;
#54 = CC_DESIGN_DATE_AND_TIME_ASSIGNMENT ( #153, #39, ( #257 ) ) ;
#55 = PERSON_AND_ORGANIZATION_ROLE ( 'classification_officer' ) ;
#56 = APPROVAL_ROLE ( '' ) ;
#57 = APPROVAL_PERSON_ORGANIZATION ( #50, #86, #123 ) ;
#58 = COORDINATED_UNIVERSAL_TIME_OFFSET ( 0, 0, .AHEAD. ) ;
#59 = PERSON_AND_ORGANIZATION_ROLE ( 'classification_officer' ) ;
#60 = PERSON_AND_ORGANIZATION_ROLE ( 'creator' ) ;
#61 = ORIENTED_EDGE ( 'NONE', *, *, #269, .T. ) ;
#62 = AXIS2_PLACEMENT_3D ( 'NONE', #251, #275, #71 ) ;
#63 = APPROVAL ( #260, 'UNSPECIFIED' ) ;
#64 =( GEOMETRIC_REPRESENTATION_CONTEXT ( 3 ) GLOBAL_UNCERTAINTY_ASSIGNED_CONTEXT ( ( #283 ) ) GLOBAL_UNIT_ASSIGNED_CONTEXT ( ( #92, #185, #188 ) ) REPRESENTATION_CONTEXT ( 'NONE', 'WORKASPACE' ) );
#65 = SHAPE_DEFINITION_REPRESENTATION ( #137, #195 ) ;
#66 = AXIS2_PLACEMENT_3D ( 'NONE', #23, #28, #114 ) ;
#67 = CC_DESIGN_APPROVAL ( #173, ( #9 ) ) ;
#68 = CARTESIAN_POINT ( 'NONE',  ( 0.000000000000000000, 0.000000000000000000, 0.000000000000000000 ) ) ;
#69 = DIRECTION ( 'NONE',  ( 1.000000000000000000, 0.000000000000000000, 0.000000000000000000 ) ) ;
#70 = CC_DESIGN_DATE_AND_TIME_ASSIGNMENT ( #286, #243, ( #230 ) ) ;
#71 = DIRECTION ( 'NONE',  ( 0.000000000000000000, -0.000000000000000000, 1.000000000000000000 ) ) ;
#72 = LOCAL_TIME ( 14, 9, 24.00000000000000000, #219 ) ;
#73 = APPROVAL_ROLE ( '' ) ;
#74 = CC_DESIGN_PERSON_AND_ORGANIZATION_ASSIGNMENT ( #83, #59, ( #252 ) ) ;
#75 = CARTESIAN_POINT ( 'NONE',  ( 0.000000000000000000, 0.000000000000000000, 0.000000000000000000 ) ) ;
#76 = APPLICATION_PROTOCOL_DEFINITION ( 'international standard', 'config_control_design', 1994, #276 ) ;
#77 = APPROVAL_PERSON_ORGANIZATION ( #46, #22, #164 ) ;
#78 = PERSON_AND_ORGANIZATION ( #132, #17 ) ;
#79 = DATE_AND_TIME ( #194, #200 ) ;
#80 = SHAPE_REPRESENTATION ( 'C4_component_override_1__ap203', ( #93, #82, #48 ), #64 ) ;
#81 = PERSON_AND_ORGANIZATION_ROLE ( 'classification_officer' ) ;
#82 = AXIS2_PLACEMENT_3D ( 'NONE', #112, #7, #95 ) ;
#83 = PERSON_AND_ORGANIZATION ( #258, #169 ) ;
#84 = EDGE_LOOP ( 'NONE', ( #266 ) ) ;
#85 = PERSON_AND_ORGANIZATION ( #132, #17 ) ;
#86 = APPROVAL ( #32, 'UNSPECIFIED' ) ;
#87 = COORDINATED_UNIVERSAL_TIME_OFFSET ( 0, 0, .AHEAD. ) ;
#88 = LOCAL_TIME ( 14, 9, 24.00000000000000000, #240 ) ;
#89 = PRODUCT_RELATED_PRODUCT_CATEGORY ( 'detail', '', ( #273 ) ) ;
#90 =( REPRESENTATION_RELATIONSHIP ('NONE','NONE', #80, #195 ) REPRESENTATION_RELATIONSHIP_WITH_TRANSFORMATION ( #263 )SHAPE_REPRESENTATION_RELATIONSHIP( ) );
#91 = DIRECTION ( 'NONE',  ( 0.000000000000000000, 0.000000000000000000, 1.000000000000000000 ) ) ;
#92 =( LENGTH_UNIT ( ) NAMED_UNIT ( * ) SI_UNIT ( .MILLI., .METRE. ) );
#93 = AXIS2_PLACEMENT_3D ( 'NONE', #75, #216, #11 ) ;
#94 = PRODUCT_DEFINITION_SHAPE ( 'NONE', 'NONE',  #291 ) ;
#95 = DIRECTION ( 'NONE',  ( 1.000000000000000000, 0.000000000000000000, 0.000000000000000000 ) ) ;
#96 = DIRECTION ( 'NONE',  ( 1.000000000000000000, 0.000000000000000000, 0.000000000000000000 ) ) ;
#97 = APPROVAL_DATE_TIME ( #8, #86 ) ;
#98 = ADVANCED_FACE ( 'NONE', ( #140, #232 ), #118, .T. ) ;
#99 = MECHANICAL_CONTEXT ( 'NONE', #234, 'mechanical' ) ;
#100 = CC_DESIGN_APPROVAL ( #86, ( #279 ) ) ;
#101 = APPROVAL_DATE_TIME ( #255, #134 ) ;
#102 = PERSON_AND_ORGANIZATION ( #132, #17 ) ;
#103 = CALENDAR_DATE ( 2026, 6, 8 ) ;
#104 = CC_DESIGN_DATE_AND_TIME_ASSIGNMENT ( #79, #149, ( #279 ) ) ;
#105 = DATE_AND_TIME ( #220, #31 ) ;
#106 = DESIGN_CONTEXT ( 'detailed design', #206, 'design' ) ;
#107 = COORDINATED_UNIVERSAL_TIME_OFFSET ( 0, 0, .AHEAD. ) ;
#108 = DIRECTION ( 'NONE',  ( 0.000000000000000000, 1.000000000000000000, 0.000000000000000000 ) ) ;
#109 = PERSON_AND_ORGANIZATION_ROLE ( 'design_supplier' ) ;
#110 = AXIS2_PLACEMENT_3D ( 'NONE', #68, #2, #91 ) ;
#111 = VERTEX_POINT ( 'NONE', #212 ) ;
#112 = CARTESIAN_POINT ( 'NONE',  ( 0.000000000000000000, 0.000000000000000000, 0.000000000000000000 ) ) ;
#113 = PRODUCT_DEFINITION_SHAPE ( 'NONE', 'NONE',  #158 ) ;
#114 = DIRECTION ( 'NONE',  ( 1.000000000000000000, 0.000000000000000000, 0.000000000000000000 ) ) ;
#115 = CC_DESIGN_APPROVAL ( #134, ( #158 ) ) ;
#116 = CC_DESIGN_PERSON_AND_ORGANIZATION_ASSIGNMENT ( #51, #236, ( #158 ) ) ;
#117 = PERSON_AND_ORGANIZATION_ROLE ( 'classification_officer' ) ;
#118 = CYLINDRICAL_SURFACE ( 'NONE', #217, 50.00000000000000000 ) ;
#119 = APPROVAL_STATUS ( 'not_yet_approved' ) ;
#120 = APPROVAL_PERSON_ORGANIZATION ( #83, #184, #203 ) ;
#121 = APPROVAL_DATE_TIME ( #190, #143 ) ;
#122 = APPLICATION_PROTOCOL_DEFINITION ( 'international standard', 'config_control_design', 1994, #206 ) ;
#123 = APPROVAL_ROLE ( '' ) ;
#124 = APPROVAL_ROLE ( '' ) ;
#125 = CC_DESIGN_APPROVAL ( #180, ( #257 ) ) ;
#126 = CALENDAR_DATE ( 2026, 6, 8 ) ;
#127 = DATE_AND_TIME ( #227, #53 ) ;
#128 = CC_DESIGN_PERSON_AND_ORGANIZATION_ASSIGNMENT ( #135, #81, ( #257 ) ) ;
#129 = APPROVAL_STATUS ( 'not_yet_approved' ) ;
#130 = CC_DESIGN_SECURITY_CLASSIFICATION ( #257, ( #9 ) ) ;
#131 = DATE_AND_TIME ( #265, #248 ) ;
#132 = PERSON ( 'UNSPECIFIED', 'UNSPECIFIED', 'UNSPECIFIED', ('UNSPECIFIED'), ('UNSPECIFIED'), ('UNSPECIFIED') ) ;
#133 = PLANE ( 'NONE',  #191 ) ;
#134 = APPROVAL ( #29, 'UNSPECIFIED' ) ;
#135 = PERSON_AND_ORGANIZATION ( #132, #17 ) ;
#136 = CARTESIAN_POINT ( 'NONE',  ( 0.000000000000000000, 100.0000000000000000, 0.000000000000000000 ) ) ;
#137 = PRODUCT_DEFINITION_SHAPE ( 'NONE', 'NONE',  #230 ) ;
#138 =( NAMED_UNIT ( * ) PLANE_ANGLE_UNIT ( ) SI_UNIT ( $, .RADIAN. ) );
#139 = PERSON ( 'NAUO-PER2', 'UNSPECIFIED', 'UNSPECIFIED', ('UNSPECIFIED'), ('UNSPECIFIED'), ('UNSPECIFIED') ) ;
#140 = FACE_OUTER_BOUND ( 'NONE', #84, .T. ) ;
#141 = CC_DESIGN_APPROVAL ( #63, ( #230 ) ) ;
#142 = CONTEXT_DEPENDENT_SHAPE_REPRESENTATION ( #90, #183 ) ;
#143 = APPROVAL ( #119, 'UNSPECIFIED' ) ;
#144 = DATE_AND_TIME ( #171, #186 ) ;
#145 = COORDINATED_UNIVERSAL_TIME_OFFSET ( 0, 0, .AHEAD. ) ;
#146 = LOCAL_TIME ( 14, 9, 24.00000000000000000, #87 ) ;
#147 = MECHANICAL_CONTEXT ( 'NONE', #276, 'mechanical' ) ;
#148 = APPLICATION_CONTEXT ( 'configuration controlled 3d designs of mechanical parts and assemblies' ) ;
#149 = DATE_TIME_ROLE ( 'classification_date' ) ;
#150 = PRODUCT_RELATED_PRODUCT_CATEGORY ( 'detail', '', ( #213 ) ) ;
#151 = SECURITY_CLASSIFICATION_LEVEL ( 'unclassified' ) ;
#152 = LOCAL_TIME ( 14, 9, 24.00000000000000000, #145 ) ;
#153 = DATE_AND_TIME ( #247, #146 ) ;
#154 = CALENDAR_DATE ( 2026, 6, 8 ) ;
#155 = CALENDAR_DATE ( 2026, 6, 8 ) ;
#156 = LOCAL_TIME ( 14, 9, 24.00000000000000000, #235 ) ;
#157 = FACE_OUTER_BOUND ( 'NONE', #288, .T. ) ;
#158 = PRODUCT_DEFINITION ( 'UNKNOWN', '', #166, #177 ) ;
#159 = ITEM_DEFINED_TRANSFORMATION ( 'NONE', 'NONE', #82,  #66 ) ;
#160 = VERTEX_POINT ( 'NONE', #229 ) ;
#161 = LOCAL_TIME ( 14, 9, 24.00000000000000000, #289 ) ;
#162 = ADVANCED_FACE ( 'NONE', ( #45 ), #249, .T. ) ;
#163 =( NAMED_UNIT ( * ) SI_UNIT ( $, .STERADIAN. ) SOLID_ANGLE_UNIT ( ) );
#164 = APPROVAL_ROLE ( '' ) ;
#165 = DIRECTION ( 'NONE',  ( -0.000000000000000000, -1.000000000000000000, -0.000000000000000000 ) ) ;
#166 = PRODUCT_DEFINITION_FORMATION_WITH_SPECIFIED_SOURCE ( 'ANY', '', #273, .NOT_KNOWN. ) ;
#167 = DIRECTION ( 'NONE',  ( 0.000000000000000000, 0.000000000000000000, 1.000000000000000000 ) ) ;
#168 = COORDINATED_UNIVERSAL_TIME_OFFSET ( 0, 0, .AHEAD. ) ;
#169 = ORGANIZATION ( 'NAUO-ORG1', 'UNSPECIFIED', 'UNSPECIFIED' ) ;
#170 = PERSON_AND_ORGANIZATION ( #132, #17 ) ;
#171 = CALENDAR_DATE ( 2026, 6, 8 ) ;
#172 = APPROVAL_ROLE ( '' ) ;
#173 = APPROVAL ( #197, 'UNSPECIFIED' ) ;
#174 = AXIS2_PLACEMENT_3D ( 'NONE', #136, #209, #49 ) ;
#175 = PERSON_AND_ORGANIZATION ( #132, #17 ) ;
#176 = APPROVAL_PERSON_ORGANIZATION ( #85, #173, #172 ) ;
#177 = DESIGN_CONTEXT ( 'detailed design', #148, 'design' ) ;
#178 = CONTEXT_DEPENDENT_SHAPE_REPRESENTATION ( #201, #94 ) ;
#179 = APPROVAL_DATE_TIME ( #105, #22 ) ;
#180 = APPROVAL ( #287, 'UNSPECIFIED' ) ;
#181 = PERSON_AND_ORGANIZATION ( #132, #17 ) ;
#182 = APPROVAL_PERSON_ORGANIZATION ( #193, #63, #124 ) ;
#183 = PRODUCT_DEFINITION_SHAPE ( 'NONE', 'NONE',  #292 ) ;
#184 = APPROVAL ( #129, 'UNKNOWN' ) ;
#185 =( NAMED_UNIT ( * ) PLANE_ANGLE_UNIT ( ) SI_UNIT ( $, .RADIAN. ) );
#186 = LOCAL_TIME ( 14, 9, 24.00000000000000000, #281 ) ;
#187 = CC_DESIGN_DATE_AND_TIME_ASSIGNMENT ( #144, #33, ( #158 ) ) ;
#188 =( NAMED_UNIT ( * ) SI_UNIT ( $, .STERADIAN. ) SOLID_ANGLE_UNIT ( ) );
#189 = PERSON_AND_ORGANIZATION ( #132, #17 ) ;
#190 = DATE_AND_TIME ( #30, #88 ) ;
#191 = AXIS2_PLACEMENT_3D ( 'NONE', #226, #108, #208 ) ;
#192 = APPROVAL_PERSON_ORGANIZATION ( #181, #180, #34 ) ;
#193 = PERSON_AND_ORGANIZATION ( #132, #17 ) ;
#194 = CALENDAR_DATE ( 2026, 6, 8 ) ;
#195 = SHAPE_REPRESENTATION ( 'C4_part_1', ( #66 ), #267 ) ;
#196 = CC_DESIGN_PERSON_AND_ORGANIZATION_ASSIGNMENT ( #170, #277, ( #273 ) ) ;
#197 = APPROVAL_STATUS ( 'not_yet_approved' ) ;
#198 = CC_DESIGN_SECURITY_CLASSIFICATION ( #38, ( #292 ) ) ;
#199 = PERSON_AND_ORGANIZATION ( #132, #17 ) ;
#200 = LOCAL_TIME ( 14, 9, 24.00000000000000000, #168 ) ;
#201 =( REPRESENTATION_RELATIONSHIP ('NONE','NONE', #80, #195 ) REPRESENTATION_RELATIONSHIP_WITH_TRANSFORMATION ( #159 )SHAPE_REPRESENTATION_RELATIONSHIP( ) );
#202 = APPROVAL_DATE_TIME ( #19, #63 ) ;
#203 = APPROVAL_ROLE ( '' ) ;
#204 = CC_DESIGN_PERSON_AND_ORGANIZATION_ASSIGNMENT ( #78, #55, ( #279 ) ) ;
#205 = SECURITY_CLASSIFICATION_LEVEL ( 'unclassified' ) ;
#206 = APPLICATION_CONTEXT ( 'configuration controlled 3d designs of mechanical parts and assemblies' ) ;
#207 = CC_DESIGN_APPROVAL ( #143, ( #166 ) ) ;
#208 = DIRECTION ( 'NONE',  ( 0.000000000000000000, -0.000000000000000000, 1.000000000000000000 ) ) ;
#209 = DIRECTION ( 'NONE',  ( 0.000000000000000000, 1.000000000000000000, 0.000000000000000000 ) ) ;
#210 = ORGANIZATION ( 'NAUO-ORG2', 'UNSPECIFIED', 'UNSPECIFIED' ) ;
#211 = CARTESIAN_POINT ( 'NONE',  ( 0.000000000000000000, 100.0000000000000000, 0.000000000000000000 ) ) ;
#212 = CARTESIAN_POINT ( 'NONE',  ( 0.000000000000000000, 0.000000000000000000, 50.00000000000000000 ) ) ;
#213 = PRODUCT ( 'C4_part_1', 'C4_part_1', '', ( #99 ) ) ;
#214 = CALENDAR_DATE ( 2026, 6, 8 ) ;
#215 = APPROVAL_PERSON_ORGANIZATION ( #10, #134, #73 ) ;
#216 = DIRECTION ( 'NONE',  ( 0.000000000000000000, 0.000000000000000000, 1.000000000000000000 ) ) ;
#217 = AXIS2_PLACEMENT_3D ( 'NONE', #211, #165, #270 ) ;
#218 = LOCAL_TIME ( 14, 9, 24.00000000000000000, #58 ) ;
#219 = COORDINATED_UNIVERSAL_TIME_OFFSET ( 0, 0, .AHEAD. ) ;
#220 = CALENDAR_DATE ( 2026, 6, 8 ) ;
#221 = COORDINATED_UNIVERSAL_TIME_OFFSET ( 0, 0, .AHEAD. ) ;
#222 = ORIENTED_EDGE ( 'NONE', *, *, #269, .F. ) ;
#223 = AXIS2_PLACEMENT_3D ( 'NONE', #26, #167, #96 ) ;
#224 = DATE_AND_TIME ( #155, #13 ) ;
#225 = COORDINATED_UNIVERSAL_TIME_OFFSET ( 0, 0, .AHEAD. ) ;
#226 = CARTESIAN_POINT ( 'NONE',  ( 0.000000000000000000, 0.000000000000000000, 0.000000000000000000 ) ) ;
#227 = CALENDAR_DATE ( 2026, 6, 8 ) ;
#228 = CC_DESIGN_SECURITY_CLASSIFICATION ( #252, ( #291 ) ) ;
#229 = CARTESIAN_POINT ( 'NONE',  ( 0.000000000000000000, 100.0000000000000000, 50.00000000000000000 ) ) ;
#230 = PRODUCT_DEFINITION ( 'UNKNOWN', '', #9, #106 ) ;
#231 = SHAPE_REPRESENTATION_RELATIONSHIP ( 'NONE' , 'NONE' ,  #195, #272 ) ;
#232 = FACE_OUTER_BOUND ( 'NONE', #16, .T. ) ;
#233 = APPROVAL_PERSON_ORGANIZATION ( #253, #143, #56 ) ;
#234 = APPLICATION_CONTEXT ( 'configuration controlled 3d designs of mechanical parts and assemblies' ) ;
#235 = COORDINATED_UNIVERSAL_TIME_OFFSET ( 0, 0, .AHEAD. ) ;
#236 = PERSON_AND_ORGANIZATION_ROLE ( 'creator' ) ;
#237 = CC_DESIGN_PERSON_AND_ORGANIZATION_ASSIGNMENT ( #102, #109, ( #9 ) ) ;
#238 = CIRCLE ( 'NONE', #110, 50.00000000000000000 ) ;
#239 = PERSON_AND_ORGANIZATION_ROLE ( 'design_owner' ) ;
#240 = COORDINATED_UNIVERSAL_TIME_OFFSET ( 0, 0, .AHEAD. ) ;
#241 = CC_DESIGN_DATE_AND_TIME_ASSIGNMENT ( #37, #42, ( #38 ) ) ;
#242 = PERSON_AND_ORGANIZATION ( #132, #17 ) ;
#243 = DATE_TIME_ROLE ( 'creation_date' ) ;
#244 = APPROVAL_DATE_TIME ( #224, #180 ) ;
#245 = CALENDAR_DATE ( 2026, 6, 8 ) ;
#246 = CC_DESIGN_APPROVAL ( #22, ( #38 ) ) ;
#247 = CALENDAR_DATE ( 2026, 6, 8 ) ;
#248 = LOCAL_TIME ( 14, 9, 24.00000000000000000, #107 ) ;
#249 = PLANE ( 'NONE',  #62 ) ;
#250 = EDGE_CURVE ( 'NONE', #160, #160, #21, .T. ) ;
#251 = CARTESIAN_POINT ( 'NONE',  ( 0.000000000000000000, 100.0000000000000000, 0.000000000000000000 ) ) ;
#252 = SECURITY_CLASSIFICATION ( '', '', #41 ) ;
#253 = PERSON_AND_ORGANIZATION ( #132, #17 ) ;
#254 = CC_DESIGN_PERSON_AND_ORGANIZATION_ASSIGNMENT ( #189, #280, ( #166 ) ) ;
#255 = DATE_AND_TIME ( #278, #152 ) ;
#256 = SHAPE_DEFINITION_REPRESENTATION ( #113, #80 ) ;
#257 = SECURITY_CLASSIFICATION ( '', '', #262 ) ;
#258 = PERSON ( 'NAUO-PER1', 'UNSPECIFIED', 'UNSPECIFIED', ('UNSPECIFIED'), ('UNSPECIFIED'), ('UNSPECIFIED') ) ;
#259 = PERSON_AND_ORGANIZATION_ROLE ( 'creator' ) ;
#260 = APPROVAL_STATUS ( 'not_yet_approved' ) ;
#261 = APPROVAL_STATUS ( 'not_yet_approved' ) ;
#262 = SECURITY_CLASSIFICATION_LEVEL ( 'unclassified' ) ;
#263 = ITEM_DEFINED_TRANSFORMATION ( 'NONE', 'NONE', #48,  #66 ) ;
#264 = EDGE_LOOP ( 'NONE', ( #40 ) ) ;
#265 = CALENDAR_DATE ( 2026, 6, 8 ) ;
#266 = ORIENTED_EDGE ( 'NONE', *, *, #250, .F. ) ;
#267 =( GEOMETRIC_REPRESENTATION_CONTEXT ( 3 ) GLOBAL_UNCERTAINTY_ASSIGNED_CONTEXT ( ( #3 ) ) GLOBAL_UNIT_ASSIGNED_CONTEXT ( ( #4, #138, #163 ) ) REPRESENTATION_CONTEXT ( 'NONE', 'WORKASPACE' ) );
#268 = COORDINATED_UNIVERSAL_TIME_OFFSET ( 0, 0, .AHEAD. ) ;
#269 = EDGE_CURVE ( 'NONE', #111, #111, #238, .T. ) ;
#270 = DIRECTION ( 'NONE',  ( 0.000000000000000000, 0.000000000000000000, -1.000000000000000000 ) ) ;
#271 = DIRECTION ( 'NONE',  ( 0.000000000000000000, 0.000000000000000000, 1.000000000000000000 ) ) ;
#272 = ADVANCED_BREP_SHAPE_REPRESENTATION ( '', ( #27, #66 ), #267 ) ;
#273 = PRODUCT ( 'C4_component_override_1__ap203', 'C4_component_override_1__ap203', '', ( #147 ) ) ;
#274 = CC_DESIGN_PERSON_AND_ORGANIZATION_ASSIGNMENT ( #175, #282, ( #9 ) ) ;
#275 = DIRECTION ( 'NONE',  ( 0.000000000000000000, 1.000000000000000000, 0.000000000000000000 ) ) ;
#276 = APPLICATION_CONTEXT ( 'configuration controlled 3d designs of mechanical parts and assemblies' ) ;
#277 = PERSON_AND_ORGANIZATION_ROLE ( 'design_owner' ) ;
#278 = CALENDAR_DATE ( 2026, 6, 8 ) ;
#279 = SECURITY_CLASSIFICATION ( '', '', #151 ) ;
#280 = PERSON_AND_ORGANIZATION_ROLE ( 'design_supplier' ) ;
#281 = COORDINATED_UNIVERSAL_TIME_OFFSET ( 0, 0, .AHEAD. ) ;
#282 = PERSON_AND_ORGANIZATION_ROLE ( 'creator' ) ;
#283 = UNCERTAINTY_MEASURE_WITH_UNIT (LENGTH_MEASURE( 1.000000000000000082E-05 ), #92, 'distance_accuracy_value', 'NONE');
#284 = CC_DESIGN_DATE_AND_TIME_ASSIGNMENT ( #290, #36, ( #252 ) ) ;
#285 = CC_DESIGN_PERSON_AND_ORGANIZATION_ASSIGNMENT ( #12, #259, ( #166 ) ) ;
#286 = DATE_AND_TIME ( #154, #218 ) ;
#287 = APPROVAL_STATUS ( 'not_yet_approved' ) ;
#288 = EDGE_LOOP ( 'NONE', ( #222 ) ) ;
#289 = COORDINATED_UNIVERSAL_TIME_OFFSET ( 0, 0, .AHEAD. ) ;
#290 = DATE_AND_TIME ( #126, #6 ) ;
#291 = NEXT_ASSEMBLY_USAGE_OCCURRENCE ( 'NAUO1', ' ', ' ', #158, #230, $ ) ;
#292 = NEXT_ASSEMBLY_USAGE_OCCURRENCE ( 'NAUO2', ' ', ' ', #158, #230, $ ) ;
ENDSEC;
END-ISO-10303-21;
