ISO-10303-21;
HEADER;
FILE_DESCRIPTION (( 'STEP AP214' ),
    '1' );
FILE_NAME ('C4_component_override_1__ap214_appear.step',
    '2026-08-06T13:09:24',
    ( '' ),
    ( '' ),
    'SwSTEP 2.0',
    'SolidWorks 2026',
    '' );
FILE_SCHEMA (( 'AUTOMOTIVE_DESIGN' ));
ENDSEC;

DATA;
#1 = APPLICATION_PROTOCOL_DEFINITION ( 'draft international standard', 'automotive_design', 1998, #105 ) ;
#2 = DIRECTION ( 'NONE',  ( 0.000000000000000000, 0.000000000000000000, 1.000000000000000000 ) ) ;
#3 = PRODUCT_DEFINITION_SHAPE ( 'NONE', 'NONE',  #146 ) ;
#4 = ORIENTED_EDGE ( 'NONE', *, *, #86, .T. ) ;
#5 = AXIS2_PLACEMENT_3D ( 'NONE', #121, #114, #9 ) ;
#6 = DIRECTION ( 'NONE',  ( 0.000000000000000000, 1.000000000000000000, 0.000000000000000000 ) ) ;
#7 = FACE_OUTER_BOUND ( 'NONE', #40, .T. ) ;
#8 =( NAMED_UNIT ( * ) PLANE_ANGLE_UNIT ( ) SI_UNIT ( $, .RADIAN. ) );
#9 = DIRECTION ( 'NONE',  ( 0.000000000000000000, -0.000000000000000000, 1.000000000000000000 ) ) ;
#10 = ADVANCED_BREP_SHAPE_REPRESENTATION ( '', ( #12, #57 ), #41 ) ;
#11 =( LENGTH_UNIT ( ) NAMED_UNIT ( * ) SI_UNIT ( .MILLI., .METRE. ) );
#12 = MANIFOLD_SOLID_BREP ( 'Boss-Extrude1', #63 ) ;
#13 = CONTEXT_DEPENDENT_SHAPE_REPRESENTATION ( #131, #49 ) ;
#14 = PRODUCT ( 'C4_component_override_1__ap214_appear', 'C4_component_override_1__ap214_appear', '', ( #50 ) ) ;
#15 = FILL_AREA_STYLE_COLOUR ( '', #84 ) ;
#16 =( NAMED_UNIT ( * ) PLANE_ANGLE_UNIT ( ) SI_UNIT ( $, .RADIAN. ) );
#17 = CARTESIAN_POINT ( 'NONE',  ( 0.000000000000000000, 100.0000000000000000, 0.000000000000000000 ) ) ;
#18 = ORIENTED_EDGE ( 'NONE', *, *, #80, .F. ) ;
#19 = SURFACE_STYLE_FILL_AREA ( #113 ) ;
#20 = PRODUCT_DEFINITION_CONTEXT ( 'detailed design', #109, 'design' ) ;
#21 = DIRECTION ( 'NONE',  ( -0.000000000000000000, -1.000000000000000000, -0.000000000000000000 ) ) ;
#22 = CARTESIAN_POINT ( 'NONE',  ( 0.000000000000000000, 0.000000000000000000, 0.000000000000000000 ) ) ;
#23 = APPLICATION_PROTOCOL_DEFINITION ( 'draft international standard', 'automotive_design', 1998, #45 ) ;
#24 =( NAMED_UNIT ( * ) PLANE_ANGLE_UNIT ( ) SI_UNIT ( $, .RADIAN. ) );
#25 = APPLICATION_PROTOCOL_DEFINITION ( 'draft international standard', 'automotive_design', 1998, #109 ) ;
#26 = AXIS2_PLACEMENT_3D ( 'NONE', #132, #28, #74 ) ;
#27 = FILL_AREA_STYLE ('',( #15 ) ) ;
#28 = DIRECTION ( 'NONE',  ( 0.000000000000000000, 1.000000000000000000, 0.000000000000000000 ) ) ;
#29 = FACE_OUTER_BOUND ( 'NONE', #129, .T. ) ;
#30 = DIRECTION ( 'NONE',  ( 1.000000000000000000, 0.000000000000000000, 0.000000000000000000 ) ) ;
#31 =( GEOMETRIC_REPRESENTATION_CONTEXT ( 3 ) GLOBAL_UNCERTAINTY_ASSIGNED_CONTEXT ( ( #142 ) ) GLOBAL_UNIT_ASSIGNED_CONTEXT ( ( #11, #24, #83 ) ) REPRESENTATION_CONTEXT ( 'NONE', 'WORKASPACE' ) );
#32 = CARTESIAN_POINT ( 'NONE',  ( 0.000000000000000000, 100.0000000000000000, 50.00000000000000000 ) ) ;
#33 = DIRECTION ( 'NONE',  ( 0.000000000000000000, 0.000000000000000000, 1.000000000000000000 ) ) ;
#34 = UNCERTAINTY_MEASURE_WITH_UNIT (LENGTH_MEASURE( 1.000000000000000082E-05 ), #56, 'distance_accuracy_value', 'NONE');
#35 = DIRECTION ( 'NONE',  ( 1.000000000000000000, 0.000000000000000000, 0.000000000000000000 ) ) ;
#36 = ITEM_DEFINED_TRANSFORMATION ( 'NONE', 'NONE', #62,  #57 ) ;
#37 = SHAPE_DEFINITION_REPRESENTATION ( #106, #101 ) ;
#38 = STYLED_ITEM ( 'NONE', ( #70 ), #10 ) ;
#39 = ORIENTED_EDGE ( 'NONE', *, *, #86, .F. ) ;
#40 = EDGE_LOOP ( 'NONE', ( #4 ) ) ;
#41 =( GEOMETRIC_REPRESENTATION_CONTEXT ( 3 ) GLOBAL_UNCERTAINTY_ASSIGNED_CONTEXT ( ( #61 ) ) GLOBAL_UNIT_ASSIGNED_CONTEXT ( ( #91, #8, #78 ) ) REPRESENTATION_CONTEXT ( 'NONE', 'WORKASPACE' ) );
#42 = ADVANCED_FACE ( 'NONE', ( #89 ), #75, .T. ) ;
#43 = DIRECTION ( 'NONE',  ( 0.000000000000000000, 0.000000000000000000, 1.000000000000000000 ) ) ;
#44 = FILL_AREA_STYLE_COLOUR ( '', #116 ) ;
#45 = APPLICATION_CONTEXT ( 'automotive_design' ) ;
#46 = SURFACE_SIDE_STYLE ('',( #19 ) ) ;
#47 = PLANE ( 'NONE',  #5 ) ;
#48 = PRODUCT_DEFINITION ( 'UNKNOWN', '', #77, #20 ) ;
#49 = PRODUCT_DEFINITION_SHAPE ( 'NONE', 'NONE',  #145 ) ;
#50 = PRODUCT_CONTEXT ( 'NONE', #45, 'mechanical' ) ;
#51 = AXIS2_PLACEMENT_3D ( 'NONE', #17, #6, #66 ) ;
#52 = SURFACE_STYLE_FILL_AREA ( #27 ) ;
#53 = PRODUCT_RELATED_PRODUCT_CATEGORY ( 'part', '', ( #71 ) ) ;
#54 = ORIENTED_EDGE ( 'NONE', *, *, #80, .T. ) ;
#55 = CARTESIAN_POINT ( 'NONE',  ( 0.000000000000000000, 0.000000000000000000, 0.000000000000000000 ) ) ;
#56 =( LENGTH_UNIT ( ) NAMED_UNIT ( * ) SI_UNIT ( .MILLI., .METRE. ) );
#57 = AXIS2_PLACEMENT_3D ( 'NONE', #81, #33, #104 ) ;
#58 = PRODUCT_RELATED_PRODUCT_CATEGORY ( 'part', '', ( #14 ) ) ;
#59 = DIRECTION ( 'NONE',  ( 0.000000000000000000, 0.000000000000000000, -1.000000000000000000 ) ) ;
#60 = CARTESIAN_POINT ( 'NONE',  ( 0.000000000000000000, 0.000000000000000000, 50.00000000000000000 ) ) ;
#61 = UNCERTAINTY_MEASURE_WITH_UNIT (LENGTH_MEASURE( 1.000000000000000082E-05 ), #91, 'distance_accuracy_value', 'NONE');
#62 = AXIS2_PLACEMENT_3D ( 'NONE', #93, #92, #35 ) ;
#63 = CLOSED_SHELL ( 'NONE', ( #130, #42, #133 ) ) ;
#64 = AXIS2_PLACEMENT_3D ( 'NONE', #134, #141, #30 ) ;
#65 = PRODUCT_DEFINITION_SHAPE ( 'NONE', 'NONE',  #117 ) ;
#66 = DIRECTION ( 'NONE',  ( 0.000000000000000000, 0.000000000000000000, 1.000000000000000000 ) ) ;
#67 = AXIS2_PLACEMENT_3D ( 'NONE', #55, #140, #90 ) ;
#68 =( NAMED_UNIT ( * ) SI_UNIT ( $, .STERADIAN. ) SOLID_ANGLE_UNIT ( ) );
#69 = FACE_OUTER_BOUND ( 'NONE', #88, .T. ) ;
#70 = PRESENTATION_STYLE_ASSIGNMENT (( #144 ) ) ;
#71 = PRODUCT ( 'C4_part_1', 'C4_part_1', '', ( #82 ) ) ;
#72 = SHAPE_DEFINITION_REPRESENTATION ( #65, #115 ) ;
#73 = PRODUCT_DEFINITION_FORMATION_WITH_SPECIFIED_SOURCE ( 'ANY', '', #14, .NOT_KNOWN. ) ;
#74 = DIRECTION ( 'NONE',  ( 0.000000000000000000, -0.000000000000000000, 1.000000000000000000 ) ) ;
#75 = PLANE ( 'NONE',  #26 ) ;
#76 = DIRECTION ( 'NONE',  ( 1.000000000000000000, 0.000000000000000000, 0.000000000000000000 ) ) ;
#77 = PRODUCT_DEFINITION_FORMATION_WITH_SPECIFIED_SOURCE ( 'ANY', '', #71, .NOT_KNOWN. ) ;
#78 =( NAMED_UNIT ( * ) SI_UNIT ( $, .STERADIAN. ) SOLID_ANGLE_UNIT ( ) );
#79 = STYLED_ITEM ( 'NONE', ( #111 ), #12 ) ;
#80 = EDGE_CURVE ( 'NONE', #123, #123, #138, .T. ) ;
#81 = CARTESIAN_POINT ( 'NONE',  ( 0.000000000000000000, 0.000000000000000000, 0.000000000000000000 ) ) ;
#82 = PRODUCT_CONTEXT ( 'NONE', #94, 'mechanical' ) ;
#83 =( NAMED_UNIT ( * ) SI_UNIT ( $, .STERADIAN. ) SOLID_ANGLE_UNIT ( ) );
#84 = COLOUR_RGB ( '',1.000000000000000000, 0.000000000000000000, 0.000000000000000000 ) ;
#85 = AXIS2_PLACEMENT_3D ( 'NONE', #135, #43, #76 ) ;
#86 = EDGE_CURVE ( 'NONE', #112, #112, #136, .T. ) ;
#87 = PRESENTATION_LAYER_ASSIGNMENT (  '', '', ( #79 ) ) ;
#88 = EDGE_LOOP ( 'NONE', ( #39 ) ) ;
#89 = FACE_OUTER_BOUND ( 'NONE', #100, .T. ) ;
#90 = DIRECTION ( 'NONE',  ( 0.000000000000000000, 0.000000000000000000, 1.000000000000000000 ) ) ;
#91 =( LENGTH_UNIT ( ) NAMED_UNIT ( * ) SI_UNIT ( .MILLI., .METRE. ) );
#92 = DIRECTION ( 'NONE',  ( 0.000000000000000000, 0.000000000000000000, 1.000000000000000000 ) ) ;
#93 = CARTESIAN_POINT ( 'NONE',  ( 129.8588026547804475, -29.07840402331203578, -68.52472038008272648 ) ) ;
#94 = APPLICATION_CONTEXT ( 'automotive_design' ) ;
#95 = PRESENTATION_LAYER_ASSIGNMENT (  '', '', ( #38 ) ) ;
#96 = ITEM_DEFINED_TRANSFORMATION ( 'NONE', 'NONE', #85,  #57 ) ;
#97 = APPLICATION_PROTOCOL_DEFINITION ( 'draft international standard', 'automotive_design', 1998, #94 ) ;
#98 = SURFACE_SIDE_STYLE ('',( #52 ) ) ;
#99 = MECHANICAL_DESIGN_GEOMETRIC_PRESENTATION_REPRESENTATION (  '', ( #79 ), #118 ) ;
#100 = EDGE_LOOP ( 'NONE', ( #54 ) ) ;
#101 = SHAPE_REPRESENTATION ( 'C4_part_1', ( #57 ), #41 ) ;
#102 = SHAPE_REPRESENTATION_RELATIONSHIP ( 'NONE' , 'NONE' ,  #101, #10 ) ;
#103 =( NAMED_UNIT ( * ) PLANE_ANGLE_UNIT ( ) SI_UNIT ( $, .RADIAN. ) );
#104 = DIRECTION ( 'NONE',  ( 1.000000000000000000, 0.000000000000000000, 0.000000000000000000 ) ) ;
#105 = APPLICATION_CONTEXT ( 'automotive_design' ) ;
#106 = PRODUCT_DEFINITION_SHAPE ( 'NONE', 'NONE',  #48 ) ;
#107 =( GEOMETRIC_REPRESENTATION_CONTEXT ( 3 ) GLOBAL_UNCERTAINTY_ASSIGNED_CONTEXT ( ( #34 ) ) GLOBAL_UNIT_ASSIGNED_CONTEXT ( ( #56, #103, #68 ) ) REPRESENTATION_CONTEXT ( 'NONE', 'WORKASPACE' ) );
#108 =( LENGTH_UNIT ( ) NAMED_UNIT ( * ) SI_UNIT ( .MILLI., .METRE. ) );
#109 = APPLICATION_CONTEXT ( 'automotive_design' ) ;
#110 = SURFACE_STYLE_USAGE ( .BOTH. , #98 ) ;
#111 = PRESENTATION_STYLE_ASSIGNMENT (( #110 ) ) ;
#112 = VERTEX_POINT ( 'NONE', #60 ) ;
#113 = FILL_AREA_STYLE ('',( #44 ) ) ;
#114 = DIRECTION ( 'NONE',  ( 0.000000000000000000, 1.000000000000000000, 0.000000000000000000 ) ) ;
#115 = SHAPE_REPRESENTATION ( 'C4_component_override_1__ap214_appear', ( #126, #85, #62 ), #31 ) ;
#116 = COLOUR_RGB ( '',0.9098039215686274384, 0.4431372549019607643, 0.03137254901960784270 ) ;
#117 = PRODUCT_DEFINITION ( 'UNKNOWN', '', #73, #124 ) ;
#118 =( GEOMETRIC_REPRESENTATION_CONTEXT ( 3 ) GLOBAL_UNCERTAINTY_ASSIGNED_CONTEXT ( ( #127 ) ) GLOBAL_UNIT_ASSIGNED_CONTEXT ( ( #108, #16, #120 ) ) REPRESENTATION_CONTEXT ( 'NONE', 'WORKASPACE' ) );
#119 = CONTEXT_DEPENDENT_SHAPE_REPRESENTATION ( #139, #3 ) ;
#120 =( NAMED_UNIT ( * ) SI_UNIT ( $, .STERADIAN. ) SOLID_ANGLE_UNIT ( ) );
#121 = CARTESIAN_POINT ( 'NONE',  ( 0.000000000000000000, 0.000000000000000000, 0.000000000000000000 ) ) ;
#122 = CYLINDRICAL_SURFACE ( 'NONE', #128, 50.00000000000000000 ) ;
#123 = VERTEX_POINT ( 'NONE', #32 ) ;
#124 = PRODUCT_DEFINITION_CONTEXT ( 'detailed design', #105, 'design' ) ;
#125 = CARTESIAN_POINT ( 'NONE',  ( 0.000000000000000000, 100.0000000000000000, 0.000000000000000000 ) ) ;
#126 = AXIS2_PLACEMENT_3D ( 'NONE', #22, #2, #137 ) ;
#127 = UNCERTAINTY_MEASURE_WITH_UNIT (LENGTH_MEASURE( 1.000000000000000082E-05 ), #108, 'distance_accuracy_value', 'NONE');
#128 = AXIS2_PLACEMENT_3D ( 'NONE', #125, #21, #59 ) ;
#129 = EDGE_LOOP ( 'NONE', ( #18 ) ) ;
#130 = ADVANCED_FACE ( 'NONE', ( #29, #7 ), #122, .T. ) ;
#131 =( REPRESENTATION_RELATIONSHIP ('NONE','NONE', #115, #101 ) REPRESENTATION_RELATIONSHIP_WITH_TRANSFORMATION ( #96 )SHAPE_REPRESENTATION_RELATIONSHIP( ) );
#132 = CARTESIAN_POINT ( 'NONE',  ( 0.000000000000000000, 100.0000000000000000, 0.000000000000000000 ) ) ;
#133 = ADVANCED_FACE ( 'NONE', ( #69 ), #47, .F. ) ;
#134 = CARTESIAN_POINT ( 'NONE',  ( 0.000000000000000000, 0.000000000000000000, 0.000000000000000000 ) ) ;
#135 = CARTESIAN_POINT ( 'NONE',  ( 0.000000000000000000, 0.000000000000000000, 0.000000000000000000 ) ) ;
#136 = CIRCLE ( 'NONE', #67, 50.00000000000000000 ) ;
#137 = DIRECTION ( 'NONE',  ( 1.000000000000000000, 0.000000000000000000, 0.000000000000000000 ) ) ;
#138 = CIRCLE ( 'NONE', #51, 50.00000000000000000 ) ;
#139 =( REPRESENTATION_RELATIONSHIP ('NONE','NONE', #115, #101 ) REPRESENTATION_RELATIONSHIP_WITH_TRANSFORMATION ( #36 )SHAPE_REPRESENTATION_RELATIONSHIP( ) );
#140 = DIRECTION ( 'NONE',  ( 0.000000000000000000, 1.000000000000000000, 0.000000000000000000 ) ) ;
#141 = DIRECTION ( 'NONE',  ( 0.000000000000000000, 0.000000000000000000, 1.000000000000000000 ) ) ;
#142 = UNCERTAINTY_MEASURE_WITH_UNIT (LENGTH_MEASURE( 1.000000000000000082E-05 ), #11, 'distance_accuracy_value', 'NONE');
#143 = MECHANICAL_DESIGN_GEOMETRIC_PRESENTATION_REPRESENTATION (  '', ( #38 ), #107 ) ;
#144 = SURFACE_STYLE_USAGE ( .BOTH. , #46 ) ;
#145 = NEXT_ASSEMBLY_USAGE_OCCURRENCE ( 'NAUO1', ' ', ' ', #117, #48, $ ) ;
#146 = NEXT_ASSEMBLY_USAGE_OCCURRENCE ( 'NAUO2', ' ', ' ', #117, #48, $ ) ;
ENDSEC;
END-ISO-10303-21;
