ISO-10303-21;
HEADER;
FILE_DESCRIPTION (( 'STEP AP214' ),
    '1' );
FILE_NAME ('C4_component_override_2__ap214_appear.step',
    '2026-08-06T13:09:25',
    ( '' ),
    ( '' ),
    'SwSTEP 2.0',
    'SolidWorks 2026',
    '' );
FILE_SCHEMA (( 'AUTOMOTIVE_DESIGN' ));
ENDSEC;

DATA;
#1 = DIRECTION ( 'NONE',  ( 1.000000000000000000, 0.000000000000000000, 0.000000000000000000 ) ) ;
#2 = AXIS2_PLACEMENT_3D ( 'NONE', #70, #95, #55 ) ;
#3 = PRODUCT_RELATED_PRODUCT_CATEGORY ( 'part', '', ( #87 ) ) ;
#4 = DIRECTION ( 'NONE',  ( 0.000000000000000000, 0.000000000000000000, 1.000000000000000000 ) ) ;
#5 =( GEOMETRIC_REPRESENTATION_CONTEXT ( 3 ) GLOBAL_UNCERTAINTY_ASSIGNED_CONTEXT ( ( #137 ) ) GLOBAL_UNIT_ASSIGNED_CONTEXT ( ( #28, #79, #122 ) ) REPRESENTATION_CONTEXT ( 'NONE', 'WORKASPACE' ) );
#6 = EDGE_LOOP ( 'NONE', ( #80 ) ) ;
#7 = ORIENTED_EDGE ( 'NONE', *, *, #66, .F. ) ;
#8 = SURFACE_STYLE_FILL_AREA ( #136 ) ;
#9 = ADVANCED_FACE ( 'NONE', ( #102 ), #121, .F. ) ;
#10 = CARTESIAN_POINT ( 'NONE',  ( 0.000000000000000000, 0.000000000000000000, 0.000000000000000000 ) ) ;
#11 = AXIS2_PLACEMENT_3D ( 'NONE', #52, #27, #124 ) ;
#12 = CARTESIAN_POINT ( 'NONE',  ( 0.000000000000000000, 0.000000000000000000, 0.000000000000000000 ) ) ;
#13 = APPLICATION_CONTEXT ( 'automotive_design' ) ;
#14 = APPLICATION_PROTOCOL_DEFINITION ( 'draft international standard', 'automotive_design', 1998, #120 ) ;
#15 = PRODUCT_DEFINITION_SHAPE ( 'NONE', 'NONE',  #57 ) ;
#16 = CARTESIAN_POINT ( 'NONE',  ( 0.000000000000000000, 100.0000000000000000, 0.000000000000000000 ) ) ;
#17 = VERTEX_POINT ( 'NONE', #63 ) ;
#18 = DIRECTION ( 'NONE',  ( 0.000000000000000000, 1.000000000000000000, 0.000000000000000000 ) ) ;
#19 = FACE_OUTER_BOUND ( 'NONE', #109, .T. ) ;
#20 = MECHANICAL_DESIGN_GEOMETRIC_PRESENTATION_REPRESENTATION (  '', ( #88 ), #5 ) ;
#21 = DIRECTION ( 'NONE',  ( 0.000000000000000000, 0.000000000000000000, 1.000000000000000000 ) ) ;
#22 = APPLICATION_PROTOCOL_DEFINITION ( 'draft international standard', 'automotive_design', 1998, #13 ) ;
#23 = AXIS2_PLACEMENT_3D ( 'NONE', #50, #62, #30 ) ;
#24 = SHAPE_DEFINITION_REPRESENTATION ( #99, #86 ) ;
#25 = VERTEX_POINT ( 'NONE', #40 ) ;
#26 = CIRCLE ( 'NONE', #51, 50.00000000000000000 ) ;
#27 = DIRECTION ( 'NONE',  ( 0.000000000000000000, 1.000000000000000000, 0.000000000000000000 ) ) ;
#28 =( LENGTH_UNIT ( ) NAMED_UNIT ( * ) SI_UNIT ( .MILLI., .METRE. ) );
#29 = PRODUCT_DEFINITION_CONTEXT ( 'detailed design', #108, 'design' ) ;
#30 = DIRECTION ( 'NONE',  ( 0.000000000000000000, 0.000000000000000000, -1.000000000000000000 ) ) ;
#31 =( NAMED_UNIT ( * ) SI_UNIT ( $, .STERADIAN. ) SOLID_ANGLE_UNIT ( ) );
#32 = AXIS2_PLACEMENT_3D ( 'NONE', #127, #84, #1 ) ;
#33 = PRESENTATION_STYLE_ASSIGNMENT (( #35 ) ) ;
#34 = UNCERTAINTY_MEASURE_WITH_UNIT (LENGTH_MEASURE( 1.000000000000000082E-05 ), #142, 'distance_accuracy_value', 'NONE');
#35 = SURFACE_STYLE_USAGE ( .BOTH. , #139 ) ;
#36 = PRODUCT_CONTEXT ( 'NONE', #116, 'mechanical' ) ;
#37 = PRODUCT_DEFINITION_SHAPE ( 'NONE', 'NONE',  #146 ) ;
#38 = AXIS2_PLACEMENT_3D ( 'NONE', #12, #82, #56 ) ;
#39 = DIRECTION ( 'NONE',  ( 0.000000000000000000, 1.000000000000000000, 0.000000000000000000 ) ) ;
#40 = CARTESIAN_POINT ( 'NONE',  ( 0.000000000000000000, 100.0000000000000000, 50.00000000000000000 ) ) ;
#41 = PRESENTATION_LAYER_ASSIGNMENT (  '', '', ( #88 ) ) ;
#42 = CARTESIAN_POINT ( 'NONE',  ( 0.000000000000000000, 0.000000000000000000, 0.000000000000000000 ) ) ;
#43 = DIRECTION ( 'NONE',  ( 1.000000000000000000, 0.000000000000000000, 0.000000000000000000 ) ) ;
#44 = PRODUCT_DEFINITION_CONTEXT ( 'detailed design', #13, 'design' ) ;
#45 =( NAMED_UNIT ( * ) PLANE_ANGLE_UNIT ( ) SI_UNIT ( $, .RADIAN. ) );
#46 =( NAMED_UNIT ( * ) PLANE_ANGLE_UNIT ( ) SI_UNIT ( $, .RADIAN. ) );
#47 = AXIS2_PLACEMENT_3D ( 'NONE', #16, #18, #54 ) ;
#48 = ADVANCED_FACE ( 'NONE', ( #19 ), #90, .T. ) ;
#49 = AXIS2_PLACEMENT_3D ( 'NONE', #42, #21, #43 ) ;
#50 = CARTESIAN_POINT ( 'NONE',  ( 0.000000000000000000, 100.0000000000000000, 0.000000000000000000 ) ) ;
#51 = AXIS2_PLACEMENT_3D ( 'NONE', #10, #39, #93 ) ;
#52 = CARTESIAN_POINT ( 'NONE',  ( 0.000000000000000000, 0.000000000000000000, 0.000000000000000000 ) ) ;
#53 = DIRECTION ( 'NONE',  ( 0.000000000000000000, 0.000000000000000000, 1.000000000000000000 ) ) ;
#54 = DIRECTION ( 'NONE',  ( 0.000000000000000000, -0.000000000000000000, 1.000000000000000000 ) ) ;
#55 = DIRECTION ( 'NONE',  ( 1.000000000000000000, 0.000000000000000000, 0.000000000000000000 ) ) ;
#56 = DIRECTION ( 'NONE',  ( 1.000000000000000000, 0.000000000000000000, 0.000000000000000000 ) ) ;
#57 = PRODUCT_DEFINITION ( 'UNKNOWN', '', #103, #44 ) ;
#58 = PRODUCT_CONTEXT ( 'NONE', #120, 'mechanical' ) ;
#59 = FILL_AREA_STYLE ('',( #140 ) ) ;
#60 = COLOUR_RGB ( '',0.9098039215686274384, 0.4431372549019607643, 0.03137254901960784270 ) ;
#61 =( GEOMETRIC_REPRESENTATION_CONTEXT ( 3 ) GLOBAL_UNCERTAINTY_ASSIGNED_CONTEXT ( ( #115 ) ) GLOBAL_UNIT_ASSIGNED_CONTEXT ( ( #83, #45, #31 ) ) REPRESENTATION_CONTEXT ( 'NONE', 'WORKASPACE' ) );
#62 = DIRECTION ( 'NONE',  ( -0.000000000000000000, -1.000000000000000000, -0.000000000000000000 ) ) ;
#63 = CARTESIAN_POINT ( 'NONE',  ( 0.000000000000000000, 0.000000000000000000, 50.00000000000000000 ) ) ;
#64 = ORIENTED_EDGE ( 'NONE', *, *, #66, .T. ) ;
#65 =( NAMED_UNIT ( * ) PLANE_ANGLE_UNIT ( ) SI_UNIT ( $, .RADIAN. ) );
#66 = EDGE_CURVE ( 'NONE', #25, #25, #117, .T. ) ;
#67 = SURFACE_STYLE_USAGE ( .BOTH. , #135 ) ;
#68 = COLOUR_RGB ( '',1.000000000000000000, 0.000000000000000000, 0.000000000000000000 ) ;
#69 =( NAMED_UNIT ( * ) SI_UNIT ( $, .STERADIAN. ) SOLID_ANGLE_UNIT ( ) );
#70 = CARTESIAN_POINT ( 'NONE',  ( 0.000000000000000000, 0.000000000000000000, 0.000000000000000000 ) ) ;
#71 = STYLED_ITEM ( 'NONE', ( #33 ), #96 ) ;
#72 = SHAPE_REPRESENTATION_RELATIONSHIP ( 'NONE' , 'NONE' ,  #86, #96 ) ;
#73 = ITEM_DEFINED_TRANSFORMATION ( 'NONE', 'NONE', #128,  #49 ) ;
#74 = SHAPE_REPRESENTATION ( 'C4_component_override_2__ap214_appear', ( #38, #128, #32 ), #61 ) ;
#75 = PRODUCT_DEFINITION ( 'UNKNOWN', '', #112, #29 ) ;
#76 = CONTEXT_DEPENDENT_SHAPE_REPRESENTATION ( #85, #37 ) ;
#77 = ORIENTED_EDGE ( 'NONE', *, *, #100, .T. ) ;
#78 =( REPRESENTATION_RELATIONSHIP ('NONE','NONE', #74, #86 ) REPRESENTATION_RELATIONSHIP_WITH_TRANSFORMATION ( #73 )SHAPE_REPRESENTATION_RELATIONSHIP( ) );
#79 =( NAMED_UNIT ( * ) PLANE_ANGLE_UNIT ( ) SI_UNIT ( $, .RADIAN. ) );
#80 = ORIENTED_EDGE ( 'NONE', *, *, #100, .F. ) ;
#81 =( NAMED_UNIT ( * ) SI_UNIT ( $, .STERADIAN. ) SOLID_ANGLE_UNIT ( ) );
#82 = DIRECTION ( 'NONE',  ( 0.000000000000000000, 0.000000000000000000, 1.000000000000000000 ) ) ;
#83 =( LENGTH_UNIT ( ) NAMED_UNIT ( * ) SI_UNIT ( .MILLI., .METRE. ) );
#84 = DIRECTION ( 'NONE',  ( 0.000000000000000000, 0.000000000000000000, 1.000000000000000000 ) ) ;
#85 =( REPRESENTATION_RELATIONSHIP ('NONE','NONE', #74, #86 ) REPRESENTATION_RELATIONSHIP_WITH_TRANSFORMATION ( #131 )SHAPE_REPRESENTATION_RELATIONSHIP( ) );
#86 = SHAPE_REPRESENTATION ( 'C4_part_1', ( #49 ), #111 ) ;
#87 = PRODUCT ( 'C4_part_1', 'C4_part_1', '', ( #58 ) ) ;
#88 = STYLED_ITEM ( 'NONE', ( #138 ), #125 ) ;
#89 = CARTESIAN_POINT ( 'NONE',  ( 0.000000000000000000, 100.0000000000000000, 0.000000000000000000 ) ) ;
#90 = PLANE ( 'NONE',  #47 ) ;
#91 =( LENGTH_UNIT ( ) NAMED_UNIT ( * ) SI_UNIT ( .MILLI., .METRE. ) );
#92 = CLOSED_SHELL ( 'NONE', ( #106, #48, #9 ) ) ;
#93 = DIRECTION ( 'NONE',  ( 0.000000000000000000, 0.000000000000000000, 1.000000000000000000 ) ) ;
#94 = SURFACE_STYLE_FILL_AREA ( #59 ) ;
#95 = DIRECTION ( 'NONE',  ( 0.000000000000000000, 0.000000000000000000, 1.000000000000000000 ) ) ;
#96 = ADVANCED_BREP_SHAPE_REPRESENTATION ( '', ( #125, #49 ), #111 ) ;
#97 = EDGE_LOOP ( 'NONE', ( #77 ) ) ;
#98 =( GEOMETRIC_REPRESENTATION_CONTEXT ( 3 ) GLOBAL_UNCERTAINTY_ASSIGNED_CONTEXT ( ( #34 ) ) GLOBAL_UNIT_ASSIGNED_CONTEXT ( ( #142, #46, #69 ) ) REPRESENTATION_CONTEXT ( 'NONE', 'WORKASPACE' ) );
#99 = PRODUCT_DEFINITION_SHAPE ( 'NONE', 'NONE',  #75 ) ;
#100 = EDGE_CURVE ( 'NONE', #17, #17, #26, .T. ) ;
#101 = CYLINDRICAL_SURFACE ( 'NONE', #23, 50.00000000000000000 ) ;
#102 = FACE_OUTER_BOUND ( 'NONE', #6, .T. ) ;
#103 = PRODUCT_DEFINITION_FORMATION_WITH_SPECIFIED_SOURCE ( 'ANY', '', #110, .NOT_KNOWN. ) ;
#104 = FILL_AREA_STYLE_COLOUR ( '', #68 ) ;
#105 = CARTESIAN_POINT ( 'NONE',  ( 0.000000000000000000, 0.000000000000000000, 0.000000000000000000 ) ) ;
#106 = ADVANCED_FACE ( 'NONE', ( #113, #144 ), #101, .T. ) ;
#107 = AXIS2_PLACEMENT_3D ( 'NONE', #89, #133, #53 ) ;
#108 = APPLICATION_CONTEXT ( 'automotive_design' ) ;
#109 = EDGE_LOOP ( 'NONE', ( #64 ) ) ;
#110 = PRODUCT ( 'C4_component_override_2__ap214_appear', 'C4_component_override_2__ap214_appear', '', ( #36 ) ) ;
#111 =( GEOMETRIC_REPRESENTATION_CONTEXT ( 3 ) GLOBAL_UNCERTAINTY_ASSIGNED_CONTEXT ( ( #134 ) ) GLOBAL_UNIT_ASSIGNED_CONTEXT ( ( #91, #65, #81 ) ) REPRESENTATION_CONTEXT ( 'NONE', 'WORKASPACE' ) );
#112 = PRODUCT_DEFINITION_FORMATION_WITH_SPECIFIED_SOURCE ( 'ANY', '', #87, .NOT_KNOWN. ) ;
#113 = FACE_OUTER_BOUND ( 'NONE', #119, .T. ) ;
#114 = SHAPE_DEFINITION_REPRESENTATION ( #15, #74 ) ;
#115 = UNCERTAINTY_MEASURE_WITH_UNIT (LENGTH_MEASURE( 1.000000000000000082E-05 ), #83, 'distance_accuracy_value', 'NONE');
#116 = APPLICATION_CONTEXT ( 'automotive_design' ) ;
#117 = CIRCLE ( 'NONE', #107, 50.00000000000000000 ) ;
#118 = CONTEXT_DEPENDENT_SHAPE_REPRESENTATION ( #78, #143 ) ;
#119 = EDGE_LOOP ( 'NONE', ( #7 ) ) ;
#120 = APPLICATION_CONTEXT ( 'automotive_design' ) ;
#121 = PLANE ( 'NONE',  #11 ) ;
#122 =( NAMED_UNIT ( * ) SI_UNIT ( $, .STERADIAN. ) SOLID_ANGLE_UNIT ( ) );
#123 = MECHANICAL_DESIGN_GEOMETRIC_PRESENTATION_REPRESENTATION (  '', ( #71 ), #98 ) ;
#124 = DIRECTION ( 'NONE',  ( 0.000000000000000000, -0.000000000000000000, 1.000000000000000000 ) ) ;
#125 = MANIFOLD_SOLID_BREP ( 'Boss-Extrude1', #92 ) ;
#126 = DIRECTION ( 'NONE',  ( 1.000000000000000000, 0.000000000000000000, 0.000000000000000000 ) ) ;
#127 = CARTESIAN_POINT ( 'NONE',  ( 129.8588026547804475, -29.07840402331203578, -68.52472038008272648 ) ) ;
#128 = AXIS2_PLACEMENT_3D ( 'NONE', #105, #4, #126 ) ;
#129 = PRODUCT_RELATED_PRODUCT_CATEGORY ( 'part', '', ( #110 ) ) ;
#130 = APPLICATION_PROTOCOL_DEFINITION ( 'draft international standard', 'automotive_design', 1998, #108 ) ;
#131 = ITEM_DEFINED_TRANSFORMATION ( 'NONE', 'NONE', #32,  #49 ) ;
#132 = PRESENTATION_LAYER_ASSIGNMENT (  '', '', ( #71 ) ) ;
#133 = DIRECTION ( 'NONE',  ( 0.000000000000000000, 1.000000000000000000, 0.000000000000000000 ) ) ;
#134 = UNCERTAINTY_MEASURE_WITH_UNIT (LENGTH_MEASURE( 1.000000000000000082E-05 ), #91, 'distance_accuracy_value', 'NONE');
#135 = SURFACE_SIDE_STYLE ('',( #8 ) ) ;
#136 = FILL_AREA_STYLE ('',( #104 ) ) ;
#137 = UNCERTAINTY_MEASURE_WITH_UNIT (LENGTH_MEASURE( 1.000000000000000082E-05 ), #28, 'distance_accuracy_value', 'NONE');
#138 = PRESENTATION_STYLE_ASSIGNMENT (( #67 ) ) ;
#139 = SURFACE_SIDE_STYLE ('',( #94 ) ) ;
#140 = FILL_AREA_STYLE_COLOUR ( '', #60 ) ;
#141 = APPLICATION_PROTOCOL_DEFINITION ( 'draft international standard', 'automotive_design', 1998, #116 ) ;
#142 =( LENGTH_UNIT ( ) NAMED_UNIT ( * ) SI_UNIT ( .MILLI., .METRE. ) );
#143 = PRODUCT_DEFINITION_SHAPE ( 'NONE', 'NONE',  #145 ) ;
#144 = FACE_OUTER_BOUND ( 'NONE', #97, .T. ) ;
#145 = NEXT_ASSEMBLY_USAGE_OCCURRENCE ( 'NAUO1', ' ', ' ', #57, #75, $ ) ;
#146 = NEXT_ASSEMBLY_USAGE_OCCURRENCE ( 'NAUO2', ' ', ' ', #57, #75, $ ) ;
ENDSEC;
END-ISO-10303-21;
