ISO-10303-21;
HEADER;
FILE_DESCRIPTION (( 'STEP AP214' ),
    '1' );
FILE_NAME ('C4_part_1__ap214_noappear.step',
    '2026-08-06T13:09:26',
    ( '' ),
    ( '' ),
    'SwSTEP 2.0',
    'SolidWorks 2026',
    '' );
FILE_SCHEMA (( 'AUTOMOTIVE_DESIGN' ));
ENDSEC;

DATA;
#1 = CYLINDRICAL_SURFACE ( 'NONE', #20, 50.00000000000000000 ) ;
#2 = CARTESIAN_POINT ( 'NONE',  ( 0.000000000000000000, 0.000000000000000000, 50.00000000000000000 ) ) ;
#3 = FACE_OUTER_BOUND ( 'NONE', #74, .T. ) ;
#4 = VERTEX_POINT ( 'NONE', #2 ) ;
#5 = ADVANCED_BREP_SHAPE_REPRESENTATION ( 'C4_part_1__ap214_noappear', ( #42, #65 ), #85 ) ;
#6 = PRODUCT_DEFINITION_FORMATION_WITH_SPECIFIED_SOURCE ( 'ANY', '', #37, .NOT_KNOWN. ) ;
#7 = ADVANCED_FACE ( 'NONE', ( #17, #56 ), #1, .T. ) ;
#8 = DIRECTION ( 'NONE',  ( 0.000000000000000000, -0.000000000000000000, 1.000000000000000000 ) ) ;
#9 = CLOSED_SHELL ( 'NONE', ( #7, #29, #28 ) ) ;
#10 = CIRCLE ( 'NONE', #24, 50.00000000000000000 ) ;
#11 = DIRECTION ( 'NONE',  ( 0.000000000000000000, 1.000000000000000000, 0.000000000000000000 ) ) ;
#12 = PRODUCT_RELATED_PRODUCT_CATEGORY ( 'part', '', ( #37 ) ) ;
#13 = DIRECTION ( 'NONE',  ( -0.000000000000000000, -1.000000000000000000, -0.000000000000000000 ) ) ;
#14 = DIRECTION ( 'NONE',  ( 0.000000000000000000, 1.000000000000000000, 0.000000000000000000 ) ) ;
#15 = CARTESIAN_POINT ( 'NONE',  ( 0.000000000000000000, 100.0000000000000000, 0.000000000000000000 ) ) ;
#16 = EDGE_CURVE ( 'NONE', #57, #57, #26, .T. ) ;
#17 = FACE_OUTER_BOUND ( 'NONE', #73, .T. ) ;
#18 = DIRECTION ( 'NONE',  ( 0.000000000000000000, 0.000000000000000000, 1.000000000000000000 ) ) ;
#19 =( GEOMETRIC_REPRESENTATION_CONTEXT ( 3 ) GLOBAL_UNCERTAINTY_ASSIGNED_CONTEXT ( ( #71 ) ) GLOBAL_UNIT_ASSIGNED_CONTEXT ( ( #83, #75, #27 ) ) REPRESENTATION_CONTEXT ( 'NONE', 'WORKASPACE' ) );
#20 = AXIS2_PLACEMENT_3D ( 'NONE', #15, #13, #49 ) ;
#21 = CARTESIAN_POINT ( 'NONE',  ( 0.000000000000000000, 100.0000000000000000, 0.000000000000000000 ) ) ;
#22 = DIRECTION ( 'NONE',  ( 0.000000000000000000, -0.000000000000000000, 1.000000000000000000 ) ) ;
#23 = SURFACE_SIDE_STYLE ('',( #72 ) ) ;
#24 = AXIS2_PLACEMENT_3D ( 'NONE', #60, #14, #18 ) ;
#25 = PLANE ( 'NONE',  #53 ) ;
#26 = CIRCLE ( 'NONE', #76, 50.00000000000000000 ) ;
#27 =( NAMED_UNIT ( * ) SI_UNIT ( $, .STERADIAN. ) SOLID_ANGLE_UNIT ( ) );
#28 = ADVANCED_FACE ( 'NONE', ( #3 ), #25, .F. ) ;
#29 = ADVANCED_FACE ( 'NONE', ( #44 ), #70, .T. ) ;
#30 = FILL_AREA_STYLE ('',( #31 ) ) ;
#31 = FILL_AREA_STYLE_COLOUR ( '', #48 ) ;
#32 = EDGE_LOOP ( 'NONE', ( #79 ) ) ;
#33 = DIRECTION ( 'NONE',  ( 0.000000000000000000, 0.000000000000000000, 1.000000000000000000 ) ) ;
#34 = DIRECTION ( 'NONE',  ( 1.000000000000000000, 0.000000000000000000, 0.000000000000000000 ) ) ;
#35 = CARTESIAN_POINT ( 'NONE',  ( 0.000000000000000000, 100.0000000000000000, 50.00000000000000000 ) ) ;
#36 = PRODUCT_DEFINITION_SHAPE ( 'NONE', 'NONE',  #84 ) ;
#37 = PRODUCT ( 'C4_part_1__ap214_noappear', 'C4_part_1__ap214_noappear', '', ( #51 ) ) ;
#38 = ORIENTED_EDGE ( 'NONE', *, *, #43, .F. ) ;
#39 = SHAPE_DEFINITION_REPRESENTATION ( #36, #5 ) ;
#40 = ORIENTED_EDGE ( 'NONE', *, *, #16, .F. ) ;
#41 = APPLICATION_PROTOCOL_DEFINITION ( 'draft international standard', 'automotive_design', 1998, #67 ) ;
#42 = MANIFOLD_SOLID_BREP ( 'Boss-Extrude1', #9 ) ;
#43 = EDGE_CURVE ( 'NONE', #4, #4, #10, .T. ) ;
#44 = FACE_OUTER_BOUND ( 'NONE', #46, .T. ) ;
#45 = STYLED_ITEM ( 'NONE', ( #69 ), #42 ) ;
#46 = EDGE_LOOP ( 'NONE', ( #80 ) ) ;
#47 = DIRECTION ( 'NONE',  ( 0.000000000000000000, 1.000000000000000000, 0.000000000000000000 ) ) ;
#48 = COLOUR_RGB ( '',0.7921568627450980005, 0.8196078431372548767, 0.9333333333333333481 ) ;
#49 = DIRECTION ( 'NONE',  ( 0.000000000000000000, 0.000000000000000000, -1.000000000000000000 ) ) ;
#50 = CARTESIAN_POINT ( 'NONE',  ( 0.000000000000000000, 0.000000000000000000, 0.000000000000000000 ) ) ;
#51 = PRODUCT_CONTEXT ( 'NONE', #67, 'mechanical' ) ;
#52 = APPLICATION_CONTEXT ( 'automotive_design' ) ;
#53 = AXIS2_PLACEMENT_3D ( 'NONE', #50, #78, #22 ) ;
#54 = MECHANICAL_DESIGN_GEOMETRIC_PRESENTATION_REPRESENTATION (  '', ( #45 ), #19 ) ;
#55 = UNCERTAINTY_MEASURE_WITH_UNIT (LENGTH_MEASURE( 1.000000000000000082E-05 ), #63, 'distance_accuracy_value', 'NONE');
#56 = FACE_OUTER_BOUND ( 'NONE', #32, .T. ) ;
#57 = VERTEX_POINT ( 'NONE', #35 ) ;
#58 =( NAMED_UNIT ( * ) SI_UNIT ( $, .STERADIAN. ) SOLID_ANGLE_UNIT ( ) );
#59 = PRESENTATION_LAYER_ASSIGNMENT (  '', '', ( #45 ) ) ;
#60 = CARTESIAN_POINT ( 'NONE',  ( 0.000000000000000000, 0.000000000000000000, 0.000000000000000000 ) ) ;
#61 = CARTESIAN_POINT ( 'NONE',  ( 0.000000000000000000, 100.0000000000000000, 0.000000000000000000 ) ) ;
#62 = DIRECTION ( 'NONE',  ( 0.000000000000000000, 0.000000000000000000, 1.000000000000000000 ) ) ;
#63 =( LENGTH_UNIT ( ) NAMED_UNIT ( * ) SI_UNIT ( .MILLI., .METRE. ) );
#64 = AXIS2_PLACEMENT_3D ( 'NONE', #61, #11, #8 ) ;
#65 = AXIS2_PLACEMENT_3D ( 'NONE', #82, #33, #34 ) ;
#66 =( NAMED_UNIT ( * ) PLANE_ANGLE_UNIT ( ) SI_UNIT ( $, .RADIAN. ) );
#67 = APPLICATION_CONTEXT ( 'automotive_design' ) ;
#68 = PRODUCT_DEFINITION_CONTEXT ( 'detailed design', #52, 'design' ) ;
#69 = PRESENTATION_STYLE_ASSIGNMENT (( #77 ) ) ;
#70 = PLANE ( 'NONE',  #64 ) ;
#71 = UNCERTAINTY_MEASURE_WITH_UNIT (LENGTH_MEASURE( 1.000000000000000082E-05 ), #83, 'distance_accuracy_value', 'NONE');
#72 = SURFACE_STYLE_FILL_AREA ( #30 ) ;
#73 = EDGE_LOOP ( 'NONE', ( #40 ) ) ;
#74 = EDGE_LOOP ( 'NONE', ( #38 ) ) ;
#75 =( NAMED_UNIT ( * ) PLANE_ANGLE_UNIT ( ) SI_UNIT ( $, .RADIAN. ) );
#76 = AXIS2_PLACEMENT_3D ( 'NONE', #21, #47, #62 ) ;
#77 = SURFACE_STYLE_USAGE ( .BOTH. , #23 ) ;
#78 = DIRECTION ( 'NONE',  ( 0.000000000000000000, 1.000000000000000000, 0.000000000000000000 ) ) ;
#79 = ORIENTED_EDGE ( 'NONE', *, *, #43, .T. ) ;
#80 = ORIENTED_EDGE ( 'NONE', *, *, #16, .T. ) ;
#81 = APPLICATION_PROTOCOL_DEFINITION ( 'draft international standard', 'automotive_design', 1998, #52 ) ;
#82 = CARTESIAN_POINT ( 'NONE',  ( 0.000000000000000000, 0.000000000000000000, 0.000000000000000000 ) ) ;
#83 =( LENGTH_UNIT ( ) NAMED_UNIT ( * ) SI_UNIT ( .MILLI., .METRE. ) );
#84 = PRODUCT_DEFINITION ( 'UNKNOWN', '', #6, #68 ) ;
#85 =( GEOMETRIC_REPRESENTATION_CONTEXT ( 3 ) GLOBAL_UNCERTAINTY_ASSIGNED_CONTEXT ( ( #55 ) ) GLOBAL_UNIT_ASSIGNED_CONTEXT ( ( #63, #66, #58 ) ) REPRESENTATION_CONTEXT ( 'NONE', 'WORKASPACE' ) );
ENDSEC;
END-ISO-10303-21;
