ISO-10303-21;
HEADER;
FILE_DESCRIPTION (( 'STEP AP214' ),
    '1' );
FILE_NAME ('C4_part_1__ap214_cfg.step',
    '2026-08-06T13:09:27',
    ( '' ),
    ( '' ),
    'SwSTEP 2.0',
    'SolidWorks 2026',
    '' );
FILE_SCHEMA (( 'AUTOMOTIVE_DESIGN' ));
ENDSEC;

DATA;
#1 = ORIENTED_EDGE ( 'NONE', *, *, #26, .T. ) ;
#2 = CARTESIAN_POINT ( 'NONE',  ( 0.000000000000000000, 100.0000000000000000, 0.000000000000000000 ) ) ;
#3 =( NAMED_UNIT ( * ) SI_UNIT ( $, .STERADIAN. ) SOLID_ANGLE_UNIT ( ) );
#4 = VERTEX_POINT ( 'NONE', #43 ) ;
#5 = CARTESIAN_POINT ( 'NONE',  ( 0.000000000000000000, 100.0000000000000000, 0.000000000000000000 ) ) ;
#6 = CIRCLE ( 'NONE', #9, 50.00000000000000000 ) ;
#7 = PRODUCT_DEFINITION ( 'UNKNOWN', '', #19, #53 ) ;
#8 = UNCERTAINTY_MEASURE_WITH_UNIT (LENGTH_MEASURE( 1.000000000000000082E-05 ), #63, 'distance_accuracy_value', 'NONE');
#9 = AXIS2_PLACEMENT_3D ( 'NONE', #35, #47, #57 ) ;
#10 = PRESENTATION_LAYER_ASSIGNMENT (  '', '', ( #64 ) ) ;
#11 = ORIENTED_EDGE ( 'NONE', *, *, #18, .T. ) ;
#12 = CARTESIAN_POINT ( 'NONE',  ( 0.000000000000000000, 0.000000000000000000, 0.000000000000000000 ) ) ;
#13 = APPLICATION_PROTOCOL_DEFINITION ( 'draft international standard', 'automotive_design', 1998, #23 ) ;
#14 = CYLINDRICAL_SURFACE ( 'NONE', #77, 50.00000000000000000 ) ;
#15 = DIRECTION ( 'NONE',  ( 0.000000000000000000, 1.000000000000000000, 0.000000000000000000 ) ) ;
#16 = DIRECTION ( 'NONE',  ( 0.000000000000000000, 0.000000000000000000, 1.000000000000000000 ) ) ;
#17 =( GEOMETRIC_REPRESENTATION_CONTEXT ( 3 ) GLOBAL_UNCERTAINTY_ASSIGNED_CONTEXT ( ( #8 ) ) GLOBAL_UNIT_ASSIGNED_CONTEXT ( ( #63, #76, #28 ) ) REPRESENTATION_CONTEXT ( 'NONE', 'WORKASPACE' ) );
#18 = EDGE_CURVE ( 'NONE', #4, #4, #39, .T. ) ;
#19 = PRODUCT_DEFINITION_FORMATION_WITH_SPECIFIED_SOURCE ( 'ANY', '', #44, .NOT_KNOWN. ) ;
#20 = COLOUR_RGB ( '',1.000000000000000000, 0.000000000000000000, 0.000000000000000000 ) ;
#21 = ORIENTED_EDGE ( 'NONE', *, *, #26, .F. ) ;
#22 = FACE_OUTER_BOUND ( 'NONE', #73, .T. ) ;
#23 = APPLICATION_CONTEXT ( 'automotive_design' ) ;
#24 = EDGE_LOOP ( 'NONE', ( #1 ) ) ;
#25 = DIRECTION ( 'NONE',  ( 0.000000000000000000, -0.000000000000000000, 1.000000000000000000 ) ) ;
#26 = EDGE_CURVE ( 'NONE', #72, #72, #6, .T. ) ;
#27 = EDGE_LOOP ( 'NONE', ( #11 ) ) ;
#28 =( NAMED_UNIT ( * ) SI_UNIT ( $, .STERADIAN. ) SOLID_ANGLE_UNIT ( ) );
#29 = SHAPE_DEFINITION_REPRESENTATION ( #84, #37 ) ;
#30 = AXIS2_PLACEMENT_3D ( 'NONE', #12, #33, #62 ) ;
#31 = PRESENTATION_STYLE_ASSIGNMENT (( #40 ) ) ;
#32 = SURFACE_STYLE_FILL_AREA ( #67 ) ;
#33 = DIRECTION ( 'NONE',  ( 0.000000000000000000, 1.000000000000000000, 0.000000000000000000 ) ) ;
#34 = MECHANICAL_DESIGN_GEOMETRIC_PRESENTATION_REPRESENTATION (  '', ( #64 ), #52 ) ;
#35 = CARTESIAN_POINT ( 'NONE',  ( 0.000000000000000000, 100.0000000000000000, 0.000000000000000000 ) ) ;
#36 = EDGE_LOOP ( 'NONE', ( #80 ) ) ;
#37 = ADVANCED_BREP_SHAPE_REPRESENTATION ( 'C4_part_1__ap214_cfg', ( #70, #51 ), #17 ) ;
#38 = FACE_OUTER_BOUND ( 'NONE', #24, .T. ) ;
#39 = CIRCLE ( 'NONE', #30, 50.00000000000000000 ) ;
#40 = SURFACE_STYLE_USAGE ( .BOTH. , #59 ) ;
#41 = CLOSED_SHELL ( 'NONE', ( #55, #66, #85 ) ) ;
#42 = FACE_OUTER_BOUND ( 'NONE', #36, .T. ) ;
#43 = CARTESIAN_POINT ( 'NONE',  ( 0.000000000000000000, 0.000000000000000000, 50.00000000000000000 ) ) ;
#44 = PRODUCT ( 'C4_part_1__ap214_cfg', 'C4_part_1__ap214_cfg', '', ( #48 ) ) ;
#45 = PRODUCT_RELATED_PRODUCT_CATEGORY ( 'part', '', ( #44 ) ) ;
#46 = AXIS2_PLACEMENT_3D ( 'NONE', #5, #68, #54 ) ;
#47 = DIRECTION ( 'NONE',  ( 0.000000000000000000, 1.000000000000000000, 0.000000000000000000 ) ) ;
#48 = PRODUCT_CONTEXT ( 'NONE', #23, 'mechanical' ) ;
#49 = DIRECTION ( 'NONE',  ( -0.000000000000000000, -1.000000000000000000, -0.000000000000000000 ) ) ;
#50 = APPLICATION_PROTOCOL_DEFINITION ( 'draft international standard', 'automotive_design', 1998, #75 ) ;
#51 = AXIS2_PLACEMENT_3D ( 'NONE', #74, #16, #65 ) ;
#52 =( GEOMETRIC_REPRESENTATION_CONTEXT ( 3 ) GLOBAL_UNCERTAINTY_ASSIGNED_CONTEXT ( ( #60 ) ) GLOBAL_UNIT_ASSIGNED_CONTEXT ( ( #69, #82, #3 ) ) REPRESENTATION_CONTEXT ( 'NONE', 'WORKASPACE' ) );
#53 = PRODUCT_DEFINITION_CONTEXT ( 'detailed design', #75, 'design' ) ;
#54 = DIRECTION ( 'NONE',  ( 0.000000000000000000, -0.000000000000000000, 1.000000000000000000 ) ) ;
#55 = ADVANCED_FACE ( 'NONE', ( #22, #71 ), #14, .T. ) ;
#56 = CARTESIAN_POINT ( 'NONE',  ( 0.000000000000000000, 0.000000000000000000, 0.000000000000000000 ) ) ;
#57 = DIRECTION ( 'NONE',  ( 0.000000000000000000, 0.000000000000000000, 1.000000000000000000 ) ) ;
#58 = AXIS2_PLACEMENT_3D ( 'NONE', #56, #15, #25 ) ;
#59 = SURFACE_SIDE_STYLE ('',( #32 ) ) ;
#60 = UNCERTAINTY_MEASURE_WITH_UNIT (LENGTH_MEASURE( 1.000000000000000082E-05 ), #69, 'distance_accuracy_value', 'NONE');
#61 = PLANE ( 'NONE',  #46 ) ;
#62 = DIRECTION ( 'NONE',  ( 0.000000000000000000, 0.000000000000000000, 1.000000000000000000 ) ) ;
#63 =( LENGTH_UNIT ( ) NAMED_UNIT ( * ) SI_UNIT ( .MILLI., .METRE. ) );
#64 = STYLED_ITEM ( 'NONE', ( #31 ), #70 ) ;
#65 = DIRECTION ( 'NONE',  ( 1.000000000000000000, 0.000000000000000000, 0.000000000000000000 ) ) ;
#66 = ADVANCED_FACE ( 'NONE', ( #38 ), #61, .T. ) ;
#67 = FILL_AREA_STYLE ('',( #79 ) ) ;
#68 = DIRECTION ( 'NONE',  ( 0.000000000000000000, 1.000000000000000000, 0.000000000000000000 ) ) ;
#69 =( LENGTH_UNIT ( ) NAMED_UNIT ( * ) SI_UNIT ( .MILLI., .METRE. ) );
#70 = MANIFOLD_SOLID_BREP ( 'Boss-Extrude1', #41 ) ;
#71 = FACE_OUTER_BOUND ( 'NONE', #27, .T. ) ;
#72 = VERTEX_POINT ( 'NONE', #83 ) ;
#73 = EDGE_LOOP ( 'NONE', ( #21 ) ) ;
#74 = CARTESIAN_POINT ( 'NONE',  ( 0.000000000000000000, 0.000000000000000000, 0.000000000000000000 ) ) ;
#75 = APPLICATION_CONTEXT ( 'automotive_design' ) ;
#76 =( NAMED_UNIT ( * ) PLANE_ANGLE_UNIT ( ) SI_UNIT ( $, .RADIAN. ) );
#77 = AXIS2_PLACEMENT_3D ( 'NONE', #2, #49, #81 ) ;
#78 = PLANE ( 'NONE',  #58 ) ;
#79 = FILL_AREA_STYLE_COLOUR ( '', #20 ) ;
#80 = ORIENTED_EDGE ( 'NONE', *, *, #18, .F. ) ;
#81 = DIRECTION ( 'NONE',  ( 0.000000000000000000, 0.000000000000000000, -1.000000000000000000 ) ) ;
#82 =( NAMED_UNIT ( * ) PLANE_ANGLE_UNIT ( ) SI_UNIT ( $, .RADIAN. ) );
#83 = CARTESIAN_POINT ( 'NONE',  ( 0.000000000000000000, 100.0000000000000000, 50.00000000000000000 ) ) ;
#84 = PRODUCT_DEFINITION_SHAPE ( 'NONE', 'NONE',  #7 ) ;
#85 = ADVANCED_FACE ( 'NONE', ( #42 ), #78, .F. ) ;
ENDSEC;
END-ISO-10303-21;
