ISO-10303-21;
HEADER;
FILE_DESCRIPTION (( 'STEP AP203' ),
    '1' );
FILE_NAME ('C4_part_1__ap203.step',
    '2026-08-06T13:09:26',
    ( '' ),
    ( '' ),
    'SwSTEP 2.0',
    'SolidWorks 2026',
    '' );
FILE_SCHEMA (( 'CONFIG_CONTROL_DESIGN' ));
ENDSEC;

DATA;
#1 = ORIENTED_EDGE ( 'NONE', *, *, #130, .F. ) ;
#2 = DATE_TIME_ROLE ( 'classification_date' ) ;
#3 = COORDINATED_UNIVERSAL_TIME_OFFSET ( 0, 0, .AHEAD. ) ;
#4 = DIRECTION ( 'NONE',  ( 0.000000000000000000, 1.000000000000000000, 0.000000000000000000 ) ) ;
#5 = PERSON_AND_ORGANIZATION ( #38, #20 ) ;
#6 = PERSON_AND_ORGANIZATION_ROLE ( 'creator' ) ;
#7 = CALENDAR_DATE ( 2026, 6, 8 ) ;
#8 = ADVANCED_FACE ( 'NONE', ( #36 ), #37, .T. ) ;
#9 = DIRECTION ( 'NONE',  ( 0.000000000000000000, 1.000000000000000000, 0.000000000000000000 ) ) ;
#10 = CLOSED_SHELL ( 'NONE', ( #64, #8, #59 ) ) ;
#11 = FACE_OUTER_BOUND ( 'NONE', #12, .T. ) ;
#12 = EDGE_LOOP ( 'NONE', ( #65 ) ) ;
#13 = CALENDAR_DATE ( 2026, 6, 8 ) ;
#14 = DATE_AND_TIME ( #13, #34 ) ;
#15 = AXIS2_PLACEMENT_3D ( 'NONE', #87, #35, #25 ) ;
#16 =( GEOMETRIC_REPRESENTATION_CONTEXT ( 3 ) GLOBAL_UNCERTAINTY_ASSIGNED_CONTEXT ( ( #127 ) ) GLOBAL_UNIT_ASSIGNED_CONTEXT ( ( #119, #131, #91 ) ) REPRESENTATION_CONTEXT ( 'NONE', 'WORKASPACE' ) );
#17 = DIRECTION ( 'NONE',  ( 0.000000000000000000, 0.000000000000000000, 1.000000000000000000 ) ) ;
#18 = PERSON_AND_ORGANIZATION ( #38, #20 ) ;
#19 = DATE_AND_TIME ( #113, #40 ) ;
#20 = ORGANIZATION ( 'UNSPECIFIED', 'UNSPECIFIED', '' ) ;
#21 = PRODUCT_RELATED_PRODUCT_CATEGORY ( 'detail', '', ( #114 ) ) ;
#22 = COORDINATED_UNIVERSAL_TIME_OFFSET ( 0, 0, .AHEAD. ) ;
#23 = EDGE_LOOP ( 'NONE', ( #79 ) ) ;
#24 = APPLICATION_PROTOCOL_DEFINITION ( 'international standard', 'config_control_design', 1994, #62 ) ;
#25 = DIRECTION ( 'NONE',  ( 0.000000000000000000, -0.000000000000000000, 1.000000000000000000 ) ) ;
#26 = APPROVAL_STATUS ( 'not_yet_approved' ) ;
#27 = APPROVAL_PERSON_ORGANIZATION ( #123, #30, #66 ) ;
#28 = CARTESIAN_POINT ( 'NONE',  ( 0.000000000000000000, 0.000000000000000000, 0.000000000000000000 ) ) ;
#29 = APPROVAL_ROLE ( '' ) ;
#30 = APPROVAL ( #88, 'UNSPECIFIED' ) ;
#31 = SECURITY_CLASSIFICATION ( '', '', #90 ) ;
#32 = CIRCLE ( 'NONE', #78, 50.00000000000000000 ) ;
#33 = APPROVAL_PERSON_ORGANIZATION ( #54, #63, #42 ) ;
#34 = LOCAL_TIME ( 14, 9, 26.00000000000000000, #48 ) ;
#35 = DIRECTION ( 'NONE',  ( 0.000000000000000000, 1.000000000000000000, 0.000000000000000000 ) ) ;
#36 = FACE_OUTER_BOUND ( 'NONE', #96, .T. ) ;
#37 = PLANE ( 'NONE',  #15 ) ;
#38 = PERSON ( 'UNSPECIFIED', 'UNSPECIFIED', 'UNSPECIFIED', ('UNSPECIFIED'), ('UNSPECIFIED'), ('UNSPECIFIED') ) ;
#39 = VERTEX_POINT ( 'NONE', #52 ) ;
#40 = LOCAL_TIME ( 14, 9, 26.00000000000000000, #22 ) ;
#41 = ORIENTED_EDGE ( 'NONE', *, *, #51, .T. ) ;
#42 = APPROVAL_ROLE ( '' ) ;
#43 = DATE_AND_TIME ( #99, #76 ) ;
#44 = DATE_AND_TIME ( #58, #85 ) ;
#45 = PRODUCT_DEFINITION_SHAPE ( 'NONE', 'NONE',  #49 ) ;
#46 = SHAPE_DEFINITION_REPRESENTATION ( #45, #115 ) ;
#47 = CIRCLE ( 'NONE', #103, 50.00000000000000000 ) ;
#48 = COORDINATED_UNIVERSAL_TIME_OFFSET ( 0, 0, .AHEAD. ) ;
#49 = PRODUCT_DEFINITION ( 'UNKNOWN', '', #110, #74 ) ;
#50 = CARTESIAN_POINT ( 'NONE',  ( 0.000000000000000000, 100.0000000000000000, 0.000000000000000000 ) ) ;
#51 = EDGE_CURVE ( 'NONE', #39, #39, #47, .T. ) ;
#52 = CARTESIAN_POINT ( 'NONE',  ( 0.000000000000000000, 100.0000000000000000, 50.00000000000000000 ) ) ;
#53 = CC_DESIGN_APPROVAL ( #30, ( #110 ) ) ;
#54 = PERSON_AND_ORGANIZATION ( #38, #20 ) ;
#55 = COORDINATED_UNIVERSAL_TIME_OFFSET ( 0, 0, .AHEAD. ) ;
#56 = CC_DESIGN_DATE_AND_TIME_ASSIGNMENT ( #19, #97, ( #49 ) ) ;
#57 = CARTESIAN_POINT ( 'NONE',  ( 0.000000000000000000, 0.000000000000000000, 0.000000000000000000 ) ) ;
#58 = CALENDAR_DATE ( 2026, 6, 8 ) ;
#59 = ADVANCED_FACE ( 'NONE', ( #100 ), #81, .F. ) ;
#60 = PERSON_AND_ORGANIZATION ( #38, #20 ) ;
#61 = CC_DESIGN_APPROVAL ( #73, ( #49 ) ) ;
#62 = APPLICATION_CONTEXT ( 'configuration controlled 3d designs of mechanical parts and assemblies' ) ;
#63 = APPROVAL ( #26, 'UNSPECIFIED' ) ;
#64 = ADVANCED_FACE ( 'NONE', ( #11, #116 ), #105, .T. ) ;
#65 = ORIENTED_EDGE ( 'NONE', *, *, #51, .F. ) ;
#66 = APPROVAL_ROLE ( '' ) ;
#67 = COORDINATED_UNIVERSAL_TIME_OFFSET ( 0, 0, .AHEAD. ) ;
#68 = APPROVAL_DATE_TIME ( #43, #63 ) ;
#69 = PERSON_AND_ORGANIZATION ( #38, #20 ) ;
#70 = PERSON_AND_ORGANIZATION ( #38, #20 ) ;
#71 = CC_DESIGN_SECURITY_CLASSIFICATION ( #31, ( #110 ) ) ;
#72 = MANIFOLD_SOLID_BREP ( 'Boss-Extrude1', #10 ) ;
#73 = APPROVAL ( #80, 'UNSPECIFIED' ) ;
#74 = DESIGN_CONTEXT ( 'detailed design', #62, 'design' ) ;
#75 = DIRECTION ( 'NONE',  ( -0.000000000000000000, -1.000000000000000000, -0.000000000000000000 ) ) ;
#76 = LOCAL_TIME ( 14, 9, 26.00000000000000000, #55 ) ;
#77 = CC_DESIGN_PERSON_AND_ORGANIZATION_ASSIGNMENT ( #60, #132, ( #31 ) ) ;
#78 = AXIS2_PLACEMENT_3D ( 'NONE', #118, #9, #135 ) ;
#79 = ORIENTED_EDGE ( 'NONE', *, *, #130, .T. ) ;
#80 = APPROVAL_STATUS ( 'not_yet_approved' ) ;
#81 = PLANE ( 'NONE',  #126 ) ;
#82 = DIRECTION ( 'NONE',  ( 0.000000000000000000, 0.000000000000000000, 1.000000000000000000 ) ) ;
#83 = AXIS2_PLACEMENT_3D ( 'NONE', #57, #82, #111 ) ;
#84 = CC_DESIGN_PERSON_AND_ORGANIZATION_ASSIGNMENT ( #70, #6, ( #110 ) ) ;
#85 = LOCAL_TIME ( 14, 9, 26.00000000000000000, #67 ) ;
#86 = APPLICATION_CONTEXT ( 'configuration controlled 3d designs of mechanical parts and assemblies' ) ;
#87 = CARTESIAN_POINT ( 'NONE',  ( 0.000000000000000000, 100.0000000000000000, 0.000000000000000000 ) ) ;
#88 = APPROVAL_STATUS ( 'not_yet_approved' ) ;
#89 = CARTESIAN_POINT ( 'NONE',  ( 0.000000000000000000, 100.0000000000000000, 0.000000000000000000 ) ) ;
#90 = SECURITY_CLASSIFICATION_LEVEL ( 'unclassified' ) ;
#91 =( NAMED_UNIT ( * ) SI_UNIT ( $, .STERADIAN. ) SOLID_ANGLE_UNIT ( ) );
#92 = AXIS2_PLACEMENT_3D ( 'NONE', #50, #75, #106 ) ;
#93 = LOCAL_TIME ( 14, 9, 26.00000000000000000, #3 ) ;
#94 = VERTEX_POINT ( 'NONE', #128 ) ;
#95 = CC_DESIGN_PERSON_AND_ORGANIZATION_ASSIGNMENT ( #18, #125, ( #110 ) ) ;
#96 = EDGE_LOOP ( 'NONE', ( #41 ) ) ;
#97 = DATE_TIME_ROLE ( 'creation_date' ) ;
#98 = APPROVAL_PERSON_ORGANIZATION ( #101, #73, #29 ) ;
#99 = CALENDAR_DATE ( 2026, 6, 8 ) ;
#100 = FACE_OUTER_BOUND ( 'NONE', #121, .T. ) ;
#101 = PERSON_AND_ORGANIZATION ( #38, #20 ) ;
#102 = APPROVAL_DATE_TIME ( #44, #73 ) ;
#103 = AXIS2_PLACEMENT_3D ( 'NONE', #89, #107, #17 ) ;
#104 = CC_DESIGN_APPROVAL ( #63, ( #31 ) ) ;
#105 = CYLINDRICAL_SURFACE ( 'NONE', #92, 50.00000000000000000 ) ;
#106 = DIRECTION ( 'NONE',  ( 0.000000000000000000, 0.000000000000000000, -1.000000000000000000 ) ) ;
#107 = DIRECTION ( 'NONE',  ( 0.000000000000000000, 1.000000000000000000, 0.000000000000000000 ) ) ;
#108 = APPROVAL_DATE_TIME ( #112, #30 ) ;
#109 = CC_DESIGN_DATE_AND_TIME_ASSIGNMENT ( #14, #2, ( #31 ) ) ;
#110 = PRODUCT_DEFINITION_FORMATION_WITH_SPECIFIED_SOURCE ( 'ANY', '', #114, .NOT_KNOWN. ) ;
#111 = DIRECTION ( 'NONE',  ( 1.000000000000000000, 0.000000000000000000, 0.000000000000000000 ) ) ;
#112 = DATE_AND_TIME ( #7, #93 ) ;
#113 = CALENDAR_DATE ( 2026, 6, 8 ) ;
#114 = PRODUCT ( 'C4_part_1__ap203', 'C4_part_1__ap203', '', ( #129 ) ) ;
#115 = ADVANCED_BREP_SHAPE_REPRESENTATION ( 'C4_part_1__ap203', ( #72, #83 ), #16 ) ;
#116 = FACE_OUTER_BOUND ( 'NONE', #23, .T. ) ;
#117 = CC_DESIGN_PERSON_AND_ORGANIZATION_ASSIGNMENT ( #69, #133, ( #49 ) ) ;
#118 = CARTESIAN_POINT ( 'NONE',  ( 0.000000000000000000, 0.000000000000000000, 0.000000000000000000 ) ) ;
#119 =( LENGTH_UNIT ( ) NAMED_UNIT ( * ) SI_UNIT ( .MILLI., .METRE. ) );
#120 = DIRECTION ( 'NONE',  ( 0.000000000000000000, -0.000000000000000000, 1.000000000000000000 ) ) ;
#121 = EDGE_LOOP ( 'NONE', ( #1 ) ) ;
#122 = PERSON_AND_ORGANIZATION_ROLE ( 'design_owner' ) ;
#123 = PERSON_AND_ORGANIZATION ( #38, #20 ) ;
#124 = APPLICATION_PROTOCOL_DEFINITION ( 'international standard', 'config_control_design', 1994, #86 ) ;
#125 = PERSON_AND_ORGANIZATION_ROLE ( 'design_supplier' ) ;
#126 = AXIS2_PLACEMENT_3D ( 'NONE', #28, #4, #120 ) ;
#127 = UNCERTAINTY_MEASURE_WITH_UNIT (LENGTH_MEASURE( 1.000000000000000082E-05 ), #119, 'distance_accuracy_value', 'NONE');
#128 = CARTESIAN_POINT ( 'NONE',  ( 0.000000000000000000, 0.000000000000000000, 50.00000000000000000 ) ) ;
#129 = MECHANICAL_CONTEXT ( 'NONE', #86, 'mechanical' ) ;
#130 = EDGE_CURVE ( 'NONE', #94, #94, #32, .T. ) ;
#131 =( NAMED_UNIT ( * ) PLANE_ANGLE_UNIT ( ) SI_UNIT ( $, .RADIAN. ) );
#132 = PERSON_AND_ORGANIZATION_ROLE ( 'classification_officer' ) ;
#133 = PERSON_AND_ORGANIZATION_ROLE ( 'creator' ) ;
#134 = CC_DESIGN_PERSON_AND_ORGANIZATION_ASSIGNMENT ( #5, #122, ( #114 ) ) ;
#135 = DIRECTION ( 'NONE',  ( 0.000000000000000000, 0.000000000000000000, 1.000000000000000000 ) ) ;
ENDSEC;
END-ISO-10303-21;
