ISO-10303-21;
HEADER;
FILE_DESCRIPTION (( 'STEP AP214' ),
    '1' );
FILE_NAME ('C4_part_1__ap214_appear.step',
    '2026-08-06T13:09:26',
    ( '' ),
    ( '' ),
    'SwSTEP 2.0',
    'SolidWorks 2026',
    '' );
FILE_SCHEMA (( 'AUTOMOTIVE_DESIGN' ));
ENDSEC;

DATA;
#1 = UNCERTAINTY_MEASURE_WITH_UNIT (LENGTH_MEASURE( 1.000000000000000082E-05 ), #29, 'distance_accuracy_value', 'NONE');
#2 = SURFACE_STYLE_FILL_AREA ( #23 ) ;
#3 = CARTESIAN_POINT ( 'NONE',  ( 0.000000000000000000, 0.000000000000000000, 0.000000000000000000 ) ) ;
#4 =( NAMED_UNIT ( * ) SI_UNIT ( $, .STERADIAN. ) SOLID_ANGLE_UNIT ( ) );
#5 = EDGE_CURVE ( 'NONE', #80, #80, #44, .T. ) ;
#6 = VERTEX_POINT ( 'NONE', #54 ) ;
#7 = UNCERTAINTY_MEASURE_WITH_UNIT (LENGTH_MEASURE( 1.000000000000000082E-05 ), #47, 'distance_accuracy_value', 'NONE');
#8 = AXIS2_PLACEMENT_3D ( 'NONE', #48, #12, #32 ) ;
#9 = DIRECTION ( 'NONE',  ( 0.000000000000000000, 1.000000000000000000, 0.000000000000000000 ) ) ;
#10 = PLANE ( 'NONE',  #58 ) ;
#11 = CARTESIAN_POINT ( 'NONE',  ( 0.000000000000000000, 100.0000000000000000, 0.000000000000000000 ) ) ;
#12 = DIRECTION ( 'NONE',  ( 0.000000000000000000, 0.000000000000000000, 1.000000000000000000 ) ) ;
#13 = PRODUCT_DEFINITION_CONTEXT ( 'detailed design', #42, 'design' ) ;
#14 = CARTESIAN_POINT ( 'NONE',  ( 0.000000000000000000, 0.000000000000000000, 0.000000000000000000 ) ) ;
#15 = PRODUCT_CONTEXT ( 'NONE', #84, 'mechanical' ) ;
#16 =( GEOMETRIC_REPRESENTATION_CONTEXT ( 3 ) GLOBAL_UNCERTAINTY_ASSIGNED_CONTEXT ( ( #1 ) ) GLOBAL_UNIT_ASSIGNED_CONTEXT ( ( #29, #74, #66 ) ) REPRESENTATION_CONTEXT ( 'NONE', 'WORKASPACE' ) );
#17 = PRODUCT ( 'C4_part_1__ap214_appear', 'C4_part_1__ap214_appear', '', ( #15 ) ) ;
#18 = STYLED_ITEM ( 'NONE', ( #75 ), #41 ) ;
#19 = EDGE_LOOP ( 'NONE', ( #69 ) ) ;
#20 = AXIS2_PLACEMENT_3D ( 'NONE', #11, #55, #38 ) ;
#21 = FACE_OUTER_BOUND ( 'NONE', #60, .T. ) ;
#22 = EDGE_LOOP ( 'NONE', ( #45 ) ) ;
#23 = FILL_AREA_STYLE ('',( #59 ) ) ;
#24 = DIRECTION ( 'NONE',  ( 0.000000000000000000, 0.000000000000000000, 1.000000000000000000 ) ) ;
#25 = SURFACE_SIDE_STYLE ('',( #2 ) ) ;
#26 = DIRECTION ( 'NONE',  ( 0.000000000000000000, 0.000000000000000000, 1.000000000000000000 ) ) ;
#27 = CARTESIAN_POINT ( 'NONE',  ( 0.000000000000000000, 100.0000000000000000, 0.000000000000000000 ) ) ;
#28 = CLOSED_SHELL ( 'NONE', ( #63, #53, #85 ) ) ;
#29 =( LENGTH_UNIT ( ) NAMED_UNIT ( * ) SI_UNIT ( .MILLI., .METRE. ) );
#30 = DIRECTION ( 'NONE',  ( 0.000000000000000000, -0.000000000000000000, 1.000000000000000000 ) ) ;
#31 = EDGE_LOOP ( 'NONE', ( #77 ) ) ;
#32 = DIRECTION ( 'NONE',  ( 1.000000000000000000, 0.000000000000000000, 0.000000000000000000 ) ) ;
#33 = ORIENTED_EDGE ( 'NONE', *, *, #5, .F. ) ;
#34 = AXIS2_PLACEMENT_3D ( 'NONE', #3, #70, #81 ) ;
#35 = PRODUCT_RELATED_PRODUCT_CATEGORY ( 'part', '', ( #17 ) ) ;
#36 =( NAMED_UNIT ( * ) PLANE_ANGLE_UNIT ( ) SI_UNIT ( $, .RADIAN. ) );
#37 = DIRECTION ( 'NONE',  ( 0.000000000000000000, 1.000000000000000000, 0.000000000000000000 ) ) ;
#38 = DIRECTION ( 'NONE',  ( 0.000000000000000000, 0.000000000000000000, -1.000000000000000000 ) ) ;
#39 = AXIS2_PLACEMENT_3D ( 'NONE', #27, #37, #26 ) ;
#40 =( GEOMETRIC_REPRESENTATION_CONTEXT ( 3 ) GLOBAL_UNCERTAINTY_ASSIGNED_CONTEXT ( ( #7 ) ) GLOBAL_UNIT_ASSIGNED_CONTEXT ( ( #47, #36, #4 ) ) REPRESENTATION_CONTEXT ( 'NONE', 'WORKASPACE' ) );
#41 = MANIFOLD_SOLID_BREP ( 'Boss-Extrude1', #28 ) ;
#42 = APPLICATION_CONTEXT ( 'automotive_design' ) ;
#43 = FACE_OUTER_BOUND ( 'NONE', #22, .T. ) ;
#44 = CIRCLE ( 'NONE', #56, 50.00000000000000000 ) ;
#45 = ORIENTED_EDGE ( 'NONE', *, *, #5, .T. ) ;
#46 = PLANE ( 'NONE',  #34 ) ;
#47 =( LENGTH_UNIT ( ) NAMED_UNIT ( * ) SI_UNIT ( .MILLI., .METRE. ) );
#48 = CARTESIAN_POINT ( 'NONE',  ( 0.000000000000000000, 0.000000000000000000, 0.000000000000000000 ) ) ;
#49 = CIRCLE ( 'NONE', #39, 50.00000000000000000 ) ;
#50 = PRODUCT_DEFINITION ( 'UNKNOWN', '', #51, #13 ) ;
#51 = PRODUCT_DEFINITION_FORMATION_WITH_SPECIFIED_SOURCE ( 'ANY', '', #17, .NOT_KNOWN. ) ;
#52 = SURFACE_STYLE_USAGE ( .BOTH. , #25 ) ;
#53 = ADVANCED_FACE ( 'NONE', ( #73 ), #10, .T. ) ;
#54 = CARTESIAN_POINT ( 'NONE',  ( 0.000000000000000000, 100.0000000000000000, 50.00000000000000000 ) ) ;
#55 = DIRECTION ( 'NONE',  ( -0.000000000000000000, -1.000000000000000000, -0.000000000000000000 ) ) ;
#56 = AXIS2_PLACEMENT_3D ( 'NONE', #14, #79, #24 ) ;
#57 = CARTESIAN_POINT ( 'NONE',  ( 0.000000000000000000, 100.0000000000000000, 0.000000000000000000 ) ) ;
#58 = AXIS2_PLACEMENT_3D ( 'NONE', #57, #9, #30 ) ;
#59 = FILL_AREA_STYLE_COLOUR ( '', #72 ) ;
#60 = EDGE_LOOP ( 'NONE', ( #33 ) ) ;
#61 = MECHANICAL_DESIGN_GEOMETRIC_PRESENTATION_REPRESENTATION (  '', ( #18 ), #16 ) ;
#62 = APPLICATION_PROTOCOL_DEFINITION ( 'draft international standard', 'automotive_design', 1998, #84 ) ;
#63 = ADVANCED_FACE ( 'NONE', ( #68, #43 ), #67, .T. ) ;
#64 = PRESENTATION_LAYER_ASSIGNMENT (  '', '', ( #18 ) ) ;
#65 = PRODUCT_DEFINITION_SHAPE ( 'NONE', 'NONE',  #50 ) ;
#66 =( NAMED_UNIT ( * ) SI_UNIT ( $, .STERADIAN. ) SOLID_ANGLE_UNIT ( ) );
#67 = CYLINDRICAL_SURFACE ( 'NONE', #20, 50.00000000000000000 ) ;
#68 = FACE_OUTER_BOUND ( 'NONE', #31, .T. ) ;
#69 = ORIENTED_EDGE ( 'NONE', *, *, #82, .T. ) ;
#70 = DIRECTION ( 'NONE',  ( 0.000000000000000000, 1.000000000000000000, 0.000000000000000000 ) ) ;
#71 = SHAPE_DEFINITION_REPRESENTATION ( #65, #83 ) ;
#72 = COLOUR_RGB ( '',1.000000000000000000, 0.000000000000000000, 0.000000000000000000 ) ;
#73 = FACE_OUTER_BOUND ( 'NONE', #19, .T. ) ;
#74 =( NAMED_UNIT ( * ) PLANE_ANGLE_UNIT ( ) SI_UNIT ( $, .RADIAN. ) );
#75 = PRESENTATION_STYLE_ASSIGNMENT (( #52 ) ) ;
#76 = CARTESIAN_POINT ( 'NONE',  ( 0.000000000000000000, 0.000000000000000000, 50.00000000000000000 ) ) ;
#77 = ORIENTED_EDGE ( 'NONE', *, *, #82, .F. ) ;
#78 = APPLICATION_PROTOCOL_DEFINITION ( 'draft international standard', 'automotive_design', 1998, #42 ) ;
#79 = DIRECTION ( 'NONE',  ( 0.000000000000000000, 1.000000000000000000, 0.000000000000000000 ) ) ;
#80 = VERTEX_POINT ( 'NONE', #76 ) ;
#81 = DIRECTION ( 'NONE',  ( 0.000000000000000000, -0.000000000000000000, 1.000000000000000000 ) ) ;
#82 = EDGE_CURVE ( 'NONE', #6, #6, #49, .T. ) ;
#83 = ADVANCED_BREP_SHAPE_REPRESENTATION ( 'C4_part_1__ap214_appear', ( #41, #8 ), #40 ) ;
#84 = APPLICATION_CONTEXT ( 'automotive_design' ) ;
#85 = ADVANCED_FACE ( 'NONE', ( #21 ), #46, .F. ) ;
ENDSEC;
END-ISO-10303-21;
