ISO-10303-21;
HEADER;
FILE_DESCRIPTION (( 'STEP AP214' ),
    '1' );
FILE_NAME ('C4_part_1__ap214_split.step',
    '2026-08-06T13:09:26',
    ( '' ),
    ( '' ),
    'SwSTEP 2.0',
    'SolidWorks 2026',
    '' );
FILE_SCHEMA (( 'AUTOMOTIVE_DESIGN' ));
ENDSEC;

DATA;
#1 = ADVANCED_FACE ( 'NONE', ( #94 ), #105, .T. ) ;
#2 = CARTESIAN_POINT ( 'NONE',  ( 6.123233995736766085E-15, 0.000000000000000000, 50.00000000000000000 ) ) ;
#3 = CYLINDRICAL_SURFACE ( 'NONE', #17, 50.00000000000000000 ) ;
#4 = DIRECTION ( 'NONE',  ( 0.000000000000000000, 0.000000000000000000, 1.000000000000000000 ) ) ;
#5 = CARTESIAN_POINT ( 'NONE',  ( 0.000000000000000000, 0.000000000000000000, 0.000000000000000000 ) ) ;
#6 = CARTESIAN_POINT ( 'NONE',  ( 0.000000000000000000, 100.0000000000000000, 0.000000000000000000 ) ) ;
#7 = AXIS2_PLACEMENT_3D ( 'NONE', #57, #122, #67 ) ;
#8 = ORIENTED_EDGE ( 'NONE', *, *, #27, .F. ) ;
#9 = CARTESIAN_POINT ( 'NONE',  ( 0.000000000000000000, 0.000000000000000000, 0.000000000000000000 ) ) ;
#10 = MECHANICAL_DESIGN_GEOMETRIC_PRESENTATION_REPRESENTATION (  '', ( #69 ), #23 ) ;
#11 = AXIS2_PLACEMENT_3D ( 'NONE', #88, #75, #53 ) ;
#12 = EDGE_LOOP ( 'NONE', ( #56, #63, #32, #95 ) ) ;
#13 =( LENGTH_UNIT ( ) NAMED_UNIT ( * ) SI_UNIT ( .MILLI., .METRE. ) );
#14 = FACE_OUTER_BOUND ( 'NONE', #28, .T. ) ;
#15 = PLANE ( 'NONE',  #106 ) ;
#16 = ADVANCED_BREP_SHAPE_REPRESENTATION ( 'C4_part_1__ap214_split', ( #25, #71 ), #82 ) ;
#17 = AXIS2_PLACEMENT_3D ( 'NONE', #19, #43, #49 ) ;
#18 = VERTEX_POINT ( 'NONE', #36 ) ;
#19 = CARTESIAN_POINT ( 'NONE',  ( 0.000000000000000000, 100.0000000000000000, 0.000000000000000000 ) ) ;
#20 = CARTESIAN_POINT ( 'NONE',  ( 0.000000000000000000, 100.0000000000000000, -50.00000000000000000 ) ) ;
#21 = DIRECTION ( 'NONE',  ( -0.000000000000000000, -1.000000000000000000, -0.000000000000000000 ) ) ;
#22 = APPLICATION_PROTOCOL_DEFINITION ( 'draft international standard', 'automotive_design', 1998, #51 ) ;
#23 =( GEOMETRIC_REPRESENTATION_CONTEXT ( 3 ) GLOBAL_UNCERTAINTY_ASSIGNED_CONTEXT ( ( #37 ) ) GLOBAL_UNIT_ASSIGNED_CONTEXT ( ( #13, #39, #79 ) ) REPRESENTATION_CONTEXT ( 'NONE', 'WORKASPACE' ) );
#24 = DIRECTION ( 'NONE',  ( 1.000000000000000000, 0.000000000000000000, 0.000000000000000000 ) ) ;
#25 = MANIFOLD_SOLID_BREP ( 'Boss-Extrude1', #52 ) ;
#26 = PRODUCT_DEFINITION_FORMATION_WITH_SPECIFIED_SOURCE ( 'ANY', '', #121, .NOT_KNOWN. ) ;
#27 = EDGE_CURVE ( 'NONE', #103, #60, #84, .T. ) ;
#28 = EDGE_LOOP ( 'NONE', ( #29, #83 ) ) ;
#29 = ORIENTED_EDGE ( 'NONE', *, *, #31, .T. ) ;
#30 = CARTESIAN_POINT ( 'NONE',  ( 0.000000000000000000, 0.000000000000000000, -50.00000000000000000 ) ) ;
#31 = EDGE_CURVE ( 'NONE', #38, #18, #73, .T. ) ;
#32 = ORIENTED_EDGE ( 'NONE', *, *, #99, .T. ) ;
#33 =( NAMED_UNIT ( * ) PLANE_ANGLE_UNIT ( ) SI_UNIT ( $, .RADIAN. ) );
#34 = DIRECTION ( 'NONE',  ( 0.000000000000000000, 0.000000000000000000, 1.000000000000000000 ) ) ;
#35 = APPLICATION_PROTOCOL_DEFINITION ( 'draft international standard', 'automotive_design', 1998, #61 ) ;
#36 = CARTESIAN_POINT ( 'NONE',  ( 6.123233995736766085E-15, 100.0000000000000000, 50.00000000000000000 ) ) ;
#37 = UNCERTAINTY_MEASURE_WITH_UNIT (LENGTH_MEASURE( 1.000000000000000082E-05 ), #13, 'distance_accuracy_value', 'NONE');
#38 = VERTEX_POINT ( 'NONE', #87 ) ;
#39 =( NAMED_UNIT ( * ) PLANE_ANGLE_UNIT ( ) SI_UNIT ( $, .RADIAN. ) );
#40 = PLANE ( 'NONE',  #7 ) ;
#41 = DIRECTION ( 'NONE',  ( -0.000000000000000000, -1.000000000000000000, -0.000000000000000000 ) ) ;
#42 = AXIS2_PLACEMENT_3D ( 'NONE', #6, #48, #46 ) ;
#43 = DIRECTION ( 'NONE',  ( -0.000000000000000000, -1.000000000000000000, -0.000000000000000000 ) ) ;
#44 = AXIS2_PLACEMENT_3D ( 'NONE', #125, #77, #34 ) ;
#45 = ADVANCED_FACE ( 'NONE', ( #54 ), #3, .T. ) ;
#46 = DIRECTION ( 'NONE',  ( 0.000000000000000000, 0.000000000000000000, -1.000000000000000000 ) ) ;
#47 = EDGE_CURVE ( 'NONE', #18, #38, #123, .T. ) ;
#48 = DIRECTION ( 'NONE',  ( -0.000000000000000000, -1.000000000000000000, -0.000000000000000000 ) ) ;
#49 = DIRECTION ( 'NONE',  ( 0.000000000000000000, 0.000000000000000000, -1.000000000000000000 ) ) ;
#50 = CARTESIAN_POINT ( 'NONE',  ( 6.123233995736766085E-15, 100.0000000000000000, 50.00000000000000000 ) ) ;
#51 = APPLICATION_CONTEXT ( 'automotive_design' ) ;
#52 = CLOSED_SHELL ( 'NONE', ( #45, #1, #117, #102 ) ) ;
#53 = DIRECTION ( 'NONE',  ( 0.000000000000000000, 0.000000000000000000, 1.000000000000000000 ) ) ;
#54 = FACE_OUTER_BOUND ( 'NONE', #101, .T. ) ;
#55 = EDGE_LOOP ( 'NONE', ( #118, #8 ) ) ;
#56 = ORIENTED_EDGE ( 'NONE', *, *, #65, .F. ) ;
#57 = CARTESIAN_POINT ( 'NONE',  ( 0.000000000000000000, 100.0000000000000000, 0.000000000000000000 ) ) ;
#58 = FACE_OUTER_BOUND ( 'NONE', #55, .T. ) ;
#59 = VECTOR ( 'NONE', #41, 1000.000000000000000 ) ;
#60 = VERTEX_POINT ( 'NONE', #30 ) ;
#61 = APPLICATION_CONTEXT ( 'automotive_design' ) ;
#62 = EDGE_CURVE ( 'NONE', #60, #103, #74, .T. ) ;
#63 = ORIENTED_EDGE ( 'NONE', *, *, #31, .F. ) ;
#64 = FILL_AREA_STYLE ('',( #113 ) ) ;
#65 = EDGE_CURVE ( 'NONE', #18, #103, #109, .T. ) ;
#66 = ORIENTED_EDGE ( 'NONE', *, *, #65, .T. ) ;
#67 = DIRECTION ( 'NONE',  ( 0.000000000000000000, -0.000000000000000000, 1.000000000000000000 ) ) ;
#68 = DIRECTION ( 'NONE',  ( 0.000000000000000000, 1.000000000000000000, 0.000000000000000000 ) ) ;
#69 = STYLED_ITEM ( 'NONE', ( #89 ), #25 ) ;
#70 = CARTESIAN_POINT ( 'NONE',  ( 0.000000000000000000, 100.0000000000000000, 0.000000000000000000 ) ) ;
#71 = AXIS2_PLACEMENT_3D ( 'NONE', #92, #100, #24 ) ;
#72 = PRESENTATION_LAYER_ASSIGNMENT (  '', '', ( #69 ) ) ;
#73 = CIRCLE ( 'NONE', #11, 50.00000000000000000 ) ;
#74 = CIRCLE ( 'NONE', #114, 50.00000000000000000 ) ;
#75 = DIRECTION ( 'NONE',  ( 0.000000000000000000, 1.000000000000000000, 0.000000000000000000 ) ) ;
#76 = ORIENTED_EDGE ( 'NONE', *, *, #47, .F. ) ;
#77 = DIRECTION ( 'NONE',  ( 0.000000000000000000, 1.000000000000000000, 0.000000000000000000 ) ) ;
#78 = DIRECTION ( 'NONE',  ( 0.000000000000000000, 1.000000000000000000, 0.000000000000000000 ) ) ;
#79 =( NAMED_UNIT ( * ) SI_UNIT ( $, .STERADIAN. ) SOLID_ANGLE_UNIT ( ) );
#80 = PRODUCT_DEFINITION_SHAPE ( 'NONE', 'NONE',  #81 ) ;
#81 = PRODUCT_DEFINITION ( 'UNKNOWN', '', #26, #124 ) ;
#82 =( GEOMETRIC_REPRESENTATION_CONTEXT ( 3 ) GLOBAL_UNCERTAINTY_ASSIGNED_CONTEXT ( ( #116 ) ) GLOBAL_UNIT_ASSIGNED_CONTEXT ( ( #107, #33, #119 ) ) REPRESENTATION_CONTEXT ( 'NONE', 'WORKASPACE' ) );
#83 = ORIENTED_EDGE ( 'NONE', *, *, #47, .T. ) ;
#84 = CIRCLE ( 'NONE', #44, 50.00000000000000000 ) ;
#85 = DIRECTION ( 'NONE',  ( 0.000000000000000000, 1.000000000000000000, 0.000000000000000000 ) ) ;
#86 = DIRECTION ( 'NONE',  ( 0.000000000000000000, -0.000000000000000000, 1.000000000000000000 ) ) ;
#87 = CARTESIAN_POINT ( 'NONE',  ( 0.000000000000000000, 100.0000000000000000, -50.00000000000000000 ) ) ;
#88 = CARTESIAN_POINT ( 'NONE',  ( 0.000000000000000000, 100.0000000000000000, 0.000000000000000000 ) ) ;
#89 = PRESENTATION_STYLE_ASSIGNMENT (( #97 ) ) ;
#90 = AXIS2_PLACEMENT_3D ( 'NONE', #70, #78, #4 ) ;
#91 = SHAPE_DEFINITION_REPRESENTATION ( #80, #16 ) ;
#92 = CARTESIAN_POINT ( 'NONE',  ( 0.000000000000000000, 0.000000000000000000, 0.000000000000000000 ) ) ;
#93 = VECTOR ( 'NONE', #21, 1000.000000000000000 ) ;
#94 = FACE_OUTER_BOUND ( 'NONE', #12, .T. ) ;
#95 = ORIENTED_EDGE ( 'NONE', *, *, #62, .T. ) ;
#96 = ORIENTED_EDGE ( 'NONE', *, *, #27, .T. ) ;
#97 = SURFACE_STYLE_USAGE ( .BOTH. , #120 ) ;
#98 = DIRECTION ( 'NONE',  ( 0.000000000000000000, 0.000000000000000000, 1.000000000000000000 ) ) ;
#99 = EDGE_CURVE ( 'NONE', #38, #60, #108, .T. ) ;
#100 = DIRECTION ( 'NONE',  ( 0.000000000000000000, 0.000000000000000000, 1.000000000000000000 ) ) ;
#101 = EDGE_LOOP ( 'NONE', ( #76, #66, #96, #115 ) ) ;
#102 = ADVANCED_FACE ( 'NONE', ( #58 ), #15, .F. ) ;
#103 = VERTEX_POINT ( 'NONE', #2 ) ;
#104 = SURFACE_STYLE_FILL_AREA ( #64 ) ;
#105 = CYLINDRICAL_SURFACE ( 'NONE', #42, 50.00000000000000000 ) ;
#106 = AXIS2_PLACEMENT_3D ( 'NONE', #9, #85, #86 ) ;
#107 =( LENGTH_UNIT ( ) NAMED_UNIT ( * ) SI_UNIT ( .MILLI., .METRE. ) );
#108 = LINE ( 'NONE', #20, #59 ) ;
#109 = LINE ( 'NONE', #50, #93 ) ;
#110 = PRODUCT_RELATED_PRODUCT_CATEGORY ( 'part', '', ( #121 ) ) ;
#111 = PRODUCT_CONTEXT ( 'NONE', #61, 'mechanical' ) ;
#112 = COLOUR_RGB ( '',1.000000000000000000, 0.000000000000000000, 0.000000000000000000 ) ;
#113 = FILL_AREA_STYLE_COLOUR ( '', #112 ) ;
#114 = AXIS2_PLACEMENT_3D ( 'NONE', #5, #68, #98 ) ;
#115 = ORIENTED_EDGE ( 'NONE', *, *, #99, .F. ) ;
#116 = UNCERTAINTY_MEASURE_WITH_UNIT (LENGTH_MEASURE( 1.000000000000000082E-05 ), #107, 'distance_accuracy_value', 'NONE');
#117 = ADVANCED_FACE ( 'NONE', ( #14 ), #40, .T. ) ;
#118 = ORIENTED_EDGE ( 'NONE', *, *, #62, .F. ) ;
#119 =( NAMED_UNIT ( * ) SI_UNIT ( $, .STERADIAN. ) SOLID_ANGLE_UNIT ( ) );
#120 = SURFACE_SIDE_STYLE ('',( #104 ) ) ;
#121 = PRODUCT ( 'C4_part_1__ap214_split', 'C4_part_1__ap214_split', '', ( #111 ) ) ;
#122 = DIRECTION ( 'NONE',  ( 0.000000000000000000, 1.000000000000000000, 0.000000000000000000 ) ) ;
#123 = CIRCLE ( 'NONE', #90, 50.00000000000000000 ) ;
#124 = PRODUCT_DEFINITION_CONTEXT ( 'detailed design', #51, 'design' ) ;
#125 = CARTESIAN_POINT ( 'NONE',  ( 0.000000000000000000, 0.000000000000000000, 0.000000000000000000 ) ) ;
ENDSEC;
END-ISO-10303-21;
