ISO-10303-21;
HEADER;
FILE_DESCRIPTION (( 'STEP AP214' ),
    '1' );
FILE_NAME ('C4_part_1__ap214_nosplit.step',
    '2026-08-06T13:09:26',
    ( '' ),
    ( '' ),
    'SwSTEP 2.0',
    'SolidWorks 2026',
    '' );
FILE_SCHEMA (( 'AUTOMOTIVE_DESIGN' ));
ENDSEC;

DATA;
#1 = APPLICATION_CONTEXT ( 'automotive_design' ) ;
#2 = DIRECTION ( 'NONE',  ( 0.000000000000000000, -0.000000000000000000, 1.000000000000000000 ) ) ;
#3 = SHAPE_DEFINITION_REPRESENTATION ( #57, #49 ) ;
#4 = ORIENTED_EDGE ( 'NONE', *, *, #54, .T. ) ;
#5 = APPLICATION_PROTOCOL_DEFINITION ( 'draft international standard', 'automotive_design', 1998, #39 ) ;
#6 = APPLICATION_PROTOCOL_DEFINITION ( 'draft international standard', 'automotive_design', 1998, #1 ) ;
#7 = UNCERTAINTY_MEASURE_WITH_UNIT (LENGTH_MEASURE( 1.000000000000000082E-05 ), #61, 'distance_accuracy_value', 'NONE');
#8 = EDGE_CURVE ( 'NONE', #22, #22, #27, .T. ) ;
#9 = DIRECTION ( 'NONE',  ( 0.000000000000000000, 1.000000000000000000, 0.000000000000000000 ) ) ;
#10 = FILL_AREA_STYLE_COLOUR ( '', #75 ) ;
#11 =( LENGTH_UNIT ( ) NAMED_UNIT ( * ) SI_UNIT ( .MILLI., .METRE. ) );
#12 = UNCERTAINTY_MEASURE_WITH_UNIT (LENGTH_MEASURE( 1.000000000000000082E-05 ), #11, 'distance_accuracy_value', 'NONE');
#13 = CLOSED_SHELL ( 'NONE', ( #44, #38, #50 ) ) ;
#14 = DIRECTION ( 'NONE',  ( 0.000000000000000000, 1.000000000000000000, 0.000000000000000000 ) ) ;
#15 = DIRECTION ( 'NONE',  ( 0.000000000000000000, 0.000000000000000000, -1.000000000000000000 ) ) ;
#16 = FACE_OUTER_BOUND ( 'NONE', #70, .T. ) ;
#17 =( NAMED_UNIT ( * ) PLANE_ANGLE_UNIT ( ) SI_UNIT ( $, .RADIAN. ) );
#18 = DIRECTION ( 'NONE',  ( 1.000000000000000000, 0.000000000000000000, 0.000000000000000000 ) ) ;
#19 = ORIENTED_EDGE ( 'NONE', *, *, #8, .T. ) ;
#20 = DIRECTION ( 'NONE',  ( -0.000000000000000000, -1.000000000000000000, -0.000000000000000000 ) ) ;
#21 = CYLINDRICAL_SURFACE ( 'NONE', #42, 50.00000000000000000 ) ;
#22 = VERTEX_POINT ( 'NONE', #83 ) ;
#23 = FILL_AREA_STYLE ('',( #10 ) ) ;
#24 = AXIS2_PLACEMENT_3D ( 'NONE', #26, #51, #18 ) ;
#25 = DIRECTION ( 'NONE',  ( 0.000000000000000000, 1.000000000000000000, 0.000000000000000000 ) ) ;
#26 = CARTESIAN_POINT ( 'NONE',  ( 0.000000000000000000, 0.000000000000000000, 0.000000000000000000 ) ) ;
#27 = CIRCLE ( 'NONE', #43, 50.00000000000000000 ) ;
#28 = PRESENTATION_LAYER_ASSIGNMENT (  '', '', ( #65 ) ) ;
#29 = DIRECTION ( 'NONE',  ( 0.000000000000000000, 0.000000000000000000, 1.000000000000000000 ) ) ;
#30 = SURFACE_STYLE_FILL_AREA ( #23 ) ;
#31 = MECHANICAL_DESIGN_GEOMETRIC_PRESENTATION_REPRESENTATION (  '', ( #65 ), #80 ) ;
#32 = CARTESIAN_POINT ( 'NONE',  ( 0.000000000000000000, 100.0000000000000000, 0.000000000000000000 ) ) ;
#33 = PRODUCT_DEFINITION_FORMATION_WITH_SPECIFIED_SOURCE ( 'ANY', '', #84, .NOT_KNOWN. ) ;
#34 = DIRECTION ( 'NONE',  ( 0.000000000000000000, 0.000000000000000000, 1.000000000000000000 ) ) ;
#35 =( NAMED_UNIT ( * ) SI_UNIT ( $, .STERADIAN. ) SOLID_ANGLE_UNIT ( ) );
#36 = AXIS2_PLACEMENT_3D ( 'NONE', #85, #9, #29 ) ;
#37 = ORIENTED_EDGE ( 'NONE', *, *, #8, .F. ) ;
#38 = ADVANCED_FACE ( 'NONE', ( #55 ), #48, .T. ) ;
#39 = APPLICATION_CONTEXT ( 'automotive_design' ) ;
#40 = PRESENTATION_STYLE_ASSIGNMENT (( #53 ) ) ;
#41 = DIRECTION ( 'NONE',  ( 0.000000000000000000, -0.000000000000000000, 1.000000000000000000 ) ) ;
#42 = AXIS2_PLACEMENT_3D ( 'NONE', #81, #20, #15 ) ;
#43 = AXIS2_PLACEMENT_3D ( 'NONE', #32, #14, #34 ) ;
#44 = ADVANCED_FACE ( 'NONE', ( #46, #16 ), #21, .T. ) ;
#45 = EDGE_LOOP ( 'NONE', ( #37 ) ) ;
#46 = FACE_OUTER_BOUND ( 'NONE', #45, .T. ) ;
#47 =( NAMED_UNIT ( * ) SI_UNIT ( $, .STERADIAN. ) SOLID_ANGLE_UNIT ( ) );
#48 = PLANE ( 'NONE',  #52 ) ;
#49 = ADVANCED_BREP_SHAPE_REPRESENTATION ( 'C4_part_1__ap214_nosplit', ( #66, #24 ), #74 ) ;
#50 = ADVANCED_FACE ( 'NONE', ( #77 ), #79, .F. ) ;
#51 = DIRECTION ( 'NONE',  ( 0.000000000000000000, 0.000000000000000000, 1.000000000000000000 ) ) ;
#52 = AXIS2_PLACEMENT_3D ( 'NONE', #71, #25, #2 ) ;
#53 = SURFACE_STYLE_USAGE ( .BOTH. , #69 ) ;
#54 = EDGE_CURVE ( 'NONE', #68, #68, #58, .T. ) ;
#55 = FACE_OUTER_BOUND ( 'NONE', #62, .T. ) ;
#56 = EDGE_LOOP ( 'NONE', ( #78 ) ) ;
#57 = PRODUCT_DEFINITION_SHAPE ( 'NONE', 'NONE',  #76 ) ;
#58 = CIRCLE ( 'NONE', #36, 50.00000000000000000 ) ;
#59 = PRODUCT_DEFINITION_CONTEXT ( 'detailed design', #1, 'design' ) ;
#60 = DIRECTION ( 'NONE',  ( 0.000000000000000000, 1.000000000000000000, 0.000000000000000000 ) ) ;
#61 =( LENGTH_UNIT ( ) NAMED_UNIT ( * ) SI_UNIT ( .MILLI., .METRE. ) );
#62 = EDGE_LOOP ( 'NONE', ( #19 ) ) ;
#63 = AXIS2_PLACEMENT_3D ( 'NONE', #67, #60, #41 ) ;
#64 = CARTESIAN_POINT ( 'NONE',  ( 0.000000000000000000, 0.000000000000000000, 50.00000000000000000 ) ) ;
#65 = STYLED_ITEM ( 'NONE', ( #40 ), #66 ) ;
#66 = MANIFOLD_SOLID_BREP ( 'Boss-Extrude1', #13 ) ;
#67 = CARTESIAN_POINT ( 'NONE',  ( 0.000000000000000000, 0.000000000000000000, 0.000000000000000000 ) ) ;
#68 = VERTEX_POINT ( 'NONE', #64 ) ;
#69 = SURFACE_SIDE_STYLE ('',( #30 ) ) ;
#70 = EDGE_LOOP ( 'NONE', ( #4 ) ) ;
#71 = CARTESIAN_POINT ( 'NONE',  ( 0.000000000000000000, 100.0000000000000000, 0.000000000000000000 ) ) ;
#72 =( NAMED_UNIT ( * ) PLANE_ANGLE_UNIT ( ) SI_UNIT ( $, .RADIAN. ) );
#73 = PRODUCT_CONTEXT ( 'NONE', #39, 'mechanical' ) ;
#74 =( GEOMETRIC_REPRESENTATION_CONTEXT ( 3 ) GLOBAL_UNCERTAINTY_ASSIGNED_CONTEXT ( ( #12 ) ) GLOBAL_UNIT_ASSIGNED_CONTEXT ( ( #11, #17, #35 ) ) REPRESENTATION_CONTEXT ( 'NONE', 'WORKASPACE' ) );
#75 = COLOUR_RGB ( '',1.000000000000000000, 0.000000000000000000, 0.000000000000000000 ) ;
#76 = PRODUCT_DEFINITION ( 'UNKNOWN', '', #33, #59 ) ;
#77 = FACE_OUTER_BOUND ( 'NONE', #56, .T. ) ;
#78 = ORIENTED_EDGE ( 'NONE', *, *, #54, .F. ) ;
#79 = PLANE ( 'NONE',  #63 ) ;
#80 =( GEOMETRIC_REPRESENTATION_CONTEXT ( 3 ) GLOBAL_UNCERTAINTY_ASSIGNED_CONTEXT ( ( #7 ) ) GLOBAL_UNIT_ASSIGNED_CONTEXT ( ( #61, #72, #47 ) ) REPRESENTATION_CONTEXT ( 'NONE', 'WORKASPACE' ) );
#81 = CARTESIAN_POINT ( 'NONE',  ( 0.000000000000000000, 100.0000000000000000, 0.000000000000000000 ) ) ;
#82 = PRODUCT_RELATED_PRODUCT_CATEGORY ( 'part', '', ( #84 ) ) ;
#83 = CARTESIAN_POINT ( 'NONE',  ( 0.000000000000000000, 100.0000000000000000, 50.00000000000000000 ) ) ;
#84 = PRODUCT ( 'C4_part_1__ap214_nosplit', 'C4_part_1__ap214_nosplit', '', ( #73 ) ) ;
#85 = CARTESIAN_POINT ( 'NONE',  ( 0.000000000000000000, 0.000000000000000000, 0.000000000000000000 ) ) ;
ENDSEC;
END-ISO-10303-21;
