ISO-10303-21;
HEADER;
FILE_DESCRIPTION (( 'STEP AP214' ),
    '1' );
FILE_NAME ('C4_part_1__ap214_appear_fe.step',
    '2026-08-06T13:09:26',
    ( '' ),
    ( '' ),
    'SwSTEP 2.0',
    'SolidWorks 2026',
    '' );
FILE_SCHEMA (( 'AUTOMOTIVE_DESIGN' ));
ENDSEC;

DATA;
#1 = UNCERTAINTY_MEASURE_WITH_UNIT (LENGTH_MEASURE( 1.000000000000000082E-05 ), #54, 'distance_accuracy_value', 'NONE');
#2 = APPLICATION_PROTOCOL_DEFINITION ( 'draft international standard', 'automotive_design', 1998, #64 ) ;
#3 = DIRECTION ( 'NONE',  ( 0.000000000000000000, 0.000000000000000000, 1.000000000000000000 ) ) ;
#4 = CARTESIAN_POINT ( 'NONE',  ( 0.000000000000000000, 100.0000000000000000, 0.000000000000000000 ) ) ;
#5 = DIRECTION ( 'NONE',  ( 0.000000000000000000, 1.000000000000000000, 0.000000000000000000 ) ) ;
#6 = PRODUCT_DEFINITION ( 'UNKNOWN', '', #85, #71 ) ;
#7 = CLOSED_SHELL ( 'NONE', ( #51, #65, #35 ) ) ;
#8 = DIRECTION ( 'NONE',  ( 0.000000000000000000, 1.000000000000000000, 0.000000000000000000 ) ) ;
#9 = CARTESIAN_POINT ( 'NONE',  ( 0.000000000000000000, 0.000000000000000000, 0.000000000000000000 ) ) ;
#10 =( NAMED_UNIT ( * ) SI_UNIT ( $, .STERADIAN. ) SOLID_ANGLE_UNIT ( ) );
#11 = PRESENTATION_LAYER_ASSIGNMENT (  '', '', ( #78 ) ) ;
#12 = CARTESIAN_POINT ( 'NONE',  ( 0.000000000000000000, 100.0000000000000000, 0.000000000000000000 ) ) ;
#13 =( GEOMETRIC_REPRESENTATION_CONTEXT ( 3 ) GLOBAL_UNCERTAINTY_ASSIGNED_CONTEXT ( ( #1 ) ) GLOBAL_UNIT_ASSIGNED_CONTEXT ( ( #54, #48, #10 ) ) REPRESENTATION_CONTEXT ( 'NONE', 'WORKASPACE' ) );
#14 = SURFACE_STYLE_FILL_AREA ( #77 ) ;
#15 = DIRECTION ( 'NONE',  ( 1.000000000000000000, 0.000000000000000000, 0.000000000000000000 ) ) ;
#16 = ORIENTED_EDGE ( 'NONE', *, *, #56, .T. ) ;
#17 = SURFACE_SIDE_STYLE ('',( #14 ) ) ;
#18 = EDGE_LOOP ( 'NONE', ( #16 ) ) ;
#19 = PRODUCT_CONTEXT ( 'NONE', #64, 'mechanical' ) ;
#20 = MANIFOLD_SOLID_BREP ( 'Boss-Extrude1', #7 ) ;
#21 = VERTEX_POINT ( 'NONE', #37 ) ;
#22 = EDGE_CURVE ( 'NONE', #21, #21, #23, .T. ) ;
#23 = CIRCLE ( 'NONE', #70, 50.00000000000000000 ) ;
#24 = EDGE_LOOP ( 'NONE', ( #27 ) ) ;
#25 = PRODUCT_DEFINITION_SHAPE ( 'NONE', 'NONE',  #6 ) ;
#26 = CYLINDRICAL_SURFACE ( 'NONE', #57, 50.00000000000000000 ) ;
#27 = ORIENTED_EDGE ( 'NONE', *, *, #56, .F. ) ;
#28 = PLANE ( 'NONE',  #67 ) ;
#29 = APPLICATION_PROTOCOL_DEFINITION ( 'draft international standard', 'automotive_design', 1998, #30 ) ;
#30 = APPLICATION_CONTEXT ( 'automotive_design' ) ;
#31 = COLOUR_RGB ( '',1.000000000000000000, 0.000000000000000000, 0.000000000000000000 ) ;
#32 = PRODUCT ( 'C4_part_1__ap214_appear_fe', 'C4_part_1__ap214_appear_fe', '', ( #19 ) ) ;
#33 = CIRCLE ( 'NONE', #49, 50.00000000000000000 ) ;
#34 = DIRECTION ( 'NONE',  ( 0.000000000000000000, -0.000000000000000000, 1.000000000000000000 ) ) ;
#35 = ADVANCED_FACE ( 'NONE', ( #68 ), #46, .F. ) ;
#36 = AXIS2_PLACEMENT_3D ( 'NONE', #50, #3, #15 ) ;
#37 = CARTESIAN_POINT ( 'NONE',  ( 0.000000000000000000, 0.000000000000000000, 50.00000000000000000 ) ) ;
#38 = EDGE_LOOP ( 'NONE', ( #58 ) ) ;
#39 = PRODUCT_RELATED_PRODUCT_CATEGORY ( 'part', '', ( #32 ) ) ;
#40 =( LENGTH_UNIT ( ) NAMED_UNIT ( * ) SI_UNIT ( .MILLI., .METRE. ) );
#41 =( NAMED_UNIT ( * ) PLANE_ANGLE_UNIT ( ) SI_UNIT ( $, .RADIAN. ) );
#42 = DIRECTION ( 'NONE',  ( 0.000000000000000000, 0.000000000000000000, 1.000000000000000000 ) ) ;
#43 = DIRECTION ( 'NONE',  ( 0.000000000000000000, 1.000000000000000000, 0.000000000000000000 ) ) ;
#44 = EDGE_LOOP ( 'NONE', ( #75 ) ) ;
#45 =( GEOMETRIC_REPRESENTATION_CONTEXT ( 3 ) GLOBAL_UNCERTAINTY_ASSIGNED_CONTEXT ( ( #73 ) ) GLOBAL_UNIT_ASSIGNED_CONTEXT ( ( #40, #41, #74 ) ) REPRESENTATION_CONTEXT ( 'NONE', 'WORKASPACE' ) );
#46 = PLANE ( 'NONE',  #83 ) ;
#47 = CARTESIAN_POINT ( 'NONE',  ( 0.000000000000000000, 100.0000000000000000, 0.000000000000000000 ) ) ;
#48 =( NAMED_UNIT ( * ) PLANE_ANGLE_UNIT ( ) SI_UNIT ( $, .RADIAN. ) );
#49 = AXIS2_PLACEMENT_3D ( 'NONE', #4, #5, #42 ) ;
#50 = CARTESIAN_POINT ( 'NONE',  ( 0.000000000000000000, 0.000000000000000000, 0.000000000000000000 ) ) ;
#51 = ADVANCED_FACE ( 'NONE', ( #84, #79 ), #26, .T. ) ;
#52 = MECHANICAL_DESIGN_GEOMETRIC_PRESENTATION_REPRESENTATION (  '', ( #78 ), #45 ) ;
#53 = SURFACE_STYLE_USAGE ( .BOTH. , #17 ) ;
#54 =( LENGTH_UNIT ( ) NAMED_UNIT ( * ) SI_UNIT ( .MILLI., .METRE. ) );
#55 = SHAPE_DEFINITION_REPRESENTATION ( #25, #59 ) ;
#56 = EDGE_CURVE ( 'NONE', #66, #66, #33, .T. ) ;
#57 = AXIS2_PLACEMENT_3D ( 'NONE', #47, #72, #62 ) ;
#58 = ORIENTED_EDGE ( 'NONE', *, *, #22, .T. ) ;
#59 = ADVANCED_BREP_SHAPE_REPRESENTATION ( 'C4_part_1__ap214_appear_fe', ( #20, #36 ), #13 ) ;
#60 = FACE_OUTER_BOUND ( 'NONE', #18, .T. ) ;
#61 = PRESENTATION_STYLE_ASSIGNMENT (( #53 ) ) ;
#62 = DIRECTION ( 'NONE',  ( 0.000000000000000000, 0.000000000000000000, -1.000000000000000000 ) ) ;
#63 = DIRECTION ( 'NONE',  ( 0.000000000000000000, 1.000000000000000000, 0.000000000000000000 ) ) ;
#64 = APPLICATION_CONTEXT ( 'automotive_design' ) ;
#65 = ADVANCED_FACE ( 'NONE', ( #60 ), #28, .T. ) ;
#66 = VERTEX_POINT ( 'NONE', #76 ) ;
#67 = AXIS2_PLACEMENT_3D ( 'NONE', #12, #43, #81 ) ;
#68 = FACE_OUTER_BOUND ( 'NONE', #44, .T. ) ;
#69 = CARTESIAN_POINT ( 'NONE',  ( 0.000000000000000000, 0.000000000000000000, 0.000000000000000000 ) ) ;
#70 = AXIS2_PLACEMENT_3D ( 'NONE', #9, #8, #80 ) ;
#71 = PRODUCT_DEFINITION_CONTEXT ( 'detailed design', #30, 'design' ) ;
#72 = DIRECTION ( 'NONE',  ( -0.000000000000000000, -1.000000000000000000, -0.000000000000000000 ) ) ;
#73 = UNCERTAINTY_MEASURE_WITH_UNIT (LENGTH_MEASURE( 1.000000000000000082E-05 ), #40, 'distance_accuracy_value', 'NONE');
#74 =( NAMED_UNIT ( * ) SI_UNIT ( $, .STERADIAN. ) SOLID_ANGLE_UNIT ( ) );
#75 = ORIENTED_EDGE ( 'NONE', *, *, #22, .F. ) ;
#76 = CARTESIAN_POINT ( 'NONE',  ( 0.000000000000000000, 100.0000000000000000, 50.00000000000000000 ) ) ;
#77 = FILL_AREA_STYLE ('',( #82 ) ) ;
#78 = STYLED_ITEM ( 'NONE', ( #61 ), #20 ) ;
#79 = FACE_OUTER_BOUND ( 'NONE', #38, .T. ) ;
#80 = DIRECTION ( 'NONE',  ( 0.000000000000000000, 0.000000000000000000, 1.000000000000000000 ) ) ;
#81 = DIRECTION ( 'NONE',  ( 0.000000000000000000, -0.000000000000000000, 1.000000000000000000 ) ) ;
#82 = FILL_AREA_STYLE_COLOUR ( '', #31 ) ;
#83 = AXIS2_PLACEMENT_3D ( 'NONE', #69, #63, #34 ) ;
#84 = FACE_OUTER_BOUND ( 'NONE', #24, .T. ) ;
#85 = PRODUCT_DEFINITION_FORMATION_WITH_SPECIFIED_SOURCE ( 'ANY', '', #32, .NOT_KNOWN. ) ;
ENDSEC;
END-ISO-10303-21;
