ISO-10303-21;
HEADER;
FILE_DESCRIPTION (( 'STEP AP214' ),
    '1' );
FILE_NAME ('C5_display_states__ap214_appear.step',
    '2026-08-06T13:09:27',
    ( '' ),
    ( '' ),
    'SwSTEP 2.0',
    'SolidWorks 2026',
    '' );
FILE_SCHEMA (( 'AUTOMOTIVE_DESIGN' ));
ENDSEC;

DATA;
#1 = PRODUCT_DEFINITION_CONTEXT ( 'detailed design', #51, 'design' ) ;
#2 =( LENGTH_UNIT ( ) NAMED_UNIT ( * ) SI_UNIT ( .MILLI., .METRE. ) );
#3 = AXIS2_PLACEMENT_3D ( 'NONE', #7, #98, #71 ) ;
#4 = CONTEXT_DEPENDENT_SHAPE_REPRESENTATION ( #60, #75 ) ;
#5 = STYLED_ITEM ( 'NONE', ( #117 ), #94 ) ;
#6 =( GEOMETRIC_REPRESENTATION_CONTEXT ( 3 ) GLOBAL_UNCERTAINTY_ASSIGNED_CONTEXT ( ( #138 ) ) GLOBAL_UNIT_ASSIGNED_CONTEXT ( ( #47, #144, #25 ) ) REPRESENTATION_CONTEXT ( 'NONE', 'WORKASPACE' ) );
#7 = CARTESIAN_POINT ( 'NONE',  ( 0.000000000000000000, 100.0000000000000000, 0.000000000000000000 ) ) ;
#8 = DIRECTION ( 'NONE',  ( 0.000000000000000000, -0.000000000000000000, 1.000000000000000000 ) ) ;
#9 = ORIENTED_EDGE ( 'NONE', *, *, #103, .F. ) ;
#10 =( NAMED_UNIT ( * ) SI_UNIT ( $, .STERADIAN. ) SOLID_ANGLE_UNIT ( ) );
#11 = DIRECTION ( 'NONE',  ( 0.000000000000000000, 1.000000000000000000, 0.000000000000000000 ) ) ;
#12 = PRODUCT_RELATED_PRODUCT_CATEGORY ( 'part', '', ( #84 ) ) ;
#13 = DIRECTION ( 'NONE',  ( 0.000000000000000000, 0.000000000000000000, 1.000000000000000000 ) ) ;
#14 = CARTESIAN_POINT ( 'NONE',  ( 0.000000000000000000, 0.000000000000000000, 0.000000000000000000 ) ) ;
#15 = FACE_OUTER_BOUND ( 'NONE', #89, .T. ) ;
#16 = PRODUCT_DEFINITION ( 'UNKNOWN', '', #108, #131 ) ;
#17 = DIRECTION ( 'NONE',  ( 1.000000000000000000, 0.000000000000000000, 0.000000000000000000 ) ) ;
#18 = FACE_OUTER_BOUND ( 'NONE', #22, .T. ) ;
#19 = PRESENTATION_STYLE_ASSIGNMENT (( #123 ) ) ;
#20 = PRESENTATION_LAYER_ASSIGNMENT (  '', '', ( #67 ) ) ;
#21 = CARTESIAN_POINT ( 'NONE',  ( 0.000000000000000000, 100.0000000000000000, 0.000000000000000000 ) ) ;
#22 = EDGE_LOOP ( 'NONE', ( #80 ) ) ;
#23 = UNCERTAINTY_MEASURE_WITH_UNIT (LENGTH_MEASURE( 1.000000000000000082E-05 ), #114, 'distance_accuracy_value', 'NONE');
#24 = CARTESIAN_POINT ( 'NONE',  ( 0.000000000000000000, 0.000000000000000000, 50.00000000000000000 ) ) ;
#25 =( NAMED_UNIT ( * ) SI_UNIT ( $, .STERADIAN. ) SOLID_ANGLE_UNIT ( ) );
#26 =( GEOMETRIC_REPRESENTATION_CONTEXT ( 3 ) GLOBAL_UNCERTAINTY_ASSIGNED_CONTEXT ( ( #63 ) ) GLOBAL_UNIT_ASSIGNED_CONTEXT ( ( #93, #120, #141 ) ) REPRESENTATION_CONTEXT ( 'NONE', 'WORKASPACE' ) );
#27 = FILL_AREA_STYLE_COLOUR ( '', #88 ) ;
#28 = SHAPE_REPRESENTATION ( 'C4_part_1', ( #125 ), #110 ) ;
#29 = SHAPE_REPRESENTATION ( 'C5_display_states__ap214_appear', ( #85, #134, #139 ), #26 ) ;
#30 = SHAPE_DEFINITION_REPRESENTATION ( #115, #28 ) ;
#31 = DIRECTION ( 'NONE',  ( 1.000000000000000000, 0.000000000000000000, 0.000000000000000000 ) ) ;
#32 = DIRECTION ( 'NONE',  ( 1.000000000000000000, 0.000000000000000000, 0.000000000000000000 ) ) ;
#33 = SURFACE_STYLE_FILL_AREA ( #135 ) ;
#34 = EDGE_LOOP ( 'NONE', ( #90 ) ) ;
#35 = PRODUCT_DEFINITION_SHAPE ( 'NONE', 'NONE',  #36 ) ;
#36 = PRODUCT_DEFINITION ( 'UNKNOWN', '', #130, #1 ) ;
#37 = CARTESIAN_POINT ( 'NONE',  ( 0.000000000000000000, 0.000000000000000000, 0.000000000000000000 ) ) ;
#38 = PRODUCT ( 'C5_display_states__ap214_appear', 'C5_display_states__ap214_appear', '', ( #140 ) ) ;
#39 = DIRECTION ( 'NONE',  ( 0.000000000000000000, 0.000000000000000000, 1.000000000000000000 ) ) ;
#40 = SHAPE_DEFINITION_REPRESENTATION ( #35, #29 ) ;
#41 =( GEOMETRIC_REPRESENTATION_CONTEXT ( 3 ) GLOBAL_UNCERTAINTY_ASSIGNED_CONTEXT ( ( #106 ) ) GLOBAL_UNIT_ASSIGNED_CONTEXT ( ( #2, #91, #104 ) ) REPRESENTATION_CONTEXT ( 'NONE', 'WORKASPACE' ) );
#42 = ADVANCED_FACE ( 'NONE', ( #126, #61 ), #82, .T. ) ;
#43 = AXIS2_PLACEMENT_3D ( 'NONE', #21, #70, #8 ) ;
#44 = DIRECTION ( 'NONE',  ( -0.000000000000000000, -1.000000000000000000, -0.000000000000000000 ) ) ;
#45 = EDGE_CURVE ( 'NONE', #113, #113, #107, .T. ) ;
#46 = CARTESIAN_POINT ( 'NONE',  ( 0.000000000000000000, 0.000000000000000000, 0.000000000000000000 ) ) ;
#47 =( LENGTH_UNIT ( ) NAMED_UNIT ( * ) SI_UNIT ( .MILLI., .METRE. ) );
#48 = VERTEX_POINT ( 'NONE', #24 ) ;
#49 =( NAMED_UNIT ( * ) PLANE_ANGLE_UNIT ( ) SI_UNIT ( $, .RADIAN. ) );
#50 = SHAPE_REPRESENTATION_RELATIONSHIP ( 'NONE' , 'NONE' ,  #28, #94 ) ;
#51 = APPLICATION_CONTEXT ( 'automotive_design' ) ;
#52 = DIRECTION ( 'NONE',  ( 0.000000000000000000, 0.000000000000000000, 1.000000000000000000 ) ) ;
#53 = ITEM_DEFINED_TRANSFORMATION ( 'NONE', 'NONE', #134,  #125 ) ;
#54 = CARTESIAN_POINT ( 'NONE',  ( 129.8588026547804475, -29.07840402331203578, -68.52472038008272648 ) ) ;
#55 = APPLICATION_PROTOCOL_DEFINITION ( 'draft international standard', 'automotive_design', 1998, #51 ) ;
#56 = DIRECTION ( 'NONE',  ( 0.000000000000000000, 1.000000000000000000, 0.000000000000000000 ) ) ;
#57 = CIRCLE ( 'NONE', #109, 50.00000000000000000 ) ;
#58 = ADVANCED_FACE ( 'NONE', ( #18 ), #111, .T. ) ;
#59 = EDGE_LOOP ( 'NONE', ( #127 ) ) ;
#60 =( REPRESENTATION_RELATIONSHIP ('NONE','NONE', #29, #28 ) REPRESENTATION_RELATIONSHIP_WITH_TRANSFORMATION ( #142 )SHAPE_REPRESENTATION_RELATIONSHIP( ) );
#61 = FACE_OUTER_BOUND ( 'NONE', #59, .T. ) ;
#62 = SURFACE_STYLE_FILL_AREA ( #74 ) ;
#63 = UNCERTAINTY_MEASURE_WITH_UNIT (LENGTH_MEASURE( 1.000000000000000082E-05 ), #93, 'distance_accuracy_value', 'NONE');
#64 = DIRECTION ( 'NONE',  ( 0.000000000000000000, -0.000000000000000000, 1.000000000000000000 ) ) ;
#65 = AXIS2_PLACEMENT_3D ( 'NONE', #37, #13, #32 ) ;
#66 = DIRECTION ( 'NONE',  ( 1.000000000000000000, 0.000000000000000000, 0.000000000000000000 ) ) ;
#67 = STYLED_ITEM ( 'NONE', ( #19 ), #112 ) ;
#68 = MECHANICAL_DESIGN_GEOMETRIC_PRESENTATION_REPRESENTATION (  '', ( #67 ), #6 ) ;
#69 = APPLICATION_PROTOCOL_DEFINITION ( 'draft international standard', 'automotive_design', 1998, #118 ) ;
#70 = DIRECTION ( 'NONE',  ( 0.000000000000000000, 1.000000000000000000, 0.000000000000000000 ) ) ;
#71 = DIRECTION ( 'NONE',  ( 0.000000000000000000, 0.000000000000000000, 1.000000000000000000 ) ) ;
#72 = FILL_AREA_STYLE_COLOUR ( '', #87 ) ;
#73 = CLOSED_SHELL ( 'NONE', ( #42, #58, #133 ) ) ;
#74 = FILL_AREA_STYLE ('',( #27 ) ) ;
#75 = PRODUCT_DEFINITION_SHAPE ( 'NONE', 'NONE',  #146 ) ;
#76 = SURFACE_SIDE_STYLE ('',( #62 ) ) ;
#77 = APPLICATION_CONTEXT ( 'automotive_design' ) ;
#78 = MECHANICAL_DESIGN_GEOMETRIC_PRESENTATION_REPRESENTATION (  '', ( #5 ), #41 ) ;
#79 = DIRECTION ( 'NONE',  ( 0.000000000000000000, 0.000000000000000000, 1.000000000000000000 ) ) ;
#80 = ORIENTED_EDGE ( 'NONE', *, *, #45, .T. ) ;
#81 = SURFACE_SIDE_STYLE ('',( #33 ) ) ;
#82 = CYLINDRICAL_SURFACE ( 'NONE', #128, 50.00000000000000000 ) ;
#83 = CARTESIAN_POINT ( 'NONE',  ( 0.000000000000000000, 100.0000000000000000, 0.000000000000000000 ) ) ;
#84 = PRODUCT ( 'C4_part_1', 'C4_part_1', '', ( #122 ) ) ;
#85 = AXIS2_PLACEMENT_3D ( 'NONE', #119, #79, #17 ) ;
#86 = APPLICATION_PROTOCOL_DEFINITION ( 'draft international standard', 'automotive_design', 1998, #77 ) ;
#87 = COLOUR_RGB ( '',1.000000000000000000, 0.000000000000000000, 0.000000000000000000 ) ;
#88 = COLOUR_RGB ( '',0.9098039215686274384, 0.4431372549019607643, 0.03137254901960784270 ) ;
#89 = EDGE_LOOP ( 'NONE', ( #9 ) ) ;
#90 = ORIENTED_EDGE ( 'NONE', *, *, #45, .F. ) ;
#91 =( NAMED_UNIT ( * ) PLANE_ANGLE_UNIT ( ) SI_UNIT ( $, .RADIAN. ) );
#92 =( REPRESENTATION_RELATIONSHIP ('NONE','NONE', #29, #28 ) REPRESENTATION_RELATIONSHIP_WITH_TRANSFORMATION ( #53 )SHAPE_REPRESENTATION_RELATIONSHIP( ) );
#93 =( LENGTH_UNIT ( ) NAMED_UNIT ( * ) SI_UNIT ( .MILLI., .METRE. ) );
#94 = ADVANCED_BREP_SHAPE_REPRESENTATION ( '', ( #112, #125 ), #110 ) ;
#95 = PRESENTATION_LAYER_ASSIGNMENT (  '', '', ( #5 ) ) ;
#96 = CONTEXT_DEPENDENT_SHAPE_REPRESENTATION ( #92, #99 ) ;
#97 = PRODUCT_RELATED_PRODUCT_CATEGORY ( 'part', '', ( #38 ) ) ;
#98 = DIRECTION ( 'NONE',  ( 0.000000000000000000, 1.000000000000000000, 0.000000000000000000 ) ) ;
#99 = PRODUCT_DEFINITION_SHAPE ( 'NONE', 'NONE',  #145 ) ;
#100 = AXIS2_PLACEMENT_3D ( 'NONE', #14, #11, #64 ) ;
#101 = DIRECTION ( 'NONE',  ( 1.000000000000000000, 0.000000000000000000, 0.000000000000000000 ) ) ;
#102 = CARTESIAN_POINT ( 'NONE',  ( 0.000000000000000000, 0.000000000000000000, 0.000000000000000000 ) ) ;
#103 = EDGE_CURVE ( 'NONE', #48, #48, #57, .T. ) ;
#104 =( NAMED_UNIT ( * ) SI_UNIT ( $, .STERADIAN. ) SOLID_ANGLE_UNIT ( ) );
#105 = DIRECTION ( 'NONE',  ( 0.000000000000000000, 0.000000000000000000, 1.000000000000000000 ) ) ;
#106 = UNCERTAINTY_MEASURE_WITH_UNIT (LENGTH_MEASURE( 1.000000000000000082E-05 ), #2, 'distance_accuracy_value', 'NONE');
#107 = CIRCLE ( 'NONE', #3, 50.00000000000000000 ) ;
#108 = PRODUCT_DEFINITION_FORMATION_WITH_SPECIFIED_SOURCE ( 'ANY', '', #84, .NOT_KNOWN. ) ;
#109 = AXIS2_PLACEMENT_3D ( 'NONE', #46, #56, #143 ) ;
#110 =( GEOMETRIC_REPRESENTATION_CONTEXT ( 3 ) GLOBAL_UNCERTAINTY_ASSIGNED_CONTEXT ( ( #23 ) ) GLOBAL_UNIT_ASSIGNED_CONTEXT ( ( #114, #49, #10 ) ) REPRESENTATION_CONTEXT ( 'NONE', 'WORKASPACE' ) );
#111 = PLANE ( 'NONE',  #43 ) ;
#112 = MANIFOLD_SOLID_BREP ( 'Boss-Extrude1', #73 ) ;
#113 = VERTEX_POINT ( 'NONE', #129 ) ;
#114 =( LENGTH_UNIT ( ) NAMED_UNIT ( * ) SI_UNIT ( .MILLI., .METRE. ) );
#115 = PRODUCT_DEFINITION_SHAPE ( 'NONE', 'NONE',  #16 ) ;
#116 = SURFACE_STYLE_USAGE ( .BOTH. , #76 ) ;
#117 = PRESENTATION_STYLE_ASSIGNMENT (( #116 ) ) ;
#118 = APPLICATION_CONTEXT ( 'automotive_design' ) ;
#119 = CARTESIAN_POINT ( 'NONE',  ( 0.000000000000000000, 0.000000000000000000, 0.000000000000000000 ) ) ;
#120 =( NAMED_UNIT ( * ) PLANE_ANGLE_UNIT ( ) SI_UNIT ( $, .RADIAN. ) );
#121 = CARTESIAN_POINT ( 'NONE',  ( 0.000000000000000000, 0.000000000000000000, 0.000000000000000000 ) ) ;
#122 = PRODUCT_CONTEXT ( 'NONE', #124, 'mechanical' ) ;
#123 = SURFACE_STYLE_USAGE ( .BOTH. , #81 ) ;
#124 = APPLICATION_CONTEXT ( 'automotive_design' ) ;
#125 = AXIS2_PLACEMENT_3D ( 'NONE', #102, #39, #101 ) ;
#126 = FACE_OUTER_BOUND ( 'NONE', #34, .T. ) ;
#127 = ORIENTED_EDGE ( 'NONE', *, *, #103, .T. ) ;
#128 = AXIS2_PLACEMENT_3D ( 'NONE', #83, #44, #136 ) ;
#129 = CARTESIAN_POINT ( 'NONE',  ( 0.000000000000000000, 100.0000000000000000, 50.00000000000000000 ) ) ;
#130 = PRODUCT_DEFINITION_FORMATION_WITH_SPECIFIED_SOURCE ( 'ANY', '', #38, .NOT_KNOWN. ) ;
#131 = PRODUCT_DEFINITION_CONTEXT ( 'detailed design', #118, 'design' ) ;
#132 = APPLICATION_PROTOCOL_DEFINITION ( 'draft international standard', 'automotive_design', 1998, #124 ) ;
#133 = ADVANCED_FACE ( 'NONE', ( #15 ), #137, .F. ) ;
#134 = AXIS2_PLACEMENT_3D ( 'NONE', #121, #105, #66 ) ;
#135 = FILL_AREA_STYLE ('',( #72 ) ) ;
#136 = DIRECTION ( 'NONE',  ( 0.000000000000000000, 0.000000000000000000, -1.000000000000000000 ) ) ;
#137 = PLANE ( 'NONE',  #100 ) ;
#138 = UNCERTAINTY_MEASURE_WITH_UNIT (LENGTH_MEASURE( 1.000000000000000082E-05 ), #47, 'distance_accuracy_value', 'NONE');
#139 = AXIS2_PLACEMENT_3D ( 'NONE', #54, #52, #31 ) ;
#140 = PRODUCT_CONTEXT ( 'NONE', #77, 'mechanical' ) ;
#141 =( NAMED_UNIT ( * ) SI_UNIT ( $, .STERADIAN. ) SOLID_ANGLE_UNIT ( ) );
#142 = ITEM_DEFINED_TRANSFORMATION ( 'NONE', 'NONE', #139,  #125 ) ;
#143 = DIRECTION ( 'NONE',  ( 0.000000000000000000, 0.000000000000000000, 1.000000000000000000 ) ) ;
#144 =( NAMED_UNIT ( * ) PLANE_ANGLE_UNIT ( ) SI_UNIT ( $, .RADIAN. ) );
#145 = NEXT_ASSEMBLY_USAGE_OCCURRENCE ( 'NAUO1', ' ', ' ', #36, #16, $ ) ;
#146 = NEXT_ASSEMBLY_USAGE_OCCURRENCE ( 'NAUO2', ' ', ' ', #36, #16, $ ) ;
ENDSEC;
END-ISO-10303-21;
