ISO-10303-21;
HEADER;
FILE_DESCRIPTION (( 'STEP AP214' ),
    '1' );
FILE_NAME ('C5_display_states__ap214_appear_fe.step',
    '2026-08-06T13:09:27',
    ( '' ),
    ( '' ),
    'SwSTEP 2.0',
    'SolidWorks 2026',
    '' );
FILE_SCHEMA (( 'AUTOMOTIVE_DESIGN' ));
ENDSEC;

DATA;
#1 = COLOUR_RGB ( '',1.000000000000000000, 0.000000000000000000, 0.000000000000000000 ) ;
#2 =( LENGTH_UNIT ( ) NAMED_UNIT ( * ) SI_UNIT ( .MILLI., .METRE. ) );
#3 =( GEOMETRIC_REPRESENTATION_CONTEXT ( 3 ) GLOBAL_UNCERTAINTY_ASSIGNED_CONTEXT ( ( #133 ) ) GLOBAL_UNIT_ASSIGNED_CONTEXT ( ( #73, #7, #91 ) ) REPRESENTATION_CONTEXT ( 'NONE', 'WORKASPACE' ) );
#4 = APPLICATION_PROTOCOL_DEFINITION ( 'draft international standard', 'automotive_design', 1998, #132 ) ;
#5 = EDGE_LOOP ( 'NONE', ( #74 ) ) ;
#6 = FILL_AREA_STYLE_COLOUR ( '', #1 ) ;
#7 =( NAMED_UNIT ( * ) PLANE_ANGLE_UNIT ( ) SI_UNIT ( $, .RADIAN. ) );
#8 = CYLINDRICAL_SURFACE ( 'NONE', #98, 50.00000000000000000 ) ;
#9 = EDGE_CURVE ( 'NONE', #79, #79, #90, .T. ) ;
#10 = CARTESIAN_POINT ( 'NONE',  ( 0.000000000000000000, 0.000000000000000000, 0.000000000000000000 ) ) ;
#11 = ADVANCED_FACE ( 'NONE', ( #100, #46 ), #8, .T. ) ;
#12 = FILL_AREA_STYLE_COLOUR ( '', #140 ) ;
#13 = PRODUCT_RELATED_PRODUCT_CATEGORY ( 'part', '', ( #101 ) ) ;
#14 = MANIFOLD_SOLID_BREP ( 'Boss-Extrude1', #121 ) ;
#15 = AXIS2_PLACEMENT_3D ( 'NONE', #88, #28, #127 ) ;
#16 = CARTESIAN_POINT ( 'NONE',  ( 0.000000000000000000, 100.0000000000000000, 0.000000000000000000 ) ) ;
#17 = DIRECTION ( 'NONE',  ( 0.000000000000000000, 0.000000000000000000, 1.000000000000000000 ) ) ;
#18 = SURFACE_STYLE_USAGE ( .BOTH. , #62 ) ;
#19 = ORIENTED_EDGE ( 'NONE', *, *, #75, .F. ) ;
#20 = AXIS2_PLACEMENT_3D ( 'NONE', #24, #89, #103 ) ;
#21 =( LENGTH_UNIT ( ) NAMED_UNIT ( * ) SI_UNIT ( .MILLI., .METRE. ) );
#22 = UNCERTAINTY_MEASURE_WITH_UNIT (LENGTH_MEASURE( 1.000000000000000082E-05 ), #21, 'distance_accuracy_value', 'NONE');
#23 = DIRECTION ( 'NONE',  ( 0.000000000000000000, 1.000000000000000000, 0.000000000000000000 ) ) ;
#24 = CARTESIAN_POINT ( 'NONE',  ( 0.000000000000000000, 0.000000000000000000, 0.000000000000000000 ) ) ;
#25 = CARTESIAN_POINT ( 'NONE',  ( 0.000000000000000000, 0.000000000000000000, 0.000000000000000000 ) ) ;
#26 = DIRECTION ( 'NONE',  ( 0.000000000000000000, 1.000000000000000000, 0.000000000000000000 ) ) ;
#27 =( NAMED_UNIT ( * ) PLANE_ANGLE_UNIT ( ) SI_UNIT ( $, .RADIAN. ) );
#28 = DIRECTION ( 'NONE',  ( 0.000000000000000000, 0.000000000000000000, 1.000000000000000000 ) ) ;
#29 = CARTESIAN_POINT ( 'NONE',  ( 129.8588026547804475, -29.07840402331203578, -68.52472038008272648 ) ) ;
#30 =( GEOMETRIC_REPRESENTATION_CONTEXT ( 3 ) GLOBAL_UNCERTAINTY_ASSIGNED_CONTEXT ( ( #22 ) ) GLOBAL_UNIT_ASSIGNED_CONTEXT ( ( #21, #135, #47 ) ) REPRESENTATION_CONTEXT ( 'NONE', 'WORKASPACE' ) );
#31 = EDGE_LOOP ( 'NONE', ( #118 ) ) ;
#32 = DIRECTION ( 'NONE',  ( -0.000000000000000000, -1.000000000000000000, -0.000000000000000000 ) ) ;
#33 = PRODUCT_DEFINITION_SHAPE ( 'NONE', 'NONE',  #65 ) ;
#34 = CARTESIAN_POINT ( 'NONE',  ( 0.000000000000000000, 100.0000000000000000, 0.000000000000000000 ) ) ;
#35 = AXIS2_PLACEMENT_3D ( 'NONE', #108, #107, #17 ) ;
#36 = DIRECTION ( 'NONE',  ( 1.000000000000000000, 0.000000000000000000, 0.000000000000000000 ) ) ;
#37 = PRODUCT_DEFINITION_SHAPE ( 'NONE', 'NONE',  #145 ) ;
#38 = PLANE ( 'NONE',  #106 ) ;
#39 = PRODUCT_DEFINITION ( 'UNKNOWN', '', #82, #110 ) ;
#40 =( REPRESENTATION_RELATIONSHIP ('NONE','NONE', #43, #123 ) REPRESENTATION_RELATIONSHIP_WITH_TRANSFORMATION ( #116 )SHAPE_REPRESENTATION_RELATIONSHIP( ) );
#41 = DIRECTION ( 'NONE',  ( 1.000000000000000000, 0.000000000000000000, 0.000000000000000000 ) ) ;
#42 = AXIS2_PLACEMENT_3D ( 'NONE', #29, #138, #115 ) ;
#43 = SHAPE_REPRESENTATION ( 'C5_display_states__ap214_appear_fe', ( #128, #15, #42 ), #57 ) ;
#44 = CONTEXT_DEPENDENT_SHAPE_REPRESENTATION ( #40, #37 ) ;
#45 = MECHANICAL_DESIGN_GEOMETRIC_PRESENTATION_REPRESENTATION (  '', ( #58 ), #3 ) ;
#46 = FACE_OUTER_BOUND ( 'NONE', #5, .T. ) ;
#47 =( NAMED_UNIT ( * ) SI_UNIT ( $, .STERADIAN. ) SOLID_ANGLE_UNIT ( ) );
#48 = APPLICATION_CONTEXT ( 'automotive_design' ) ;
#49 = PRODUCT ( 'C4_part_1', 'C4_part_1', '', ( #54 ) ) ;
#50 = CARTESIAN_POINT ( 'NONE',  ( 0.000000000000000000, 100.0000000000000000, 50.00000000000000000 ) ) ;
#51 = UNCERTAINTY_MEASURE_WITH_UNIT (LENGTH_MEASURE( 1.000000000000000082E-05 ), #111, 'distance_accuracy_value', 'NONE');
#52 = DIRECTION ( 'NONE',  ( 0.000000000000000000, -0.000000000000000000, 1.000000000000000000 ) ) ;
#53 = CARTESIAN_POINT ( 'NONE',  ( 0.000000000000000000, 0.000000000000000000, 0.000000000000000000 ) ) ;
#54 = PRODUCT_CONTEXT ( 'NONE', #132, 'mechanical' ) ;
#55 = APPLICATION_CONTEXT ( 'automotive_design' ) ;
#56 = APPLICATION_PROTOCOL_DEFINITION ( 'draft international standard', 'automotive_design', 1998, #55 ) ;
#57 =( GEOMETRIC_REPRESENTATION_CONTEXT ( 3 ) GLOBAL_UNCERTAINTY_ASSIGNED_CONTEXT ( ( #102 ) ) GLOBAL_UNIT_ASSIGNED_CONTEXT ( ( #2, #27, #137 ) ) REPRESENTATION_CONTEXT ( 'NONE', 'WORKASPACE' ) );
#58 = STYLED_ITEM ( 'NONE', ( #141 ), #14 ) ;
#59 = SHAPE_DEFINITION_REPRESENTATION ( #76, #123 ) ;
#60 = SURFACE_STYLE_USAGE ( .BOTH. , #93 ) ;
#61 = AXIS2_PLACEMENT_3D ( 'NONE', #10, #26, #52 ) ;
#62 = SURFACE_SIDE_STYLE ('',( #99 ) ) ;
#63 = FILL_AREA_STYLE ('',( #6 ) ) ;
#64 = DIRECTION ( 'NONE',  ( 0.000000000000000000, -0.000000000000000000, 1.000000000000000000 ) ) ;
#65 = PRODUCT_DEFINITION ( 'UNKNOWN', '', #130, #142 ) ;
#66 = PRESENTATION_STYLE_ASSIGNMENT (( #60 ) ) ;
#67 = PRESENTATION_LAYER_ASSIGNMENT (  '', '', ( #136 ) ) ;
#68 = SHAPE_DEFINITION_REPRESENTATION ( #33, #43 ) ;
#69 = ADVANCED_FACE ( 'NONE', ( #86 ), #105, .F. ) ;
#70 = ITEM_DEFINED_TRANSFORMATION ( 'NONE', 'NONE', #42,  #109 ) ;
#71 = AXIS2_PLACEMENT_3D ( 'NONE', #95, #144, #78 ) ;
#72 = DIRECTION ( 'NONE',  ( 0.000000000000000000, 0.000000000000000000, -1.000000000000000000 ) ) ;
#73 =( LENGTH_UNIT ( ) NAMED_UNIT ( * ) SI_UNIT ( .MILLI., .METRE. ) );
#74 = ORIENTED_EDGE ( 'NONE', *, *, #9, .T. ) ;
#75 = EDGE_CURVE ( 'NONE', #84, #84, #124, .T. ) ;
#76 = PRODUCT_DEFINITION_SHAPE ( 'NONE', 'NONE',  #39 ) ;
#77 = DIRECTION ( 'NONE',  ( 0.000000000000000000, 0.000000000000000000, 1.000000000000000000 ) ) ;
#78 = DIRECTION ( 'NONE',  ( 0.000000000000000000, 0.000000000000000000, 1.000000000000000000 ) ) ;
#79 = VERTEX_POINT ( 'NONE', #122 ) ;
#80 = ADVANCED_FACE ( 'NONE', ( #94 ), #38, .T. ) ;
#81 = CONTEXT_DEPENDENT_SHAPE_REPRESENTATION ( #113, #92 ) ;
#82 = PRODUCT_DEFINITION_FORMATION_WITH_SPECIFIED_SOURCE ( 'ANY', '', #49, .NOT_KNOWN. ) ;
#83 = APPLICATION_CONTEXT ( 'automotive_design' ) ;
#84 = VERTEX_POINT ( 'NONE', #50 ) ;
#85 =( GEOMETRIC_REPRESENTATION_CONTEXT ( 3 ) GLOBAL_UNCERTAINTY_ASSIGNED_CONTEXT ( ( #51 ) ) GLOBAL_UNIT_ASSIGNED_CONTEXT ( ( #111, #87, #125 ) ) REPRESENTATION_CONTEXT ( 'NONE', 'WORKASPACE' ) );
#86 = FACE_OUTER_BOUND ( 'NONE', #31, .T. ) ;
#87 =( NAMED_UNIT ( * ) PLANE_ANGLE_UNIT ( ) SI_UNIT ( $, .RADIAN. ) );
#88 = CARTESIAN_POINT ( 'NONE',  ( 0.000000000000000000, 0.000000000000000000, 0.000000000000000000 ) ) ;
#89 = DIRECTION ( 'NONE',  ( 0.000000000000000000, 0.000000000000000000, 1.000000000000000000 ) ) ;
#90 = CIRCLE ( 'NONE', #35, 50.00000000000000000 ) ;
#91 =( NAMED_UNIT ( * ) SI_UNIT ( $, .STERADIAN. ) SOLID_ANGLE_UNIT ( ) );
#92 = PRODUCT_DEFINITION_SHAPE ( 'NONE', 'NONE',  #146 ) ;
#93 = SURFACE_SIDE_STYLE ('',( #114 ) ) ;
#94 = FACE_OUTER_BOUND ( 'NONE', #120, .T. ) ;
#95 = CARTESIAN_POINT ( 'NONE',  ( 0.000000000000000000, 100.0000000000000000, 0.000000000000000000 ) ) ;
#96 = APPLICATION_PROTOCOL_DEFINITION ( 'draft international standard', 'automotive_design', 1998, #83 ) ;
#97 = ADVANCED_BREP_SHAPE_REPRESENTATION ( '', ( #14, #109 ), #30 ) ;
#98 = AXIS2_PLACEMENT_3D ( 'NONE', #16, #32, #72 ) ;
#99 = SURFACE_STYLE_FILL_AREA ( #63 ) ;
#100 = FACE_OUTER_BOUND ( 'NONE', #129, .T. ) ;
#101 = PRODUCT ( 'C5_display_states__ap214_appear_fe', 'C5_display_states__ap214_appear_fe', '', ( #117 ) ) ;
#102 = UNCERTAINTY_MEASURE_WITH_UNIT (LENGTH_MEASURE( 1.000000000000000082E-05 ), #2, 'distance_accuracy_value', 'NONE');
#103 = DIRECTION ( 'NONE',  ( 1.000000000000000000, 0.000000000000000000, 0.000000000000000000 ) ) ;
#104 = DIRECTION ( 'NONE',  ( 0.000000000000000000, 0.000000000000000000, 1.000000000000000000 ) ) ;
#105 = PLANE ( 'NONE',  #61 ) ;
#106 = AXIS2_PLACEMENT_3D ( 'NONE', #34, #23, #64 ) ;
#107 = DIRECTION ( 'NONE',  ( 0.000000000000000000, 1.000000000000000000, 0.000000000000000000 ) ) ;
#108 = CARTESIAN_POINT ( 'NONE',  ( 0.000000000000000000, 0.000000000000000000, 0.000000000000000000 ) ) ;
#109 = AXIS2_PLACEMENT_3D ( 'NONE', #25, #77, #36 ) ;
#110 = PRODUCT_DEFINITION_CONTEXT ( 'detailed design', #55, 'design' ) ;
#111 =( LENGTH_UNIT ( ) NAMED_UNIT ( * ) SI_UNIT ( .MILLI., .METRE. ) );
#112 = PRODUCT_RELATED_PRODUCT_CATEGORY ( 'part', '', ( #49 ) ) ;
#113 =( REPRESENTATION_RELATIONSHIP ('NONE','NONE', #43, #123 ) REPRESENTATION_RELATIONSHIP_WITH_TRANSFORMATION ( #70 )SHAPE_REPRESENTATION_RELATIONSHIP( ) );
#114 = SURFACE_STYLE_FILL_AREA ( #143 ) ;
#115 = DIRECTION ( 'NONE',  ( 1.000000000000000000, 0.000000000000000000, 0.000000000000000000 ) ) ;
#116 = ITEM_DEFINED_TRANSFORMATION ( 'NONE', 'NONE', #15,  #109 ) ;
#117 = PRODUCT_CONTEXT ( 'NONE', #83, 'mechanical' ) ;
#118 = ORIENTED_EDGE ( 'NONE', *, *, #9, .F. ) ;
#119 = ORIENTED_EDGE ( 'NONE', *, *, #75, .T. ) ;
#120 = EDGE_LOOP ( 'NONE', ( #119 ) ) ;
#121 = CLOSED_SHELL ( 'NONE', ( #11, #80, #69 ) ) ;
#122 = CARTESIAN_POINT ( 'NONE',  ( 0.000000000000000000, 0.000000000000000000, 50.00000000000000000 ) ) ;
#123 = SHAPE_REPRESENTATION ( 'C4_part_1', ( #109 ), #30 ) ;
#124 = CIRCLE ( 'NONE', #71, 50.00000000000000000 ) ;
#125 =( NAMED_UNIT ( * ) SI_UNIT ( $, .STERADIAN. ) SOLID_ANGLE_UNIT ( ) );
#126 = APPLICATION_PROTOCOL_DEFINITION ( 'draft international standard', 'automotive_design', 1998, #48 ) ;
#127 = DIRECTION ( 'NONE',  ( 1.000000000000000000, 0.000000000000000000, 0.000000000000000000 ) ) ;
#128 = AXIS2_PLACEMENT_3D ( 'NONE', #53, #104, #41 ) ;
#129 = EDGE_LOOP ( 'NONE', ( #19 ) ) ;
#130 = PRODUCT_DEFINITION_FORMATION_WITH_SPECIFIED_SOURCE ( 'ANY', '', #101, .NOT_KNOWN. ) ;
#131 = PRESENTATION_LAYER_ASSIGNMENT (  '', '', ( #58 ) ) ;
#132 = APPLICATION_CONTEXT ( 'automotive_design' ) ;
#133 = UNCERTAINTY_MEASURE_WITH_UNIT (LENGTH_MEASURE( 1.000000000000000082E-05 ), #73, 'distance_accuracy_value', 'NONE');
#134 = SHAPE_REPRESENTATION_RELATIONSHIP ( 'NONE' , 'NONE' ,  #123, #97 ) ;
#135 =( NAMED_UNIT ( * ) PLANE_ANGLE_UNIT ( ) SI_UNIT ( $, .RADIAN. ) );
#136 = STYLED_ITEM ( 'NONE', ( #66 ), #97 ) ;
#137 =( NAMED_UNIT ( * ) SI_UNIT ( $, .STERADIAN. ) SOLID_ANGLE_UNIT ( ) );
#138 = DIRECTION ( 'NONE',  ( 0.000000000000000000, 0.000000000000000000, 1.000000000000000000 ) ) ;
#139 = MECHANICAL_DESIGN_GEOMETRIC_PRESENTATION_REPRESENTATION (  '', ( #136 ), #85 ) ;
#140 = COLOUR_RGB ( '',0.9098039215686274384, 0.4431372549019607643, 0.03137254901960784270 ) ;
#141 = PRESENTATION_STYLE_ASSIGNMENT (( #18 ) ) ;
#142 = PRODUCT_DEFINITION_CONTEXT ( 'detailed design', #48, 'design' ) ;
#143 = FILL_AREA_STYLE ('',( #12 ) ) ;
#144 = DIRECTION ( 'NONE',  ( 0.000000000000000000, 1.000000000000000000, 0.000000000000000000 ) ) ;
#145 = NEXT_ASSEMBLY_USAGE_OCCURRENCE ( 'NAUO1', ' ', ' ', #65, #39, $ ) ;
#146 = NEXT_ASSEMBLY_USAGE_OCCURRENCE ( 'NAUO2', ' ', ' ', #65, #39, $ ) ;
ENDSEC;
END-ISO-10303-21;
