ISO-10303-21;
HEADER;
FILE_DESCRIPTION (( 'STEP AP203' ),
    '1' );
FILE_NAME ('C5_display_states__ap203.step',
    '2026-08-06T13:09:27',
    ( '' ),
    ( '' ),
    'SwSTEP 2.0',
    'SolidWorks 2026',
    '' );
FILE_SCHEMA (( 'CONFIG_CONTROL_DESIGN' ));
ENDSEC;

DATA;
#1 = CC_DESIGN_PERSON_AND_ORGANIZATION_ASSIGNMENT ( #255, #223, ( #157 ) ) ;
#2 = PERSON_AND_ORGANIZATION_ROLE ( 'design_owner' ) ;
#3 = EDGE_LOOP ( 'NONE', ( #172 ) ) ;
#4 = APPROVAL_DATE_TIME ( #189, #80 ) ;
#5 = CARTESIAN_POINT ( 'NONE',  ( 0.000000000000000000, 100.0000000000000000, 0.000000000000000000 ) ) ;
#6 = CC_DESIGN_DATE_AND_TIME_ASSIGNMENT ( #94, #111, ( #72 ) ) ;
#7 = CYLINDRICAL_SURFACE ( 'NONE', #98, 50.00000000000000000 ) ;
#8 = APPROVAL_PERSON_ORGANIZATION ( #52, #16, #275 ) ;
#9 = CC_DESIGN_APPROVAL ( #280, ( #277 ) ) ;
#10 =( GEOMETRIC_REPRESENTATION_CONTEXT ( 3 ) GLOBAL_UNCERTAINTY_ASSIGNED_CONTEXT ( ( #63 ) ) GLOBAL_UNIT_ASSIGNED_CONTEXT ( ( #139, #76, #57 ) ) REPRESENTATION_CONTEXT ( 'NONE', 'WORKASPACE' ) );
#11 = AXIS2_PLACEMENT_3D ( 'NONE', #95, #264, #171 ) ;
#12 = PERSON_AND_ORGANIZATION_ROLE ( 'creator' ) ;
#13 = PERSON ( 'NAUO-PER1', 'UNSPECIFIED', 'UNSPECIFIED', ('UNSPECIFIED'), ('UNSPECIFIED'), ('UNSPECIFIED') ) ;
#14 = CONTEXT_DEPENDENT_SHAPE_REPRESENTATION ( #152, #208 ) ;
#15 = CALENDAR_DATE ( 2026, 6, 8 ) ;
#16 = APPROVAL ( #164, 'UNSPECIFIED' ) ;
#17 = CARTESIAN_POINT ( 'NONE',  ( 0.000000000000000000, 0.000000000000000000, 0.000000000000000000 ) ) ;
#18 = PERSON_AND_ORGANIZATION ( #120, #44 ) ;
#19 = DATE_AND_TIME ( #227, #273 ) ;
#20 = CC_DESIGN_DATE_AND_TIME_ASSIGNMENT ( #240, #263, ( #119 ) ) ;
#21 = CALENDAR_DATE ( 2026, 6, 8 ) ;
#22 = CC_DESIGN_PERSON_AND_ORGANIZATION_ASSIGNMENT ( #137, #249, ( #115 ) ) ;
#23 = ORGANIZATION ( 'NAUO-ORG2', 'UNSPECIFIED', 'UNSPECIFIED' ) ;
#24 = DATE_AND_TIME ( #21, #256 ) ;
#25 = DESIGN_CONTEXT ( 'detailed design', #269, 'design' ) ;
#26 = APPROVAL_DATE_TIME ( #24, #280 ) ;
#27 = CARTESIAN_POINT ( 'NONE',  ( 0.000000000000000000, 0.000000000000000000, 0.000000000000000000 ) ) ;
#28 = ADVANCED_FACE ( 'NONE', ( #146 ), #215, .T. ) ;
#29 = CC_DESIGN_SECURITY_CLASSIFICATION ( #157, ( #291 ) ) ;
#30 = SHAPE_DEFINITION_REPRESENTATION ( #271, #145 ) ;
#31 = DIRECTION ( 'NONE',  ( 0.000000000000000000, 0.000000000000000000, 1.000000000000000000 ) ) ;
#32 = CC_DESIGN_DATE_AND_TIME_ASSIGNMENT ( #155, #175, ( #180 ) ) ;
#33 = DIRECTION ( 'NONE',  ( 0.000000000000000000, -0.000000000000000000, 1.000000000000000000 ) ) ;
#34 = VERTEX_POINT ( 'NONE', #170 ) ;
#35 = PERSON ( 'NAUO-PER2', 'UNSPECIFIED', 'UNSPECIFIED', ('UNSPECIFIED'), ('UNSPECIFIED'), ('UNSPECIFIED') ) ;
#36 = PRODUCT_RELATED_PRODUCT_CATEGORY ( 'detail', '', ( #268 ) ) ;
#37 = PERSON_AND_ORGANIZATION_ROLE ( 'design_supplier' ) ;
#38 = CLOSED_SHELL ( 'NONE', ( #91, #28, #144 ) ) ;
#39 = APPROVAL ( #201, 'UNKNOWN' ) ;
#40 = SECURITY_CLASSIFICATION_LEVEL ( 'unclassified' ) ;
#41 = APPROVAL_STATUS ( 'not_yet_approved' ) ;
#42 = MECHANICAL_CONTEXT ( 'NONE', #218, 'mechanical' ) ;
#43 = APPROVAL ( #257, 'UNKNOWN' ) ;
#44 = ORGANIZATION ( 'UNSPECIFIED', 'UNSPECIFIED', '' ) ;
#45 = DATE_TIME_ROLE ( 'classification_date' ) ;
#46 = ORIENTED_EDGE ( 'NONE', *, *, #252, .T. ) ;
#47 = APPLICATION_CONTEXT ( 'configuration controlled 3d designs of mechanical parts and assemblies' ) ;
#48 = APPROVAL_STATUS ( 'not_yet_approved' ) ;
#49 = CALENDAR_DATE ( 2026, 6, 8 ) ;
#50 = PRODUCT_DEFINITION_FORMATION_WITH_SPECIFIED_SOURCE ( 'ANY', '', #268, .NOT_KNOWN. ) ;
#51 = FACE_OUTER_BOUND ( 'NONE', #205, .T. ) ;
#52 = PERSON_AND_ORGANIZATION ( #120, #44 ) ;
#53 = UNCERTAINTY_MEASURE_WITH_UNIT (LENGTH_MEASURE( 1.000000000000000082E-05 ), #225, 'distance_accuracy_value', 'NONE');
#54 = COORDINATED_UNIVERSAL_TIME_OFFSET ( 0, 0, .AHEAD. ) ;
#55 = CARTESIAN_POINT ( 'NONE',  ( 0.000000000000000000, 0.000000000000000000, 0.000000000000000000 ) ) ;
#56 = CC_DESIGN_PERSON_AND_ORGANIZATION_ASSIGNMENT ( #167, #71, ( #50 ) ) ;
#57 =( NAMED_UNIT ( * ) SI_UNIT ( $, .STERADIAN. ) SOLID_ANGLE_UNIT ( ) );
#58 = CC_DESIGN_PERSON_AND_ORGANIZATION_ASSIGNMENT ( #195, #203, ( #277 ) ) ;
#59 = CARTESIAN_POINT ( 'NONE',  ( 0.000000000000000000, 0.000000000000000000, 0.000000000000000000 ) ) ;
#60 = AXIS2_PLACEMENT_3D ( 'NONE', #27, #114, #212 ) ;
#61 = APPROVAL_STATUS ( 'not_yet_approved' ) ;
#62 = COORDINATED_UNIVERSAL_TIME_OFFSET ( 0, 0, .AHEAD. ) ;
#63 = UNCERTAINTY_MEASURE_WITH_UNIT (LENGTH_MEASURE( 1.000000000000000082E-05 ), #139, 'distance_accuracy_value', 'NONE');
#64 = CALENDAR_DATE ( 2026, 6, 8 ) ;
#65 = LOCAL_TIME ( 14, 9, 27.00000000000000000, #176 ) ;
#66 = PERSON_AND_ORGANIZATION ( #120, #44 ) ;
#67 = LOCAL_TIME ( 14, 9, 27.00000000000000000, #261 ) ;
#68 = ADVANCED_BREP_SHAPE_REPRESENTATION ( '', ( #132, #122 ), #10 ) ;
#69 = COORDINATED_UNIVERSAL_TIME_OFFSET ( 0, 0, .AHEAD. ) ;
#70 = CC_DESIGN_DATE_AND_TIME_ASSIGNMENT ( #258, #128, ( #157 ) ) ;
#71 = PERSON_AND_ORGANIZATION_ROLE ( 'creator' ) ;
#72 = PRODUCT_DEFINITION ( 'UNKNOWN', '', #50, #25 ) ;
#73 = DIRECTION ( 'NONE',  ( 0.000000000000000000, 0.000000000000000000, 1.000000000000000000 ) ) ;
#74 = COORDINATED_UNIVERSAL_TIME_OFFSET ( 0, 0, .AHEAD. ) ;
#75 = DIRECTION ( 'NONE',  ( 0.000000000000000000, 1.000000000000000000, 0.000000000000000000 ) ) ;
#76 =( NAMED_UNIT ( * ) PLANE_ANGLE_UNIT ( ) SI_UNIT ( $, .RADIAN. ) );
#77 = CC_DESIGN_PERSON_AND_ORGANIZATION_ASSIGNMENT ( #283, #135, ( #226 ) ) ;
#78 = APPROVAL_PERSON_ORGANIZATION ( #106, #86, #286 ) ;
#79 = VERTEX_POINT ( 'NONE', #279 ) ;
#80 = APPROVAL ( #48, 'UNSPECIFIED' ) ;
#81 = DIRECTION ( 'NONE',  ( -0.000000000000000000, -1.000000000000000000, -0.000000000000000000 ) ) ;
#82 = CC_DESIGN_SECURITY_CLASSIFICATION ( #277, ( #109 ) ) ;
#83 = APPROVAL_ROLE ( '' ) ;
#84 = AXIS2_PLACEMENT_3D ( 'NONE', #232, #276, #278 ) ;
#85 = APPROVAL_ROLE ( '' ) ;
#86 = APPROVAL ( #41, 'UNSPECIFIED' ) ;
#87 = COORDINATED_UNIVERSAL_TIME_OFFSET ( 0, 0, .AHEAD. ) ;
#88 = DATE_AND_TIME ( #198, #67 ) ;
#89 = CC_DESIGN_SECURITY_CLASSIFICATION ( #115, ( #50 ) ) ;
#90 = SHAPE_DEFINITION_REPRESENTATION ( #285, #121 ) ;
#91 = ADVANCED_FACE ( 'NONE', ( #190, #51 ), #7, .T. ) ;
#92 = APPROVAL_ROLE ( '' ) ;
#93 = APPROVAL ( #184, 'UNSPECIFIED' ) ;
#94 = DATE_AND_TIME ( #188, #247 ) ;
#95 = CARTESIAN_POINT ( 'NONE',  ( 129.8588026547804475, -29.07840402331203578, -68.52472038008272648 ) ) ;
#96 = DIRECTION ( 'NONE',  ( 0.000000000000000000, -0.000000000000000000, 1.000000000000000000 ) ) ;
#97 = CC_DESIGN_APPROVAL ( #86, ( #109 ) ) ;
#98 = AXIS2_PLACEMENT_3D ( 'NONE', #168, #81, #191 ) ;
#99 = APPROVAL_DATE_TIME ( #88, #39 ) ;
#100 = LOCAL_TIME ( 14, 9, 27.00000000000000000, #181 ) ;
#101 = AXIS2_PLACEMENT_3D ( 'NONE', #59, #75, #31 ) ;
#102 = APPROVAL_DATE_TIME ( #151, #43 ) ;
#103 = CC_DESIGN_PERSON_AND_ORGANIZATION_ASSIGNMENT ( #241, #37, ( #109 ) ) ;
#104 = APPLICATION_PROTOCOL_DEFINITION ( 'international standard', 'config_control_design', 1994, #218 ) ;
#105 = LOCAL_TIME ( 14, 9, 27.00000000000000000, #173 ) ;
#106 = PERSON_AND_ORGANIZATION ( #120, #44 ) ;
#107 = APPROVAL_STATUS ( 'not_yet_approved' ) ;
#108 = APPROVAL_DATE_TIME ( #19, #93 ) ;
#109 = PRODUCT_DEFINITION_FORMATION_WITH_SPECIFIED_SOURCE ( 'ANY', '', #226, .NOT_KNOWN. ) ;
#110 = ITEM_DEFINED_TRANSFORMATION ( 'NONE', 'NONE', #60,  #122 ) ;
#111 = DATE_TIME_ROLE ( 'creation_date' ) ;
#112 = SHAPE_REPRESENTATION_RELATIONSHIP ( 'NONE' , 'NONE' ,  #121, #68 ) ;
#113 = DATE_TIME_ROLE ( 'classification_date' ) ;
#114 = DIRECTION ( 'NONE',  ( 0.000000000000000000, 0.000000000000000000, 1.000000000000000000 ) ) ;
#115 = SECURITY_CLASSIFICATION ( '', '', #140 ) ;
#116 = PERSON_AND_ORGANIZATION ( #120, #44 ) ;
#117 = FACE_OUTER_BOUND ( 'NONE', #136, .T. ) ;
#118 = CC_DESIGN_SECURITY_CLASSIFICATION ( #180, ( #292 ) ) ;
#119 = PRODUCT_DEFINITION ( 'UNKNOWN', '', #109, #265 ) ;
#120 = PERSON ( 'UNSPECIFIED', 'UNSPECIFIED', 'UNSPECIFIED', ('UNSPECIFIED'), ('UNSPECIFIED'), ('UNSPECIFIED') ) ;
#121 = SHAPE_REPRESENTATION ( 'C4_part_1', ( #122 ), #10 ) ;
#122 = AXIS2_PLACEMENT_3D ( 'NONE', #214, #194, #228 ) ;
#123 = CIRCLE ( 'NONE', #84, 50.00000000000000000 ) ;
#124 = PERSON_AND_ORGANIZATION ( #120, #44 ) ;
#125 = CC_DESIGN_PERSON_AND_ORGANIZATION_ASSIGNMENT ( #116, #2, ( #268 ) ) ;
#126 =( NAMED_UNIT ( * ) PLANE_ANGLE_UNIT ( ) SI_UNIT ( $, .RADIAN. ) );
#127 = LOCAL_TIME ( 14, 9, 27.00000000000000000, #281 ) ;
#128 = DATE_TIME_ROLE ( 'classification_date' ) ;
#129 =( REPRESENTATION_RELATIONSHIP ('NONE','NONE', #145, #121 ) REPRESENTATION_RELATIONSHIP_WITH_TRANSFORMATION ( #178 )SHAPE_REPRESENTATION_RELATIONSHIP( ) );
#130 = APPROVAL_ROLE ( '' ) ;
#131 = DATE_AND_TIME ( #64, #105 ) ;
#132 = MANIFOLD_SOLID_BREP ( 'Boss-Extrude1', #38 ) ;
#133 = SECURITY_CLASSIFICATION_LEVEL ( 'unclassified' ) ;
#134 = AXIS2_PLACEMENT_3D ( 'NONE', #5, #142, #96 ) ;
#135 = PERSON_AND_ORGANIZATION_ROLE ( 'design_owner' ) ;
#136 = EDGE_LOOP ( 'NONE', ( #147 ) ) ;
#137 = PERSON_AND_ORGANIZATION ( #120, #44 ) ;
#138 = PERSON_AND_ORGANIZATION_ROLE ( 'design_supplier' ) ;
#139 =( LENGTH_UNIT ( ) NAMED_UNIT ( * ) SI_UNIT ( .MILLI., .METRE. ) );
#140 = SECURITY_CLASSIFICATION_LEVEL ( 'unclassified' ) ;
#141 = PERSON_AND_ORGANIZATION ( #120, #44 ) ;
#142 = DIRECTION ( 'NONE',  ( 0.000000000000000000, 1.000000000000000000, 0.000000000000000000 ) ) ;
#143 = ORGANIZATION ( 'NAUO-ORG1', 'UNSPECIFIED', 'UNSPECIFIED' ) ;
#144 = ADVANCED_FACE ( 'NONE', ( #117 ), #251, .F. ) ;
#145 = SHAPE_REPRESENTATION ( 'C5_display_states__ap203', ( #237, #60, #11 ), #260 ) ;
#146 = FACE_OUTER_BOUND ( 'NONE', #158, .T. ) ;
#147 = ORIENTED_EDGE ( 'NONE', *, *, #289, .F. ) ;
#148 =( NAMED_UNIT ( * ) SI_UNIT ( $, .STERADIAN. ) SOLID_ANGLE_UNIT ( ) );
#149 = CC_DESIGN_APPROVAL ( #207, ( #119 ) ) ;
#150 = DIRECTION ( 'NONE',  ( 0.000000000000000000, 0.000000000000000000, 1.000000000000000000 ) ) ;
#151 = DATE_AND_TIME ( #222, #100 ) ;
#152 =( REPRESENTATION_RELATIONSHIP ('NONE','NONE', #145, #121 ) REPRESENTATION_RELATIONSHIP_WITH_TRANSFORMATION ( #110 )SHAPE_REPRESENTATION_RELATIONSHIP( ) );
#153 = CC_DESIGN_PERSON_AND_ORGANIZATION_ASSIGNMENT ( #202, #12, ( #119 ) ) ;
#154 = CALENDAR_DATE ( 2026, 6, 8 ) ;
#155 = DATE_AND_TIME ( #262, #160 ) ;
#156 = CALENDAR_DATE ( 2026, 6, 8 ) ;
#157 = SECURITY_CLASSIFICATION ( '', '', #221 ) ;
#158 = EDGE_LOOP ( 'NONE', ( #46 ) ) ;
#159 = COORDINATED_UNIVERSAL_TIME_OFFSET ( 0, 0, .AHEAD. ) ;
#160 = LOCAL_TIME ( 14, 9, 27.00000000000000000, #87 ) ;
#161 = CC_DESIGN_PERSON_AND_ORGANIZATION_ASSIGNMENT ( #124, #235, ( #109 ) ) ;
#162 = APPROVAL_DATE_TIME ( #270, #16 ) ;
#163 = LOCAL_TIME ( 14, 9, 27.00000000000000000, #69 ) ;
#164 = APPROVAL_STATUS ( 'not_yet_approved' ) ;
#165 = CC_DESIGN_APPROVAL ( #39, ( #180 ) ) ;
#166 = APPROVAL_PERSON_ORGANIZATION ( #238, #39, #130 ) ;
#167 = PERSON_AND_ORGANIZATION ( #120, #44 ) ;
#168 = CARTESIAN_POINT ( 'NONE',  ( 0.000000000000000000, 100.0000000000000000, 0.000000000000000000 ) ) ;
#169 = DIRECTION ( 'NONE',  ( 0.000000000000000000, 1.000000000000000000, 0.000000000000000000 ) ) ;
#170 = CARTESIAN_POINT ( 'NONE',  ( 0.000000000000000000, 0.000000000000000000, 50.00000000000000000 ) ) ;
#171 = DIRECTION ( 'NONE',  ( 1.000000000000000000, 0.000000000000000000, 0.000000000000000000 ) ) ;
#172 = ORIENTED_EDGE ( 'NONE', *, *, #252, .F. ) ;
#173 = COORDINATED_UNIVERSAL_TIME_OFFSET ( 0, 0, .AHEAD. ) ;
#174 = LOCAL_TIME ( 14, 9, 27.00000000000000000, #272 ) ;
#175 = DATE_TIME_ROLE ( 'classification_date' ) ;
#176 = COORDINATED_UNIVERSAL_TIME_OFFSET ( 0, 0, .AHEAD. ) ;
#177 = PRODUCT_RELATED_PRODUCT_CATEGORY ( 'detail', '', ( #226 ) ) ;
#178 = ITEM_DEFINED_TRANSFORMATION ( 'NONE', 'NONE', #11,  #122 ) ;
#179 = CALENDAR_DATE ( 2026, 6, 8 ) ;
#180 = SECURITY_CLASSIFICATION ( '', '', #40 ) ;
#181 = COORDINATED_UNIVERSAL_TIME_OFFSET ( 0, 0, .AHEAD. ) ;
#182 = PRODUCT_DEFINITION_SHAPE ( 'NONE', 'NONE',  #292 ) ;
#183 = DIRECTION ( 'NONE',  ( 1.000000000000000000, 0.000000000000000000, 0.000000000000000000 ) ) ;
#184 = APPROVAL_STATUS ( 'not_yet_approved' ) ;
#185 = CC_DESIGN_APPROVAL ( #93, ( #115 ) ) ;
#186 = CALENDAR_DATE ( 2026, 6, 8 ) ;
#187 = CC_DESIGN_PERSON_AND_ORGANIZATION_ASSIGNMENT ( #238, #236, ( #180 ) ) ;
#188 = CALENDAR_DATE ( 2026, 6, 8 ) ;
#189 = DATE_AND_TIME ( #186, #200 ) ;
#190 = FACE_OUTER_BOUND ( 'NONE', #3, .T. ) ;
#191 = DIRECTION ( 'NONE',  ( 0.000000000000000000, 0.000000000000000000, -1.000000000000000000 ) ) ;
#192 = APPROVAL_PERSON_ORGANIZATION ( #18, #280, #92 ) ;
#193 = AXIS2_PLACEMENT_3D ( 'NONE', #233, #169, #33 ) ;
#194 = DIRECTION ( 'NONE',  ( 0.000000000000000000, 0.000000000000000000, 1.000000000000000000 ) ) ;
#195 = PERSON_AND_ORGANIZATION ( #120, #44 ) ;
#196 = APPLICATION_PROTOCOL_DEFINITION ( 'international standard', 'config_control_design', 1994, #229 ) ;
#197 = CC_DESIGN_APPROVAL ( #43, ( #157 ) ) ;
#198 = CALENDAR_DATE ( 2026, 6, 8 ) ;
#199 = CC_DESIGN_DATE_AND_TIME_ASSIGNMENT ( #230, #113, ( #115 ) ) ;
#200 = LOCAL_TIME ( 14, 9, 27.00000000000000000, #74 ) ;
#201 = APPROVAL_STATUS ( 'not_yet_approved' ) ;
#202 = PERSON_AND_ORGANIZATION ( #120, #44 ) ;
#203 = PERSON_AND_ORGANIZATION_ROLE ( 'classification_officer' ) ;
#204 = DATE_AND_TIME ( #154, #254 ) ;
#205 = EDGE_LOOP ( 'NONE', ( #242 ) ) ;
#206 = CALENDAR_DATE ( 2026, 6, 8 ) ;
#207 = APPROVAL ( #61, 'UNSPECIFIED' ) ;
#208 = PRODUCT_DEFINITION_SHAPE ( 'NONE', 'NONE',  #291 ) ;
#209 = AXIS2_PLACEMENT_3D ( 'NONE', #55, #73, #231 ) ;
#210 = CC_DESIGN_PERSON_AND_ORGANIZATION_ASSIGNMENT ( #66, #288, ( #72 ) ) ;
#211 = MECHANICAL_CONTEXT ( 'NONE', #47, 'mechanical' ) ;
#212 = DIRECTION ( 'NONE',  ( 1.000000000000000000, 0.000000000000000000, 0.000000000000000000 ) ) ;
#213 = APPLICATION_PROTOCOL_DEFINITION ( 'international standard', 'config_control_design', 1994, #47 ) ;
#214 = CARTESIAN_POINT ( 'NONE',  ( 0.000000000000000000, 0.000000000000000000, 0.000000000000000000 ) ) ;
#215 = PLANE ( 'NONE',  #134 ) ;
#216 = CC_DESIGN_APPROVAL ( #16, ( #72 ) ) ;
#217 = COORDINATED_UNIVERSAL_TIME_OFFSET ( 0, 0, .AHEAD. ) ;
#218 = APPLICATION_CONTEXT ( 'configuration controlled 3d designs of mechanical parts and assemblies' ) ;
#219 = PERSON_AND_ORGANIZATION ( #120, #44 ) ;
#220 = LOCAL_TIME ( 14, 9, 27.00000000000000000, #217 ) ;
#221 = SECURITY_CLASSIFICATION_LEVEL ( 'unclassified' ) ;
#222 = CALENDAR_DATE ( 2026, 6, 8 ) ;
#223 = PERSON_AND_ORGANIZATION_ROLE ( 'classification_officer' ) ;
#224 = CONTEXT_DEPENDENT_SHAPE_REPRESENTATION ( #129, #182 ) ;
#225 =( LENGTH_UNIT ( ) NAMED_UNIT ( * ) SI_UNIT ( .MILLI., .METRE. ) );
#226 = PRODUCT ( 'C5_display_states__ap203', 'C5_display_states__ap203', '', ( #42 ) ) ;
#227 = CALENDAR_DATE ( 2026, 6, 8 ) ;
#228 = DIRECTION ( 'NONE',  ( 1.000000000000000000, 0.000000000000000000, 0.000000000000000000 ) ) ;
#229 = APPLICATION_CONTEXT ( 'configuration controlled 3d designs of mechanical parts and assemblies' ) ;
#230 = DATE_AND_TIME ( #49, #163 ) ;
#231 = DIRECTION ( 'NONE',  ( 1.000000000000000000, 0.000000000000000000, 0.000000000000000000 ) ) ;
#232 = CARTESIAN_POINT ( 'NONE',  ( 0.000000000000000000, 100.0000000000000000, 0.000000000000000000 ) ) ;
#233 = CARTESIAN_POINT ( 'NONE',  ( 0.000000000000000000, 0.000000000000000000, 0.000000000000000000 ) ) ;
#234 = APPROVAL_PERSON_ORGANIZATION ( #141, #93, #267 ) ;
#235 = PERSON_AND_ORGANIZATION_ROLE ( 'creator' ) ;
#236 = PERSON_AND_ORGANIZATION_ROLE ( 'classification_officer' ) ;
#237 = AXIS2_PLACEMENT_3D ( 'NONE', #17, #150, #183 ) ;
#238 = PERSON_AND_ORGANIZATION ( #35, #23 ) ;
#239 = CC_DESIGN_DATE_AND_TIME_ASSIGNMENT ( #243, #45, ( #277 ) ) ;
#240 = DATE_AND_TIME ( #179, #220 ) ;
#241 = PERSON_AND_ORGANIZATION ( #120, #44 ) ;
#242 = ORIENTED_EDGE ( 'NONE', *, *, #289, .T. ) ;
#243 = DATE_AND_TIME ( #156, #127 ) ;
#244 = CIRCLE ( 'NONE', #101, 50.00000000000000000 ) ;
#245 = APPLICATION_PROTOCOL_DEFINITION ( 'international standard', 'config_control_design', 1994, #269 ) ;
#246 = PERSON_AND_ORGANIZATION ( #120, #44 ) ;
#247 = LOCAL_TIME ( 14, 9, 27.00000000000000000, #54 ) ;
#248 = PERSON_AND_ORGANIZATION ( #120, #44 ) ;
#249 = PERSON_AND_ORGANIZATION_ROLE ( 'classification_officer' ) ;
#250 = APPROVAL_PERSON_ORGANIZATION ( #255, #43, #85 ) ;
#251 = PLANE ( 'NONE',  #193 ) ;
#252 = EDGE_CURVE ( 'NONE', #79, #79, #123, .T. ) ;
#253 = APPROVAL_DATE_TIME ( #204, #86 ) ;
#254 = LOCAL_TIME ( 14, 9, 27.00000000000000000, #62 ) ;
#255 = PERSON_AND_ORGANIZATION ( #13, #143 ) ;
#256 = LOCAL_TIME ( 14, 9, 27.00000000000000000, #290 ) ;
#257 = APPROVAL_STATUS ( 'not_yet_approved' ) ;
#258 = DATE_AND_TIME ( #15, #65 ) ;
#259 = APPROVAL_DATE_TIME ( #131, #207 ) ;
#260 =( GEOMETRIC_REPRESENTATION_CONTEXT ( 3 ) GLOBAL_UNCERTAINTY_ASSIGNED_CONTEXT ( ( #53 ) ) GLOBAL_UNIT_ASSIGNED_CONTEXT ( ( #225, #126, #148 ) ) REPRESENTATION_CONTEXT ( 'NONE', 'WORKASPACE' ) );
#261 = COORDINATED_UNIVERSAL_TIME_OFFSET ( 0, 0, .AHEAD. ) ;
#262 = CALENDAR_DATE ( 2026, 6, 8 ) ;
#263 = DATE_TIME_ROLE ( 'creation_date' ) ;
#264 = DIRECTION ( 'NONE',  ( 0.000000000000000000, 0.000000000000000000, 1.000000000000000000 ) ) ;
#265 = DESIGN_CONTEXT ( 'detailed design', #229, 'design' ) ;
#266 = APPROVAL_PERSON_ORGANIZATION ( #219, #207, #83 ) ;
#267 = APPROVAL_ROLE ( '' ) ;
#268 = PRODUCT ( 'C4_part_1', 'C4_part_1', '', ( #211 ) ) ;
#269 = APPLICATION_CONTEXT ( 'configuration controlled 3d designs of mechanical parts and assemblies' ) ;
#270 = DATE_AND_TIME ( #206, #174 ) ;
#271 = PRODUCT_DEFINITION_SHAPE ( 'NONE', 'NONE',  #119 ) ;
#272 = COORDINATED_UNIVERSAL_TIME_OFFSET ( 0, 0, .AHEAD. ) ;
#273 = LOCAL_TIME ( 14, 9, 27.00000000000000000, #159 ) ;
#274 = APPROVAL_ROLE ( '' ) ;
#275 = APPROVAL_ROLE ( '' ) ;
#276 = DIRECTION ( 'NONE',  ( 0.000000000000000000, 1.000000000000000000, 0.000000000000000000 ) ) ;
#277 = SECURITY_CLASSIFICATION ( '', '', #133 ) ;
#278 = DIRECTION ( 'NONE',  ( 0.000000000000000000, 0.000000000000000000, 1.000000000000000000 ) ) ;
#279 = CARTESIAN_POINT ( 'NONE',  ( 0.000000000000000000, 100.0000000000000000, 50.00000000000000000 ) ) ;
#280 = APPROVAL ( #107, 'UNSPECIFIED' ) ;
#281 = COORDINATED_UNIVERSAL_TIME_OFFSET ( 0, 0, .AHEAD. ) ;
#282 = APPROVAL_PERSON_ORGANIZATION ( #246, #80, #274 ) ;
#283 = PERSON_AND_ORGANIZATION ( #120, #44 ) ;
#284 = CC_DESIGN_APPROVAL ( #80, ( #50 ) ) ;
#285 = PRODUCT_DEFINITION_SHAPE ( 'NONE', 'NONE',  #72 ) ;
#286 = APPROVAL_ROLE ( '' ) ;
#287 = CC_DESIGN_PERSON_AND_ORGANIZATION_ASSIGNMENT ( #248, #138, ( #50 ) ) ;
#288 = PERSON_AND_ORGANIZATION_ROLE ( 'creator' ) ;
#289 = EDGE_CURVE ( 'NONE', #34, #34, #244, .T. ) ;
#290 = COORDINATED_UNIVERSAL_TIME_OFFSET ( 0, 0, .AHEAD. ) ;
#291 = NEXT_ASSEMBLY_USAGE_OCCURRENCE ( 'NAUO1', ' ', ' ', #119, #72, $ ) ;
#292 = NEXT_ASSEMBLY_USAGE_OCCURRENCE ( 'NAUO2', ' ', ' ', #119, #72, $ ) ;
ENDSEC;
END-ISO-10303-21;
