ISO-10303-21;
HEADER;
FILE_DESCRIPTION (( 'STEP AP214' ),
    '1' );
FILE_NAME ('C5_display_states__ap214_nosplit.step',
    '2026-08-06T13:09:28',
    ( '' ),
    ( '' ),
    'SwSTEP 2.0',
    'SolidWorks 2026',
    '' );
FILE_SCHEMA (( 'AUTOMOTIVE_DESIGN' ));
ENDSEC;

DATA;
#1 = SHAPE_REPRESENTATION_RELATIONSHIP ( 'NONE' , 'NONE' ,  #19, #30 ) ;
#2 = PLANE ( 'NONE',  #5 ) ;
#3 = STYLED_ITEM ( 'NONE', ( #72 ), #11 ) ;
#4 = PRESENTATION_LAYER_ASSIGNMENT (  '', '', ( #130 ) ) ;
#5 = AXIS2_PLACEMENT_3D ( 'NONE', #119, #96, #17 ) ;
#6 = COLOUR_RGB ( '',0.9098039215686274384, 0.4431372549019607643, 0.03137254901960784270 ) ;
#7 = EDGE_LOOP ( 'NONE', ( #26 ) ) ;
#8 = DIRECTION ( 'NONE',  ( 0.000000000000000000, 1.000000000000000000, 0.000000000000000000 ) ) ;
#9 = PRODUCT_DEFINITION_SHAPE ( 'NONE', 'NONE',  #146 ) ;
#10 =( NAMED_UNIT ( * ) PLANE_ANGLE_UNIT ( ) SI_UNIT ( $, .RADIAN. ) );
#11 = MANIFOLD_SOLID_BREP ( 'Boss-Extrude1', #58 ) ;
#12 = UNCERTAINTY_MEASURE_WITH_UNIT (LENGTH_MEASURE( 1.000000000000000082E-05 ), #84, 'distance_accuracy_value', 'NONE');
#13 = CARTESIAN_POINT ( 'NONE',  ( 0.000000000000000000, 0.000000000000000000, 0.000000000000000000 ) ) ;
#14 = SURFACE_STYLE_USAGE ( .BOTH. , #93 ) ;
#15 = FACE_OUTER_BOUND ( 'NONE', #16, .T. ) ;
#16 = EDGE_LOOP ( 'NONE', ( #24 ) ) ;
#17 = DIRECTION ( 'NONE',  ( 0.000000000000000000, -0.000000000000000000, 1.000000000000000000 ) ) ;
#18 = SURFACE_SIDE_STYLE ('',( #46 ) ) ;
#19 = SHAPE_REPRESENTATION ( 'C4_part_1', ( #128 ), #98 ) ;
#20 = DIRECTION ( 'NONE',  ( 0.000000000000000000, 0.000000000000000000, 1.000000000000000000 ) ) ;
#21 = PRODUCT_CONTEXT ( 'NONE', #103, 'mechanical' ) ;
#22 = APPLICATION_PROTOCOL_DEFINITION ( 'draft international standard', 'automotive_design', 1998, #103 ) ;
#23 = DIRECTION ( 'NONE',  ( 0.000000000000000000, 0.000000000000000000, 1.000000000000000000 ) ) ;
#24 = ORIENTED_EDGE ( 'NONE', *, *, #38, .F. ) ;
#25 = ORIENTED_EDGE ( 'NONE', *, *, #124, .T. ) ;
#26 = ORIENTED_EDGE ( 'NONE', *, *, #124, .F. ) ;
#27 = PRODUCT_DEFINITION_CONTEXT ( 'detailed design', #74, 'design' ) ;
#28 = PRODUCT_DEFINITION_FORMATION_WITH_SPECIFIED_SOURCE ( 'ANY', '', #67, .NOT_KNOWN. ) ;
#29 = PRODUCT ( 'C4_part_1', 'C4_part_1', '', ( #80 ) ) ;
#30 = ADVANCED_BREP_SHAPE_REPRESENTATION ( '', ( #11, #128 ), #98 ) ;
#31 = DIRECTION ( 'NONE',  ( -0.000000000000000000, -1.000000000000000000, -0.000000000000000000 ) ) ;
#32 = ITEM_DEFINED_TRANSFORMATION ( 'NONE', 'NONE', #83,  #128 ) ;
#33 = SHAPE_DEFINITION_REPRESENTATION ( #65, #86 ) ;
#34 = APPLICATION_PROTOCOL_DEFINITION ( 'draft international standard', 'automotive_design', 1998, #140 ) ;
#35 =( GEOMETRIC_REPRESENTATION_CONTEXT ( 3 ) GLOBAL_UNCERTAINTY_ASSIGNED_CONTEXT ( ( #54 ) ) GLOBAL_UNIT_ASSIGNED_CONTEXT ( ( #92, #71, #82 ) ) REPRESENTATION_CONTEXT ( 'NONE', 'WORKASPACE' ) );
#36 = CARTESIAN_POINT ( 'NONE',  ( 0.000000000000000000, 0.000000000000000000, 0.000000000000000000 ) ) ;
#37 =( GEOMETRIC_REPRESENTATION_CONTEXT ( 3 ) GLOBAL_UNCERTAINTY_ASSIGNED_CONTEXT ( ( #112 ) ) GLOBAL_UNIT_ASSIGNED_CONTEXT ( ( #78, #10, #144 ) ) REPRESENTATION_CONTEXT ( 'NONE', 'WORKASPACE' ) );
#38 = EDGE_CURVE ( 'NONE', #89, #89, #81, .T. ) ;
#39 = PRESENTATION_LAYER_ASSIGNMENT (  '', '', ( #3 ) ) ;
#40 = CARTESIAN_POINT ( 'NONE',  ( 0.000000000000000000, 100.0000000000000000, 0.000000000000000000 ) ) ;
#41 = PRODUCT_DEFINITION ( 'UNKNOWN', '', #105, #27 ) ;
#42 = FILL_AREA_STYLE_COLOUR ( '', #127 ) ;
#43 =( NAMED_UNIT ( * ) SI_UNIT ( $, .STERADIAN. ) SOLID_ANGLE_UNIT ( ) );
#44 = FACE_OUTER_BOUND ( 'NONE', #7, .T. ) ;
#45 = APPLICATION_CONTEXT ( 'automotive_design' ) ;
#46 = SURFACE_STYLE_FILL_AREA ( #56 ) ;
#47 = DIRECTION ( 'NONE',  ( 1.000000000000000000, 0.000000000000000000, 0.000000000000000000 ) ) ;
#48 = MECHANICAL_DESIGN_GEOMETRIC_PRESENTATION_REPRESENTATION (  '', ( #130 ), #37 ) ;
#49 = CARTESIAN_POINT ( 'NONE',  ( 0.000000000000000000, 0.000000000000000000, 0.000000000000000000 ) ) ;
#50 = DIRECTION ( 'NONE',  ( 0.000000000000000000, 1.000000000000000000, 0.000000000000000000 ) ) ;
#51 =( NAMED_UNIT ( * ) PLANE_ANGLE_UNIT ( ) SI_UNIT ( $, .RADIAN. ) );
#52 = DIRECTION ( 'NONE',  ( 0.000000000000000000, 0.000000000000000000, 1.000000000000000000 ) ) ;
#53 = FILL_AREA_STYLE_COLOUR ( '', #6 ) ;
#54 = UNCERTAINTY_MEASURE_WITH_UNIT (LENGTH_MEASURE( 1.000000000000000082E-05 ), #92, 'distance_accuracy_value', 'NONE');
#55 = PRODUCT_RELATED_PRODUCT_CATEGORY ( 'part', '', ( #29 ) ) ;
#56 = FILL_AREA_STYLE ('',( #53 ) ) ;
#57 = CONTEXT_DEPENDENT_SHAPE_REPRESENTATION ( #104, #9 ) ;
#58 = CLOSED_SHELL ( 'NONE', ( #64, #109, #97 ) ) ;
#59 = AXIS2_PLACEMENT_3D ( 'NONE', #118, #117, #108 ) ;
#60 =( NAMED_UNIT ( * ) SI_UNIT ( $, .STERADIAN. ) SOLID_ANGLE_UNIT ( ) );
#61 = FACE_OUTER_BOUND ( 'NONE', #116, .T. ) ;
#62 = FILL_AREA_STYLE ('',( #42 ) ) ;
#63 = EDGE_LOOP ( 'NONE', ( #107 ) ) ;
#64 = ADVANCED_FACE ( 'NONE', ( #15, #61 ), #66, .T. ) ;
#65 = PRODUCT_DEFINITION_SHAPE ( 'NONE', 'NONE',  #135 ) ;
#66 = CYLINDRICAL_SURFACE ( 'NONE', #121, 50.00000000000000000 ) ;
#67 = PRODUCT ( 'C5_display_states__ap214_nosplit', 'C5_display_states__ap214_nosplit', '', ( #21 ) ) ;
#68 = AXIS2_PLACEMENT_3D ( 'NONE', #40, #50, #126 ) ;
#69 = DIRECTION ( 'NONE',  ( 0.000000000000000000, 0.000000000000000000, 1.000000000000000000 ) ) ;
#70 = APPLICATION_PROTOCOL_DEFINITION ( 'draft international standard', 'automotive_design', 1998, #45 ) ;
#71 =( NAMED_UNIT ( * ) PLANE_ANGLE_UNIT ( ) SI_UNIT ( $, .RADIAN. ) );
#72 = PRESENTATION_STYLE_ASSIGNMENT (( #14 ) ) ;
#73 = PRODUCT_RELATED_PRODUCT_CATEGORY ( 'part', '', ( #67 ) ) ;
#74 = APPLICATION_CONTEXT ( 'automotive_design' ) ;
#75 = CARTESIAN_POINT ( 'NONE',  ( 0.000000000000000000, 100.0000000000000000, 0.000000000000000000 ) ) ;
#76 = CARTESIAN_POINT ( 'NONE',  ( 0.000000000000000000, 0.000000000000000000, 0.000000000000000000 ) ) ;
#77 = FACE_OUTER_BOUND ( 'NONE', #63, .T. ) ;
#78 =( LENGTH_UNIT ( ) NAMED_UNIT ( * ) SI_UNIT ( .MILLI., .METRE. ) );
#79 = DIRECTION ( 'NONE',  ( 0.000000000000000000, 0.000000000000000000, 1.000000000000000000 ) ) ;
#80 = PRODUCT_CONTEXT ( 'NONE', #45, 'mechanical' ) ;
#81 = CIRCLE ( 'NONE', #68, 50.00000000000000000 ) ;
#82 =( NAMED_UNIT ( * ) SI_UNIT ( $, .STERADIAN. ) SOLID_ANGLE_UNIT ( ) );
#83 = AXIS2_PLACEMENT_3D ( 'NONE', #49, #20, #102 ) ;
#84 =( LENGTH_UNIT ( ) NAMED_UNIT ( * ) SI_UNIT ( .MILLI., .METRE. ) );
#85 = PRODUCT_DEFINITION_CONTEXT ( 'detailed design', #140, 'design' ) ;
#86 = SHAPE_REPRESENTATION ( 'C5_display_states__ap214_nosplit', ( #137, #83, #91 ), #35 ) ;
#87 = CARTESIAN_POINT ( 'NONE',  ( 0.000000000000000000, 0.000000000000000000, 50.00000000000000000 ) ) ;
#88 = VERTEX_POINT ( 'NONE', #87 ) ;
#89 = VERTEX_POINT ( 'NONE', #122 ) ;
#90 = PRESENTATION_STYLE_ASSIGNMENT (( #99 ) ) ;
#91 = AXIS2_PLACEMENT_3D ( 'NONE', #138, #79, #47 ) ;
#92 =( LENGTH_UNIT ( ) NAMED_UNIT ( * ) SI_UNIT ( .MILLI., .METRE. ) );
#93 = SURFACE_SIDE_STYLE ('',( #141 ) ) ;
#94 =( REPRESENTATION_RELATIONSHIP ('NONE','NONE', #86, #19 ) REPRESENTATION_RELATIONSHIP_WITH_TRANSFORMATION ( #32 )SHAPE_REPRESENTATION_RELATIONSHIP( ) );
#95 = PLANE ( 'NONE',  #59 ) ;
#96 = DIRECTION ( 'NONE',  ( 0.000000000000000000, 1.000000000000000000, 0.000000000000000000 ) ) ;
#97 = ADVANCED_FACE ( 'NONE', ( #44 ), #2, .F. ) ;
#98 =( GEOMETRIC_REPRESENTATION_CONTEXT ( 3 ) GLOBAL_UNCERTAINTY_ASSIGNED_CONTEXT ( ( #143 ) ) GLOBAL_UNIT_ASSIGNED_CONTEXT ( ( #132, #51, #43 ) ) REPRESENTATION_CONTEXT ( 'NONE', 'WORKASPACE' ) );
#99 = SURFACE_STYLE_USAGE ( .BOTH. , #18 ) ;
#100 = DIRECTION ( 'NONE',  ( 1.000000000000000000, 0.000000000000000000, 0.000000000000000000 ) ) ;
#101 =( GEOMETRIC_REPRESENTATION_CONTEXT ( 3 ) GLOBAL_UNCERTAINTY_ASSIGNED_CONTEXT ( ( #12 ) ) GLOBAL_UNIT_ASSIGNED_CONTEXT ( ( #84, #129, #60 ) ) REPRESENTATION_CONTEXT ( 'NONE', 'WORKASPACE' ) );
#102 = DIRECTION ( 'NONE',  ( 1.000000000000000000, 0.000000000000000000, 0.000000000000000000 ) ) ;
#103 = APPLICATION_CONTEXT ( 'automotive_design' ) ;
#104 =( REPRESENTATION_RELATIONSHIP ('NONE','NONE', #86, #19 ) REPRESENTATION_RELATIONSHIP_WITH_TRANSFORMATION ( #115 )SHAPE_REPRESENTATION_RELATIONSHIP( ) );
#105 = PRODUCT_DEFINITION_FORMATION_WITH_SPECIFIED_SOURCE ( 'ANY', '', #29, .NOT_KNOWN. ) ;
#106 = MECHANICAL_DESIGN_GEOMETRIC_PRESENTATION_REPRESENTATION (  '', ( #3 ), #101 ) ;
#107 = ORIENTED_EDGE ( 'NONE', *, *, #38, .T. ) ;
#108 = DIRECTION ( 'NONE',  ( 0.000000000000000000, -0.000000000000000000, 1.000000000000000000 ) ) ;
#109 = ADVANCED_FACE ( 'NONE', ( #77 ), #95, .T. ) ;
#110 = CARTESIAN_POINT ( 'NONE',  ( 0.000000000000000000, 0.000000000000000000, 0.000000000000000000 ) ) ;
#111 = DIRECTION ( 'NONE',  ( 0.000000000000000000, 0.000000000000000000, -1.000000000000000000 ) ) ;
#112 = UNCERTAINTY_MEASURE_WITH_UNIT (LENGTH_MEASURE( 1.000000000000000082E-05 ), #78, 'distance_accuracy_value', 'NONE');
#113 = CONTEXT_DEPENDENT_SHAPE_REPRESENTATION ( #94, #120 ) ;
#114 = DIRECTION ( 'NONE',  ( 0.000000000000000000, 0.000000000000000000, 1.000000000000000000 ) ) ;
#115 = ITEM_DEFINED_TRANSFORMATION ( 'NONE', 'NONE', #91,  #128 ) ;
#116 = EDGE_LOOP ( 'NONE', ( #25 ) ) ;
#117 = DIRECTION ( 'NONE',  ( 0.000000000000000000, 1.000000000000000000, 0.000000000000000000 ) ) ;
#118 = CARTESIAN_POINT ( 'NONE',  ( 0.000000000000000000, 100.0000000000000000, 0.000000000000000000 ) ) ;
#119 = CARTESIAN_POINT ( 'NONE',  ( 0.000000000000000000, 0.000000000000000000, 0.000000000000000000 ) ) ;
#120 = PRODUCT_DEFINITION_SHAPE ( 'NONE', 'NONE',  #145 ) ;
#121 = AXIS2_PLACEMENT_3D ( 'NONE', #75, #31, #111 ) ;
#122 = CARTESIAN_POINT ( 'NONE',  ( 0.000000000000000000, 100.0000000000000000, 50.00000000000000000 ) ) ;
#123 = SHAPE_DEFINITION_REPRESENTATION ( #133, #19 ) ;
#124 = EDGE_CURVE ( 'NONE', #88, #88, #142, .T. ) ;
#125 = AXIS2_PLACEMENT_3D ( 'NONE', #13, #23, #136 ) ;
#126 = DIRECTION ( 'NONE',  ( 0.000000000000000000, 0.000000000000000000, 1.000000000000000000 ) ) ;
#127 = COLOUR_RGB ( '',1.000000000000000000, 0.000000000000000000, 0.000000000000000000 ) ;
#128 = AXIS2_PLACEMENT_3D ( 'NONE', #110, #52, #131 ) ;
#129 =( NAMED_UNIT ( * ) PLANE_ANGLE_UNIT ( ) SI_UNIT ( $, .RADIAN. ) );
#130 = STYLED_ITEM ( 'NONE', ( #90 ), #30 ) ;
#131 = DIRECTION ( 'NONE',  ( 1.000000000000000000, 0.000000000000000000, 0.000000000000000000 ) ) ;
#132 =( LENGTH_UNIT ( ) NAMED_UNIT ( * ) SI_UNIT ( .MILLI., .METRE. ) );
#133 = PRODUCT_DEFINITION_SHAPE ( 'NONE', 'NONE',  #41 ) ;
#134 = APPLICATION_PROTOCOL_DEFINITION ( 'draft international standard', 'automotive_design', 1998, #74 ) ;
#135 = PRODUCT_DEFINITION ( 'UNKNOWN', '', #28, #85 ) ;
#136 = DIRECTION ( 'NONE',  ( 1.000000000000000000, 0.000000000000000000, 0.000000000000000000 ) ) ;
#137 = AXIS2_PLACEMENT_3D ( 'NONE', #36, #114, #100 ) ;
#138 = CARTESIAN_POINT ( 'NONE',  ( 129.8588026547804475, -29.07840402331203578, -68.52472038008272648 ) ) ;
#139 = AXIS2_PLACEMENT_3D ( 'NONE', #76, #8, #69 ) ;
#140 = APPLICATION_CONTEXT ( 'automotive_design' ) ;
#141 = SURFACE_STYLE_FILL_AREA ( #62 ) ;
#142 = CIRCLE ( 'NONE', #139, 50.00000000000000000 ) ;
#143 = UNCERTAINTY_MEASURE_WITH_UNIT (LENGTH_MEASURE( 1.000000000000000082E-05 ), #132, 'distance_accuracy_value', 'NONE');
#144 =( NAMED_UNIT ( * ) SI_UNIT ( $, .STERADIAN. ) SOLID_ANGLE_UNIT ( ) );
#145 = NEXT_ASSEMBLY_USAGE_OCCURRENCE ( 'NAUO1', ' ', ' ', #135, #41, $ ) ;
#146 = NEXT_ASSEMBLY_USAGE_OCCURRENCE ( 'NAUO2', ' ', ' ', #135, #41, $ ) ;
ENDSEC;
END-ISO-10303-21;
