ISO-10303-21;
HEADER;
FILE_DESCRIPTION (( 'STEP AP214' ),
    '1' );
FILE_NAME ('C5_display_states__ap214_cfg.step',
    '2026-08-06T13:09:28',
    ( '' ),
    ( '' ),
    'SwSTEP 2.0',
    'SolidWorks 2026',
    '' );
FILE_SCHEMA (( 'AUTOMOTIVE_DESIGN' ));
ENDSEC;

DATA;
#1 = SURFACE_STYLE_USAGE ( .BOTH. , #83 ) ;
#2 = PRESENTATION_LAYER_ASSIGNMENT (  '', '', ( #51 ) ) ;
#3 = PRODUCT_CONTEXT ( 'NONE', #40, 'mechanical' ) ;
#4 = COLOUR_RGB ( '',1.000000000000000000, 0.000000000000000000, 0.000000000000000000 ) ;
#5 = DIRECTION ( 'NONE',  ( 1.000000000000000000, 0.000000000000000000, 0.000000000000000000 ) ) ;
#6 =( GEOMETRIC_REPRESENTATION_CONTEXT ( 3 ) GLOBAL_UNCERTAINTY_ASSIGNED_CONTEXT ( ( #129 ) ) GLOBAL_UNIT_ASSIGNED_CONTEXT ( ( #42, #21, #59 ) ) REPRESENTATION_CONTEXT ( 'NONE', 'WORKASPACE' ) );
#7 = DIRECTION ( 'NONE',  ( 0.000000000000000000, -0.000000000000000000, 1.000000000000000000 ) ) ;
#8 = ADVANCED_BREP_SHAPE_REPRESENTATION ( '', ( #117, #128 ), #6 ) ;
#9 = EDGE_CURVE ( 'NONE', #93, #93, #47, .T. ) ;
#10 = CARTESIAN_POINT ( 'NONE',  ( 0.000000000000000000, 100.0000000000000000, 0.000000000000000000 ) ) ;
#11 = PRODUCT_DEFINITION_SHAPE ( 'NONE', 'NONE',  #145 ) ;
#12 = FACE_OUTER_BOUND ( 'NONE', #89, .T. ) ;
#13 = EDGE_CURVE ( 'NONE', #137, #137, #63, .T. ) ;
#14 =( NAMED_UNIT ( * ) SI_UNIT ( $, .STERADIAN. ) SOLID_ANGLE_UNIT ( ) );
#15 = DIRECTION ( 'NONE',  ( 0.000000000000000000, 0.000000000000000000, 1.000000000000000000 ) ) ;
#16 = APPLICATION_PROTOCOL_DEFINITION ( 'draft international standard', 'automotive_design', 1998, #25 ) ;
#17 = CLOSED_SHELL ( 'NONE', ( #142, #34, #71 ) ) ;
#18 = DIRECTION ( 'NONE',  ( 0.000000000000000000, 1.000000000000000000, 0.000000000000000000 ) ) ;
#19 = ORIENTED_EDGE ( 'NONE', *, *, #9, .T. ) ;
#20 = AXIS2_PLACEMENT_3D ( 'NONE', #138, #107, #140 ) ;
#21 =( NAMED_UNIT ( * ) PLANE_ANGLE_UNIT ( ) SI_UNIT ( $, .RADIAN. ) );
#22 = UNCERTAINTY_MEASURE_WITH_UNIT (LENGTH_MEASURE( 1.000000000000000082E-05 ), #131, 'distance_accuracy_value', 'NONE');
#23 = PRODUCT ( 'C4_part_1', 'C4_part_1', '', ( #3 ) ) ;
#24 = SURFACE_STYLE_FILL_AREA ( #116 ) ;
#25 = APPLICATION_CONTEXT ( 'automotive_design' ) ;
#26 = UNCERTAINTY_MEASURE_WITH_UNIT (LENGTH_MEASURE( 1.000000000000000082E-05 ), #44, 'distance_accuracy_value', 'NONE');
#27 = ITEM_DEFINED_TRANSFORMATION ( 'NONE', 'NONE', #123,  #128 ) ;
#28 = CONTEXT_DEPENDENT_SHAPE_REPRESENTATION ( #52, #11 ) ;
#29 = ITEM_DEFINED_TRANSFORMATION ( 'NONE', 'NONE', #66,  #128 ) ;
#30 =( GEOMETRIC_REPRESENTATION_CONTEXT ( 3 ) GLOBAL_UNCERTAINTY_ASSIGNED_CONTEXT ( ( #26 ) ) GLOBAL_UNIT_ASSIGNED_CONTEXT ( ( #44, #144, #82 ) ) REPRESENTATION_CONTEXT ( 'NONE', 'WORKASPACE' ) );
#31 =( NAMED_UNIT ( * ) SI_UNIT ( $, .STERADIAN. ) SOLID_ANGLE_UNIT ( ) );
#32 = SHAPE_REPRESENTATION_RELATIONSHIP ( 'NONE' , 'NONE' ,  #74, #8 ) ;
#33 = PRESENTATION_STYLE_ASSIGNMENT (( #1 ) ) ;
#34 = ADVANCED_FACE ( 'NONE', ( #67 ), #54, .T. ) ;
#35 = SHAPE_DEFINITION_REPRESENTATION ( #92, #98 ) ;
#36 = APPLICATION_PROTOCOL_DEFINITION ( 'draft international standard', 'automotive_design', 1998, #40 ) ;
#37 = ORIENTED_EDGE ( 'NONE', *, *, #13, .T. ) ;
#38 = SURFACE_STYLE_FILL_AREA ( #78 ) ;
#39 = EDGE_LOOP ( 'NONE', ( #103 ) ) ;
#40 = APPLICATION_CONTEXT ( 'automotive_design' ) ;
#41 = PRODUCT_DEFINITION_SHAPE ( 'NONE', 'NONE',  #139 ) ;
#42 =( LENGTH_UNIT ( ) NAMED_UNIT ( * ) SI_UNIT ( .MILLI., .METRE. ) );
#43 = PRODUCT_RELATED_PRODUCT_CATEGORY ( 'part', '', ( #58 ) ) ;
#44 =( LENGTH_UNIT ( ) NAMED_UNIT ( * ) SI_UNIT ( .MILLI., .METRE. ) );
#45 =( REPRESENTATION_RELATIONSHIP ('NONE','NONE', #98, #74 ) REPRESENTATION_RELATIONSHIP_WITH_TRANSFORMATION ( #27 )SHAPE_REPRESENTATION_RELATIONSHIP( ) );
#46 = DIRECTION ( 'NONE',  ( 0.000000000000000000, 0.000000000000000000, 1.000000000000000000 ) ) ;
#47 = CIRCLE ( 'NONE', #49, 50.00000000000000000 ) ;
#48 = CARTESIAN_POINT ( 'NONE',  ( 129.8588026547804475, -29.07840402331203578, -68.52472038008272648 ) ) ;
#49 = AXIS2_PLACEMENT_3D ( 'NONE', #113, #18, #134 ) ;
#50 = CARTESIAN_POINT ( 'NONE',  ( 0.000000000000000000, 0.000000000000000000, 0.000000000000000000 ) ) ;
#51 = STYLED_ITEM ( 'NONE', ( #57 ), #117 ) ;
#52 =( REPRESENTATION_RELATIONSHIP ('NONE','NONE', #98, #74 ) REPRESENTATION_RELATIONSHIP_WITH_TRANSFORMATION ( #29 )SHAPE_REPRESENTATION_RELATIONSHIP( ) );
#53 = CARTESIAN_POINT ( 'NONE',  ( 0.000000000000000000, 0.000000000000000000, 0.000000000000000000 ) ) ;
#54 = PLANE ( 'NONE',  #130 ) ;
#55 = PRODUCT_DEFINITION_CONTEXT ( 'detailed design', #91, 'design' ) ;
#56 = CARTESIAN_POINT ( 'NONE',  ( 0.000000000000000000, 100.0000000000000000, 50.00000000000000000 ) ) ;
#57 = PRESENTATION_STYLE_ASSIGNMENT (( #111 ) ) ;
#58 = PRODUCT ( 'C5_display_states__ap214_cfg', 'C5_display_states__ap214_cfg', '', ( #95 ) ) ;
#59 =( NAMED_UNIT ( * ) SI_UNIT ( $, .STERADIAN. ) SOLID_ANGLE_UNIT ( ) );
#60 = PRODUCT_DEFINITION_FORMATION_WITH_SPECIFIED_SOURCE ( 'ANY', '', #58, .NOT_KNOWN. ) ;
#61 = DIRECTION ( 'NONE',  ( 0.000000000000000000, 0.000000000000000000, 1.000000000000000000 ) ) ;
#62 = PRODUCT_RELATED_PRODUCT_CATEGORY ( 'part', '', ( #23 ) ) ;
#63 = CIRCLE ( 'NONE', #70, 50.00000000000000000 ) ;
#64 = MECHANICAL_DESIGN_GEOMETRIC_PRESENTATION_REPRESENTATION (  '', ( #51 ), #30 ) ;
#65 = ORIENTED_EDGE ( 'NONE', *, *, #9, .F. ) ;
#66 = AXIS2_PLACEMENT_3D ( 'NONE', #120, #15, #110 ) ;
#67 = FACE_OUTER_BOUND ( 'NONE', #87, .T. ) ;
#68 = DIRECTION ( 'NONE',  ( 0.000000000000000000, 1.000000000000000000, 0.000000000000000000 ) ) ;
#69 = FACE_OUTER_BOUND ( 'NONE', #39, .T. ) ;
#70 = AXIS2_PLACEMENT_3D ( 'NONE', #53, #68, #80 ) ;
#71 = ADVANCED_FACE ( 'NONE', ( #69 ), #81, .F. ) ;
#72 = PRODUCT_DEFINITION_SHAPE ( 'NONE', 'NONE',  #146 ) ;
#73 = AXIS2_PLACEMENT_3D ( 'NONE', #50, #79, #122 ) ;
#74 = SHAPE_REPRESENTATION ( 'C4_part_1', ( #128 ), #6 ) ;
#75 = CARTESIAN_POINT ( 'NONE',  ( 0.000000000000000000, 0.000000000000000000, 50.00000000000000000 ) ) ;
#76 = APPLICATION_PROTOCOL_DEFINITION ( 'draft international standard', 'automotive_design', 1998, #108 ) ;
#77 = PRODUCT_DEFINITION ( 'UNKNOWN', '', #60, #115 ) ;
#78 = FILL_AREA_STYLE ('',( #101 ) ) ;
#79 = DIRECTION ( 'NONE',  ( 0.000000000000000000, 1.000000000000000000, 0.000000000000000000 ) ) ;
#80 = DIRECTION ( 'NONE',  ( 0.000000000000000000, 0.000000000000000000, 1.000000000000000000 ) ) ;
#81 = PLANE ( 'NONE',  #73 ) ;
#82 =( NAMED_UNIT ( * ) SI_UNIT ( $, .STERADIAN. ) SOLID_ANGLE_UNIT ( ) );
#83 = SURFACE_SIDE_STYLE ('',( #24 ) ) ;
#84 = PRODUCT_DEFINITION_FORMATION_WITH_SPECIFIED_SOURCE ( 'ANY', '', #23, .NOT_KNOWN. ) ;
#85 = CARTESIAN_POINT ( 'NONE',  ( 0.000000000000000000, 0.000000000000000000, 0.000000000000000000 ) ) ;
#86 = APPLICATION_PROTOCOL_DEFINITION ( 'draft international standard', 'automotive_design', 1998, #91 ) ;
#87 = EDGE_LOOP ( 'NONE', ( #19 ) ) ;
#88 = MECHANICAL_DESIGN_GEOMETRIC_PRESENTATION_REPRESENTATION (  '', ( #112 ), #100 ) ;
#89 = EDGE_LOOP ( 'NONE', ( #37 ) ) ;
#90 = DIRECTION ( 'NONE',  ( 0.000000000000000000, 0.000000000000000000, -1.000000000000000000 ) ) ;
#91 = APPLICATION_CONTEXT ( 'automotive_design' ) ;
#92 = PRODUCT_DEFINITION_SHAPE ( 'NONE', 'NONE',  #77 ) ;
#93 = VERTEX_POINT ( 'NONE', #56 ) ;
#94 = DIRECTION ( 'NONE',  ( 1.000000000000000000, 0.000000000000000000, 0.000000000000000000 ) ) ;
#95 = PRODUCT_CONTEXT ( 'NONE', #108, 'mechanical' ) ;
#96 = COLOUR_RGB ( '',0.9098039215686274384, 0.4431372549019607643, 0.03137254901960784270 ) ;
#97 =( NAMED_UNIT ( * ) PLANE_ANGLE_UNIT ( ) SI_UNIT ( $, .RADIAN. ) );
#98 = SHAPE_REPRESENTATION ( 'C5_display_states__ap214_cfg', ( #20, #66, #123 ), #143 ) ;
#99 = SHAPE_DEFINITION_REPRESENTATION ( #41, #74 ) ;
#100 =( GEOMETRIC_REPRESENTATION_CONTEXT ( 3 ) GLOBAL_UNCERTAINTY_ASSIGNED_CONTEXT ( ( #135 ) ) GLOBAL_UNIT_ASSIGNED_CONTEXT ( ( #125, #114, #31 ) ) REPRESENTATION_CONTEXT ( 'NONE', 'WORKASPACE' ) );
#101 = FILL_AREA_STYLE_COLOUR ( '', #4 ) ;
#102 = CYLINDRICAL_SURFACE ( 'NONE', #105, 50.00000000000000000 ) ;
#103 = ORIENTED_EDGE ( 'NONE', *, *, #13, .F. ) ;
#104 = FACE_OUTER_BOUND ( 'NONE', #133, .T. ) ;
#105 = AXIS2_PLACEMENT_3D ( 'NONE', #127, #106, #90 ) ;
#106 = DIRECTION ( 'NONE',  ( -0.000000000000000000, -1.000000000000000000, -0.000000000000000000 ) ) ;
#107 = DIRECTION ( 'NONE',  ( 0.000000000000000000, 0.000000000000000000, 1.000000000000000000 ) ) ;
#108 = APPLICATION_CONTEXT ( 'automotive_design' ) ;
#109 = AXIS2_PLACEMENT_3D ( 'NONE', #85, #141, #5 ) ;
#110 = DIRECTION ( 'NONE',  ( 1.000000000000000000, 0.000000000000000000, 0.000000000000000000 ) ) ;
#111 = SURFACE_STYLE_USAGE ( .BOTH. , #121 ) ;
#112 = STYLED_ITEM ( 'NONE', ( #33 ), #8 ) ;
#113 = CARTESIAN_POINT ( 'NONE',  ( 0.000000000000000000, 100.0000000000000000, 0.000000000000000000 ) ) ;
#114 =( NAMED_UNIT ( * ) PLANE_ANGLE_UNIT ( ) SI_UNIT ( $, .RADIAN. ) );
#115 = PRODUCT_DEFINITION_CONTEXT ( 'detailed design', #25, 'design' ) ;
#116 = FILL_AREA_STYLE ('',( #118 ) ) ;
#117 = MANIFOLD_SOLID_BREP ( 'Boss-Extrude1', #17 ) ;
#118 = FILL_AREA_STYLE_COLOUR ( '', #96 ) ;
#119 = DIRECTION ( 'NONE',  ( 1.000000000000000000, 0.000000000000000000, 0.000000000000000000 ) ) ;
#120 = CARTESIAN_POINT ( 'NONE',  ( 0.000000000000000000, 0.000000000000000000, 0.000000000000000000 ) ) ;
#121 = SURFACE_SIDE_STYLE ('',( #38 ) ) ;
#122 = DIRECTION ( 'NONE',  ( 0.000000000000000000, -0.000000000000000000, 1.000000000000000000 ) ) ;
#123 = AXIS2_PLACEMENT_3D ( 'NONE', #48, #61, #119 ) ;
#124 = DIRECTION ( 'NONE',  ( 0.000000000000000000, 1.000000000000000000, 0.000000000000000000 ) ) ;
#125 =( LENGTH_UNIT ( ) NAMED_UNIT ( * ) SI_UNIT ( .MILLI., .METRE. ) );
#126 = CARTESIAN_POINT ( 'NONE',  ( 0.000000000000000000, 0.000000000000000000, 0.000000000000000000 ) ) ;
#127 = CARTESIAN_POINT ( 'NONE',  ( 0.000000000000000000, 100.0000000000000000, 0.000000000000000000 ) ) ;
#128 = AXIS2_PLACEMENT_3D ( 'NONE', #126, #46, #94 ) ;
#129 = UNCERTAINTY_MEASURE_WITH_UNIT (LENGTH_MEASURE( 1.000000000000000082E-05 ), #42, 'distance_accuracy_value', 'NONE');
#130 = AXIS2_PLACEMENT_3D ( 'NONE', #10, #124, #7 ) ;
#131 =( LENGTH_UNIT ( ) NAMED_UNIT ( * ) SI_UNIT ( .MILLI., .METRE. ) );
#132 = CONTEXT_DEPENDENT_SHAPE_REPRESENTATION ( #45, #72 ) ;
#133 = EDGE_LOOP ( 'NONE', ( #65 ) ) ;
#134 = DIRECTION ( 'NONE',  ( 0.000000000000000000, 0.000000000000000000, 1.000000000000000000 ) ) ;
#135 = UNCERTAINTY_MEASURE_WITH_UNIT (LENGTH_MEASURE( 1.000000000000000082E-05 ), #125, 'distance_accuracy_value', 'NONE');
#136 = PRESENTATION_LAYER_ASSIGNMENT (  '', '', ( #112 ) ) ;
#137 = VERTEX_POINT ( 'NONE', #75 ) ;
#138 = CARTESIAN_POINT ( 'NONE',  ( 0.000000000000000000, 0.000000000000000000, 0.000000000000000000 ) ) ;
#139 = PRODUCT_DEFINITION ( 'UNKNOWN', '', #84, #55 ) ;
#140 = DIRECTION ( 'NONE',  ( 1.000000000000000000, 0.000000000000000000, 0.000000000000000000 ) ) ;
#141 = DIRECTION ( 'NONE',  ( 0.000000000000000000, 0.000000000000000000, 1.000000000000000000 ) ) ;
#142 = ADVANCED_FACE ( 'NONE', ( #104, #12 ), #102, .T. ) ;
#143 =( GEOMETRIC_REPRESENTATION_CONTEXT ( 3 ) GLOBAL_UNCERTAINTY_ASSIGNED_CONTEXT ( ( #22 ) ) GLOBAL_UNIT_ASSIGNED_CONTEXT ( ( #131, #97, #14 ) ) REPRESENTATION_CONTEXT ( 'NONE', 'WORKASPACE' ) );
#144 =( NAMED_UNIT ( * ) PLANE_ANGLE_UNIT ( ) SI_UNIT ( $, .RADIAN. ) );
#145 = NEXT_ASSEMBLY_USAGE_OCCURRENCE ( 'NAUO1', ' ', ' ', #77, #139, $ ) ;
#146 = NEXT_ASSEMBLY_USAGE_OCCURRENCE ( 'NAUO2', ' ', ' ', #77, #139, $ ) ;
ENDSEC;
END-ISO-10303-21;
