ISO-10303-21;
HEADER;
FILE_DESCRIPTION (( 'STEP AP214' ),
    '1' );
FILE_NAME ('C5_display_states__ap214_split.step',
    '2026-08-06T13:09:27',
    ( '' ),
    ( '' ),
    'SwSTEP 2.0',
    'SolidWorks 2026',
    '' );
FILE_SCHEMA (( 'AUTOMOTIVE_DESIGN' ));
ENDSEC;

DATA;
#1 = CARTESIAN_POINT ( 'NONE',  ( 0.000000000000000000, 100.0000000000000000, -50.00000000000000000 ) ) ;
#2 = FILL_AREA_STYLE ('',( #143 ) ) ;
#3 = CIRCLE ( 'NONE', #54, 50.00000000000000000 ) ;
#4 = DIRECTION ( 'NONE',  ( 0.000000000000000000, 0.000000000000000000, 1.000000000000000000 ) ) ;
#5 = CARTESIAN_POINT ( 'NONE',  ( 0.000000000000000000, 0.000000000000000000, 0.000000000000000000 ) ) ;
#6 = MECHANICAL_DESIGN_GEOMETRIC_PRESENTATION_REPRESENTATION (  '', ( #90 ), #42 ) ;
#7 = PRODUCT_RELATED_PRODUCT_CATEGORY ( 'part', '', ( #114 ) ) ;
#8 = AXIS2_PLACEMENT_3D ( 'NONE', #60, #72, #84 ) ;
#9 = AXIS2_PLACEMENT_3D ( 'NONE', #101, #144, #27 ) ;
#10 =( NAMED_UNIT ( * ) SI_UNIT ( $, .STERADIAN. ) SOLID_ANGLE_UNIT ( ) );
#11 = ORIENTED_EDGE ( 'NONE', *, *, #102, .F. ) ;
#12 = PRESENTATION_LAYER_ASSIGNMENT (  '', '', ( #90 ) ) ;
#13 = ITEM_DEFINED_TRANSFORMATION ( 'NONE', 'NONE', #162,  #110 ) ;
#14 = ORIENTED_EDGE ( 'NONE', *, *, #99, .F. ) ;
#15 = DIRECTION ( 'NONE',  ( 0.000000000000000000, 0.000000000000000000, 1.000000000000000000 ) ) ;
#16 = CARTESIAN_POINT ( 'NONE',  ( 6.123233995736766085E-15, 100.0000000000000000, 50.00000000000000000 ) ) ;
#17 = PRODUCT_DEFINITION ( 'UNKNOWN', '', #181, #86 ) ;
#18 = LINE ( 'NONE', #30, #171 ) ;
#19 = FACE_OUTER_BOUND ( 'NONE', #39, .T. ) ;
#20 = AXIS2_PLACEMENT_3D ( 'NONE', #33, #51, #132 ) ;
#21 = DIRECTION ( 'NONE',  ( 1.000000000000000000, 0.000000000000000000, 0.000000000000000000 ) ) ;
#22 = PRESENTATION_STYLE_ASSIGNMENT (( #160 ) ) ;
#23 = ORIENTED_EDGE ( 'NONE', *, *, #55, .F. ) ;
#24 = DIRECTION ( 'NONE',  ( 0.000000000000000000, -0.000000000000000000, 1.000000000000000000 ) ) ;
#25 = CIRCLE ( 'NONE', #120, 50.00000000000000000 ) ;
#26 = EDGE_LOOP ( 'NONE', ( #11, #137, #97, #23 ) ) ;
#27 = DIRECTION ( 'NONE',  ( 0.000000000000000000, 0.000000000000000000, -1.000000000000000000 ) ) ;
#28 = PRODUCT ( 'C5_display_states__ap214_split', 'C5_display_states__ap214_split', '', ( #96 ) ) ;
#29 = UNCERTAINTY_MEASURE_WITH_UNIT (LENGTH_MEASURE( 1.000000000000000082E-05 ), #94, 'distance_accuracy_value', 'NONE');
#30 = CARTESIAN_POINT ( 'NONE',  ( 6.123233995736766085E-15, 100.0000000000000000, 50.00000000000000000 ) ) ;
#31 = LINE ( 'NONE', #82, #108 ) ;
#32 = SURFACE_STYLE_FILL_AREA ( #2 ) ;
#33 = CARTESIAN_POINT ( 'NONE',  ( 0.000000000000000000, 0.000000000000000000, 0.000000000000000000 ) ) ;
#34 = ADVANCED_FACE ( 'NONE', ( #64 ), #36, .F. ) ;
#35 = APPLICATION_PROTOCOL_DEFINITION ( 'draft international standard', 'automotive_design', 1998, #107 ) ;
#36 = PLANE ( 'NONE',  #184 ) ;
#37 = ORIENTED_EDGE ( 'NONE', *, *, #70, .F. ) ;
#38 = EDGE_LOOP ( 'NONE', ( #57, #56 ) ) ;
#39 = EDGE_LOOP ( 'NONE', ( #165, #170, #151, #169 ) ) ;
#40 = PRODUCT_DEFINITION_SHAPE ( 'NONE', 'NONE',  #185 ) ;
#41 = CARTESIAN_POINT ( 'NONE',  ( 0.000000000000000000, 0.000000000000000000, 0.000000000000000000 ) ) ;
#42 =( GEOMETRIC_REPRESENTATION_CONTEXT ( 3 ) GLOBAL_UNCERTAINTY_ASSIGNED_CONTEXT ( ( #183 ) ) GLOBAL_UNIT_ASSIGNED_CONTEXT ( ( #89, #136, #10 ) ) REPRESENTATION_CONTEXT ( 'NONE', 'WORKASPACE' ) );
#43 = DIRECTION ( 'NONE',  ( 0.000000000000000000, 1.000000000000000000, 0.000000000000000000 ) ) ;
#44 = PRODUCT_DEFINITION_SHAPE ( 'NONE', 'NONE',  #186 ) ;
#45 = CYLINDRICAL_SURFACE ( 'NONE', #8, 50.00000000000000000 ) ;
#46 = PRODUCT_DEFINITION_SHAPE ( 'NONE', 'NONE',  #17 ) ;
#47 = CARTESIAN_POINT ( 'NONE',  ( 0.000000000000000000, 100.0000000000000000, 0.000000000000000000 ) ) ;
#48 = DIRECTION ( 'NONE',  ( 0.000000000000000000, 0.000000000000000000, 1.000000000000000000 ) ) ;
#49 =( REPRESENTATION_RELATIONSHIP ('NONE','NONE', #87, #156 ) REPRESENTATION_RELATIONSHIP_WITH_TRANSFORMATION ( #13 )SHAPE_REPRESENTATION_RELATIONSHIP( ) );
#50 = EDGE_CURVE ( 'NONE', #182, #140, #3, .T. ) ;
#51 = DIRECTION ( 'NONE',  ( 0.000000000000000000, 0.000000000000000000, 1.000000000000000000 ) ) ;
#52 =( NAMED_UNIT ( * ) PLANE_ANGLE_UNIT ( ) SI_UNIT ( $, .RADIAN. ) );
#53 =( GEOMETRIC_REPRESENTATION_CONTEXT ( 3 ) GLOBAL_UNCERTAINTY_ASSIGNED_CONTEXT ( ( #173 ) ) GLOBAL_UNIT_ASSIGNED_CONTEXT ( ( #128, #52, #109 ) ) REPRESENTATION_CONTEXT ( 'NONE', 'WORKASPACE' ) );
#54 = AXIS2_PLACEMENT_3D ( 'NONE', #155, #174, #15 ) ;
#55 = EDGE_CURVE ( 'NONE', #182, #80, #31, .T. ) ;
#56 = ORIENTED_EDGE ( 'NONE', *, *, #102, .T. ) ;
#57 = ORIENTED_EDGE ( 'NONE', *, *, #50, .T. ) ;
#58 = DIRECTION ( 'NONE',  ( 0.000000000000000000, 1.000000000000000000, 0.000000000000000000 ) ) ;
#59 = PRODUCT_DEFINITION_FORMATION_WITH_SPECIFIED_SOURCE ( 'ANY', '', #28, .NOT_KNOWN. ) ;
#60 = CARTESIAN_POINT ( 'NONE',  ( 0.000000000000000000, 100.0000000000000000, 0.000000000000000000 ) ) ;
#61 = FILL_AREA_STYLE ('',( #106 ) ) ;
#62 = CIRCLE ( 'NONE', #65, 50.00000000000000000 ) ;
#63 = DIRECTION ( 'NONE',  ( 1.000000000000000000, 0.000000000000000000, 0.000000000000000000 ) ) ;
#64 = FACE_OUTER_BOUND ( 'NONE', #77, .T. ) ;
#65 = AXIS2_PLACEMENT_3D ( 'NONE', #47, #125, #105 ) ;
#66 = ITEM_DEFINED_TRANSFORMATION ( 'NONE', 'NONE', #166,  #110 ) ;
#67 = CARTESIAN_POINT ( 'NONE',  ( 0.000000000000000000, 0.000000000000000000, 0.000000000000000000 ) ) ;
#68 = DIRECTION ( 'NONE',  ( 0.000000000000000000, 0.000000000000000000, 1.000000000000000000 ) ) ;
#69 = CYLINDRICAL_SURFACE ( 'NONE', #9, 50.00000000000000000 ) ;
#70 = EDGE_CURVE ( 'NONE', #80, #163, #25, .T. ) ;
#71 = DIRECTION ( 'NONE',  ( -0.000000000000000000, -1.000000000000000000, -0.000000000000000000 ) ) ;
#72 = DIRECTION ( 'NONE',  ( -0.000000000000000000, -1.000000000000000000, -0.000000000000000000 ) ) ;
#73 = SURFACE_STYLE_FILL_AREA ( #61 ) ;
#74 =( NAMED_UNIT ( * ) PLANE_ANGLE_UNIT ( ) SI_UNIT ( $, .RADIAN. ) );
#75 = COLOUR_RGB ( '',1.000000000000000000, 0.000000000000000000, 0.000000000000000000 ) ;
#76 = ADVANCED_FACE ( 'NONE', ( #19 ), #45, .T. ) ;
#77 = EDGE_LOOP ( 'NONE', ( #37, #14 ) ) ;
#78 = MANIFOLD_SOLID_BREP ( 'Boss-Extrude1', #85 ) ;
#79 = SHAPE_DEFINITION_REPRESENTATION ( #46, #156 ) ;
#80 = VERTEX_POINT ( 'NONE', #129 ) ;
#81 = APPLICATION_CONTEXT ( 'automotive_design' ) ;
#82 = CARTESIAN_POINT ( 'NONE',  ( 0.000000000000000000, 100.0000000000000000, -50.00000000000000000 ) ) ;
#83 = PRODUCT_DEFINITION_SHAPE ( 'NONE', 'NONE',  #112 ) ;
#84 = DIRECTION ( 'NONE',  ( 0.000000000000000000, 0.000000000000000000, -1.000000000000000000 ) ) ;
#85 = CLOSED_SHELL ( 'NONE', ( #91, #76, #127, #34 ) ) ;
#86 = PRODUCT_DEFINITION_CONTEXT ( 'detailed design', #180, 'design' ) ;
#87 = SHAPE_REPRESENTATION ( 'C5_display_states__ap214_split', ( #122, #166, #162 ), #104 ) ;
#88 = DIRECTION ( 'NONE',  ( -0.000000000000000000, -1.000000000000000000, -0.000000000000000000 ) ) ;
#89 =( LENGTH_UNIT ( ) NAMED_UNIT ( * ) SI_UNIT ( .MILLI., .METRE. ) );
#90 = STYLED_ITEM ( 'NONE', ( #22 ), #121 ) ;
#91 = ADVANCED_FACE ( 'NONE', ( #103 ), #69, .T. ) ;
#92 = DIRECTION ( 'NONE',  ( 0.000000000000000000, 0.000000000000000000, 1.000000000000000000 ) ) ;
#93 = DIRECTION ( 'NONE',  ( 1.000000000000000000, 0.000000000000000000, 0.000000000000000000 ) ) ;
#94 =( LENGTH_UNIT ( ) NAMED_UNIT ( * ) SI_UNIT ( .MILLI., .METRE. ) );
#95 = SURFACE_SIDE_STYLE ('',( #73 ) ) ;
#96 = PRODUCT_CONTEXT ( 'NONE', #81, 'mechanical' ) ;
#97 = ORIENTED_EDGE ( 'NONE', *, *, #99, .T. ) ;
#98 = CARTESIAN_POINT ( 'NONE',  ( 0.000000000000000000, 0.000000000000000000, 0.000000000000000000 ) ) ;
#99 = EDGE_CURVE ( 'NONE', #163, #80, #168, .T. ) ;
#100 = COLOUR_RGB ( '',0.9098039215686274384, 0.4431372549019607643, 0.03137254901960784270 ) ;
#101 = CARTESIAN_POINT ( 'NONE',  ( 0.000000000000000000, 100.0000000000000000, 0.000000000000000000 ) ) ;
#102 = EDGE_CURVE ( 'NONE', #140, #182, #62, .T. ) ;
#103 = FACE_OUTER_BOUND ( 'NONE', #26, .T. ) ;
#104 =( GEOMETRIC_REPRESENTATION_CONTEXT ( 3 ) GLOBAL_UNCERTAINTY_ASSIGNED_CONTEXT ( ( #29 ) ) GLOBAL_UNIT_ASSIGNED_CONTEXT ( ( #94, #74, #134 ) ) REPRESENTATION_CONTEXT ( 'NONE', 'WORKASPACE' ) );
#105 = DIRECTION ( 'NONE',  ( 0.000000000000000000, 0.000000000000000000, 1.000000000000000000 ) ) ;
#106 = FILL_AREA_STYLE_COLOUR ( '', #100 ) ;
#107 = APPLICATION_CONTEXT ( 'automotive_design' ) ;
#108 = VECTOR ( 'NONE', #88, 1000.000000000000000 ) ;
#109 =( NAMED_UNIT ( * ) SI_UNIT ( $, .STERADIAN. ) SOLID_ANGLE_UNIT ( ) );
#110 = AXIS2_PLACEMENT_3D ( 'NONE', #5, #48, #21 ) ;
#111 = PRODUCT_CONTEXT ( 'NONE', #139, 'mechanical' ) ;
#112 = PRODUCT_DEFINITION ( 'UNKNOWN', '', #59, #113 ) ;
#113 = PRODUCT_DEFINITION_CONTEXT ( 'detailed design', #107, 'design' ) ;
#114 = PRODUCT ( 'C4_part_1', 'C4_part_1', '', ( #111 ) ) ;
#115 =( NAMED_UNIT ( * ) PLANE_ANGLE_UNIT ( ) SI_UNIT ( $, .RADIAN. ) );
#116 = SURFACE_STYLE_USAGE ( .BOTH. , #131 ) ;
#117 = DIRECTION ( 'NONE',  ( 0.000000000000000000, 0.000000000000000000, 1.000000000000000000 ) ) ;
#118 = CARTESIAN_POINT ( 'NONE',  ( 6.123233995736766085E-15, 0.000000000000000000, 50.00000000000000000 ) ) ;
#119 = SHAPE_REPRESENTATION_RELATIONSHIP ( 'NONE' , 'NONE' ,  #156, #121 ) ;
#120 = AXIS2_PLACEMENT_3D ( 'NONE', #41, #172, #68 ) ;
#121 = ADVANCED_BREP_SHAPE_REPRESENTATION ( '', ( #78, #110 ), #53 ) ;
#122 = AXIS2_PLACEMENT_3D ( 'NONE', #178, #92, #149 ) ;
#123 = APPLICATION_PROTOCOL_DEFINITION ( 'draft international standard', 'automotive_design', 1998, #180 ) ;
#124 = CONTEXT_DEPENDENT_SHAPE_REPRESENTATION ( #49, #44 ) ;
#125 = DIRECTION ( 'NONE',  ( 0.000000000000000000, 1.000000000000000000, 0.000000000000000000 ) ) ;
#126 = CARTESIAN_POINT ( 'NONE',  ( 0.000000000000000000, 100.0000000000000000, 0.000000000000000000 ) ) ;
#127 = ADVANCED_FACE ( 'NONE', ( #146 ), #159, .T. ) ;
#128 =( LENGTH_UNIT ( ) NAMED_UNIT ( * ) SI_UNIT ( .MILLI., .METRE. ) );
#129 = CARTESIAN_POINT ( 'NONE',  ( 0.000000000000000000, 0.000000000000000000, -50.00000000000000000 ) ) ;
#130 = EDGE_CURVE ( 'NONE', #140, #163, #18, .T. ) ;
#131 = SURFACE_SIDE_STYLE ('',( #32 ) ) ;
#132 = DIRECTION ( 'NONE',  ( 1.000000000000000000, 0.000000000000000000, 0.000000000000000000 ) ) ;
#133 = CARTESIAN_POINT ( 'NONE',  ( 129.8588026547804475, -29.07840402331203578, -68.52472038008272648 ) ) ;
#134 =( NAMED_UNIT ( * ) SI_UNIT ( $, .STERADIAN. ) SOLID_ANGLE_UNIT ( ) );
#135 = PRESENTATION_LAYER_ASSIGNMENT (  '', '', ( #167 ) ) ;
#136 =( NAMED_UNIT ( * ) PLANE_ANGLE_UNIT ( ) SI_UNIT ( $, .RADIAN. ) );
#137 = ORIENTED_EDGE ( 'NONE', *, *, #130, .T. ) ;
#138 =( GEOMETRIC_REPRESENTATION_CONTEXT ( 3 ) GLOBAL_UNCERTAINTY_ASSIGNED_CONTEXT ( ( #148 ) ) GLOBAL_UNIT_ASSIGNED_CONTEXT ( ( #154, #115, #147 ) ) REPRESENTATION_CONTEXT ( 'NONE', 'WORKASPACE' ) );
#139 = APPLICATION_CONTEXT ( 'automotive_design' ) ;
#140 = VERTEX_POINT ( 'NONE', #16 ) ;
#141 = CONTEXT_DEPENDENT_SHAPE_REPRESENTATION ( #150, #40 ) ;
#142 = AXIS2_PLACEMENT_3D ( 'NONE', #67, #43, #117 ) ;
#143 = FILL_AREA_STYLE_COLOUR ( '', #75 ) ;
#144 = DIRECTION ( 'NONE',  ( -0.000000000000000000, -1.000000000000000000, -0.000000000000000000 ) ) ;
#145 = DIRECTION ( 'NONE',  ( 0.000000000000000000, -0.000000000000000000, 1.000000000000000000 ) ) ;
#146 = FACE_OUTER_BOUND ( 'NONE', #38, .T. ) ;
#147 =( NAMED_UNIT ( * ) SI_UNIT ( $, .STERADIAN. ) SOLID_ANGLE_UNIT ( ) );
#148 = UNCERTAINTY_MEASURE_WITH_UNIT (LENGTH_MEASURE( 1.000000000000000082E-05 ), #154, 'distance_accuracy_value', 'NONE');
#149 = DIRECTION ( 'NONE',  ( 1.000000000000000000, 0.000000000000000000, 0.000000000000000000 ) ) ;
#150 =( REPRESENTATION_RELATIONSHIP ('NONE','NONE', #87, #156 ) REPRESENTATION_RELATIONSHIP_WITH_TRANSFORMATION ( #66 )SHAPE_REPRESENTATION_RELATIONSHIP( ) );
#151 = ORIENTED_EDGE ( 'NONE', *, *, #55, .T. ) ;
#152 = DIRECTION ( 'NONE',  ( 0.000000000000000000, 1.000000000000000000, 0.000000000000000000 ) ) ;
#153 = SHAPE_DEFINITION_REPRESENTATION ( #83, #87 ) ;
#154 =( LENGTH_UNIT ( ) NAMED_UNIT ( * ) SI_UNIT ( .MILLI., .METRE. ) );
#155 = CARTESIAN_POINT ( 'NONE',  ( 0.000000000000000000, 100.0000000000000000, 0.000000000000000000 ) ) ;
#156 = SHAPE_REPRESENTATION ( 'C4_part_1', ( #110 ), #53 ) ;
#157 = PRESENTATION_STYLE_ASSIGNMENT (( #116 ) ) ;
#158 = MECHANICAL_DESIGN_GEOMETRIC_PRESENTATION_REPRESENTATION (  '', ( #167 ), #138 ) ;
#159 = PLANE ( 'NONE',  #179 ) ;
#160 = SURFACE_STYLE_USAGE ( .BOTH. , #95 ) ;
#161 = CARTESIAN_POINT ( 'NONE',  ( 0.000000000000000000, 0.000000000000000000, 0.000000000000000000 ) ) ;
#162 = AXIS2_PLACEMENT_3D ( 'NONE', #133, #177, #63 ) ;
#163 = VERTEX_POINT ( 'NONE', #118 ) ;
#164 = APPLICATION_PROTOCOL_DEFINITION ( 'draft international standard', 'automotive_design', 1998, #139 ) ;
#165 = ORIENTED_EDGE ( 'NONE', *, *, #130, .F. ) ;
#166 = AXIS2_PLACEMENT_3D ( 'NONE', #161, #4, #93 ) ;
#167 = STYLED_ITEM ( 'NONE', ( #157 ), #78 ) ;
#168 = CIRCLE ( 'NONE', #142, 50.00000000000000000 ) ;
#169 = ORIENTED_EDGE ( 'NONE', *, *, #70, .T. ) ;
#170 = ORIENTED_EDGE ( 'NONE', *, *, #50, .F. ) ;
#171 = VECTOR ( 'NONE', #71, 1000.000000000000000 ) ;
#172 = DIRECTION ( 'NONE',  ( 0.000000000000000000, 1.000000000000000000, 0.000000000000000000 ) ) ;
#173 = UNCERTAINTY_MEASURE_WITH_UNIT (LENGTH_MEASURE( 1.000000000000000082E-05 ), #128, 'distance_accuracy_value', 'NONE');
#174 = DIRECTION ( 'NONE',  ( 0.000000000000000000, 1.000000000000000000, 0.000000000000000000 ) ) ;
#175 = PRODUCT_RELATED_PRODUCT_CATEGORY ( 'part', '', ( #28 ) ) ;
#176 = APPLICATION_PROTOCOL_DEFINITION ( 'draft international standard', 'automotive_design', 1998, #81 ) ;
#177 = DIRECTION ( 'NONE',  ( 0.000000000000000000, 0.000000000000000000, 1.000000000000000000 ) ) ;
#178 = CARTESIAN_POINT ( 'NONE',  ( 0.000000000000000000, 0.000000000000000000, 0.000000000000000000 ) ) ;
#179 = AXIS2_PLACEMENT_3D ( 'NONE', #126, #58, #145 ) ;
#180 = APPLICATION_CONTEXT ( 'automotive_design' ) ;
#181 = PRODUCT_DEFINITION_FORMATION_WITH_SPECIFIED_SOURCE ( 'ANY', '', #114, .NOT_KNOWN. ) ;
#182 = VERTEX_POINT ( 'NONE', #1 ) ;
#183 = UNCERTAINTY_MEASURE_WITH_UNIT (LENGTH_MEASURE( 1.000000000000000082E-05 ), #89, 'distance_accuracy_value', 'NONE');
#184 = AXIS2_PLACEMENT_3D ( 'NONE', #98, #152, #24 ) ;
#185 = NEXT_ASSEMBLY_USAGE_OCCURRENCE ( 'NAUO1', ' ', ' ', #112, #17, $ ) ;
#186 = NEXT_ASSEMBLY_USAGE_OCCURRENCE ( 'NAUO2', ' ', ' ', #112, #17, $ ) ;
ENDSEC;
END-ISO-10303-21;
