ISO-10303-21;
HEADER;
FILE_DESCRIPTION (( 'STEP AP214' ),
    '1' );
FILE_NAME ('C5_display_states__ap214_noappear.step',
    '2026-08-06T13:09:27',
    ( '' ),
    ( '' ),
    'SwSTEP 2.0',
    'SolidWorks 2026',
    '' );
FILE_SCHEMA (( 'AUTOMOTIVE_DESIGN' ));
ENDSEC;

DATA;
#1 = PRESENTATION_LAYER_ASSIGNMENT (  '', '', ( #55 ) ) ;
#2 = AXIS2_PLACEMENT_3D ( 'NONE', #110, #129, #39 ) ;
#3 = DIRECTION ( 'NONE',  ( 0.000000000000000000, -0.000000000000000000, 1.000000000000000000 ) ) ;
#4 = ORIENTED_EDGE ( 'NONE', *, *, #121, .T. ) ;
#5 = SURFACE_STYLE_USAGE ( .BOTH. , #60 ) ;
#6 = VERTEX_POINT ( 'NONE', #27 ) ;
#7 =( LENGTH_UNIT ( ) NAMED_UNIT ( * ) SI_UNIT ( .MILLI., .METRE. ) );
#8 = CONTEXT_DEPENDENT_SHAPE_REPRESENTATION ( #25, #28 ) ;
#9 = AXIS2_PLACEMENT_3D ( 'NONE', #34, #79, #17 ) ;
#10 = UNCERTAINTY_MEASURE_WITH_UNIT (LENGTH_MEASURE( 1.000000000000000082E-05 ), #108, 'distance_accuracy_value', 'NONE');
#11 = SHAPE_DEFINITION_REPRESENTATION ( #32, #86 ) ;
#12 = ITEM_DEFINED_TRANSFORMATION ( 'NONE', 'NONE', #76,  #90 ) ;
#13 = PRESENTATION_STYLE_ASSIGNMENT (( #5 ) ) ;
#14 = ORIENTED_EDGE ( 'NONE', *, *, #69, .T. ) ;
#15 = PLANE ( 'NONE',  #95 ) ;
#16 = PRODUCT_DEFINITION_FORMATION_WITH_SPECIFIED_SOURCE ( 'ANY', '', #49, .NOT_KNOWN. ) ;
#17 = DIRECTION ( 'NONE',  ( 1.000000000000000000, 0.000000000000000000, 0.000000000000000000 ) ) ;
#18 =( NAMED_UNIT ( * ) SI_UNIT ( $, .STERADIAN. ) SOLID_ANGLE_UNIT ( ) );
#19 =( NAMED_UNIT ( * ) PLANE_ANGLE_UNIT ( ) SI_UNIT ( $, .RADIAN. ) );
#20 = CARTESIAN_POINT ( 'NONE',  ( 0.000000000000000000, 100.0000000000000000, 0.000000000000000000 ) ) ;
#21 = APPLICATION_PROTOCOL_DEFINITION ( 'draft international standard', 'automotive_design', 1998, #56 ) ;
#22 = ADVANCED_FACE ( 'NONE', ( #47 ), #15, .T. ) ;
#23 = CARTESIAN_POINT ( 'NONE',  ( 0.000000000000000000, 0.000000000000000000, 0.000000000000000000 ) ) ;
#24 = CARTESIAN_POINT ( 'NONE',  ( 0.000000000000000000, 100.0000000000000000, 0.000000000000000000 ) ) ;
#25 =( REPRESENTATION_RELATIONSHIP ('NONE','NONE', #86, #120 ) REPRESENTATION_RELATIONSHIP_WITH_TRANSFORMATION ( #12 )SHAPE_REPRESENTATION_RELATIONSHIP( ) );
#26 =( GEOMETRIC_REPRESENTATION_CONTEXT ( 3 ) GLOBAL_UNCERTAINTY_ASSIGNED_CONTEXT ( ( #118 ) ) GLOBAL_UNIT_ASSIGNED_CONTEXT ( ( #48, #52, #64 ) ) REPRESENTATION_CONTEXT ( 'NONE', 'WORKASPACE' ) );
#27 = CARTESIAN_POINT ( 'NONE',  ( 0.000000000000000000, 100.0000000000000000, 50.00000000000000000 ) ) ;
#28 = PRODUCT_DEFINITION_SHAPE ( 'NONE', 'NONE',  #131 ) ;
#29 = PRODUCT_DEFINITION ( 'UNKNOWN', '', #53, #51 ) ;
#30 = DIRECTION ( 'NONE',  ( 0.000000000000000000, 1.000000000000000000, 0.000000000000000000 ) ) ;
#31 = ADVANCED_BREP_SHAPE_REPRESENTATION ( '', ( #58, #90 ), #98 ) ;
#32 = PRODUCT_DEFINITION_SHAPE ( 'NONE', 'NONE',  #57 ) ;
#33 = DIRECTION ( 'NONE',  ( 1.000000000000000000, 0.000000000000000000, 0.000000000000000000 ) ) ;
#34 = CARTESIAN_POINT ( 'NONE',  ( 0.000000000000000000, 0.000000000000000000, 0.000000000000000000 ) ) ;
#35 = APPLICATION_PROTOCOL_DEFINITION ( 'draft international standard', 'automotive_design', 1998, #103 ) ;
#36 = MECHANICAL_DESIGN_GEOMETRIC_PRESENTATION_REPRESENTATION (  '', ( #55 ), #126 ) ;
#37 = SURFACE_STYLE_FILL_AREA ( #123 ) ;
#38 = DIRECTION ( 'NONE',  ( 0.000000000000000000, 1.000000000000000000, 0.000000000000000000 ) ) ;
#39 = DIRECTION ( 'NONE',  ( 1.000000000000000000, 0.000000000000000000, 0.000000000000000000 ) ) ;
#40 = DIRECTION ( 'NONE',  ( 0.000000000000000000, 0.000000000000000000, 1.000000000000000000 ) ) ;
#41 = APPLICATION_CONTEXT ( 'automotive_design' ) ;
#42 = DIRECTION ( 'NONE',  ( 0.000000000000000000, 0.000000000000000000, 1.000000000000000000 ) ) ;
#43 = CIRCLE ( 'NONE', #116, 50.00000000000000000 ) ;
#44 = APPLICATION_PROTOCOL_DEFINITION ( 'draft international standard', 'automotive_design', 1998, #41 ) ;
#45 = PRODUCT_CONTEXT ( 'NONE', #103, 'mechanical' ) ;
#46 = FACE_OUTER_BOUND ( 'NONE', #117, .T. ) ;
#47 = FACE_OUTER_BOUND ( 'NONE', #94, .T. ) ;
#48 =( LENGTH_UNIT ( ) NAMED_UNIT ( * ) SI_UNIT ( .MILLI., .METRE. ) );
#49 = PRODUCT ( 'C5_display_states__ap214_noappear', 'C5_display_states__ap214_noappear', '', ( #45 ) ) ;
#50 = DIRECTION ( 'NONE',  ( -0.000000000000000000, -1.000000000000000000, -0.000000000000000000 ) ) ;
#51 = PRODUCT_DEFINITION_CONTEXT ( 'detailed design', #72, 'design' ) ;
#52 =( NAMED_UNIT ( * ) PLANE_ANGLE_UNIT ( ) SI_UNIT ( $, .RADIAN. ) );
#53 = PRODUCT_DEFINITION_FORMATION_WITH_SPECIFIED_SOURCE ( 'ANY', '', #97, .NOT_KNOWN. ) ;
#54 = ADVANCED_FACE ( 'NONE', ( #46 ), #125, .F. ) ;
#55 = STYLED_ITEM ( 'NONE', ( #13 ), #58 ) ;
#56 = APPLICATION_CONTEXT ( 'automotive_design' ) ;
#57 = PRODUCT_DEFINITION ( 'UNKNOWN', '', #16, #127 ) ;
#58 = MANIFOLD_SOLID_BREP ( 'Boss-Extrude1', #75 ) ;
#59 = EDGE_LOOP ( 'NONE', ( #96 ) ) ;
#60 = SURFACE_SIDE_STYLE ('',( #37 ) ) ;
#61 = DIRECTION ( 'NONE',  ( 0.000000000000000000, -0.000000000000000000, 1.000000000000000000 ) ) ;
#62 = COLOUR_RGB ( '',0.7921568627450980005, 0.8196078431372548767, 0.9333333333333333481 ) ;
#63 = CARTESIAN_POINT ( 'NONE',  ( 0.000000000000000000, 0.000000000000000000, 50.00000000000000000 ) ) ;
#64 =( NAMED_UNIT ( * ) SI_UNIT ( $, .STERADIAN. ) SOLID_ANGLE_UNIT ( ) );
#65 = DIRECTION ( 'NONE',  ( 1.000000000000000000, 0.000000000000000000, 0.000000000000000000 ) ) ;
#66 = CIRCLE ( 'NONE', #124, 50.00000000000000000 ) ;
#67 = SHAPE_DEFINITION_REPRESENTATION ( #109, #120 ) ;
#68 = APPLICATION_PROTOCOL_DEFINITION ( 'draft international standard', 'automotive_design', 1998, #72 ) ;
#69 = EDGE_CURVE ( 'NONE', #91, #91, #43, .T. ) ;
#70 =( NAMED_UNIT ( * ) SI_UNIT ( $, .STERADIAN. ) SOLID_ANGLE_UNIT ( ) );
#71 = DIRECTION ( 'NONE',  ( 0.000000000000000000, 0.000000000000000000, 1.000000000000000000 ) ) ;
#72 = APPLICATION_CONTEXT ( 'automotive_design' ) ;
#73 = FACE_OUTER_BOUND ( 'NONE', #85, .T. ) ;
#74 = DIRECTION ( 'NONE',  ( 0.000000000000000000, 0.000000000000000000, 1.000000000000000000 ) ) ;
#75 = CLOSED_SHELL ( 'NONE', ( #114, #22, #54 ) ) ;
#76 = AXIS2_PLACEMENT_3D ( 'NONE', #80, #40, #33 ) ;
#77 = ORIENTED_EDGE ( 'NONE', *, *, #69, .F. ) ;
#78 =( NAMED_UNIT ( * ) PLANE_ANGLE_UNIT ( ) SI_UNIT ( $, .RADIAN. ) );
#79 = DIRECTION ( 'NONE',  ( 0.000000000000000000, 0.000000000000000000, 1.000000000000000000 ) ) ;
#80 = CARTESIAN_POINT ( 'NONE',  ( 129.8588026547804475, -29.07840402331203578, -68.52472038008272648 ) ) ;
#81 = CARTESIAN_POINT ( 'NONE',  ( 0.000000000000000000, 100.0000000000000000, 0.000000000000000000 ) ) ;
#82 = PRODUCT_CONTEXT ( 'NONE', #56, 'mechanical' ) ;
#83 = AXIS2_PLACEMENT_3D ( 'NONE', #112, #102, #113 ) ;
#84 = FILL_AREA_STYLE_COLOUR ( '', #62 ) ;
#85 = EDGE_LOOP ( 'NONE', ( #14 ) ) ;
#86 = SHAPE_REPRESENTATION ( 'C5_display_states__ap214_noappear', ( #83, #9, #76 ), #26 ) ;
#87 = DIRECTION ( 'NONE',  ( 0.000000000000000000, 1.000000000000000000, 0.000000000000000000 ) ) ;
#88 = CARTESIAN_POINT ( 'NONE',  ( 0.000000000000000000, 0.000000000000000000, 0.000000000000000000 ) ) ;
#89 = PRODUCT_RELATED_PRODUCT_CATEGORY ( 'part', '', ( #97 ) ) ;
#90 = AXIS2_PLACEMENT_3D ( 'NONE', #88, #74, #65 ) ;
#91 = VERTEX_POINT ( 'NONE', #63 ) ;
#92 = AXIS2_PLACEMENT_3D ( 'NONE', #81, #50, #122 ) ;
#93 =( REPRESENTATION_RELATIONSHIP ('NONE','NONE', #86, #120 ) REPRESENTATION_RELATIONSHIP_WITH_TRANSFORMATION ( #104 )SHAPE_REPRESENTATION_RELATIONSHIP( ) );
#94 = EDGE_LOOP ( 'NONE', ( #4 ) ) ;
#95 = AXIS2_PLACEMENT_3D ( 'NONE', #24, #106, #3 ) ;
#96 = ORIENTED_EDGE ( 'NONE', *, *, #121, .F. ) ;
#97 = PRODUCT ( 'C4_part_1', 'C4_part_1', '', ( #82 ) ) ;
#98 =( GEOMETRIC_REPRESENTATION_CONTEXT ( 3 ) GLOBAL_UNCERTAINTY_ASSIGNED_CONTEXT ( ( #128 ) ) GLOBAL_UNIT_ASSIGNED_CONTEXT ( ( #7, #19, #18 ) ) REPRESENTATION_CONTEXT ( 'NONE', 'WORKASPACE' ) );
#99 = CYLINDRICAL_SURFACE ( 'NONE', #92, 50.00000000000000000 ) ;
#100 = SHAPE_REPRESENTATION_RELATIONSHIP ( 'NONE' , 'NONE' ,  #120, #31 ) ;
#101 = FACE_OUTER_BOUND ( 'NONE', #59, .T. ) ;
#102 = DIRECTION ( 'NONE',  ( 0.000000000000000000, 0.000000000000000000, 1.000000000000000000 ) ) ;
#103 = APPLICATION_CONTEXT ( 'automotive_design' ) ;
#104 = ITEM_DEFINED_TRANSFORMATION ( 'NONE', 'NONE', #9,  #90 ) ;
#105 = CONTEXT_DEPENDENT_SHAPE_REPRESENTATION ( #93, #119 ) ;
#106 = DIRECTION ( 'NONE',  ( 0.000000000000000000, 1.000000000000000000, 0.000000000000000000 ) ) ;
#107 = PRODUCT_RELATED_PRODUCT_CATEGORY ( 'part', '', ( #49 ) ) ;
#108 =( LENGTH_UNIT ( ) NAMED_UNIT ( * ) SI_UNIT ( .MILLI., .METRE. ) );
#109 = PRODUCT_DEFINITION_SHAPE ( 'NONE', 'NONE',  #29 ) ;
#110 = CARTESIAN_POINT ( 'NONE',  ( 0.000000000000000000, 0.000000000000000000, 0.000000000000000000 ) ) ;
#111 = AXIS2_PLACEMENT_3D ( 'NONE', #23, #38, #61 ) ;
#112 = CARTESIAN_POINT ( 'NONE',  ( 0.000000000000000000, 0.000000000000000000, 0.000000000000000000 ) ) ;
#113 = DIRECTION ( 'NONE',  ( 1.000000000000000000, 0.000000000000000000, 0.000000000000000000 ) ) ;
#114 = ADVANCED_FACE ( 'NONE', ( #101, #73 ), #99, .T. ) ;
#115 = CARTESIAN_POINT ( 'NONE',  ( 0.000000000000000000, 0.000000000000000000, 0.000000000000000000 ) ) ;
#116 = AXIS2_PLACEMENT_3D ( 'NONE', #115, #87, #71 ) ;
#117 = EDGE_LOOP ( 'NONE', ( #77 ) ) ;
#118 = UNCERTAINTY_MEASURE_WITH_UNIT (LENGTH_MEASURE( 1.000000000000000082E-05 ), #48, 'distance_accuracy_value', 'NONE');
#119 = PRODUCT_DEFINITION_SHAPE ( 'NONE', 'NONE',  #130 ) ;
#120 = SHAPE_REPRESENTATION ( 'C4_part_1', ( #90 ), #98 ) ;
#121 = EDGE_CURVE ( 'NONE', #6, #6, #66, .T. ) ;
#122 = DIRECTION ( 'NONE',  ( 0.000000000000000000, 0.000000000000000000, -1.000000000000000000 ) ) ;
#123 = FILL_AREA_STYLE ('',( #84 ) ) ;
#124 = AXIS2_PLACEMENT_3D ( 'NONE', #20, #30, #42 ) ;
#125 = PLANE ( 'NONE',  #111 ) ;
#126 =( GEOMETRIC_REPRESENTATION_CONTEXT ( 3 ) GLOBAL_UNCERTAINTY_ASSIGNED_CONTEXT ( ( #10 ) ) GLOBAL_UNIT_ASSIGNED_CONTEXT ( ( #108, #78, #70 ) ) REPRESENTATION_CONTEXT ( 'NONE', 'WORKASPACE' ) );
#127 = PRODUCT_DEFINITION_CONTEXT ( 'detailed design', #41, 'design' ) ;
#128 = UNCERTAINTY_MEASURE_WITH_UNIT (LENGTH_MEASURE( 1.000000000000000082E-05 ), #7, 'distance_accuracy_value', 'NONE');
#129 = DIRECTION ( 'NONE',  ( 0.000000000000000000, 0.000000000000000000, 1.000000000000000000 ) ) ;
#130 = NEXT_ASSEMBLY_USAGE_OCCURRENCE ( 'NAUO1', ' ', ' ', #57, #29, $ ) ;
#131 = NEXT_ASSEMBLY_USAGE_OCCURRENCE ( 'NAUO2', ' ', ' ', #57, #29, $ ) ;
ENDSEC;
END-ISO-10303-21;
