ISO-10303-21;
HEADER;
FILE_DESCRIPTION (( 'STEP AP214' ),
    '1' );
FILE_NAME ('C7_periodic__ap214_appear_fe.step',
    '2026-08-06T13:09:29',
    ( '' ),
    ( '' ),
    'SwSTEP 2.0',
    'SolidWorks 2026',
    '' );
FILE_SCHEMA (( 'AUTOMOTIVE_DESIGN' ));
ENDSEC;

DATA;
#1 = SURFACE_STYLE_USAGE ( .BOTH. , #364 ) ;
#2 = SURFACE_STYLE_USAGE ( .BOTH. , #406 ) ;
#3 = COLOUR_RGB ( '',1.000000000000000000, 0.000000000000000000, 0.000000000000000000 ) ;
#4 =( GEOMETRIC_REPRESENTATION_CONTEXT ( 3 ) GLOBAL_UNCERTAINTY_ASSIGNED_CONTEXT ( ( #346 ) ) GLOBAL_UNIT_ASSIGNED_CONTEXT ( ( #142, #218, #170 ) ) REPRESENTATION_CONTEXT ( 'NONE', 'WORKASPACE' ) );
#5 = AXIS2_PLACEMENT_3D ( 'NONE', #319, #353, #314 ) ;
#6 = CLOSED_SHELL ( 'NONE', ( #368, #250 ) ) ;
#7 =( NAMED_UNIT ( * ) SI_UNIT ( $, .STERADIAN. ) SOLID_ANGLE_UNIT ( ) );
#8 = DIRECTION ( 'NONE',  ( 4.046080116786000560E-16, -1.000000000000000000, -0.000000000000000000 ) ) ;
#9 = CARTESIAN_POINT ( 'NONE',  ( -101.9269295774726771, 68.59868023986780372, 0.000000000000000000 ) ) ;
#10 = APPLICATION_CONTEXT ( 'automotive_design' ) ;
#11 = EDGE_CURVE ( 'NONE', #374, #16, #380, .T. ) ;
#12 =( GEOMETRIC_REPRESENTATION_CONTEXT ( 3 ) GLOBAL_UNCERTAINTY_ASSIGNED_CONTEXT ( ( #402 ) ) GLOBAL_UNIT_ASSIGNED_CONTEXT ( ( #255, #157, #290 ) ) REPRESENTATION_CONTEXT ( 'NONE', 'WORKASPACE' ) );
#13 = PRESENTATION_LAYER_ASSIGNMENT (  '', '', ( #371 ) ) ;
#14 =( GEOMETRIC_REPRESENTATION_CONTEXT ( 3 ) GLOBAL_UNCERTAINTY_ASSIGNED_CONTEXT ( ( #419 ) ) GLOBAL_UNIT_ASSIGNED_CONTEXT ( ( #98, #388, #26 ) ) REPRESENTATION_CONTEXT ( 'NONE', 'WORKASPACE' ) );
#15 = DIRECTION ( 'NONE',  ( -0.000000000000000000, -1.000000000000000000, -0.000000000000000000 ) ) ;
#16 = VERTEX_POINT ( 'NONE', #245 ) ;
#17 = VERTEX_POINT ( 'NONE', #117 ) ;
#18 = EDGE_LOOP ( 'NONE', ( #59 ) ) ;
#19 = DIRECTION ( 'NONE',  ( 1.000000000000000000, 0.000000000000000000, 0.000000000000000000 ) ) ;
#20 = DIRECTION ( 'NONE',  ( 1.000000000000000000, 4.046080116786000560E-16, 0.000000000000000000 ) ) ;
#21 = COLOUR_RGB ( '',1.000000000000000000, 0.000000000000000000, 0.000000000000000000 ) ;
#22 = PRESENTATION_LAYER_ASSIGNMENT (  '', '', ( #71 ) ) ;
#23 = CARTESIAN_POINT ( 'NONE',  ( -59.79593872408656097, -6.938893903907228378E-15, 0.000000000000000000 ) ) ;
#24 = ORIENTED_EDGE ( 'NONE', *, *, #11, .F. ) ;
#25 = ADVANCED_BREP_SHAPE_REPRESENTATION ( 'C7_periodic__ap214_appear_fe', ( #62, #27, #291, #175, #174, #311 ), #139 ) ;
#26 =( NAMED_UNIT ( * ) SI_UNIT ( $, .STERADIAN. ) SOLID_ANGLE_UNIT ( ) );
#27 = MANIFOLD_SOLID_BREP ( 'Revolve2', #6 ) ;
#28 = COLOUR_RGB ( '',0.000000000000000000, 1.000000000000000000, 0.000000000000000000 ) ;
#29 = SURFACE_SIDE_STYLE ('',( #184 ) ) ;
#30 = UNCERTAINTY_MEASURE_WITH_UNIT (LENGTH_MEASURE( 1.000000000000000082E-05 ), #40, 'distance_accuracy_value', 'NONE');
#31 = AXIS2_PLACEMENT_3D ( 'NONE', #394, #127, #293 ) ;
#32 = SURFACE_SIDE_STYLE ('',( #343 ) ) ;
#33 = PRODUCT_CONTEXT ( 'NONE', #10, 'mechanical' ) ;
#34 = DIRECTION ( 'NONE',  ( 4.046080116786000560E-16, -1.000000000000000000, -0.000000000000000000 ) ) ;
#35 = UNCERTAINTY_MEASURE_WITH_UNIT (LENGTH_MEASURE( 1.000000000000000082E-05 ), #153, 'distance_accuracy_value', 'NONE');
#36 = SURFACE_STYLE_USAGE ( .BOTH. , #32 ) ;
#37 =( GEOMETRIC_REPRESENTATION_CONTEXT ( 3 ) GLOBAL_UNCERTAINTY_ASSIGNED_CONTEXT ( ( #155 ) ) GLOBAL_UNIT_ASSIGNED_CONTEXT ( ( #61, #369, #55 ) ) REPRESENTATION_CONTEXT ( 'NONE', 'WORKASPACE' ) );
#38 =( GEOMETRIC_REPRESENTATION_CONTEXT ( 3 ) GLOBAL_UNCERTAINTY_ASSIGNED_CONTEXT ( ( #288 ) ) GLOBAL_UNIT_ASSIGNED_CONTEXT ( ( #43, #362, #7 ) ) REPRESENTATION_CONTEXT ( 'NONE', 'WORKASPACE' ) );
#39 = SURFACE_STYLE_FILL_AREA ( #187 ) ;
#40 =( LENGTH_UNIT ( ) NAMED_UNIT ( * ) SI_UNIT ( .MILLI., .METRE. ) );
#41 = SURFACE_SIDE_STYLE ('',( #39 ) ) ;
#42 = ADVANCED_FACE ( 'NONE', ( ), #395, .T. ) ;
#43 =( LENGTH_UNIT ( ) NAMED_UNIT ( * ) SI_UNIT ( .MILLI., .METRE. ) );
#44 = UNCERTAINTY_MEASURE_WITH_UNIT (LENGTH_MEASURE( 1.000000000000000082E-05 ), #359, 'distance_accuracy_value', 'NONE');
#45 = MECHANICAL_DESIGN_GEOMETRIC_PRESENTATION_REPRESENTATION (  '', ( #192 ), #221 ) ;
#46 = FILL_AREA_STYLE ('',( #78 ) ) ;
#47 = DIRECTION ( 'NONE',  ( 1.000000000000000000, 5.079283697562631313E-16, 0.000000000000000000 ) ) ;
#48 = ADVANCED_FACE ( 'NONE', ( #122 ), #242, .F. ) ;
#49 = SURFACE_STYLE_USAGE ( .BOTH. , #254 ) ;
#50 = APPLICATION_CONTEXT ( 'automotive_design' ) ;
#51 = FACE_OUTER_BOUND ( 'NONE', #18, .T. ) ;
#52 = STYLED_ITEM ( 'NONE', ( #109 ), #368 ) ;
#53 =( GEOMETRIC_REPRESENTATION_CONTEXT ( 3 ) GLOBAL_UNCERTAINTY_ASSIGNED_CONTEXT ( ( #35 ) ) GLOBAL_UNIT_ASSIGNED_CONTEXT ( ( #153, #65, #69 ) ) REPRESENTATION_CONTEXT ( 'NONE', 'WORKASPACE' ) );
#54 = VERTEX_POINT ( 'NONE', #375 ) ;
#55 =( NAMED_UNIT ( * ) SI_UNIT ( $, .STERADIAN. ) SOLID_ANGLE_UNIT ( ) );
#56 = PRESENTATION_LAYER_ASSIGNMENT (  '', '', ( #99 ) ) ;
#57 = DIRECTION ( 'NONE',  ( 1.000000000000000000, 4.046080116786000560E-16, 0.000000000000000000 ) ) ;
#58 = PRESENTATION_STYLE_ASSIGNMENT (( #119 ) ) ;
#59 = ORIENTED_EDGE ( 'NONE', *, *, #270, .F. ) ;
#60 = PRODUCT_DEFINITION ( 'UNKNOWN', '', #150, #96 ) ;
#61 =( LENGTH_UNIT ( ) NAMED_UNIT ( * ) SI_UNIT ( .MILLI., .METRE. ) );
#62 = MANIFOLD_SOLID_BREP ( 'Revolve1', #398 ) ;
#63 = CYLINDRICAL_SURFACE ( 'NONE', #411, 27.32233250620344478 ) ;
#64 = DIRECTION ( 'NONE',  ( -4.046080116786000560E-16, 1.000000000000000000, 0.000000000000000000 ) ) ;
#65 =( NAMED_UNIT ( * ) PLANE_ANGLE_UNIT ( ) SI_UNIT ( $, .RADIAN. ) );
#66 = ORIENTED_EDGE ( 'NONE', *, *, #11, .T. ) ;
#67 = FACE_OUTER_BOUND ( 'NONE', #233, .T. ) ;
#68 = AXIS2_PLACEMENT_3D ( 'NONE', #105, #322, #47 ) ;
#69 =( NAMED_UNIT ( * ) SI_UNIT ( $, .STERADIAN. ) SOLID_ANGLE_UNIT ( ) );
#70 = UNCERTAINTY_MEASURE_WITH_UNIT (LENGTH_MEASURE( 1.000000000000000082E-05 ), #422, 'distance_accuracy_value', 'NONE');
#71 = STYLED_ITEM ( 'NONE', ( #312 ), #27 ) ;
#72 = CARTESIAN_POINT ( 'NONE',  ( -252.3051461046819099, 1.105483462975656834E-14, 0.000000000000000000 ) ) ;
#73 = UNCERTAINTY_MEASURE_WITH_UNIT (LENGTH_MEASURE( 1.000000000000000082E-05 ), #315, 'distance_accuracy_value', 'NONE');
#74 = FILL_AREA_STYLE ('',( #212 ) ) ;
#75 = PRESENTATION_STYLE_ASSIGNMENT (( #400 ) ) ;
#76 = ADVANCED_FACE ( 'NONE', ( #104 ), #135, .F. ) ;
#77 = CARTESIAN_POINT ( 'NONE',  ( 52.95749585036503504, 34.29934011993390897, 0.000000000000000000 ) ) ;
#78 = FILL_AREA_STYLE_COLOUR ( '', #28 ) ;
#79 =( GEOMETRIC_REPRESENTATION_CONTEXT ( 3 ) GLOBAL_UNCERTAINTY_ASSIGNED_CONTEXT ( ( #320 ) ) GLOBAL_UNIT_ASSIGNED_CONTEXT ( ( #389, #172, #238 ) ) REPRESENTATION_CONTEXT ( 'NONE', 'WORKASPACE' ) );
#80 = MECHANICAL_DESIGN_GEOMETRIC_PRESENTATION_REPRESENTATION (  '', ( #133 ), #235 ) ;
#81 = FILL_AREA_STYLE ('',( #321 ) ) ;
#82 =( NAMED_UNIT ( * ) PLANE_ANGLE_UNIT ( ) SI_UNIT ( $, .RADIAN. ) );
#83 = CYLINDRICAL_SURFACE ( 'NONE', #391, 27.32233250620344478 ) ;
#84 = AXIS2_PLACEMENT_3D ( 'NONE', #330, #15, #229 ) ;
#85 = CIRCLE ( 'NONE', #213, 27.32233250620347320 ) ;
#86 = FILL_AREA_STYLE ('',( #87 ) ) ;
#87 = FILL_AREA_STYLE_COLOUR ( '', #146 ) ;
#88 = ORIENTED_EDGE ( 'NONE', *, *, #377, .F. ) ;
#89 =( LENGTH_UNIT ( ) NAMED_UNIT ( * ) SI_UNIT ( .MILLI., .METRE. ) );
#90 = FILL_AREA_STYLE_COLOUR ( '', #116 ) ;
#91 = CARTESIAN_POINT ( 'NONE',  ( -279.6274786108853050, -1.146370378944054438E-14, 0.000000000000000000 ) ) ;
#92 = SHAPE_DEFINITION_REPRESENTATION ( #205, #25 ) ;
#93 = ORIENTED_EDGE ( 'NONE', *, *, #270, .T. ) ;
#94 = STYLED_ITEM ( 'NONE', ( #258 ), #76 ) ;
#95 = SURFACE_STYLE_USAGE ( .BOTH. , #386 ) ;
#96 = PRODUCT_DEFINITION_CONTEXT ( 'detailed design', #50, 'design' ) ;
#97 = SURFACE_STYLE_USAGE ( .BOTH. , #121 ) ;
#98 =( LENGTH_UNIT ( ) NAMED_UNIT ( * ) SI_UNIT ( .MILLI., .METRE. ) );
#99 = STYLED_ITEM ( 'NONE', ( #325 ), #113 ) ;
#100 = CYLINDRICAL_SURFACE ( 'NONE', #132, 27.32233250620344478 ) ;
#101 = FILL_AREA_STYLE_COLOUR ( '', #225 ) ;
#102 = AXIS2_PLACEMENT_3D ( 'NONE', #72, #271, #387 ) ;
#103 = PRESENTATION_LAYER_ASSIGNMENT (  '', '', ( #360 ) ) ;
#104 = FACE_OUTER_BOUND ( 'NONE', #143, .T. ) ;
#105 = CARTESIAN_POINT ( 'NONE',  ( -150.3782165272087070, 68.59868023986786056, 0.000000000000000000 ) ) ;
#106 =( NAMED_UNIT ( * ) SI_UNIT ( $, .STERADIAN. ) SOLID_ANGLE_UNIT ( ) );
#107 = FILL_AREA_STYLE_COLOUR ( '', #163 ) ;
#108 = CLOSED_SHELL ( 'NONE', ( #42 ) ) ;
#109 = PRESENTATION_STYLE_ASSIGNMENT (( #366 ) ) ;
#110 = CARTESIAN_POINT ( 'NONE',  ( -101.9269295774732029, 6.637164850372618952E-14, 0.000000000000000000 ) ) ;
#111 = ORIENTED_EDGE ( 'NONE', *, *, #189, .T. ) ;
#112 = DIRECTION ( 'NONE',  ( 4.046080116786000560E-16, -1.000000000000000000, -0.000000000000000000 ) ) ;
#113 = ADVANCED_FACE ( 'NONE', ( #285 ), #329, .T. ) ;
#114 =( GEOMETRIC_REPRESENTATION_CONTEXT ( 3 ) GLOBAL_UNCERTAINTY_ASSIGNED_CONTEXT ( ( #361 ) ) GLOBAL_UNIT_ASSIGNED_CONTEXT ( ( #415, #82, #306 ) ) REPRESENTATION_CONTEXT ( 'NONE', 'WORKASPACE' ) );
#115 = VECTOR ( 'NONE', #112, 1000.000000000000000 ) ;
#116 = COLOUR_RGB ( '',1.000000000000000000, 0.000000000000000000, 0.000000000000000000 ) ;
#117 = CARTESIAN_POINT ( 'NONE',  ( -123.0558840210052836, 68.59868023986787477, 0.000000000000000000 ) ) ;
#118 = LINE ( 'NONE', #145, #115 ) ;
#119 = SURFACE_STYLE_USAGE ( .BOTH. , #222 ) ;
#120 = EDGE_LOOP ( 'NONE', ( #409 ) ) ;
#121 = SURFACE_SIDE_STYLE ('',( #344 ) ) ;
#122 = FACE_OUTER_BOUND ( 'NONE', #120, .T. ) ;
#123 = STYLED_ITEM ( 'NONE', ( #207 ), #48 ) ;
#124 = DIRECTION ( 'NONE',  ( 0.000000000000000000, -0.000000000000000000, 1.000000000000000000 ) ) ;
#125 =( GEOMETRIC_REPRESENTATION_CONTEXT ( 3 ) GLOBAL_UNCERTAINTY_ASSIGNED_CONTEXT ( ( #30 ) ) GLOBAL_UNIT_ASSIGNED_CONTEXT ( ( #40, #126, #131 ) ) REPRESENTATION_CONTEXT ( 'NONE', 'WORKASPACE' ) );
#126 =( NAMED_UNIT ( * ) PLANE_ANGLE_UNIT ( ) SI_UNIT ( $, .RADIAN. ) );
#127 = DIRECTION ( 'NONE',  ( 4.046080116786000560E-16, -1.000000000000000000, -0.000000000000000000 ) ) ;
#128 = ADVANCED_FACE ( 'NONE', ( #372, #51 ), #63, .T. ) ;
#129 = PRESENTATION_STYLE_ASSIGNMENT (( #244 ) ) ;
#130 = STYLED_ITEM ( 'NONE', ( #206 ), #204 ) ;
#131 =( NAMED_UNIT ( * ) SI_UNIT ( $, .STERADIAN. ) SOLID_ANGLE_UNIT ( ) );
#132 = AXIS2_PLACEMENT_3D ( 'NONE', #347, #310, #203 ) ;
#133 = STYLED_ITEM ( 'NONE', ( #154 ), #42 ) ;
#134 = DIRECTION ( 'NONE',  ( 1.000000000000000000, 5.079283697562631313E-16, 0.000000000000000000 ) ) ;
#135 = PLANE ( 'NONE',  #268 ) ;
#136 = FACE_OUTER_BOUND ( 'NONE', #168, .T. ) ;
#137 = FILL_AREA_STYLE ('',( #301 ) ) ;
#138 = FILL_AREA_STYLE ('',( #399 ) ) ;
#139 =( GEOMETRIC_REPRESENTATION_CONTEXT ( 3 ) GLOBAL_UNCERTAINTY_ASSIGNED_CONTEXT ( ( #237 ) ) GLOBAL_UNIT_ASSIGNED_CONTEXT ( ( #89, #226, #162 ) ) REPRESENTATION_CONTEXT ( 'NONE', 'WORKASPACE' ) );
#140 = PRESENTATION_LAYER_ASSIGNMENT (  '', '', ( #303 ) ) ;
#141 = FILL_AREA_STYLE_COLOUR ( '', #144 ) ;
#142 =( LENGTH_UNIT ( ) NAMED_UNIT ( * ) SI_UNIT ( .MILLI., .METRE. ) );
#143 = EDGE_LOOP ( 'NONE', ( #383, #202 ) ) ;
#144 = COLOUR_RGB ( '',0.000000000000000000, 1.000000000000000000, 1.000000000000000000 ) ;
#145 = CARTESIAN_POINT ( 'NONE',  ( -224.9828135984784581, 1.064596547007257179E-14, 0.000000000000000000 ) ) ;
#146 = COLOUR_RGB ( '',0.9098039215686274384, 0.4431372549019607643, 0.03137254901960784270 ) ;
#147 = ORIENTED_EDGE ( 'NONE', *, *, #355, .F. ) ;
#148 = FACE_OUTER_BOUND ( 'NONE', #269, .T. ) ;
#149 = FILL_AREA_STYLE ('',( #350 ) ) ;
#150 = PRODUCT_DEFINITION_FORMATION_WITH_SPECIFIED_SOURCE ( 'ANY', '', #181, .NOT_KNOWN. ) ;
#151 = AXIS2_PLACEMENT_3D ( 'NONE', #201, #421, #124 ) ;
#152 =( GEOMETRIC_REPRESENTATION_CONTEXT ( 3 ) GLOBAL_UNCERTAINTY_ASSIGNED_CONTEXT ( ( #240 ) ) GLOBAL_UNIT_ASSIGNED_CONTEXT ( ( #191, #326, #160 ) ) REPRESENTATION_CONTEXT ( 'NONE', 'WORKASPACE' ) );
#153 =( LENGTH_UNIT ( ) NAMED_UNIT ( * ) SI_UNIT ( .MILLI., .METRE. ) );
#154 = PRESENTATION_STYLE_ASSIGNMENT (( #354 ) ) ;
#155 = UNCERTAINTY_MEASURE_WITH_UNIT (LENGTH_MEASURE( 1.000000000000000082E-05 ), #61, 'distance_accuracy_value', 'NONE');
#156 = MECHANICAL_DESIGN_GEOMETRIC_PRESENTATION_REPRESENTATION (  '', ( #360 ), #38 ) ;
#157 =( NAMED_UNIT ( * ) PLANE_ANGLE_UNIT ( ) SI_UNIT ( $, .RADIAN. ) );
#158 = COLOUR_RGB ( '',1.000000000000000000, 1.000000000000000000, 0.000000000000000000 ) ;
#159 = EDGE_CURVE ( 'NONE', #333, #333, #85, .T. ) ;
#160 =( NAMED_UNIT ( * ) SI_UNIT ( $, .STERADIAN. ) SOLID_ANGLE_UNIT ( ) );
#161 = SURFACE_STYLE_FILL_AREA ( #74 ) ;
#162 =( NAMED_UNIT ( * ) SI_UNIT ( $, .STERADIAN. ) SOLID_ANGLE_UNIT ( ) );
#163 = COLOUR_RGB ( '',0.9098039215686274384, 0.4431372549019607643, 0.03137254901960784270 ) ;
#164 = MECHANICAL_DESIGN_GEOMETRIC_PRESENTATION_REPRESENTATION (  '', ( #303 ), #37 ) ;
#165 = FILL_AREA_STYLE ('',( #141 ) ) ;
#166 = CARTESIAN_POINT ( 'NONE',  ( -59.79593872408656097, -6.938893903907228378E-15, -27.32233250620347320 ) ) ;
#167 =( LENGTH_UNIT ( ) NAMED_UNIT ( * ) SI_UNIT ( .MILLI., .METRE. ) );
#168 = EDGE_LOOP ( 'NONE', ( #93 ) ) ;
#169 = PRESENTATION_LAYER_ASSIGNMENT (  '', '', ( #52 ) ) ;
#170 =( NAMED_UNIT ( * ) SI_UNIT ( $, .STERADIAN. ) SOLID_ANGLE_UNIT ( ) );
#171 = PRESENTATION_LAYER_ASSIGNMENT (  '', '', ( #123 ) ) ;
#172 =( NAMED_UNIT ( * ) PLANE_ANGLE_UNIT ( ) SI_UNIT ( $, .RADIAN. ) );
#173 = DIRECTION ( 'NONE',  ( -1.000000000000000000, -4.046080116785989713E-16, 0.000000000000000000 ) ) ;
#174 = MANIFOLD_SOLID_BREP ( 'Split Line2', #304 ) ;
#175 = MANIFOLD_SOLID_BREP ( 'Revolve4', #108 ) ;
#176 = SURFACE_STYLE_FILL_AREA ( #424 ) ;
#177 = MECHANICAL_DESIGN_GEOMETRIC_PRESENTATION_REPRESENTATION (  '', ( #371 ), #358 ) ;
#178 = PRESENTATION_LAYER_ASSIGNMENT (  '', '', ( #192 ) ) ;
#179 = AXIS2_PLACEMENT_3D ( 'NONE', #356, #309, #173 ) ;
#180 = CARTESIAN_POINT ( 'NONE',  ( -224.9828135984784865, 68.59868023986787477, 0.000000000000000000 ) ) ;
#181 = PRODUCT ( 'C7_periodic__ap214_appear_fe', 'C7_periodic__ap214_appear_fe', '', ( #33 ) ) ;
#182 = FACE_OUTER_BOUND ( 'NONE', #339, .T. ) ;
#183 = ADVANCED_FACE ( 'NONE', ( #148 ), #83, .T. ) ;
#184 = SURFACE_STYLE_FILL_AREA ( #149 ) ;
#185 = AXIS2_PLACEMENT_3D ( 'NONE', #276, #34, #210 ) ;
#186 = CARTESIAN_POINT ( 'NONE',  ( -252.3051461046819099, 68.59868023986786056, 0.000000000000000000 ) ) ;
#187 = FILL_AREA_STYLE ('',( #252 ) ) ;
#188 = DIRECTION ( 'NONE',  ( -1.000000000000000000, 4.046080116785987741E-16, 0.000000000000000000 ) ) ;
#189 = EDGE_CURVE ( 'NONE', #412, #374, #234, .T. ) ;
#190 =( NAMED_UNIT ( * ) SI_UNIT ( $, .STERADIAN. ) SOLID_ANGLE_UNIT ( ) );
#191 =( LENGTH_UNIT ( ) NAMED_UNIT ( * ) SI_UNIT ( .MILLI., .METRE. ) );
#192 = STYLED_ITEM ( 'NONE', ( #58 ), #175 ) ;
#193 = PRESENTATION_LAYER_ASSIGNMENT (  '', '', ( #392 ) ) ;
#194 =( NAMED_UNIT ( * ) PLANE_ANGLE_UNIT ( ) SI_UNIT ( $, .RADIAN. ) );
#195 = SURFACE_STYLE_FILL_AREA ( #86 ) ;
#196 = DIRECTION ( 'NONE',  ( 4.046080116786000560E-16, -1.000000000000000000, -0.000000000000000000 ) ) ;
#197 = CIRCLE ( 'NONE', #5, 27.32233250620341636 ) ;
#198 = AXIS2_PLACEMENT_3D ( 'NONE', #110, #227, #297 ) ;
#199 = FILL_AREA_STYLE_COLOUR ( '', #3 ) ;
#200 = SURFACE_STYLE_USAGE ( .BOTH. , #408 ) ;
#201 = CARTESIAN_POINT ( 'NONE',  ( 0.000000000000000000, -3.469446951953614189E-15, 0.000000000000000000 ) ) ;
#202 = ORIENTED_EDGE ( 'NONE', *, *, #336, .F. ) ;
#203 = DIRECTION ( 'NONE',  ( 1.000000000000000000, 4.046080116786000560E-16, 0.000000000000000000 ) ) ;
#204 = ADVANCED_FACE ( 'NONE', ( #67 ), #100, .T. ) ;
#205 = PRODUCT_DEFINITION_SHAPE ( 'NONE', 'NONE',  #60 ) ;
#206 = PRESENTATION_STYLE_ASSIGNMENT (( #97 ) ) ;
#207 = PRESENTATION_STYLE_ASSIGNMENT (( #95 ) ) ;
#208 = FILL_AREA_STYLE ('',( #393 ) ) ;
#209 = MECHANICAL_DESIGN_GEOMETRIC_PRESENTATION_REPRESENTATION (  '', ( #94 ), #281 ) ;
#210 = DIRECTION ( 'NONE',  ( 1.000000000000000000, 4.046080116786000560E-16, 0.000000000000000000 ) ) ;
#211 = PRESENTATION_LAYER_ASSIGNMENT (  '', '', ( #349 ) ) ;
#212 = FILL_AREA_STYLE_COLOUR ( '', #251 ) ;
#213 = AXIS2_PLACEMENT_3D ( 'NONE', #23, #260, #230 ) ;
#214 = SURFACE_STYLE_FILL_AREA ( #138 ) ;
#215 = SURFACE_STYLE_FILL_AREA ( #46 ) ;
#216 = DIRECTION ( 'NONE',  ( 1.000000000000000000, 4.046080116786000560E-16, 0.000000000000000000 ) ) ;
#217 = AXIS2_PLACEMENT_3D ( 'NONE', #378, #196, #57 ) ;
#218 =( NAMED_UNIT ( * ) PLANE_ANGLE_UNIT ( ) SI_UNIT ( $, .RADIAN. ) );
#219 = EDGE_LOOP ( 'NONE', ( #307 ) ) ;
#220 = SURFACE_STYLE_FILL_AREA ( #137 ) ;
#221 =( GEOMETRIC_REPRESENTATION_CONTEXT ( 3 ) GLOBAL_UNCERTAINTY_ASSIGNED_CONTEXT ( ( #316 ) ) GLOBAL_UNIT_ASSIGNED_CONTEXT ( ( #167, #376, #423 ) ) REPRESENTATION_CONTEXT ( 'NONE', 'WORKASPACE' ) );
#222 = SURFACE_SIDE_STYLE ('',( #266 ) ) ;
#223 = CIRCLE ( 'NONE', #68, 27.32233250620341636 ) ;
#224 = MECHANICAL_DESIGN_GEOMETRIC_PRESENTATION_REPRESENTATION (  '', ( #313 ), #12 ) ;
#225 = COLOUR_RGB ( '',0.8941176470588234615, 0.8941176470588234615, 0.8941176470588234615 ) ;
#226 =( NAMED_UNIT ( * ) PLANE_ANGLE_UNIT ( ) SI_UNIT ( $, .RADIAN. ) );
#227 = DIRECTION ( 'NONE',  ( 4.046080116786000560E-16, -1.000000000000000000, -0.000000000000000000 ) ) ;
#228 = ORIENTED_EDGE ( 'NONE', *, *, #159, .T. ) ;
#229 = DIRECTION ( 'NONE',  ( 0.000000000000000000, 0.000000000000000000, -1.000000000000000000 ) ) ;
#230 = DIRECTION ( 'NONE',  ( 0.000000000000000000, 0.000000000000000000, -1.000000000000000000 ) ) ;
#231 = ORIENTED_EDGE ( 'NONE', *, *, #336, .T. ) ;
#232 = CARTESIAN_POINT ( 'NONE',  ( -252.3051461046819099, -4.088691596839861464E-16, 0.000000000000000000 ) ) ;
#233 = EDGE_LOOP ( 'NONE', ( #24, #264, #147, #370 ) ) ;
#234 = CIRCLE ( 'NONE', #102, 27.32233250620347320 ) ;
#235 =( GEOMETRIC_REPRESENTATION_CONTEXT ( 3 ) GLOBAL_UNCERTAINTY_ASSIGNED_CONTEXT ( ( #73 ) ) GLOBAL_UNIT_ASSIGNED_CONTEXT ( ( #315, #239, #275 ) ) REPRESENTATION_CONTEXT ( 'NONE', 'WORKASPACE' ) );
#236 = FILL_AREA_STYLE_COLOUR ( '', #365 ) ;
#237 = UNCERTAINTY_MEASURE_WITH_UNIT (LENGTH_MEASURE( 1.000000000000000082E-05 ), #89, 'distance_accuracy_value', 'NONE');
#238 =( NAMED_UNIT ( * ) SI_UNIT ( $, .STERADIAN. ) SOLID_ANGLE_UNIT ( ) );
#239 =( NAMED_UNIT ( * ) PLANE_ANGLE_UNIT ( ) SI_UNIT ( $, .RADIAN. ) );
#240 = UNCERTAINTY_MEASURE_WITH_UNIT (LENGTH_MEASURE( 1.000000000000000082E-05 ), #191, 'distance_accuracy_value', 'NONE');
#241 = DIRECTION ( 'NONE',  ( 1.000000000000000000, 4.046080116786000560E-16, 0.000000000000000000 ) ) ;
#242 = PLANE ( 'NONE',  #31 ) ;
#243 = VECTOR ( 'NONE', #64, 1000.000000000000000 ) ;
#244 = SURFACE_STYLE_USAGE ( .BOTH. , #249 ) ;
#245 = CARTESIAN_POINT ( 'NONE',  ( -279.6274786108853050, 68.59868023986784635, 0.000000000000000000 ) ) ;
#246 = SURFACE_SIDE_STYLE ('',( #161 ) ) ;
#247 = SURFACE_STYLE_USAGE ( .BOTH. , #41 ) ;
#248 = CONICAL_SURFACE ( 'NONE', #84, 404.2272126816378659, 0.3841452057184321367 ) ;
#249 = SURFACE_SIDE_STYLE ('',( #294 ) ) ;
#250 = ADVANCED_FACE ( 'NONE', ( #182 ), #381, .F. ) ;
#251 = COLOUR_RGB ( '',0.000000000000000000, 1.000000000000000000, 0.000000000000000000 ) ;
#252 = FILL_AREA_STYLE_COLOUR ( '', #413 ) ;
#253 = COLOUR_RGB ( '',0.9098039215686274384, 0.4431372549019607643, 0.03137254901960784270 ) ;
#254 = SURFACE_SIDE_STYLE ('',( #323 ) ) ;
#255 =( LENGTH_UNIT ( ) NAMED_UNIT ( * ) SI_UNIT ( .MILLI., .METRE. ) );
#256 = EDGE_CURVE ( 'NONE', #267, #16, #197, .T. ) ;
#257 = CARTESIAN_POINT ( 'NONE',  ( -279.6274786108853618, 3.081487911019577365E-30, 0.000000000000000000 ) ) ;
#258 = PRESENTATION_STYLE_ASSIGNMENT (( #247 ) ) ;
#259 = CARTESIAN_POINT ( 'NONE',  ( 0.000000000000000000, 0.000000000000000000, 0.000000000000000000 ) ) ;
#260 = DIRECTION ( 'NONE',  ( -0.000000000000000000, -1.000000000000000000, -0.000000000000000000 ) ) ;
#261 = ORIENTED_EDGE ( 'NONE', *, *, #377, .T. ) ;
#262 = APPLICATION_PROTOCOL_DEFINITION ( 'draft international standard', 'automotive_design', 1998, #10 ) ;
#263 = CARTESIAN_POINT ( 'NONE',  ( -150.3782165272086786, -4.088691596839861464E-16, 0.000000000000000000 ) ) ;
#264 = ORIENTED_EDGE ( 'NONE', *, *, #189, .F. ) ;
#265 = CARTESIAN_POINT ( 'NONE',  ( -2.685450073292357992E-29, 6.637164850372618952E-14, 0.000000000000000000 ) ) ;
#266 = SURFACE_STYLE_FILL_AREA ( #165 ) ;
#267 = VERTEX_POINT ( 'NONE', #180 ) ;
#268 = AXIS2_PLACEMENT_3D ( 'NONE', #9, #401, #216 ) ;
#269 = EDGE_LOOP ( 'NONE', ( #88, #66, #231, #416 ) ) ;
#270 = EDGE_CURVE ( 'NONE', #54, #54, #286, .T. ) ;
#271 = DIRECTION ( 'NONE',  ( 4.046080116786000560E-16, -1.000000000000000000, -0.000000000000000000 ) ) ;
#272 = AXIS2_PLACEMENT_3D ( 'NONE', #186, #8, #134 ) ;
#273 = FILL_AREA_STYLE ('',( #101 ) ) ;
#274 = PRESENTATION_LAYER_ASSIGNMENT (  '', '', ( #94 ) ) ;
#275 =( NAMED_UNIT ( * ) SI_UNIT ( $, .STERADIAN. ) SOLID_ANGLE_UNIT ( ) );
#276 = CARTESIAN_POINT ( 'NONE',  ( -150.3782165272086786, 1.105483462975656834E-14, 0.000000000000000000 ) ) ;
#277 =( NAMED_UNIT ( * ) PLANE_ANGLE_UNIT ( ) SI_UNIT ( $, .RADIAN. ) );
#278 = FILL_AREA_STYLE ('',( #199 ) ) ;
#279 = AXIS2_PLACEMENT_3D ( 'NONE', #77, #328, #188 ) ;
#280 = MECHANICAL_DESIGN_GEOMETRIC_PRESENTATION_REPRESENTATION (  '', ( #392 ), #114 ) ;
#281 =( GEOMETRIC_REPRESENTATION_CONTEXT ( 3 ) GLOBAL_UNCERTAINTY_ASSIGNED_CONTEXT ( ( #284 ) ) GLOBAL_UNIT_ASSIGNED_CONTEXT ( ( #295, #283, #106 ) ) REPRESENTATION_CONTEXT ( 'NONE', 'WORKASPACE' ) );
#282 = FILL_AREA_STYLE ('',( #107 ) ) ;
#283 =( NAMED_UNIT ( * ) PLANE_ANGLE_UNIT ( ) SI_UNIT ( $, .RADIAN. ) );
#284 = UNCERTAINTY_MEASURE_WITH_UNIT (LENGTH_MEASURE( 1.000000000000000082E-05 ), #295, 'distance_accuracy_value', 'NONE');
#285 = FACE_OUTER_BOUND ( 'NONE', #298, .T. ) ;
#286 = CIRCLE ( 'NONE', #185, 27.32233250620347320 ) ;
#287 = MECHANICAL_DESIGN_GEOMETRIC_PRESENTATION_REPRESENTATION (  '', ( #52 ), #4 ) ;
#288 = UNCERTAINTY_MEASURE_WITH_UNIT (LENGTH_MEASURE( 1.000000000000000082E-05 ), #43, 'distance_accuracy_value', 'NONE');
#289 = MECHANICAL_DESIGN_GEOMETRIC_PRESENTATION_REPRESENTATION (  '', ( #71 ), #14 ) ;
#290 =( NAMED_UNIT ( * ) SI_UNIT ( $, .STERADIAN. ) SOLID_ANGLE_UNIT ( ) );
#291 = MANIFOLD_SOLID_BREP ( 'Revolve3', #327 ) ;
#292 = ADVANCED_FACE ( 'NONE', ( ), #417, .T. ) ;
#293 = DIRECTION ( 'NONE',  ( 1.000000000000000000, 4.046080116786000560E-16, 0.000000000000000000 ) ) ;
#294 = SURFACE_STYLE_FILL_AREA ( #282 ) ;
#295 =( LENGTH_UNIT ( ) NAMED_UNIT ( * ) SI_UNIT ( .MILLI., .METRE. ) );
#296 = CIRCLE ( 'NONE', #217, 27.32233250620347320 ) ;
#297 = DIRECTION ( 'NONE',  ( 1.000000000000000000, 4.046080116786000560E-16, 0.000000000000000000 ) ) ;
#298 = EDGE_LOOP ( 'NONE', ( #111, #261 ) ) ;
#299 = PRESENTATION_LAYER_ASSIGNMENT (  '', '', ( #133 ) ) ;
#300 = DIRECTION ( 'NONE',  ( 4.046080116786000560E-16, -1.000000000000000000, -0.000000000000000000 ) ) ;
#301 = FILL_AREA_STYLE_COLOUR ( '', #158 ) ;
#302 = SURFACE_SIDE_STYLE ('',( #195 ) ) ;
#303 = STYLED_ITEM ( 'NONE', ( #338 ), #174 ) ;
#304 = CLOSED_SHELL ( 'NONE', ( #183, #204, #113, #76 ) ) ;
#305 = COLOUR_RGB ( '',0.000000000000000000, 1.000000000000000000, 1.000000000000000000 ) ;
#306 =( NAMED_UNIT ( * ) SI_UNIT ( $, .STERADIAN. ) SOLID_ANGLE_UNIT ( ) );
#307 = ORIENTED_EDGE ( 'NONE', *, *, #317, .T. ) ;
#308 = APPLICATION_PROTOCOL_DEFINITION ( 'draft international standard', 'automotive_design', 1998, #50 ) ;
#309 = DIRECTION ( 'NONE',  ( 0.000000000000000000, 0.000000000000000000, 1.000000000000000000 ) ) ;
#310 = DIRECTION ( 'NONE',  ( 4.046080116786000560E-16, -1.000000000000000000, -0.000000000000000000 ) ) ;
#311 = AXIS2_PLACEMENT_3D ( 'NONE', #259, #407, #19 ) ;
#312 = PRESENTATION_STYLE_ASSIGNMENT (( #390 ) ) ;
#313 = STYLED_ITEM ( 'NONE', ( #75 ), #292 ) ;
#314 = DIRECTION ( 'NONE',  ( 1.000000000000000000, 5.079283697562631313E-16, 0.000000000000000000 ) ) ;
#315 =( LENGTH_UNIT ( ) NAMED_UNIT ( * ) SI_UNIT ( .MILLI., .METRE. ) );
#316 = UNCERTAINTY_MEASURE_WITH_UNIT (LENGTH_MEASURE( 1.000000000000000082E-05 ), #167, 'distance_accuracy_value', 'NONE');
#317 = EDGE_CURVE ( 'NONE', #17, #17, #223, .T. ) ;
#318 =( NAMED_UNIT ( * ) SI_UNIT ( $, .STERADIAN. ) SOLID_ANGLE_UNIT ( ) );
#319 = CARTESIAN_POINT ( 'NONE',  ( -252.3051461046819099, 68.59868023986786056, 0.000000000000000000 ) ) ;
#320 = UNCERTAINTY_MEASURE_WITH_UNIT (LENGTH_MEASURE( 1.000000000000000082E-05 ), #389, 'distance_accuracy_value', 'NONE');
#321 = FILL_AREA_STYLE_COLOUR ( '', #253 ) ;
#322 = DIRECTION ( 'NONE',  ( 4.046080116786000560E-16, -1.000000000000000000, -0.000000000000000000 ) ) ;
#323 = SURFACE_STYLE_FILL_AREA ( #81 ) ;
#324 = PRESENTATION_STYLE_ASSIGNMENT (( #1 ) ) ;
#325 = PRESENTATION_STYLE_ASSIGNMENT (( #2 ) ) ;
#326 =( NAMED_UNIT ( * ) PLANE_ANGLE_UNIT ( ) SI_UNIT ( $, .RADIAN. ) );
#327 = CLOSED_SHELL ( 'NONE', ( #292 ) ) ;
#328 = DIRECTION ( 'NONE',  ( 4.046080116785987248E-16, 1.000000000000000000, -0.000000000000000000 ) ) ;
#329 = PLANE ( 'NONE',  #198 ) ;
#330 = CARTESIAN_POINT ( 'NONE',  ( -59.79593872408656097, -932.4084780810587745, 0.000000000000000000 ) ) ;
#331 = DIRECTION ( 'NONE',  ( 4.046080116786000560E-16, -1.000000000000000000, -0.000000000000000000 ) ) ;
#332 = AXIS2_PLACEMENT_3D ( 'NONE', #265, #300, #342 ) ;
#333 = VERTEX_POINT ( 'NONE', #166 ) ;
#334 = SURFACE_STYLE_FILL_AREA ( #341 ) ;
#335 = MECHANICAL_DESIGN_GEOMETRIC_PRESENTATION_REPRESENTATION (  '', ( #130 ), #79 ) ;
#336 = EDGE_CURVE ( 'NONE', #16, #267, #357, .T. ) ;
#337 = SURFACE_SIDE_STYLE ('',( #220 ) ) ;
#338 = PRESENTATION_STYLE_ASSIGNMENT (( #200 ) ) ;
#339 = EDGE_LOOP ( 'NONE', ( #228 ) ) ;
#340 = FACE_OUTER_BOUND ( 'NONE', #410, .T. ) ;
#341 = FILL_AREA_STYLE ('',( #90 ) ) ;
#342 = DIRECTION ( 'NONE',  ( 1.000000000000000000, 4.046080116786000560E-16, 0.000000000000000000 ) ) ;
#343 = SURFACE_STYLE_FILL_AREA ( #278 ) ;
#344 = SURFACE_STYLE_FILL_AREA ( #208 ) ;
#345 = SURFACE_STYLE_FILL_AREA ( #273 ) ;
#346 = UNCERTAINTY_MEASURE_WITH_UNIT (LENGTH_MEASURE( 1.000000000000000082E-05 ), #142, 'distance_accuracy_value', 'NONE');
#347 = CARTESIAN_POINT ( 'NONE',  ( -252.3051461046819099, -4.088691596839861464E-16, 0.000000000000000000 ) ) ;
#348 = PRESENTATION_LAYER_ASSIGNMENT (  '', '', ( #418 ) ) ;
#349 = STYLED_ITEM ( 'NONE', ( #129 ), #351 ) ;
#350 = FILL_AREA_STYLE_COLOUR ( '', #305 ) ;
#351 = ADVANCED_FACE ( 'NONE', ( #136 ), #404, .T. ) ;
#352 = MECHANICAL_DESIGN_GEOMETRIC_PRESENTATION_REPRESENTATION (  '', ( #123 ), #427 ) ;
#353 = DIRECTION ( 'NONE',  ( 4.046080116786000560E-16, -1.000000000000000000, -0.000000000000000000 ) ) ;
#354 = SURFACE_STYLE_USAGE ( .BOTH. , #29 ) ;
#355 = EDGE_CURVE ( 'NONE', #267, #412, #118, .T. ) ;
#356 = CARTESIAN_POINT ( 'NONE',  ( 177.7005490334121589, 34.29934011993392318, 0.000000000000000000 ) ) ;
#357 = CIRCLE ( 'NONE', #272, 27.32233250620341636 ) ;
#358 =( GEOMETRIC_REPRESENTATION_CONTEXT ( 3 ) GLOBAL_UNCERTAINTY_ASSIGNED_CONTEXT ( ( #44 ) ) GLOBAL_UNIT_ASSIGNED_CONTEXT ( ( #359, #194, #190 ) ) REPRESENTATION_CONTEXT ( 'NONE', 'WORKASPACE' ) );
#359 =( LENGTH_UNIT ( ) NAMED_UNIT ( * ) SI_UNIT ( .MILLI., .METRE. ) );
#360 = STYLED_ITEM ( 'NONE', ( #396 ), #62 ) ;
#361 = UNCERTAINTY_MEASURE_WITH_UNIT (LENGTH_MEASURE( 1.000000000000000082E-05 ), #415, 'distance_accuracy_value', 'NONE');
#362 =( NAMED_UNIT ( * ) PLANE_ANGLE_UNIT ( ) SI_UNIT ( $, .RADIAN. ) );
#363 = MECHANICAL_DESIGN_GEOMETRIC_PRESENTATION_REPRESENTATION (  '', ( #349 ), #125 ) ;
#364 = SURFACE_SIDE_STYLE ('',( #215 ) ) ;
#365 = COLOUR_RGB ( '',0.9098039215686274384, 0.4431372549019607643, 0.03137254901960784270 ) ;
#366 = SURFACE_STYLE_USAGE ( .BOTH. , #337 ) ;
#367 = PRESENTATION_STYLE_ASSIGNMENT (( #379 ) ) ;
#368 = ADVANCED_FACE ( 'NONE', ( #340 ), #248, .T. ) ;
#369 =( NAMED_UNIT ( * ) PLANE_ANGLE_UNIT ( ) SI_UNIT ( $, .RADIAN. ) );
#370 = ORIENTED_EDGE ( 'NONE', *, *, #256, .T. ) ;
#371 = STYLED_ITEM ( 'NONE', ( #324 ), #291 ) ;
#372 = FACE_OUTER_BOUND ( 'NONE', #219, .T. ) ;
#373 = PRESENTATION_LAYER_ASSIGNMENT (  '', '', ( #313 ) ) ;
#374 = VERTEX_POINT ( 'NONE', #257 ) ;
#375 = CARTESIAN_POINT ( 'NONE',  ( -123.0558840210051983, 2.210966925951313668E-14, 0.000000000000000000 ) ) ;
#376 =( NAMED_UNIT ( * ) PLANE_ANGLE_UNIT ( ) SI_UNIT ( $, .RADIAN. ) );
#377 = EDGE_CURVE ( 'NONE', #374, #412, #296, .T. ) ;
#378 = CARTESIAN_POINT ( 'NONE',  ( -252.3051461046819099, 1.105483462975656834E-14, 0.000000000000000000 ) ) ;
#379 = SURFACE_STYLE_USAGE ( .BOTH. , #302 ) ;
#380 = LINE ( 'NONE', #91, #243 ) ;
#381 = PLANE ( 'NONE',  #151 ) ;
#382 = PRESENTATION_LAYER_ASSIGNMENT (  '', '', ( #130 ) ) ;
#383 = ORIENTED_EDGE ( 'NONE', *, *, #256, .F. ) ;
#384 = MECHANICAL_DESIGN_GEOMETRIC_PRESENTATION_REPRESENTATION (  '', ( #99 ), #152 ) ;
#385 = DIRECTION ( 'NONE',  ( 4.046080116786000560E-16, -1.000000000000000000, -0.000000000000000000 ) ) ;
#386 = SURFACE_SIDE_STYLE ('',( #176 ) ) ;
#387 = DIRECTION ( 'NONE',  ( 1.000000000000000000, 4.046080116786000560E-16, 0.000000000000000000 ) ) ;
#388 =( NAMED_UNIT ( * ) PLANE_ANGLE_UNIT ( ) SI_UNIT ( $, .RADIAN. ) );
#389 =( LENGTH_UNIT ( ) NAMED_UNIT ( * ) SI_UNIT ( .MILLI., .METRE. ) );
#390 = SURFACE_STYLE_USAGE ( .BOTH. , #426 ) ;
#391 = AXIS2_PLACEMENT_3D ( 'NONE', #232, #385, #241 ) ;
#392 = STYLED_ITEM ( 'NONE', ( #367 ), #128 ) ;
#393 = FILL_AREA_STYLE_COLOUR ( '', #21 ) ;
#394 = CARTESIAN_POINT ( 'NONE',  ( 5.226482373249980788E-13, 68.59868023986780372, 0.000000000000000000 ) ) ;
#395 = SPHERICAL_SURFACE ( 'NONE', #179, 34.29934011993392318 ) ;
#396 = PRESENTATION_STYLE_ASSIGNMENT (( #49 ) ) ;
#397 = MECHANICAL_DESIGN_GEOMETRIC_PRESENTATION_REPRESENTATION (  '', ( #418 ), #53 ) ;
#398 = CLOSED_SHELL ( 'NONE', ( #128, #351, #48 ) ) ;
#399 = FILL_AREA_STYLE_COLOUR ( '', #420 ) ;
#400 = SURFACE_STYLE_USAGE ( .BOTH. , #246 ) ;
#401 = DIRECTION ( 'NONE',  ( 4.046080116786000560E-16, -1.000000000000000000, -0.000000000000000000 ) ) ;
#402 = UNCERTAINTY_MEASURE_WITH_UNIT (LENGTH_MEASURE( 1.000000000000000082E-05 ), #255, 'distance_accuracy_value', 'NONE');
#403 = PRODUCT_RELATED_PRODUCT_CATEGORY ( 'part', '', ( #181 ) ) ;
#404 = PLANE ( 'NONE',  #332 ) ;
#405 = CARTESIAN_POINT ( 'NONE',  ( -224.9828135984784296, 2.210966925951313668E-14, 0.000000000000000000 ) ) ;
#406 = SURFACE_SIDE_STYLE ('',( #214 ) ) ;
#407 = DIRECTION ( 'NONE',  ( 0.000000000000000000, 0.000000000000000000, 1.000000000000000000 ) ) ;
#408 = SURFACE_SIDE_STYLE ('',( #334 ) ) ;
#409 = ORIENTED_EDGE ( 'NONE', *, *, #317, .F. ) ;
#410 = EDGE_LOOP ( 'NONE', ( #414 ) ) ;
#411 = AXIS2_PLACEMENT_3D ( 'NONE', #263, #331, #20 ) ;
#412 = VERTEX_POINT ( 'NONE', #405 ) ;
#413 = COLOUR_RGB ( '',1.000000000000000000, 0.000000000000000000, 0.000000000000000000 ) ;
#414 = ORIENTED_EDGE ( 'NONE', *, *, #159, .F. ) ;
#415 =( LENGTH_UNIT ( ) NAMED_UNIT ( * ) SI_UNIT ( .MILLI., .METRE. ) );
#416 = ORIENTED_EDGE ( 'NONE', *, *, #355, .T. ) ;
#417 = TOROIDAL_SURFACE ( 'NONE', #279, 33.41787314310669643, 17.34688904745910421 ) ;
#418 = STYLED_ITEM ( 'NONE', ( #425 ), #183 ) ;
#419 = UNCERTAINTY_MEASURE_WITH_UNIT (LENGTH_MEASURE( 1.000000000000000082E-05 ), #98, 'distance_accuracy_value', 'NONE');
#420 = COLOUR_RGB ( '',1.000000000000000000, 0.000000000000000000, 0.000000000000000000 ) ;
#421 = DIRECTION ( 'NONE',  ( 0.000000000000000000, 1.000000000000000000, 0.000000000000000000 ) ) ;
#422 =( LENGTH_UNIT ( ) NAMED_UNIT ( * ) SI_UNIT ( .MILLI., .METRE. ) );
#423 =( NAMED_UNIT ( * ) SI_UNIT ( $, .STERADIAN. ) SOLID_ANGLE_UNIT ( ) );
#424 = FILL_AREA_STYLE ('',( #236 ) ) ;
#425 = PRESENTATION_STYLE_ASSIGNMENT (( #36 ) ) ;
#426 = SURFACE_SIDE_STYLE ('',( #345 ) ) ;
#427 =( GEOMETRIC_REPRESENTATION_CONTEXT ( 3 ) GLOBAL_UNCERTAINTY_ASSIGNED_CONTEXT ( ( #70 ) ) GLOBAL_UNIT_ASSIGNED_CONTEXT ( ( #422, #277, #318 ) ) REPRESENTATION_CONTEXT ( 'NONE', 'WORKASPACE' ) );
ENDSEC;
END-ISO-10303-21;
