ISO-10303-21;
HEADER;
FILE_DESCRIPTION (( 'STEP AP203' ),
    '1' );
FILE_NAME ('C7_periodic__ap203.step',
    '2026-08-06T13:09:28',
    ( '' ),
    ( '' ),
    'SwSTEP 2.0',
    'SolidWorks 2026',
    '' );
FILE_SCHEMA (( 'CONFIG_CONTROL_DESIGN' ));
ENDSEC;

DATA;
#1 = CYLINDRICAL_SURFACE ( 'NONE', #258, 27.32233250620344478 ) ;
#2 = DESIGN_CONTEXT ( 'detailed design', #64, 'design' ) ;
#3 =( NAMED_UNIT ( * ) SI_UNIT ( $, .STERADIAN. ) SOLID_ANGLE_UNIT ( ) );
#4 = LOCAL_TIME ( 14, 9, 28.00000000000000000, #255 ) ;
#5 = CARTESIAN_POINT ( 'NONE',  ( -59.79593872408656097, -6.938893903907228378E-15, -27.32233250620347320 ) ) ;
#6 = PERSON_AND_ORGANIZATION ( #211, #66 ) ;
#7 = LOCAL_TIME ( 14, 9, 28.00000000000000000, #47 ) ;
#8 = VERTEX_POINT ( 'NONE', #196 ) ;
#9 = FACE_OUTER_BOUND ( 'NONE', #90, .T. ) ;
#10 = ORIENTED_EDGE ( 'NONE', *, *, #205, .T. ) ;
#11 = APPROVAL_DATE_TIME ( #200, #174 ) ;
#12 = DIRECTION ( 'NONE',  ( 0.000000000000000000, 0.000000000000000000, 1.000000000000000000 ) ) ;
#13 = MANIFOLD_SOLID_BREP ( 'Revolve2', #180 ) ;
#14 = DIRECTION ( 'NONE',  ( 0.000000000000000000, 1.000000000000000000, 0.000000000000000000 ) ) ;
#15 = CIRCLE ( 'NONE', #165, 27.32233250620347320 ) ;
#16 = CARTESIAN_POINT ( 'NONE',  ( -279.6274786108853050, 68.59868023986784635, 0.000000000000000000 ) ) ;
#17 = ADVANCED_FACE ( 'NONE', ( #9, #88 ), #170, .T. ) ;
#18 = CARTESIAN_POINT ( 'NONE',  ( -279.6274786108853050, -1.146370378944054438E-14, 0.000000000000000000 ) ) ;
#19 = SECURITY_CLASSIFICATION ( '', '', #127 ) ;
#20 = CC_DESIGN_DATE_AND_TIME_ASSIGNMENT ( #123, #35, ( #191 ) ) ;
#21 = DIRECTION ( 'NONE',  ( 4.046080116786000560E-16, -1.000000000000000000, -0.000000000000000000 ) ) ;
#22 = AXIS2_PLACEMENT_3D ( 'NONE', #181, #185, #159 ) ;
#23 = CARTESIAN_POINT ( 'NONE',  ( -252.3051461046819099, 68.59868023986786056, 0.000000000000000000 ) ) ;
#24 = ADVANCED_FACE ( 'NONE', ( #144 ), #227, .T. ) ;
#25 = DIRECTION ( 'NONE',  ( 4.046080116786000560E-16, -1.000000000000000000, -0.000000000000000000 ) ) ;
#26 = AXIS2_PLACEMENT_3D ( 'NONE', #23, #25, #105 ) ;
#27 = CC_DESIGN_PERSON_AND_ORGANIZATION_ASSIGNMENT ( #6, #167, ( #54 ) ) ;
#28 = LINE ( 'NONE', #188, #42 ) ;
#29 = DATE_AND_TIME ( #216, #4 ) ;
#30 = CLOSED_SHELL ( 'NONE', ( #17, #124, #44 ) ) ;
#31 = ORIENTED_EDGE ( 'NONE', *, *, #234, .F. ) ;
#32 = APPROVAL_ROLE ( '' ) ;
#33 = ORIENTED_EDGE ( 'NONE', *, *, #215, .F. ) ;
#34 = MANIFOLD_SOLID_BREP ( 'Revolve3', #83 ) ;
#35 = DATE_TIME_ROLE ( 'creation_date' ) ;
#36 = ORIENTED_EDGE ( 'NONE', *, *, #226, .F. ) ;
#37 = DIRECTION ( 'NONE',  ( -4.046080116786000560E-16, 1.000000000000000000, 0.000000000000000000 ) ) ;
#38 = FACE_OUTER_BOUND ( 'NONE', #177, .T. ) ;
#39 = AXIS2_PLACEMENT_3D ( 'NONE', #77, #60, #118 ) ;
#40 = CARTESIAN_POINT ( 'NONE',  ( -252.3051461046819099, 1.105483462975656834E-14, 0.000000000000000000 ) ) ;
#41 = PLANE ( 'NONE',  #78 ) ;
#42 = VECTOR ( 'NONE', #65, 1000.000000000000000 ) ;
#43 = CALENDAR_DATE ( 2026, 6, 8 ) ;
#44 = ADVANCED_FACE ( 'NONE', ( #55 ), #158, .F. ) ;
#45 = CALENDAR_DATE ( 2026, 6, 8 ) ;
#46 = DIRECTION ( 'NONE',  ( 0.000000000000000000, 0.000000000000000000, -1.000000000000000000 ) ) ;
#47 = COORDINATED_UNIVERSAL_TIME_OFFSET ( 0, 0, .AHEAD. ) ;
#48 = CC_DESIGN_APPROVAL ( #104, ( #19 ) ) ;
#49 = DATE_AND_TIME ( #168, #198 ) ;
#50 = ORIENTED_EDGE ( 'NONE', *, *, #178, .F. ) ;
#51 = ORIENTED_EDGE ( 'NONE', *, *, #80, .T. ) ;
#52 = PRODUCT_DEFINITION_FORMATION_WITH_SPECIFIED_SOURCE ( 'ANY', '', #54, .NOT_KNOWN. ) ;
#53 = DIRECTION ( 'NONE',  ( 4.046080116786000560E-16, -1.000000000000000000, -0.000000000000000000 ) ) ;
#54 = PRODUCT ( 'C7_periodic__ap203', 'C7_periodic__ap203', '', ( #249 ) ) ;
#55 = FACE_OUTER_BOUND ( 'NONE', #217, .T. ) ;
#56 = CARTESIAN_POINT ( 'NONE',  ( 5.226482373249980788E-13, 68.59868023986780372, 0.000000000000000000 ) ) ;
#57 = ADVANCED_FACE ( 'NONE', ( #203 ), #265, .F. ) ;
#58 = AXIS2_PLACEMENT_3D ( 'NONE', #193, #208, #46 ) ;
#59 = PRODUCT_RELATED_PRODUCT_CATEGORY ( 'detail', '', ( #54 ) ) ;
#60 = DIRECTION ( 'NONE',  ( 4.046080116786000560E-16, -1.000000000000000000, -0.000000000000000000 ) ) ;
#61 = APPROVAL_STATUS ( 'not_yet_approved' ) ;
#62 = AXIS2_PLACEMENT_3D ( 'NONE', #69, #244, #242 ) ;
#63 = PERSON_AND_ORGANIZATION_ROLE ( 'creator' ) ;
#64 = APPLICATION_CONTEXT ( 'configuration controlled 3d designs of mechanical parts and assemblies' ) ;
#65 = DIRECTION ( 'NONE',  ( 4.046080116786000560E-16, -1.000000000000000000, -0.000000000000000000 ) ) ;
#66 = ORGANIZATION ( 'UNSPECIFIED', 'UNSPECIFIED', '' ) ;
#67 = APPLICATION_PROTOCOL_DEFINITION ( 'international standard', 'config_control_design', 1994, #64 ) ;
#68 = APPROVAL ( #61, 'UNSPECIFIED' ) ;
#69 = CARTESIAN_POINT ( 'NONE',  ( -150.3782165272086786, -4.088691596839861464E-16, 0.000000000000000000 ) ) ;
#70 = PERSON_AND_ORGANIZATION ( #211, #66 ) ;
#71 = CLOSED_SHELL ( 'NONE', ( #133 ) ) ;
#72 = EDGE_LOOP ( 'NONE', ( #169 ) ) ;
#73 = ADVANCED_BREP_SHAPE_REPRESENTATION ( 'C7_periodic__ap203', ( #112, #13, #34, #115, #114, #106 ), #111 ) ;
#74 = CARTESIAN_POINT ( 'NONE',  ( 0.000000000000000000, -3.469446951953614189E-15, 0.000000000000000000 ) ) ;
#75 = SPHERICAL_SURFACE ( 'NONE', #245, 34.29934011993392318 ) ;
#76 = DIRECTION ( 'NONE',  ( 1.000000000000000000, 4.046080116786000560E-16, 0.000000000000000000 ) ) ;
#77 = CARTESIAN_POINT ( 'NONE',  ( -252.3051461046819099, 68.59868023986786056, 0.000000000000000000 ) ) ;
#78 = AXIS2_PLACEMENT_3D ( 'NONE', #74, #14, #120 ) ;
#79 = DIRECTION ( 'NONE',  ( 4.046080116786000560E-16, -1.000000000000000000, -0.000000000000000000 ) ) ;
#80 = EDGE_CURVE ( 'NONE', #8, #259, #15, .T. ) ;
#81 = CARTESIAN_POINT ( 'NONE',  ( 0.000000000000000000, 0.000000000000000000, 0.000000000000000000 ) ) ;
#82 = CARTESIAN_POINT ( 'NONE',  ( -224.9828135984784296, 2.210966925951313668E-14, 0.000000000000000000 ) ) ;
#83 = CLOSED_SHELL ( 'NONE', ( #138 ) ) ;
#84 = CARTESIAN_POINT ( 'NONE',  ( -59.79593872408656097, -932.4084780810587745, 0.000000000000000000 ) ) ;
#85 = DIRECTION ( 'NONE',  ( 0.000000000000000000, 0.000000000000000000, 1.000000000000000000 ) ) ;
#86 = APPROVAL_STATUS ( 'not_yet_approved' ) ;
#87 = ORIENTED_EDGE ( 'NONE', *, *, #264, .F. ) ;
#88 = FACE_OUTER_BOUND ( 'NONE', #256, .T. ) ;
#89 = DATE_TIME_ROLE ( 'classification_date' ) ;
#90 = EDGE_LOOP ( 'NONE', ( #175 ) ) ;
#91 = DIRECTION ( 'NONE',  ( 4.046080116785987248E-16, 1.000000000000000000, -0.000000000000000000 ) ) ;
#92 = PLANE ( 'NONE',  #22 ) ;
#93 = CIRCLE ( 'NONE', #223, 27.32233250620341636 ) ;
#94 = CARTESIAN_POINT ( 'NONE',  ( 177.7005490334121589, 34.29934011993392318, 0.000000000000000000 ) ) ;
#95 = CARTESIAN_POINT ( 'NONE',  ( -101.9269295774726771, 68.59868023986780372, 0.000000000000000000 ) ) ;
#96 = PRODUCT_DEFINITION_SHAPE ( 'NONE', 'NONE',  #191 ) ;
#97 = DIRECTION ( 'NONE',  ( 1.000000000000000000, 5.079283697562631313E-16, 0.000000000000000000 ) ) ;
#98 = AXIS2_PLACEMENT_3D ( 'NONE', #157, #182, #76 ) ;
#99 = VERTEX_POINT ( 'NONE', #252 ) ;
#100 = VERTEX_POINT ( 'NONE', #232 ) ;
#101 = AXIS2_PLACEMENT_3D ( 'NONE', #139, #221, #247 ) ;
#102 = EDGE_CURVE ( 'NONE', #214, #129, #151, .T. ) ;
#103 =( NAMED_UNIT ( * ) PLANE_ANGLE_UNIT ( ) SI_UNIT ( $, .RADIAN. ) );
#104 = APPROVAL ( #86, 'UNSPECIFIED' ) ;
#105 = DIRECTION ( 'NONE',  ( 1.000000000000000000, 5.079283697562631313E-16, 0.000000000000000000 ) ) ;
#106 = AXIS2_PLACEMENT_3D ( 'NONE', #81, #85, #161 ) ;
#107 = EDGE_LOOP ( 'NONE', ( #137, #219, #31, #238 ) ) ;
#108 = CC_DESIGN_PERSON_AND_ORGANIZATION_ASSIGNMENT ( #218, #110, ( #19 ) ) ;
#109 = EDGE_LOOP ( 'NONE', ( #36, #172 ) ) ;
#110 = PERSON_AND_ORGANIZATION_ROLE ( 'classification_officer' ) ;
#111 =( GEOMETRIC_REPRESENTATION_CONTEXT ( 3 ) GLOBAL_UNCERTAINTY_ASSIGNED_CONTEXT ( ( #228 ) ) GLOBAL_UNIT_ASSIGNED_CONTEXT ( ( #233, #103, #3 ) ) REPRESENTATION_CONTEXT ( 'NONE', 'WORKASPACE' ) );
#112 = MANIFOLD_SOLID_BREP ( 'Revolve1', #30 ) ;
#113 = DIRECTION ( 'NONE',  ( 1.000000000000000000, 4.046080116786000560E-16, 0.000000000000000000 ) ) ;
#114 = MANIFOLD_SOLID_BREP ( 'Split Line2', #235 ) ;
#115 = MANIFOLD_SOLID_BREP ( 'Revolve4', #71 ) ;
#116 = DIRECTION ( 'NONE',  ( 4.046080116786000560E-16, -1.000000000000000000, -0.000000000000000000 ) ) ;
#117 = AXIS2_PLACEMENT_3D ( 'NONE', #56, #224, #113 ) ;
#118 = DIRECTION ( 'NONE',  ( 1.000000000000000000, 5.079283697562631313E-16, 0.000000000000000000 ) ) ;
#119 = EDGE_CURVE ( 'NONE', #8, #214, #266, .T. ) ;
#120 = DIRECTION ( 'NONE',  ( 0.000000000000000000, -0.000000000000000000, 1.000000000000000000 ) ) ;
#121 = PERSON_AND_ORGANIZATION ( #211, #66 ) ;
#122 = DIRECTION ( 'NONE',  ( 4.046080116786000560E-16, -1.000000000000000000, -0.000000000000000000 ) ) ;
#123 = DATE_AND_TIME ( #45, #146 ) ;
#124 = ADVANCED_FACE ( 'NONE', ( #183 ), #92, .T. ) ;
#125 = CARTESIAN_POINT ( 'NONE',  ( -150.3782165272086786, 1.105483462975656834E-14, 0.000000000000000000 ) ) ;
#126 = AXIS2_PLACEMENT_3D ( 'NONE', #262, #91, #179 ) ;
#127 = SECURITY_CLASSIFICATION_LEVEL ( 'unclassified' ) ;
#128 = CC_DESIGN_DATE_AND_TIME_ASSIGNMENT ( #29, #89, ( #19 ) ) ;
#129 = VERTEX_POINT ( 'NONE', #246 ) ;
#130 = AXIS2_PLACEMENT_3D ( 'NONE', #141, #53, #206 ) ;
#131 = PERSON_AND_ORGANIZATION_ROLE ( 'creator' ) ;
#132 = SHAPE_DEFINITION_REPRESENTATION ( #96, #73 ) ;
#133 = ADVANCED_FACE ( 'NONE', ( ), #75, .T. ) ;
#134 = PERSON_AND_ORGANIZATION ( #211, #66 ) ;
#135 = EDGE_LOOP ( 'NONE', ( #154, #201, #197, #261 ) ) ;
#136 = CC_DESIGN_APPROVAL ( #68, ( #191 ) ) ;
#137 = ORIENTED_EDGE ( 'NONE', *, *, #119, .F. ) ;
#138 = ADVANCED_FACE ( 'NONE', ( ), #189, .T. ) ;
#139 = CARTESIAN_POINT ( 'NONE',  ( -252.3051461046819099, 1.105483462975656834E-14, 0.000000000000000000 ) ) ;
#140 = DIRECTION ( 'NONE',  ( 1.000000000000000000, 4.046080116786000560E-16, 0.000000000000000000 ) ) ;
#141 = CARTESIAN_POINT ( 'NONE',  ( -252.3051461046819099, -4.088691596839861464E-16, 0.000000000000000000 ) ) ;
#142 = CIRCLE ( 'NONE', #155, 27.32233250620347320 ) ;
#143 = DIRECTION ( 'NONE',  ( 1.000000000000000000, 4.046080116786000560E-16, 0.000000000000000000 ) ) ;
#144 = FACE_OUTER_BOUND ( 'NONE', #107, .T. ) ;
#145 = APPROVAL_ROLE ( '' ) ;
#146 = LOCAL_TIME ( 14, 9, 28.00000000000000000, #147 ) ;
#147 = COORDINATED_UNIVERSAL_TIME_OFFSET ( 0, 0, .AHEAD. ) ;
#148 = ADVANCED_FACE ( 'NONE', ( #38 ), #222, .T. ) ;
#149 = CC_DESIGN_PERSON_AND_ORGANIZATION_ASSIGNMENT ( #250, #63, ( #191 ) ) ;
#150 = AXIS2_PLACEMENT_3D ( 'NONE', #84, #166, #251 ) ;
#151 = CIRCLE ( 'NONE', #39, 27.32233250620341636 ) ;
#152 = CALENDAR_DATE ( 2026, 6, 8 ) ;
#153 = CC_DESIGN_SECURITY_CLASSIFICATION ( #19, ( #52 ) ) ;
#154 = ORIENTED_EDGE ( 'NONE', *, *, #80, .F. ) ;
#155 = AXIS2_PLACEMENT_3D ( 'NONE', #125, #122, #192 ) ;
#156 = CARTESIAN_POINT ( 'NONE',  ( -252.3051461046819099, -4.088691596839861464E-16, 0.000000000000000000 ) ) ;
#157 = CARTESIAN_POINT ( 'NONE',  ( -101.9269295774732029, 6.637164850372618952E-14, 0.000000000000000000 ) ) ;
#158 = PLANE ( 'NONE',  #117 ) ;
#159 = DIRECTION ( 'NONE',  ( 1.000000000000000000, 4.046080116786000560E-16, 0.000000000000000000 ) ) ;
#160 = DIRECTION ( 'NONE',  ( -1.000000000000000000, -4.046080116785989713E-16, 0.000000000000000000 ) ) ;
#161 = DIRECTION ( 'NONE',  ( 1.000000000000000000, 0.000000000000000000, 0.000000000000000000 ) ) ;
#162 = APPROVAL_PERSON_ORGANIZATION ( #70, #104, #195 ) ;
#163 = ADVANCED_FACE ( 'NONE', ( #225 ), #41, .F. ) ;
#164 = APPLICATION_PROTOCOL_DEFINITION ( 'international standard', 'config_control_design', 1994, #190 ) ;
#165 = AXIS2_PLACEMENT_3D ( 'NONE', #40, #21, #143 ) ;
#166 = DIRECTION ( 'NONE',  ( -0.000000000000000000, -1.000000000000000000, -0.000000000000000000 ) ) ;
#167 = PERSON_AND_ORGANIZATION_ROLE ( 'design_owner' ) ;
#168 = CALENDAR_DATE ( 2026, 6, 8 ) ;
#169 = ORIENTED_EDGE ( 'NONE', *, *, #215, .T. ) ;
#170 = CYLINDRICAL_SURFACE ( 'NONE', #62, 27.32233250620344478 ) ;
#171 = PERSON_AND_ORGANIZATION_ROLE ( 'design_supplier' ) ;
#172 = ORIENTED_EDGE ( 'NONE', *, *, #102, .F. ) ;
#173 = CIRCLE ( 'NONE', #26, 27.32233250620341636 ) ;
#174 = APPROVAL ( #257, 'UNSPECIFIED' ) ;
#175 = ORIENTED_EDGE ( 'NONE', *, *, #178, .T. ) ;
#176 = PERSON_AND_ORGANIZATION ( #211, #66 ) ;
#177 = EDGE_LOOP ( 'NONE', ( #10, #51 ) ) ;
#178 = EDGE_CURVE ( 'NONE', #100, #100, #93, .T. ) ;
#179 = DIRECTION ( 'NONE',  ( -1.000000000000000000, 4.046080116785987741E-16, 0.000000000000000000 ) ) ;
#180 = CLOSED_SHELL ( 'NONE', ( #237, #163 ) ) ;
#181 = CARTESIAN_POINT ( 'NONE',  ( -2.685450073292357992E-29, 6.637164850372618952E-14, 0.000000000000000000 ) ) ;
#182 = DIRECTION ( 'NONE',  ( 4.046080116786000560E-16, -1.000000000000000000, -0.000000000000000000 ) ) ;
#183 = FACE_OUTER_BOUND ( 'NONE', #72, .T. ) ;
#184 = CC_DESIGN_APPROVAL ( #174, ( #52 ) ) ;
#185 = DIRECTION ( 'NONE',  ( 4.046080116786000560E-16, -1.000000000000000000, -0.000000000000000000 ) ) ;
#186 = LOCAL_TIME ( 14, 9, 28.00000000000000000, #229 ) ;
#187 = APPROVAL_DATE_TIME ( #210, #68 ) ;
#188 = CARTESIAN_POINT ( 'NONE',  ( -224.9828135984784581, 1.064596547007257179E-14, 0.000000000000000000 ) ) ;
#189 = TOROIDAL_SURFACE ( 'NONE', #126, 33.41787314310669643, 17.34688904745910421 ) ;
#190 = APPLICATION_CONTEXT ( 'configuration controlled 3d designs of mechanical parts and assemblies' ) ;
#191 = PRODUCT_DEFINITION ( 'UNKNOWN', '', #52, #2 ) ;
#192 = DIRECTION ( 'NONE',  ( 1.000000000000000000, 4.046080116786000560E-16, 0.000000000000000000 ) ) ;
#193 = CARTESIAN_POINT ( 'NONE',  ( -59.79593872408656097, -6.938893903907228378E-15, 0.000000000000000000 ) ) ;
#194 = CONICAL_SURFACE ( 'NONE', #150, 404.2272126816378659, 0.3841452057184321367 ) ;
#195 = APPROVAL_ROLE ( '' ) ;
#196 = CARTESIAN_POINT ( 'NONE',  ( -279.6274786108853618, 3.081487911019577365E-30, 0.000000000000000000 ) ) ;
#197 = ORIENTED_EDGE ( 'NONE', *, *, #102, .T. ) ;
#198 = LOCAL_TIME ( 14, 9, 28.00000000000000000, #236 ) ;
#199 = ORIENTED_EDGE ( 'NONE', *, *, #264, .T. ) ;
#200 = DATE_AND_TIME ( #152, #7 ) ;
#201 = ORIENTED_EDGE ( 'NONE', *, *, #119, .T. ) ;
#202 = DIRECTION ( 'NONE',  ( 4.046080116786000560E-16, -1.000000000000000000, -0.000000000000000000 ) ) ;
#203 = FACE_OUTER_BOUND ( 'NONE', #109, .T. ) ;
#204 = DIRECTION ( 'NONE',  ( 1.000000000000000000, 4.046080116786000560E-16, 0.000000000000000000 ) ) ;
#205 = EDGE_CURVE ( 'NONE', #259, #8, #263, .T. ) ;
#206 = DIRECTION ( 'NONE',  ( 1.000000000000000000, 4.046080116786000560E-16, 0.000000000000000000 ) ) ;
#207 = CARTESIAN_POINT ( 'NONE',  ( -150.3782165272087070, 68.59868023986786056, 0.000000000000000000 ) ) ;
#208 = DIRECTION ( 'NONE',  ( -0.000000000000000000, -1.000000000000000000, -0.000000000000000000 ) ) ;
#209 = APPROVAL_PERSON_ORGANIZATION ( #134, #174, #32 ) ;
#210 = DATE_AND_TIME ( #43, #186 ) ;
#211 = PERSON ( 'UNSPECIFIED', 'UNSPECIFIED', 'UNSPECIFIED', ('UNSPECIFIED'), ('UNSPECIFIED'), ('UNSPECIFIED') ) ;
#212 = ADVANCED_FACE ( 'NONE', ( #243 ), #1, .T. ) ;
#213 = VECTOR ( 'NONE', #37, 1000.000000000000000 ) ;
#214 = VERTEX_POINT ( 'NONE', #16 ) ;
#215 = EDGE_CURVE ( 'NONE', #99, #99, #142, .T. ) ;
#216 = CALENDAR_DATE ( 2026, 6, 8 ) ;
#217 = EDGE_LOOP ( 'NONE', ( #50 ) ) ;
#218 = PERSON_AND_ORGANIZATION ( #211, #66 ) ;
#219 = ORIENTED_EDGE ( 'NONE', *, *, #205, .F. ) ;
#220 = EDGE_LOOP ( 'NONE', ( #199 ) ) ;
#221 = DIRECTION ( 'NONE',  ( 4.046080116786000560E-16, -1.000000000000000000, -0.000000000000000000 ) ) ;
#222 = PLANE ( 'NONE',  #98 ) ;
#223 = AXIS2_PLACEMENT_3D ( 'NONE', #207, #79, #97 ) ;
#224 = DIRECTION ( 'NONE',  ( 4.046080116786000560E-16, -1.000000000000000000, -0.000000000000000000 ) ) ;
#225 = FACE_OUTER_BOUND ( 'NONE', #220, .T. ) ;
#226 = EDGE_CURVE ( 'NONE', #129, #214, #173, .T. ) ;
#227 = CYLINDRICAL_SURFACE ( 'NONE', #130, 27.32233250620344478 ) ;
#228 = UNCERTAINTY_MEASURE_WITH_UNIT (LENGTH_MEASURE( 1.000000000000000082E-05 ), #233, 'distance_accuracy_value', 'NONE');
#229 = COORDINATED_UNIVERSAL_TIME_OFFSET ( 0, 0, .AHEAD. ) ;
#230 = AXIS2_PLACEMENT_3D ( 'NONE', #95, #202, #140 ) ;
#231 = FACE_OUTER_BOUND ( 'NONE', #240, .T. ) ;
#232 = CARTESIAN_POINT ( 'NONE',  ( -123.0558840210052836, 68.59868023986787477, 0.000000000000000000 ) ) ;
#233 =( LENGTH_UNIT ( ) NAMED_UNIT ( * ) SI_UNIT ( .MILLI., .METRE. ) );
#234 = EDGE_CURVE ( 'NONE', #129, #259, #28, .T. ) ;
#235 = CLOSED_SHELL ( 'NONE', ( #212, #24, #148, #57 ) ) ;
#236 = COORDINATED_UNIVERSAL_TIME_OFFSET ( 0, 0, .AHEAD. ) ;
#237 = ADVANCED_FACE ( 'NONE', ( #231 ), #194, .T. ) ;
#238 = ORIENTED_EDGE ( 'NONE', *, *, #226, .T. ) ;
#239 = CC_DESIGN_PERSON_AND_ORGANIZATION_ASSIGNMENT ( #254, #171, ( #52 ) ) ;
#240 = EDGE_LOOP ( 'NONE', ( #87 ) ) ;
#241 = CIRCLE ( 'NONE', #58, 27.32233250620347320 ) ;
#242 = DIRECTION ( 'NONE',  ( 1.000000000000000000, 4.046080116786000560E-16, 0.000000000000000000 ) ) ;
#243 = FACE_OUTER_BOUND ( 'NONE', #135, .T. ) ;
#244 = DIRECTION ( 'NONE',  ( 4.046080116786000560E-16, -1.000000000000000000, -0.000000000000000000 ) ) ;
#245 = AXIS2_PLACEMENT_3D ( 'NONE', #94, #12, #160 ) ;
#246 = CARTESIAN_POINT ( 'NONE',  ( -224.9828135984784865, 68.59868023986787477, 0.000000000000000000 ) ) ;
#247 = DIRECTION ( 'NONE',  ( 1.000000000000000000, 4.046080116786000560E-16, 0.000000000000000000 ) ) ;
#248 = CC_DESIGN_PERSON_AND_ORGANIZATION_ASSIGNMENT ( #176, #131, ( #52 ) ) ;
#249 = MECHANICAL_CONTEXT ( 'NONE', #190, 'mechanical' ) ;
#250 = PERSON_AND_ORGANIZATION ( #211, #66 ) ;
#251 = DIRECTION ( 'NONE',  ( 0.000000000000000000, 0.000000000000000000, -1.000000000000000000 ) ) ;
#252 = CARTESIAN_POINT ( 'NONE',  ( -123.0558840210051983, 2.210966925951313668E-14, 0.000000000000000000 ) ) ;
#253 = VERTEX_POINT ( 'NONE', #5 ) ;
#254 = PERSON_AND_ORGANIZATION ( #211, #66 ) ;
#255 = COORDINATED_UNIVERSAL_TIME_OFFSET ( 0, 0, .AHEAD. ) ;
#256 = EDGE_LOOP ( 'NONE', ( #33 ) ) ;
#257 = APPROVAL_STATUS ( 'not_yet_approved' ) ;
#258 = AXIS2_PLACEMENT_3D ( 'NONE', #156, #116, #204 ) ;
#259 = VERTEX_POINT ( 'NONE', #82 ) ;
#260 = APPROVAL_DATE_TIME ( #49, #104 ) ;
#261 = ORIENTED_EDGE ( 'NONE', *, *, #234, .T. ) ;
#262 = CARTESIAN_POINT ( 'NONE',  ( 52.95749585036503504, 34.29934011993390897, 0.000000000000000000 ) ) ;
#263 = CIRCLE ( 'NONE', #101, 27.32233250620347320 ) ;
#264 = EDGE_CURVE ( 'NONE', #253, #253, #241, .T. ) ;
#265 = PLANE ( 'NONE',  #230 ) ;
#266 = LINE ( 'NONE', #18, #213 ) ;
#267 = APPROVAL_PERSON_ORGANIZATION ( #121, #68, #145 ) ;
ENDSEC;
END-ISO-10303-21;
