ISO-10303-21;
HEADER;
FILE_DESCRIPTION (( 'STEP AP214' ),
    '1' );
FILE_NAME ('C7_periodic__ap214_cfg.step',
    '2026-08-06T13:09:29',
    ( '' ),
    ( '' ),
    'SwSTEP 2.0',
    'SolidWorks 2026',
    '' );
FILE_SCHEMA (( 'AUTOMOTIVE_DESIGN' ));
ENDSEC;

DATA;
#1 = DIRECTION ( 'NONE',  ( 4.046080116785987248E-16, 1.000000000000000000, -0.000000000000000000 ) ) ;
#2 = CIRCLE ( 'NONE', #132, 27.32233250620347320 ) ;
#3 =( GEOMETRIC_REPRESENTATION_CONTEXT ( 3 ) GLOBAL_UNCERTAINTY_ASSIGNED_CONTEXT ( ( #90 ) ) GLOBAL_UNIT_ASSIGNED_CONTEXT ( ( #210, #206, #170 ) ) REPRESENTATION_CONTEXT ( 'NONE', 'WORKASPACE' ) );
#4 = SURFACE_SIDE_STYLE ('',( #269 ) ) ;
#5 =( NAMED_UNIT ( * ) PLANE_ANGLE_UNIT ( ) SI_UNIT ( $, .RADIAN. ) );
#6 = CYLINDRICAL_SURFACE ( 'NONE', #47, 27.32233250620344478 ) ;
#7 = PRESENTATION_LAYER_ASSIGNMENT (  '', '', ( #64 ) ) ;
#8 = FILL_AREA_STYLE_COLOUR ( '', #181 ) ;
#9 = CARTESIAN_POINT ( 'NONE',  ( -59.79593872408656097, -932.4084780810587745, 0.000000000000000000 ) ) ;
#10 = EDGE_CURVE ( 'NONE', #254, #273, #167, .T. ) ;
#11 = MECHANICAL_DESIGN_GEOMETRIC_PRESENTATION_REPRESENTATION (  '', ( #58 ), #76 ) ;
#12 = AXIS2_PLACEMENT_3D ( 'NONE', #416, #91, #94 ) ;
#13 = SURFACE_STYLE_FILL_AREA ( #346 ) ;
#14 = FILL_AREA_STYLE ('',( #156 ) ) ;
#15 = VERTEX_POINT ( 'NONE', #272 ) ;
#16 = AXIS2_PLACEMENT_3D ( 'NONE', #176, #69, #271 ) ;
#17 = DIRECTION ( 'NONE',  ( -0.000000000000000000, -1.000000000000000000, -0.000000000000000000 ) ) ;
#18 = EDGE_LOOP ( 'NONE', ( #190, #385 ) ) ;
#19 = MANIFOLD_SOLID_BREP ( 'Revolve4', #236 ) ;
#20 = SURFACE_STYLE_FILL_AREA ( #317 ) ;
#21 = STYLED_ITEM ( 'NONE', ( #322 ), #19 ) ;
#22 = MANIFOLD_SOLID_BREP ( 'Revolve2', #97 ) ;
#23 = CARTESIAN_POINT ( 'NONE',  ( -224.9828135984784296, 2.210966925951313668E-14, 0.000000000000000000 ) ) ;
#24 = ADVANCED_BREP_SHAPE_REPRESENTATION ( 'C7_periodic__ap214_cfg', ( #162, #22, #155, #19, #298, #12 ), #373 ) ;
#25 =( LENGTH_UNIT ( ) NAMED_UNIT ( * ) SI_UNIT ( .MILLI., .METRE. ) );
#26 = SURFACE_SIDE_STYLE ('',( #133 ) ) ;
#27 = DIRECTION ( 'NONE',  ( 4.046080116786000560E-16, -1.000000000000000000, -0.000000000000000000 ) ) ;
#28 = UNCERTAINTY_MEASURE_WITH_UNIT (LENGTH_MEASURE( 1.000000000000000082E-05 ), #202, 'distance_accuracy_value', 'NONE');
#29 = ADVANCED_FACE ( 'NONE', ( #289 ), #63, .F. ) ;
#30 = FACE_OUTER_BOUND ( 'NONE', #116, .T. ) ;
#31 = SURFACE_STYLE_USAGE ( .BOTH. , #285 ) ;
#32 = FILL_AREA_STYLE ('',( #365 ) ) ;
#33 = COLOUR_RGB ( '',1.000000000000000000, 0.000000000000000000, 0.000000000000000000 ) ;
#34 = COLOUR_RGB ( '',0.000000000000000000, 1.000000000000000000, 0.000000000000000000 ) ;
#35 = SURFACE_STYLE_USAGE ( .BOTH. , #332 ) ;
#36 = SURFACE_STYLE_USAGE ( .BOTH. , #234 ) ;
#37 = FACE_OUTER_BOUND ( 'NONE', #379, .T. ) ;
#38 = FILL_AREA_STYLE ('',( #72 ) ) ;
#39 = CYLINDRICAL_SURFACE ( 'NONE', #105, 27.32233250620344478 ) ;
#40 = ADVANCED_FACE ( 'NONE', ( ), #237, .T. ) ;
#41 = DIRECTION ( 'NONE',  ( 0.000000000000000000, 0.000000000000000000, -1.000000000000000000 ) ) ;
#42 = SURFACE_SIDE_STYLE ('',( #112 ) ) ;
#43 = UNCERTAINTY_MEASURE_WITH_UNIT (LENGTH_MEASURE( 1.000000000000000082E-05 ), #330, 'distance_accuracy_value', 'NONE');
#44 = ADVANCED_FACE ( 'NONE', ( #230 ), #39, .T. ) ;
#45 = FILL_AREA_STYLE ('',( #8 ) ) ;
#46 = COLOUR_RGB ( '',1.000000000000000000, 0.000000000000000000, 0.000000000000000000 ) ;
#47 = AXIS2_PLACEMENT_3D ( 'NONE', #151, #79, #213 ) ;
#48 = CARTESIAN_POINT ( 'NONE',  ( -150.3782165272086786, -4.088691596839861464E-16, 0.000000000000000000 ) ) ;
#49 = STYLED_ITEM ( 'NONE', ( #104 ), #61 ) ;
#50 = ORIENTED_EDGE ( 'NONE', *, *, #177, .F. ) ;
#51 = ORIENTED_EDGE ( 'NONE', *, *, #183, .F. ) ;
#52 = COLOUR_RGB ( '',0.9098039215686274384, 0.4431372549019607643, 0.03137254901960784270 ) ;
#53 =( NAMED_UNIT ( * ) SI_UNIT ( $, .STERADIAN. ) SOLID_ANGLE_UNIT ( ) );
#54 = DIRECTION ( 'NONE',  ( 1.000000000000000000, 4.046080116786000560E-16, 0.000000000000000000 ) ) ;
#55 = PRESENTATION_LAYER_ASSIGNMENT (  '', '', ( #189 ) ) ;
#56 = EDGE_LOOP ( 'NONE', ( #50, #408, #218, #154 ) ) ;
#57 = CARTESIAN_POINT ( 'NONE',  ( -224.9828135984784581, 1.064596547007257179E-14, 0.000000000000000000 ) ) ;
#58 = STYLED_ITEM ( 'NONE', ( #225 ), #137 ) ;
#59 = SURFACE_STYLE_USAGE ( .BOTH. , #293 ) ;
#60 = MECHANICAL_DESIGN_GEOMETRIC_PRESENTATION_REPRESENTATION (  '', ( #347 ), #235 ) ;
#61 = ADVANCED_FACE ( 'NONE', ( #394, #37 ), #397, .T. ) ;
#62 = PLANE ( 'NONE',  #85 ) ;
#63 = PLANE ( 'NONE',  #257 ) ;
#64 = STYLED_ITEM ( 'NONE', ( #113 ), #40 ) ;
#65 = DIRECTION ( 'NONE',  ( 4.046080116786000560E-16, -1.000000000000000000, -0.000000000000000000 ) ) ;
#66 = SURFACE_STYLE_FILL_AREA ( #192 ) ;
#67 = LINE ( 'NONE', #425, #260 ) ;
#68 = UNCERTAINTY_MEASURE_WITH_UNIT (LENGTH_MEASURE( 1.000000000000000082E-05 ), #214, 'distance_accuracy_value', 'NONE');
#69 = DIRECTION ( 'NONE',  ( 4.046080116786000560E-16, -1.000000000000000000, -0.000000000000000000 ) ) ;
#70 = SURFACE_STYLE_FILL_AREA ( #45 ) ;
#71 =( GEOMETRIC_REPRESENTATION_CONTEXT ( 3 ) GLOBAL_UNCERTAINTY_ASSIGNED_CONTEXT ( ( #28 ) ) GLOBAL_UNIT_ASSIGNED_CONTEXT ( ( #202, #270, #371 ) ) REPRESENTATION_CONTEXT ( 'NONE', 'WORKASPACE' ) );
#72 = FILL_AREA_STYLE_COLOUR ( '', #313 ) ;
#73 =( LENGTH_UNIT ( ) NAMED_UNIT ( * ) SI_UNIT ( .MILLI., .METRE. ) );
#74 = UNCERTAINTY_MEASURE_WITH_UNIT (LENGTH_MEASURE( 1.000000000000000082E-05 ), #299, 'distance_accuracy_value', 'NONE');
#75 = EDGE_CURVE ( 'NONE', #220, #220, #277, .T. ) ;
#76 =( GEOMETRIC_REPRESENTATION_CONTEXT ( 3 ) GLOBAL_UNCERTAINTY_ASSIGNED_CONTEXT ( ( #336 ) ) GLOBAL_UNIT_ASSIGNED_CONTEXT ( ( #311, #147, #53 ) ) REPRESENTATION_CONTEXT ( 'NONE', 'WORKASPACE' ) );
#77 = SURFACE_SIDE_STYLE ('',( #205 ) ) ;
#78 = SURFACE_SIDE_STYLE ('',( #70 ) ) ;
#79 = DIRECTION ( 'NONE',  ( 4.046080116786000560E-16, -1.000000000000000000, -0.000000000000000000 ) ) ;
#80 = CIRCLE ( 'NONE', #92, 27.32233250620341636 ) ;
#81 = CARTESIAN_POINT ( 'NONE',  ( -101.9269295774726771, 68.59868023986780372, 0.000000000000000000 ) ) ;
#82 = SURFACE_SIDE_STYLE ('',( #13 ) ) ;
#83 = MECHANICAL_DESIGN_GEOMETRIC_PRESENTATION_REPRESENTATION (  '', ( #268 ), #71 ) ;
#84 = FILL_AREA_STYLE ('',( #275 ) ) ;
#85 = AXIS2_PLACEMENT_3D ( 'NONE', #95, #417, #199 ) ;
#86 = CARTESIAN_POINT ( 'NONE',  ( 0.000000000000000000, -3.469446951953614189E-15, 0.000000000000000000 ) ) ;
#87 = ORIENTED_EDGE ( 'NONE', *, *, #75, .T. ) ;
#88 =( GEOMETRIC_REPRESENTATION_CONTEXT ( 3 ) GLOBAL_UNCERTAINTY_ASSIGNED_CONTEXT ( ( #43 ) ) GLOBAL_UNIT_ASSIGNED_CONTEXT ( ( #330, #325, #424 ) ) REPRESENTATION_CONTEXT ( 'NONE', 'WORKASPACE' ) );
#89 = DIRECTION ( 'NONE',  ( 0.000000000000000000, -0.000000000000000000, 1.000000000000000000 ) ) ;
#90 = UNCERTAINTY_MEASURE_WITH_UNIT (LENGTH_MEASURE( 1.000000000000000082E-05 ), #210, 'distance_accuracy_value', 'NONE');
#91 = DIRECTION ( 'NONE',  ( 0.000000000000000000, 0.000000000000000000, 1.000000000000000000 ) ) ;
#92 = AXIS2_PLACEMENT_3D ( 'NONE', #185, #412, #115 ) ;
#93 = SURFACE_STYLE_FILL_AREA ( #197 ) ;
#94 = DIRECTION ( 'NONE',  ( 1.000000000000000000, 0.000000000000000000, 0.000000000000000000 ) ) ;
#95 = CARTESIAN_POINT ( 'NONE',  ( -2.685450073292357992E-29, 6.637164850372618952E-14, 0.000000000000000000 ) ) ;
#96 = SURFACE_STYLE_FILL_AREA ( #386 ) ;
#97 = CLOSED_SHELL ( 'NONE', ( #349, #169 ) ) ;
#98 =( GEOMETRIC_REPRESENTATION_CONTEXT ( 3 ) GLOBAL_UNCERTAINTY_ASSIGNED_CONTEXT ( ( #333 ) ) GLOBAL_UNIT_ASSIGNED_CONTEXT ( ( #25, #265, #262 ) ) REPRESENTATION_CONTEXT ( 'NONE', 'WORKASPACE' ) );
#99 =( NAMED_UNIT ( * ) PLANE_ANGLE_UNIT ( ) SI_UNIT ( $, .RADIAN. ) );
#100 = CARTESIAN_POINT ( 'NONE',  ( -252.3051461046819099, 1.105483462975656834E-14, 0.000000000000000000 ) ) ;
#101 = FILL_AREA_STYLE_COLOUR ( '', #158 ) ;
#102 =( GEOMETRIC_REPRESENTATION_CONTEXT ( 3 ) GLOBAL_UNCERTAINTY_ASSIGNED_CONTEXT ( ( #419 ) ) GLOBAL_UNIT_ASSIGNED_CONTEXT ( ( #358, #168, #400 ) ) REPRESENTATION_CONTEXT ( 'NONE', 'WORKASPACE' ) );
#103 = PRESENTATION_LAYER_ASSIGNMENT (  '', '', ( #216 ) ) ;
#104 = PRESENTATION_STYLE_ASSIGNMENT (( #306 ) ) ;
#105 = AXIS2_PLACEMENT_3D ( 'NONE', #109, #339, #142 ) ;
#106 = PRESENTATION_STYLE_ASSIGNMENT (( #393 ) ) ;
#107 =( NAMED_UNIT ( * ) SI_UNIT ( $, .STERADIAN. ) SOLID_ANGLE_UNIT ( ) );
#108 = SURFACE_STYLE_USAGE ( .BOTH. , #77 ) ;
#109 = CARTESIAN_POINT ( 'NONE',  ( -252.3051461046819099, -4.088691596839861464E-16, 0.000000000000000000 ) ) ;
#110 =( GEOMETRIC_REPRESENTATION_CONTEXT ( 3 ) GLOBAL_UNCERTAINTY_ASSIGNED_CONTEXT ( ( #304 ) ) GLOBAL_UNIT_ASSIGNED_CONTEXT ( ( #264, #99, #284 ) ) REPRESENTATION_CONTEXT ( 'NONE', 'WORKASPACE' ) );
#111 = DIRECTION ( 'NONE',  ( -0.000000000000000000, -1.000000000000000000, -0.000000000000000000 ) ) ;
#112 = SURFACE_STYLE_FILL_AREA ( #374 ) ;
#113 = PRESENTATION_STYLE_ASSIGNMENT (( #402 ) ) ;
#114 =( LENGTH_UNIT ( ) NAMED_UNIT ( * ) SI_UNIT ( .MILLI., .METRE. ) );
#115 = DIRECTION ( 'NONE',  ( 1.000000000000000000, 5.079283697562631313E-16, 0.000000000000000000 ) ) ;
#116 = EDGE_LOOP ( 'NONE', ( #125 ) ) ;
#117 = PRESENTATION_LAYER_ASSIGNMENT (  '', '', ( #345 ) ) ;
#118 =( GEOMETRIC_REPRESENTATION_CONTEXT ( 3 ) GLOBAL_UNCERTAINTY_ASSIGNED_CONTEXT ( ( #166 ) ) GLOBAL_UNIT_ASSIGNED_CONTEXT ( ( #114, #244, #351 ) ) REPRESENTATION_CONTEXT ( 'NONE', 'WORKASPACE' ) );
#119 =( NAMED_UNIT ( * ) PLANE_ANGLE_UNIT ( ) SI_UNIT ( $, .RADIAN. ) );
#120 = DIRECTION ( 'NONE',  ( -1.000000000000000000, -4.046080116785989713E-16, 0.000000000000000000 ) ) ;
#121 = MECHANICAL_DESIGN_GEOMETRIC_PRESENTATION_REPRESENTATION (  '', ( #49 ), #175 ) ;
#122 = ORIENTED_EDGE ( 'NONE', *, *, #240, .F. ) ;
#123 = APPLICATION_PROTOCOL_DEFINITION ( 'draft international standard', 'automotive_design', 1998, #310 ) ;
#124 = PRESENTATION_STYLE_ASSIGNMENT (( #279 ) ) ;
#125 = ORIENTED_EDGE ( 'NONE', *, *, #183, .T. ) ;
#126 = STYLED_ITEM ( 'NONE', ( #295 ), #298 ) ;
#127 = CIRCLE ( 'NONE', #239, 27.32233250620347320 ) ;
#128 =( NAMED_UNIT ( * ) SI_UNIT ( $, .STERADIAN. ) SOLID_ANGLE_UNIT ( ) );
#129 = PRESENTATION_STYLE_ASSIGNMENT (( #31 ) ) ;
#130 = CLOSED_SHELL ( 'NONE', ( #368, #44, #328, #137 ) ) ;
#131 = CARTESIAN_POINT ( 'NONE',  ( -279.6274786108853050, 68.59868023986784635, 0.000000000000000000 ) ) ;
#132 = AXIS2_PLACEMENT_3D ( 'NONE', #427, #421, #360 ) ;
#133 = SURFACE_STYLE_FILL_AREA ( #387 ) ;
#134 =( NAMED_UNIT ( * ) SI_UNIT ( $, .STERADIAN. ) SOLID_ANGLE_UNIT ( ) );
#135 = DIRECTION ( 'NONE',  ( 1.000000000000000000, 5.079283697562631313E-16, 0.000000000000000000 ) ) ;
#136 = DIRECTION ( 'NONE',  ( 1.000000000000000000, 4.046080116786000560E-16, 0.000000000000000000 ) ) ;
#137 = ADVANCED_FACE ( 'NONE', ( #353 ), #182, .F. ) ;
#138 = FILL_AREA_STYLE_COLOUR ( '', #307 ) ;
#139 = SURFACE_SIDE_STYLE ('',( #302 ) ) ;
#140 =( GEOMETRIC_REPRESENTATION_CONTEXT ( 3 ) GLOBAL_UNCERTAINTY_ASSIGNED_CONTEXT ( ( #68 ) ) GLOBAL_UNIT_ASSIGNED_CONTEXT ( ( #214, #164, #128 ) ) REPRESENTATION_CONTEXT ( 'NONE', 'WORKASPACE' ) );
#141 = EDGE_CURVE ( 'NONE', #355, #248, #80, .T. ) ;
#142 = DIRECTION ( 'NONE',  ( 1.000000000000000000, 4.046080116786000560E-16, 0.000000000000000000 ) ) ;
#143 = PRESENTATION_STYLE_ASSIGNMENT (( #343 ) ) ;
#144 = AXIS2_PLACEMENT_3D ( 'NONE', #81, #404, #54 ) ;
#145 = DIRECTION ( 'NONE',  ( 0.000000000000000000, 0.000000000000000000, 1.000000000000000000 ) ) ;
#146 = SPHERICAL_SURFACE ( 'NONE', #356, 34.29934011993392318 ) ;
#147 =( NAMED_UNIT ( * ) PLANE_ANGLE_UNIT ( ) SI_UNIT ( $, .RADIAN. ) );
#148 = EDGE_LOOP ( 'NONE', ( #309 ) ) ;
#149 = PRESENTATION_STYLE_ASSIGNMENT (( #221 ) ) ;
#150 = CARTESIAN_POINT ( 'NONE',  ( -59.79593872408656097, -6.938893903907228378E-15, 0.000000000000000000 ) ) ;
#151 = CARTESIAN_POINT ( 'NONE',  ( -252.3051461046819099, -4.088691596839861464E-16, 0.000000000000000000 ) ) ;
#152 = SURFACE_SIDE_STYLE ('',( #20 ) ) ;
#153 =( GEOMETRIC_REPRESENTATION_CONTEXT ( 3 ) GLOBAL_UNCERTAINTY_ASSIGNED_CONTEXT ( ( #372 ) ) GLOBAL_UNIT_ASSIGNED_CONTEXT ( ( #161, #232, #134 ) ) REPRESENTATION_CONTEXT ( 'NONE', 'WORKASPACE' ) );
#154 = ORIENTED_EDGE ( 'NONE', *, *, #141, .T. ) ;
#155 = MANIFOLD_SOLID_BREP ( 'Revolve3', #340 ) ;
#156 = FILL_AREA_STYLE_COLOUR ( '', #34 ) ;
#157 = CIRCLE ( 'NONE', #207, 27.32233250620341636 ) ;
#158 = COLOUR_RGB ( '',1.000000000000000000, 0.000000000000000000, 0.000000000000000000 ) ;
#159 = FACE_OUTER_BOUND ( 'NONE', #222, .T. ) ;
#160 = DIRECTION ( 'NONE',  ( 1.000000000000000000, 5.079283697562631313E-16, 0.000000000000000000 ) ) ;
#161 =( LENGTH_UNIT ( ) NAMED_UNIT ( * ) SI_UNIT ( .MILLI., .METRE. ) );
#162 = MANIFOLD_SOLID_BREP ( 'Revolve1', #318 ) ;
#163 = STYLED_ITEM ( 'NONE', ( #395 ), #349 ) ;
#164 =( NAMED_UNIT ( * ) PLANE_ANGLE_UNIT ( ) SI_UNIT ( $, .RADIAN. ) );
#165 = PRODUCT ( 'C7_periodic__ap214_cfg', 'C7_periodic__ap214_cfg', '', ( #231 ) ) ;
#166 = UNCERTAINTY_MEASURE_WITH_UNIT (LENGTH_MEASURE( 1.000000000000000082E-05 ), #114, 'distance_accuracy_value', 'NONE');
#167 = CIRCLE ( 'NONE', #297, 27.32233250620347320 ) ;
#168 =( NAMED_UNIT ( * ) PLANE_ANGLE_UNIT ( ) SI_UNIT ( $, .RADIAN. ) );
#169 = ADVANCED_FACE ( 'NONE', ( #159 ), #312, .F. ) ;
#170 =( NAMED_UNIT ( * ) SI_UNIT ( $, .STERADIAN. ) SOLID_ANGLE_UNIT ( ) );
#171 = FILL_AREA_STYLE ('',( #238 ) ) ;
#172 = UNCERTAINTY_MEASURE_WITH_UNIT (LENGTH_MEASURE( 1.000000000000000082E-05 ), #184, 'distance_accuracy_value', 'NONE');
#173 = FILL_AREA_STYLE ('',( #101 ) ) ;
#174 = DIRECTION ( 'NONE',  ( -1.000000000000000000, 4.046080116785987741E-16, 0.000000000000000000 ) ) ;
#175 =( GEOMETRIC_REPRESENTATION_CONTEXT ( 3 ) GLOBAL_UNCERTAINTY_ASSIGNED_CONTEXT ( ( #327 ) ) GLOBAL_UNIT_ASSIGNED_CONTEXT ( ( #73, #5, #107 ) ) REPRESENTATION_CONTEXT ( 'NONE', 'WORKASPACE' ) );
#176 = CARTESIAN_POINT ( 'NONE',  ( -101.9269295774732029, 6.637164850372618952E-14, 0.000000000000000000 ) ) ;
#177 = EDGE_CURVE ( 'NONE', #273, #248, #67, .T. ) ;
#178 = AXIS2_PLACEMENT_3D ( 'NONE', #9, #111, #41 ) ;
#179 = DIRECTION ( 'NONE',  ( 1.000000000000000000, 4.046080116786000560E-16, 0.000000000000000000 ) ) ;
#180 = DIRECTION ( 'NONE',  ( 0.000000000000000000, 0.000000000000000000, -1.000000000000000000 ) ) ;
#181 = COLOUR_RGB ( '',1.000000000000000000, 0.000000000000000000, 0.000000000000000000 ) ;
#182 = PLANE ( 'NONE',  #144 ) ;
#183 = EDGE_CURVE ( 'NONE', #224, #224, #2, .T. ) ;
#184 =( LENGTH_UNIT ( ) NAMED_UNIT ( * ) SI_UNIT ( .MILLI., .METRE. ) );
#185 = CARTESIAN_POINT ( 'NONE',  ( -252.3051461046819099, 68.59868023986786056, 0.000000000000000000 ) ) ;
#186 = PRESENTATION_LAYER_ASSIGNMENT (  '', '', ( #163 ) ) ;
#187 = CARTESIAN_POINT ( 'NONE',  ( -59.79593872408656097, -6.938893903907228378E-15, -27.32233250620347320 ) ) ;
#188 = FILL_AREA_STYLE_COLOUR ( '', #354 ) ;
#189 = STYLED_ITEM ( 'NONE', ( #129 ), #22 ) ;
#190 = ORIENTED_EDGE ( 'NONE', *, *, #141, .F. ) ;
#191 = DIRECTION ( 'NONE',  ( -4.046080116786000560E-16, 1.000000000000000000, 0.000000000000000000 ) ) ;
#192 = FILL_AREA_STYLE ('',( #369 ) ) ;
#193 = VECTOR ( 'NONE', #65, 1000.000000000000000 ) ;
#194 = DIRECTION ( 'NONE',  ( 4.046080116786000560E-16, -1.000000000000000000, -0.000000000000000000 ) ) ;
#195 = DIRECTION ( 'NONE',  ( 4.046080116786000560E-16, -1.000000000000000000, -0.000000000000000000 ) ) ;
#196 = SHAPE_DEFINITION_REPRESENTATION ( #263, #24 ) ;
#197 = FILL_AREA_STYLE ('',( #422 ) ) ;
#198 = COLOUR_RGB ( '',0.8941176470588234615, 0.8941176470588234615, 0.8941176470588234615 ) ;
#199 = DIRECTION ( 'NONE',  ( 1.000000000000000000, 4.046080116786000560E-16, 0.000000000000000000 ) ) ;
#200 = SURFACE_STYLE_FILL_AREA ( #32 ) ;
#201 = CARTESIAN_POINT ( 'NONE',  ( -224.9828135984784865, 68.59868023986787477, 0.000000000000000000 ) ) ;
#202 =( LENGTH_UNIT ( ) NAMED_UNIT ( * ) SI_UNIT ( .MILLI., .METRE. ) );
#203 = UNCERTAINTY_MEASURE_WITH_UNIT (LENGTH_MEASURE( 1.000000000000000082E-05 ), #403, 'distance_accuracy_value', 'NONE');
#204 = MECHANICAL_DESIGN_GEOMETRIC_PRESENTATION_REPRESENTATION (  '', ( #189 ), #98 ) ;
#205 = SURFACE_STYLE_FILL_AREA ( #38 ) ;
#206 =( NAMED_UNIT ( * ) PLANE_ANGLE_UNIT ( ) SI_UNIT ( $, .RADIAN. ) );
#207 = AXIS2_PLACEMENT_3D ( 'NONE', #326, #194, #160 ) ;
#208 = CARTESIAN_POINT ( 'NONE',  ( 52.95749585036503504, 34.29934011993390897, 0.000000000000000000 ) ) ;
#209 = EDGE_CURVE ( 'NONE', #355, #254, #228, .T. ) ;
#210 =( LENGTH_UNIT ( ) NAMED_UNIT ( * ) SI_UNIT ( .MILLI., .METRE. ) );
#211 = STYLED_ITEM ( 'NONE', ( #366 ), #29 ) ;
#212 = FACE_OUTER_BOUND ( 'NONE', #359, .T. ) ;
#213 = DIRECTION ( 'NONE',  ( 1.000000000000000000, 4.046080116786000560E-16, 0.000000000000000000 ) ) ;
#214 =( LENGTH_UNIT ( ) NAMED_UNIT ( * ) SI_UNIT ( .MILLI., .METRE. ) );
#215 = MECHANICAL_DESIGN_GEOMETRIC_PRESENTATION_REPRESENTATION (  '', ( #378 ), #110 ) ;
#216 = STYLED_ITEM ( 'NONE', ( #252 ), #406 ) ;
#217 = SURFACE_SIDE_STYLE ('',( #380 ) ) ;
#218 = ORIENTED_EDGE ( 'NONE', *, *, #209, .F. ) ;
#219 = COLOUR_RGB ( '',0.000000000000000000, 1.000000000000000000, 1.000000000000000000 ) ;
#220 = VERTEX_POINT ( 'NONE', #187 ) ;
#221 = SURFACE_STYLE_USAGE ( .BOTH. , #217 ) ;
#222 = EDGE_LOOP ( 'NONE', ( #87 ) ) ;
#223 = MECHANICAL_DESIGN_GEOMETRIC_PRESENTATION_REPRESENTATION (  '', ( #391 ), #140 ) ;
#224 = VERTEX_POINT ( 'NONE', #274 ) ;
#225 = PRESENTATION_STYLE_ASSIGNMENT (( #352 ) ) ;
#226 = ORIENTED_EDGE ( 'NONE', *, *, #177, .T. ) ;
#227 = MECHANICAL_DESIGN_GEOMETRIC_PRESENTATION_REPRESENTATION (  '', ( #345 ), #323 ) ;
#228 = LINE ( 'NONE', #57, #193 ) ;
#229 = DIRECTION ( 'NONE',  ( 4.046080116786000560E-16, -1.000000000000000000, -0.000000000000000000 ) ) ;
#230 = FACE_OUTER_BOUND ( 'NONE', #56, .T. ) ;
#231 = PRODUCT_CONTEXT ( 'NONE', #310, 'mechanical' ) ;
#232 =( NAMED_UNIT ( * ) PLANE_ANGLE_UNIT ( ) SI_UNIT ( $, .RADIAN. ) );
#233 = PRESENTATION_LAYER_ASSIGNMENT (  '', '', ( #378 ) ) ;
#234 = SURFACE_SIDE_STYLE ('',( #334 ) ) ;
#235 =( GEOMETRIC_REPRESENTATION_CONTEXT ( 3 ) GLOBAL_UNCERTAINTY_ASSIGNED_CONTEXT ( ( #203 ) ) GLOBAL_UNIT_ASSIGNED_CONTEXT ( ( #403, #119, #308 ) ) REPRESENTATION_CONTEXT ( 'NONE', 'WORKASPACE' ) );
#236 = CLOSED_SHELL ( 'NONE', ( #406 ) ) ;
#237 = TOROIDAL_SURFACE ( 'NONE', #335, 33.41787314310669643, 17.34688904745910421 ) ;
#238 = FILL_AREA_STYLE_COLOUR ( '', #381 ) ;
#239 = AXIS2_PLACEMENT_3D ( 'NONE', #250, #344, #179 ) ;
#240 = EDGE_CURVE ( 'NONE', #15, #15, #157, .T. ) ;
#241 = FILL_AREA_STYLE ('',( #138 ) ) ;
#242 =( NAMED_UNIT ( * ) SI_UNIT ( $, .STERADIAN. ) SOLID_ANGLE_UNIT ( ) );
#243 = MECHANICAL_DESIGN_GEOMETRIC_PRESENTATION_REPRESENTATION (  '', ( #64 ), #396 ) ;
#244 =( NAMED_UNIT ( * ) PLANE_ANGLE_UNIT ( ) SI_UNIT ( $, .RADIAN. ) );
#245 =( NAMED_UNIT ( * ) PLANE_ANGLE_UNIT ( ) SI_UNIT ( $, .RADIAN. ) );
#246 =( NAMED_UNIT ( * ) PLANE_ANGLE_UNIT ( ) SI_UNIT ( $, .RADIAN. ) );
#247 = FILL_AREA_STYLE_COLOUR ( '', #33 ) ;
#248 = VERTEX_POINT ( 'NONE', #131 ) ;
#249 = MECHANICAL_DESIGN_GEOMETRIC_PRESENTATION_REPRESENTATION (  '', ( #266 ), #338 ) ;
#250 = CARTESIAN_POINT ( 'NONE',  ( -252.3051461046819099, 1.105483462975656834E-14, 0.000000000000000000 ) ) ;
#251 = EDGE_LOOP ( 'NONE', ( #122 ) ) ;
#252 = PRESENTATION_STYLE_ASSIGNMENT (( #405 ) ) ;
#253 = ORIENTED_EDGE ( 'NONE', *, *, #10, .T. ) ;
#254 = VERTEX_POINT ( 'NONE', #23 ) ;
#255 = CIRCLE ( 'NONE', #290, 27.32233250620341636 ) ;
#256 = ORIENTED_EDGE ( 'NONE', *, *, #240, .T. ) ;
#257 = AXIS2_PLACEMENT_3D ( 'NONE', #296, #27, #136 ) ;
#258 = UNCERTAINTY_MEASURE_WITH_UNIT (LENGTH_MEASURE( 1.000000000000000082E-05 ), #305, 'distance_accuracy_value', 'NONE');
#259 = SURFACE_STYLE_USAGE ( .BOTH. , #26 ) ;
#260 = VECTOR ( 'NONE', #191, 1000.000000000000000 ) ;
#261 = PRODUCT_DEFINITION_FORMATION_WITH_SPECIFIED_SOURCE ( 'ANY', '', #165, .NOT_KNOWN. ) ;
#262 =( NAMED_UNIT ( * ) SI_UNIT ( $, .STERADIAN. ) SOLID_ANGLE_UNIT ( ) );
#263 = PRODUCT_DEFINITION_SHAPE ( 'NONE', 'NONE',  #392 ) ;
#264 =( LENGTH_UNIT ( ) NAMED_UNIT ( * ) SI_UNIT ( .MILLI., .METRE. ) );
#265 =( NAMED_UNIT ( * ) PLANE_ANGLE_UNIT ( ) SI_UNIT ( $, .RADIAN. ) );
#266 = STYLED_ITEM ( 'NONE', ( #106 ), #328 ) ;
#267 = EDGE_CURVE ( 'NONE', #248, #355, #255, .T. ) ;
#268 = STYLED_ITEM ( 'NONE', ( #143 ), #44 ) ;
#269 = SURFACE_STYLE_FILL_AREA ( #241 ) ;
#270 =( NAMED_UNIT ( * ) PLANE_ANGLE_UNIT ( ) SI_UNIT ( $, .RADIAN. ) );
#271 = DIRECTION ( 'NONE',  ( 1.000000000000000000, 4.046080116786000560E-16, 0.000000000000000000 ) ) ;
#272 = CARTESIAN_POINT ( 'NONE',  ( -123.0558840210052836, 68.59868023986787477, 0.000000000000000000 ) ) ;
#273 = VERTEX_POINT ( 'NONE', #324 ) ;
#274 = CARTESIAN_POINT ( 'NONE',  ( -123.0558840210051983, 2.210966925951313668E-14, 0.000000000000000000 ) ) ;
#275 = FILL_AREA_STYLE_COLOUR ( '', #315 ) ;
#276 =( LENGTH_UNIT ( ) NAMED_UNIT ( * ) SI_UNIT ( .MILLI., .METRE. ) );
#277 = CIRCLE ( 'NONE', #294, 27.32233250620347320 ) ;
#278 =( NAMED_UNIT ( * ) SI_UNIT ( $, .STERADIAN. ) SOLID_ANGLE_UNIT ( ) );
#279 = SURFACE_STYLE_USAGE ( .BOTH. , #152 ) ;
#280 =( NAMED_UNIT ( * ) SI_UNIT ( $, .STERADIAN. ) SOLID_ANGLE_UNIT ( ) );
#281 = ORIENTED_EDGE ( 'NONE', *, *, #399, .T. ) ;
#282 = PRESENTATION_LAYER_ASSIGNMENT (  '', '', ( #126 ) ) ;
#283 = ADVANCED_FACE ( 'NONE', ( #30 ), #62, .T. ) ;
#284 =( NAMED_UNIT ( * ) SI_UNIT ( $, .STERADIAN. ) SOLID_ANGLE_UNIT ( ) );
#285 = SURFACE_SIDE_STYLE ('',( #93 ) ) ;
#286 = COLOUR_RGB ( '',0.9098039215686274384, 0.4431372549019607643, 0.03137254901960784270 ) ;
#287 = PRESENTATION_LAYER_ASSIGNMENT (  '', '', ( #211 ) ) ;
#288 = CARTESIAN_POINT ( 'NONE',  ( -252.3051461046819099, 68.59868023986786056, 0.000000000000000000 ) ) ;
#289 = FACE_OUTER_BOUND ( 'NONE', #251, .T. ) ;
#290 = AXIS2_PLACEMENT_3D ( 'NONE', #288, #229, #135 ) ;
#291 = MECHANICAL_DESIGN_GEOMETRIC_PRESENTATION_REPRESENTATION (  '', ( #216 ), #118 ) ;
#292 = DIRECTION ( 'NONE',  ( 0.000000000000000000, 1.000000000000000000, 0.000000000000000000 ) ) ;
#293 = SURFACE_SIDE_STYLE ('',( #96 ) ) ;
#294 = AXIS2_PLACEMENT_3D ( 'NONE', #150, #17, #180 ) ;
#295 = PRESENTATION_STYLE_ASSIGNMENT (( #35 ) ) ;
#296 = CARTESIAN_POINT ( 'NONE',  ( 5.226482373249980788E-13, 68.59868023986780372, 0.000000000000000000 ) ) ;
#297 = AXIS2_PLACEMENT_3D ( 'NONE', #100, #195, #418 ) ;
#298 = MANIFOLD_SOLID_BREP ( 'Split Line2', #130 ) ;
#299 =( LENGTH_UNIT ( ) NAMED_UNIT ( * ) SI_UNIT ( .MILLI., .METRE. ) );
#300 = PRESENTATION_LAYER_ASSIGNMENT (  '', '', ( #266 ) ) ;
#301 = CONICAL_SURFACE ( 'NONE', #178, 404.2272126816378659, 0.3841452057184321367 ) ;
#302 = SURFACE_STYLE_FILL_AREA ( #171 ) ;
#303 = PRESENTATION_STYLE_ASSIGNMENT (( #36 ) ) ;
#304 = UNCERTAINTY_MEASURE_WITH_UNIT (LENGTH_MEASURE( 1.000000000000000082E-05 ), #264, 'distance_accuracy_value', 'NONE');
#305 =( LENGTH_UNIT ( ) NAMED_UNIT ( * ) SI_UNIT ( .MILLI., .METRE. ) );
#306 = SURFACE_STYLE_USAGE ( .BOTH. , #139 ) ;
#307 = COLOUR_RGB ( '',1.000000000000000000, 0.000000000000000000, 0.000000000000000000 ) ;
#308 =( NAMED_UNIT ( * ) SI_UNIT ( $, .STERADIAN. ) SOLID_ANGLE_UNIT ( ) );
#309 = ORIENTED_EDGE ( 'NONE', *, *, #75, .F. ) ;
#310 = APPLICATION_CONTEXT ( 'automotive_design' ) ;
#311 =( LENGTH_UNIT ( ) NAMED_UNIT ( * ) SI_UNIT ( .MILLI., .METRE. ) );
#312 = PLANE ( 'NONE',  #413 ) ;
#313 = COLOUR_RGB ( '',1.000000000000000000, 1.000000000000000000, 0.000000000000000000 ) ;
#314 = EDGE_LOOP ( 'NONE', ( #256 ) ) ;
#315 = COLOUR_RGB ( '',0.000000000000000000, 1.000000000000000000, 1.000000000000000000 ) ;
#316 = CARTESIAN_POINT ( 'NONE',  ( 177.7005490334121589, 34.29934011993392318, 0.000000000000000000 ) ) ;
#317 = FILL_AREA_STYLE ('',( #188 ) ) ;
#318 = CLOSED_SHELL ( 'NONE', ( #61, #283, #29 ) ) ;
#319 = COLOUR_RGB ( '',0.000000000000000000, 1.000000000000000000, 0.000000000000000000 ) ;
#320 =( NAMED_UNIT ( * ) PLANE_ANGLE_UNIT ( ) SI_UNIT ( $, .RADIAN. ) );
#321 = ORIENTED_EDGE ( 'NONE', *, *, #399, .F. ) ;
#322 = PRESENTATION_STYLE_ASSIGNMENT (( #59 ) ) ;
#323 =( GEOMETRIC_REPRESENTATION_CONTEXT ( 3 ) GLOBAL_UNCERTAINTY_ASSIGNED_CONTEXT ( ( #398 ) ) GLOBAL_UNIT_ASSIGNED_CONTEXT ( ( #276, #320, #280 ) ) REPRESENTATION_CONTEXT ( 'NONE', 'WORKASPACE' ) );
#324 = CARTESIAN_POINT ( 'NONE',  ( -279.6274786108853618, 3.081487911019577365E-30, 0.000000000000000000 ) ) ;
#325 =( NAMED_UNIT ( * ) PLANE_ANGLE_UNIT ( ) SI_UNIT ( $, .RADIAN. ) );
#326 = CARTESIAN_POINT ( 'NONE',  ( -150.3782165272087070, 68.59868023986786056, 0.000000000000000000 ) ) ;
#327 = UNCERTAINTY_MEASURE_WITH_UNIT (LENGTH_MEASURE( 1.000000000000000082E-05 ), #73, 'distance_accuracy_value', 'NONE');
#328 = ADVANCED_FACE ( 'NONE', ( #212 ), #329, .T. ) ;
#329 = PLANE ( 'NONE',  #16 ) ;
#330 =( LENGTH_UNIT ( ) NAMED_UNIT ( * ) SI_UNIT ( .MILLI., .METRE. ) );
#331 = MECHANICAL_DESIGN_GEOMETRIC_PRESENTATION_REPRESENTATION (  '', ( #126 ), #102 ) ;
#332 = SURFACE_SIDE_STYLE ('',( #200 ) ) ;
#333 = UNCERTAINTY_MEASURE_WITH_UNIT (LENGTH_MEASURE( 1.000000000000000082E-05 ), #25, 'distance_accuracy_value', 'NONE');
#334 = SURFACE_STYLE_FILL_AREA ( #173 ) ;
#335 = AXIS2_PLACEMENT_3D ( 'NONE', #208, #1, #174 ) ;
#336 = UNCERTAINTY_MEASURE_WITH_UNIT (LENGTH_MEASURE( 1.000000000000000082E-05 ), #311, 'distance_accuracy_value', 'NONE');
#337 = PRODUCT_RELATED_PRODUCT_CATEGORY ( 'part', '', ( #165 ) ) ;
#338 =( GEOMETRIC_REPRESENTATION_CONTEXT ( 3 ) GLOBAL_UNCERTAINTY_ASSIGNED_CONTEXT ( ( #258 ) ) GLOBAL_UNIT_ASSIGNED_CONTEXT ( ( #305, #342, #376 ) ) REPRESENTATION_CONTEXT ( 'NONE', 'WORKASPACE' ) );
#339 = DIRECTION ( 'NONE',  ( 4.046080116786000560E-16, -1.000000000000000000, -0.000000000000000000 ) ) ;
#340 = CLOSED_SHELL ( 'NONE', ( #40 ) ) ;
#341 = AXIS2_PLACEMENT_3D ( 'NONE', #48, #382, #348 ) ;
#342 =( NAMED_UNIT ( * ) PLANE_ANGLE_UNIT ( ) SI_UNIT ( $, .RADIAN. ) );
#343 = SURFACE_STYLE_USAGE ( .BOTH. , #78 ) ;
#344 = DIRECTION ( 'NONE',  ( 4.046080116786000560E-16, -1.000000000000000000, -0.000000000000000000 ) ) ;
#345 = STYLED_ITEM ( 'NONE', ( #149 ), #155 ) ;
#346 = FILL_AREA_STYLE ('',( #247 ) ) ;
#347 = STYLED_ITEM ( 'NONE', ( #303 ), #368 ) ;
#348 = DIRECTION ( 'NONE',  ( 1.000000000000000000, 4.046080116786000560E-16, 0.000000000000000000 ) ) ;
#349 = ADVANCED_FACE ( 'NONE', ( #370 ), #301, .T. ) ;
#350 = PRESENTATION_LAYER_ASSIGNMENT (  '', '', ( #49 ) ) ;
#351 =( NAMED_UNIT ( * ) SI_UNIT ( $, .STERADIAN. ) SOLID_ANGLE_UNIT ( ) );
#352 = SURFACE_STYLE_USAGE ( .BOTH. , #82 ) ;
#353 = FACE_OUTER_BOUND ( 'NONE', #18, .T. ) ;
#354 = COLOUR_RGB ( '',0.9098039215686274384, 0.4431372549019607643, 0.03137254901960784270 ) ;
#355 = VERTEX_POINT ( 'NONE', #201 ) ;
#356 = AXIS2_PLACEMENT_3D ( 'NONE', #316, #145, #120 ) ;
#357 = APPLICATION_PROTOCOL_DEFINITION ( 'draft international standard', 'automotive_design', 1998, #375 ) ;
#358 =( LENGTH_UNIT ( ) NAMED_UNIT ( * ) SI_UNIT ( .MILLI., .METRE. ) );
#359 = EDGE_LOOP ( 'NONE', ( #253, #281 ) ) ;
#360 = DIRECTION ( 'NONE',  ( 1.000000000000000000, 4.046080116786000560E-16, 0.000000000000000000 ) ) ;
#361 = SURFACE_STYLE_USAGE ( .BOTH. , #390 ) ;
#362 = PRODUCT_DEFINITION_CONTEXT ( 'detailed design', #375, 'design' ) ;
#363 = FILL_AREA_STYLE_COLOUR ( '', #219 ) ;
#364 = FILL_AREA_STYLE_COLOUR ( '', #319 ) ;
#365 = FILL_AREA_STYLE_COLOUR ( '', #46 ) ;
#366 = PRESENTATION_STYLE_ASSIGNMENT (( #361 ) ) ;
#367 = PRESENTATION_LAYER_ASSIGNMENT (  '', '', ( #58 ) ) ;
#368 = ADVANCED_FACE ( 'NONE', ( #389 ), #6, .T. ) ;
#369 = FILL_AREA_STYLE_COLOUR ( '', #286 ) ;
#370 = FACE_OUTER_BOUND ( 'NONE', #148, .T. ) ;
#371 =( NAMED_UNIT ( * ) SI_UNIT ( $, .STERADIAN. ) SOLID_ANGLE_UNIT ( ) );
#372 = UNCERTAINTY_MEASURE_WITH_UNIT (LENGTH_MEASURE( 1.000000000000000082E-05 ), #161, 'distance_accuracy_value', 'NONE');
#373 =( GEOMETRIC_REPRESENTATION_CONTEXT ( 3 ) GLOBAL_UNCERTAINTY_ASSIGNED_CONTEXT ( ( #172 ) ) GLOBAL_UNIT_ASSIGNED_CONTEXT ( ( #184, #246, #278 ) ) REPRESENTATION_CONTEXT ( 'NONE', 'WORKASPACE' ) );
#374 = FILL_AREA_STYLE ('',( #364 ) ) ;
#375 = APPLICATION_CONTEXT ( 'automotive_design' ) ;
#376 =( NAMED_UNIT ( * ) SI_UNIT ( $, .STERADIAN. ) SOLID_ANGLE_UNIT ( ) );
#377 = PRESENTATION_LAYER_ASSIGNMENT (  '', '', ( #21 ) ) ;
#378 = STYLED_ITEM ( 'NONE', ( #388 ), #283 ) ;
#379 = EDGE_LOOP ( 'NONE', ( #51 ) ) ;
#380 = SURFACE_STYLE_FILL_AREA ( #14 ) ;
#381 = COLOUR_RGB ( '',0.9098039215686274384, 0.4431372549019607643, 0.03137254901960784270 ) ;
#382 = DIRECTION ( 'NONE',  ( 4.046080116786000560E-16, -1.000000000000000000, -0.000000000000000000 ) ) ;
#383 = EDGE_LOOP ( 'NONE', ( #321, #226, #414, #410 ) ) ;
#384 = PRESENTATION_LAYER_ASSIGNMENT (  '', '', ( #391 ) ) ;
#385 = ORIENTED_EDGE ( 'NONE', *, *, #267, .F. ) ;
#386 = FILL_AREA_STYLE ('',( #363 ) ) ;
#387 = FILL_AREA_STYLE ('',( #423 ) ) ;
#388 = PRESENTATION_STYLE_ASSIGNMENT (( #259 ) ) ;
#389 = FACE_OUTER_BOUND ( 'NONE', #383, .T. ) ;
#390 = SURFACE_SIDE_STYLE ('',( #66 ) ) ;
#391 = STYLED_ITEM ( 'NONE', ( #124 ), #162 ) ;
#392 = PRODUCT_DEFINITION ( 'UNKNOWN', '', #261, #362 ) ;
#393 = SURFACE_STYLE_USAGE ( .BOTH. , #4 ) ;
#394 = FACE_OUTER_BOUND ( 'NONE', #314, .T. ) ;
#395 = PRESENTATION_STYLE_ASSIGNMENT (( #108 ) ) ;
#396 =( GEOMETRIC_REPRESENTATION_CONTEXT ( 3 ) GLOBAL_UNCERTAINTY_ASSIGNED_CONTEXT ( ( #74 ) ) GLOBAL_UNIT_ASSIGNED_CONTEXT ( ( #299, #245, #242 ) ) REPRESENTATION_CONTEXT ( 'NONE', 'WORKASPACE' ) );
#397 = CYLINDRICAL_SURFACE ( 'NONE', #341, 27.32233250620344478 ) ;
#398 = UNCERTAINTY_MEASURE_WITH_UNIT (LENGTH_MEASURE( 1.000000000000000082E-05 ), #276, 'distance_accuracy_value', 'NONE');
#399 = EDGE_CURVE ( 'NONE', #273, #254, #127, .T. ) ;
#400 =( NAMED_UNIT ( * ) SI_UNIT ( $, .STERADIAN. ) SOLID_ANGLE_UNIT ( ) );
#401 = SURFACE_SIDE_STYLE ('',( #409 ) ) ;
#402 = SURFACE_STYLE_USAGE ( .BOTH. , #42 ) ;
#403 =( LENGTH_UNIT ( ) NAMED_UNIT ( * ) SI_UNIT ( .MILLI., .METRE. ) );
#404 = DIRECTION ( 'NONE',  ( 4.046080116786000560E-16, -1.000000000000000000, -0.000000000000000000 ) ) ;
#405 = SURFACE_STYLE_USAGE ( .BOTH. , #401 ) ;
#406 = ADVANCED_FACE ( 'NONE', ( ), #146, .T. ) ;
#407 = MECHANICAL_DESIGN_GEOMETRIC_PRESENTATION_REPRESENTATION (  '', ( #163 ), #3 ) ;
#408 = ORIENTED_EDGE ( 'NONE', *, *, #10, .F. ) ;
#409 = SURFACE_STYLE_FILL_AREA ( #84 ) ;
#410 = ORIENTED_EDGE ( 'NONE', *, *, #209, .T. ) ;
#411 = MECHANICAL_DESIGN_GEOMETRIC_PRESENTATION_REPRESENTATION (  '', ( #21 ), #153 ) ;
#412 = DIRECTION ( 'NONE',  ( 4.046080116786000560E-16, -1.000000000000000000, -0.000000000000000000 ) ) ;
#413 = AXIS2_PLACEMENT_3D ( 'NONE', #86, #292, #89 ) ;
#414 = ORIENTED_EDGE ( 'NONE', *, *, #267, .T. ) ;
#415 = PRESENTATION_LAYER_ASSIGNMENT (  '', '', ( #347 ) ) ;
#416 = CARTESIAN_POINT ( 'NONE',  ( 0.000000000000000000, 0.000000000000000000, 0.000000000000000000 ) ) ;
#417 = DIRECTION ( 'NONE',  ( 4.046080116786000560E-16, -1.000000000000000000, -0.000000000000000000 ) ) ;
#418 = DIRECTION ( 'NONE',  ( 1.000000000000000000, 4.046080116786000560E-16, 0.000000000000000000 ) ) ;
#419 = UNCERTAINTY_MEASURE_WITH_UNIT (LENGTH_MEASURE( 1.000000000000000082E-05 ), #358, 'distance_accuracy_value', 'NONE');
#420 = PRESENTATION_LAYER_ASSIGNMENT (  '', '', ( #268 ) ) ;
#421 = DIRECTION ( 'NONE',  ( 4.046080116786000560E-16, -1.000000000000000000, -0.000000000000000000 ) ) ;
#422 = FILL_AREA_STYLE_COLOUR ( '', #198 ) ;
#423 = FILL_AREA_STYLE_COLOUR ( '', #52 ) ;
#424 =( NAMED_UNIT ( * ) SI_UNIT ( $, .STERADIAN. ) SOLID_ANGLE_UNIT ( ) );
#425 = CARTESIAN_POINT ( 'NONE',  ( -279.6274786108853050, -1.146370378944054438E-14, 0.000000000000000000 ) ) ;
#426 = MECHANICAL_DESIGN_GEOMETRIC_PRESENTATION_REPRESENTATION (  '', ( #211 ), #88 ) ;
#427 = CARTESIAN_POINT ( 'NONE',  ( -150.3782165272086786, 1.105483462975656834E-14, 0.000000000000000000 ) ) ;
ENDSEC;
END-ISO-10303-21;
