ISO-10303-21;
HEADER;
FILE_DESCRIPTION (( 'STEP AP214' ),
    '1' );
FILE_NAME ('C7_periodic__ap214_split.step',
    '2026-08-06T13:09:29',
    ( '' ),
    ( '' ),
    'SwSTEP 2.0',
    'SolidWorks 2026',
    '' );
FILE_SCHEMA (( 'AUTOMOTIVE_DESIGN' ));
ENDSEC;

DATA;
#1 = ORIENTED_EDGE ( 'NONE', *, *, #486, .T. ) ;
#2 = UNCERTAINTY_MEASURE_WITH_UNIT (LENGTH_MEASURE( 1.000000000000000082E-05 ), #261, 'distance_accuracy_value', 'NONE');
#3 = PRODUCT_RELATED_PRODUCT_CATEGORY ( 'part', '', ( #114 ) ) ;
#4 = PRESENTATION_STYLE_ASSIGNMENT (( #629 ) ) ;
#5 = LINE ( 'NONE', #469, #301 ) ;
#6 = SURFACE_STYLE_FILL_AREA ( #179 ) ;
#7 =( GEOMETRIC_REPRESENTATION_CONTEXT ( 3 ) GLOBAL_UNCERTAINTY_ASSIGNED_CONTEXT ( ( #656 ) ) GLOBAL_UNIT_ASSIGNED_CONTEXT ( ( #595, #191, #201 ) ) REPRESENTATION_CONTEXT ( 'NONE', 'WORKASPACE' ) );
#8 = FILL_AREA_STYLE_COLOUR ( '', #146 ) ;
#9 = MECHANICAL_DESIGN_GEOMETRIC_PRESENTATION_REPRESENTATION (  '', ( #275 ), #285 ) ;
#10 = DIRECTION ( 'NONE',  ( 4.046080116786000560E-16, -1.000000000000000000, -0.000000000000000000 ) ) ;
#11 = SURFACE_SIDE_STYLE ('',( #571 ) ) ;
#12 =( GEOMETRIC_REPRESENTATION_CONTEXT ( 3 ) GLOBAL_UNCERTAINTY_ASSIGNED_CONTEXT ( ( #71 ) ) GLOBAL_UNIT_ASSIGNED_CONTEXT ( ( #576, #512, #357 ) ) REPRESENTATION_CONTEXT ( 'NONE', 'WORKASPACE' ) );
#13 =( NAMED_UNIT ( * ) PLANE_ANGLE_UNIT ( ) SI_UNIT ( $, .RADIAN. ) );
#14 = FILL_AREA_STYLE_COLOUR ( '', #593 ) ;
#15 = FILL_AREA_STYLE_COLOUR ( '', #691 ) ;
#16 = DIRECTION ( 'NONE',  ( 0.000000000000000000, 0.000000000000000000, -1.000000000000000000 ) ) ;
#17 = AXIS2_PLACEMENT_3D ( 'NONE', #329, #203, #428 ) ;
#18 = ORIENTED_EDGE ( 'NONE', *, *, #291, .T. ) ;
#19 = DIRECTION ( 'NONE',  ( 1.000000000000000000, 4.046080116786000560E-16, 0.000000000000000000 ) ) ;
#20 = PRESENTATION_LAYER_ASSIGNMENT (  '', '', ( #94 ) ) ;
#21 = ADVANCED_FACE ( 'NONE', ( #399 ), #408, .F. ) ;
#22 = PRESENTATION_STYLE_ASSIGNMENT (( #242 ) ) ;
#23 = DIRECTION ( 'NONE',  ( 4.046080116786000560E-16, -1.000000000000000000, -0.000000000000000000 ) ) ;
#24 = APPLICATION_PROTOCOL_DEFINITION ( 'draft international standard', 'automotive_design', 1998, #143 ) ;
#25 = MECHANICAL_DESIGN_GEOMETRIC_PRESENTATION_REPRESENTATION (  '', ( #420 ), #124 ) ;
#26 = DIRECTION ( 'NONE',  ( 0.000000000000000000, 0.000000000000000000, -1.000000000000000000 ) ) ;
#27 = FILL_AREA_STYLE_COLOUR ( '', #570 ) ;
#28 = PRESENTATION_STYLE_ASSIGNMENT (( #205 ) ) ;
#29 = DIRECTION ( 'NONE',  ( -1.000000000000000000, 4.100616414507756530E-16, 0.000000000000000000 ) ) ;
#30 = PRESENTATION_LAYER_ASSIGNMENT (  '', '', ( #344 ) ) ;
#31 = CARTESIAN_POINT ( 'NONE',  ( 86.37536899347172437, 34.29934011993389475, 4.092509137901791778E-15 ) ) ;
#32 = AXIS2_PLACEMENT_3D ( 'NONE', #343, #677, #135 ) ;
#33 =( GEOMETRIC_REPRESENTATION_CONTEXT ( 3 ) GLOBAL_UNCERTAINTY_ASSIGNED_CONTEXT ( ( #702 ) ) GLOBAL_UNIT_ASSIGNED_CONTEXT ( ( #350, #573, #624 ) ) REPRESENTATION_CONTEXT ( 'NONE', 'WORKASPACE' ) );
#34 = DIRECTION ( 'NONE',  ( -1.000000000000000000, 4.046080116785987741E-16, 0.000000000000000000 ) ) ;
#35 =( NAMED_UNIT ( * ) SI_UNIT ( $, .STERADIAN. ) SOLID_ANGLE_UNIT ( ) );
#36 =( NAMED_UNIT ( * ) SI_UNIT ( $, .STERADIAN. ) SOLID_ANGLE_UNIT ( ) );
#37 = CLOSED_SHELL ( 'NONE', ( #347, #225 ) ) ;
#38 = SURFACE_STYLE_USAGE ( .BOTH. , #543 ) ;
#39 = EDGE_CURVE ( 'NONE', #388, #172, #463, .T. ) ;
#40 = EDGE_LOOP ( 'NONE', ( #133, #525, #1, #566 ) ) ;
#41 = PRESENTATION_LAYER_ASSIGNMENT (  '', '', ( #260 ) ) ;
#42 = VECTOR ( 'NONE', #708, 1000.000000000000000 ) ;
#43 = CARTESIAN_POINT ( 'NONE',  ( -2.685450073292357992E-29, 6.637164850372618952E-14, 0.000000000000000000 ) ) ;
#44 = LINE ( 'NONE', #218, #42 ) ;
#45 = CARTESIAN_POINT ( 'NONE',  ( 36.88651175471744637, 34.29934011993390897, 0.000000000000000000 ) ) ;
#46 = ORIENTED_EDGE ( 'NONE', *, *, #481, .F. ) ;
#47 = UNCERTAINTY_MEASURE_WITH_UNIT (LENGTH_MEASURE( 1.000000000000000082E-05 ), #423, 'distance_accuracy_value', 'NONE');
#48 = FILL_AREA_STYLE ('',( #646 ) ) ;
#49 = COLOUR_RGB ( '',0.8941176470588234615, 0.8941176470588234615, 0.8941176470588234615 ) ;
#50 = CARTESIAN_POINT ( 'NONE',  ( -177.7005490334121305, 68.59868023986784635, 3.346020704896173044E-15 ) ) ;
#51 = EDGE_LOOP ( 'NONE', ( #522, #710 ) ) ;
#52 = MANIFOLD_SOLID_BREP ( 'Revolve2', #718 ) ;
#53 =( LENGTH_UNIT ( ) NAMED_UNIT ( * ) SI_UNIT ( .MILLI., .METRE. ) );
#54 = SURFACE_STYLE_USAGE ( .BOTH. , #435 ) ;
#55 = SURFACE_SIDE_STYLE ('',( #375 ) ) ;
#56 = ORIENTED_EDGE ( 'NONE', *, *, #39, .T. ) ;
#57 = UNCERTAINTY_MEASURE_WITH_UNIT (LENGTH_MEASURE( 1.000000000000000082E-05 ), #367, 'distance_accuracy_value', 'NONE');
#58 = AXIS2_PLACEMENT_3D ( 'NONE', #234, #125, #335 ) ;
#59 = MECHANICAL_DESIGN_GEOMETRIC_PRESENTATION_REPRESENTATION (  '', ( #217 ), #628 ) ;
#60 = SPHERICAL_SURFACE ( 'NONE', #358, 34.29934011993392318 ) ;
#61 = EDGE_CURVE ( 'NONE', #453, #664, #5, .T. ) ;
#62 = EDGE_LOOP ( 'NONE', ( #614, #122, #215 ) ) ;
#63 = ORIENTED_EDGE ( 'NONE', *, *, #436, .T. ) ;
#64 = UNCERTAINTY_MEASURE_WITH_UNIT (LENGTH_MEASURE( 1.000000000000000082E-05 ), #678, 'distance_accuracy_value', 'NONE');
#65 = CARTESIAN_POINT ( 'NONE',  ( 103.7222580409308250, 34.29934011993388765, 6.216890352615297808E-15 ) ) ;
#66 = EDGE_CURVE ( 'NONE', #294, #602, #433, .T. ) ;
#67 =( LENGTH_UNIT ( ) NAMED_UNIT ( * ) SI_UNIT ( .MILLI., .METRE. ) );
#68 = CIRCLE ( 'NONE', #690, 34.29934011993390897 ) ;
#69 = CARTESIAN_POINT ( 'NONE',  ( -59.79593872408656097, -932.4084780810587745, 0.000000000000000000 ) ) ;
#70 = FILL_AREA_STYLE_COLOUR ( '', #640 ) ;
#71 = UNCERTAINTY_MEASURE_WITH_UNIT (LENGTH_MEASURE( 1.000000000000000082E-05 ), #576, 'distance_accuracy_value', 'NONE');
#72 = ADVANCED_FACE ( 'NONE', ( #249 ), #138, .T. ) ;
#73 =( LENGTH_UNIT ( ) NAMED_UNIT ( * ) SI_UNIT ( .MILLI., .METRE. ) );
#74 = CIRCLE ( 'NONE', #505, 17.34688904745909710 ) ;
#75 = DIRECTION ( 'NONE',  ( 4.046080116786000560E-16, -1.000000000000000000, -0.000000000000000000 ) ) ;
#76 = SURFACE_STYLE_USAGE ( .BOTH. , #684 ) ;
#77 = SURFACE_SIDE_STYLE ('',( #287 ) ) ;
#78 = SHAPE_DEFINITION_REPRESENTATION ( #502, #685 ) ;
#79 = SURFACE_STYLE_FILL_AREA ( #589 ) ;
#80 = FACE_OUTER_BOUND ( 'NONE', #442, .T. ) ;
#81 = SURFACE_SIDE_STYLE ('',( #366 ) ) ;
#82 =( GEOMETRIC_REPRESENTATION_CONTEXT ( 3 ) GLOBAL_UNCERTAINTY_ASSIGNED_CONTEXT ( ( #47 ) ) GLOBAL_UNIT_ASSIGNED_CONTEXT ( ( #423, #591, #244 ) ) REPRESENTATION_CONTEXT ( 'NONE', 'WORKASPACE' ) );
#83 = FILL_AREA_STYLE_COLOUR ( '', #93 ) ;
#84 = PRESENTATION_STYLE_ASSIGNMENT (( #299 ) ) ;
#85 = STYLED_ITEM ( 'NONE', ( #349 ), #21 ) ;
#86 = FACE_OUTER_BOUND ( 'NONE', #266, .T. ) ;
#87 = DIRECTION ( 'NONE',  ( -1.000000000000000000, -4.046080116785989713E-16, 0.000000000000000000 ) ) ;
#88 = SURFACE_STYLE_USAGE ( .BOTH. , #190 ) ;
#89 = EDGE_CURVE ( 'NONE', #449, #182, #447, .T. ) ;
#90 = DIRECTION ( 'NONE',  ( -1.000000000000000000, 4.046080116785987741E-16, 0.000000000000000000 ) ) ;
#91 = AXIS2_PLACEMENT_3D ( 'NONE', #612, #353, #121 ) ;
#92 =( NAMED_UNIT ( * ) SI_UNIT ( $, .STERADIAN. ) SOLID_ANGLE_UNIT ( ) );
#93 = COLOUR_RGB ( '',0.000000000000000000, 1.000000000000000000, 0.000000000000000000 ) ;
#94 = STYLED_ITEM ( 'NONE', ( #419 ), #569 ) ;
#95 = PRODUCT_DEFINITION_FORMATION_WITH_SPECIFIED_SOURCE ( 'ANY', '', #114, .NOT_KNOWN. ) ;
#96 =( NAMED_UNIT ( * ) SI_UNIT ( $, .STERADIAN. ) SOLID_ANGLE_UNIT ( ) );
#97 = EDGE_CURVE ( 'NONE', #644, #194, #99, .T. ) ;
#98 = DIRECTION ( 'NONE',  ( -1.224646799147353207E-16, 4.955019064115708091E-32, 1.000000000000000000 ) ) ;
#99 = CIRCLE ( 'NONE', #338, 17.34688904745910421 ) ;
#100 = SURFACE_SIDE_STYLE ('',( #211 ) ) ;
#101 =( NAMED_UNIT ( * ) PLANE_ANGLE_UNIT ( ) SI_UNIT ( $, .RADIAN. ) );
#102 = SURFACE_STYLE_USAGE ( .BOTH. , #150 ) ;
#103 = ORIENTED_EDGE ( 'NONE', *, *, #302, .F. ) ;
#104 = ADVANCED_FACE ( 'NONE', ( #309 ), #253, .T. ) ;
#105 = PRESENTATION_LAYER_ASSIGNMENT (  '', '', ( #334 ) ) ;
#106 = PRESENTATION_STYLE_ASSIGNMENT (( #331 ) ) ;
#107 = ORIENTED_EDGE ( 'NONE', *, *, #237, .T. ) ;
#108 = CARTESIAN_POINT ( 'NONE',  ( 177.7005490334121305, 68.59868023986784635, 0.000000000000000000 ) ) ;
#109 = FILL_AREA_STYLE_COLOUR ( '', #482 ) ;
#110 = DIRECTION ( 'NONE',  ( 0.000000000000000000, -0.000000000000000000, 1.000000000000000000 ) ) ;
#111 = ORIENTED_EDGE ( 'NONE', *, *, #481, .T. ) ;
#112 = FILL_AREA_STYLE ('',( #109 ) ) ;
#113 = EDGE_CURVE ( 'NONE', #619, #664, #519, .T. ) ;
#114 = PRODUCT ( 'C7_periodic__ap214_split', 'C7_periodic__ap214_split', '', ( #632 ) ) ;
#115 =( NAMED_UNIT ( * ) SI_UNIT ( $, .STERADIAN. ) SOLID_ANGLE_UNIT ( ) );
#116 = ORIENTED_EDGE ( 'NONE', *, *, #448, .F. ) ;
#117 = UNCERTAINTY_MEASURE_WITH_UNIT (LENGTH_MEASURE( 1.000000000000000082E-05 ), #53, 'distance_accuracy_value', 'NONE');
#118 = COLOUR_RGB ( '',1.000000000000000000, 0.000000000000000000, 0.000000000000000000 ) ;
#119 =( GEOMETRIC_REPRESENTATION_CONTEXT ( 3 ) GLOBAL_UNCERTAINTY_ASSIGNED_CONTEXT ( ( #501 ) ) GLOBAL_UNIT_ASSIGNED_CONTEXT ( ( #661, #607, #377 ) ) REPRESENTATION_CONTEXT ( 'NONE', 'WORKASPACE' ) );
#120 =( GEOMETRIC_REPRESENTATION_CONTEXT ( 3 ) GLOBAL_UNCERTAINTY_ASSIGNED_CONTEXT ( ( #553 ) ) GLOBAL_UNIT_ASSIGNED_CONTEXT ( ( #579, #468, #303 ) ) REPRESENTATION_CONTEXT ( 'NONE', 'WORKASPACE' ) );
#121 = DIRECTION ( 'NONE',  ( -1.000000000000000000, 4.100616414507756530E-16, 0.000000000000000000 ) ) ;
#122 = ORIENTED_EDGE ( 'NONE', *, *, #336, .T. ) ;
#123 = FILL_AREA_STYLE_COLOUR ( '', #346 ) ;
#124 =( GEOMETRIC_REPRESENTATION_CONTEXT ( 3 ) GLOBAL_UNCERTAINTY_ASSIGNED_CONTEXT ( ( #563 ) ) GLOBAL_UNIT_ASSIGNED_CONTEXT ( ( #412, #538, #92 ) ) REPRESENTATION_CONTEXT ( 'NONE', 'WORKASPACE' ) );
#125 = DIRECTION ( 'NONE',  ( -0.000000000000000000, -1.000000000000000000, -0.000000000000000000 ) ) ;
#126 = CARTESIAN_POINT ( 'NONE',  ( -59.79593872408656097, 67.59152191894128237, 0.000000000000000000 ) ) ;
#127 = SURFACE_SIDE_STYLE ('',( #6 ) ) ;
#128 = CARTESIAN_POINT ( 'NONE',  ( 52.95749585036503504, 34.29934011993390897, 0.000000000000000000 ) ) ;
#129 = DIRECTION ( 'NONE',  ( 4.046080116786000560E-16, -1.000000000000000000, -0.000000000000000000 ) ) ;
#130 = AXIS2_PLACEMENT_3D ( 'NONE', #43, #496, #149 ) ;
#131 = FILL_AREA_STYLE ('',( #396 ) ) ;
#132 = SURFACE_STYLE_USAGE ( .BOTH. , #232 ) ;
#133 = ORIENTED_EDGE ( 'NONE', *, *, #113, .F. ) ;
#134 = CARTESIAN_POINT ( 'NONE',  ( 177.7005490334121589, 34.29934011993392318, 0.000000000000000000 ) ) ;
#135 = DIRECTION ( 'NONE',  ( 1.000000000000000000, 0.000000000000000000, 0.000000000000000000 ) ) ;
#136 = CARTESIAN_POINT ( 'NONE',  ( 2.192733659799238399, 34.29934011993393028, 0.000000000000000000 ) ) ;
#137 = SURFACE_STYLE_USAGE ( .BOTH. , #362 ) ;
#138 = PLANE ( 'NONE',  #152 ) ;
#139 = COLOUR_RGB ( '',1.000000000000000000, 0.000000000000000000, 0.000000000000000000 ) ;
#140 = DIRECTION ( 'NONE',  ( 4.046080116785987248E-16, 1.000000000000000000, -0.000000000000000000 ) ) ;
#141 = SPHERICAL_SURFACE ( 'NONE', #472, 34.29934011993392318 ) ;
#142 =( LENGTH_UNIT ( ) NAMED_UNIT ( * ) SI_UNIT ( .MILLI., .METRE. ) );
#143 = APPLICATION_CONTEXT ( 'automotive_design' ) ;
#144 = LINE ( 'NONE', #356, #689 ) ;
#145 = PRESENTATION_STYLE_ASSIGNMENT (( #153 ) ) ;
#146 = COLOUR_RGB ( '',1.000000000000000000, 1.000000000000000000, 0.000000000000000000 ) ;
#147 = DIRECTION ( 'NONE',  ( 4.046080116786000560E-16, -1.000000000000000000, -0.000000000000000000 ) ) ;
#148 = CIRCLE ( 'NONE', #239, 34.29934011993390897 ) ;
#149 = DIRECTION ( 'NONE',  ( 1.000000000000000000, 4.046080116786000560E-16, 0.000000000000000000 ) ) ;
#150 = SURFACE_SIDE_STYLE ('',( #431 ) ) ;
#151 = FACE_OUTER_BOUND ( 'NONE', #682, .T. ) ;
#152 = AXIS2_PLACEMENT_3D ( 'NONE', #694, #23, #363 ) ;
#153 = SURFACE_STYLE_USAGE ( .BOTH. , #554 ) ;
#154 = DIRECTION ( 'NONE',  ( 4.046080116786000560E-16, -1.000000000000000000, -0.000000000000000000 ) ) ;
#155 = EDGE_LOOP ( 'NONE', ( #391, #655, #517, #495 ) ) ;
#156 = DIRECTION ( 'NONE',  ( -1.224646799147353207E-16, 4.955019064115708091E-32, 1.000000000000000000 ) ) ;
#157 = ORIENTED_EDGE ( 'NONE', *, *, #613, .T. ) ;
#158 =( GEOMETRIC_REPRESENTATION_CONTEXT ( 3 ) GLOBAL_UNCERTAINTY_ASSIGNED_CONTEXT ( ( #2 ) ) GLOBAL_UNIT_ASSIGNED_CONTEXT ( ( #261, #705, #163 ) ) REPRESENTATION_CONTEXT ( 'NONE', 'WORKASPACE' ) );
#159 =( GEOMETRIC_REPRESENTATION_CONTEXT ( 3 ) GLOBAL_UNCERTAINTY_ASSIGNED_CONTEXT ( ( #518 ) ) GLOBAL_UNIT_ASSIGNED_CONTEXT ( ( #506, #13, #625 ) ) REPRESENTATION_CONTEXT ( 'NONE', 'WORKASPACE' ) );
#160 =( LENGTH_UNIT ( ) NAMED_UNIT ( * ) SI_UNIT ( .MILLI., .METRE. ) );
#161 = PRESENTATION_LAYER_ASSIGNMENT (  '', '', ( #217 ) ) ;
#162 = DIRECTION ( 'NONE',  ( 4.046080116786000560E-16, -1.000000000000000000, -0.000000000000000000 ) ) ;
#163 =( NAMED_UNIT ( * ) SI_UNIT ( $, .STERADIAN. ) SOLID_ANGLE_UNIT ( ) );
#164 = ORIENTED_EDGE ( 'NONE', *, *, #545, .F. ) ;
#165 = UNCERTAINTY_MEASURE_WITH_UNIT (LENGTH_MEASURE( 1.000000000000000082E-05 ), #340, 'distance_accuracy_value', 'NONE');
#166 = CLOSED_SHELL ( 'NONE', ( #569, #425, #389, #618 ) ) ;
#167 = EDGE_CURVE ( 'NONE', #602, #294, #74, .T. ) ;
#168 = CARTESIAN_POINT ( 'NONE',  ( -150.3782165272087070, 68.59868023986786056, 0.000000000000000000 ) ) ;
#169 = PRESENTATION_LAYER_ASSIGNMENT (  '', '', ( #420 ) ) ;
#170 = DIRECTION ( 'NONE',  ( 4.046080116786000560E-16, -1.000000000000000000, -0.000000000000000000 ) ) ;
#171 = FILL_AREA_STYLE_COLOUR ( '', #407 ) ;
#172 = VERTEX_POINT ( 'NONE', #659 ) ;
#173 = PRESENTATION_STYLE_ASSIGNMENT (( #231 ) ) ;
#174 = ORIENTED_EDGE ( 'NONE', *, *, #312, .T. ) ;
#175 =( GEOMETRIC_REPRESENTATION_CONTEXT ( 3 ) GLOBAL_UNCERTAINTY_ASSIGNED_CONTEXT ( ( #711 ) ) GLOBAL_UNIT_ASSIGNED_CONTEXT ( ( #281, #666, #680 ) ) REPRESENTATION_CONTEXT ( 'NONE', 'WORKASPACE' ) );
#176 = FILL_AREA_STYLE_COLOUR ( '', #321 ) ;
#177 = DIRECTION ( 'NONE',  ( 1.000000000000000000, 4.046080116786000560E-16, 0.000000000000000000 ) ) ;
#178 =( LENGTH_UNIT ( ) NAMED_UNIT ( * ) SI_UNIT ( .MILLI., .METRE. ) );
#179 = FILL_AREA_STYLE ('',( #176 ) ) ;
#180 = AXIS2_PLACEMENT_3D ( 'NONE', #383, #499, #110 ) ;
#181 = ADVANCED_FACE ( 'NONE', ( #560 ), #432, .F. ) ;
#182 = VERTEX_POINT ( 'NONE', #654 ) ;
#183 = FILL_AREA_STYLE ('',( #123 ) ) ;
#184 = PRESENTATION_LAYER_ASSIGNMENT (  '', '', ( #369 ) ) ;
#185 =( NAMED_UNIT ( * ) SI_UNIT ( $, .STERADIAN. ) SOLID_ANGLE_UNIT ( ) );
#186 = MECHANICAL_DESIGN_GEOMETRIC_PRESENTATION_REPRESENTATION (  '', ( #297 ), #119 ) ;
#187 = AXIS2_PLACEMENT_3D ( 'NONE', #594, #270, #310 ) ;
#188 = DIRECTION ( 'NONE',  ( 1.000000000000000000, 5.079283697562631313E-16, 0.000000000000000000 ) ) ;
#189 = EDGE_CURVE ( 'NONE', #333, #269, #633, .T. ) ;
#190 = SURFACE_SIDE_STYLE ('',( #79 ) ) ;
#191 =( NAMED_UNIT ( * ) PLANE_ANGLE_UNIT ( ) SI_UNIT ( $, .RADIAN. ) );
#192 = STYLED_ITEM ( 'NONE', ( #106 ), #225 ) ;
#193 = DIRECTION ( 'NONE',  ( 4.046080116785987248E-16, 1.000000000000000000, -0.000000000000000000 ) ) ;
#194 = VERTEX_POINT ( 'NONE', #45 ) ;
#195 = COLOUR_RGB ( '',0.9098039215686274384, 0.4431372549019607643, 0.03137254901960784270 ) ;
#196 = PRESENTATION_LAYER_ASSIGNMENT (  '', '', ( #297 ) ) ;
#197 = CARTESIAN_POINT ( 'NONE',  ( 19.53962270725834216, 34.29934011993392318, 0.000000000000000000 ) ) ;
#198 = PLANE ( 'NONE',  #130 ) ;
#199 = FACE_OUTER_BOUND ( 'NONE', #155, .T. ) ;
#200 = AXIS2_PLACEMENT_3D ( 'NONE', #378, #549, #277 ) ;
#201 =( NAMED_UNIT ( * ) SI_UNIT ( $, .STERADIAN. ) SOLID_ANGLE_UNIT ( ) );
#202 = SURFACE_SIDE_STYLE ('',( #304 ) ) ;
#203 = DIRECTION ( 'NONE',  ( 4.046080116785987248E-16, 1.000000000000000000, -0.000000000000000000 ) ) ;
#204 = PRESENTATION_LAYER_ASSIGNMENT (  '', '', ( #679 ) ) ;
#205 = SURFACE_STYLE_USAGE ( .BOTH. , #202 ) ;
#206 = AXIS2_PLACEMENT_3D ( 'NONE', #264, #487, #386 ) ;
#207 = STYLED_ITEM ( 'NONE', ( #713 ), #695 ) ;
#208 = CARTESIAN_POINT ( 'NONE',  ( -224.9828135984784865, 68.59868023986787477, 0.000000000000000000 ) ) ;
#209 = EDGE_LOOP ( 'NONE', ( #605, #174 ) ) ;
#210 = CARTESIAN_POINT ( 'NONE',  ( -252.3051461046819099, 68.59868023986786056, 0.000000000000000000 ) ) ;
#211 = SURFACE_STYLE_FILL_AREA ( #608 ) ;
#212 = EDGE_LOOP ( 'NONE', ( #46, #484 ) ) ;
#213 = CARTESIAN_POINT ( 'NONE',  ( -177.7005490334121305, -1.146370378944054438E-14, 3.346020704896173044E-15 ) ) ;
#214 = PRESENTATION_LAYER_ASSIGNMENT (  '', '', ( #535 ) ) ;
#215 = ORIENTED_EDGE ( 'NONE', *, *, #312, .F. ) ;
#216 = STYLED_ITEM ( 'NONE', ( #4 ), #515 ) ;
#217 = STYLED_ITEM ( 'NONE', ( #145 ), #688 ) ;
#218 = CARTESIAN_POINT ( 'NONE',  ( -123.0558840210052267, 1.064596547007257179E-14, 0.000000000000000000 ) ) ;
#219 = CARTESIAN_POINT ( 'NONE',  ( 86.37536899347172437, 34.29934011993389475, 4.092509137901791778E-15 ) ) ;
#220 = ORIENTED_EDGE ( 'NONE', *, *, #237, .F. ) ;
#221 = UNCERTAINTY_MEASURE_WITH_UNIT (LENGTH_MEASURE( 1.000000000000000082E-05 ), #548, 'distance_accuracy_value', 'NONE');
#222 = EDGE_CURVE ( 'NONE', #194, #644, #314, .T. ) ;
#223 = MECHANICAL_DESIGN_GEOMETRIC_PRESENTATION_REPRESENTATION (  '', ( #85 ), #365 ) ;
#224 = ORIENTED_EDGE ( 'NONE', *, *, #462, .F. ) ;
#225 = ADVANCED_FACE ( 'NONE', ( #151 ), #60, .T. ) ;
#226 = SURFACE_STYLE_FILL_AREA ( #403 ) ;
#227 = CYLINDRICAL_SURFACE ( 'NONE', #698, 27.32233250620344478 ) ;
#228 = SURFACE_STYLE_FILL_AREA ( #131 ) ;
#229 = CONICAL_SURFACE ( 'NONE', #246, 404.2272126816378659, 0.3841452057184321367 ) ;
#230 = CIRCLE ( 'NONE', #441, 27.32233250620341636 ) ;
#231 = SURFACE_STYLE_USAGE ( .BOTH. , #450 ) ;
#232 = SURFACE_SIDE_STYLE ('',( #524 ) ) ;
#233 = SURFACE_STYLE_USAGE ( .BOTH. , #77 ) ;
#234 = CARTESIAN_POINT ( 'NONE',  ( -59.79593872408656097, -6.938893903907228378E-15, 0.000000000000000000 ) ) ;
#235 = CARTESIAN_POINT ( 'NONE',  ( -101.9269295774726771, 68.59868023986780372, 0.000000000000000000 ) ) ;
#236 = PRESENTATION_STYLE_ASSIGNMENT (( #397 ) ) ;
#237 = EDGE_CURVE ( 'NONE', #269, #333, #400, .T. ) ;
#238 = VECTOR ( 'NONE', #170, 1000.000000000000000 ) ;
#239 = AXIS2_PLACEMENT_3D ( 'NONE', #470, #409, #532 ) ;
#240 = FILL_AREA_STYLE_COLOUR ( '', #245 ) ;
#241 = CARTESIAN_POINT ( 'NONE',  ( -279.6274786108853618, 3.081487911019577365E-30, 0.000000000000000000 ) ) ;
#242 = SURFACE_STYLE_USAGE ( .BOTH. , #410 ) ;
#243 = CARTESIAN_POINT ( 'NONE',  ( 52.95749585036503504, 34.29934011993390897, 0.000000000000000000 ) ) ;
#244 =( NAMED_UNIT ( * ) SI_UNIT ( $, .STERADIAN. ) SOLID_ANGLE_UNIT ( ) );
#245 = COLOUR_RGB ( '',0.000000000000000000, 1.000000000000000000, 1.000000000000000000 ) ;
#246 = AXIS2_PLACEMENT_3D ( 'NONE', #69, #639, #16 ) ;
#247 = PRODUCT_DEFINITION ( 'UNKNOWN', '', #95, #283 ) ;
#248 = MECHANICAL_DESIGN_GEOMETRIC_PRESENTATION_REPRESENTATION (  '', ( #334 ), #513 ) ;
#249 = FACE_OUTER_BOUND ( 'NONE', #51, .T. ) ;
#250 = AXIS2_PLACEMENT_3D ( 'NONE', #296, #193, #29 ) ;
#251 = CARTESIAN_POINT ( 'NONE',  ( -59.79593872408656097, -6.938893903907228378E-15, 0.000000000000000000 ) ) ;
#252 = DIRECTION ( 'NONE',  ( 0.000000000000000000, -0.9271191198431756320, -0.3747667776380602112 ) ) ;
#253 = CYLINDRICAL_SURFACE ( 'NONE', #578, 27.32233250620344478 ) ;
#254 = AXIS2_PLACEMENT_3D ( 'NONE', #445, #604, #387 ) ;
#255 = PRESENTATION_STYLE_ASSIGNMENT (( #38 ) ) ;
#256 = SURFACE_STYLE_FILL_AREA ( #319 ) ;
#257 = CARTESIAN_POINT ( 'NONE',  ( -252.3051461046819099, -4.088691596839861464E-16, 0.000000000000000000 ) ) ;
#258 = SURFACE_STYLE_FILL_AREA ( #492 ) ;
#259 = DIRECTION ( 'NONE',  ( -1.224646799147353207E-16, -4.955019064115709185E-32, 1.000000000000000000 ) ) ;
#260 = STYLED_ITEM ( 'NONE', ( #626 ), #332 ) ;
#261 =( LENGTH_UNIT ( ) NAMED_UNIT ( * ) SI_UNIT ( .MILLI., .METRE. ) );
#262 = CIRCLE ( 'NONE', #681, 16.07098409564759223 ) ;
#263 = ORIENTED_EDGE ( 'NONE', *, *, #581, .F. ) ;
#264 = CARTESIAN_POINT ( 'NONE',  ( -252.3051461046819099, 68.59868023986786056, 0.000000000000000000 ) ) ;
#265 = PRESENTATION_STYLE_ASSIGNMENT (( #716 ) ) ;
#266 = EDGE_LOOP ( 'NONE', ( #552, #107 ) ) ;
#267 =( NAMED_UNIT ( * ) PLANE_ANGLE_UNIT ( ) SI_UNIT ( $, .RADIAN. ) );
#268 = CARTESIAN_POINT ( 'NONE',  ( -150.3782165272086786, 1.105483462975656834E-14, 0.000000000000000000 ) ) ;
#269 = VERTEX_POINT ( 'NONE', #429 ) ;
#270 = DIRECTION ( 'NONE',  ( -0.000000000000000000, -1.000000000000000000, -0.000000000000000000 ) ) ;
#271 = PRESENTATION_STYLE_ASSIGNMENT (( #54 ) ) ;
#272 = MECHANICAL_DESIGN_GEOMETRIC_PRESENTATION_REPRESENTATION (  '', ( #369 ), #465 ) ;
#273 = ORIENTED_EDGE ( 'NONE', *, *, #97, .F. ) ;
#274 = COLOUR_RGB ( '',0.000000000000000000, 1.000000000000000000, 0.000000000000000000 ) ;
#275 = STYLED_ITEM ( 'NONE', ( #255 ), #670 ) ;
#276 = SURFACE_SIDE_STYLE ('',( #339 ) ) ;
#277 = DIRECTION ( 'NONE',  ( 1.000000000000000000, 4.046080116786000560E-16, 0.000000000000000000 ) ) ;
#278 = ORIENTED_EDGE ( 'NONE', *, *, #457, .T. ) ;
#279 = UNCERTAINTY_MEASURE_WITH_UNIT (LENGTH_MEASURE( 1.000000000000000082E-05 ), #142, 'distance_accuracy_value', 'NONE');
#280 = CLOSED_SHELL ( 'NONE', ( #695, #104, #72, #21 ) ) ;
#281 =( LENGTH_UNIT ( ) NAMED_UNIT ( * ) SI_UNIT ( .MILLI., .METRE. ) );
#282 = ORIENTED_EDGE ( 'NONE', *, *, #66, .F. ) ;
#283 = PRODUCT_DEFINITION_CONTEXT ( 'detailed design', #417, 'design' ) ;
#284 =( GEOMETRIC_REPRESENTATION_CONTEXT ( 3 ) GLOBAL_UNCERTAINTY_ASSIGNED_CONTEXT ( ( #57 ) ) GLOBAL_UNIT_ASSIGNED_CONTEXT ( ( #367, #634, #35 ) ) REPRESENTATION_CONTEXT ( 'NONE', 'WORKASPACE' ) );
#285 =( GEOMETRIC_REPRESENTATION_CONTEXT ( 3 ) GLOBAL_UNCERTAINTY_ASSIGNED_CONTEXT ( ( #665 ) ) GLOBAL_UNIT_ASSIGNED_CONTEXT ( ( #160, #438, #96 ) ) REPRESENTATION_CONTEXT ( 'NONE', 'WORKASPACE' ) );
#286 =( NAMED_UNIT ( * ) PLANE_ANGLE_UNIT ( ) SI_UNIT ( $, .RADIAN. ) );
#287 = SURFACE_STYLE_FILL_AREA ( #582 ) ;
#288 = MANIFOLD_SOLID_BREP ( 'Split Line2', #280 ) ;
#289 = MANIFOLD_SOLID_BREP ( 'Revolve3', #166 ) ;
#290 = COLOUR_RGB ( '',1.000000000000000000, 0.000000000000000000, 0.000000000000000000 ) ;
#291 = EDGE_CURVE ( 'NONE', #602, #194, #712, .T. ) ;
#292 = DIRECTION ( 'NONE',  ( 4.046080116785987248E-16, 1.000000000000000000, -0.000000000000000000 ) ) ;
#293 = SURFACE_STYLE_USAGE ( .BOTH. , #11 ) ;
#294 = VERTEX_POINT ( 'NONE', #65 ) ;
#295 = MECHANICAL_DESIGN_GEOMETRIC_PRESENTATION_REPRESENTATION (  '', ( #535 ), #158 ) ;
#296 = CARTESIAN_POINT ( 'NONE',  ( 52.95749585036503504, 34.29934011993390897, 0.000000000000000000 ) ) ;
#297 = STYLED_ITEM ( 'NONE', ( #541 ), #411 ) ;
#298 = CIRCLE ( 'NONE', #380, 27.32233250620347320 ) ;
#299 = SURFACE_STYLE_USAGE ( .BOTH. , #81 ) ;
#300 = CARTESIAN_POINT ( 'NONE',  ( -252.3051461046819099, -4.088691596839861464E-16, 0.000000000000000000 ) ) ;
#301 = VECTOR ( 'NONE', #313, 1000.000000000000000 ) ;
#302 = EDGE_CURVE ( 'NONE', #644, #294, #546, .T. ) ;
#303 =( NAMED_UNIT ( * ) SI_UNIT ( $, .STERADIAN. ) SOLID_ANGLE_UNIT ( ) );
#304 = SURFACE_STYLE_FILL_AREA ( #635 ) ;
#305 = DIRECTION ( 'NONE',  ( 1.000000000000000000, 4.046080116786000560E-16, 0.000000000000000000 ) ) ;
#306 = AXIS2_PLACEMENT_3D ( 'NONE', #268, #154, #489 ) ;
#307 = DIRECTION ( 'NONE',  ( 0.000000000000000000, 0.000000000000000000, 1.000000000000000000 ) ) ;
#308 = PRESENTATION_LAYER_ASSIGNMENT (  '', '', ( #207 ) ) ;
#309 = FACE_OUTER_BOUND ( 'NONE', #609, .T. ) ;
#310 = DIRECTION ( 'NONE',  ( 0.000000000000000000, 0.000000000000000000, -1.000000000000000000 ) ) ;
#311 =( NAMED_UNIT ( * ) SI_UNIT ( $, .STERADIAN. ) SOLID_ANGLE_UNIT ( ) );
#312 = EDGE_CURVE ( 'NONE', #172, #600, #390, .T. ) ;
#313 = DIRECTION ( 'NONE',  ( 4.046080116786000560E-16, -1.000000000000000000, -0.000000000000000000 ) ) ;
#314 = CIRCLE ( 'NONE', #254, 17.34688904745910421 ) ;
#315 = CARTESIAN_POINT ( 'NONE',  ( -150.3782165272086786, -4.088691596839861464E-16, 0.000000000000000000 ) ) ;
#316 = DIRECTION ( 'NONE',  ( -1.000000000000000000, -4.046080116785989713E-16, 0.000000000000000000 ) ) ;
#317 = EDGE_LOOP ( 'NONE', ( #384, #56, #330 ) ) ;
#318 = FACE_OUTER_BOUND ( 'NONE', #40, .T. ) ;
#319 = FILL_AREA_STYLE ('',( #597 ) ) ;
#320 = AXIS2_PLACEMENT_3D ( 'NONE', #128, #451, #404 ) ;
#321 = COLOUR_RGB ( '',0.9098039215686274384, 0.4431372549019607643, 0.03137254901960784270 ) ;
#322 = ORIENTED_EDGE ( 'NONE', *, *, #97, .T. ) ;
#323 = CARTESIAN_POINT ( 'NONE',  ( 177.7005490334121589, 34.29934011993392318, 0.000000000000000000 ) ) ;
#324 = DIRECTION ( 'NONE',  ( 0.000000000000000000, 0.000000000000000000, 1.000000000000000000 ) ) ;
#325 = ORIENTED_EDGE ( 'NONE', *, *, #222, .F. ) ;
#326 = PRESENTATION_LAYER_ASSIGNMENT (  '', '', ( #460 ) ) ;
#327 = FILL_AREA_STYLE_COLOUR ( '', #536 ) ;
#328 = ADVANCED_FACE ( 'NONE', ( #580 ), #227, .T. ) ;
#329 = CARTESIAN_POINT ( 'NONE',  ( 52.95749585036503504, 34.29934011993390897, 0.000000000000000000 ) ) ;
#330 = ORIENTED_EDGE ( 'NONE', *, *, #590, .F. ) ;
#331 = SURFACE_STYLE_USAGE ( .BOTH. , #100 ) ;
#332 = ADVANCED_FACE ( 'NONE', ( #511 ), #229, .T. ) ;
#333 = VERTEX_POINT ( 'NONE', #642 ) ;
#334 = STYLED_ITEM ( 'NONE', ( #173 ), #529 ) ;
#335 = DIRECTION ( 'NONE',  ( 0.000000000000000000, 0.000000000000000000, -1.000000000000000000 ) ) ;
#336 = EDGE_CURVE ( 'NONE', #388, #600, #144, .T. ) ;
#337 = UNCERTAINTY_MEASURE_WITH_UNIT (LENGTH_MEASURE( 1.000000000000000082E-05 ), #67, 'distance_accuracy_value', 'NONE');
#338 = AXIS2_PLACEMENT_3D ( 'NONE', #197, #584, #588 ) ;
#339 = SURFACE_STYLE_FILL_AREA ( #183 ) ;
#340 =( LENGTH_UNIT ( ) NAMED_UNIT ( * ) SI_UNIT ( .MILLI., .METRE. ) );
#341 = DIRECTION ( 'NONE',  ( 4.589569346612183611E-17, -0.9271191198431756320, 0.3747667776380602112 ) ) ;
#342 = FILL_AREA_STYLE_COLOUR ( '', #401 ) ;
#343 = CARTESIAN_POINT ( 'NONE',  ( 0.000000000000000000, 0.000000000000000000, 0.000000000000000000 ) ) ;
#344 = STYLED_ITEM ( 'NONE', ( #22 ), #389 ) ;
#345 = PRESENTATION_LAYER_ASSIGNMENT (  '', '', ( #657 ) ) ;
#346 = COLOUR_RGB ( '',0.000000000000000000, 1.000000000000000000, 1.000000000000000000 ) ;
#347 = ADVANCED_FACE ( 'NONE', ( #643 ), #141, .T. ) ;
#348 = DIRECTION ( 'NONE',  ( 1.000000000000000000, 5.079283697562631313E-16, 0.000000000000000000 ) ) ;
#349 = PRESENTATION_STYLE_ASSIGNMENT (( #233 ) ) ;
#350 =( LENGTH_UNIT ( ) NAMED_UNIT ( * ) SI_UNIT ( .MILLI., .METRE. ) );
#351 = PRESENTATION_STYLE_ASSIGNMENT (( #76 ) ) ;
#352 = MECHANICAL_DESIGN_GEOMETRIC_PRESENTATION_REPRESENTATION (  '', ( #460 ), #12 ) ;
#353 = DIRECTION ( 'NONE',  ( 4.046080116785987248E-16, 1.000000000000000000, -0.000000000000000000 ) ) ;
#354 = EDGE_LOOP ( 'NONE', ( #273, #660, #464, #116 ) ) ;
#355 = APPLICATION_PROTOCOL_DEFINITION ( 'draft international standard', 'automotive_design', 1998, #417 ) ;
#356 = CARTESIAN_POINT ( 'NONE',  ( -59.79593872408656097, 67.59152191894128237, 0.000000000000000000 ) ) ;
#357 =( NAMED_UNIT ( * ) SI_UNIT ( $, .STERADIAN. ) SOLID_ANGLE_UNIT ( ) );
#358 = AXIS2_PLACEMENT_3D ( 'NONE', #719, #324, #316 ) ;
#359 = CARTESIAN_POINT ( 'NONE',  ( -224.9828135984784296, 2.210966925951313668E-14, 0.000000000000000000 ) ) ;
#360 = STYLED_ITEM ( 'NONE', ( #271 ), #425 ) ;
#361 = MECHANICAL_DESIGN_GEOMETRIC_PRESENTATION_REPRESENTATION (  '', ( #658 ), #120 ) ;
#362 = SURFACE_SIDE_STYLE ('',( #587 ) ) ;
#363 = DIRECTION ( 'NONE',  ( 1.000000000000000000, 4.046080116786000560E-16, 0.000000000000000000 ) ) ;
#364 = CARTESIAN_POINT ( 'NONE',  ( 177.7005490334121589, 0.000000000000000000, 0.000000000000000000 ) ) ;
#365 =( GEOMETRIC_REPRESENTATION_CONTEXT ( 3 ) GLOBAL_UNCERTAINTY_ASSIGNED_CONTEXT ( ( #443 ) ) GLOBAL_UNIT_ASSIGNED_CONTEXT ( ( #178, #627, #405 ) ) REPRESENTATION_CONTEXT ( 'NONE', 'WORKASPACE' ) );
#366 = SURFACE_STYLE_FILL_AREA ( #418 ) ;
#367 =( LENGTH_UNIT ( ) NAMED_UNIT ( * ) SI_UNIT ( .MILLI., .METRE. ) );
#368 = SURFACE_STYLE_USAGE ( .BOTH. , #539 ) ;
#369 = STYLED_ITEM ( 'NONE', ( #507 ), #328 ) ;
#370 = AXIS2_PLACEMENT_3D ( 'NONE', #243, #421, #90 ) ;
#371 = DIRECTION ( 'NONE',  ( 1.000000000000000000, 4.046080116786000560E-16, 0.000000000000000000 ) ) ;
#372 =( NAMED_UNIT ( * ) PLANE_ANGLE_UNIT ( ) SI_UNIT ( $, .RADIAN. ) );
#373 = FILL_AREA_STYLE_COLOUR ( '', #118 ) ;
#374 = AXIS2_PLACEMENT_3D ( 'NONE', #31, #98, #534 ) ;
#375 = SURFACE_STYLE_FILL_AREA ( #494 ) ;
#376 = EDGE_LOOP ( 'NONE', ( #504, #63 ) ) ;
#377 =( NAMED_UNIT ( * ) SI_UNIT ( $, .STERADIAN. ) SOLID_ANGLE_UNIT ( ) );
#378 = CARTESIAN_POINT ( 'NONE',  ( -150.3782165272086786, 1.105483462975656834E-14, 0.000000000000000000 ) ) ;
#379 =( GEOMETRIC_REPRESENTATION_CONTEXT ( 3 ) GLOBAL_UNCERTAINTY_ASSIGNED_CONTEXT ( ( #221 ) ) GLOBAL_UNIT_ASSIGNED_CONTEXT ( ( #548, #267, #479 ) ) REPRESENTATION_CONTEXT ( 'NONE', 'WORKASPACE' ) );
#380 = AXIS2_PLACEMENT_3D ( 'NONE', #251, #523, #26 ) ;
#381 = ORIENTED_EDGE ( 'NONE', *, *, #448, .T. ) ;
#382 = DIRECTION ( 'NONE',  ( 1.000000000000000000, 4.046080116786000560E-16, 0.000000000000000000 ) ) ;
#383 = CARTESIAN_POINT ( 'NONE',  ( 0.000000000000000000, -3.469446951953614189E-15, 0.000000000000000000 ) ) ;
#384 = ORIENTED_EDGE ( 'NONE', *, *, #336, .F. ) ;
#385 = PRESENTATION_LAYER_ASSIGNMENT (  '', '', ( #85 ) ) ;
#386 = DIRECTION ( 'NONE',  ( 1.000000000000000000, 5.079283697562631313E-16, 0.000000000000000000 ) ) ;
#387 = DIRECTION ( 'NONE',  ( -1.000000000000000000, 0.000000000000000000, 0.000000000000000000 ) ) ;
#388 = VERTEX_POINT ( 'NONE', #583 ) ;
#389 = ADVANCED_FACE ( 'NONE', ( #80 ), #611, .T. ) ;
#390 = CIRCLE ( 'NONE', #58, 27.32233250620347320 ) ;
#391 = ORIENTED_EDGE ( 'NONE', *, *, #709, .T. ) ;
#392 = AXIS2_PLACEMENT_3D ( 'NONE', #315, #162, #382 ) ;
#393 = MECHANICAL_DESIGN_GEOMETRIC_PRESENTATION_REPRESENTATION (  '', ( #207 ), #715 ) ;
#394 = DIRECTION ( 'NONE',  ( 1.000000000000000000, 4.046080116786000560E-16, 0.000000000000000000 ) ) ;
#395 = DIRECTION ( 'NONE',  ( 4.046080116786000560E-16, -1.000000000000000000, -0.000000000000000000 ) ) ;
#396 = FILL_AREA_STYLE_COLOUR ( '', #49 ) ;
#397 = SURFACE_STYLE_USAGE ( .BOTH. , #276 ) ;
#398 = SURFACE_STYLE_USAGE ( .BOTH. , #461 ) ;
#399 = FACE_OUTER_BOUND ( 'NONE', #212, .T. ) ;
#400 = CIRCLE ( 'NONE', #306, 27.32233250620347320 ) ;
#401 = COLOUR_RGB ( '',0.9098039215686274384, 0.4431372549019607643, 0.03137254901960784270 ) ;
#402 = TOROIDAL_SURFACE ( 'NONE', #527, 33.41787314310669643, 17.34688904745910421 ) ;
#403 = FILL_AREA_STYLE ('',( #342 ) ) ;
#404 = DIRECTION ( 'NONE',  ( -1.000000000000000000, 4.317653394844966192E-16, 0.000000000000000000 ) ) ;
#405 =( NAMED_UNIT ( * ) SI_UNIT ( $, .STERADIAN. ) SOLID_ANGLE_UNIT ( ) );
#406 = FACE_OUTER_BOUND ( 'NONE', #544, .T. ) ;
#407 = COLOUR_RGB ( '',0.000000000000000000, 1.000000000000000000, 1.000000000000000000 ) ;
#408 = PLANE ( 'NONE',  #662 ) ;
#409 = DIRECTION ( 'NONE',  ( 0.000000000000000000, -0.000000000000000000, -1.000000000000000000 ) ) ;
#410 = SURFACE_SIDE_STYLE ('',( #528 ) ) ;
#411 = ADVANCED_FACE ( 'NONE', ( #199 ), #555, .T. ) ;
#412 =( LENGTH_UNIT ( ) NAMED_UNIT ( * ) SI_UNIT ( .MILLI., .METRE. ) );
#413 =( GEOMETRIC_REPRESENTATION_CONTEXT ( 3 ) GLOBAL_UNCERTAINTY_ASSIGNED_CONTEXT ( ( #615 ) ) GLOBAL_UNIT_ASSIGNED_CONTEXT ( ( #556, #651, #115 ) ) REPRESENTATION_CONTEXT ( 'NONE', 'WORKASPACE' ) );
#414 = FACE_OUTER_BOUND ( 'NONE', #706, .T. ) ;
#415 = VECTOR ( 'NONE', #444, 1000.000000000000000 ) ;
#416 = CONICAL_SURFACE ( 'NONE', #187, 404.2272126816378659, 0.3841452057184321367 ) ;
#417 = APPLICATION_CONTEXT ( 'automotive_design' ) ;
#418 = FILL_AREA_STYLE ('',( #424 ) ) ;
#419 = PRESENTATION_STYLE_ASSIGNMENT (( #88 ) ) ;
#420 = STYLED_ITEM ( 'NONE', ( #28 ), #72 ) ;
#421 = DIRECTION ( 'NONE',  ( 4.046080116785987248E-16, 1.000000000000000000, -0.000000000000000000 ) ) ;
#422 =( NAMED_UNIT ( * ) PLANE_ANGLE_UNIT ( ) SI_UNIT ( $, .RADIAN. ) );
#423 =( LENGTH_UNIT ( ) NAMED_UNIT ( * ) SI_UNIT ( .MILLI., .METRE. ) );
#424 = FILL_AREA_STYLE_COLOUR ( '', #650 ) ;
#425 = ADVANCED_FACE ( 'NONE', ( #599 ), #585, .T. ) ;
#426 = STYLED_ITEM ( 'NONE', ( #533 ), #347 ) ;
#427 = AXIS2_PLACEMENT_3D ( 'NONE', #668, #616, #305 ) ;
#428 = DIRECTION ( 'NONE',  ( -1.000000000000000000, 4.046080116785987741E-16, 0.000000000000000000 ) ) ;
#429 = CARTESIAN_POINT ( 'NONE',  ( -177.7005490334121589, 0.000000000000000000, 3.346020704896173044E-15 ) ) ;
#430 =( LENGTH_UNIT ( ) NAMED_UNIT ( * ) SI_UNIT ( .MILLI., .METRE. ) );
#431 = SURFACE_STYLE_FILL_AREA ( #112 ) ;
#432 = PLANE ( 'NONE',  #180 ) ;
#433 = CIRCLE ( 'NONE', #374, 17.34688904745909710 ) ;
#434 = ORIENTED_EDGE ( 'NONE', *, *, #581, .T. ) ;
#435 = SURFACE_SIDE_STYLE ('',( #256 ) ) ;
#436 = EDGE_CURVE ( 'NONE', #652, #673, #68, .T. ) ;
#437 = ORIENTED_EDGE ( 'NONE', *, *, #167, .F. ) ;
#438 =( NAMED_UNIT ( * ) PLANE_ANGLE_UNIT ( ) SI_UNIT ( $, .RADIAN. ) );
#439 = MECHANICAL_DESIGN_GEOMETRIC_PRESENTATION_REPRESENTATION (  '', ( #344 ), #284 ) ;
#440 = MECHANICAL_DESIGN_GEOMETRIC_PRESENTATION_REPRESENTATION (  '', ( #657 ), #645 ) ;
#441 = AXIS2_PLACEMENT_3D ( 'NONE', #168, #75, #188 ) ;
#442 = EDGE_LOOP ( 'NONE', ( #103, #325, #381, #550 ) ) ;
#443 = UNCERTAINTY_MEASURE_WITH_UNIT (LENGTH_MEASURE( 1.000000000000000082E-05 ), #178, 'distance_accuracy_value', 'NONE');
#444 = DIRECTION ( 'NONE',  ( -4.046080116786000560E-16, 1.000000000000000000, 0.000000000000000000 ) ) ;
#445 = CARTESIAN_POINT ( 'NONE',  ( 19.53962270725834216, 34.29934011993392318, 0.000000000000000000 ) ) ;
#446 = EDGE_LOOP ( 'NONE', ( #717, #458 ) ) ;
#447 = CIRCLE ( 'NONE', #531, 27.32233250620341636 ) ;
#448 = EDGE_CURVE ( 'NONE', #194, #602, #262, .T. ) ;
#449 = VERTEX_POINT ( 'NONE', #50 ) ;
#450 = SURFACE_SIDE_STYLE ('',( #226 ) ) ;
#451 = DIRECTION ( 'NONE',  ( 4.046080116785987248E-16, 1.000000000000000000, -0.000000000000000000 ) ) ;
#452 = MECHANICAL_DESIGN_GEOMETRIC_PRESENTATION_REPRESENTATION (  '', ( #679 ), #175 ) ;
#453 = VERTEX_POINT ( 'NONE', #208 ) ;
#454 = AXIS2_PLACEMENT_3D ( 'NONE', #300, #459, #19 ) ;
#455 =( NAMED_UNIT ( * ) SI_UNIT ( $, .STERADIAN. ) SOLID_ANGLE_UNIT ( ) );
#456 = FILL_AREA_STYLE ('',( #8 ) ) ;
#457 = EDGE_CURVE ( 'NONE', #182, #333, #44, .T. ) ;
#458 = ORIENTED_EDGE ( 'NONE', *, *, #89, .F. ) ;
#459 = DIRECTION ( 'NONE',  ( 4.046080116786000560E-16, -1.000000000000000000, -0.000000000000000000 ) ) ;
#460 = STYLED_ITEM ( 'NONE', ( #568 ), #52 ) ;
#461 = SURFACE_SIDE_STYLE ('',( #516 ) ) ;
#462 = EDGE_CURVE ( 'NONE', #619, #491, #508, .T. ) ;
#463 = LINE ( 'NONE', #126, #476 ) ;
#464 = ORIENTED_EDGE ( 'NONE', *, *, #66, .T. ) ;
#465 =( GEOMETRIC_REPRESENTATION_CONTEXT ( 3 ) GLOBAL_UNCERTAINTY_ASSIGNED_CONTEXT ( ( #165 ) ) GLOBAL_UNIT_ASSIGNED_CONTEXT ( ( #340, #286, #675 ) ) REPRESENTATION_CONTEXT ( 'NONE', 'WORKASPACE' ) );
#466 = AXIS2_PLACEMENT_3D ( 'NONE', #210, #129, #348 ) ;
#467 = EDGE_CURVE ( 'NONE', #449, #269, #493, .T. ) ;
#468 =( NAMED_UNIT ( * ) PLANE_ANGLE_UNIT ( ) SI_UNIT ( $, .RADIAN. ) );
#469 = CARTESIAN_POINT ( 'NONE',  ( -224.9828135984784581, 1.064596547007257179E-14, 0.000000000000000000 ) ) ;
#470 = CARTESIAN_POINT ( 'NONE',  ( 177.7005490334121589, 34.29934011993392318, 0.000000000000000000 ) ) ;
#471 = DIRECTION ( 'NONE',  ( 4.046080116786000560E-16, -1.000000000000000000, -0.000000000000000000 ) ) ;
#472 = AXIS2_PLACEMENT_3D ( 'NONE', #134, #307, #87 ) ;
#473 = COLOUR_RGB ( '',0.9098039215686274384, 0.4431372549019607643, 0.03137254901960784270 ) ;
#474 =( NAMED_UNIT ( * ) PLANE_ANGLE_UNIT ( ) SI_UNIT ( $, .RADIAN. ) );
#475 = CARTESIAN_POINT ( 'NONE',  ( -59.79593872408656097, -6.938893903907228378E-15, -27.32233250620347320 ) ) ;
#476 = VECTOR ( 'NONE', #341, 1000.000000000000227 ) ;
#477 = FILL_AREA_STYLE ('',( #27 ) ) ;
#478 = FACE_OUTER_BOUND ( 'NONE', #62, .T. ) ;
#479 =( NAMED_UNIT ( * ) SI_UNIT ( $, .STERADIAN. ) SOLID_ANGLE_UNIT ( ) );
#480 = CARTESIAN_POINT ( 'NONE',  ( -252.3051461046819099, 1.105483462975656834E-14, 0.000000000000000000 ) ) ;
#481 = EDGE_CURVE ( 'NONE', #453, #491, #637, .T. ) ;
#482 = COLOUR_RGB ( '',0.9098039215686274384, 0.4431372549019607643, 0.03137254901960784270 ) ;
#483 = DIRECTION ( 'NONE',  ( 1.000000000000000000, 0.000000000000000000, 1.224646799147353700E-16 ) ) ;
#484 = ORIENTED_EDGE ( 'NONE', *, *, #486, .F. ) ;
#485 = CYLINDRICAL_SURFACE ( 'NONE', #454, 27.32233250620344478 ) ;
#486 = EDGE_CURVE ( 'NONE', #491, #453, #671, .T. ) ;
#487 = DIRECTION ( 'NONE',  ( 4.046080116786000560E-16, -1.000000000000000000, -0.000000000000000000 ) ) ;
#488 = AXIS2_PLACEMENT_3D ( 'NONE', #480, #697, #663 ) ;
#489 = DIRECTION ( 'NONE',  ( 1.000000000000000000, 4.046080116786000560E-16, 0.000000000000000000 ) ) ;
#490 = MECHANICAL_DESIGN_GEOMETRIC_PRESENTATION_REPRESENTATION (  '', ( #620 ), #540 ) ;
#491 = VERTEX_POINT ( 'NONE', #520 ) ;
#492 = FILL_AREA_STYLE ('',( #703 ) ) ;
#493 = LINE ( 'NONE', #213, #238 ) ;
#494 = FILL_AREA_STYLE ('',( #373 ) ) ;
#495 = ORIENTED_EDGE ( 'NONE', *, *, #457, .F. ) ;
#496 = DIRECTION ( 'NONE',  ( 4.046080116786000560E-16, -1.000000000000000000, -0.000000000000000000 ) ) ;
#497 = DIRECTION ( 'NONE',  ( 4.046080116785987248E-16, 1.000000000000000000, -0.000000000000000000 ) ) ;
#498 = MECHANICAL_DESIGN_GEOMETRIC_PRESENTATION_REPRESENTATION (  '', ( #360 ), #379 ) ;
#499 = DIRECTION ( 'NONE',  ( 0.000000000000000000, 1.000000000000000000, 0.000000000000000000 ) ) ;
#500 = ORIENTED_EDGE ( 'NONE', *, *, #467, .F. ) ;
#501 = UNCERTAINTY_MEASURE_WITH_UNIT (LENGTH_MEASURE( 1.000000000000000082E-05 ), #661, 'distance_accuracy_value', 'NONE');
#502 = PRODUCT_DEFINITION_SHAPE ( 'NONE', 'NONE',  #247 ) ;
#503 = MECHANICAL_DESIGN_GEOMETRIC_PRESENTATION_REPRESENTATION (  '', ( #192 ), #413 ) ;
#504 = ORIENTED_EDGE ( 'NONE', *, *, #613, .F. ) ;
#505 = AXIS2_PLACEMENT_3D ( 'NONE', #219, #156, #598 ) ;
#506 =( LENGTH_UNIT ( ) NAMED_UNIT ( * ) SI_UNIT ( .MILLI., .METRE. ) );
#507 = PRESENTATION_STYLE_ASSIGNMENT (( #132 ) ) ;
#508 = LINE ( 'NONE', #649, #415 ) ;
#509 = UNCERTAINTY_MEASURE_WITH_UNIT (LENGTH_MEASURE( 1.000000000000000082E-05 ), #430, 'distance_accuracy_value', 'NONE');
#510 = CARTESIAN_POINT ( 'NONE',  ( 5.226482373249980788E-13, 68.59868023986780372, 0.000000000000000000 ) ) ;
#511 = FACE_OUTER_BOUND ( 'NONE', #317, .T. ) ;
#512 =( NAMED_UNIT ( * ) PLANE_ANGLE_UNIT ( ) SI_UNIT ( $, .RADIAN. ) );
#513 =( GEOMETRIC_REPRESENTATION_CONTEXT ( 3 ) GLOBAL_UNCERTAINTY_ASSIGNED_CONTEXT ( ( #337 ) ) GLOBAL_UNIT_ASSIGNED_CONTEXT ( ( #67, #575, #455 ) ) REPRESENTATION_CONTEXT ( 'NONE', 'WORKASPACE' ) );
#514 = PRESENTATION_LAYER_ASSIGNMENT (  '', '', ( #275 ) ) ;
#515 = ADVANCED_FACE ( 'NONE', ( #621 ), #674, .F. ) ;
#516 = SURFACE_STYLE_FILL_AREA ( #456 ) ;
#517 = ORIENTED_EDGE ( 'NONE', *, *, #189, .F. ) ;
#518 = UNCERTAINTY_MEASURE_WITH_UNIT (LENGTH_MEASURE( 1.000000000000000082E-05 ), #506, 'distance_accuracy_value', 'NONE');
#519 = CIRCLE ( 'NONE', #488, 27.32233250620347320 ) ;
#520 = CARTESIAN_POINT ( 'NONE',  ( -279.6274786108853050, 68.59868023986784635, 0.000000000000000000 ) ) ;
#521 = FILL_AREA_STYLE ('',( #14 ) ) ;
#522 = ORIENTED_EDGE ( 'NONE', *, *, #545, .T. ) ;
#523 = DIRECTION ( 'NONE',  ( -0.000000000000000000, -1.000000000000000000, -0.000000000000000000 ) ) ;
#524 = SURFACE_STYLE_FILL_AREA ( #630 ) ;
#525 = ORIENTED_EDGE ( 'NONE', *, *, #462, .T. ) ;
#526 = MECHANICAL_DESIGN_GEOMETRIC_PRESENTATION_REPRESENTATION (  '', ( #426 ), #7 ) ;
#527 = AXIS2_PLACEMENT_3D ( 'NONE', #638, #140, #686 ) ;
#528 = SURFACE_STYLE_FILL_AREA ( #477 ) ;
#529 = MANIFOLD_SOLID_BREP ( 'Revolve1', #577 ) ;
#530 = DIRECTION ( 'NONE',  ( 1.000000000000000000, 5.079283697562631313E-16, 0.000000000000000000 ) ) ;
#531 = AXIS2_PLACEMENT_3D ( 'NONE', #592, #471, #530 ) ;
#532 = DIRECTION ( 'NONE',  ( -1.000000000000000000, 0.000000000000000000, 0.000000000000000000 ) ) ;
#533 = PRESENTATION_STYLE_ASSIGNMENT (( #137 ) ) ;
#534 = DIRECTION ( 'NONE',  ( 1.000000000000000000, 0.000000000000000000, 1.224646799147353700E-16 ) ) ;
#535 = STYLED_ITEM ( 'NONE', ( #265 ), #288 ) ;
#536 = COLOUR_RGB ( '',1.000000000000000000, 1.000000000000000000, 0.000000000000000000 ) ;
#537 = MANIFOLD_SOLID_BREP ( 'Revolve4', #37 ) ;
#538 =( NAMED_UNIT ( * ) PLANE_ANGLE_UNIT ( ) SI_UNIT ( $, .RADIAN. ) );
#539 = SURFACE_SIDE_STYLE ('',( #258 ) ) ;
#540 =( GEOMETRIC_REPRESENTATION_CONTEXT ( 3 ) GLOBAL_UNCERTAINTY_ASSIGNED_CONTEXT ( ( #279 ) ) GLOBAL_UNIT_ASSIGNED_CONTEXT ( ( #142, #422, #36 ) ) REPRESENTATION_CONTEXT ( 'NONE', 'WORKASPACE' ) );
#541 = PRESENTATION_STYLE_ASSIGNMENT (( #102 ) ) ;
#542 = FILL_AREA_STYLE_COLOUR ( '', #290 ) ;
#543 = SURFACE_SIDE_STYLE ('',( #707 ) ) ;
#544 = EDGE_LOOP ( 'NONE', ( #282, #434, #322, #562 ) ) ;
#545 = EDGE_CURVE ( 'NONE', #664, #619, #714, .T. ) ;
#546 = CIRCLE ( 'NONE', #91, 50.76476219056579708 ) ;
#547 = PRESENTATION_LAYER_ASSIGNMENT (  '', '', ( #360 ) ) ;
#548 =( LENGTH_UNIT ( ) NAMED_UNIT ( * ) SI_UNIT ( .MILLI., .METRE. ) );
#549 = DIRECTION ( 'NONE',  ( 4.046080116786000560E-16, -1.000000000000000000, -0.000000000000000000 ) ) ;
#550 = ORIENTED_EDGE ( 'NONE', *, *, #167, .T. ) ;
#551 = DIRECTION ( 'NONE',  ( -1.000000000000000000, 4.317653394844966192E-16, 0.000000000000000000 ) ) ;
#552 = ORIENTED_EDGE ( 'NONE', *, *, #189, .T. ) ;
#553 = UNCERTAINTY_MEASURE_WITH_UNIT (LENGTH_MEASURE( 1.000000000000000082E-05 ), #579, 'distance_accuracy_value', 'NONE');
#554 = SURFACE_SIDE_STYLE ('',( #696 ) ) ;
#555 = CYLINDRICAL_SURFACE ( 'NONE', #392, 27.32233250620344478 ) ;
#556 =( LENGTH_UNIT ( ) NAMED_UNIT ( * ) SI_UNIT ( .MILLI., .METRE. ) );
#557 = ORIENTED_EDGE ( 'NONE', *, *, #61, .F. ) ;
#558 = MECHANICAL_DESIGN_GEOMETRIC_PRESENTATION_REPRESENTATION (  '', ( #260 ), #669 ) ;
#559 = MECHANICAL_DESIGN_GEOMETRIC_PRESENTATION_REPRESENTATION (  '', ( #216 ), #159 ) ;
#560 = FACE_OUTER_BOUND ( 'NONE', #209, .T. ) ;
#561 = AXIS2_PLACEMENT_3D ( 'NONE', #586, #292, #34 ) ;
#562 = ORIENTED_EDGE ( 'NONE', *, *, #291, .F. ) ;
#563 = UNCERTAINTY_MEASURE_WITH_UNIT (LENGTH_MEASURE( 1.000000000000000082E-05 ), #412, 'distance_accuracy_value', 'NONE');
#564 =( NAMED_UNIT ( * ) PLANE_ANGLE_UNIT ( ) SI_UNIT ( $, .RADIAN. ) );
#565 = FILL_AREA_STYLE_COLOUR ( '', #195 ) ;
#566 = ORIENTED_EDGE ( 'NONE', *, *, #61, .T. ) ;
#567 = PRESENTATION_LAYER_ASSIGNMENT (  '', '', ( #192 ) ) ;
#568 = PRESENTATION_STYLE_ASSIGNMENT (( #676 ) ) ;
#569 = ADVANCED_FACE ( 'NONE', ( #406 ), #601, .T. ) ;
#570 = COLOUR_RGB ( '',0.000000000000000000, 1.000000000000000000, 0.000000000000000000 ) ;
#571 = SURFACE_STYLE_FILL_AREA ( #521 ) ;
#572 = EDGE_LOOP ( 'NONE', ( #500, #631, #278, #220 ) ) ;
#573 =( NAMED_UNIT ( * ) PLANE_ANGLE_UNIT ( ) SI_UNIT ( $, .RADIAN. ) );
#574 = AXIS2_PLACEMENT_3D ( 'NONE', #510, #395, #610 ) ;
#575 =( NAMED_UNIT ( * ) PLANE_ANGLE_UNIT ( ) SI_UNIT ( $, .RADIAN. ) );
#576 =( LENGTH_UNIT ( ) NAMED_UNIT ( * ) SI_UNIT ( .MILLI., .METRE. ) );
#577 = CLOSED_SHELL ( 'NONE', ( #411, #328, #670, #515 ) ) ;
#578 = AXIS2_PLACEMENT_3D ( 'NONE', #257, #147, #371 ) ;
#579 =( LENGTH_UNIT ( ) NAMED_UNIT ( * ) SI_UNIT ( .MILLI., .METRE. ) );
#580 = FACE_OUTER_BOUND ( 'NONE', #572, .T. ) ;
#581 = EDGE_CURVE ( 'NONE', #294, #644, #700, .T. ) ;
#582 = FILL_AREA_STYLE ('',( #70 ) ) ;
#583 = CARTESIAN_POINT ( 'NONE',  ( -59.79593872408656097, 67.59152191894128237, 0.000000000000000000 ) ) ;
#584 = DIRECTION ( 'NONE',  ( -0.000000000000000000, 0.000000000000000000, -1.000000000000000000 ) ) ;
#585 = TOROIDAL_SURFACE ( 'NONE', #17, 33.41787314310669643, 17.34688904745910421 ) ;
#586 = CARTESIAN_POINT ( 'NONE',  ( 52.95749585036503504, 34.29934011993390897, 0.000000000000000000 ) ) ;
#587 = SURFACE_STYLE_FILL_AREA ( #693 ) ;
#588 = DIRECTION ( 'NONE',  ( -1.000000000000000000, 0.000000000000000000, 0.000000000000000000 ) ) ;
#589 = FILL_AREA_STYLE ('',( #83 ) ) ;
#590 = EDGE_CURVE ( 'NONE', #600, #172, #298, .T. ) ;
#591 =( NAMED_UNIT ( * ) PLANE_ANGLE_UNIT ( ) SI_UNIT ( $, .RADIAN. ) );
#592 = CARTESIAN_POINT ( 'NONE',  ( -150.3782165272087070, 68.59868023986786056, 0.000000000000000000 ) ) ;
#593 = COLOUR_RGB ( '',0.000000000000000000, 1.000000000000000000, 0.000000000000000000 ) ;
#594 = CARTESIAN_POINT ( 'NONE',  ( -59.79593872408656097, -932.4084780810587745, 0.000000000000000000 ) ) ;
#595 =( LENGTH_UNIT ( ) NAMED_UNIT ( * ) SI_UNIT ( .MILLI., .METRE. ) );
#596 =( NAMED_UNIT ( * ) SI_UNIT ( $, .STERADIAN. ) SOLID_ANGLE_UNIT ( ) );
#597 = FILL_AREA_STYLE_COLOUR ( '', #274 ) ;
#598 = DIRECTION ( 'NONE',  ( 1.000000000000000000, 0.000000000000000000, 1.224646799147353700E-16 ) ) ;
#599 = FACE_OUTER_BOUND ( 'NONE', #354, .T. ) ;
#600 = VERTEX_POINT ( 'NONE', #475 ) ;
#601 = TOROIDAL_SURFACE ( 'NONE', #561, 33.41787314310669643, 17.34688904745910421 ) ;
#602 = VERTEX_POINT ( 'NONE', #641 ) ;
#603 = FILL_AREA_STYLE ('',( #327 ) ) ;
#604 = DIRECTION ( 'NONE',  ( -0.000000000000000000, 0.000000000000000000, -1.000000000000000000 ) ) ;
#605 = ORIENTED_EDGE ( 'NONE', *, *, #590, .T. ) ;
#606 = UNCERTAINTY_MEASURE_WITH_UNIT (LENGTH_MEASURE( 1.000000000000000082E-05 ), #73, 'distance_accuracy_value', 'NONE');
#607 =( NAMED_UNIT ( * ) PLANE_ANGLE_UNIT ( ) SI_UNIT ( $, .RADIAN. ) );
#608 = FILL_AREA_STYLE ('',( #171 ) ) ;
#609 = EDGE_LOOP ( 'NONE', ( #224, #164, #557, #111 ) ) ;
#610 = DIRECTION ( 'NONE',  ( 1.000000000000000000, 4.046080116786000560E-16, 0.000000000000000000 ) ) ;
#611 = TOROIDAL_SURFACE ( 'NONE', #370, 33.41787314310669643, 17.34688904745910421 ) ;
#612 = CARTESIAN_POINT ( 'NONE',  ( 52.95749585036503504, 34.29934011993390897, 0.000000000000000000 ) ) ;
#613 = EDGE_CURVE ( 'NONE', #652, #673, #148, .T. ) ;
#614 = ORIENTED_EDGE ( 'NONE', *, *, #39, .F. ) ;
#615 = UNCERTAINTY_MEASURE_WITH_UNIT (LENGTH_MEASURE( 1.000000000000000082E-05 ), #556, 'distance_accuracy_value', 'NONE');
#616 = DIRECTION ( 'NONE',  ( 4.046080116786000560E-16, -1.000000000000000000, -0.000000000000000000 ) ) ;
#617 = PRESENTATION_STYLE_ASSIGNMENT (( #293 ) ) ;
#618 = ADVANCED_FACE ( 'NONE', ( #414 ), #402, .T. ) ;
#619 = VERTEX_POINT ( 'NONE', #241 ) ;
#620 = STYLED_ITEM ( 'NONE', ( #84 ), #104 ) ;
#621 = FACE_OUTER_BOUND ( 'NONE', #446, .T. ) ;
#622 = DIRECTION ( 'NONE',  ( 4.046080116786000560E-16, -1.000000000000000000, -0.000000000000000000 ) ) ;
#623 = SURFACE_SIDE_STYLE ('',( #228 ) ) ;
#624 =( NAMED_UNIT ( * ) SI_UNIT ( $, .STERADIAN. ) SOLID_ANGLE_UNIT ( ) );
#625 =( NAMED_UNIT ( * ) SI_UNIT ( $, .STERADIAN. ) SOLID_ANGLE_UNIT ( ) );
#626 = PRESENTATION_STYLE_ASSIGNMENT (( #398 ) ) ;
#627 =( NAMED_UNIT ( * ) PLANE_ANGLE_UNIT ( ) SI_UNIT ( $, .RADIAN. ) );
#628 =( GEOMETRIC_REPRESENTATION_CONTEXT ( 3 ) GLOBAL_UNCERTAINTY_ASSIGNED_CONTEXT ( ( #117 ) ) GLOBAL_UNIT_ASSIGNED_CONTEXT ( ( #53, #372, #596 ) ) REPRESENTATION_CONTEXT ( 'NONE', 'WORKASPACE' ) );
#629 = SURFACE_STYLE_USAGE ( .BOTH. , #127 ) ;
#630 = FILL_AREA_STYLE ('',( #565 ) ) ;
#631 = ORIENTED_EDGE ( 'NONE', *, *, #89, .T. ) ;
#632 = PRODUCT_CONTEXT ( 'NONE', #143, 'mechanical' ) ;
#633 = CIRCLE ( 'NONE', #200, 27.32233250620347320 ) ;
#634 =( NAMED_UNIT ( * ) PLANE_ANGLE_UNIT ( ) SI_UNIT ( $, .RADIAN. ) );
#635 = FILL_AREA_STYLE ('',( #542 ) ) ;
#636 = PRESENTATION_LAYER_ASSIGNMENT (  '', '', ( #426 ) ) ;
#637 = CIRCLE ( 'NONE', #206, 27.32233250620341636 ) ;
#638 = CARTESIAN_POINT ( 'NONE',  ( 52.95749585036503504, 34.29934011993390897, 0.000000000000000000 ) ) ;
#639 = DIRECTION ( 'NONE',  ( -0.000000000000000000, -1.000000000000000000, -0.000000000000000000 ) ) ;
#640 = COLOUR_RGB ( '',1.000000000000000000, 0.000000000000000000, 0.000000000000000000 ) ;
#641 = CARTESIAN_POINT ( 'NONE',  ( 69.02847994601263792, 34.29934011993390897, 1.968127923188285354E-15 ) ) ;
#642 = CARTESIAN_POINT ( 'NONE',  ( -123.0558840210051983, 2.210966925951313668E-14, 0.000000000000000000 ) ) ;
#643 = FACE_OUTER_BOUND ( 'NONE', #376, .T. ) ;
#644 = VERTEX_POINT ( 'NONE', #136 ) ;
#645 =( GEOMETRIC_REPRESENTATION_CONTEXT ( 3 ) GLOBAL_UNCERTAINTY_ASSIGNED_CONTEXT ( ( #64 ) ) GLOBAL_UNIT_ASSIGNED_CONTEXT ( ( #678, #564, #185 ) ) REPRESENTATION_CONTEXT ( 'NONE', 'WORKASPACE' ) );
#646 = FILL_AREA_STYLE_COLOUR ( '', #473 ) ;
#647 = MECHANICAL_DESIGN_GEOMETRIC_PRESENTATION_REPRESENTATION (  '', ( #94 ), #82 ) ;
#648 = CARTESIAN_POINT ( 'NONE',  ( 52.95749585036503504, 34.29934011993390897, 0.000000000000000000 ) ) ;
#649 = CARTESIAN_POINT ( 'NONE',  ( -279.6274786108853050, -1.146370378944054438E-14, 0.000000000000000000 ) ) ;
#650 = COLOUR_RGB ( '',1.000000000000000000, 0.000000000000000000, 0.000000000000000000 ) ;
#651 =( NAMED_UNIT ( * ) PLANE_ANGLE_UNIT ( ) SI_UNIT ( $, .RADIAN. ) );
#652 = VERTEX_POINT ( 'NONE', #364 ) ;
#653 =( NAMED_UNIT ( * ) SI_UNIT ( $, .STERADIAN. ) SOLID_ANGLE_UNIT ( ) );
#654 = CARTESIAN_POINT ( 'NONE',  ( -123.0558840210052836, 68.59868023986787477, 0.000000000000000000 ) ) ;
#655 = ORIENTED_EDGE ( 'NONE', *, *, #467, .T. ) ;
#656 = UNCERTAINTY_MEASURE_WITH_UNIT (LENGTH_MEASURE( 1.000000000000000082E-05 ), #595, 'distance_accuracy_value', 'NONE');
#657 = STYLED_ITEM ( 'NONE', ( #236 ), #537 ) ;
#658 = STYLED_ITEM ( 'NONE', ( #351 ), #618 ) ;
#659 = CARTESIAN_POINT ( 'NONE',  ( -59.79593872408656097, -6.938893903907228378E-15, 27.32233250620347320 ) ) ;
#660 = ORIENTED_EDGE ( 'NONE', *, *, #302, .T. ) ;
#661 =( LENGTH_UNIT ( ) NAMED_UNIT ( * ) SI_UNIT ( .MILLI., .METRE. ) );
#662 = AXIS2_PLACEMENT_3D ( 'NONE', #235, #10, #394 ) ;
#663 = DIRECTION ( 'NONE',  ( 1.000000000000000000, 4.046080116786000560E-16, 0.000000000000000000 ) ) ;
#664 = VERTEX_POINT ( 'NONE', #359 ) ;
#665 = UNCERTAINTY_MEASURE_WITH_UNIT (LENGTH_MEASURE( 1.000000000000000082E-05 ), #160, 'distance_accuracy_value', 'NONE');
#666 =( NAMED_UNIT ( * ) PLANE_ANGLE_UNIT ( ) SI_UNIT ( $, .RADIAN. ) );
#667 = ORIENTED_EDGE ( 'NONE', *, *, #222, .T. ) ;
#668 = CARTESIAN_POINT ( 'NONE',  ( -252.3051461046819099, 1.105483462975656834E-14, 0.000000000000000000 ) ) ;
#669 =( GEOMETRIC_REPRESENTATION_CONTEXT ( 3 ) GLOBAL_UNCERTAINTY_ASSIGNED_CONTEXT ( ( #606 ) ) GLOBAL_UNIT_ASSIGNED_CONTEXT ( ( #73, #474, #311 ) ) REPRESENTATION_CONTEXT ( 'NONE', 'WORKASPACE' ) );
#670 = ADVANCED_FACE ( 'NONE', ( #86 ), #198, .T. ) ;
#671 = CIRCLE ( 'NONE', #466, 27.32233250620341636 ) ;
#672 = CARTESIAN_POINT ( 'NONE',  ( -150.3782165272086786, -4.088691596839861464E-16, 0.000000000000000000 ) ) ;
#673 = VERTEX_POINT ( 'NONE', #108 ) ;
#674 = PLANE ( 'NONE',  #574 ) ;
#675 =( NAMED_UNIT ( * ) SI_UNIT ( $, .STERADIAN. ) SOLID_ANGLE_UNIT ( ) );
#676 = SURFACE_STYLE_USAGE ( .BOTH. , #623 ) ;
#677 = DIRECTION ( 'NONE',  ( 0.000000000000000000, 0.000000000000000000, 1.000000000000000000 ) ) ;
#678 =( LENGTH_UNIT ( ) NAMED_UNIT ( * ) SI_UNIT ( .MILLI., .METRE. ) );
#679 = STYLED_ITEM ( 'NONE', ( #617 ), #289 ) ;
#680 =( NAMED_UNIT ( * ) SI_UNIT ( $, .STERADIAN. ) SOLID_ANGLE_UNIT ( ) );
#681 = AXIS2_PLACEMENT_3D ( 'NONE', #648, #497, #551 ) ;
#682 = EDGE_LOOP ( 'NONE', ( #701, #157 ) ) ;
#683 = PRESENTATION_LAYER_ASSIGNMENT (  '', '', ( #658 ) ) ;
#684 = SURFACE_SIDE_STYLE ('',( #692 ) ) ;
#685 = ADVANCED_BREP_SHAPE_REPRESENTATION ( 'C7_periodic__ap214_split', ( #529, #52, #289, #537, #288, #32 ), #33 ) ;
#686 = DIRECTION ( 'NONE',  ( -1.000000000000000000, 4.046080116785987741E-16, 0.000000000000000000 ) ) ;
#687 = FILL_AREA_STYLE ('',( #15 ) ) ;
#688 = ADVANCED_FACE ( 'NONE', ( #478 ), #416, .T. ) ;
#689 = VECTOR ( 'NONE', #252, 1000.000000000000227 ) ;
#690 = AXIS2_PLACEMENT_3D ( 'NONE', #323, #259, #483 ) ;
#691 = COLOUR_RGB ( '',0.000000000000000000, 1.000000000000000000, 0.000000000000000000 ) ;
#692 = SURFACE_STYLE_FILL_AREA ( #687 ) ;
#693 = FILL_AREA_STYLE ('',( #240 ) ) ;
#694 = CARTESIAN_POINT ( 'NONE',  ( -101.9269295774732029, 6.637164850372618952E-14, 0.000000000000000000 ) ) ;
#695 = ADVANCED_FACE ( 'NONE', ( #318 ), #485, .T. ) ;
#696 = SURFACE_STYLE_FILL_AREA ( #603 ) ;
#697 = DIRECTION ( 'NONE',  ( 4.046080116786000560E-16, -1.000000000000000000, -0.000000000000000000 ) ) ;
#698 = AXIS2_PLACEMENT_3D ( 'NONE', #672, #622, #177 ) ;
#699 = PRESENTATION_LAYER_ASSIGNMENT (  '', '', ( #216 ) ) ;
#700 = CIRCLE ( 'NONE', #250, 50.76476219056579708 ) ;
#701 = ORIENTED_EDGE ( 'NONE', *, *, #436, .F. ) ;
#702 = UNCERTAINTY_MEASURE_WITH_UNIT (LENGTH_MEASURE( 1.000000000000000082E-05 ), #350, 'distance_accuracy_value', 'NONE');
#703 = FILL_AREA_STYLE_COLOUR ( '', #139 ) ;
#704 = PRESENTATION_LAYER_ASSIGNMENT (  '', '', ( #620 ) ) ;
#705 =( NAMED_UNIT ( * ) PLANE_ANGLE_UNIT ( ) SI_UNIT ( $, .RADIAN. ) );
#706 = EDGE_LOOP ( 'NONE', ( #263, #437, #18, #667 ) ) ;
#707 = SURFACE_STYLE_FILL_AREA ( #48 ) ;
#708 = DIRECTION ( 'NONE',  ( 4.046080116786000560E-16, -1.000000000000000000, -0.000000000000000000 ) ) ;
#709 = EDGE_CURVE ( 'NONE', #182, #449, #230, .T. ) ;
#710 = ORIENTED_EDGE ( 'NONE', *, *, #113, .T. ) ;
#711 = UNCERTAINTY_MEASURE_WITH_UNIT (LENGTH_MEASURE( 1.000000000000000082E-05 ), #281, 'distance_accuracy_value', 'NONE');
#712 = CIRCLE ( 'NONE', #320, 16.07098409564759223 ) ;
#713 = PRESENTATION_STYLE_ASSIGNMENT (( #368 ) ) ;
#714 = CIRCLE ( 'NONE', #427, 27.32233250620347320 ) ;
#715 =( GEOMETRIC_REPRESENTATION_CONTEXT ( 3 ) GLOBAL_UNCERTAINTY_ASSIGNED_CONTEXT ( ( #509 ) ) GLOBAL_UNIT_ASSIGNED_CONTEXT ( ( #430, #101, #653 ) ) REPRESENTATION_CONTEXT ( 'NONE', 'WORKASPACE' ) );
#716 = SURFACE_STYLE_USAGE ( .BOTH. , #55 ) ;
#717 = ORIENTED_EDGE ( 'NONE', *, *, #709, .F. ) ;
#718 = CLOSED_SHELL ( 'NONE', ( #332, #688, #181 ) ) ;
#719 = CARTESIAN_POINT ( 'NONE',  ( 177.7005490334121589, 34.29934011993392318, 0.000000000000000000 ) ) ;
ENDSEC;
END-ISO-10303-21;
