ISO-10303-21;
HEADER;
FILE_DESCRIPTION (( 'STEP AP214' ),
    '1' );
FILE_NAME ('C7_periodic__ap214_appear.step',
    '2026-08-06T13:09:28',
    ( '' ),
    ( '' ),
    'SwSTEP 2.0',
    'SolidWorks 2026',
    '' );
FILE_SCHEMA (( 'AUTOMOTIVE_DESIGN' ));
ENDSEC;

DATA;
#1 = PRESENTATION_LAYER_ASSIGNMENT (  '', '', ( #307 ) ) ;
#2 = CARTESIAN_POINT ( 'NONE',  ( -59.79593872408656097, -6.938893903907228378E-15, 0.000000000000000000 ) ) ;
#3 = UNCERTAINTY_MEASURE_WITH_UNIT (LENGTH_MEASURE( 1.000000000000000082E-05 ), #329, 'distance_accuracy_value', 'NONE');
#4 = FACE_OUTER_BOUND ( 'NONE', #410, .T. ) ;
#5 = DIRECTION ( 'NONE',  ( 4.046080116786000560E-16, -1.000000000000000000, -0.000000000000000000 ) ) ;
#6 = COLOUR_RGB ( '',0.000000000000000000, 1.000000000000000000, 0.000000000000000000 ) ;
#7 =( LENGTH_UNIT ( ) NAMED_UNIT ( * ) SI_UNIT ( .MILLI., .METRE. ) );
#8 = FILL_AREA_STYLE ('',( #45 ) ) ;
#9 = CLOSED_SHELL ( 'NONE', ( #127, #199, #10 ) ) ;
#10 = ADVANCED_FACE ( 'NONE', ( #18 ), #15, .F. ) ;
#11 = VERTEX_POINT ( 'NONE', #320 ) ;
#12 = SURFACE_STYLE_FILL_AREA ( #209 ) ;
#13 =( NAMED_UNIT ( * ) PLANE_ANGLE_UNIT ( ) SI_UNIT ( $, .RADIAN. ) );
#14 = PRESENTATION_LAYER_ASSIGNMENT (  '', '', ( #351 ) ) ;
#15 = PLANE ( 'NONE',  #71 ) ;
#16 =( NAMED_UNIT ( * ) PLANE_ANGLE_UNIT ( ) SI_UNIT ( $, .RADIAN. ) );
#17 = SURFACE_SIDE_STYLE ('',( #43 ) ) ;
#18 = FACE_OUTER_BOUND ( 'NONE', #46, .T. ) ;
#19 = DIRECTION ( 'NONE',  ( 4.046080116786000560E-16, -1.000000000000000000, -0.000000000000000000 ) ) ;
#20 = PRESENTATION_LAYER_ASSIGNMENT (  '', '', ( #204 ) ) ;
#21 = UNCERTAINTY_MEASURE_WITH_UNIT (LENGTH_MEASURE( 1.000000000000000082E-05 ), #190, 'distance_accuracy_value', 'NONE');
#22 = COLOUR_RGB ( '',1.000000000000000000, 0.000000000000000000, 0.000000000000000000 ) ;
#23 = FILL_AREA_STYLE_COLOUR ( '', #272 ) ;
#24 = SURFACE_SIDE_STYLE ('',( #317 ) ) ;
#25 = UNCERTAINTY_MEASURE_WITH_UNIT (LENGTH_MEASURE( 1.000000000000000082E-05 ), #182, 'distance_accuracy_value', 'NONE');
#26 = CONICAL_SURFACE ( 'NONE', #381, 404.2272126816378659, 0.3841452057184321367 ) ;
#27 = STYLED_ITEM ( 'NONE', ( #297 ), #360 ) ;
#28 =( NAMED_UNIT ( * ) PLANE_ANGLE_UNIT ( ) SI_UNIT ( $, .RADIAN. ) );
#29 = CARTESIAN_POINT ( 'NONE',  ( -279.6274786108853050, -1.146370378944054438E-14, 0.000000000000000000 ) ) ;
#30 = SURFACE_STYLE_FILL_AREA ( #105 ) ;
#31 = UNCERTAINTY_MEASURE_WITH_UNIT (LENGTH_MEASURE( 1.000000000000000082E-05 ), #328, 'distance_accuracy_value', 'NONE');
#32 = DIRECTION ( 'NONE',  ( 1.000000000000000000, 5.079283697562631313E-16, 0.000000000000000000 ) ) ;
#33 = CARTESIAN_POINT ( 'NONE',  ( -224.9828135984784581, 1.064596547007257179E-14, 0.000000000000000000 ) ) ;
#34 = ADVANCED_FACE ( 'NONE', ( ), #247, .T. ) ;
#35 = CIRCLE ( 'NONE', #113, 27.32233250620341636 ) ;
#36 = DIRECTION ( 'NONE',  ( 0.000000000000000000, 0.000000000000000000, -1.000000000000000000 ) ) ;
#37 =( NAMED_UNIT ( * ) SI_UNIT ( $, .STERADIAN. ) SOLID_ANGLE_UNIT ( ) );
#38 = DIRECTION ( 'NONE',  ( 4.046080116786000560E-16, -1.000000000000000000, -0.000000000000000000 ) ) ;
#39 = AXIS2_PLACEMENT_3D ( 'NONE', #224, #19, #354 ) ;
#40 = ADVANCED_FACE ( 'NONE', ( #399 ), #100, .T. ) ;
#41 = DIRECTION ( 'NONE',  ( 1.000000000000000000, 5.079283697562631313E-16, 0.000000000000000000 ) ) ;
#42 = COLOUR_RGB ( '',0.9098039215686274384, 0.4431372549019607643, 0.03137254901960784270 ) ;
#43 = SURFACE_STYLE_FILL_AREA ( #80 ) ;
#44 = DIRECTION ( 'NONE',  ( 0.000000000000000000, 0.000000000000000000, 1.000000000000000000 ) ) ;
#45 = FILL_AREA_STYLE_COLOUR ( '', #6 ) ;
#46 = EDGE_LOOP ( 'NONE', ( #301 ) ) ;
#47 = SURFACE_STYLE_USAGE ( .BOTH. , #142 ) ;
#48 = EDGE_LOOP ( 'NONE', ( #176 ) ) ;
#49 = VERTEX_POINT ( 'NONE', #178 ) ;
#50 = FILL_AREA_STYLE_COLOUR ( '', #42 ) ;
#51 =( GEOMETRIC_REPRESENTATION_CONTEXT ( 3 ) GLOBAL_UNCERTAINTY_ASSIGNED_CONTEXT ( ( #126 ) ) GLOBAL_UNIT_ASSIGNED_CONTEXT ( ( #386, #154, #170 ) ) REPRESENTATION_CONTEXT ( 'NONE', 'WORKASPACE' ) );
#52 = MANIFOLD_SOLID_BREP ( 'Split Line2', #158 ) ;
#53 =( GEOMETRIC_REPRESENTATION_CONTEXT ( 3 ) GLOBAL_UNCERTAINTY_ASSIGNED_CONTEXT ( ( #389 ) ) GLOBAL_UNIT_ASSIGNED_CONTEXT ( ( #206, #305, #179 ) ) REPRESENTATION_CONTEXT ( 'NONE', 'WORKASPACE' ) );
#54 = APPLICATION_CONTEXT ( 'automotive_design' ) ;
#55 = EDGE_CURVE ( 'NONE', #271, #140, #290, .T. ) ;
#56 =( NAMED_UNIT ( * ) SI_UNIT ( $, .STERADIAN. ) SOLID_ANGLE_UNIT ( ) );
#57 = ORIENTED_EDGE ( 'NONE', *, *, #55, .F. ) ;
#58 = MECHANICAL_DESIGN_GEOMETRIC_PRESENTATION_REPRESENTATION (  '', ( #165 ), #103 ) ;
#59 = SURFACE_SIDE_STYLE ('',( #124 ) ) ;
#60 = EDGE_LOOP ( 'NONE', ( #215 ) ) ;
#61 = FILL_AREA_STYLE_COLOUR ( '', #133 ) ;
#62 = PRESENTATION_LAYER_ASSIGNMENT (  '', '', ( #243 ) ) ;
#63 = SURFACE_SIDE_STYLE ('',( #213 ) ) ;
#64 = DIRECTION ( 'NONE',  ( -1.000000000000000000, 4.046080116785987741E-16, 0.000000000000000000 ) ) ;
#65 = AXIS2_PLACEMENT_3D ( 'NONE', #263, #295, #41 ) ;
#66 = SHAPE_DEFINITION_REPRESENTATION ( #394, #120 ) ;
#67 = UNCERTAINTY_MEASURE_WITH_UNIT (LENGTH_MEASURE( 1.000000000000000082E-05 ), #222, 'distance_accuracy_value', 'NONE');
#68 =( GEOMETRIC_REPRESENTATION_CONTEXT ( 3 ) GLOBAL_UNCERTAINTY_ASSIGNED_CONTEXT ( ( #21 ) ) GLOBAL_UNIT_ASSIGNED_CONTEXT ( ( #190, #348, #289 ) ) REPRESENTATION_CONTEXT ( 'NONE', 'WORKASPACE' ) );
#69 = AXIS2_PLACEMENT_3D ( 'NONE', #242, #346, #84 ) ;
#70 = DIRECTION ( 'NONE',  ( 4.046080116786000560E-16, -1.000000000000000000, -0.000000000000000000 ) ) ;
#71 = AXIS2_PLACEMENT_3D ( 'NONE', #424, #357, #220 ) ;
#72 =( NAMED_UNIT ( * ) PLANE_ANGLE_UNIT ( ) SI_UNIT ( $, .RADIAN. ) );
#73 = DIRECTION ( 'NONE',  ( 1.000000000000000000, 4.046080116786000560E-16, 0.000000000000000000 ) ) ;
#74 = SURFACE_STYLE_USAGE ( .BOTH. , #108 ) ;
#75 = SURFACE_STYLE_USAGE ( .BOTH. , #203 ) ;
#76 = FACE_OUTER_BOUND ( 'NONE', #60, .T. ) ;
#77 = FILL_AREA_STYLE_COLOUR ( '', #344 ) ;
#78 = SURFACE_SIDE_STYLE ('',( #331 ) ) ;
#79 = CARTESIAN_POINT ( 'NONE',  ( 0.000000000000000000, 0.000000000000000000, 0.000000000000000000 ) ) ;
#80 = FILL_AREA_STYLE ('',( #50 ) ) ;
#81 = PRESENTATION_LAYER_ASSIGNMENT (  '', '', ( #27 ) ) ;
#82 = VERTEX_POINT ( 'NONE', #268 ) ;
#83 = MECHANICAL_DESIGN_GEOMETRIC_PRESENTATION_REPRESENTATION (  '', ( #89 ), #276 ) ;
#84 = DIRECTION ( 'NONE',  ( 1.000000000000000000, 4.046080116786000560E-16, 0.000000000000000000 ) ) ;
#85 = VECTOR ( 'NONE', #291, 1000.000000000000000 ) ;
#86 = COLOUR_RGB ( '',1.000000000000000000, 0.000000000000000000, 0.000000000000000000 ) ;
#87 = ORIENTED_EDGE ( 'NONE', *, *, #336, .T. ) ;
#88 = ORIENTED_EDGE ( 'NONE', *, *, #114, .T. ) ;
#89 = STYLED_ITEM ( 'NONE', ( #191 ), #10 ) ;
#90 = PRODUCT_DEFINITION ( 'UNKNOWN', '', #382, #97 ) ;
#91 =( LENGTH_UNIT ( ) NAMED_UNIT ( * ) SI_UNIT ( .MILLI., .METRE. ) );
#92 = FILL_AREA_STYLE ('',( #251 ) ) ;
#93 = MECHANICAL_DESIGN_GEOMETRIC_PRESENTATION_REPRESENTATION (  '', ( #391 ), #51 ) ;
#94 = AXIS2_PLACEMENT_3D ( 'NONE', #378, #266, #273 ) ;
#95 = DIRECTION ( 'NONE',  ( 4.046080116786000560E-16, -1.000000000000000000, -0.000000000000000000 ) ) ;
#96 = SURFACE_STYLE_USAGE ( .BOTH. , #125 ) ;
#97 = PRODUCT_DEFINITION_CONTEXT ( 'detailed design', #54, 'design' ) ;
#98 = COLOUR_RGB ( '',0.000000000000000000, 1.000000000000000000, 0.000000000000000000 ) ;
#99 =( NAMED_UNIT ( * ) SI_UNIT ( $, .STERADIAN. ) SOLID_ANGLE_UNIT ( ) );
#100 = PLANE ( 'NONE',  #39 ) ;
#101 = AXIS2_PLACEMENT_3D ( 'NONE', #415, #342, #412 ) ;
#102 = PRESENTATION_STYLE_ASSIGNMENT (( #368 ) ) ;
#103 =( GEOMETRIC_REPRESENTATION_CONTEXT ( 3 ) GLOBAL_UNCERTAINTY_ASSIGNED_CONTEXT ( ( #3 ) ) GLOBAL_UNIT_ASSIGNED_CONTEXT ( ( #329, #299, #37 ) ) REPRESENTATION_CONTEXT ( 'NONE', 'WORKASPACE' ) );
#104 = DIRECTION ( 'NONE',  ( 4.046080116786000560E-16, -1.000000000000000000, -0.000000000000000000 ) ) ;
#105 = FILL_AREA_STYLE ('',( #292 ) ) ;
#106 =( NAMED_UNIT ( * ) PLANE_ANGLE_UNIT ( ) SI_UNIT ( $, .RADIAN. ) );
#107 = CIRCLE ( 'NONE', #330, 27.32233250620347320 ) ;
#108 = SURFACE_SIDE_STYLE ('',( #363 ) ) ;
#109 =( NAMED_UNIT ( * ) SI_UNIT ( $, .STERADIAN. ) SOLID_ANGLE_UNIT ( ) );
#110 = SPHERICAL_SURFACE ( 'NONE', #94, 34.29934011993392318 ) ;
#111 = ORIENTED_EDGE ( 'NONE', *, *, #168, .F. ) ;
#112 = SURFACE_SIDE_STYLE ('',( #12 ) ) ;
#113 = AXIS2_PLACEMENT_3D ( 'NONE', #392, #280, #219 ) ;
#114 = EDGE_CURVE ( 'NONE', #11, #271, #241, .T. ) ;
#115 = SURFACE_STYLE_USAGE ( .BOTH. , #17 ) ;
#116 = ORIENTED_EDGE ( 'NONE', *, *, #261, .T. ) ;
#117 = DIRECTION ( 'NONE',  ( -0.000000000000000000, -1.000000000000000000, -0.000000000000000000 ) ) ;
#118 =( NAMED_UNIT ( * ) SI_UNIT ( $, .STERADIAN. ) SOLID_ANGLE_UNIT ( ) );
#119 = MECHANICAL_DESIGN_GEOMETRIC_PRESENTATION_REPRESENTATION (  '', ( #321 ), #371 ) ;
#120 = ADVANCED_BREP_SHAPE_REPRESENTATION ( 'C7_periodic__ap214_appear', ( #169, #184, #183, #166, #52, #405 ), #53 ) ;
#121 = SURFACE_STYLE_FILL_AREA ( #319 ) ;
#122 = PRESENTATION_LAYER_ASSIGNMENT (  '', '', ( #254 ) ) ;
#123 = FILL_AREA_STYLE ('',( #223 ) ) ;
#124 = SURFACE_STYLE_FILL_AREA ( #123 ) ;
#125 = SURFACE_SIDE_STYLE ('',( #275 ) ) ;
#126 = UNCERTAINTY_MEASURE_WITH_UNIT (LENGTH_MEASURE( 1.000000000000000082E-05 ), #386, 'distance_accuracy_value', 'NONE');
#127 = ADVANCED_FACE ( 'NONE', ( #258, #267 ), #367, .T. ) ;
#128 = COLOUR_RGB ( '',0.9098039215686274384, 0.4431372549019607643, 0.03137254901960784270 ) ;
#129 =( LENGTH_UNIT ( ) NAMED_UNIT ( * ) SI_UNIT ( .MILLI., .METRE. ) );
#130 = SURFACE_STYLE_USAGE ( .BOTH. , #387 ) ;
#131 = ADVANCED_FACE ( 'NONE', ( #76 ), #26, .T. ) ;
#132 = CARTESIAN_POINT ( 'NONE',  ( -252.3051461046819099, -4.088691596839861464E-16, 0.000000000000000000 ) ) ;
#133 = COLOUR_RGB ( '',0.8941176470588234615, 0.8941176470588234615, 0.8941176470588234615 ) ;
#134 =( LENGTH_UNIT ( ) NAMED_UNIT ( * ) SI_UNIT ( .MILLI., .METRE. ) );
#135 = DIRECTION ( 'NONE',  ( 0.000000000000000000, 1.000000000000000000, 0.000000000000000000 ) ) ;
#136 = PRESENTATION_LAYER_ASSIGNMENT (  '', '', ( #321 ) ) ;
#137 = CIRCLE ( 'NONE', #205, 27.32233250620347320 ) ;
#138 = SURFACE_STYLE_USAGE ( .BOTH. , #112 ) ;
#139 = FILL_AREA_STYLE ('',( #370 ) ) ;
#140 = VERTEX_POINT ( 'NONE', #306 ) ;
#141 = PLANE ( 'NONE',  #69 ) ;
#142 = SURFACE_SIDE_STYLE ('',( #314 ) ) ;
#143 = AXIS2_PLACEMENT_3D ( 'NONE', #398, #70, #255 ) ;
#144 = FILL_AREA_STYLE ('',( #181 ) ) ;
#145 = DIRECTION ( 'NONE',  ( 1.000000000000000000, 4.046080116786000560E-16, 0.000000000000000000 ) ) ;
#146 = PRESENTATION_STYLE_ASSIGNMENT (( #115 ) ) ;
#147 = STYLED_ITEM ( 'NONE', ( #162 ), #52 ) ;
#148 = ORIENTED_EDGE ( 'NONE', *, *, #423, .T. ) ;
#149 = MECHANICAL_DESIGN_GEOMETRIC_PRESENTATION_REPRESENTATION (  '', ( #351 ), #390 ) ;
#150 = PRESENTATION_LAYER_ASSIGNMENT (  '', '', ( #244 ) ) ;
#151 = SURFACE_STYLE_FILL_AREA ( #92 ) ;
#152 = CLOSED_SHELL ( 'NONE', ( #131, #327 ) ) ;
#153 = UNCERTAINTY_MEASURE_WITH_UNIT (LENGTH_MEASURE( 1.000000000000000082E-05 ), #393, 'distance_accuracy_value', 'NONE');
#154 =( NAMED_UNIT ( * ) PLANE_ANGLE_UNIT ( ) SI_UNIT ( $, .RADIAN. ) );
#155 = STYLED_ITEM ( 'NONE', ( #146 ), #169 ) ;
#156 = MECHANICAL_DESIGN_GEOMETRIC_PRESENTATION_REPRESENTATION (  '', ( #244 ), #322 ) ;
#157 = SURFACE_STYLE_USAGE ( .BOTH. , #285 ) ;
#158 = CLOSED_SHELL ( 'NONE', ( #229, #318, #40, #406 ) ) ;
#159 = FILL_AREA_STYLE ('',( #77 ) ) ;
#160 =( NAMED_UNIT ( * ) PLANE_ANGLE_UNIT ( ) SI_UNIT ( $, .RADIAN. ) );
#161 = FILL_AREA_STYLE_COLOUR ( '', #163 ) ;
#162 = PRESENTATION_STYLE_ASSIGNMENT (( #227 ) ) ;
#163 = COLOUR_RGB ( '',0.000000000000000000, 1.000000000000000000, 1.000000000000000000 ) ;
#164 = SURFACE_SIDE_STYLE ('',( #30 ) ) ;
#165 = STYLED_ITEM ( 'NONE', ( #404 ), #127 ) ;
#166 = MANIFOLD_SOLID_BREP ( 'Revolve4', #312 ) ;
#167 = FACE_OUTER_BOUND ( 'NONE', #343, .T. ) ;
#168 = EDGE_CURVE ( 'NONE', #82, #82, #192, .T. ) ;
#169 = MANIFOLD_SOLID_BREP ( 'Revolve1', #9 ) ;
#170 =( NAMED_UNIT ( * ) SI_UNIT ( $, .STERADIAN. ) SOLID_ANGLE_UNIT ( ) );
#171 = MECHANICAL_DESIGN_GEOMETRIC_PRESENTATION_REPRESENTATION (  '', ( #243 ), #68 ) ;
#172 = CARTESIAN_POINT ( 'NONE',  ( -252.3051461046819099, 1.105483462975656834E-14, 0.000000000000000000 ) ) ;
#173 =( NAMED_UNIT ( * ) PLANE_ANGLE_UNIT ( ) SI_UNIT ( $, .RADIAN. ) );
#174 =( GEOMETRIC_REPRESENTATION_CONTEXT ( 3 ) GLOBAL_UNCERTAINTY_ASSIGNED_CONTEXT ( ( #153 ) ) GLOBAL_UNIT_ASSIGNED_CONTEXT ( ( #393, #427, #99 ) ) REPRESENTATION_CONTEXT ( 'NONE', 'WORKASPACE' ) );
#175 = SURFACE_STYLE_USAGE ( .BOTH. , #409 ) ;
#176 = ORIENTED_EDGE ( 'NONE', *, *, #168, .T. ) ;
#177 =( GEOMETRIC_REPRESENTATION_CONTEXT ( 3 ) GLOBAL_UNCERTAINTY_ASSIGNED_CONTEXT ( ( #358 ) ) GLOBAL_UNIT_ASSIGNED_CONTEXT ( ( #278, #173, #56 ) ) REPRESENTATION_CONTEXT ( 'NONE', 'WORKASPACE' ) );
#178 = CARTESIAN_POINT ( 'NONE',  ( -59.79593872408656097, -6.938893903907228378E-15, -27.32233250620347320 ) ) ;
#179 =( NAMED_UNIT ( * ) SI_UNIT ( $, .STERADIAN. ) SOLID_ANGLE_UNIT ( ) );
#180 = STYLED_ITEM ( 'NONE', ( #326 ), #131 ) ;
#181 = FILL_AREA_STYLE_COLOUR ( '', #128 ) ;
#182 =( LENGTH_UNIT ( ) NAMED_UNIT ( * ) SI_UNIT ( .MILLI., .METRE. ) );
#183 = MANIFOLD_SOLID_BREP ( 'Revolve3', #332 ) ;
#184 = MANIFOLD_SOLID_BREP ( 'Revolve2', #152 ) ;
#185 = AXIS2_PLACEMENT_3D ( 'NONE', #325, #135, #260 ) ;
#186 = FACE_OUTER_BOUND ( 'NONE', #240, .T. ) ;
#187 = FILL_AREA_STYLE ('',( #420 ) ) ;
#188 = PRESENTATION_LAYER_ASSIGNMENT (  '', '', ( #89 ) ) ;
#189 =( NAMED_UNIT ( * ) PLANE_ANGLE_UNIT ( ) SI_UNIT ( $, .RADIAN. ) );
#190 =( LENGTH_UNIT ( ) NAMED_UNIT ( * ) SI_UNIT ( .MILLI., .METRE. ) );
#191 = PRESENTATION_STYLE_ASSIGNMENT (( #96 ) ) ;
#192 = CIRCLE ( 'NONE', #101, 27.32233250620347320 ) ;
#193 = CARTESIAN_POINT ( 'NONE',  ( -279.6274786108853618, 3.081487911019577365E-30, 0.000000000000000000 ) ) ;
#194 = FILL_AREA_STYLE_COLOUR ( '', #324 ) ;
#195 = UNCERTAINTY_MEASURE_WITH_UNIT (LENGTH_MEASURE( 1.000000000000000082E-05 ), #372, 'distance_accuracy_value', 'NONE');
#196 = PRESENTATION_LAYER_ASSIGNMENT (  '', '', ( #147 ) ) ;
#197 = FACE_OUTER_BOUND ( 'NONE', #380, .T. ) ;
#198 = FILL_AREA_STYLE_COLOUR ( '', #337 ) ;
#199 = ADVANCED_FACE ( 'NONE', ( #376 ), #237, .T. ) ;
#200 = AXIS2_PLACEMENT_3D ( 'NONE', #356, #104, #32 ) ;
#201 = FILL_AREA_STYLE ('',( #198 ) ) ;
#202 = EDGE_CURVE ( 'NONE', #271, #11, #35, .T. ) ;
#203 = SURFACE_SIDE_STYLE ('',( #401 ) ) ;
#204 = STYLED_ITEM ( 'NONE', ( #248 ), #199 ) ;
#205 = AXIS2_PLACEMENT_3D ( 'NONE', #172, #407, #369 ) ;
#206 =( LENGTH_UNIT ( ) NAMED_UNIT ( * ) SI_UNIT ( .MILLI., .METRE. ) );
#207 = ORIENTED_EDGE ( 'NONE', *, *, #423, .F. ) ;
#208 = MECHANICAL_DESIGN_GEOMETRIC_PRESENTATION_REPRESENTATION (  '', ( #180 ), #288 ) ;
#209 = FILL_AREA_STYLE ('',( #300 ) ) ;
#210 = CARTESIAN_POINT ( 'NONE',  ( -252.3051461046819099, 1.105483462975656834E-14, 0.000000000000000000 ) ) ;
#211 = CIRCLE ( 'NONE', #200, 27.32233250620341636 ) ;
#212 = PRESENTATION_STYLE_ASSIGNMENT (( #47 ) ) ;
#213 = SURFACE_STYLE_FILL_AREA ( #282 ) ;
#214 = PRESENTATION_LAYER_ASSIGNMENT (  '', '', ( #422 ) ) ;
#215 = ORIENTED_EDGE ( 'NONE', *, *, #298, .F. ) ;
#216 =( NAMED_UNIT ( * ) PLANE_ANGLE_UNIT ( ) SI_UNIT ( $, .RADIAN. ) );
#217 = SURFACE_STYLE_USAGE ( .BOTH. , #24 ) ;
#218 = APPLICATION_CONTEXT ( 'automotive_design' ) ;
#219 = DIRECTION ( 'NONE',  ( 1.000000000000000000, 5.079283697562631313E-16, 0.000000000000000000 ) ) ;
#220 = DIRECTION ( 'NONE',  ( 1.000000000000000000, 4.046080116786000560E-16, 0.000000000000000000 ) ) ;
#221 = UNCERTAINTY_MEASURE_WITH_UNIT (LENGTH_MEASURE( 1.000000000000000082E-05 ), #375, 'distance_accuracy_value', 'NONE');
#222 =( LENGTH_UNIT ( ) NAMED_UNIT ( * ) SI_UNIT ( .MILLI., .METRE. ) );
#223 = FILL_AREA_STYLE_COLOUR ( '', #355 ) ;
#224 = CARTESIAN_POINT ( 'NONE',  ( -101.9269295774732029, 6.637164850372618952E-14, 0.000000000000000000 ) ) ;
#225 = PRESENTATION_LAYER_ASSIGNMENT (  '', '', ( #155 ) ) ;
#226 = CYLINDRICAL_SURFACE ( 'NONE', #279, 27.32233250620344478 ) ;
#227 = SURFACE_STYLE_USAGE ( .BOTH. , #164 ) ;
#228 = FILL_AREA_STYLE ('',( #161 ) ) ;
#229 = ADVANCED_FACE ( 'NONE', ( #186 ), #315, .T. ) ;
#230 = CARTESIAN_POINT ( 'NONE',  ( -150.3782165272086786, -4.088691596839861464E-16, 0.000000000000000000 ) ) ;
#231 = PRODUCT_RELATED_PRODUCT_CATEGORY ( 'part', '', ( #252 ) ) ;
#232 =( GEOMETRIC_REPRESENTATION_CONTEXT ( 3 ) GLOBAL_UNCERTAINTY_ASSIGNED_CONTEXT ( ( #31 ) ) GLOBAL_UNIT_ASSIGNED_CONTEXT ( ( #328, #106, #333 ) ) REPRESENTATION_CONTEXT ( 'NONE', 'WORKASPACE' ) );
#233 =( NAMED_UNIT ( * ) SI_UNIT ( $, .STERADIAN. ) SOLID_ANGLE_UNIT ( ) );
#234 = MECHANICAL_DESIGN_GEOMETRIC_PRESENTATION_REPRESENTATION (  '', ( #422 ), #296 ) ;
#235 = PRODUCT_CONTEXT ( 'NONE', #218, 'mechanical' ) ;
#236 =( NAMED_UNIT ( * ) SI_UNIT ( $, .STERADIAN. ) SOLID_ANGLE_UNIT ( ) );
#237 = PLANE ( 'NONE',  #265 ) ;
#238 = ORIENTED_EDGE ( 'NONE', *, *, #298, .T. ) ;
#239 = COLOUR_RGB ( '',0.000000000000000000, 1.000000000000000000, 1.000000000000000000 ) ;
#240 = EDGE_LOOP ( 'NONE', ( #384, #116, #88, #340 ) ) ;
#241 = CIRCLE ( 'NONE', #65, 27.32233250620341636 ) ;
#242 = CARTESIAN_POINT ( 'NONE',  ( -101.9269295774726771, 68.59868023986780372, 0.000000000000000000 ) ) ;
#243 = STYLED_ITEM ( 'NONE', ( #349 ), #184 ) ;
#244 = STYLED_ITEM ( 'NONE', ( #277 ), #406 ) ;
#245 = VERTEX_POINT ( 'NONE', #193 ) ;
#246 =( NAMED_UNIT ( * ) SI_UNIT ( $, .STERADIAN. ) SOLID_ANGLE_UNIT ( ) );
#247 = TOROIDAL_SURFACE ( 'NONE', #385, 33.41787314310669643, 17.34688904745910421 ) ;
#248 = PRESENTATION_STYLE_ASSIGNMENT (( #396 ) ) ;
#249 = CARTESIAN_POINT ( 'NONE',  ( 52.95749585036503504, 34.29934011993390897, 0.000000000000000000 ) ) ;
#250 = MECHANICAL_DESIGN_GEOMETRIC_PRESENTATION_REPRESENTATION (  '', ( #27 ), #232 ) ;
#251 = FILL_AREA_STYLE_COLOUR ( '', #98 ) ;
#252 = PRODUCT ( 'C7_periodic__ap214_appear', 'C7_periodic__ap214_appear', '', ( #235 ) ) ;
#253 =( NAMED_UNIT ( * ) SI_UNIT ( $, .STERADIAN. ) SOLID_ANGLE_UNIT ( ) );
#254 = STYLED_ITEM ( 'NONE', ( #388 ), #34 ) ;
#255 = DIRECTION ( 'NONE',  ( 1.000000000000000000, 4.046080116786000560E-16, 0.000000000000000000 ) ) ;
#256 = DIRECTION ( 'NONE',  ( 4.046080116785987248E-16, 1.000000000000000000, -0.000000000000000000 ) ) ;
#257 = PLANE ( 'NONE',  #185 ) ;
#258 = FACE_OUTER_BOUND ( 'NONE', #304, .T. ) ;
#259 = MECHANICAL_DESIGN_GEOMETRIC_PRESENTATION_REPRESENTATION (  '', ( #204 ), #413 ) ;
#260 = DIRECTION ( 'NONE',  ( 0.000000000000000000, -0.000000000000000000, 1.000000000000000000 ) ) ;
#261 = EDGE_CURVE ( 'NONE', #245, #11, #400, .T. ) ;
#262 =( GEOMETRIC_REPRESENTATION_CONTEXT ( 3 ) GLOBAL_UNCERTAINTY_ASSIGNED_CONTEXT ( ( #350 ) ) GLOBAL_UNIT_ASSIGNED_CONTEXT ( ( #7, #160, #109 ) ) REPRESENTATION_CONTEXT ( 'NONE', 'WORKASPACE' ) );
#263 = CARTESIAN_POINT ( 'NONE',  ( -252.3051461046819099, 68.59868023986786056, 0.000000000000000000 ) ) ;
#264 = SURFACE_STYLE_USAGE ( .BOTH. , #78 ) ;
#265 = AXIS2_PLACEMENT_3D ( 'NONE', #286, #95, #316 ) ;
#266 = DIRECTION ( 'NONE',  ( 0.000000000000000000, 0.000000000000000000, 1.000000000000000000 ) ) ;
#267 = FACE_OUTER_BOUND ( 'NONE', #377, .T. ) ;
#268 = CARTESIAN_POINT ( 'NONE',  ( -123.0558840210051983, 2.210966925951313668E-14, 0.000000000000000000 ) ) ;
#269 = SURFACE_STYLE_FILL_AREA ( #8 ) ;
#270 = APPLICATION_PROTOCOL_DEFINITION ( 'draft international standard', 'automotive_design', 1998, #218 ) ;
#271 = VERTEX_POINT ( 'NONE', #365 ) ;
#272 = COLOUR_RGB ( '',1.000000000000000000, 0.000000000000000000, 0.000000000000000000 ) ;
#273 = DIRECTION ( 'NONE',  ( -1.000000000000000000, -4.046080116785989713E-16, 0.000000000000000000 ) ) ;
#274 =( NAMED_UNIT ( * ) SI_UNIT ( $, .STERADIAN. ) SOLID_ANGLE_UNIT ( ) );
#275 = SURFACE_STYLE_FILL_AREA ( #144 ) ;
#276 =( GEOMETRIC_REPRESENTATION_CONTEXT ( 3 ) GLOBAL_UNCERTAINTY_ASSIGNED_CONTEXT ( ( #67 ) ) GLOBAL_UNIT_ASSIGNED_CONTEXT ( ( #222, #28, #426 ) ) REPRESENTATION_CONTEXT ( 'NONE', 'WORKASPACE' ) );
#277 = PRESENTATION_STYLE_ASSIGNMENT (( #138 ) ) ;
#278 =( LENGTH_UNIT ( ) NAMED_UNIT ( * ) SI_UNIT ( .MILLI., .METRE. ) );
#279 = AXIS2_PLACEMENT_3D ( 'NONE', #132, #38, #294 ) ;
#280 = DIRECTION ( 'NONE',  ( 4.046080116786000560E-16, -1.000000000000000000, -0.000000000000000000 ) ) ;
#281 = COLOUR_RGB ( '',1.000000000000000000, 0.000000000000000000, 0.000000000000000000 ) ;
#282 = FILL_AREA_STYLE ('',( #61 ) ) ;
#283 = PRESENTATION_LAYER_ASSIGNMENT (  '', '', ( #165 ) ) ;
#284 = UNCERTAINTY_MEASURE_WITH_UNIT (LENGTH_MEASURE( 1.000000000000000082E-05 ), #91, 'distance_accuracy_value', 'NONE');
#285 = SURFACE_SIDE_STYLE ('',( #121 ) ) ;
#286 = CARTESIAN_POINT ( 'NONE',  ( -2.685450073292357992E-29, 6.637164850372618952E-14, 0.000000000000000000 ) ) ;
#287 = UNCERTAINTY_MEASURE_WITH_UNIT (LENGTH_MEASURE( 1.000000000000000082E-05 ), #379, 'distance_accuracy_value', 'NONE');
#288 =( GEOMETRIC_REPRESENTATION_CONTEXT ( 3 ) GLOBAL_UNCERTAINTY_ASSIGNED_CONTEXT ( ( #421 ) ) GLOBAL_UNIT_ASSIGNED_CONTEXT ( ( #134, #13, #118 ) ) REPRESENTATION_CONTEXT ( 'NONE', 'WORKASPACE' ) );
#289 =( NAMED_UNIT ( * ) SI_UNIT ( $, .STERADIAN. ) SOLID_ANGLE_UNIT ( ) );
#290 = LINE ( 'NONE', #33, #374 ) ;
#291 = DIRECTION ( 'NONE',  ( -4.046080116786000560E-16, 1.000000000000000000, 0.000000000000000000 ) ) ;
#292 = FILL_AREA_STYLE_COLOUR ( '', #281 ) ;
#293 =( GEOMETRIC_REPRESENTATION_CONTEXT ( 3 ) GLOBAL_UNCERTAINTY_ASSIGNED_CONTEXT ( ( #195 ) ) GLOBAL_UNIT_ASSIGNED_CONTEXT ( ( #372, #339, #246 ) ) REPRESENTATION_CONTEXT ( 'NONE', 'WORKASPACE' ) );
#294 = DIRECTION ( 'NONE',  ( 1.000000000000000000, 4.046080116786000560E-16, 0.000000000000000000 ) ) ;
#295 = DIRECTION ( 'NONE',  ( 4.046080116786000560E-16, -1.000000000000000000, -0.000000000000000000 ) ) ;
#296 =( GEOMETRIC_REPRESENTATION_CONTEXT ( 3 ) GLOBAL_UNCERTAINTY_ASSIGNED_CONTEXT ( ( #25 ) ) GLOBAL_UNIT_ASSIGNED_CONTEXT ( ( #182, #189, #253 ) ) REPRESENTATION_CONTEXT ( 'NONE', 'WORKASPACE' ) );
#297 = PRESENTATION_STYLE_ASSIGNMENT (( #74 ) ) ;
#298 = EDGE_CURVE ( 'NONE', #49, #49, #107, .T. ) ;
#299 =( NAMED_UNIT ( * ) PLANE_ANGLE_UNIT ( ) SI_UNIT ( $, .RADIAN. ) );
#300 = FILL_AREA_STYLE_COLOUR ( '', #86 ) ;
#301 = ORIENTED_EDGE ( 'NONE', *, *, #336, .F. ) ;
#302 = DIRECTION ( 'NONE',  ( 1.000000000000000000, 0.000000000000000000, 0.000000000000000000 ) ) ;
#303 = PRESENTATION_STYLE_ASSIGNMENT (( #175 ) ) ;
#304 = EDGE_LOOP ( 'NONE', ( #87 ) ) ;
#305 =( NAMED_UNIT ( * ) PLANE_ANGLE_UNIT ( ) SI_UNIT ( $, .RADIAN. ) );
#306 = CARTESIAN_POINT ( 'NONE',  ( -224.9828135984784296, 2.210966925951313668E-14, 0.000000000000000000 ) ) ;
#307 = STYLED_ITEM ( 'NONE', ( #303 ), #183 ) ;
#308 = AXIS2_PLACEMENT_3D ( 'NONE', #210, #341, #145 ) ;
#309 = CARTESIAN_POINT ( 'NONE',  ( -123.0558840210052836, 68.59868023986787477, 0.000000000000000000 ) ) ;
#310 =( NAMED_UNIT ( * ) PLANE_ANGLE_UNIT ( ) SI_UNIT ( $, .RADIAN. ) );
#311 = ORIENTED_EDGE ( 'NONE', *, *, #202, .F. ) ;
#312 = CLOSED_SHELL ( 'NONE', ( #360 ) ) ;
#313 = MECHANICAL_DESIGN_GEOMETRIC_PRESENTATION_REPRESENTATION (  '', ( #147 ), #262 ) ;
#314 = SURFACE_STYLE_FILL_AREA ( #139 ) ;
#315 = CYLINDRICAL_SURFACE ( 'NONE', #143, 27.32233250620344478 ) ;
#316 = DIRECTION ( 'NONE',  ( 1.000000000000000000, 4.046080116786000560E-16, 0.000000000000000000 ) ) ;
#317 = SURFACE_STYLE_FILL_AREA ( #187 ) ;
#318 = ADVANCED_FACE ( 'NONE', ( #4 ), #226, .T. ) ;
#319 = FILL_AREA_STYLE ('',( #23 ) ) ;
#320 = CARTESIAN_POINT ( 'NONE',  ( -279.6274786108853050, 68.59868023986784635, 0.000000000000000000 ) ) ;
#321 = STYLED_ITEM ( 'NONE', ( #102 ), #318 ) ;
#322 =( GEOMETRIC_REPRESENTATION_CONTEXT ( 3 ) GLOBAL_UNCERTAINTY_ASSIGNED_CONTEXT ( ( #221 ) ) GLOBAL_UNIT_ASSIGNED_CONTEXT ( ( #375, #16, #236 ) ) REPRESENTATION_CONTEXT ( 'NONE', 'WORKASPACE' ) );
#323 = DIRECTION ( 'NONE',  ( -0.000000000000000000, -1.000000000000000000, -0.000000000000000000 ) ) ;
#324 = COLOUR_RGB ( '',0.9098039215686274384, 0.4431372549019607643, 0.03137254901960784270 ) ;
#325 = CARTESIAN_POINT ( 'NONE',  ( 0.000000000000000000, -3.469446951953614189E-15, 0.000000000000000000 ) ) ;
#326 = PRESENTATION_STYLE_ASSIGNMENT (( #264 ) ) ;
#327 = ADVANCED_FACE ( 'NONE', ( #197 ), #257, .F. ) ;
#328 =( LENGTH_UNIT ( ) NAMED_UNIT ( * ) SI_UNIT ( .MILLI., .METRE. ) );
#329 =( LENGTH_UNIT ( ) NAMED_UNIT ( * ) SI_UNIT ( .MILLI., .METRE. ) );
#330 = AXIS2_PLACEMENT_3D ( 'NONE', #2, #323, #36 ) ;
#331 = SURFACE_STYLE_FILL_AREA ( #201 ) ;
#332 = CLOSED_SHELL ( 'NONE', ( #34 ) ) ;
#333 =( NAMED_UNIT ( * ) SI_UNIT ( $, .STERADIAN. ) SOLID_ANGLE_UNIT ( ) );
#334 = MECHANICAL_DESIGN_GEOMETRIC_PRESENTATION_REPRESENTATION (  '', ( #155 ), #177 ) ;
#335 = EDGE_LOOP ( 'NONE', ( #148, #416 ) ) ;
#336 = EDGE_CURVE ( 'NONE', #338, #338, #211, .T. ) ;
#337 = COLOUR_RGB ( '',1.000000000000000000, 1.000000000000000000, 0.000000000000000000 ) ;
#338 = VERTEX_POINT ( 'NONE', #309 ) ;
#339 =( NAMED_UNIT ( * ) PLANE_ANGLE_UNIT ( ) SI_UNIT ( $, .RADIAN. ) );
#340 = ORIENTED_EDGE ( 'NONE', *, *, #55, .T. ) ;
#341 = DIRECTION ( 'NONE',  ( 4.046080116786000560E-16, -1.000000000000000000, -0.000000000000000000 ) ) ;
#342 = DIRECTION ( 'NONE',  ( 4.046080116786000560E-16, -1.000000000000000000, -0.000000000000000000 ) ) ;
#343 = EDGE_LOOP ( 'NONE', ( #311, #373 ) ) ;
#344 = COLOUR_RGB ( '',1.000000000000000000, 0.000000000000000000, 0.000000000000000000 ) ;
#345 = CIRCLE ( 'NONE', #308, 27.32233250620347320 ) ;
#346 = DIRECTION ( 'NONE',  ( 4.046080116786000560E-16, -1.000000000000000000, -0.000000000000000000 ) ) ;
#347 = ORIENTED_EDGE ( 'NONE', *, *, #202, .T. ) ;
#348 =( NAMED_UNIT ( * ) PLANE_ANGLE_UNIT ( ) SI_UNIT ( $, .RADIAN. ) );
#349 = PRESENTATION_STYLE_ASSIGNMENT (( #419 ) ) ;
#350 = UNCERTAINTY_MEASURE_WITH_UNIT (LENGTH_MEASURE( 1.000000000000000082E-05 ), #7, 'distance_accuracy_value', 'NONE');
#351 = STYLED_ITEM ( 'NONE', ( #212 ), #166 ) ;
#352 = PRESENTATION_STYLE_ASSIGNMENT (( #217 ) ) ;
#353 =( NAMED_UNIT ( * ) SI_UNIT ( $, .STERADIAN. ) SOLID_ANGLE_UNIT ( ) );
#354 = DIRECTION ( 'NONE',  ( 1.000000000000000000, 4.046080116786000560E-16, 0.000000000000000000 ) ) ;
#355 = COLOUR_RGB ( '',0.9098039215686274384, 0.4431372549019607643, 0.03137254901960784270 ) ;
#356 = CARTESIAN_POINT ( 'NONE',  ( -150.3782165272087070, 68.59868023986786056, 0.000000000000000000 ) ) ;
#357 = DIRECTION ( 'NONE',  ( 4.046080116786000560E-16, -1.000000000000000000, -0.000000000000000000 ) ) ;
#358 = UNCERTAINTY_MEASURE_WITH_UNIT (LENGTH_MEASURE( 1.000000000000000082E-05 ), #278, 'distance_accuracy_value', 'NONE');
#359 = SURFACE_STYLE_FILL_AREA ( #159 ) ;
#360 = ADVANCED_FACE ( 'NONE', ( ), #110, .T. ) ;
#361 = CARTESIAN_POINT ( 'NONE',  ( -59.79593872408656097, -932.4084780810587745, 0.000000000000000000 ) ) ;
#362 = MECHANICAL_DESIGN_GEOMETRIC_PRESENTATION_REPRESENTATION (  '', ( #254 ), #174 ) ;
#363 = SURFACE_STYLE_FILL_AREA ( #228 ) ;
#364 = FILL_AREA_STYLE ('',( #194 ) ) ;
#365 = CARTESIAN_POINT ( 'NONE',  ( -224.9828135984784865, 68.59868023986787477, 0.000000000000000000 ) ) ;
#366 = PRESENTATION_LAYER_ASSIGNMENT (  '', '', ( #391 ) ) ;
#367 = CYLINDRICAL_SURFACE ( 'NONE', #403, 27.32233250620344478 ) ;
#368 = SURFACE_STYLE_USAGE ( .BOTH. , #402 ) ;
#369 = DIRECTION ( 'NONE',  ( 1.000000000000000000, 4.046080116786000560E-16, 0.000000000000000000 ) ) ;
#370 = FILL_AREA_STYLE_COLOUR ( '', #239 ) ;
#371 =( GEOMETRIC_REPRESENTATION_CONTEXT ( 3 ) GLOBAL_UNCERTAINTY_ASSIGNED_CONTEXT ( ( #397 ) ) GLOBAL_UNIT_ASSIGNED_CONTEXT ( ( #129, #72, #233 ) ) REPRESENTATION_CONTEXT ( 'NONE', 'WORKASPACE' ) );
#372 =( LENGTH_UNIT ( ) NAMED_UNIT ( * ) SI_UNIT ( .MILLI., .METRE. ) );
#373 = ORIENTED_EDGE ( 'NONE', *, *, #114, .F. ) ;
#374 = VECTOR ( 'NONE', #408, 1000.000000000000000 ) ;
#375 =( LENGTH_UNIT ( ) NAMED_UNIT ( * ) SI_UNIT ( .MILLI., .METRE. ) );
#376 = FACE_OUTER_BOUND ( 'NONE', #48, .T. ) ;
#377 = EDGE_LOOP ( 'NONE', ( #111 ) ) ;
#378 = CARTESIAN_POINT ( 'NONE',  ( 177.7005490334121589, 34.29934011993392318, 0.000000000000000000 ) ) ;
#379 =( LENGTH_UNIT ( ) NAMED_UNIT ( * ) SI_UNIT ( .MILLI., .METRE. ) );
#380 = EDGE_LOOP ( 'NONE', ( #238 ) ) ;
#381 = AXIS2_PLACEMENT_3D ( 'NONE', #361, #117, #417 ) ;
#382 = PRODUCT_DEFINITION_FORMATION_WITH_SPECIFIED_SOURCE ( 'ANY', '', #252, .NOT_KNOWN. ) ;
#383 = PRESENTATION_STYLE_ASSIGNMENT (( #157 ) ) ;
#384 = ORIENTED_EDGE ( 'NONE', *, *, #425, .F. ) ;
#385 = AXIS2_PLACEMENT_3D ( 'NONE', #249, #256, #64 ) ;
#386 =( LENGTH_UNIT ( ) NAMED_UNIT ( * ) SI_UNIT ( .MILLI., .METRE. ) );
#387 = SURFACE_SIDE_STYLE ('',( #151 ) ) ;
#388 = PRESENTATION_STYLE_ASSIGNMENT (( #130 ) ) ;
#389 = UNCERTAINTY_MEASURE_WITH_UNIT (LENGTH_MEASURE( 1.000000000000000082E-05 ), #206, 'distance_accuracy_value', 'NONE');
#390 =( GEOMETRIC_REPRESENTATION_CONTEXT ( 3 ) GLOBAL_UNCERTAINTY_ASSIGNED_CONTEXT ( ( #287 ) ) GLOBAL_UNIT_ASSIGNED_CONTEXT ( ( #379, #310, #274 ) ) REPRESENTATION_CONTEXT ( 'NONE', 'WORKASPACE' ) );
#391 = STYLED_ITEM ( 'NONE', ( #383 ), #229 ) ;
#392 = CARTESIAN_POINT ( 'NONE',  ( -252.3051461046819099, 68.59868023986786056, 0.000000000000000000 ) ) ;
#393 =( LENGTH_UNIT ( ) NAMED_UNIT ( * ) SI_UNIT ( .MILLI., .METRE. ) );
#394 = PRODUCT_DEFINITION_SHAPE ( 'NONE', 'NONE',  #90 ) ;
#395 = PRESENTATION_LAYER_ASSIGNMENT (  '', '', ( #180 ) ) ;
#396 = SURFACE_STYLE_USAGE ( .BOTH. , #59 ) ;
#397 = UNCERTAINTY_MEASURE_WITH_UNIT (LENGTH_MEASURE( 1.000000000000000082E-05 ), #129, 'distance_accuracy_value', 'NONE');
#398 = CARTESIAN_POINT ( 'NONE',  ( -252.3051461046819099, -4.088691596839861464E-16, 0.000000000000000000 ) ) ;
#399 = FACE_OUTER_BOUND ( 'NONE', #335, .T. ) ;
#400 = LINE ( 'NONE', #29, #85 ) ;
#401 = SURFACE_STYLE_FILL_AREA ( #364 ) ;
#402 = SURFACE_SIDE_STYLE ('',( #359 ) ) ;
#403 = AXIS2_PLACEMENT_3D ( 'NONE', #230, #5, #73 ) ;
#404 = PRESENTATION_STYLE_ASSIGNMENT (( #75 ) ) ;
#405 = AXIS2_PLACEMENT_3D ( 'NONE', #79, #44, #302 ) ;
#406 = ADVANCED_FACE ( 'NONE', ( #167 ), #141, .F. ) ;
#407 = DIRECTION ( 'NONE',  ( 4.046080116786000560E-16, -1.000000000000000000, -0.000000000000000000 ) ) ;
#408 = DIRECTION ( 'NONE',  ( 4.046080116786000560E-16, -1.000000000000000000, -0.000000000000000000 ) ) ;
#409 = SURFACE_SIDE_STYLE ('',( #269 ) ) ;
#410 = EDGE_LOOP ( 'NONE', ( #414, #207, #57, #347 ) ) ;
#411 = APPLICATION_PROTOCOL_DEFINITION ( 'draft international standard', 'automotive_design', 1998, #54 ) ;
#412 = DIRECTION ( 'NONE',  ( 1.000000000000000000, 4.046080116786000560E-16, 0.000000000000000000 ) ) ;
#413 =( GEOMETRIC_REPRESENTATION_CONTEXT ( 3 ) GLOBAL_UNCERTAINTY_ASSIGNED_CONTEXT ( ( #284 ) ) GLOBAL_UNIT_ASSIGNED_CONTEXT ( ( #91, #216, #353 ) ) REPRESENTATION_CONTEXT ( 'NONE', 'WORKASPACE' ) );
#414 = ORIENTED_EDGE ( 'NONE', *, *, #261, .F. ) ;
#415 = CARTESIAN_POINT ( 'NONE',  ( -150.3782165272086786, 1.105483462975656834E-14, 0.000000000000000000 ) ) ;
#416 = ORIENTED_EDGE ( 'NONE', *, *, #425, .T. ) ;
#417 = DIRECTION ( 'NONE',  ( 0.000000000000000000, 0.000000000000000000, -1.000000000000000000 ) ) ;
#418 = MECHANICAL_DESIGN_GEOMETRIC_PRESENTATION_REPRESENTATION (  '', ( #307 ), #293 ) ;
#419 = SURFACE_STYLE_USAGE ( .BOTH. , #63 ) ;
#420 = FILL_AREA_STYLE_COLOUR ( '', #22 ) ;
#421 = UNCERTAINTY_MEASURE_WITH_UNIT (LENGTH_MEASURE( 1.000000000000000082E-05 ), #134, 'distance_accuracy_value', 'NONE');
#422 = STYLED_ITEM ( 'NONE', ( #352 ), #40 ) ;
#423 = EDGE_CURVE ( 'NONE', #140, #245, #137, .T. ) ;
#424 = CARTESIAN_POINT ( 'NONE',  ( 5.226482373249980788E-13, 68.59868023986780372, 0.000000000000000000 ) ) ;
#425 = EDGE_CURVE ( 'NONE', #245, #140, #345, .T. ) ;
#426 =( NAMED_UNIT ( * ) SI_UNIT ( $, .STERADIAN. ) SOLID_ANGLE_UNIT ( ) );
#427 =( NAMED_UNIT ( * ) PLANE_ANGLE_UNIT ( ) SI_UNIT ( $, .RADIAN. ) );
ENDSEC;
END-ISO-10303-21;
