ISO-10303-21;
HEADER;
FILE_DESCRIPTION (( 'STEP AP214' ),
    '1' );
FILE_NAME ('C7_periodic__ap214_nosplit.step',
    '2026-08-06T13:09:29',
    ( '' ),
    ( '' ),
    'SwSTEP 2.0',
    'SolidWorks 2026',
    '' );
FILE_SCHEMA (( 'AUTOMOTIVE_DESIGN' ));
ENDSEC;

DATA;
#1 = UNCERTAINTY_MEASURE_WITH_UNIT (LENGTH_MEASURE( 1.000000000000000082E-05 ), #303, 'distance_accuracy_value', 'NONE');
#2 = DIRECTION ( 'NONE',  ( 4.046080116786000560E-16, -1.000000000000000000, -0.000000000000000000 ) ) ;
#3 = DIRECTION ( 'NONE',  ( 0.000000000000000000, 0.000000000000000000, -1.000000000000000000 ) ) ;
#4 = FILL_AREA_STYLE ('',( #129 ) ) ;
#5 =( GEOMETRIC_REPRESENTATION_CONTEXT ( 3 ) GLOBAL_UNCERTAINTY_ASSIGNED_CONTEXT ( ( #356 ) ) GLOBAL_UNIT_ASSIGNED_CONTEXT ( ( #345, #123, #353 ) ) REPRESENTATION_CONTEXT ( 'NONE', 'WORKASPACE' ) );
#6 = PRESENTATION_LAYER_ASSIGNMENT (  '', '', ( #185 ) ) ;
#7 = DIRECTION ( 'NONE',  ( 1.000000000000000000, 5.079283697562631313E-16, 0.000000000000000000 ) ) ;
#8 = DIRECTION ( 'NONE',  ( 1.000000000000000000, 4.046080116786000560E-16, 0.000000000000000000 ) ) ;
#9 = CARTESIAN_POINT ( 'NONE',  ( -252.3051461046819099, 1.105483462975656834E-14, 0.000000000000000000 ) ) ;
#10 = DIRECTION ( 'NONE',  ( 4.046080116786000560E-16, -1.000000000000000000, -0.000000000000000000 ) ) ;
#11 = MANIFOLD_SOLID_BREP ( 'Revolve1', #166 ) ;
#12 = SURFACE_SIDE_STYLE ('',( #71 ) ) ;
#13 = SURFACE_STYLE_USAGE ( .BOTH. , #271 ) ;
#14 = MECHANICAL_DESIGN_GEOMETRIC_PRESENTATION_REPRESENTATION (  '', ( #427 ), #233 ) ;
#15 = DIRECTION ( 'NONE',  ( 4.046080116786000560E-16, -1.000000000000000000, -0.000000000000000000 ) ) ;
#16 =( LENGTH_UNIT ( ) NAMED_UNIT ( * ) SI_UNIT ( .MILLI., .METRE. ) );
#17 = VERTEX_POINT ( 'NONE', #394 ) ;
#18 = DIRECTION ( 'NONE',  ( 4.046080116786000560E-16, -1.000000000000000000, -0.000000000000000000 ) ) ;
#19 = FILL_AREA_STYLE ('',( #177 ) ) ;
#20 = VERTEX_POINT ( 'NONE', #323 ) ;
#21 = STYLED_ITEM ( 'NONE', ( #331 ), #11 ) ;
#22 = APPLICATION_PROTOCOL_DEFINITION ( 'draft international standard', 'automotive_design', 1998, #381 ) ;
#23 = SURFACE_STYLE_FILL_AREA ( #19 ) ;
#24 = DIRECTION ( 'NONE',  ( 1.000000000000000000, 5.079283697562631313E-16, 0.000000000000000000 ) ) ;
#25 = PRESENTATION_LAYER_ASSIGNMENT (  '', '', ( #354 ) ) ;
#26 = FACE_OUTER_BOUND ( 'NONE', #272, .T. ) ;
#27 = UNCERTAINTY_MEASURE_WITH_UNIT (LENGTH_MEASURE( 1.000000000000000082E-05 ), #37, 'distance_accuracy_value', 'NONE');
#28 = STYLED_ITEM ( 'NONE', ( #301 ), #116 ) ;
#29 = SURFACE_STYLE_USAGE ( .BOTH. , #355 ) ;
#30 = SHAPE_DEFINITION_REPRESENTATION ( #64, #247 ) ;
#31 =( LENGTH_UNIT ( ) NAMED_UNIT ( * ) SI_UNIT ( .MILLI., .METRE. ) );
#32 = UNCERTAINTY_MEASURE_WITH_UNIT (LENGTH_MEASURE( 1.000000000000000082E-05 ), #250, 'distance_accuracy_value', 'NONE');
#33 = PRESENTATION_STYLE_ASSIGNMENT (( #244 ) ) ;
#34 = ADVANCED_FACE ( 'NONE', ( #26, #224 ), #415, .T. ) ;
#35 = CLOSED_SHELL ( 'NONE', ( #192, #176 ) ) ;
#36 = AXIS2_PLACEMENT_3D ( 'NONE', #361, #68, #193 ) ;
#37 =( LENGTH_UNIT ( ) NAMED_UNIT ( * ) SI_UNIT ( .MILLI., .METRE. ) );
#38 =( NAMED_UNIT ( * ) PLANE_ANGLE_UNIT ( ) SI_UNIT ( $, .RADIAN. ) );
#39 = ADVANCED_FACE ( 'NONE', ( #257 ), #221, .T. ) ;
#40 = UNCERTAINTY_MEASURE_WITH_UNIT (LENGTH_MEASURE( 1.000000000000000082E-05 ), #169, 'distance_accuracy_value', 'NONE');
#41 = COLOUR_RGB ( '',0.000000000000000000, 1.000000000000000000, 1.000000000000000000 ) ;
#42 = CONICAL_SURFACE ( 'NONE', #188, 404.2272126816378659, 0.3841452057184321367 ) ;
#43 = CARTESIAN_POINT ( 'NONE',  ( -252.3051461046819099, -4.088691596839861464E-16, 0.000000000000000000 ) ) ;
#44 = EDGE_CURVE ( 'NONE', #52, #52, #131, .T. ) ;
#45 = SURFACE_STYLE_USAGE ( .BOTH. , #344 ) ;
#46 = DIRECTION ( 'NONE',  ( -1.000000000000000000, 4.046080116785987741E-16, 0.000000000000000000 ) ) ;
#47 = CIRCLE ( 'NONE', #171, 27.32233250620347320 ) ;
#48 = MECHANICAL_DESIGN_GEOMETRIC_PRESENTATION_REPRESENTATION (  '', ( #246 ), #305 ) ;
#49 = ORIENTED_EDGE ( 'NONE', *, *, #325, .F. ) ;
#50 = FILL_AREA_STYLE ('',( #352 ) ) ;
#51 = ORIENTED_EDGE ( 'NONE', *, *, #325, .T. ) ;
#52 = VERTEX_POINT ( 'NONE', #146 ) ;
#53 = PRODUCT_DEFINITION ( 'UNKNOWN', '', #204, #65 ) ;
#54 = COLOUR_RGB ( '',0.000000000000000000, 1.000000000000000000, 0.000000000000000000 ) ;
#55 = EDGE_LOOP ( 'NONE', ( #388 ) ) ;
#56 =( GEOMETRIC_REPRESENTATION_CONTEXT ( 3 ) GLOBAL_UNCERTAINTY_ASSIGNED_CONTEXT ( ( #137 ) ) GLOBAL_UNIT_ASSIGNED_CONTEXT ( ( #165, #251, #255 ) ) REPRESENTATION_CONTEXT ( 'NONE', 'WORKASPACE' ) );
#57 = DIRECTION ( 'NONE',  ( -0.000000000000000000, -1.000000000000000000, -0.000000000000000000 ) ) ;
#58 = ORIENTED_EDGE ( 'NONE', *, *, #173, .F. ) ;
#59 = PLANE ( 'NONE',  #103 ) ;
#60 = SURFACE_STYLE_FILL_AREA ( #423 ) ;
#61 = EDGE_CURVE ( 'NONE', #17, #20, #299, .T. ) ;
#62 = DIRECTION ( 'NONE',  ( 0.000000000000000000, 1.000000000000000000, 0.000000000000000000 ) ) ;
#63 = CIRCLE ( 'NONE', #399, 27.32233250620341636 ) ;
#64 = PRODUCT_DEFINITION_SHAPE ( 'NONE', 'NONE',  #53 ) ;
#65 = PRODUCT_DEFINITION_CONTEXT ( 'detailed design', #381, 'design' ) ;
#66 = CARTESIAN_POINT ( 'NONE',  ( 0.000000000000000000, -3.469446951953614189E-15, 0.000000000000000000 ) ) ;
#67 = CARTESIAN_POINT ( 'NONE',  ( 0.000000000000000000, 0.000000000000000000, 0.000000000000000000 ) ) ;
#68 = DIRECTION ( 'NONE',  ( 4.046080116786000560E-16, -1.000000000000000000, -0.000000000000000000 ) ) ;
#69 = UNCERTAINTY_MEASURE_WITH_UNIT (LENGTH_MEASURE( 1.000000000000000082E-05 ), #337, 'distance_accuracy_value', 'NONE');
#70 = FILL_AREA_STYLE_COLOUR ( '', #213 ) ;
#71 = SURFACE_STYLE_FILL_AREA ( #290 ) ;
#72 = MECHANICAL_DESIGN_GEOMETRIC_PRESENTATION_REPRESENTATION (  '', ( #333 ), #253 ) ;
#73 = AXIS2_PLACEMENT_3D ( 'NONE', #9, #369, #199 ) ;
#74 = CARTESIAN_POINT ( 'NONE',  ( -252.3051461046819099, 68.59868023986786056, 0.000000000000000000 ) ) ;
#75 = DIRECTION ( 'NONE',  ( 4.046080116786000560E-16, -1.000000000000000000, -0.000000000000000000 ) ) ;
#76 =( LENGTH_UNIT ( ) NAMED_UNIT ( * ) SI_UNIT ( .MILLI., .METRE. ) );
#77 = DIRECTION ( 'NONE',  ( 4.046080116786000560E-16, -1.000000000000000000, -0.000000000000000000 ) ) ;
#78 =( GEOMETRIC_REPRESENTATION_CONTEXT ( 3 ) GLOBAL_UNCERTAINTY_ASSIGNED_CONTEXT ( ( #197 ) ) GLOBAL_UNIT_ASSIGNED_CONTEXT ( ( #187, #155, #254 ) ) REPRESENTATION_CONTEXT ( 'NONE', 'WORKASPACE' ) );
#79 = STYLED_ITEM ( 'NONE', ( #340 ), #329 ) ;
#80 = SURFACE_STYLE_USAGE ( .BOTH. , #106 ) ;
#81 = SURFACE_STYLE_FILL_AREA ( #372 ) ;
#82 =( NAMED_UNIT ( * ) PLANE_ANGLE_UNIT ( ) SI_UNIT ( $, .RADIAN. ) );
#83 = ADVANCED_FACE ( 'NONE', ( #200 ), #102, .F. ) ;
#84 = ORIENTED_EDGE ( 'NONE', *, *, #173, .T. ) ;
#85 = PRESENTATION_LAYER_ASSIGNMENT (  '', '', ( #333 ) ) ;
#86 =( LENGTH_UNIT ( ) NAMED_UNIT ( * ) SI_UNIT ( .MILLI., .METRE. ) );
#87 = DIRECTION ( 'NONE',  ( -1.000000000000000000, -4.046080116785989713E-16, 0.000000000000000000 ) ) ;
#88 = EDGE_LOOP ( 'NONE', ( #154 ) ) ;
#89 = DIRECTION ( 'NONE',  ( 0.000000000000000000, 0.000000000000000000, 1.000000000000000000 ) ) ;
#90 = SURFACE_SIDE_STYLE ('',( #96 ) ) ;
#91 = VECTOR ( 'NONE', #201, 1000.000000000000000 ) ;
#92 = PRODUCT_RELATED_PRODUCT_CATEGORY ( 'part', '', ( #324 ) ) ;
#93 = PRESENTATION_STYLE_ASSIGNMENT (( #357 ) ) ;
#94 = FILL_AREA_STYLE_COLOUR ( '', #180 ) ;
#95 = UNCERTAINTY_MEASURE_WITH_UNIT (LENGTH_MEASURE( 1.000000000000000082E-05 ), #406, 'distance_accuracy_value', 'NONE');
#96 = SURFACE_STYLE_FILL_AREA ( #330 ) ;
#97 =( LENGTH_UNIT ( ) NAMED_UNIT ( * ) SI_UNIT ( .MILLI., .METRE. ) );
#98 = EDGE_CURVE ( 'NONE', #375, #375, #162, .T. ) ;
#99 = AXIS2_PLACEMENT_3D ( 'NONE', #107, #10, #168 ) ;
#100 = CARTESIAN_POINT ( 'NONE',  ( -150.3782165272086786, -4.088691596839861464E-16, 0.000000000000000000 ) ) ;
#101 = SURFACE_STYLE_FILL_AREA ( #153 ) ;
#102 = PLANE ( 'NONE',  #240 ) ;
#103 = AXIS2_PLACEMENT_3D ( 'NONE', #66, #62, #386 ) ;
#104 =( GEOMETRIC_REPRESENTATION_CONTEXT ( 3 ) GLOBAL_UNCERTAINTY_ASSIGNED_CONTEXT ( ( #218 ) ) GLOBAL_UNIT_ASSIGNED_CONTEXT ( ( #311, #374, #207 ) ) REPRESENTATION_CONTEXT ( 'NONE', 'WORKASPACE' ) );
#105 = MECHANICAL_DESIGN_GEOMETRIC_PRESENTATION_REPRESENTATION (  '', ( #227 ), #350 ) ;
#106 = SURFACE_SIDE_STYLE ('',( #398 ) ) ;
#107 = CARTESIAN_POINT ( 'NONE',  ( -101.9269295774732029, 6.637164850372618952E-14, 0.000000000000000000 ) ) ;
#108 = SURFACE_STYLE_USAGE ( .BOTH. , #223 ) ;
#109 = SURFACE_STYLE_FILL_AREA ( #132 ) ;
#110 = FILL_AREA_STYLE_COLOUR ( '', #210 ) ;
#111 = COLOUR_RGB ( '',1.000000000000000000, 1.000000000000000000, 0.000000000000000000 ) ;
#112 = ADVANCED_FACE ( 'NONE', ( #401 ), #268, .T. ) ;
#113 = FILL_AREA_STYLE ('',( #119 ) ) ;
#114 =( GEOMETRIC_REPRESENTATION_CONTEXT ( 3 ) GLOBAL_UNCERTAINTY_ASSIGNED_CONTEXT ( ( #69 ) ) GLOBAL_UNIT_ASSIGNED_CONTEXT ( ( #337, #38, #235 ) ) REPRESENTATION_CONTEXT ( 'NONE', 'WORKASPACE' ) );
#115 = CARTESIAN_POINT ( 'NONE',  ( -59.79593872408656097, -6.938893903907228378E-15, -27.32233250620347320 ) ) ;
#116 = ADVANCED_FACE ( 'NONE', ( ), #395, .T. ) ;
#117 = AXIS2_PLACEMENT_3D ( 'NONE', #412, #378, #87 ) ;
#118 =( GEOMETRIC_REPRESENTATION_CONTEXT ( 3 ) GLOBAL_UNCERTAINTY_ASSIGNED_CONTEXT ( ( #332 ) ) GLOBAL_UNIT_ASSIGNED_CONTEXT ( ( #86, #318, #145 ) ) REPRESENTATION_CONTEXT ( 'NONE', 'WORKASPACE' ) );
#119 = FILL_AREA_STYLE_COLOUR ( '', #315 ) ;
#120 = FILL_AREA_STYLE_COLOUR ( '', #54 ) ;
#121 = PRESENTATION_LAYER_ASSIGNMENT (  '', '', ( #246 ) ) ;
#122 = FILL_AREA_STYLE_COLOUR ( '', #288 ) ;
#123 =( NAMED_UNIT ( * ) PLANE_ANGLE_UNIT ( ) SI_UNIT ( $, .RADIAN. ) );
#124 = PRESENTATION_LAYER_ASSIGNMENT (  '', '', ( #379 ) ) ;
#125 = SURFACE_STYLE_USAGE ( .BOTH. , #90 ) ;
#126 = COLOUR_RGB ( '',0.9098039215686274384, 0.4431372549019607643, 0.03137254901960784270 ) ;
#127 = SURFACE_STYLE_USAGE ( .BOTH. , #128 ) ;
#128 = SURFACE_SIDE_STYLE ('',( #60 ) ) ;
#129 = FILL_AREA_STYLE_COLOUR ( '', #426 ) ;
#130 = CIRCLE ( 'NONE', #225, 27.32233250620347320 ) ;
#131 = CIRCLE ( 'NONE', #373, 27.32233250620341636 ) ;
#132 = FILL_AREA_STYLE ('',( #70 ) ) ;
#133 = DIRECTION ( 'NONE',  ( 1.000000000000000000, 4.046080116786000560E-16, 0.000000000000000000 ) ) ;
#134 = EDGE_CURVE ( 'NONE', #184, #184, #47, .T. ) ;
#135 = CARTESIAN_POINT ( 'NONE',  ( -252.3051461046819099, 1.105483462975656834E-14, 0.000000000000000000 ) ) ;
#136 = PRESENTATION_STYLE_ASSIGNMENT (( #142 ) ) ;
#137 = UNCERTAINTY_MEASURE_WITH_UNIT (LENGTH_MEASURE( 1.000000000000000082E-05 ), #165, 'distance_accuracy_value', 'NONE');
#138 = PRESENTATION_LAYER_ASSIGNMENT (  '', '', ( #150 ) ) ;
#139 = STYLED_ITEM ( 'NONE', ( #292 ), #83 ) ;
#140 = FILL_AREA_STYLE_COLOUR ( '', #41 ) ;
#141 = SURFACE_SIDE_STYLE ('',( #368 ) ) ;
#142 = SURFACE_STYLE_USAGE ( .BOTH. , #141 ) ;
#143 = COLOUR_RGB ( '',1.000000000000000000, 0.000000000000000000, 0.000000000000000000 ) ;
#144 = MECHANICAL_DESIGN_GEOMETRIC_PRESENTATION_REPRESENTATION (  '', ( #302 ), #220 ) ;
#145 =( NAMED_UNIT ( * ) SI_UNIT ( $, .STERADIAN. ) SOLID_ANGLE_UNIT ( ) );
#146 = CARTESIAN_POINT ( 'NONE',  ( -123.0558840210052836, 68.59868023986787477, 0.000000000000000000 ) ) ;
#147 = ORIENTED_EDGE ( 'NONE', *, *, #249, .T. ) ;
#148 = SPHERICAL_SURFACE ( 'NONE', #117, 34.29934011993392318 ) ;
#149 = VERTEX_POINT ( 'NONE', #306 ) ;
#150 = STYLED_ITEM ( 'NONE', ( #308 ), #362 ) ;
#151 =( NAMED_UNIT ( * ) SI_UNIT ( $, .STERADIAN. ) SOLID_ANGLE_UNIT ( ) );
#152 = SURFACE_STYLE_FILL_AREA ( #312 ) ;
#153 = FILL_AREA_STYLE ('',( #122 ) ) ;
#154 = ORIENTED_EDGE ( 'NONE', *, *, #44, .F. ) ;
#155 =( NAMED_UNIT ( * ) PLANE_ANGLE_UNIT ( ) SI_UNIT ( $, .RADIAN. ) );
#156 = MANIFOLD_SOLID_BREP ( 'Revolve2', #35 ) ;
#157 = MANIFOLD_SOLID_BREP ( 'Split Line2', #172 ) ;
#158 = MANIFOLD_SOLID_BREP ( 'Revolve3', #316 ) ;
#159 = MECHANICAL_DESIGN_GEOMETRIC_PRESENTATION_REPRESENTATION (  '', ( #150 ), #5 ) ;
#160 = FILL_AREA_STYLE_COLOUR ( '', #111 ) ;
#161 = FILL_AREA_STYLE_COLOUR ( '', #126 ) ;
#162 = CIRCLE ( 'NONE', #382, 27.32233250620347320 ) ;
#163 = MANIFOLD_SOLID_BREP ( 'Revolve4', #263 ) ;
#164 = CARTESIAN_POINT ( 'NONE',  ( -59.79593872408656097, -932.4084780810587745, 0.000000000000000000 ) ) ;
#165 =( LENGTH_UNIT ( ) NAMED_UNIT ( * ) SI_UNIT ( .MILLI., .METRE. ) );
#166 = CLOSED_SHELL ( 'NONE', ( #34, #362, #83 ) ) ;
#167 = CYLINDRICAL_SURFACE ( 'NONE', #295, 27.32233250620344478 ) ;
#168 = DIRECTION ( 'NONE',  ( 1.000000000000000000, 4.046080116786000560E-16, 0.000000000000000000 ) ) ;
#169 =( LENGTH_UNIT ( ) NAMED_UNIT ( * ) SI_UNIT ( .MILLI., .METRE. ) );
#170 = SURFACE_STYLE_USAGE ( .BOTH. , #12 ) ;
#171 = AXIS2_PLACEMENT_3D ( 'NONE', #266, #18, #417 ) ;
#172 = CLOSED_SHELL ( 'NONE', ( #262, #39, #112, #245 ) ) ;
#173 = EDGE_CURVE ( 'NONE', #20, #418, #63, .T. ) ;
#174 = CARTESIAN_POINT ( 'NONE',  ( -279.6274786108853050, -1.146370378944054438E-14, 0.000000000000000000 ) ) ;
#175 = DIRECTION ( 'NONE',  ( 4.046080116786000560E-16, -1.000000000000000000, -0.000000000000000000 ) ) ;
#176 = ADVANCED_FACE ( 'NONE', ( #280 ), #59, .F. ) ;
#177 = FILL_AREA_STYLE_COLOUR ( '', #405 ) ;
#178 = AXIS2_PLACEMENT_3D ( 'NONE', #277, #242, #46 ) ;
#179 =( GEOMETRIC_REPRESENTATION_CONTEXT ( 3 ) GLOBAL_UNCERTAINTY_ASSIGNED_CONTEXT ( ( #95 ) ) GLOBAL_UNIT_ASSIGNED_CONTEXT ( ( #406, #82, #151 ) ) REPRESENTATION_CONTEXT ( 'NONE', 'WORKASPACE' ) );
#180 = COLOUR_RGB ( '',1.000000000000000000, 0.000000000000000000, 0.000000000000000000 ) ;
#181 = APPLICATION_PROTOCOL_DEFINITION ( 'draft international standard', 'automotive_design', 1998, #327 ) ;
#182 =( NAMED_UNIT ( * ) SI_UNIT ( $, .STERADIAN. ) SOLID_ANGLE_UNIT ( ) );
#183 = EDGE_LOOP ( 'NONE', ( #310, #270, #243, #51 ) ) ;
#184 = VERTEX_POINT ( 'NONE', #273 ) ;
#185 = STYLED_ITEM ( 'NONE', ( #425 ), #192 ) ;
#186 = ORIENTED_EDGE ( 'NONE', *, *, #61, .T. ) ;
#187 =( LENGTH_UNIT ( ) NAMED_UNIT ( * ) SI_UNIT ( .MILLI., .METRE. ) );
#188 = AXIS2_PLACEMENT_3D ( 'NONE', #164, #57, #283 ) ;
#189 = PRODUCT_CONTEXT ( 'NONE', #327, 'mechanical' ) ;
#190 = SURFACE_STYLE_FILL_AREA ( #358 ) ;
#191 = CARTESIAN_POINT ( 'NONE',  ( -252.3051461046819099, 68.59868023986786056, 0.000000000000000000 ) ) ;
#192 = ADVANCED_FACE ( 'NONE', ( #419 ), #42, .T. ) ;
#193 = DIRECTION ( 'NONE',  ( 1.000000000000000000, 4.046080116786000560E-16, 0.000000000000000000 ) ) ;
#194 = MECHANICAL_DESIGN_GEOMETRIC_PRESENTATION_REPRESENTATION (  '', ( #347 ), #118 ) ;
#195 =( NAMED_UNIT ( * ) SI_UNIT ( $, .STERADIAN. ) SOLID_ANGLE_UNIT ( ) );
#196 = PRESENTATION_LAYER_ASSIGNMENT (  '', '', ( #79 ) ) ;
#197 = UNCERTAINTY_MEASURE_WITH_UNIT (LENGTH_MEASURE( 1.000000000000000082E-05 ), #187, 'distance_accuracy_value', 'NONE');
#198 = PRESENTATION_LAYER_ASSIGNMENT (  '', '', ( #21 ) ) ;
#199 = DIRECTION ( 'NONE',  ( 1.000000000000000000, 4.046080116786000560E-16, 0.000000000000000000 ) ) ;
#200 = FACE_OUTER_BOUND ( 'NONE', #88, .T. ) ;
#201 = DIRECTION ( 'NONE',  ( -4.046080116786000560E-16, 1.000000000000000000, 0.000000000000000000 ) ) ;
#202 = FACE_OUTER_BOUND ( 'NONE', #314, .T. ) ;
#203 = MECHANICAL_DESIGN_GEOMETRIC_PRESENTATION_REPRESENTATION (  '', ( #379 ), #286 ) ;
#204 = PRODUCT_DEFINITION_FORMATION_WITH_SPECIFIED_SOURCE ( 'ANY', '', #324, .NOT_KNOWN. ) ;
#205 = SURFACE_STYLE_USAGE ( .BOTH. , #265 ) ;
#206 = FILL_AREA_STYLE ('',( #228 ) ) ;
#207 =( NAMED_UNIT ( * ) SI_UNIT ( $, .STERADIAN. ) SOLID_ANGLE_UNIT ( ) );
#208 = SURFACE_SIDE_STYLE ('',( #309 ) ) ;
#209 = MECHANICAL_DESIGN_GEOMETRIC_PRESENTATION_REPRESENTATION (  '', ( #185 ), #219 ) ;
#210 = COLOUR_RGB ( '',0.000000000000000000, 1.000000000000000000, 0.000000000000000000 ) ;
#211 = PRESENTATION_STYLE_ASSIGNMENT (( #13 ) ) ;
#212 = EDGE_LOOP ( 'NONE', ( #319 ) ) ;
#213 = COLOUR_RGB ( '',1.000000000000000000, 0.000000000000000000, 0.000000000000000000 ) ;
#214 =( NAMED_UNIT ( * ) SI_UNIT ( $, .STERADIAN. ) SOLID_ANGLE_UNIT ( ) );
#215 = AXIS2_PLACEMENT_3D ( 'NONE', #100, #217, #133 ) ;
#216 = SURFACE_STYLE_USAGE ( .BOTH. , #363 ) ;
#217 = DIRECTION ( 'NONE',  ( 4.046080116786000560E-16, -1.000000000000000000, -0.000000000000000000 ) ) ;
#218 = UNCERTAINTY_MEASURE_WITH_UNIT (LENGTH_MEASURE( 1.000000000000000082E-05 ), #311, 'distance_accuracy_value', 'NONE');
#219 =( GEOMETRIC_REPRESENTATION_CONTEXT ( 3 ) GLOBAL_UNCERTAINTY_ASSIGNED_CONTEXT ( ( #393 ) ) GLOBAL_UNIT_ASSIGNED_CONTEXT ( ( #391, #326, #281 ) ) REPRESENTATION_CONTEXT ( 'NONE', 'WORKASPACE' ) );
#220 =( GEOMETRIC_REPRESENTATION_CONTEXT ( 3 ) GLOBAL_UNCERTAINTY_ASSIGNED_CONTEXT ( ( #40 ) ) GLOBAL_UNIT_ASSIGNED_CONTEXT ( ( #169, #404, #338 ) ) REPRESENTATION_CONTEXT ( 'NONE', 'WORKASPACE' ) );
#221 = CYLINDRICAL_SURFACE ( 'NONE', #36, 27.32233250620344478 ) ;
#222 = MECHANICAL_DESIGN_GEOMETRIC_PRESENTATION_REPRESENTATION (  '', ( #139 ), #114 ) ;
#223 = SURFACE_SIDE_STYLE ('',( #402 ) ) ;
#224 = FACE_OUTER_BOUND ( 'NONE', #304, .T. ) ;
#225 = AXIS2_PLACEMENT_3D ( 'NONE', #135, #336, #367 ) ;
#226 =( NAMED_UNIT ( * ) SI_UNIT ( $, .STERADIAN. ) SOLID_ANGLE_UNIT ( ) );
#227 = STYLED_ITEM ( 'NONE', ( #392 ), #34 ) ;
#228 = FILL_AREA_STYLE_COLOUR ( '', #389 ) ;
#229 =( NAMED_UNIT ( * ) PLANE_ANGLE_UNIT ( ) SI_UNIT ( $, .RADIAN. ) );
#230 = FACE_OUTER_BOUND ( 'NONE', #377, .T. ) ;
#231 = DIRECTION ( 'NONE',  ( 1.000000000000000000, 5.079283697562631313E-16, 0.000000000000000000 ) ) ;
#232 =( GEOMETRIC_REPRESENTATION_CONTEXT ( 3 ) GLOBAL_UNCERTAINTY_ASSIGNED_CONTEXT ( ( #1 ) ) GLOBAL_UNIT_ASSIGNED_CONTEXT ( ( #303, #269, #385 ) ) REPRESENTATION_CONTEXT ( 'NONE', 'WORKASPACE' ) );
#233 =( GEOMETRIC_REPRESENTATION_CONTEXT ( 3 ) GLOBAL_UNCERTAINTY_ASSIGNED_CONTEXT ( ( #27 ) ) GLOBAL_UNIT_ASSIGNED_CONTEXT ( ( #37, #229, #226 ) ) REPRESENTATION_CONTEXT ( 'NONE', 'WORKASPACE' ) );
#234 = CARTESIAN_POINT ( 'NONE',  ( -224.9828135984784865, 68.59868023986787477, 0.000000000000000000 ) ) ;
#235 =( NAMED_UNIT ( * ) SI_UNIT ( $, .STERADIAN. ) SOLID_ANGLE_UNIT ( ) );
#236 = ORIENTED_EDGE ( 'NONE', *, *, #134, .F. ) ;
#237 =( NAMED_UNIT ( * ) PLANE_ANGLE_UNIT ( ) SI_UNIT ( $, .RADIAN. ) );
#238 = STYLED_ITEM ( 'NONE', ( #348 ), #157 ) ;
#239 = ORIENTED_EDGE ( 'NONE', *, *, #134, .T. ) ;
#240 = AXIS2_PLACEMENT_3D ( 'NONE', #335, #259, #8 ) ;
#241 = SURFACE_SIDE_STYLE ('',( #410 ) ) ;
#242 = DIRECTION ( 'NONE',  ( 4.046080116785987248E-16, 1.000000000000000000, -0.000000000000000000 ) ) ;
#243 = ORIENTED_EDGE ( 'NONE', *, *, #267, .F. ) ;
#244 = SURFACE_STYLE_USAGE ( .BOTH. , #276 ) ;
#245 = ADVANCED_FACE ( 'NONE', ( #424 ), #284, .F. ) ;
#246 = STYLED_ITEM ( 'NONE', ( #321 ), #39 ) ;
#247 = ADVANCED_BREP_SHAPE_REPRESENTATION ( 'C7_periodic__ap214_nosplit', ( #11, #156, #158, #163, #157, #349 ), #104 ) ;
#248 = DIRECTION ( 'NONE',  ( 1.000000000000000000, 0.000000000000000000, 0.000000000000000000 ) ) ;
#249 = EDGE_CURVE ( 'NONE', #149, #17, #130, .T. ) ;
#250 =( LENGTH_UNIT ( ) NAMED_UNIT ( * ) SI_UNIT ( .MILLI., .METRE. ) );
#251 =( NAMED_UNIT ( * ) PLANE_ANGLE_UNIT ( ) SI_UNIT ( $, .RADIAN. ) );
#252 = SURFACE_STYLE_FILL_AREA ( #322 ) ;
#253 =( GEOMETRIC_REPRESENTATION_CONTEXT ( 3 ) GLOBAL_UNCERTAINTY_ASSIGNED_CONTEXT ( ( #282 ) ) GLOBAL_UNIT_ASSIGNED_CONTEXT ( ( #76, #343, #195 ) ) REPRESENTATION_CONTEXT ( 'NONE', 'WORKASPACE' ) );
#254 =( NAMED_UNIT ( * ) SI_UNIT ( $, .STERADIAN. ) SOLID_ANGLE_UNIT ( ) );
#255 =( NAMED_UNIT ( * ) SI_UNIT ( $, .STERADIAN. ) SOLID_ANGLE_UNIT ( ) );
#256 = PRESENTATION_LAYER_ASSIGNMENT (  '', '', ( #227 ) ) ;
#257 = FACE_OUTER_BOUND ( 'NONE', #183, .T. ) ;
#258 = LINE ( 'NONE', #294, #366 ) ;
#259 = DIRECTION ( 'NONE',  ( 4.046080116786000560E-16, -1.000000000000000000, -0.000000000000000000 ) ) ;
#260 = MECHANICAL_DESIGN_GEOMETRIC_PRESENTATION_REPRESENTATION (  '', ( #354 ), #78 ) ;
#261 = CARTESIAN_POINT ( 'NONE',  ( -101.9269295774726771, 68.59868023986780372, 0.000000000000000000 ) ) ;
#262 = ADVANCED_FACE ( 'NONE', ( #230 ), #167, .T. ) ;
#263 = CLOSED_SHELL ( 'NONE', ( #329 ) ) ;
#264 = FILL_AREA_STYLE ('',( #140 ) ) ;
#265 = SURFACE_SIDE_STYLE ('',( #109 ) ) ;
#266 = CARTESIAN_POINT ( 'NONE',  ( -150.3782165272086786, 1.105483462975656834E-14, 0.000000000000000000 ) ) ;
#267 = EDGE_CURVE ( 'NONE', #418, #149, #258, .T. ) ;
#268 = PLANE ( 'NONE',  #99 ) ;
#269 =( NAMED_UNIT ( * ) PLANE_ANGLE_UNIT ( ) SI_UNIT ( $, .RADIAN. ) );
#270 = ORIENTED_EDGE ( 'NONE', *, *, #249, .F. ) ;
#271 = SURFACE_SIDE_STYLE ('',( #23 ) ) ;
#272 = EDGE_LOOP ( 'NONE', ( #380 ) ) ;
#273 = CARTESIAN_POINT ( 'NONE',  ( -123.0558840210051983, 2.210966925951313668E-14, 0.000000000000000000 ) ) ;
#274 = COLOUR_RGB ( '',0.000000000000000000, 1.000000000000000000, 1.000000000000000000 ) ;
#275 = EDGE_LOOP ( 'NONE', ( #49, #58 ) ) ;
#276 = SURFACE_SIDE_STYLE ('',( #152 ) ) ;
#277 = CARTESIAN_POINT ( 'NONE',  ( 52.95749585036503504, 34.29934011993390897, 0.000000000000000000 ) ) ;
#278 = EDGE_LOOP ( 'NONE', ( #147, #409 ) ) ;
#279 = EDGE_CURVE ( 'NONE', #17, #149, #341, .T. ) ;
#280 = FACE_OUTER_BOUND ( 'NONE', #55, .T. ) ;
#281 =( NAMED_UNIT ( * ) SI_UNIT ( $, .STERADIAN. ) SOLID_ANGLE_UNIT ( ) );
#282 = UNCERTAINTY_MEASURE_WITH_UNIT (LENGTH_MEASURE( 1.000000000000000082E-05 ), #76, 'distance_accuracy_value', 'NONE');
#283 = DIRECTION ( 'NONE',  ( 0.000000000000000000, 0.000000000000000000, -1.000000000000000000 ) ) ;
#284 = PLANE ( 'NONE',  #313 ) ;
#285 =( NAMED_UNIT ( * ) SI_UNIT ( $, .STERADIAN. ) SOLID_ANGLE_UNIT ( ) );
#286 =( GEOMETRIC_REPRESENTATION_CONTEXT ( 3 ) GLOBAL_UNCERTAINTY_ASSIGNED_CONTEXT ( ( #32 ) ) GLOBAL_UNIT_ASSIGNED_CONTEXT ( ( #250, #397, #214 ) ) REPRESENTATION_CONTEXT ( 'NONE', 'WORKASPACE' ) );
#287 =( NAMED_UNIT ( * ) PLANE_ANGLE_UNIT ( ) SI_UNIT ( $, .RADIAN. ) );
#288 = COLOUR_RGB ( '',0.9098039215686274384, 0.4431372549019607643, 0.03137254901960784270 ) ;
#289 = DIRECTION ( 'NONE',  ( 1.000000000000000000, 4.046080116786000560E-16, 0.000000000000000000 ) ) ;
#290 = FILL_AREA_STYLE ('',( #403 ) ) ;
#291 = DIRECTION ( 'NONE',  ( 4.046080116786000560E-16, -1.000000000000000000, -0.000000000000000000 ) ) ;
#292 = PRESENTATION_STYLE_ASSIGNMENT (( #170 ) ) ;
#293 = MECHANICAL_DESIGN_GEOMETRIC_PRESENTATION_REPRESENTATION (  '', ( #79 ), #179 ) ;
#294 = CARTESIAN_POINT ( 'NONE',  ( -224.9828135984784581, 1.064596547007257179E-14, 0.000000000000000000 ) ) ;
#295 = AXIS2_PLACEMENT_3D ( 'NONE', #43, #77, #289 ) ;
#296 = DIRECTION ( 'NONE',  ( -0.000000000000000000, -1.000000000000000000, -0.000000000000000000 ) ) ;
#297 = UNCERTAINTY_MEASURE_WITH_UNIT (LENGTH_MEASURE( 1.000000000000000082E-05 ), #97, 'distance_accuracy_value', 'NONE');
#298 = PRESENTATION_LAYER_ASSIGNMENT (  '', '', ( #427 ) ) ;
#299 = LINE ( 'NONE', #174, #91 ) ;
#300 = PRESENTATION_STYLE_ASSIGNMENT (( #205 ) ) ;
#301 = PRESENTATION_STYLE_ASSIGNMENT (( #45 ) ) ;
#302 = STYLED_ITEM ( 'NONE', ( #300 ), #262 ) ;
#303 =( LENGTH_UNIT ( ) NAMED_UNIT ( * ) SI_UNIT ( .MILLI., .METRE. ) );
#304 = EDGE_LOOP ( 'NONE', ( #236 ) ) ;
#305 =( GEOMETRIC_REPRESENTATION_CONTEXT ( 3 ) GLOBAL_UNCERTAINTY_ASSIGNED_CONTEXT ( ( #422 ) ) GLOBAL_UNIT_ASSIGNED_CONTEXT ( ( #31, #421, #285 ) ) REPRESENTATION_CONTEXT ( 'NONE', 'WORKASPACE' ) );
#306 = CARTESIAN_POINT ( 'NONE',  ( -224.9828135984784296, 2.210966925951313668E-14, 0.000000000000000000 ) ) ;
#307 = ORIENTED_EDGE ( 'NONE', *, *, #267, .T. ) ;
#308 = PRESENTATION_STYLE_ASSIGNMENT (( #383 ) ) ;
#309 = SURFACE_STYLE_FILL_AREA ( #50 ) ;
#310 = ORIENTED_EDGE ( 'NONE', *, *, #61, .F. ) ;
#311 =( LENGTH_UNIT ( ) NAMED_UNIT ( * ) SI_UNIT ( .MILLI., .METRE. ) );
#312 = FILL_AREA_STYLE ('',( #120 ) ) ;
#313 = AXIS2_PLACEMENT_3D ( 'NONE', #261, #2, #400 ) ;
#314 = EDGE_LOOP ( 'NONE', ( #239 ) ) ;
#315 = COLOUR_RGB ( '',0.9098039215686274384, 0.4431372549019607643, 0.03137254901960784270 ) ;
#316 = CLOSED_SHELL ( 'NONE', ( #116 ) ) ;
#317 = COLOUR_RGB ( '',0.9098039215686274384, 0.4431372549019607643, 0.03137254901960784270 ) ;
#318 =( NAMED_UNIT ( * ) PLANE_ANGLE_UNIT ( ) SI_UNIT ( $, .RADIAN. ) );
#319 = ORIENTED_EDGE ( 'NONE', *, *, #98, .F. ) ;
#320 = DIRECTION ( 'NONE',  ( 4.046080116786000560E-16, -1.000000000000000000, -0.000000000000000000 ) ) ;
#321 = PRESENTATION_STYLE_ASSIGNMENT (( #216 ) ) ;
#322 = FILL_AREA_STYLE ('',( #346 ) ) ;
#323 = CARTESIAN_POINT ( 'NONE',  ( -279.6274786108853050, 68.59868023986784635, 0.000000000000000000 ) ) ;
#324 = PRODUCT ( 'C7_periodic__ap214_nosplit', 'C7_periodic__ap214_nosplit', '', ( #189 ) ) ;
#325 = EDGE_CURVE ( 'NONE', #418, #20, #359, .T. ) ;
#326 =( NAMED_UNIT ( * ) PLANE_ANGLE_UNIT ( ) SI_UNIT ( $, .RADIAN. ) );
#327 = APPLICATION_CONTEXT ( 'automotive_design' ) ;
#328 =( NAMED_UNIT ( * ) SI_UNIT ( $, .STERADIAN. ) SOLID_ANGLE_UNIT ( ) );
#329 = ADVANCED_FACE ( 'NONE', ( ), #148, .T. ) ;
#330 = FILL_AREA_STYLE ('',( #160 ) ) ;
#331 = PRESENTATION_STYLE_ASSIGNMENT (( #29 ) ) ;
#332 = UNCERTAINTY_MEASURE_WITH_UNIT (LENGTH_MEASURE( 1.000000000000000082E-05 ), #86, 'distance_accuracy_value', 'NONE');
#333 = STYLED_ITEM ( 'NONE', ( #371 ), #245 ) ;
#334 = PRESENTATION_LAYER_ASSIGNMENT (  '', '', ( #302 ) ) ;
#335 = CARTESIAN_POINT ( 'NONE',  ( 5.226482373249980788E-13, 68.59868023986780372, 0.000000000000000000 ) ) ;
#336 = DIRECTION ( 'NONE',  ( 4.046080116786000560E-16, -1.000000000000000000, -0.000000000000000000 ) ) ;
#337 =( LENGTH_UNIT ( ) NAMED_UNIT ( * ) SI_UNIT ( .MILLI., .METRE. ) );
#338 =( NAMED_UNIT ( * ) SI_UNIT ( $, .STERADIAN. ) SOLID_ANGLE_UNIT ( ) );
#339 = CARTESIAN_POINT ( 'NONE',  ( -59.79593872408656097, -6.938893903907228378E-15, 0.000000000000000000 ) ) ;
#340 = PRESENTATION_STYLE_ASSIGNMENT (( #108 ) ) ;
#341 = CIRCLE ( 'NONE', #73, 27.32233250620347320 ) ;
#342 = PRESENTATION_LAYER_ASSIGNMENT (  '', '', ( #28 ) ) ;
#343 =( NAMED_UNIT ( * ) PLANE_ANGLE_UNIT ( ) SI_UNIT ( $, .RADIAN. ) );
#344 = SURFACE_SIDE_STYLE ('',( #81 ) ) ;
#345 =( LENGTH_UNIT ( ) NAMED_UNIT ( * ) SI_UNIT ( .MILLI., .METRE. ) );
#346 = FILL_AREA_STYLE_COLOUR ( '', #274 ) ;
#347 = STYLED_ITEM ( 'NONE', ( #211 ), #156 ) ;
#348 = PRESENTATION_STYLE_ASSIGNMENT (( #376 ) ) ;
#349 = AXIS2_PLACEMENT_3D ( 'NONE', #67, #89, #248 ) ;
#350 =( GEOMETRIC_REPRESENTATION_CONTEXT ( 3 ) GLOBAL_UNCERTAINTY_ASSIGNED_CONTEXT ( ( #297 ) ) GLOBAL_UNIT_ASSIGNED_CONTEXT ( ( #97, #287, #328 ) ) REPRESENTATION_CONTEXT ( 'NONE', 'WORKASPACE' ) );
#351 = CARTESIAN_POINT ( 'NONE',  ( -2.685450073292357992E-29, 6.637164850372618952E-14, 0.000000000000000000 ) ) ;
#352 = FILL_AREA_STYLE_COLOUR ( '', #143 ) ;
#353 =( NAMED_UNIT ( * ) SI_UNIT ( $, .STERADIAN. ) SOLID_ANGLE_UNIT ( ) );
#354 = STYLED_ITEM ( 'NONE', ( #93 ), #163 ) ;
#355 = SURFACE_SIDE_STYLE ('',( #101 ) ) ;
#356 = UNCERTAINTY_MEASURE_WITH_UNIT (LENGTH_MEASURE( 1.000000000000000082E-05 ), #345, 'distance_accuracy_value', 'NONE');
#357 = SURFACE_STYLE_USAGE ( .BOTH. , #390 ) ;
#358 = FILL_AREA_STYLE ('',( #94 ) ) ;
#359 = CIRCLE ( 'NONE', #420, 27.32233250620341636 ) ;
#360 = PRESENTATION_LAYER_ASSIGNMENT (  '', '', ( #139 ) ) ;
#361 = CARTESIAN_POINT ( 'NONE',  ( -252.3051461046819099, -4.088691596839861464E-16, 0.000000000000000000 ) ) ;
#362 = ADVANCED_FACE ( 'NONE', ( #202 ), #384, .T. ) ;
#363 = SURFACE_SIDE_STYLE ('',( #190 ) ) ;
#364 = UNCERTAINTY_MEASURE_WITH_UNIT (LENGTH_MEASURE( 1.000000000000000082E-05 ), #16, 'distance_accuracy_value', 'NONE');
#365 = PRESENTATION_LAYER_ASSIGNMENT (  '', '', ( #238 ) ) ;
#366 = VECTOR ( 'NONE', #175, 1000.000000000000000 ) ;
#367 = DIRECTION ( 'NONE',  ( 1.000000000000000000, 4.046080116786000560E-16, 0.000000000000000000 ) ) ;
#368 = SURFACE_STYLE_FILL_AREA ( #206 ) ;
#369 = DIRECTION ( 'NONE',  ( 4.046080116786000560E-16, -1.000000000000000000, -0.000000000000000000 ) ) ;
#370 = MECHANICAL_DESIGN_GEOMETRIC_PRESENTATION_REPRESENTATION (  '', ( #238 ), #413 ) ;
#371 = PRESENTATION_STYLE_ASSIGNMENT (( #80 ) ) ;
#372 = FILL_AREA_STYLE ('',( #110 ) ) ;
#373 = AXIS2_PLACEMENT_3D ( 'NONE', #407, #75, #231 ) ;
#374 =( NAMED_UNIT ( * ) PLANE_ANGLE_UNIT ( ) SI_UNIT ( $, .RADIAN. ) );
#375 = VERTEX_POINT ( 'NONE', #115 ) ;
#376 = SURFACE_STYLE_USAGE ( .BOTH. , #208 ) ;
#377 = EDGE_LOOP ( 'NONE', ( #411, #186, #84, #307 ) ) ;
#378 = DIRECTION ( 'NONE',  ( 0.000000000000000000, 0.000000000000000000, 1.000000000000000000 ) ) ;
#379 = STYLED_ITEM ( 'NONE', ( #33 ), #158 ) ;
#380 = ORIENTED_EDGE ( 'NONE', *, *, #44, .T. ) ;
#381 = APPLICATION_CONTEXT ( 'automotive_design' ) ;
#382 = AXIS2_PLACEMENT_3D ( 'NONE', #339, #296, #3 ) ;
#383 = SURFACE_STYLE_USAGE ( .BOTH. , #241 ) ;
#384 = PLANE ( 'NONE',  #414 ) ;
#385 =( NAMED_UNIT ( * ) SI_UNIT ( $, .STERADIAN. ) SOLID_ANGLE_UNIT ( ) );
#386 = DIRECTION ( 'NONE',  ( 0.000000000000000000, -0.000000000000000000, 1.000000000000000000 ) ) ;
#387 = PRESENTATION_LAYER_ASSIGNMENT (  '', '', ( #347 ) ) ;
#388 = ORIENTED_EDGE ( 'NONE', *, *, #98, .T. ) ;
#389 = COLOUR_RGB ( '',1.000000000000000000, 0.000000000000000000, 0.000000000000000000 ) ;
#390 = SURFACE_SIDE_STYLE ('',( #252 ) ) ;
#391 =( LENGTH_UNIT ( ) NAMED_UNIT ( * ) SI_UNIT ( .MILLI., .METRE. ) );
#392 = PRESENTATION_STYLE_ASSIGNMENT (( #127 ) ) ;
#393 = UNCERTAINTY_MEASURE_WITH_UNIT (LENGTH_MEASURE( 1.000000000000000082E-05 ), #391, 'distance_accuracy_value', 'NONE');
#394 = CARTESIAN_POINT ( 'NONE',  ( -279.6274786108853618, 3.081487911019577365E-30, 0.000000000000000000 ) ) ;
#395 = TOROIDAL_SURFACE ( 'NONE', #178, 33.41787314310669643, 17.34688904745910421 ) ;
#396 = MECHANICAL_DESIGN_GEOMETRIC_PRESENTATION_REPRESENTATION (  '', ( #28 ), #232 ) ;
#397 =( NAMED_UNIT ( * ) PLANE_ANGLE_UNIT ( ) SI_UNIT ( $, .RADIAN. ) );
#398 = SURFACE_STYLE_FILL_AREA ( #4 ) ;
#399 = AXIS2_PLACEMENT_3D ( 'NONE', #191, #320, #24 ) ;
#400 = DIRECTION ( 'NONE',  ( 1.000000000000000000, 4.046080116786000560E-16, 0.000000000000000000 ) ) ;
#401 = FACE_OUTER_BOUND ( 'NONE', #278, .T. ) ;
#402 = SURFACE_STYLE_FILL_AREA ( #264 ) ;
#403 = FILL_AREA_STYLE_COLOUR ( '', #317 ) ;
#404 =( NAMED_UNIT ( * ) PLANE_ANGLE_UNIT ( ) SI_UNIT ( $, .RADIAN. ) );
#405 = COLOUR_RGB ( '',0.8941176470588234615, 0.8941176470588234615, 0.8941176470588234615 ) ;
#406 =( LENGTH_UNIT ( ) NAMED_UNIT ( * ) SI_UNIT ( .MILLI., .METRE. ) );
#407 = CARTESIAN_POINT ( 'NONE',  ( -150.3782165272087070, 68.59868023986786056, 0.000000000000000000 ) ) ;
#408 = DIRECTION ( 'NONE',  ( 1.000000000000000000, 4.046080116786000560E-16, 0.000000000000000000 ) ) ;
#409 = ORIENTED_EDGE ( 'NONE', *, *, #279, .T. ) ;
#410 = SURFACE_STYLE_FILL_AREA ( #113 ) ;
#411 = ORIENTED_EDGE ( 'NONE', *, *, #279, .F. ) ;
#412 = CARTESIAN_POINT ( 'NONE',  ( 177.7005490334121589, 34.29934011993392318, 0.000000000000000000 ) ) ;
#413 =( GEOMETRIC_REPRESENTATION_CONTEXT ( 3 ) GLOBAL_UNCERTAINTY_ASSIGNED_CONTEXT ( ( #364 ) ) GLOBAL_UNIT_ASSIGNED_CONTEXT ( ( #16, #237, #182 ) ) REPRESENTATION_CONTEXT ( 'NONE', 'WORKASPACE' ) );
#414 = AXIS2_PLACEMENT_3D ( 'NONE', #351, #15, #408 ) ;
#415 = CYLINDRICAL_SURFACE ( 'NONE', #215, 27.32233250620344478 ) ;
#416 = MECHANICAL_DESIGN_GEOMETRIC_PRESENTATION_REPRESENTATION (  '', ( #21 ), #56 ) ;
#417 = DIRECTION ( 'NONE',  ( 1.000000000000000000, 4.046080116786000560E-16, 0.000000000000000000 ) ) ;
#418 = VERTEX_POINT ( 'NONE', #234 ) ;
#419 = FACE_OUTER_BOUND ( 'NONE', #212, .T. ) ;
#420 = AXIS2_PLACEMENT_3D ( 'NONE', #74, #291, #7 ) ;
#421 =( NAMED_UNIT ( * ) PLANE_ANGLE_UNIT ( ) SI_UNIT ( $, .RADIAN. ) );
#422 = UNCERTAINTY_MEASURE_WITH_UNIT (LENGTH_MEASURE( 1.000000000000000082E-05 ), #31, 'distance_accuracy_value', 'NONE');
#423 = FILL_AREA_STYLE ('',( #161 ) ) ;
#424 = FACE_OUTER_BOUND ( 'NONE', #275, .T. ) ;
#425 = PRESENTATION_STYLE_ASSIGNMENT (( #125 ) ) ;
#426 = COLOUR_RGB ( '',1.000000000000000000, 0.000000000000000000, 0.000000000000000000 ) ;
#427 = STYLED_ITEM ( 'NONE', ( #136 ), #112 ) ;
ENDSEC;
END-ISO-10303-21;
