ISO-10303-21;
HEADER;
FILE_DESCRIPTION (( 'STEP AP214' ),
    '1' );
FILE_NAME ('C7_periodic__ap214_noappear.step',
    '2026-08-06T13:09:28',
    ( '' ),
    ( '' ),
    'SwSTEP 2.0',
    'SolidWorks 2026',
    '' );
FILE_SCHEMA (( 'AUTOMOTIVE_DESIGN' ));
ENDSEC;

DATA;
#1 = DIRECTION ( 'NONE',  ( -0.000000000000000000, -1.000000000000000000, -0.000000000000000000 ) ) ;
#2 = UNCERTAINTY_MEASURE_WITH_UNIT (LENGTH_MEASURE( 1.000000000000000082E-05 ), #213, 'distance_accuracy_value', 'NONE');
#3 = ADVANCED_BREP_SHAPE_REPRESENTATION ( 'C7_periodic__ap214_noappear', ( #33, #208, #122, #123, #110, #118 ), #129 ) ;
#4 = CARTESIAN_POINT ( 'NONE',  ( -252.3051461046819099, -4.088691596839861464E-16, 0.000000000000000000 ) ) ;
#5 = CIRCLE ( 'NONE', #65, 27.32233250620347320 ) ;
#6 = DIRECTION ( 'NONE',  ( 1.000000000000000000, 4.046080116786000560E-16, 0.000000000000000000 ) ) ;
#7 =( NAMED_UNIT ( * ) PLANE_ANGLE_UNIT ( ) SI_UNIT ( $, .RADIAN. ) );
#8 = PRESENTATION_LAYER_ASSIGNMENT (  '', '', ( #132 ) ) ;
#9 = ORIENTED_EDGE ( 'NONE', *, *, #34, .T. ) ;
#10 = ORIENTED_EDGE ( 'NONE', *, *, #152, .F. ) ;
#11 = VERTEX_POINT ( 'NONE', #37 ) ;
#12 = LINE ( 'NONE', #161, #158 ) ;
#13 = AXIS2_PLACEMENT_3D ( 'NONE', #218, #25, #107 ) ;
#14 = VERTEX_POINT ( 'NONE', #186 ) ;
#15 = EDGE_LOOP ( 'NONE', ( #9 ) ) ;
#16 = PRODUCT ( 'C7_periodic__ap214_noappear', 'C7_periodic__ap214_noappear', '', ( #120 ) ) ;
#17 =( NAMED_UNIT ( * ) SI_UNIT ( $, .STERADIAN. ) SOLID_ANGLE_UNIT ( ) );
#18 = UNCERTAINTY_MEASURE_WITH_UNIT (LENGTH_MEASURE( 1.000000000000000082E-05 ), #138, 'distance_accuracy_value', 'NONE');
#19 = ADVANCED_FACE ( 'NONE', ( #73 ), #157, .T. ) ;
#20 = SURFACE_STYLE_FILL_AREA ( #230 ) ;
#21 = STYLED_ITEM ( 'NONE', ( #79 ), #208 ) ;
#22 = PRODUCT_DEFINITION ( 'UNKNOWN', '', #52, #217 ) ;
#23 = SURFACE_SIDE_STYLE ('',( #20 ) ) ;
#24 = PRESENTATION_LAYER_ASSIGNMENT (  '', '', ( #243 ) ) ;
#25 = DIRECTION ( 'NONE',  ( 4.046080116785987248E-16, 1.000000000000000000, -0.000000000000000000 ) ) ;
#26 = EDGE_CURVE ( 'NONE', #96, #80, #188, .T. ) ;
#27 = CARTESIAN_POINT ( 'NONE',  ( -279.6274786108853050, 68.59868023986784635, 0.000000000000000000 ) ) ;
#28 = AXIS2_PLACEMENT_3D ( 'NONE', #47, #67, #88 ) ;
#29 = PLANE ( 'NONE',  #28 ) ;
#30 = EDGE_CURVE ( 'NONE', #35, #35, #72, .T. ) ;
#31 = FILL_AREA_STYLE ('',( #95 ) ) ;
#32 =( NAMED_UNIT ( * ) PLANE_ANGLE_UNIT ( ) SI_UNIT ( $, .RADIAN. ) );
#33 = MANIFOLD_SOLID_BREP ( 'Revolve1', #196 ) ;
#34 = EDGE_CURVE ( 'NONE', #14, #14, #5, .T. ) ;
#35 = VERTEX_POINT ( 'NONE', #94 ) ;
#36 = AXIS2_PLACEMENT_3D ( 'NONE', #264, #159, #242 ) ;
#37 = CARTESIAN_POINT ( 'NONE',  ( -224.9828135984784865, 68.59868023986787477, 0.000000000000000000 ) ) ;
#38 = CARTESIAN_POINT ( 'NONE',  ( -252.3051461046819099, 1.105483462975656834E-14, 0.000000000000000000 ) ) ;
#39 = DIRECTION ( 'NONE',  ( 4.046080116786000560E-16, -1.000000000000000000, -0.000000000000000000 ) ) ;
#40 = APPLICATION_PROTOCOL_DEFINITION ( 'draft international standard', 'automotive_design', 1998, #260 ) ;
#41 = DIRECTION ( 'NONE',  ( 0.000000000000000000, -0.000000000000000000, 1.000000000000000000 ) ) ;
#42 = DIRECTION ( 'NONE',  ( 1.000000000000000000, 4.046080116786000560E-16, 0.000000000000000000 ) ) ;
#43 = PRESENTATION_LAYER_ASSIGNMENT (  '', '', ( #172 ) ) ;
#44 = FILL_AREA_STYLE_COLOUR ( '', #166 ) ;
#45 = AXIS2_PLACEMENT_3D ( 'NONE', #205, #183, #156 ) ;
#46 = CYLINDRICAL_SURFACE ( 'NONE', #160, 27.32233250620344478 ) ;
#47 = CARTESIAN_POINT ( 'NONE',  ( 5.226482373249980788E-13, 68.59868023986780372, 0.000000000000000000 ) ) ;
#48 =( LENGTH_UNIT ( ) NAMED_UNIT ( * ) SI_UNIT ( .MILLI., .METRE. ) );
#49 =( NAMED_UNIT ( * ) SI_UNIT ( $, .STERADIAN. ) SOLID_ANGLE_UNIT ( ) );
#50 = CIRCLE ( 'NONE', #232, 27.32233250620347320 ) ;
#51 = FACE_OUTER_BOUND ( 'NONE', #240, .T. ) ;
#52 = PRODUCT_DEFINITION_FORMATION_WITH_SPECIFIED_SOURCE ( 'ANY', '', #16, .NOT_KNOWN. ) ;
#53 = SURFACE_SIDE_STYLE ('',( #143 ) ) ;
#54 = ORIENTED_EDGE ( 'NONE', *, *, #227, .T. ) ;
#55 = CARTESIAN_POINT ( 'NONE',  ( 0.000000000000000000, 0.000000000000000000, 0.000000000000000000 ) ) ;
#56 = ORIENTED_EDGE ( 'NONE', *, *, #30, .F. ) ;
#57 = MECHANICAL_DESIGN_GEOMETRIC_PRESENTATION_REPRESENTATION (  '', ( #243 ), #237 ) ;
#58 = EDGE_CURVE ( 'NONE', #80, #96, #50, .T. ) ;
#59 = DIRECTION ( 'NONE',  ( 4.046080116786000560E-16, -1.000000000000000000, -0.000000000000000000 ) ) ;
#60 = SURFACE_STYLE_USAGE ( .BOTH. , #83 ) ;
#61 =( NAMED_UNIT ( * ) SI_UNIT ( $, .STERADIAN. ) SOLID_ANGLE_UNIT ( ) );
#62 = EDGE_CURVE ( 'NONE', #206, #11, #219, .T. ) ;
#63 = DIRECTION ( 'NONE',  ( 0.000000000000000000, 1.000000000000000000, 0.000000000000000000 ) ) ;
#64 = SURFACE_SIDE_STYLE ('',( #151 ) ) ;
#65 = AXIS2_PLACEMENT_3D ( 'NONE', #233, #216, #277 ) ;
#66 = CLOSED_SHELL ( 'NONE', ( #274, #92 ) ) ;
#67 = DIRECTION ( 'NONE',  ( 4.046080116786000560E-16, -1.000000000000000000, -0.000000000000000000 ) ) ;
#68 = CARTESIAN_POINT ( 'NONE',  ( -279.6274786108853050, -1.146370378944054438E-14, 0.000000000000000000 ) ) ;
#69 = AXIS2_PLACEMENT_3D ( 'NONE', #99, #114, #245 ) ;
#70 = PRESENTATION_STYLE_ASSIGNMENT (( #238 ) ) ;
#71 = EDGE_CURVE ( 'NONE', #11, #206, #211, .T. ) ;
#72 = CIRCLE ( 'NONE', #84, 27.32233250620347320 ) ;
#73 = FACE_OUTER_BOUND ( 'NONE', #187, .T. ) ;
#74 = FACE_OUTER_BOUND ( 'NONE', #269, .T. ) ;
#75 = ORIENTED_EDGE ( 'NONE', *, *, #221, .F. ) ;
#76 = DIRECTION ( 'NONE',  ( -1.000000000000000000, -4.046080116785989713E-16, 0.000000000000000000 ) ) ;
#77 =( GEOMETRIC_REPRESENTATION_CONTEXT ( 3 ) GLOBAL_UNCERTAINTY_ASSIGNED_CONTEXT ( ( #272 ) ) GLOBAL_UNIT_ASSIGNED_CONTEXT ( ( #236, #197, #154 ) ) REPRESENTATION_CONTEXT ( 'NONE', 'WORKASPACE' ) );
#78 = ORIENTED_EDGE ( 'NONE', *, *, #227, .F. ) ;
#79 = PRESENTATION_STYLE_ASSIGNMENT (( #137 ) ) ;
#80 = VERTEX_POINT ( 'NONE', #130 ) ;
#81 = CARTESIAN_POINT ( 'NONE',  ( -123.0558840210052836, 68.59868023986787477, 0.000000000000000000 ) ) ;
#82 = ORIENTED_EDGE ( 'NONE', *, *, #26, .F. ) ;
#83 = SURFACE_SIDE_STYLE ('',( #214 ) ) ;
#84 = AXIS2_PLACEMENT_3D ( 'NONE', #167, #1, #250 ) ;
#85 = AXIS2_PLACEMENT_3D ( 'NONE', #180, #266, #163 ) ;
#86 = FILL_AREA_STYLE ('',( #192 ) ) ;
#87 = DIRECTION ( 'NONE',  ( 1.000000000000000000, 4.046080116786000560E-16, 0.000000000000000000 ) ) ;
#88 = DIRECTION ( 'NONE',  ( 1.000000000000000000, 4.046080116786000560E-16, 0.000000000000000000 ) ) ;
#89 = DIRECTION ( 'NONE',  ( 4.046080116786000560E-16, -1.000000000000000000, -0.000000000000000000 ) ) ;
#90 = SURFACE_STYLE_FILL_AREA ( #91 ) ;
#91 = FILL_AREA_STYLE ('',( #179 ) ) ;
#92 = ADVANCED_FACE ( 'NONE', ( #149 ), #234, .F. ) ;
#93 = AXIS2_PLACEMENT_3D ( 'NONE', #212, #97, #119 ) ;
#94 = CARTESIAN_POINT ( 'NONE',  ( -59.79593872408656097, -6.938893903907228378E-15, -27.32233250620347320 ) ) ;
#95 = FILL_AREA_STYLE_COLOUR ( '', #155 ) ;
#96 = VERTEX_POINT ( 'NONE', #249 ) ;
#97 = DIRECTION ( 'NONE',  ( 4.046080116786000560E-16, -1.000000000000000000, -0.000000000000000000 ) ) ;
#98 = EDGE_LOOP ( 'NONE', ( #247 ) ) ;
#99 = CARTESIAN_POINT ( 'NONE',  ( -101.9269295774726771, 68.59868023986780372, 0.000000000000000000 ) ) ;
#100 = DIRECTION ( 'NONE',  ( 4.046080116786000560E-16, -1.000000000000000000, -0.000000000000000000 ) ) ;
#101 = PRODUCT_RELATED_PRODUCT_CATEGORY ( 'part', '', ( #16 ) ) ;
#102 = COLOUR_RGB ( '',0.7921568627450980005, 0.8196078431372548767, 0.9333333333333333481 ) ;
#103 = DIRECTION ( 'NONE',  ( 1.000000000000000000, 0.000000000000000000, 0.000000000000000000 ) ) ;
#104 = UNCERTAINTY_MEASURE_WITH_UNIT (LENGTH_MEASURE( 1.000000000000000082E-05 ), #178, 'distance_accuracy_value', 'NONE');
#105 = COLOUR_RGB ( '',0.7921568627450980005, 0.8196078431372548767, 0.9333333333333333481 ) ;
#106 = FACE_OUTER_BOUND ( 'NONE', #184, .T. ) ;
#107 = DIRECTION ( 'NONE',  ( -1.000000000000000000, 4.046080116785987741E-16, 0.000000000000000000 ) ) ;
#108 = DIRECTION ( 'NONE',  ( 4.046080116786000560E-16, -1.000000000000000000, -0.000000000000000000 ) ) ;
#109 = COLOUR_RGB ( '',0.7921568627450980005, 0.8196078431372548767, 0.9333333333333333481 ) ;
#110 = MANIFOLD_SOLID_BREP ( 'Split Line2', #210 ) ;
#111 = ADVANCED_FACE ( 'NONE', ( #190 ), #215, .T. ) ;
#112 = LINE ( 'NONE', #68, #251 ) ;
#113 = PRESENTATION_LAYER_ASSIGNMENT (  '', '', ( #21 ) ) ;
#114 = DIRECTION ( 'NONE',  ( 4.046080116786000560E-16, -1.000000000000000000, -0.000000000000000000 ) ) ;
#115 = AXIS2_PLACEMENT_3D ( 'NONE', #198, #108, #6 ) ;
#116 = ADVANCED_FACE ( 'NONE', ( #106, #256 ), #46, .T. ) ;
#117 = PLANE ( 'NONE',  #45 ) ;
#118 = AXIS2_PLACEMENT_3D ( 'NONE', #55, #275, #103 ) ;
#119 = DIRECTION ( 'NONE',  ( 1.000000000000000000, 5.079283697562631313E-16, 0.000000000000000000 ) ) ;
#120 = PRODUCT_CONTEXT ( 'NONE', #146, 'mechanical' ) ;
#121 = CARTESIAN_POINT ( 'NONE',  ( -252.3051461046819099, 68.59868023986786056, 0.000000000000000000 ) ) ;
#122 = MANIFOLD_SOLID_BREP ( 'Revolve3', #189 ) ;
#123 = MANIFOLD_SOLID_BREP ( 'Revolve4', #222 ) ;
#124 = PRESENTATION_STYLE_ASSIGNMENT (( #150 ) ) ;
#125 = PRODUCT_DEFINITION_SHAPE ( 'NONE', 'NONE',  #22 ) ;
#126 = DIRECTION ( 'NONE',  ( 4.046080116786000560E-16, -1.000000000000000000, -0.000000000000000000 ) ) ;
#127 = AXIS2_PLACEMENT_3D ( 'NONE', #128, #63, #41 ) ;
#128 = CARTESIAN_POINT ( 'NONE',  ( 0.000000000000000000, -3.469446951953614189E-15, 0.000000000000000000 ) ) ;
#129 =( GEOMETRIC_REPRESENTATION_CONTEXT ( 3 ) GLOBAL_UNCERTAINTY_ASSIGNED_CONTEXT ( ( #191 ) ) GLOBAL_UNIT_ASSIGNED_CONTEXT ( ( #48, #202, #49 ) ) REPRESENTATION_CONTEXT ( 'NONE', 'WORKASPACE' ) );
#130 = CARTESIAN_POINT ( 'NONE',  ( -224.9828135984784296, 2.210966925951313668E-14, 0.000000000000000000 ) ) ;
#131 = FACE_OUTER_BOUND ( 'NONE', #164, .T. ) ;
#132 = STYLED_ITEM ( 'NONE', ( #124 ), #110 ) ;
#133 = CYLINDRICAL_SURFACE ( 'NONE', #194, 27.32233250620344478 ) ;
#134 = DIRECTION ( 'NONE',  ( 4.046080116786000560E-16, -1.000000000000000000, -0.000000000000000000 ) ) ;
#135 = TOROIDAL_SURFACE ( 'NONE', #13, 33.41787314310669643, 17.34688904745910421 ) ;
#136 = SURFACE_STYLE_USAGE ( .BOTH. , #64 ) ;
#137 = SURFACE_STYLE_USAGE ( .BOTH. , #53 ) ;
#138 =( LENGTH_UNIT ( ) NAMED_UNIT ( * ) SI_UNIT ( .MILLI., .METRE. ) );
#139 = ORIENTED_EDGE ( 'NONE', *, *, #221, .T. ) ;
#140 = PLANE ( 'NONE',  #69 ) ;
#141 = EDGE_LOOP ( 'NONE', ( #75 ) ) ;
#142 = ADVANCED_FACE ( 'NONE', ( #255 ), #29, .F. ) ;
#143 = SURFACE_STYLE_FILL_AREA ( #31 ) ;
#144 = ORIENTED_EDGE ( 'NONE', *, *, #71, .T. ) ;
#145 = AXIS2_PLACEMENT_3D ( 'NONE', #38, #126, #87 ) ;
#146 = APPLICATION_CONTEXT ( 'automotive_design' ) ;
#147 =( LENGTH_UNIT ( ) NAMED_UNIT ( * ) SI_UNIT ( .MILLI., .METRE. ) );
#148 = SHAPE_DEFINITION_REPRESENTATION ( #125, #3 ) ;
#149 = FACE_OUTER_BOUND ( 'NONE', #98, .T. ) ;
#150 = SURFACE_STYLE_USAGE ( .BOTH. , #23 ) ;
#151 = SURFACE_STYLE_FILL_AREA ( #153 ) ;
#152 = EDGE_CURVE ( 'NONE', #96, #206, #112, .T. ) ;
#153 = FILL_AREA_STYLE ('',( #44 ) ) ;
#154 =( NAMED_UNIT ( * ) SI_UNIT ( $, .STERADIAN. ) SOLID_ANGLE_UNIT ( ) );
#155 = COLOUR_RGB ( '',0.7921568627450980005, 0.8196078431372548767, 0.9333333333333333481 ) ;
#156 = DIRECTION ( 'NONE',  ( 1.000000000000000000, 4.046080116786000560E-16, 0.000000000000000000 ) ) ;
#157 = CYLINDRICAL_SURFACE ( 'NONE', #36, 27.32233250620344478 ) ;
#158 = VECTOR ( 'NONE', #100, 1000.000000000000000 ) ;
#159 = DIRECTION ( 'NONE',  ( 4.046080116786000560E-16, -1.000000000000000000, -0.000000000000000000 ) ) ;
#160 = AXIS2_PLACEMENT_3D ( 'NONE', #259, #134, #42 ) ;
#161 = CARTESIAN_POINT ( 'NONE',  ( -224.9828135984784581, 1.064596547007257179E-14, 0.000000000000000000 ) ) ;
#162 = ORIENTED_EDGE ( 'NONE', *, *, #62, .F. ) ;
#163 = DIRECTION ( 'NONE',  ( 0.000000000000000000, 0.000000000000000000, -1.000000000000000000 ) ) ;
#164 = EDGE_LOOP ( 'NONE', ( #82, #261, #209, #54 ) ) ;
#165 = ORIENTED_EDGE ( 'NONE', *, *, #58, .T. ) ;
#166 = COLOUR_RGB ( '',0.7921568627450980005, 0.8196078431372548767, 0.9333333333333333481 ) ;
#167 = CARTESIAN_POINT ( 'NONE',  ( -59.79593872408656097, -6.938893903907228378E-15, 0.000000000000000000 ) ) ;
#168 = APPLICATION_PROTOCOL_DEFINITION ( 'draft international standard', 'automotive_design', 1998, #146 ) ;
#169 = CARTESIAN_POINT ( 'NONE',  ( -252.3051461046819099, 1.105483462975656834E-14, 0.000000000000000000 ) ) ;
#170 = DIRECTION ( 'NONE',  ( 4.046080116786000560E-16, -1.000000000000000000, -0.000000000000000000 ) ) ;
#171 = DIRECTION ( 'NONE',  ( 1.000000000000000000, 5.079283697562631313E-16, 0.000000000000000000 ) ) ;
#172 = STYLED_ITEM ( 'NONE', ( #175 ), #122 ) ;
#173 = FILL_AREA_STYLE_COLOUR ( '', #109 ) ;
#174 = ADVANCED_FACE ( 'NONE', ( ), #135, .T. ) ;
#175 = PRESENTATION_STYLE_ASSIGNMENT (( #136 ) ) ;
#176 = PRESENTATION_LAYER_ASSIGNMENT (  '', '', ( #223 ) ) ;
#177 = SURFACE_SIDE_STYLE ('',( #90 ) ) ;
#178 =( LENGTH_UNIT ( ) NAMED_UNIT ( * ) SI_UNIT ( .MILLI., .METRE. ) );
#179 = FILL_AREA_STYLE_COLOUR ( '', #102 ) ;
#180 = CARTESIAN_POINT ( 'NONE',  ( -59.79593872408656097, -932.4084780810587745, 0.000000000000000000 ) ) ;
#181 = ORIENTED_EDGE ( 'NONE', *, *, #58, .F. ) ;
#182 = EDGE_LOOP ( 'NONE', ( #56 ) ) ;
#183 = DIRECTION ( 'NONE',  ( 4.046080116786000560E-16, -1.000000000000000000, -0.000000000000000000 ) ) ;
#184 = EDGE_LOOP ( 'NONE', ( #139 ) ) ;
#185 = SPHERICAL_SURFACE ( 'NONE', #270, 34.29934011993392318 ) ;
#186 = CARTESIAN_POINT ( 'NONE',  ( -123.0558840210051983, 2.210966925951313668E-14, 0.000000000000000000 ) ) ;
#187 = EDGE_LOOP ( 'NONE', ( #10, #181, #78, #144 ) ) ;
#188 = CIRCLE ( 'NONE', #145, 27.32233250620347320 ) ;
#189 = CLOSED_SHELL ( 'NONE', ( #174 ) ) ;
#190 = FACE_OUTER_BOUND ( 'NONE', #15, .T. ) ;
#191 = UNCERTAINTY_MEASURE_WITH_UNIT (LENGTH_MEASURE( 1.000000000000000082E-05 ), #48, 'distance_accuracy_value', 'NONE');
#192 = FILL_AREA_STYLE_COLOUR ( '', #105 ) ;
#193 = DIRECTION ( 'NONE',  ( 1.000000000000000000, 4.046080116786000560E-16, 0.000000000000000000 ) ) ;
#194 = AXIS2_PLACEMENT_3D ( 'NONE', #4, #89, #220 ) ;
#195 = PRESENTATION_STYLE_ASSIGNMENT (( #60 ) ) ;
#196 = CLOSED_SHELL ( 'NONE', ( #116, #111, #142 ) ) ;
#197 =( NAMED_UNIT ( * ) PLANE_ANGLE_UNIT ( ) SI_UNIT ( $, .RADIAN. ) );
#198 = CARTESIAN_POINT ( 'NONE',  ( -2.685450073292357992E-29, 6.637164850372618952E-14, 0.000000000000000000 ) ) ;
#199 = MECHANICAL_DESIGN_GEOMETRIC_PRESENTATION_REPRESENTATION (  '', ( #132 ), #273 ) ;
#200 = ADVANCED_FACE ( 'NONE', ( #131 ), #133, .T. ) ;
#201 = DIRECTION ( 'NONE',  ( -4.046080116786000560E-16, 1.000000000000000000, 0.000000000000000000 ) ) ;
#202 =( NAMED_UNIT ( * ) PLANE_ANGLE_UNIT ( ) SI_UNIT ( $, .RADIAN. ) );
#203 = ORIENTED_EDGE ( 'NONE', *, *, #26, .T. ) ;
#204 = MECHANICAL_DESIGN_GEOMETRIC_PRESENTATION_REPRESENTATION (  '', ( #172 ), #226 ) ;
#205 = CARTESIAN_POINT ( 'NONE',  ( -101.9269295774732029, 6.637164850372618952E-14, 0.000000000000000000 ) ) ;
#206 = VERTEX_POINT ( 'NONE', #27 ) ;
#207 = CIRCLE ( 'NONE', #93, 27.32233250620341636 ) ;
#208 = MANIFOLD_SOLID_BREP ( 'Revolve2', #66 ) ;
#209 = ORIENTED_EDGE ( 'NONE', *, *, #62, .T. ) ;
#210 = CLOSED_SHELL ( 'NONE', ( #200, #19, #225, #244 ) ) ;
#211 = CIRCLE ( 'NONE', #248, 27.32233250620341636 ) ;
#212 = CARTESIAN_POINT ( 'NONE',  ( -150.3782165272087070, 68.59868023986786056, 0.000000000000000000 ) ) ;
#213 =( LENGTH_UNIT ( ) NAMED_UNIT ( * ) SI_UNIT ( .MILLI., .METRE. ) );
#214 = SURFACE_STYLE_FILL_AREA ( #86 ) ;
#215 = PLANE ( 'NONE',  #115 ) ;
#216 = DIRECTION ( 'NONE',  ( 4.046080116786000560E-16, -1.000000000000000000, -0.000000000000000000 ) ) ;
#217 = PRODUCT_DEFINITION_CONTEXT ( 'detailed design', #260, 'design' ) ;
#218 = CARTESIAN_POINT ( 'NONE',  ( 52.95749585036503504, 34.29934011993390897, 0.000000000000000000 ) ) ;
#219 = CIRCLE ( 'NONE', #239, 27.32233250620341636 ) ;
#220 = DIRECTION ( 'NONE',  ( 1.000000000000000000, 4.046080116786000560E-16, 0.000000000000000000 ) ) ;
#221 = EDGE_CURVE ( 'NONE', #268, #268, #207, .T. ) ;
#222 = CLOSED_SHELL ( 'NONE', ( #246 ) ) ;
#223 = STYLED_ITEM ( 'NONE', ( #70 ), #123 ) ;
#224 =( NAMED_UNIT ( * ) SI_UNIT ( $, .STERADIAN. ) SOLID_ANGLE_UNIT ( ) );
#225 = ADVANCED_FACE ( 'NONE', ( #51 ), #117, .T. ) ;
#226 =( GEOMETRIC_REPRESENTATION_CONTEXT ( 3 ) GLOBAL_UNCERTAINTY_ASSIGNED_CONTEXT ( ( #104 ) ) GLOBAL_UNIT_ASSIGNED_CONTEXT ( ( #178, #7, #258 ) ) REPRESENTATION_CONTEXT ( 'NONE', 'WORKASPACE' ) );
#227 = EDGE_CURVE ( 'NONE', #11, #80, #12, .T. ) ;
#228 = ORIENTED_EDGE ( 'NONE', *, *, #71, .F. ) ;
#229 = EDGE_LOOP ( 'NONE', ( #267 ) ) ;
#230 = FILL_AREA_STYLE ('',( #173 ) ) ;
#231 = MECHANICAL_DESIGN_GEOMETRIC_PRESENTATION_REPRESENTATION (  '', ( #21 ), #263 ) ;
#232 = AXIS2_PLACEMENT_3D ( 'NONE', #169, #170, #193 ) ;
#233 = CARTESIAN_POINT ( 'NONE',  ( -150.3782165272086786, 1.105483462975656834E-14, 0.000000000000000000 ) ) ;
#234 = PLANE ( 'NONE',  #127 ) ;
#235 =( NAMED_UNIT ( * ) PLANE_ANGLE_UNIT ( ) SI_UNIT ( $, .RADIAN. ) );
#236 =( LENGTH_UNIT ( ) NAMED_UNIT ( * ) SI_UNIT ( .MILLI., .METRE. ) );
#237 =( GEOMETRIC_REPRESENTATION_CONTEXT ( 3 ) GLOBAL_UNCERTAINTY_ASSIGNED_CONTEXT ( ( #257 ) ) GLOBAL_UNIT_ASSIGNED_CONTEXT ( ( #147, #276, #61 ) ) REPRESENTATION_CONTEXT ( 'NONE', 'WORKASPACE' ) );
#238 = SURFACE_STYLE_USAGE ( .BOTH. , #177 ) ;
#239 = AXIS2_PLACEMENT_3D ( 'NONE', #271, #39, #171 ) ;
#240 = EDGE_LOOP ( 'NONE', ( #165, #203 ) ) ;
#241 = FACE_OUTER_BOUND ( 'NONE', #182, .T. ) ;
#242 = DIRECTION ( 'NONE',  ( 1.000000000000000000, 4.046080116786000560E-16, 0.000000000000000000 ) ) ;
#243 = STYLED_ITEM ( 'NONE', ( #195 ), #33 ) ;
#244 = ADVANCED_FACE ( 'NONE', ( #74 ), #140, .F. ) ;
#245 = DIRECTION ( 'NONE',  ( 1.000000000000000000, 4.046080116786000560E-16, 0.000000000000000000 ) ) ;
#246 = ADVANCED_FACE ( 'NONE', ( ), #185, .T. ) ;
#247 = ORIENTED_EDGE ( 'NONE', *, *, #30, .T. ) ;
#248 = AXIS2_PLACEMENT_3D ( 'NONE', #121, #59, #252 ) ;
#249 = CARTESIAN_POINT ( 'NONE',  ( -279.6274786108853618, 3.081487911019577365E-30, 0.000000000000000000 ) ) ;
#250 = DIRECTION ( 'NONE',  ( 0.000000000000000000, 0.000000000000000000, -1.000000000000000000 ) ) ;
#251 = VECTOR ( 'NONE', #201, 1000.000000000000000 ) ;
#252 = DIRECTION ( 'NONE',  ( 1.000000000000000000, 5.079283697562631313E-16, 0.000000000000000000 ) ) ;
#253 = CONICAL_SURFACE ( 'NONE', #85, 404.2272126816378659, 0.3841452057184321367 ) ;
#254 = MECHANICAL_DESIGN_GEOMETRIC_PRESENTATION_REPRESENTATION (  '', ( #223 ), #77 ) ;
#255 = FACE_OUTER_BOUND ( 'NONE', #141, .T. ) ;
#256 = FACE_OUTER_BOUND ( 'NONE', #229, .T. ) ;
#257 = UNCERTAINTY_MEASURE_WITH_UNIT (LENGTH_MEASURE( 1.000000000000000082E-05 ), #147, 'distance_accuracy_value', 'NONE');
#258 =( NAMED_UNIT ( * ) SI_UNIT ( $, .STERADIAN. ) SOLID_ANGLE_UNIT ( ) );
#259 = CARTESIAN_POINT ( 'NONE',  ( -150.3782165272086786, -4.088691596839861464E-16, 0.000000000000000000 ) ) ;
#260 = APPLICATION_CONTEXT ( 'automotive_design' ) ;
#261 = ORIENTED_EDGE ( 'NONE', *, *, #152, .T. ) ;
#262 = CARTESIAN_POINT ( 'NONE',  ( 177.7005490334121589, 34.29934011993392318, 0.000000000000000000 ) ) ;
#263 =( GEOMETRIC_REPRESENTATION_CONTEXT ( 3 ) GLOBAL_UNCERTAINTY_ASSIGNED_CONTEXT ( ( #18 ) ) GLOBAL_UNIT_ASSIGNED_CONTEXT ( ( #138, #32, #224 ) ) REPRESENTATION_CONTEXT ( 'NONE', 'WORKASPACE' ) );
#264 = CARTESIAN_POINT ( 'NONE',  ( -252.3051461046819099, -4.088691596839861464E-16, 0.000000000000000000 ) ) ;
#265 = DIRECTION ( 'NONE',  ( 0.000000000000000000, 0.000000000000000000, 1.000000000000000000 ) ) ;
#266 = DIRECTION ( 'NONE',  ( -0.000000000000000000, -1.000000000000000000, -0.000000000000000000 ) ) ;
#267 = ORIENTED_EDGE ( 'NONE', *, *, #34, .F. ) ;
#268 = VERTEX_POINT ( 'NONE', #81 ) ;
#269 = EDGE_LOOP ( 'NONE', ( #228, #162 ) ) ;
#270 = AXIS2_PLACEMENT_3D ( 'NONE', #262, #265, #76 ) ;
#271 = CARTESIAN_POINT ( 'NONE',  ( -252.3051461046819099, 68.59868023986786056, 0.000000000000000000 ) ) ;
#272 = UNCERTAINTY_MEASURE_WITH_UNIT (LENGTH_MEASURE( 1.000000000000000082E-05 ), #236, 'distance_accuracy_value', 'NONE');
#273 =( GEOMETRIC_REPRESENTATION_CONTEXT ( 3 ) GLOBAL_UNCERTAINTY_ASSIGNED_CONTEXT ( ( #2 ) ) GLOBAL_UNIT_ASSIGNED_CONTEXT ( ( #213, #235, #17 ) ) REPRESENTATION_CONTEXT ( 'NONE', 'WORKASPACE' ) );
#274 = ADVANCED_FACE ( 'NONE', ( #241 ), #253, .T. ) ;
#275 = DIRECTION ( 'NONE',  ( 0.000000000000000000, 0.000000000000000000, 1.000000000000000000 ) ) ;
#276 =( NAMED_UNIT ( * ) PLANE_ANGLE_UNIT ( ) SI_UNIT ( $, .RADIAN. ) );
#277 = DIRECTION ( 'NONE',  ( 1.000000000000000000, 4.046080116786000560E-16, 0.000000000000000000 ) ) ;
ENDSEC;
END-ISO-10303-21;
