ISO-10303-21;
HEADER;
FILE_DESCRIPTION (( 'STEP AP214' ),
    '1' );
FILE_NAME ('C8_decal__ap214_cfg.step',
    '2026-08-06T13:09:30',
    ( '' ),
    ( '' ),
    'SwSTEP 2.0',
    'SolidWorks 2026',
    '' );
FILE_SCHEMA (( 'AUTOMOTIVE_DESIGN' ));
ENDSEC;

DATA;
#1 = CIRCLE ( 'NONE', #47, 50.00000000000000000 ) ;
#2 = VERTEX_POINT ( 'NONE', #54 ) ;
#3 = DIRECTION ( 'NONE',  ( 0.000000000000000000, 1.000000000000000000, 0.000000000000000000 ) ) ;
#4 = SURFACE_SIDE_STYLE ('',( #67 ) ) ;
#5 =( NAMED_UNIT ( * ) PLANE_ANGLE_UNIT ( ) SI_UNIT ( $, .RADIAN. ) );
#6 = AXIS2_PLACEMENT_3D ( 'NONE', #38, #84, #23 ) ;
#7 = APPLICATION_PROTOCOL_DEFINITION ( 'draft international standard', 'automotive_design', 1998, #58 ) ;
#8 = DIRECTION ( 'NONE',  ( 0.000000000000000000, 0.000000000000000000, 1.000000000000000000 ) ) ;
#9 = DIRECTION ( 'NONE',  ( 0.000000000000000000, 0.000000000000000000, -1.000000000000000000 ) ) ;
#10 = PRODUCT_RELATED_PRODUCT_CATEGORY ( 'part', '', ( #60 ) ) ;
#11 = UNCERTAINTY_MEASURE_WITH_UNIT (LENGTH_MEASURE( 1.000000000000000082E-05 ), #22, 'distance_accuracy_value', 'NONE');
#12 =( GEOMETRIC_REPRESENTATION_CONTEXT ( 3 ) GLOBAL_UNCERTAINTY_ASSIGNED_CONTEXT ( ( #11 ) ) GLOBAL_UNIT_ASSIGNED_CONTEXT ( ( #22, #5, #41 ) ) REPRESENTATION_CONTEXT ( 'NONE', 'WORKASPACE' ) );
#13 = ORIENTED_EDGE ( 'NONE', *, *, #74, .F. ) ;
#14 = AXIS2_PLACEMENT_3D ( 'NONE', #71, #8, #57 ) ;
#15 = DIRECTION ( 'NONE',  ( 0.000000000000000000, 1.000000000000000000, 0.000000000000000000 ) ) ;
#16 = CARTESIAN_POINT ( 'NONE',  ( 0.000000000000000000, 100.0000000000000000, 50.00000000000000000 ) ) ;
#17 = DIRECTION ( 'NONE',  ( 0.000000000000000000, 0.000000000000000000, 1.000000000000000000 ) ) ;
#18 = SURFACE_STYLE_USAGE ( .BOTH. , #4 ) ;
#19 =( NAMED_UNIT ( * ) PLANE_ANGLE_UNIT ( ) SI_UNIT ( $, .RADIAN. ) );
#20 = EDGE_LOOP ( 'NONE', ( #70 ) ) ;
#21 = ORIENTED_EDGE ( 'NONE', *, *, #82, .T. ) ;
#22 =( LENGTH_UNIT ( ) NAMED_UNIT ( * ) SI_UNIT ( .MILLI., .METRE. ) );
#23 = DIRECTION ( 'NONE',  ( 0.000000000000000000, 0.000000000000000000, 1.000000000000000000 ) ) ;
#24 = APPLICATION_CONTEXT ( 'automotive_design' ) ;
#25 = AXIS2_PLACEMENT_3D ( 'NONE', #83, #15, #73 ) ;
#26 = SHAPE_DEFINITION_REPRESENTATION ( #75, #43 ) ;
#27 = EDGE_LOOP ( 'NONE', ( #13 ) ) ;
#28 =( NAMED_UNIT ( * ) SI_UNIT ( $, .STERADIAN. ) SOLID_ANGLE_UNIT ( ) );
#29 = CARTESIAN_POINT ( 'NONE',  ( 0.000000000000000000, 100.0000000000000000, 0.000000000000000000 ) ) ;
#30 = PRODUCT_CONTEXT ( 'NONE', #58, 'mechanical' ) ;
#31 = PRESENTATION_LAYER_ASSIGNMENT (  '', '', ( #36 ) ) ;
#32 = UNCERTAINTY_MEASURE_WITH_UNIT (LENGTH_MEASURE( 1.000000000000000082E-05 ), #50, 'distance_accuracy_value', 'NONE');
#33 = ADVANCED_FACE ( 'NONE', ( #44, #76 ), #48, .T. ) ;
#34 =( GEOMETRIC_REPRESENTATION_CONTEXT ( 3 ) GLOBAL_UNCERTAINTY_ASSIGNED_CONTEXT ( ( #32 ) ) GLOBAL_UNIT_ASSIGNED_CONTEXT ( ( #50, #19, #28 ) ) REPRESENTATION_CONTEXT ( 'NONE', 'WORKASPACE' ) );
#35 = DIRECTION ( 'NONE',  ( -0.000000000000000000, -1.000000000000000000, -0.000000000000000000 ) ) ;
#36 = STYLED_ITEM ( 'NONE', ( #56 ), #59 ) ;
#37 = FACE_OUTER_BOUND ( 'NONE', #61, .T. ) ;
#38 = CARTESIAN_POINT ( 'NONE',  ( 0.000000000000000000, 0.000000000000000000, 0.000000000000000000 ) ) ;
#39 = ADVANCED_FACE ( 'NONE', ( #37 ), #53, .F. ) ;
#40 = EDGE_LOOP ( 'NONE', ( #21 ) ) ;
#41 =( NAMED_UNIT ( * ) SI_UNIT ( $, .STERADIAN. ) SOLID_ANGLE_UNIT ( ) );
#42 = PLANE ( 'NONE',  #62 ) ;
#43 = ADVANCED_BREP_SHAPE_REPRESENTATION ( 'C8_decal__ap214_cfg', ( #59, #14 ), #34 ) ;
#44 = FACE_OUTER_BOUND ( 'NONE', #27, .T. ) ;
#45 = CIRCLE ( 'NONE', #6, 50.00000000000000000 ) ;
#46 = PRODUCT_DEFINITION ( 'UNKNOWN', '', #63, #77 ) ;
#47 = AXIS2_PLACEMENT_3D ( 'NONE', #65, #80, #17 ) ;
#48 = CYLINDRICAL_SURFACE ( 'NONE', #78, 50.00000000000000000 ) ;
#49 = FACE_OUTER_BOUND ( 'NONE', #20, .T. ) ;
#50 =( LENGTH_UNIT ( ) NAMED_UNIT ( * ) SI_UNIT ( .MILLI., .METRE. ) );
#51 = APPLICATION_PROTOCOL_DEFINITION ( 'draft international standard', 'automotive_design', 1998, #24 ) ;
#52 = CLOSED_SHELL ( 'NONE', ( #33, #79, #39 ) ) ;
#53 = PLANE ( 'NONE',  #25 ) ;
#54 = CARTESIAN_POINT ( 'NONE',  ( 0.000000000000000000, 0.000000000000000000, 50.00000000000000000 ) ) ;
#55 = DIRECTION ( 'NONE',  ( 0.000000000000000000, -0.000000000000000000, 1.000000000000000000 ) ) ;
#56 = PRESENTATION_STYLE_ASSIGNMENT (( #18 ) ) ;
#57 = DIRECTION ( 'NONE',  ( 1.000000000000000000, 0.000000000000000000, 0.000000000000000000 ) ) ;
#58 = APPLICATION_CONTEXT ( 'automotive_design' ) ;
#59 = MANIFOLD_SOLID_BREP ( 'Boss-Extrude1', #52 ) ;
#60 = PRODUCT ( 'C8_decal__ap214_cfg', 'C8_decal__ap214_cfg', '', ( #30 ) ) ;
#61 = EDGE_LOOP ( 'NONE', ( #69 ) ) ;
#62 = AXIS2_PLACEMENT_3D ( 'NONE', #29, #3, #55 ) ;
#63 = PRODUCT_DEFINITION_FORMATION_WITH_SPECIFIED_SOURCE ( 'ANY', '', #60, .NOT_KNOWN. ) ;
#64 = CARTESIAN_POINT ( 'NONE',  ( 0.000000000000000000, 100.0000000000000000, 0.000000000000000000 ) ) ;
#65 = CARTESIAN_POINT ( 'NONE',  ( 0.000000000000000000, 100.0000000000000000, 0.000000000000000000 ) ) ;
#66 = MECHANICAL_DESIGN_GEOMETRIC_PRESENTATION_REPRESENTATION (  '', ( #36 ), #12 ) ;
#67 = SURFACE_STYLE_FILL_AREA ( #81 ) ;
#68 = COLOUR_RGB ( '',1.000000000000000000, 0.000000000000000000, 0.000000000000000000 ) ;
#69 = ORIENTED_EDGE ( 'NONE', *, *, #82, .F. ) ;
#70 = ORIENTED_EDGE ( 'NONE', *, *, #74, .T. ) ;
#71 = CARTESIAN_POINT ( 'NONE',  ( 0.000000000000000000, 0.000000000000000000, 0.000000000000000000 ) ) ;
#72 = FILL_AREA_STYLE_COLOUR ( '', #68 ) ;
#73 = DIRECTION ( 'NONE',  ( 0.000000000000000000, -0.000000000000000000, 1.000000000000000000 ) ) ;
#74 = EDGE_CURVE ( 'NONE', #85, #85, #1, .T. ) ;
#75 = PRODUCT_DEFINITION_SHAPE ( 'NONE', 'NONE',  #46 ) ;
#76 = FACE_OUTER_BOUND ( 'NONE', #40, .T. ) ;
#77 = PRODUCT_DEFINITION_CONTEXT ( 'detailed design', #24, 'design' ) ;
#78 = AXIS2_PLACEMENT_3D ( 'NONE', #64, #35, #9 ) ;
#79 = ADVANCED_FACE ( 'NONE', ( #49 ), #42, .T. ) ;
#80 = DIRECTION ( 'NONE',  ( 0.000000000000000000, 1.000000000000000000, 0.000000000000000000 ) ) ;
#81 = FILL_AREA_STYLE ('',( #72 ) ) ;
#82 = EDGE_CURVE ( 'NONE', #2, #2, #45, .T. ) ;
#83 = CARTESIAN_POINT ( 'NONE',  ( 0.000000000000000000, 0.000000000000000000, 0.000000000000000000 ) ) ;
#84 = DIRECTION ( 'NONE',  ( 0.000000000000000000, 1.000000000000000000, 0.000000000000000000 ) ) ;
#85 = VERTEX_POINT ( 'NONE', #16 ) ;
ENDSEC;
END-ISO-10303-21;
