ISO-10303-21;
HEADER;
FILE_DESCRIPTION (( 'STEP AP214' ),
    '1' );
FILE_NAME ('C8_decal__ap214_split.step',
    '2026-08-06T13:09:30',
    ( '' ),
    ( '' ),
    'SwSTEP 2.0',
    'SolidWorks 2026',
    '' );
FILE_SCHEMA (( 'AUTOMOTIVE_DESIGN' ));
ENDSEC;

DATA;
#1 = SURFACE_SIDE_STYLE ('',( #47 ) ) ;
#2 = ORIENTED_EDGE ( 'NONE', *, *, #102, .F. ) ;
#3 =( GEOMETRIC_REPRESENTATION_CONTEXT ( 3 ) GLOBAL_UNCERTAINTY_ASSIGNED_CONTEXT ( ( #76 ) ) GLOBAL_UNIT_ASSIGNED_CONTEXT ( ( #41, #119, #122 ) ) REPRESENTATION_CONTEXT ( 'NONE', 'WORKASPACE' ) );
#4 = VERTEX_POINT ( 'NONE', #48 ) ;
#5 = DIRECTION ( 'NONE',  ( 0.000000000000000000, -0.000000000000000000, 1.000000000000000000 ) ) ;
#6 = APPLICATION_PROTOCOL_DEFINITION ( 'draft international standard', 'automotive_design', 1998, #55 ) ;
#7 = APPLICATION_PROTOCOL_DEFINITION ( 'draft international standard', 'automotive_design', 1998, #24 ) ;
#8 = DIRECTION ( 'NONE',  ( 1.000000000000000000, 0.000000000000000000, 0.000000000000000000 ) ) ;
#9 = MECHANICAL_DESIGN_GEOMETRIC_PRESENTATION_REPRESENTATION (  '', ( #57 ), #3 ) ;
#10 = ADVANCED_BREP_SHAPE_REPRESENTATION ( 'C8_decal__ap214_split', ( #44, #56 ), #67 ) ;
#11 = EDGE_LOOP ( 'NONE', ( #49, #60, #83, #2 ) ) ;
#12 = VERTEX_POINT ( 'NONE', #26 ) ;
#13 = DIRECTION ( 'NONE',  ( 0.000000000000000000, 1.000000000000000000, 0.000000000000000000 ) ) ;
#14 = EDGE_LOOP ( 'NONE', ( #105, #112 ) ) ;
#15 = CARTESIAN_POINT ( 'NONE',  ( 0.000000000000000000, 0.000000000000000000, 0.000000000000000000 ) ) ;
#16 = SHAPE_DEFINITION_REPRESENTATION ( #107, #10 ) ;
#17 = DIRECTION ( 'NONE',  ( 0.000000000000000000, 0.000000000000000000, 1.000000000000000000 ) ) ;
#18 = EDGE_CURVE ( 'NONE', #90, #85, #73, .T. ) ;
#19 = FACE_OUTER_BOUND ( 'NONE', #11, .T. ) ;
#20 = VECTOR ( 'NONE', #71, 1000.000000000000000 ) ;
#21 = AXIS2_PLACEMENT_3D ( 'NONE', #104, #13, #96 ) ;
#22 = VECTOR ( 'NONE', #114, 1000.000000000000000 ) ;
#23 = CARTESIAN_POINT ( 'NONE',  ( 0.000000000000000000, 0.000000000000000000, 0.000000000000000000 ) ) ;
#24 = APPLICATION_CONTEXT ( 'automotive_design' ) ;
#25 = DIRECTION ( 'NONE',  ( 0.000000000000000000, 1.000000000000000000, 0.000000000000000000 ) ) ;
#26 = CARTESIAN_POINT ( 'NONE',  ( 0.000000000000000000, 0.000000000000000000, -50.00000000000000000 ) ) ;
#27 = LINE ( 'NONE', #63, #20 ) ;
#28 = CARTESIAN_POINT ( 'NONE',  ( 0.000000000000000000, 0.000000000000000000, 0.000000000000000000 ) ) ;
#29 = CYLINDRICAL_SURFACE ( 'NONE', #89, 50.00000000000000000 ) ;
#30 = EDGE_CURVE ( 'NONE', #90, #4, #27, .T. ) ;
#31 = PRODUCT_DEFINITION_FORMATION_WITH_SPECIFIED_SOURCE ( 'ANY', '', #78, .NOT_KNOWN. ) ;
#32 = PLANE ( 'NONE',  #37 ) ;
#33 = ORIENTED_EDGE ( 'NONE', *, *, #102, .T. ) ;
#34 = FACE_OUTER_BOUND ( 'NONE', #14, .T. ) ;
#35 = LINE ( 'NONE', #115, #22 ) ;
#36 = DIRECTION ( 'NONE',  ( 0.000000000000000000, 0.000000000000000000, -1.000000000000000000 ) ) ;
#37 = AXIS2_PLACEMENT_3D ( 'NONE', #52, #25, #5 ) ;
#38 = AXIS2_PLACEMENT_3D ( 'NONE', #28, #54, #17 ) ;
#39 = SURFACE_STYLE_USAGE ( .BOTH. , #1 ) ;
#40 = CARTESIAN_POINT ( 'NONE',  ( 6.123233995736766085E-15, 100.0000000000000000, 50.00000000000000000 ) ) ;
#41 =( LENGTH_UNIT ( ) NAMED_UNIT ( * ) SI_UNIT ( .MILLI., .METRE. ) );
#42 = COLOUR_RGB ( '',1.000000000000000000, 0.000000000000000000, 0.000000000000000000 ) ;
#43 = PRODUCT_CONTEXT ( 'NONE', #24, 'mechanical' ) ;
#44 = MANIFOLD_SOLID_BREP ( 'Boss-Extrude1', #69 ) ;
#45 = ADVANCED_FACE ( 'NONE', ( #86 ), #68, .F. ) ;
#46 = CIRCLE ( 'NONE', #92, 50.00000000000000000 ) ;
#47 = SURFACE_STYLE_FILL_AREA ( #93 ) ;
#48 = CARTESIAN_POINT ( 'NONE',  ( 6.123233995736766085E-15, 0.000000000000000000, 50.00000000000000000 ) ) ;
#49 = ORIENTED_EDGE ( 'NONE', *, *, #18, .F. ) ;
#50 = CARTESIAN_POINT ( 'NONE',  ( 0.000000000000000000, 100.0000000000000000, -50.00000000000000000 ) ) ;
#51 = ADVANCED_FACE ( 'NONE', ( #34 ), #32, .T. ) ;
#52 = CARTESIAN_POINT ( 'NONE',  ( 0.000000000000000000, 100.0000000000000000, 0.000000000000000000 ) ) ;
#53 = DIRECTION ( 'NONE',  ( 0.000000000000000000, 0.000000000000000000, -1.000000000000000000 ) ) ;
#54 = DIRECTION ( 'NONE',  ( 0.000000000000000000, 1.000000000000000000, 0.000000000000000000 ) ) ;
#55 = APPLICATION_CONTEXT ( 'automotive_design' ) ;
#56 = AXIS2_PLACEMENT_3D ( 'NONE', #15, #99, #8 ) ;
#57 = STYLED_ITEM ( 'NONE', ( #59 ), #44 ) ;
#58 = CIRCLE ( 'NONE', #38, 50.00000000000000000 ) ;
#59 = PRESENTATION_STYLE_ASSIGNMENT (( #39 ) ) ;
#60 = ORIENTED_EDGE ( 'NONE', *, *, #30, .T. ) ;
#61 = ORIENTED_EDGE ( 'NONE', *, *, #30, .F. ) ;
#62 = FILL_AREA_STYLE_COLOUR ( '', #42 ) ;
#63 = CARTESIAN_POINT ( 'NONE',  ( 6.123233995736766085E-15, 100.0000000000000000, 50.00000000000000000 ) ) ;
#64 = PRESENTATION_LAYER_ASSIGNMENT (  '', '', ( #57 ) ) ;
#65 = CARTESIAN_POINT ( 'NONE',  ( 0.000000000000000000, 100.0000000000000000, 0.000000000000000000 ) ) ;
#66 = AXIS2_PLACEMENT_3D ( 'NONE', #72, #94, #113 ) ;
#67 =( GEOMETRIC_REPRESENTATION_CONTEXT ( 3 ) GLOBAL_UNCERTAINTY_ASSIGNED_CONTEXT ( ( #117 ) ) GLOBAL_UNIT_ASSIGNED_CONTEXT ( ( #125, #100, #75 ) ) REPRESENTATION_CONTEXT ( 'NONE', 'WORKASPACE' ) );
#68 = PLANE ( 'NONE',  #77 ) ;
#69 = CLOSED_SHELL ( 'NONE', ( #120, #95, #51, #45 ) ) ;
#70 = ORIENTED_EDGE ( 'NONE', *, *, #98, .F. ) ;
#71 = DIRECTION ( 'NONE',  ( -0.000000000000000000, -1.000000000000000000, -0.000000000000000000 ) ) ;
#72 = CARTESIAN_POINT ( 'NONE',  ( 0.000000000000000000, 100.0000000000000000, 0.000000000000000000 ) ) ;
#73 = CIRCLE ( 'NONE', #66, 50.00000000000000000 ) ;
#74 = CYLINDRICAL_SURFACE ( 'NONE', #124, 50.00000000000000000 ) ;
#75 =( NAMED_UNIT ( * ) SI_UNIT ( $, .STERADIAN. ) SOLID_ANGLE_UNIT ( ) );
#76 = UNCERTAINTY_MEASURE_WITH_UNIT (LENGTH_MEASURE( 1.000000000000000082E-05 ), #41, 'distance_accuracy_value', 'NONE');
#77 = AXIS2_PLACEMENT_3D ( 'NONE', #23, #111, #121 ) ;
#78 = PRODUCT ( 'C8_decal__ap214_split', 'C8_decal__ap214_split', '', ( #43 ) ) ;
#79 = DIRECTION ( 'NONE',  ( -0.000000000000000000, -1.000000000000000000, -0.000000000000000000 ) ) ;
#80 = PRODUCT_RELATED_PRODUCT_CATEGORY ( 'part', '', ( #78 ) ) ;
#81 = CARTESIAN_POINT ( 'NONE',  ( 0.000000000000000000, 100.0000000000000000, 0.000000000000000000 ) ) ;
#82 = EDGE_CURVE ( 'NONE', #4, #12, #108, .T. ) ;
#83 = ORIENTED_EDGE ( 'NONE', *, *, #82, .T. ) ;
#84 = EDGE_LOOP ( 'NONE', ( #70, #103 ) ) ;
#85 = VERTEX_POINT ( 'NONE', #50 ) ;
#86 = FACE_OUTER_BOUND ( 'NONE', #84, .T. ) ;
#87 = CARTESIAN_POINT ( 'NONE',  ( 0.000000000000000000, 100.0000000000000000, 0.000000000000000000 ) ) ;
#88 = DIRECTION ( 'NONE',  ( 0.000000000000000000, 0.000000000000000000, 1.000000000000000000 ) ) ;
#89 = AXIS2_PLACEMENT_3D ( 'NONE', #65, #116, #53 ) ;
#90 = VERTEX_POINT ( 'NONE', #40 ) ;
#91 = EDGE_CURVE ( 'NONE', #85, #90, #46, .T. ) ;
#92 = AXIS2_PLACEMENT_3D ( 'NONE', #87, #97, #88 ) ;
#93 = FILL_AREA_STYLE ('',( #62 ) ) ;
#94 = DIRECTION ( 'NONE',  ( 0.000000000000000000, 1.000000000000000000, 0.000000000000000000 ) ) ;
#95 = ADVANCED_FACE ( 'NONE', ( #123 ), #74, .T. ) ;
#96 = DIRECTION ( 'NONE',  ( 0.000000000000000000, 0.000000000000000000, 1.000000000000000000 ) ) ;
#97 = DIRECTION ( 'NONE',  ( 0.000000000000000000, 1.000000000000000000, 0.000000000000000000 ) ) ;
#98 = EDGE_CURVE ( 'NONE', #12, #4, #58, .T. ) ;
#99 = DIRECTION ( 'NONE',  ( 0.000000000000000000, 0.000000000000000000, 1.000000000000000000 ) ) ;
#100 =( NAMED_UNIT ( * ) PLANE_ANGLE_UNIT ( ) SI_UNIT ( $, .RADIAN. ) );
#101 = PRODUCT_DEFINITION ( 'UNKNOWN', '', #31, #118 ) ;
#102 = EDGE_CURVE ( 'NONE', #85, #12, #35, .T. ) ;
#103 = ORIENTED_EDGE ( 'NONE', *, *, #82, .F. ) ;
#104 = CARTESIAN_POINT ( 'NONE',  ( 0.000000000000000000, 0.000000000000000000, 0.000000000000000000 ) ) ;
#105 = ORIENTED_EDGE ( 'NONE', *, *, #91, .T. ) ;
#106 = ORIENTED_EDGE ( 'NONE', *, *, #91, .F. ) ;
#107 = PRODUCT_DEFINITION_SHAPE ( 'NONE', 'NONE',  #101 ) ;
#108 = CIRCLE ( 'NONE', #21, 50.00000000000000000 ) ;
#109 = EDGE_LOOP ( 'NONE', ( #61, #106, #33, #110 ) ) ;
#110 = ORIENTED_EDGE ( 'NONE', *, *, #98, .T. ) ;
#111 = DIRECTION ( 'NONE',  ( 0.000000000000000000, 1.000000000000000000, 0.000000000000000000 ) ) ;
#112 = ORIENTED_EDGE ( 'NONE', *, *, #18, .T. ) ;
#113 = DIRECTION ( 'NONE',  ( 0.000000000000000000, 0.000000000000000000, 1.000000000000000000 ) ) ;
#114 = DIRECTION ( 'NONE',  ( -0.000000000000000000, -1.000000000000000000, -0.000000000000000000 ) ) ;
#115 = CARTESIAN_POINT ( 'NONE',  ( 0.000000000000000000, 100.0000000000000000, -50.00000000000000000 ) ) ;
#116 = DIRECTION ( 'NONE',  ( -0.000000000000000000, -1.000000000000000000, -0.000000000000000000 ) ) ;
#117 = UNCERTAINTY_MEASURE_WITH_UNIT (LENGTH_MEASURE( 1.000000000000000082E-05 ), #125, 'distance_accuracy_value', 'NONE');
#118 = PRODUCT_DEFINITION_CONTEXT ( 'detailed design', #55, 'design' ) ;
#119 =( NAMED_UNIT ( * ) PLANE_ANGLE_UNIT ( ) SI_UNIT ( $, .RADIAN. ) );
#120 = ADVANCED_FACE ( 'NONE', ( #19 ), #29, .T. ) ;
#121 = DIRECTION ( 'NONE',  ( 0.000000000000000000, -0.000000000000000000, 1.000000000000000000 ) ) ;
#122 =( NAMED_UNIT ( * ) SI_UNIT ( $, .STERADIAN. ) SOLID_ANGLE_UNIT ( ) );
#123 = FACE_OUTER_BOUND ( 'NONE', #109, .T. ) ;
#124 = AXIS2_PLACEMENT_3D ( 'NONE', #81, #79, #36 ) ;
#125 =( LENGTH_UNIT ( ) NAMED_UNIT ( * ) SI_UNIT ( .MILLI., .METRE. ) );
ENDSEC;
END-ISO-10303-21;
