ISO-10303-21;
HEADER;
FILE_DESCRIPTION (( 'STEP AP214' ),
    '1' );
FILE_NAME ('C8_decal__ap214_appear.step',
    '2026-08-06T13:09:30',
    ( '' ),
    ( '' ),
    'SwSTEP 2.0',
    'SolidWorks 2026',
    '' );
FILE_SCHEMA (( 'AUTOMOTIVE_DESIGN' ));
ENDSEC;

DATA;
#1 = PRODUCT_RELATED_PRODUCT_CATEGORY ( 'part', '', ( #77 ) ) ;
#2 = SURFACE_STYLE_FILL_AREA ( #79 ) ;
#3 = EDGE_CURVE ( 'NONE', #33, #33, #27, .T. ) ;
#4 =( LENGTH_UNIT ( ) NAMED_UNIT ( * ) SI_UNIT ( .MILLI., .METRE. ) );
#5 = APPLICATION_PROTOCOL_DEFINITION ( 'draft international standard', 'automotive_design', 1998, #48 ) ;
#6 = DIRECTION ( 'NONE',  ( 1.000000000000000000, 0.000000000000000000, 0.000000000000000000 ) ) ;
#7 = DIRECTION ( 'NONE',  ( 0.000000000000000000, 1.000000000000000000, 0.000000000000000000 ) ) ;
#8 = AXIS2_PLACEMENT_3D ( 'NONE', #75, #7, #49 ) ;
#9 = APPLICATION_PROTOCOL_DEFINITION ( 'draft international standard', 'automotive_design', 1998, #71 ) ;
#10 = STYLED_ITEM ( 'NONE', ( #62 ), #59 ) ;
#11 =( NAMED_UNIT ( * ) PLANE_ANGLE_UNIT ( ) SI_UNIT ( $, .RADIAN. ) );
#12 = FACE_OUTER_BOUND ( 'NONE', #72, .T. ) ;
#13 = CARTESIAN_POINT ( 'NONE',  ( 0.000000000000000000, 100.0000000000000000, 0.000000000000000000 ) ) ;
#14 = FACE_OUTER_BOUND ( 'NONE', #47, .T. ) ;
#15 = UNCERTAINTY_MEASURE_WITH_UNIT (LENGTH_MEASURE( 1.000000000000000082E-05 ), #4, 'distance_accuracy_value', 'NONE');
#16 = DIRECTION ( 'NONE',  ( 0.000000000000000000, 1.000000000000000000, 0.000000000000000000 ) ) ;
#17 = AXIS2_PLACEMENT_3D ( 'NONE', #51, #43, #6 ) ;
#18 = DIRECTION ( 'NONE',  ( 0.000000000000000000, -0.000000000000000000, 1.000000000000000000 ) ) ;
#19 = ADVANCED_BREP_SHAPE_REPRESENTATION ( 'C8_decal__ap214_appear', ( #59, #17 ), #38 ) ;
#20 =( NAMED_UNIT ( * ) SI_UNIT ( $, .STERADIAN. ) SOLID_ANGLE_UNIT ( ) );
#21 = DIRECTION ( 'NONE',  ( 0.000000000000000000, 0.000000000000000000, 1.000000000000000000 ) ) ;
#22 = CARTESIAN_POINT ( 'NONE',  ( 0.000000000000000000, 100.0000000000000000, 0.000000000000000000 ) ) ;
#23 = ADVANCED_FACE ( 'NONE', ( #12 ), #28, .F. ) ;
#24 = PRODUCT_DEFINITION_SHAPE ( 'NONE', 'NONE',  #52 ) ;
#25 = MECHANICAL_DESIGN_GEOMETRIC_PRESENTATION_REPRESENTATION (  '', ( #10 ), #64 ) ;
#26 = DIRECTION ( 'NONE',  ( -0.000000000000000000, -1.000000000000000000, -0.000000000000000000 ) ) ;
#27 = CIRCLE ( 'NONE', #35, 50.00000000000000000 ) ;
#28 = PLANE ( 'NONE',  #46 ) ;
#29 = DIRECTION ( 'NONE',  ( 0.000000000000000000, 1.000000000000000000, 0.000000000000000000 ) ) ;
#30 = ORIENTED_EDGE ( 'NONE', *, *, #82, .F. ) ;
#31 = FACE_OUTER_BOUND ( 'NONE', #70, .T. ) ;
#32 = PLANE ( 'NONE',  #44 ) ;
#33 = VERTEX_POINT ( 'NONE', #36 ) ;
#34 = SHAPE_DEFINITION_REPRESENTATION ( #24, #19 ) ;
#35 = AXIS2_PLACEMENT_3D ( 'NONE', #60, #16, #21 ) ;
#36 = CARTESIAN_POINT ( 'NONE',  ( 0.000000000000000000, 0.000000000000000000, 50.00000000000000000 ) ) ;
#37 = DIRECTION ( 'NONE',  ( 0.000000000000000000, -0.000000000000000000, 1.000000000000000000 ) ) ;
#38 =( GEOMETRIC_REPRESENTATION_CONTEXT ( 3 ) GLOBAL_UNCERTAINTY_ASSIGNED_CONTEXT ( ( #76 ) ) GLOBAL_UNIT_ASSIGNED_CONTEXT ( ( #85, #11, #20 ) ) REPRESENTATION_CONTEXT ( 'NONE', 'WORKASPACE' ) );
#39 = ORIENTED_EDGE ( 'NONE', *, *, #3, .F. ) ;
#40 = ORIENTED_EDGE ( 'NONE', *, *, #3, .T. ) ;
#41 = CLOSED_SHELL ( 'NONE', ( #69, #45, #23 ) ) ;
#42 = CARTESIAN_POINT ( 'NONE',  ( 0.000000000000000000, 100.0000000000000000, 50.00000000000000000 ) ) ;
#43 = DIRECTION ( 'NONE',  ( 0.000000000000000000, 0.000000000000000000, 1.000000000000000000 ) ) ;
#44 = AXIS2_PLACEMENT_3D ( 'NONE', #22, #29, #37 ) ;
#45 = ADVANCED_FACE ( 'NONE', ( #14 ), #32, .T. ) ;
#46 = AXIS2_PLACEMENT_3D ( 'NONE', #81, #58, #18 ) ;
#47 = EDGE_LOOP ( 'NONE', ( #83 ) ) ;
#48 = APPLICATION_CONTEXT ( 'automotive_design' ) ;
#49 = DIRECTION ( 'NONE',  ( 0.000000000000000000, 0.000000000000000000, 1.000000000000000000 ) ) ;
#50 =( NAMED_UNIT ( * ) PLANE_ANGLE_UNIT ( ) SI_UNIT ( $, .RADIAN. ) );
#51 = CARTESIAN_POINT ( 'NONE',  ( 0.000000000000000000, 0.000000000000000000, 0.000000000000000000 ) ) ;
#52 = PRODUCT_DEFINITION ( 'UNKNOWN', '', #68, #67 ) ;
#53 = COLOUR_RGB ( '',1.000000000000000000, 0.000000000000000000, 0.000000000000000000 ) ;
#54 = EDGE_LOOP ( 'NONE', ( #30 ) ) ;
#55 = CYLINDRICAL_SURFACE ( 'NONE', #61, 50.00000000000000000 ) ;
#56 = PRESENTATION_LAYER_ASSIGNMENT (  '', '', ( #10 ) ) ;
#57 = SURFACE_SIDE_STYLE ('',( #2 ) ) ;
#58 = DIRECTION ( 'NONE',  ( 0.000000000000000000, 1.000000000000000000, 0.000000000000000000 ) ) ;
#59 = MANIFOLD_SOLID_BREP ( 'Boss-Extrude1', #41 ) ;
#60 = CARTESIAN_POINT ( 'NONE',  ( 0.000000000000000000, 0.000000000000000000, 0.000000000000000000 ) ) ;
#61 = AXIS2_PLACEMENT_3D ( 'NONE', #13, #26, #80 ) ;
#62 = PRESENTATION_STYLE_ASSIGNMENT (( #84 ) ) ;
#63 = VERTEX_POINT ( 'NONE', #42 ) ;
#64 =( GEOMETRIC_REPRESENTATION_CONTEXT ( 3 ) GLOBAL_UNCERTAINTY_ASSIGNED_CONTEXT ( ( #15 ) ) GLOBAL_UNIT_ASSIGNED_CONTEXT ( ( #4, #50, #74 ) ) REPRESENTATION_CONTEXT ( 'NONE', 'WORKASPACE' ) );
#65 = FACE_OUTER_BOUND ( 'NONE', #54, .T. ) ;
#66 = PRODUCT_CONTEXT ( 'NONE', #48, 'mechanical' ) ;
#67 = PRODUCT_DEFINITION_CONTEXT ( 'detailed design', #71, 'design' ) ;
#68 = PRODUCT_DEFINITION_FORMATION_WITH_SPECIFIED_SOURCE ( 'ANY', '', #77, .NOT_KNOWN. ) ;
#69 = ADVANCED_FACE ( 'NONE', ( #65, #31 ), #55, .T. ) ;
#70 = EDGE_LOOP ( 'NONE', ( #40 ) ) ;
#71 = APPLICATION_CONTEXT ( 'automotive_design' ) ;
#72 = EDGE_LOOP ( 'NONE', ( #39 ) ) ;
#73 = FILL_AREA_STYLE_COLOUR ( '', #53 ) ;
#74 =( NAMED_UNIT ( * ) SI_UNIT ( $, .STERADIAN. ) SOLID_ANGLE_UNIT ( ) );
#75 = CARTESIAN_POINT ( 'NONE',  ( 0.000000000000000000, 100.0000000000000000, 0.000000000000000000 ) ) ;
#76 = UNCERTAINTY_MEASURE_WITH_UNIT (LENGTH_MEASURE( 1.000000000000000082E-05 ), #85, 'distance_accuracy_value', 'NONE');
#77 = PRODUCT ( 'C8_decal__ap214_appear', 'C8_decal__ap214_appear', '', ( #66 ) ) ;
#78 = CIRCLE ( 'NONE', #8, 50.00000000000000000 ) ;
#79 = FILL_AREA_STYLE ('',( #73 ) ) ;
#80 = DIRECTION ( 'NONE',  ( 0.000000000000000000, 0.000000000000000000, -1.000000000000000000 ) ) ;
#81 = CARTESIAN_POINT ( 'NONE',  ( 0.000000000000000000, 0.000000000000000000, 0.000000000000000000 ) ) ;
#82 = EDGE_CURVE ( 'NONE', #63, #63, #78, .T. ) ;
#83 = ORIENTED_EDGE ( 'NONE', *, *, #82, .T. ) ;
#84 = SURFACE_STYLE_USAGE ( .BOTH. , #57 ) ;
#85 =( LENGTH_UNIT ( ) NAMED_UNIT ( * ) SI_UNIT ( .MILLI., .METRE. ) );
ENDSEC;
END-ISO-10303-21;
