ISO-10303-21;
HEADER;
FILE_DESCRIPTION (( 'STEP AP214' ),
    '1' );
FILE_NAME ('C8_decal__ap214_noappear.step',
    '2026-08-06T13:09:30',
    ( '' ),
    ( '' ),
    'SwSTEP 2.0',
    'SolidWorks 2026',
    '' );
FILE_SCHEMA (( 'AUTOMOTIVE_DESIGN' ));
ENDSEC;

DATA;
#1 = UNCERTAINTY_MEASURE_WITH_UNIT (LENGTH_MEASURE( 1.000000000000000082E-05 ), #42, 'distance_accuracy_value', 'NONE');
#2 = AXIS2_PLACEMENT_3D ( 'NONE', #10, #37, #53 ) ;
#3 = ORIENTED_EDGE ( 'NONE', *, *, #71, .F. ) ;
#4 = CIRCLE ( 'NONE', #2, 50.00000000000000000 ) ;
#5 = DIRECTION ( 'NONE',  ( 0.000000000000000000, 1.000000000000000000, 0.000000000000000000 ) ) ;
#6 = ADVANCED_FACE ( 'NONE', ( #52 ), #51, .T. ) ;
#7 = CARTESIAN_POINT ( 'NONE',  ( 0.000000000000000000, 0.000000000000000000, 0.000000000000000000 ) ) ;
#8 = PRODUCT_CONTEXT ( 'NONE', #60, 'mechanical' ) ;
#9 = STYLED_ITEM ( 'NONE', ( #43 ), #65 ) ;
#10 = CARTESIAN_POINT ( 'NONE',  ( 0.000000000000000000, 0.000000000000000000, 0.000000000000000000 ) ) ;
#11 = ADVANCED_FACE ( 'NONE', ( #21, #76 ), #84, .T. ) ;
#12 = AXIS2_PLACEMENT_3D ( 'NONE', #32, #22, #69 ) ;
#13 = EDGE_LOOP ( 'NONE', ( #3 ) ) ;
#14 = DIRECTION ( 'NONE',  ( -0.000000000000000000, -1.000000000000000000, -0.000000000000000000 ) ) ;
#15 = VERTEX_POINT ( 'NONE', #55 ) ;
#16 = DIRECTION ( 'NONE',  ( 0.000000000000000000, 0.000000000000000000, -1.000000000000000000 ) ) ;
#17 = ADVANCED_FACE ( 'NONE', ( #49 ), #77, .F. ) ;
#18 = DIRECTION ( 'NONE',  ( 0.000000000000000000, 1.000000000000000000, 0.000000000000000000 ) ) ;
#19 = ORIENTED_EDGE ( 'NONE', *, *, #71, .T. ) ;
#20 =( LENGTH_UNIT ( ) NAMED_UNIT ( * ) SI_UNIT ( .MILLI., .METRE. ) );
#21 = FACE_OUTER_BOUND ( 'NONE', #73, .T. ) ;
#22 = DIRECTION ( 'NONE',  ( 0.000000000000000000, 1.000000000000000000, 0.000000000000000000 ) ) ;
#23 = CARTESIAN_POINT ( 'NONE',  ( 0.000000000000000000, 0.000000000000000000, 50.00000000000000000 ) ) ;
#24 =( NAMED_UNIT ( * ) SI_UNIT ( $, .STERADIAN. ) SOLID_ANGLE_UNIT ( ) );
#25 = AXIS2_PLACEMENT_3D ( 'NONE', #35, #5, #85 ) ;
#26 = PRODUCT_DEFINITION_FORMATION_WITH_SPECIFIED_SOURCE ( 'ANY', '', #64, .NOT_KNOWN. ) ;
#27 = PRODUCT_DEFINITION_SHAPE ( 'NONE', 'NONE',  #66 ) ;
#28 = EDGE_LOOP ( 'NONE', ( #41 ) ) ;
#29 = APPLICATION_PROTOCOL_DEFINITION ( 'draft international standard', 'automotive_design', 1998, #60 ) ;
#30 = AXIS2_PLACEMENT_3D ( 'NONE', #78, #18, #44 ) ;
#31 = VERTEX_POINT ( 'NONE', #23 ) ;
#32 = CARTESIAN_POINT ( 'NONE',  ( 0.000000000000000000, 0.000000000000000000, 0.000000000000000000 ) ) ;
#33 = FILL_AREA_STYLE ('',( #63 ) ) ;
#34 = EDGE_LOOP ( 'NONE', ( #19 ) ) ;
#35 = CARTESIAN_POINT ( 'NONE',  ( 0.000000000000000000, 100.0000000000000000, 0.000000000000000000 ) ) ;
#36 = APPLICATION_PROTOCOL_DEFINITION ( 'draft international standard', 'automotive_design', 1998, #82 ) ;
#37 = DIRECTION ( 'NONE',  ( 0.000000000000000000, 1.000000000000000000, 0.000000000000000000 ) ) ;
#38 = EDGE_CURVE ( 'NONE', #15, #15, #62, .T. ) ;
#39 = ADVANCED_BREP_SHAPE_REPRESENTATION ( 'C8_decal__ap214_noappear', ( #65, #59 ), #47 ) ;
#40 = AXIS2_PLACEMENT_3D ( 'NONE', #83, #14, #16 ) ;
#41 = ORIENTED_EDGE ( 'NONE', *, *, #38, .T. ) ;
#42 =( LENGTH_UNIT ( ) NAMED_UNIT ( * ) SI_UNIT ( .MILLI., .METRE. ) );
#43 = PRESENTATION_STYLE_ASSIGNMENT (( #75 ) ) ;
#44 = DIRECTION ( 'NONE',  ( 0.000000000000000000, -0.000000000000000000, 1.000000000000000000 ) ) ;
#45 =( GEOMETRIC_REPRESENTATION_CONTEXT ( 3 ) GLOBAL_UNCERTAINTY_ASSIGNED_CONTEXT ( ( #72 ) ) GLOBAL_UNIT_ASSIGNED_CONTEXT ( ( #20, #57, #48 ) ) REPRESENTATION_CONTEXT ( 'NONE', 'WORKASPACE' ) );
#46 = COLOUR_RGB ( '',0.7921568627450980005, 0.8196078431372548767, 0.9333333333333333481 ) ;
#47 =( GEOMETRIC_REPRESENTATION_CONTEXT ( 3 ) GLOBAL_UNCERTAINTY_ASSIGNED_CONTEXT ( ( #1 ) ) GLOBAL_UNIT_ASSIGNED_CONTEXT ( ( #42, #79, #24 ) ) REPRESENTATION_CONTEXT ( 'NONE', 'WORKASPACE' ) );
#48 =( NAMED_UNIT ( * ) SI_UNIT ( $, .STERADIAN. ) SOLID_ANGLE_UNIT ( ) );
#49 = FACE_OUTER_BOUND ( 'NONE', #13, .T. ) ;
#50 = SURFACE_STYLE_FILL_AREA ( #33 ) ;
#51 = PLANE ( 'NONE',  #30 ) ;
#52 = FACE_OUTER_BOUND ( 'NONE', #28, .T. ) ;
#53 = DIRECTION ( 'NONE',  ( 0.000000000000000000, 0.000000000000000000, 1.000000000000000000 ) ) ;
#54 = CLOSED_SHELL ( 'NONE', ( #11, #6, #17 ) ) ;
#55 = CARTESIAN_POINT ( 'NONE',  ( 0.000000000000000000, 100.0000000000000000, 50.00000000000000000 ) ) ;
#56 = SURFACE_SIDE_STYLE ('',( #50 ) ) ;
#57 =( NAMED_UNIT ( * ) PLANE_ANGLE_UNIT ( ) SI_UNIT ( $, .RADIAN. ) );
#58 = PRESENTATION_LAYER_ASSIGNMENT (  '', '', ( #9 ) ) ;
#59 = AXIS2_PLACEMENT_3D ( 'NONE', #7, #61, #67 ) ;
#60 = APPLICATION_CONTEXT ( 'automotive_design' ) ;
#61 = DIRECTION ( 'NONE',  ( 0.000000000000000000, 0.000000000000000000, 1.000000000000000000 ) ) ;
#62 = CIRCLE ( 'NONE', #25, 50.00000000000000000 ) ;
#63 = FILL_AREA_STYLE_COLOUR ( '', #46 ) ;
#64 = PRODUCT ( 'C8_decal__ap214_noappear', 'C8_decal__ap214_noappear', '', ( #8 ) ) ;
#65 = MANIFOLD_SOLID_BREP ( 'Boss-Extrude1', #54 ) ;
#66 = PRODUCT_DEFINITION ( 'UNKNOWN', '', #26, #81 ) ;
#67 = DIRECTION ( 'NONE',  ( 1.000000000000000000, 0.000000000000000000, 0.000000000000000000 ) ) ;
#68 = MECHANICAL_DESIGN_GEOMETRIC_PRESENTATION_REPRESENTATION (  '', ( #9 ), #45 ) ;
#69 = DIRECTION ( 'NONE',  ( 0.000000000000000000, -0.000000000000000000, 1.000000000000000000 ) ) ;
#70 = SHAPE_DEFINITION_REPRESENTATION ( #27, #39 ) ;
#71 = EDGE_CURVE ( 'NONE', #31, #31, #4, .T. ) ;
#72 = UNCERTAINTY_MEASURE_WITH_UNIT (LENGTH_MEASURE( 1.000000000000000082E-05 ), #20, 'distance_accuracy_value', 'NONE');
#73 = EDGE_LOOP ( 'NONE', ( #74 ) ) ;
#74 = ORIENTED_EDGE ( 'NONE', *, *, #38, .F. ) ;
#75 = SURFACE_STYLE_USAGE ( .BOTH. , #56 ) ;
#76 = FACE_OUTER_BOUND ( 'NONE', #34, .T. ) ;
#77 = PLANE ( 'NONE',  #12 ) ;
#78 = CARTESIAN_POINT ( 'NONE',  ( 0.000000000000000000, 100.0000000000000000, 0.000000000000000000 ) ) ;
#79 =( NAMED_UNIT ( * ) PLANE_ANGLE_UNIT ( ) SI_UNIT ( $, .RADIAN. ) );
#80 = PRODUCT_RELATED_PRODUCT_CATEGORY ( 'part', '', ( #64 ) ) ;
#81 = PRODUCT_DEFINITION_CONTEXT ( 'detailed design', #82, 'design' ) ;
#82 = APPLICATION_CONTEXT ( 'automotive_design' ) ;
#83 = CARTESIAN_POINT ( 'NONE',  ( 0.000000000000000000, 100.0000000000000000, 0.000000000000000000 ) ) ;
#84 = CYLINDRICAL_SURFACE ( 'NONE', #40, 50.00000000000000000 ) ;
#85 = DIRECTION ( 'NONE',  ( 0.000000000000000000, 0.000000000000000000, 1.000000000000000000 ) ) ;
ENDSEC;
END-ISO-10303-21;
