ISO-10303-21;
HEADER;
FILE_DESCRIPTION (( 'STEP AP214' ),
    '1' );
FILE_NAME ('C8_decal__ap214_nosplit.step',
    '2026-08-06T13:09:30',
    ( '' ),
    ( '' ),
    'SwSTEP 2.0',
    'SolidWorks 2026',
    '' );
FILE_SCHEMA (( 'AUTOMOTIVE_DESIGN' ));
ENDSEC;

DATA;
#1 = ADVANCED_FACE ( 'NONE', ( #74 ), #68, .F. ) ;
#2 =( NAMED_UNIT ( * ) PLANE_ANGLE_UNIT ( ) SI_UNIT ( $, .RADIAN. ) );
#3 = ADVANCED_FACE ( 'NONE', ( #32, #4 ), #36, .T. ) ;
#4 = FACE_OUTER_BOUND ( 'NONE', #7, .T. ) ;
#5 = PRESENTATION_LAYER_ASSIGNMENT (  '', '', ( #40 ) ) ;
#6 = CIRCLE ( 'NONE', #58, 50.00000000000000000 ) ;
#7 = EDGE_LOOP ( 'NONE', ( #62 ) ) ;
#8 = SURFACE_STYLE_USAGE ( .BOTH. , #31 ) ;
#9 =( NAMED_UNIT ( * ) PLANE_ANGLE_UNIT ( ) SI_UNIT ( $, .RADIAN. ) );
#10 = DIRECTION ( 'NONE',  ( -0.000000000000000000, -1.000000000000000000, -0.000000000000000000 ) ) ;
#11 = CLOSED_SHELL ( 'NONE', ( #3, #67, #1 ) ) ;
#12 = PRODUCT_DEFINITION_CONTEXT ( 'detailed design', #14, 'design' ) ;
#13 = EDGE_LOOP ( 'NONE', ( #29 ) ) ;
#14 = APPLICATION_CONTEXT ( 'automotive_design' ) ;
#15 = DIRECTION ( 'NONE',  ( 0.000000000000000000, -0.000000000000000000, 1.000000000000000000 ) ) ;
#16 = CARTESIAN_POINT ( 'NONE',  ( 0.000000000000000000, 100.0000000000000000, 0.000000000000000000 ) ) ;
#17 = PRODUCT_CONTEXT ( 'NONE', #28, 'mechanical' ) ;
#18 = COLOUR_RGB ( '',1.000000000000000000, 0.000000000000000000, 0.000000000000000000 ) ;
#19 = PRODUCT_DEFINITION_FORMATION_WITH_SPECIFIED_SOURCE ( 'ANY', '', #20, .NOT_KNOWN. ) ;
#20 = PRODUCT ( 'C8_decal__ap214_nosplit', 'C8_decal__ap214_nosplit', '', ( #17 ) ) ;
#21 = ORIENTED_EDGE ( 'NONE', *, *, #56, .T. ) ;
#22 = AXIS2_PLACEMENT_3D ( 'NONE', #50, #85, #15 ) ;
#23 = DIRECTION ( 'NONE',  ( 0.000000000000000000, -0.000000000000000000, 1.000000000000000000 ) ) ;
#24 = PLANE ( 'NONE',  #63 ) ;
#25 =( NAMED_UNIT ( * ) SI_UNIT ( $, .STERADIAN. ) SOLID_ANGLE_UNIT ( ) );
#26 = DIRECTION ( 'NONE',  ( 0.000000000000000000, 0.000000000000000000, -1.000000000000000000 ) ) ;
#27 = SHAPE_DEFINITION_REPRESENTATION ( #79, #45 ) ;
#28 = APPLICATION_CONTEXT ( 'automotive_design' ) ;
#29 = ORIENTED_EDGE ( 'NONE', *, *, #56, .F. ) ;
#30 =( LENGTH_UNIT ( ) NAMED_UNIT ( * ) SI_UNIT ( .MILLI., .METRE. ) );
#31 = SURFACE_SIDE_STYLE ('',( #39 ) ) ;
#32 = FACE_OUTER_BOUND ( 'NONE', #13, .T. ) ;
#33 = VERTEX_POINT ( 'NONE', #60 ) ;
#34 = CARTESIAN_POINT ( 'NONE',  ( 0.000000000000000000, 100.0000000000000000, 0.000000000000000000 ) ) ;
#35 = AXIS2_PLACEMENT_3D ( 'NONE', #34, #10, #26 ) ;
#36 = CYLINDRICAL_SURFACE ( 'NONE', #35, 50.00000000000000000 ) ;
#37 = CARTESIAN_POINT ( 'NONE',  ( 0.000000000000000000, 0.000000000000000000, 0.000000000000000000 ) ) ;
#38 = DIRECTION ( 'NONE',  ( 0.000000000000000000, 1.000000000000000000, 0.000000000000000000 ) ) ;
#39 = SURFACE_STYLE_FILL_AREA ( #72 ) ;
#40 = STYLED_ITEM ( 'NONE', ( #57 ), #61 ) ;
#41 = AXIS2_PLACEMENT_3D ( 'NONE', #49, #66, #65 ) ;
#42 =( GEOMETRIC_REPRESENTATION_CONTEXT ( 3 ) GLOBAL_UNCERTAINTY_ASSIGNED_CONTEXT ( ( #81 ) ) GLOBAL_UNIT_ASSIGNED_CONTEXT ( ( #71, #2, #44 ) ) REPRESENTATION_CONTEXT ( 'NONE', 'WORKASPACE' ) );
#43 = APPLICATION_PROTOCOL_DEFINITION ( 'draft international standard', 'automotive_design', 1998, #28 ) ;
#44 =( NAMED_UNIT ( * ) SI_UNIT ( $, .STERADIAN. ) SOLID_ANGLE_UNIT ( ) );
#45 = ADVANCED_BREP_SHAPE_REPRESENTATION ( 'C8_decal__ap214_nosplit', ( #61, #48 ), #77 ) ;
#46 = CIRCLE ( 'NONE', #41, 50.00000000000000000 ) ;
#47 = EDGE_LOOP ( 'NONE', ( #21 ) ) ;
#48 = AXIS2_PLACEMENT_3D ( 'NONE', #37, #64, #80 ) ;
#49 = CARTESIAN_POINT ( 'NONE',  ( 0.000000000000000000, 0.000000000000000000, 0.000000000000000000 ) ) ;
#50 = CARTESIAN_POINT ( 'NONE',  ( 0.000000000000000000, 0.000000000000000000, 0.000000000000000000 ) ) ;
#51 = CARTESIAN_POINT ( 'NONE',  ( 0.000000000000000000, 100.0000000000000000, 0.000000000000000000 ) ) ;
#52 = MECHANICAL_DESIGN_GEOMETRIC_PRESENTATION_REPRESENTATION (  '', ( #40 ), #42 ) ;
#53 = PRODUCT_RELATED_PRODUCT_CATEGORY ( 'part', '', ( #20 ) ) ;
#54 = EDGE_CURVE ( 'NONE', #33, #33, #46, .T. ) ;
#55 = EDGE_LOOP ( 'NONE', ( #70 ) ) ;
#56 = EDGE_CURVE ( 'NONE', #75, #75, #6, .T. ) ;
#57 = PRESENTATION_STYLE_ASSIGNMENT (( #8 ) ) ;
#58 = AXIS2_PLACEMENT_3D ( 'NONE', #51, #84, #83 ) ;
#59 = CARTESIAN_POINT ( 'NONE',  ( 0.000000000000000000, 100.0000000000000000, 50.00000000000000000 ) ) ;
#60 = CARTESIAN_POINT ( 'NONE',  ( 0.000000000000000000, 0.000000000000000000, 50.00000000000000000 ) ) ;
#61 = MANIFOLD_SOLID_BREP ( 'Boss-Extrude1', #11 ) ;
#62 = ORIENTED_EDGE ( 'NONE', *, *, #54, .T. ) ;
#63 = AXIS2_PLACEMENT_3D ( 'NONE', #16, #38, #23 ) ;
#64 = DIRECTION ( 'NONE',  ( 0.000000000000000000, 0.000000000000000000, 1.000000000000000000 ) ) ;
#65 = DIRECTION ( 'NONE',  ( 0.000000000000000000, 0.000000000000000000, 1.000000000000000000 ) ) ;
#66 = DIRECTION ( 'NONE',  ( 0.000000000000000000, 1.000000000000000000, 0.000000000000000000 ) ) ;
#67 = ADVANCED_FACE ( 'NONE', ( #76 ), #24, .T. ) ;
#68 = PLANE ( 'NONE',  #22 ) ;
#69 = PRODUCT_DEFINITION ( 'UNKNOWN', '', #19, #12 ) ;
#70 = ORIENTED_EDGE ( 'NONE', *, *, #54, .F. ) ;
#71 =( LENGTH_UNIT ( ) NAMED_UNIT ( * ) SI_UNIT ( .MILLI., .METRE. ) );
#72 = FILL_AREA_STYLE ('',( #73 ) ) ;
#73 = FILL_AREA_STYLE_COLOUR ( '', #18 ) ;
#74 = FACE_OUTER_BOUND ( 'NONE', #55, .T. ) ;
#75 = VERTEX_POINT ( 'NONE', #59 ) ;
#76 = FACE_OUTER_BOUND ( 'NONE', #47, .T. ) ;
#77 =( GEOMETRIC_REPRESENTATION_CONTEXT ( 3 ) GLOBAL_UNCERTAINTY_ASSIGNED_CONTEXT ( ( #82 ) ) GLOBAL_UNIT_ASSIGNED_CONTEXT ( ( #30, #9, #25 ) ) REPRESENTATION_CONTEXT ( 'NONE', 'WORKASPACE' ) );
#78 = APPLICATION_PROTOCOL_DEFINITION ( 'draft international standard', 'automotive_design', 1998, #14 ) ;
#79 = PRODUCT_DEFINITION_SHAPE ( 'NONE', 'NONE',  #69 ) ;
#80 = DIRECTION ( 'NONE',  ( 1.000000000000000000, 0.000000000000000000, 0.000000000000000000 ) ) ;
#81 = UNCERTAINTY_MEASURE_WITH_UNIT (LENGTH_MEASURE( 1.000000000000000082E-05 ), #71, 'distance_accuracy_value', 'NONE');
#82 = UNCERTAINTY_MEASURE_WITH_UNIT (LENGTH_MEASURE( 1.000000000000000082E-05 ), #30, 'distance_accuracy_value', 'NONE');
#83 = DIRECTION ( 'NONE',  ( 0.000000000000000000, 0.000000000000000000, 1.000000000000000000 ) ) ;
#84 = DIRECTION ( 'NONE',  ( 0.000000000000000000, 1.000000000000000000, 0.000000000000000000 ) ) ;
#85 = DIRECTION ( 'NONE',  ( 0.000000000000000000, 1.000000000000000000, 0.000000000000000000 ) ) ;
ENDSEC;
END-ISO-10303-21;
