ISO-10303-21;
HEADER;
FILE_DESCRIPTION (( 'STEP AP203' ),
    '1' );
FILE_NAME ('C8_decal__ap203.step',
    '2026-08-06T13:09:30',
    ( '' ),
    ( '' ),
    'SwSTEP 2.0',
    'SolidWorks 2026',
    '' );
FILE_SCHEMA (( 'CONFIG_CONTROL_DESIGN' ));
ENDSEC;

DATA;
#1 = APPROVAL_STATUS ( 'not_yet_approved' ) ;
#2 = PRODUCT_DEFINITION ( 'UNKNOWN', '', #130, #82 ) ;
#3 = PERSON ( 'UNSPECIFIED', 'UNSPECIFIED', 'UNSPECIFIED', ('UNSPECIFIED'), ('UNSPECIFIED'), ('UNSPECIFIED') ) ;
#4 = ORGANIZATION ( 'UNSPECIFIED', 'UNSPECIFIED', '' ) ;
#5 = ORIENTED_EDGE ( 'NONE', *, *, #89, .F. ) ;
#6 = ADVANCED_FACE ( 'NONE', ( #94 ), #124, .F. ) ;
#7 = APPLICATION_CONTEXT ( 'configuration controlled 3d designs of mechanical parts and assemblies' ) ;
#8 = LOCAL_TIME ( 14, 9, 30.00000000000000000, #111 ) ;
#9 = APPROVAL ( #22, 'UNSPECIFIED' ) ;
#10 = DIRECTION ( 'NONE',  ( 0.000000000000000000, 0.000000000000000000, 1.000000000000000000 ) ) ;
#11 = COORDINATED_UNIVERSAL_TIME_OFFSET ( 0, 0, .AHEAD. ) ;
#12 = LOCAL_TIME ( 14, 9, 30.00000000000000000, #104 ) ;
#13 = APPROVAL_PERSON_ORGANIZATION ( #131, #37, #102 ) ;
#14 = DATE_AND_TIME ( #73, #12 ) ;
#15 = CC_DESIGN_PERSON_AND_ORGANIZATION_ASSIGNMENT ( #103, #61, ( #25 ) ) ;
#16 = CC_DESIGN_DATE_AND_TIME_ASSIGNMENT ( #14, #56, ( #25 ) ) ;
#17 = CC_DESIGN_APPROVAL ( #9, ( #130 ) ) ;
#18 = ORIENTED_EDGE ( 'NONE', *, *, #89, .T. ) ;
#19 = APPROVAL_STATUS ( 'not_yet_approved' ) ;
#20 = MECHANICAL_CONTEXT ( 'NONE', #36, 'mechanical' ) ;
#21 = DIRECTION ( 'NONE',  ( 0.000000000000000000, 0.000000000000000000, 1.000000000000000000 ) ) ;
#22 = APPROVAL_STATUS ( 'not_yet_approved' ) ;
#23 = LOCAL_TIME ( 14, 9, 30.00000000000000000, #55 ) ;
#24 = DIRECTION ( 'NONE',  ( 0.000000000000000000, 1.000000000000000000, 0.000000000000000000 ) ) ;
#25 = SECURITY_CLASSIFICATION ( '', '', #133 ) ;
#26 = DIRECTION ( 'NONE',  ( 0.000000000000000000, 0.000000000000000000, 1.000000000000000000 ) ) ;
#27 = CARTESIAN_POINT ( 'NONE',  ( 0.000000000000000000, 0.000000000000000000, 50.00000000000000000 ) ) ;
#28 = DATE_AND_TIME ( #51, #80 ) ;
#29 = CARTESIAN_POINT ( 'NONE',  ( 0.000000000000000000, 0.000000000000000000, 0.000000000000000000 ) ) ;
#30 = CARTESIAN_POINT ( 'NONE',  ( 0.000000000000000000, 100.0000000000000000, 0.000000000000000000 ) ) ;
#31 = PRODUCT_RELATED_PRODUCT_CATEGORY ( 'detail', '', ( #132 ) ) ;
#32 = LOCAL_TIME ( 14, 9, 30.00000000000000000, #114 ) ;
#33 = APPROVAL_DATE_TIME ( #105, #37 ) ;
#34 = CC_DESIGN_DATE_AND_TIME_ASSIGNMENT ( #100, #53, ( #2 ) ) ;
#35 = CARTESIAN_POINT ( 'NONE',  ( 0.000000000000000000, 0.000000000000000000, 0.000000000000000000 ) ) ;
#36 = APPLICATION_CONTEXT ( 'configuration controlled 3d designs of mechanical parts and assemblies' ) ;
#37 = APPROVAL ( #1, 'UNSPECIFIED' ) ;
#38 = DIRECTION ( 'NONE',  ( -0.000000000000000000, -1.000000000000000000, -0.000000000000000000 ) ) ;
#39 = EDGE_CURVE ( 'NONE', #122, #122, #98, .T. ) ;
#40 = PERSON_AND_ORGANIZATION_ROLE ( 'creator' ) ;
#41 =( NAMED_UNIT ( * ) SI_UNIT ( $, .STERADIAN. ) SOLID_ANGLE_UNIT ( ) );
#42 =( GEOMETRIC_REPRESENTATION_CONTEXT ( 3 ) GLOBAL_UNCERTAINTY_ASSIGNED_CONTEXT ( ( #134 ) ) GLOBAL_UNIT_ASSIGNED_CONTEXT ( ( #96, #54, #41 ) ) REPRESENTATION_CONTEXT ( 'NONE', 'WORKASPACE' ) );
#43 = PERSON_AND_ORGANIZATION ( #3, #4 ) ;
#44 = CC_DESIGN_PERSON_AND_ORGANIZATION_ASSIGNMENT ( #62, #72, ( #130 ) ) ;
#45 = APPROVAL_ROLE ( '' ) ;
#46 = APPROVAL_PERSON_ORGANIZATION ( #66, #49, #97 ) ;
#47 = ORIENTED_EDGE ( 'NONE', *, *, #39, .F. ) ;
#48 = CARTESIAN_POINT ( 'NONE',  ( 0.000000000000000000, 0.000000000000000000, 0.000000000000000000 ) ) ;
#49 = APPROVAL ( #19, 'UNSPECIFIED' ) ;
#50 = APPROVAL_PERSON_ORGANIZATION ( #90, #9, #45 ) ;
#51 = CALENDAR_DATE ( 2026, 6, 8 ) ;
#52 = MANIFOLD_SOLID_BREP ( 'Boss-Extrude1', #87 ) ;
#53 = DATE_TIME_ROLE ( 'creation_date' ) ;
#54 =( NAMED_UNIT ( * ) PLANE_ANGLE_UNIT ( ) SI_UNIT ( $, .RADIAN. ) );
#55 = COORDINATED_UNIVERSAL_TIME_OFFSET ( 0, 0, .AHEAD. ) ;
#56 = DATE_TIME_ROLE ( 'classification_date' ) ;
#57 = ORIENTED_EDGE ( 'NONE', *, *, #39, .T. ) ;
#58 = APPLICATION_PROTOCOL_DEFINITION ( 'international standard', 'config_control_design', 1994, #36 ) ;
#59 = CALENDAR_DATE ( 2026, 6, 8 ) ;
#60 = PERSON_AND_ORGANIZATION ( #3, #4 ) ;
#61 = PERSON_AND_ORGANIZATION_ROLE ( 'classification_officer' ) ;
#62 = PERSON_AND_ORGANIZATION ( #3, #4 ) ;
#63 = CALENDAR_DATE ( 2026, 6, 8 ) ;
#64 = CC_DESIGN_SECURITY_CLASSIFICATION ( #25, ( #130 ) ) ;
#65 = CIRCLE ( 'NONE', #106, 50.00000000000000000 ) ;
#66 = PERSON_AND_ORGANIZATION ( #3, #4 ) ;
#67 = CYLINDRICAL_SURFACE ( 'NONE', #95, 50.00000000000000000 ) ;
#68 = DIRECTION ( 'NONE',  ( 0.000000000000000000, 0.000000000000000000, -1.000000000000000000 ) ) ;
#69 = PLANE ( 'NONE',  #116 ) ;
#70 = VERTEX_POINT ( 'NONE', #27 ) ;
#71 = CALENDAR_DATE ( 2026, 6, 8 ) ;
#72 = PERSON_AND_ORGANIZATION_ROLE ( 'design_supplier' ) ;
#73 = CALENDAR_DATE ( 2026, 6, 8 ) ;
#74 = CC_DESIGN_PERSON_AND_ORGANIZATION_ASSIGNMENT ( #60, #120, ( #132 ) ) ;
#75 = EDGE_LOOP ( 'NONE', ( #47 ) ) ;
#76 = DIRECTION ( 'NONE',  ( 0.000000000000000000, -0.000000000000000000, 1.000000000000000000 ) ) ;
#77 = DIRECTION ( 'NONE',  ( 1.000000000000000000, 0.000000000000000000, 0.000000000000000000 ) ) ;
#78 = DIRECTION ( 'NONE',  ( 0.000000000000000000, 1.000000000000000000, 0.000000000000000000 ) ) ;
#79 = DIRECTION ( 'NONE',  ( 0.000000000000000000, 1.000000000000000000, 0.000000000000000000 ) ) ;
#80 = LOCAL_TIME ( 14, 9, 30.00000000000000000, #11 ) ;
#81 = FACE_OUTER_BOUND ( 'NONE', #85, .T. ) ;
#82 = DESIGN_CONTEXT ( 'detailed design', #7, 'design' ) ;
#83 = AXIS2_PLACEMENT_3D ( 'NONE', #35, #24, #76 ) ;
#84 = PERSON_AND_ORGANIZATION_ROLE ( 'creator' ) ;
#85 = EDGE_LOOP ( 'NONE', ( #57 ) ) ;
#86 = APPLICATION_PROTOCOL_DEFINITION ( 'international standard', 'config_control_design', 1994, #7 ) ;
#87 = CLOSED_SHELL ( 'NONE', ( #125, #115, #6 ) ) ;
#88 = APPROVAL_DATE_TIME ( #28, #49 ) ;
#89 = EDGE_CURVE ( 'NONE', #70, #70, #65, .T. ) ;
#90 = PERSON_AND_ORGANIZATION ( #3, #4 ) ;
#91 = CC_DESIGN_APPROVAL ( #37, ( #25 ) ) ;
#92 = SHAPE_DEFINITION_REPRESENTATION ( #93, #113 ) ;
#93 = PRODUCT_DEFINITION_SHAPE ( 'NONE', 'NONE',  #2 ) ;
#94 = FACE_OUTER_BOUND ( 'NONE', #118, .T. ) ;
#95 = AXIS2_PLACEMENT_3D ( 'NONE', #129, #38, #68 ) ;
#96 =( LENGTH_UNIT ( ) NAMED_UNIT ( * ) SI_UNIT ( .MILLI., .METRE. ) );
#97 = APPROVAL_ROLE ( '' ) ;
#98 = CIRCLE ( 'NONE', #117, 50.00000000000000000 ) ;
#99 = CC_DESIGN_PERSON_AND_ORGANIZATION_ASSIGNMENT ( #43, #84, ( #130 ) ) ;
#100 = DATE_AND_TIME ( #59, #8 ) ;
#101 = DIRECTION ( 'NONE',  ( 0.000000000000000000, 1.000000000000000000, 0.000000000000000000 ) ) ;
#102 = APPROVAL_ROLE ( '' ) ;
#103 = PERSON_AND_ORGANIZATION ( #3, #4 ) ;
#104 = COORDINATED_UNIVERSAL_TIME_OFFSET ( 0, 0, .AHEAD. ) ;
#105 = DATE_AND_TIME ( #71, #23 ) ;
#106 = AXIS2_PLACEMENT_3D ( 'NONE', #29, #101, #26 ) ;
#107 = EDGE_LOOP ( 'NONE', ( #18 ) ) ;
#108 = DIRECTION ( 'NONE',  ( 0.000000000000000000, -0.000000000000000000, 1.000000000000000000 ) ) ;
#109 = FACE_OUTER_BOUND ( 'NONE', #75, .T. ) ;
#110 = CC_DESIGN_PERSON_AND_ORGANIZATION_ASSIGNMENT ( #128, #40, ( #2 ) ) ;
#111 = COORDINATED_UNIVERSAL_TIME_OFFSET ( 0, 0, .AHEAD. ) ;
#112 = FACE_OUTER_BOUND ( 'NONE', #107, .T. ) ;
#113 = ADVANCED_BREP_SHAPE_REPRESENTATION ( 'C8_decal__ap203', ( #52, #127 ), #42 ) ;
#114 = COORDINATED_UNIVERSAL_TIME_OFFSET ( 0, 0, .AHEAD. ) ;
#115 = ADVANCED_FACE ( 'NONE', ( #81 ), #69, .T. ) ;
#116 = AXIS2_PLACEMENT_3D ( 'NONE', #121, #78, #108 ) ;
#117 = AXIS2_PLACEMENT_3D ( 'NONE', #30, #79, #10 ) ;
#118 = EDGE_LOOP ( 'NONE', ( #5 ) ) ;
#119 = CC_DESIGN_APPROVAL ( #49, ( #2 ) ) ;
#120 = PERSON_AND_ORGANIZATION_ROLE ( 'design_owner' ) ;
#121 = CARTESIAN_POINT ( 'NONE',  ( 0.000000000000000000, 100.0000000000000000, 0.000000000000000000 ) ) ;
#122 = VERTEX_POINT ( 'NONE', #126 ) ;
#123 = APPROVAL_DATE_TIME ( #135, #9 ) ;
#124 = PLANE ( 'NONE',  #83 ) ;
#125 = ADVANCED_FACE ( 'NONE', ( #109, #112 ), #67, .T. ) ;
#126 = CARTESIAN_POINT ( 'NONE',  ( 0.000000000000000000, 100.0000000000000000, 50.00000000000000000 ) ) ;
#127 = AXIS2_PLACEMENT_3D ( 'NONE', #48, #21, #77 ) ;
#128 = PERSON_AND_ORGANIZATION ( #3, #4 ) ;
#129 = CARTESIAN_POINT ( 'NONE',  ( 0.000000000000000000, 100.0000000000000000, 0.000000000000000000 ) ) ;
#130 = PRODUCT_DEFINITION_FORMATION_WITH_SPECIFIED_SOURCE ( 'ANY', '', #132, .NOT_KNOWN. ) ;
#131 = PERSON_AND_ORGANIZATION ( #3, #4 ) ;
#132 = PRODUCT ( 'C8_decal__ap203', 'C8_decal__ap203', '', ( #20 ) ) ;
#133 = SECURITY_CLASSIFICATION_LEVEL ( 'unclassified' ) ;
#134 = UNCERTAINTY_MEASURE_WITH_UNIT (LENGTH_MEASURE( 1.000000000000000082E-05 ), #96, 'distance_accuracy_value', 'NONE');
#135 = DATE_AND_TIME ( #63, #32 ) ;
ENDSEC;
END-ISO-10303-21;
