ISO-10303-21;
HEADER;
FILE_DESCRIPTION (( 'STEP AP214' ),
    '1' );
FILE_NAME ('C8_decal__ap214_appear_fe.step',
    '2026-08-06T13:09:30',
    ( '' ),
    ( '' ),
    'SwSTEP 2.0',
    'SolidWorks 2026',
    '' );
FILE_SCHEMA (( 'AUTOMOTIVE_DESIGN' ));
ENDSEC;

DATA;
#1 = DIRECTION ( 'NONE',  ( 0.000000000000000000, 0.000000000000000000, -1.000000000000000000 ) ) ;
#2 = CARTESIAN_POINT ( 'NONE',  ( 0.000000000000000000, 0.000000000000000000, 0.000000000000000000 ) ) ;
#3 = UNCERTAINTY_MEASURE_WITH_UNIT (LENGTH_MEASURE( 1.000000000000000082E-05 ), #68, 'distance_accuracy_value', 'NONE');
#4 = DIRECTION ( 'NONE',  ( 0.000000000000000000, 1.000000000000000000, 0.000000000000000000 ) ) ;
#5 = SHAPE_DEFINITION_REPRESENTATION ( #57, #79 ) ;
#6 = SURFACE_STYLE_FILL_AREA ( #70 ) ;
#7 = AXIS2_PLACEMENT_3D ( 'NONE', #19, #36, #1 ) ;
#8 = CARTESIAN_POINT ( 'NONE',  ( 0.000000000000000000, 100.0000000000000000, 0.000000000000000000 ) ) ;
#9 = APPLICATION_PROTOCOL_DEFINITION ( 'draft international standard', 'automotive_design', 1998, #59 ) ;
#10 =( NAMED_UNIT ( * ) SI_UNIT ( $, .STERADIAN. ) SOLID_ANGLE_UNIT ( ) );
#11 = AXIS2_PLACEMENT_3D ( 'NONE', #26, #46, #77 ) ;
#12 = PRODUCT_DEFINITION ( 'UNKNOWN', '', #58, #56 ) ;
#13 = VERTEX_POINT ( 'NONE', #54 ) ;
#14 = DIRECTION ( 'NONE',  ( 0.000000000000000000, 0.000000000000000000, 1.000000000000000000 ) ) ;
#15 = AXIS2_PLACEMENT_3D ( 'NONE', #8, #67, #14 ) ;
#16 = AXIS2_PLACEMENT_3D ( 'NONE', #2, #30, #53 ) ;
#17 = EDGE_LOOP ( 'NONE', ( #43 ) ) ;
#18 = VERTEX_POINT ( 'NONE', #81 ) ;
#19 = CARTESIAN_POINT ( 'NONE',  ( 0.000000000000000000, 100.0000000000000000, 0.000000000000000000 ) ) ;
#20 = PRESENTATION_STYLE_ASSIGNMENT (( #75 ) ) ;
#21 = MANIFOLD_SOLID_BREP ( 'Boss-Extrude1', #48 ) ;
#22 = PLANE ( 'NONE',  #34 ) ;
#23 = PLANE ( 'NONE',  #76 ) ;
#24 = EDGE_CURVE ( 'NONE', #18, #18, #38, .T. ) ;
#25 =( GEOMETRIC_REPRESENTATION_CONTEXT ( 3 ) GLOBAL_UNCERTAINTY_ASSIGNED_CONTEXT ( ( #3 ) ) GLOBAL_UNIT_ASSIGNED_CONTEXT ( ( #68, #52, #10 ) ) REPRESENTATION_CONTEXT ( 'NONE', 'WORKASPACE' ) );
#26 = CARTESIAN_POINT ( 'NONE',  ( 0.000000000000000000, 0.000000000000000000, 0.000000000000000000 ) ) ;
#27 = DIRECTION ( 'NONE',  ( 0.000000000000000000, -0.000000000000000000, 1.000000000000000000 ) ) ;
#28 = CARTESIAN_POINT ( 'NONE',  ( 0.000000000000000000, 100.0000000000000000, 0.000000000000000000 ) ) ;
#29 =( GEOMETRIC_REPRESENTATION_CONTEXT ( 3 ) GLOBAL_UNCERTAINTY_ASSIGNED_CONTEXT ( ( #71 ) ) GLOBAL_UNIT_ASSIGNED_CONTEXT ( ( #35, #55, #65 ) ) REPRESENTATION_CONTEXT ( 'NONE', 'WORKASPACE' ) );
#30 = DIRECTION ( 'NONE',  ( 0.000000000000000000, 0.000000000000000000, 1.000000000000000000 ) ) ;
#31 = FACE_OUTER_BOUND ( 'NONE', #40, .T. ) ;
#32 = ORIENTED_EDGE ( 'NONE', *, *, #50, .T. ) ;
#33 = PRESENTATION_LAYER_ASSIGNMENT (  '', '', ( #45 ) ) ;
#34 = AXIS2_PLACEMENT_3D ( 'NONE', #66, #44, #51 ) ;
#35 =( LENGTH_UNIT ( ) NAMED_UNIT ( * ) SI_UNIT ( .MILLI., .METRE. ) );
#36 = DIRECTION ( 'NONE',  ( -0.000000000000000000, -1.000000000000000000, -0.000000000000000000 ) ) ;
#37 = FACE_OUTER_BOUND ( 'NONE', #64, .T. ) ;
#38 = CIRCLE ( 'NONE', #11, 50.00000000000000000 ) ;
#39 = COLOUR_RGB ( '',1.000000000000000000, 0.000000000000000000, 0.000000000000000000 ) ;
#40 = EDGE_LOOP ( 'NONE', ( #73 ) ) ;
#41 = ORIENTED_EDGE ( 'NONE', *, *, #24, .F. ) ;
#42 = PRODUCT_RELATED_PRODUCT_CATEGORY ( 'part', '', ( #69 ) ) ;
#43 = ORIENTED_EDGE ( 'NONE', *, *, #50, .F. ) ;
#44 = DIRECTION ( 'NONE',  ( 0.000000000000000000, 1.000000000000000000, 0.000000000000000000 ) ) ;
#45 = STYLED_ITEM ( 'NONE', ( #20 ), #21 ) ;
#46 = DIRECTION ( 'NONE',  ( 0.000000000000000000, 1.000000000000000000, 0.000000000000000000 ) ) ;
#47 = PRODUCT_CONTEXT ( 'NONE', #59, 'mechanical' ) ;
#48 = CLOSED_SHELL ( 'NONE', ( #78, #62, #82 ) ) ;
#49 = FILL_AREA_STYLE_COLOUR ( '', #39 ) ;
#50 = EDGE_CURVE ( 'NONE', #13, #13, #61, .T. ) ;
#51 = DIRECTION ( 'NONE',  ( 0.000000000000000000, -0.000000000000000000, 1.000000000000000000 ) ) ;
#52 =( NAMED_UNIT ( * ) PLANE_ANGLE_UNIT ( ) SI_UNIT ( $, .RADIAN. ) );
#53 = DIRECTION ( 'NONE',  ( 1.000000000000000000, 0.000000000000000000, 0.000000000000000000 ) ) ;
#54 = CARTESIAN_POINT ( 'NONE',  ( 0.000000000000000000, 100.0000000000000000, 50.00000000000000000 ) ) ;
#55 =( NAMED_UNIT ( * ) PLANE_ANGLE_UNIT ( ) SI_UNIT ( $, .RADIAN. ) );
#56 = PRODUCT_DEFINITION_CONTEXT ( 'detailed design', #85, 'design' ) ;
#57 = PRODUCT_DEFINITION_SHAPE ( 'NONE', 'NONE',  #12 ) ;
#58 = PRODUCT_DEFINITION_FORMATION_WITH_SPECIFIED_SOURCE ( 'ANY', '', #69, .NOT_KNOWN. ) ;
#59 = APPLICATION_CONTEXT ( 'automotive_design' ) ;
#60 = FACE_OUTER_BOUND ( 'NONE', #17, .T. ) ;
#61 = CIRCLE ( 'NONE', #15, 50.00000000000000000 ) ;
#62 = ADVANCED_FACE ( 'NONE', ( #83 ), #23, .T. ) ;
#63 = CYLINDRICAL_SURFACE ( 'NONE', #7, 50.00000000000000000 ) ;
#64 = EDGE_LOOP ( 'NONE', ( #41 ) ) ;
#65 =( NAMED_UNIT ( * ) SI_UNIT ( $, .STERADIAN. ) SOLID_ANGLE_UNIT ( ) );
#66 = CARTESIAN_POINT ( 'NONE',  ( 0.000000000000000000, 0.000000000000000000, 0.000000000000000000 ) ) ;
#67 = DIRECTION ( 'NONE',  ( 0.000000000000000000, 1.000000000000000000, 0.000000000000000000 ) ) ;
#68 =( LENGTH_UNIT ( ) NAMED_UNIT ( * ) SI_UNIT ( .MILLI., .METRE. ) );
#69 = PRODUCT ( 'C8_decal__ap214_appear_fe', 'C8_decal__ap214_appear_fe', '', ( #47 ) ) ;
#70 = FILL_AREA_STYLE ('',( #49 ) ) ;
#71 = UNCERTAINTY_MEASURE_WITH_UNIT (LENGTH_MEASURE( 1.000000000000000082E-05 ), #35, 'distance_accuracy_value', 'NONE');
#72 = MECHANICAL_DESIGN_GEOMETRIC_PRESENTATION_REPRESENTATION (  '', ( #45 ), #25 ) ;
#73 = ORIENTED_EDGE ( 'NONE', *, *, #24, .T. ) ;
#74 = APPLICATION_PROTOCOL_DEFINITION ( 'draft international standard', 'automotive_design', 1998, #85 ) ;
#75 = SURFACE_STYLE_USAGE ( .BOTH. , #84 ) ;
#76 = AXIS2_PLACEMENT_3D ( 'NONE', #28, #4, #27 ) ;
#77 = DIRECTION ( 'NONE',  ( 0.000000000000000000, 0.000000000000000000, 1.000000000000000000 ) ) ;
#78 = ADVANCED_FACE ( 'NONE', ( #60, #31 ), #63, .T. ) ;
#79 = ADVANCED_BREP_SHAPE_REPRESENTATION ( 'C8_decal__ap214_appear_fe', ( #21, #16 ), #29 ) ;
#80 = EDGE_LOOP ( 'NONE', ( #32 ) ) ;
#81 = CARTESIAN_POINT ( 'NONE',  ( 0.000000000000000000, 0.000000000000000000, 50.00000000000000000 ) ) ;
#82 = ADVANCED_FACE ( 'NONE', ( #37 ), #22, .F. ) ;
#83 = FACE_OUTER_BOUND ( 'NONE', #80, .T. ) ;
#84 = SURFACE_SIDE_STYLE ('',( #6 ) ) ;
#85 = APPLICATION_CONTEXT ( 'automotive_design' ) ;
ENDSEC;
END-ISO-10303-21;
